<?xml version="1.0" encoding="UTF-8" standalone="no"?>
<!-- Created with Inkscape (http://www.inkscape.org/) -->

<svg
   version="1.1"
   id="svg2"
   width="816"
   height="1056"
   viewBox="0 0 816 1056"
   xmlns="http://www.w3.org/2000/svg"
   xmlns:svg="http://www.w3.org/2000/svg">
  <defs
     id="defs6">
    <clipPath
       clipPathUnits="userSpaceOnUse"
       id="clipPath18">
      <path
         d="m 18,23.29412 h 576 v 745.4118 H 18 Z"
         id="path16" />
    </clipPath>
  </defs>
  <g
     id="g8"
     transform="matrix(1.3333333,0,0,-1.3333333,0,1056)">
    <g
       id="g10" />
    <g
       id="g12">
      <g
         id="g14"
         clip-path="url(#clipPath18)">
        <g
           id="g20"
           transform="matrix(0.9411765,0,0,0.9411765,85.76471,700.9412)">
          <text
             xml:space="preserve"
             transform="matrix(1,0,0,-1,0,-9.963)"
             style="font-variant:normal;font-weight:normal;font-size:10.8564px;font-family:'TeX Gyre Heros';-inkscape-font-specification:TeXGyreHeros-Regular;writing-mode:lr-tb;fill:#404040;fill-opacity:1;fill-rule:nonzero;stroke:none"
             id="text24"><tspan
               x="0 8.250864 17.7285 26.598181 39.083038 49.15778 58.624561 66.886284"
               y="0"
               id="tspan22">FREDGUTH</tspan></text>
        </g>
        <g
           id="g26"
           transform="matrix(0.9411765,0,0,0.9411765,85.76471,700.9412)">
          <text
             xml:space="preserve"
             transform="matrix(1,0,0,-1,0,-201.245)"
             style="font-variant:normal;font-weight:normal;font-size:18.0941px;font-family:'TeX Gyre Heros';-inkscape-font-specification:TeXGyreHeros-Regular;writing-mode:lr-tb;fill:#404040;fill-opacity:1;fill-rule:nonzero;stroke:none"
             id="text30"><tspan
               x="0 13.76961 29.547665 49.360706 64.143585 81.930084 96.712967 112.2196 129.01094 143.79381 159.4814 175.25945 195.07249 211.86382"
               y="0"
               id="tspan28">THEEMERGENCEOF</tspan></text>
        </g>
        <g
           id="g32"
           transform="matrix(0.9411765,0,0,0.9411765,85.76471,700.9412)">
          <text
             xml:space="preserve"
             transform="matrix(1,0,0,-1,0,-229.141)"
             style="font-variant:normal;font-weight:normal;font-size:18.0941px;font-family:'TeX Gyre Heros';-inkscape-font-specification:TeXGyreHeros-Regular;writing-mode:lr-tb;fill:#404040;fill-opacity:1;fill-rule:nonzero;stroke:none"
             id="text36"><tspan
               x="0 14.78288 35.591095 43.335369 59.113426 72.521156 89.312477 105.09053 122.87703 135.94098 149.71059 157.45486 174.24619 195.0544 209.74681 225.81436 239.58398 253.35359 266.12802 280.91089 296.68896 311.47183 327.06894 346.88199 360.65161 376.42966 391.21252 408.00388 422.96768"
               y="0"
               id="tspan34">ANINFORMATIONBOTTLENECKTHEORY</tspan></text>
        </g>
        <g
           id="g38"
           transform="matrix(0.9411765,0,0,0.9411765,85.76471,700.9412)">
          <text
             xml:space="preserve"
             transform="matrix(1,0,0,-1,0,-257.036)"
             style="font-variant:normal;font-weight:normal;font-size:18.0941px;font-family:'TeX Gyre Heros';-inkscape-font-specification:TeXGyreHeros-Regular;writing-mode:lr-tb;fill:#404040;fill-opacity:1;fill-rule:nonzero;stroke:none"
             id="text42"><tspan
               x="0 16.791325 35.591095 51.369148 66.152031 80.934906 100.74795 113.52238 128.30527 143.08815 158.8662 174.64426 182.38853 198.16658"
               y="0"
               id="tspan40">OFDEEPLEARNING</tspan></text>
        </g>
        <g
           id="g44"
           transform="matrix(0.9411765,0,0,0.9411765,85.76471,700.9412)">
          <text
             xml:space="preserve"
             transform="matrix(1,0,0,-1,0,-611.706)"
             style="font-variant:normal;font-weight:normal;font-size:9.047px;font-family:'TeX Gyre Heros';-inkscape-font-specification:TeXGyreHeros-Regular;writing-mode:lr-tb;fill:#000000;fill-opacity:1;fill-rule:nonzero;stroke:none"
             id="text48"><tspan
               x="0 7.8889842 15.777968 19.650084 27.041483 34.43288 42.321865 49.713264 53.585381 61.112484 68.503883 76.392868 86.299332 94.188316 104.09478 111.48618 119.37517 126.76656 134.15796 138.03008 144.41727 148.28938"
               y="0"
               id="tspan46">UNIVERSIDADEDEBRASÍLIA</tspan></text>
        </g>
      </g>
    </g>
  </g>
</svg>
