<?xml version="1.0" encoding="UTF-8"?>
<svg width="673px" height="269px" viewBox="0 0 673 269" version="1.1" xmlns="http://www.w3.org/2000/svg" xmlns:xlink="http://www.w3.org/1999/xlink">
    <title>Group</title>
    <defs>
        <path d="M335.467733,94.3544657 C341.167733,93.7544657 354.167733,92.7544657 364.167733,91.9544657 C377.767733,91.0544657 382.767733,90.3544657 383.467733,89.2544657 C383.967733,88.4544657 384.367733,84.0544657 384.367733,79.4544657 L384.367733,71.0544657 L376.667733,71.7544657 C368.067733,72.4544657 337.567733,74.3544657 327.367733,74.8544657 L320.867733,75.1544657 L320.567733,85.2544657 C320.267733,97.0544657 318.567733,95.9544657 335.467733,94.3544657 Z" id="path-1"></path>
        <path d="M635.163866,94.8198243 C635.824299,92.8629694 635.935351,89.0745217 636.800842,85.641443 C637.773232,80.972456 636.850072,78.3385534 637.747364,78.0982379 C638.397928,77.926584 644.536277,78.0320694 648.238825,78.0320694 L655,78.0320694 L654.611147,80.67554 C654.220082,83.6279877 654.875708,91.270951 654.595456,94.7726912 L654.974065,99.5368207 L643.309631,99.9351115 C632.311268,100.038104 633.293421,100.621727 635.163866,94.8198243 Z" id="path-2"></path>
    </defs>
    <g id="Page-1" stroke="none" stroke-width="1" fill="none" fill-rule="evenodd">
        <g id="Group">
            <g id="Group-3" transform="translate(39.393462, 25.593271)" fill="#000000" fill-rule="nonzero">
                <path d="M-29.1811364,82.6057877 C-43.1811364,82.3057877 -54.1811364,81.9057877 -53.6811364,81.7057877 C-53.0811364,81.5057877 -31.7811364,81.3057877 -6.1811364,81.2057877 C30.1188636,81.1057877 44.0188636,80.7057877 57.3188636,79.3057877 C66.7188636,78.3057877 75.8188636,77.3057877 77.6188636,77.0057877 L80.8188636,76.4057877 L80.8188636,68.4057877 L80.8188636,60.3057877 L67.1188636,61.0057877 C47.0188636,62.0057877 -23.3811364,62.0057877 -40.0811364,61.1057877 C-51.7811364,60.5057877 -54.5811364,60.6057877 -55.2811364,61.7057877 C-55.7811364,62.5057877 -56.1811364,66.0057877 -56.2811364,69.6057877 C-56.3811364,73.2057877 -56.7811364,77.5057877 -57.2811364,79.1057877 C-57.7811364,81.0057877 -57.9811364,77.9057877 -57.6811364,70.7057877 C-57.3811364,64.4057877 -56.9811364,59.1057877 -56.7811364,58.8057877 C-56.4811364,58.6057877 -44.8811364,58.9057877 -30.8811364,59.6057877 C-0.581136403,61.0057877 69.6188636,60.0057877 79.9188636,58.0057877 C82.4188636,57.5057877 82.6188636,57.7057877 83.2188636,62.8057877 C83.5188636,65.7057877 83.5188636,70.4057877 83.0188636,73.1057877 L82.3188636,78.1057877 L65.8188636,79.7057877 C42.4188636,82.1057877 16.6188636,83.6057877 5.6188636,83.4057877 C0.518863597,83.3057877 -15.1811364,82.9057877 -29.1811364,82.6057877 Z" id="Path" transform="translate(12.800755, 70.622846) scale(-1, 1) rotate(-90.000000) translate(-12.800755, -70.622846) "></path>
                <path d="M9.31074524,67.6976694 C9.81074524,61.3976694 10.5107452,57.8976694 11.5107452,56.7976694 C12.8107452,55.4976694 16.9107452,55.2976694 39.3107452,55.4976694 C75.7107452,55.7976694 109.910745,54.4976694 111.010745,52.7976694 C112.710745,50.0976694 113.710745,53.0976694 114.310745,61.9976694 C114.610745,67.0976694 115.110745,71.9976694 115.510745,72.8976694 C116.410745,75.1976694 109.410745,75.5976694 54.1107452,76.3976694 L8.71074524,77.0976694 L9.31074524,67.6976694 Z M90.5107452,73.6976694 C102.610745,73.0976694 112.710745,72.3976694 112.910745,72.2976694 C113.110745,72.0976694 112.910745,68.1976694 112.510745,63.7976694 L111.810745,55.5976694 L108.110745,56.2976694 C106.110745,56.6976694 83.9107452,57.0976694 58.7107452,57.2976694 C33.5107452,57.3976694 12.7107452,57.6976694 12.5107452,57.9976694 C12.2107452,58.2976694 11.7107452,62.1976694 11.3107452,66.5976694 L10.7107452,74.6976694 L26.6107452,74.9976694 C47.5107452,75.3976694 63.8107452,75.0976694 90.5107452,73.6976694 Z" id="Shape" transform="translate(62.146098, 64.469384) scale(-1, 1) rotate(-90.000000) translate(-62.146098, -64.469384) "></path>
                <g id="Group-2" transform="translate(99.040025, 37.650329)">
                    <path d="M-10.5356083,38.4410117 C-10.9356083,36.9410117 -10.9356083,32.7410117 -10.5356083,29.1410117 C-10.1356083,25.5410117 -9.83560828,21.9410117 -10.0356083,21.3410117 C-10.1356083,20.6410117 -9.73560828,20.0410117 -9.03560828,20.0410117 C-8.23560828,20.0410117 -8.03560828,22.4410117 -8.53560828,29.0410117 L-9.33560828,38.0410117 L-5.43560828,37.9410117 C4.26439172,37.8410117 36.9643917,35.3410117 37.5643917,34.6410117 C38.5643917,33.7410117 38.5643917,17.4410117 37.6643917,16.5410117 C37.2643917,16.1410117 29.4643917,16.3410117 20.1643917,16.9410117 C10.9643917,17.5410117 -0.635608279,18.3410117 -5.63560828,18.7410117 C-11.5356083,19.0410117 -14.3356083,18.9410117 -13.6356083,18.3410117 C-13.0356083,17.7410117 -4.53560828,16.8410117 5.36439172,16.1410117 C15.2643917,15.5410117 26.9643917,14.7410117 31.4643917,14.3410117 L39.5643917,13.7410117 L40.1643917,19.1410117 C41.2643917,28.1410117 40.9643917,33.7410117 39.3643917,35.4410117 C37.5643917,37.2410117 34.6643917,37.6410117 11.8643917,39.0410117 C2.26439172,39.6410117 -6.63560828,40.3410117 -7.73560828,40.6410117 C-9.43560828,41.1410117 -10.0356083,40.6410117 -10.5356083,38.4410117 Z" id="Path" transform="translate(13.538894, 27.279906) scale(-1, 1) rotate(-90.000000) translate(-13.538894, -27.279906) "></path>
                    <path d="M33.1195876,53.8962077 C32.1195876,52.2962077 33.4195876,40.6962077 34.5195876,40.6962077 C35.0195876,40.6962077 35.5195876,42.1962077 35.7195876,43.9962077 C36.0195876,47.0962077 36.2195876,47.1962077 41.0195876,47.4962077 C43.8195876,47.6962077 46.5195876,48.2962077 47.0195876,48.7962077 C47.7195876,49.4962077 45.9195876,49.7962077 41.5195876,49.4962077 L35.0195876,49.1962077 L34.5195876,52.1962077 C34.1195876,54.2962077 33.7195876,54.7962077 33.1195876,53.8962077 Z" id="Path" transform="translate(39.964036, 47.509960) scale(-1, 1) rotate(-90.000000) translate(-39.964036, -47.509960) "></path>
                    <path d="M32.9567166,31.6333367 C32.9567166,27.6333367 35.1567166,26.8333367 37.1567166,30.1333367 C38.8567166,32.7333367 39.9567166,32.6333367 39.9567166,29.9333367 C39.9567166,28.3333367 40.2567166,28.0333367 41.0567166,28.8333367 C42.3567166,30.1333367 41.3567166,34.1333367 39.7567166,34.1333367 C39.1567166,34.1333367 37.7567166,33.4333367 36.7567166,32.4333367 C35.0567166,30.9333367 34.9567166,30.9333367 34.9567166,32.9333367 C34.9567166,34.1333367 34.5567166,35.1333367 33.9567166,35.1333367 C33.4567166,35.1333367 32.9567166,33.5333367 32.9567166,31.6333367 Z" id="Path" transform="translate(37.305290, 31.605835) scale(-1, 1) rotate(-90.000000) translate(-37.305290, -31.605835) "></path>
                    <path d="M49.7572051,16.7338252 C49.0572051,14.5338252 48.4572051,14.4338252 39.1572051,14.4338252 C25.8572051,14.4338252 25.2572051,12.6338252 38.4572051,12.2338252 C47.6572051,11.9338252 48.7572051,11.7338252 48.4572051,10.2338252 C48.1572051,8.13382515 50.0572051,7.83382515 50.8572051,9.83382515 C51.1572051,10.6338252 51.2572051,12.9338252 50.9572051,15.0338252 C50.6572051,18.4338252 50.4572051,18.6338252 49.7572051,16.7338252 Z" id="Path" transform="translate(40.001036, 13.210578) scale(-1, 1) rotate(-90.000000) translate(-40.001036, -13.210578) "></path>
                </g>
            </g>
            <g id="Group-3" transform="translate(476.393462, 25.593271)" fill="#000000" fill-rule="nonzero">
                <path d="M-29.1811364,82.6057877 C-43.1811364,82.3057877 -54.1811364,81.9057877 -53.6811364,81.7057877 C-53.0811364,81.5057877 -31.7811364,81.3057877 -6.1811364,81.2057877 C30.1188636,81.1057877 44.0188636,80.7057877 57.3188636,79.3057877 C66.7188636,78.3057877 75.8188636,77.3057877 77.6188636,77.0057877 L80.8188636,76.4057877 L80.8188636,68.4057877 L80.8188636,60.3057877 L67.1188636,61.0057877 C47.0188636,62.0057877 -23.3811364,62.0057877 -40.0811364,61.1057877 C-51.7811364,60.5057877 -54.5811364,60.6057877 -55.2811364,61.7057877 C-55.7811364,62.5057877 -56.1811364,66.0057877 -56.2811364,69.6057877 C-56.3811364,73.2057877 -56.7811364,77.5057877 -57.2811364,79.1057877 C-57.7811364,81.0057877 -57.9811364,77.9057877 -57.6811364,70.7057877 C-57.3811364,64.4057877 -56.9811364,59.1057877 -56.7811364,58.8057877 C-56.4811364,58.6057877 -44.8811364,58.9057877 -30.8811364,59.6057877 C-0.581136403,61.0057877 69.6188636,60.0057877 79.9188636,58.0057877 C82.4188636,57.5057877 82.6188636,57.7057877 83.2188636,62.8057877 C83.5188636,65.7057877 83.5188636,70.4057877 83.0188636,73.1057877 L82.3188636,78.1057877 L65.8188636,79.7057877 C42.4188636,82.1057877 16.6188636,83.6057877 5.6188636,83.4057877 C0.518863597,83.3057877 -15.1811364,82.9057877 -29.1811364,82.6057877 Z" id="Path" transform="translate(12.800755, 70.622846) scale(-1, 1) rotate(-90.000000) translate(-12.800755, -70.622846) "></path>
                <path d="M9.31074524,67.6976694 C9.81074524,61.3976694 10.5107452,57.8976694 11.5107452,56.7976694 C12.8107452,55.4976694 16.9107452,55.2976694 39.3107452,55.4976694 C75.7107452,55.7976694 109.910745,54.4976694 111.010745,52.7976694 C112.710745,50.0976694 113.710745,53.0976694 114.310745,61.9976694 C114.610745,67.0976694 115.110745,71.9976694 115.510745,72.8976694 C116.410745,75.1976694 109.410745,75.5976694 54.1107452,76.3976694 L8.71074524,77.0976694 L9.31074524,67.6976694 Z M90.5107452,73.6976694 C102.610745,73.0976694 112.710745,72.3976694 112.910745,72.2976694 C113.110745,72.0976694 112.910745,68.1976694 112.510745,63.7976694 L111.810745,55.5976694 L108.110745,56.2976694 C106.110745,56.6976694 83.9107452,57.0976694 58.7107452,57.2976694 C33.5107452,57.3976694 12.7107452,57.6976694 12.5107452,57.9976694 C12.2107452,58.2976694 11.7107452,62.1976694 11.3107452,66.5976694 L10.7107452,74.6976694 L26.6107452,74.9976694 C47.5107452,75.3976694 63.8107452,75.0976694 90.5107452,73.6976694 Z" id="Shape" transform="translate(62.146098, 64.469384) scale(-1, 1) rotate(-90.000000) translate(-62.146098, -64.469384) "></path>
                <g id="Group-2" transform="translate(99.040025, 37.650329)">
                    <path d="M-10.5356083,38.4410117 C-10.9356083,36.9410117 -10.9356083,32.7410117 -10.5356083,29.1410117 C-10.1356083,25.5410117 -9.83560828,21.9410117 -10.0356083,21.3410117 C-10.1356083,20.6410117 -9.73560828,20.0410117 -9.03560828,20.0410117 C-8.23560828,20.0410117 -8.03560828,22.4410117 -8.53560828,29.0410117 L-9.33560828,38.0410117 L-5.43560828,37.9410117 C4.26439172,37.8410117 36.9643917,35.3410117 37.5643917,34.6410117 C38.5643917,33.7410117 38.5643917,17.4410117 37.6643917,16.5410117 C37.2643917,16.1410117 29.4643917,16.3410117 20.1643917,16.9410117 C10.9643917,17.5410117 -0.635608279,18.3410117 -5.63560828,18.7410117 C-11.5356083,19.0410117 -14.3356083,18.9410117 -13.6356083,18.3410117 C-13.0356083,17.7410117 -4.53560828,16.8410117 5.36439172,16.1410117 C15.2643917,15.5410117 26.9643917,14.7410117 31.4643917,14.3410117 L39.5643917,13.7410117 L40.1643917,19.1410117 C41.2643917,28.1410117 40.9643917,33.7410117 39.3643917,35.4410117 C37.5643917,37.2410117 34.6643917,37.6410117 11.8643917,39.0410117 C2.26439172,39.6410117 -6.63560828,40.3410117 -7.73560828,40.6410117 C-9.43560828,41.1410117 -10.0356083,40.6410117 -10.5356083,38.4410117 Z" id="Path" transform="translate(13.538894, 27.279906) scale(-1, 1) rotate(-90.000000) translate(-13.538894, -27.279906) "></path>
                    <path d="M33.1195876,53.8962077 C32.1195876,52.2962077 33.4195876,40.6962077 34.5195876,40.6962077 C35.0195876,40.6962077 35.5195876,42.1962077 35.7195876,43.9962077 C36.0195876,47.0962077 36.2195876,47.1962077 41.0195876,47.4962077 C43.8195876,47.6962077 46.5195876,48.2962077 47.0195876,48.7962077 C47.7195876,49.4962077 45.9195876,49.7962077 41.5195876,49.4962077 L35.0195876,49.1962077 L34.5195876,52.1962077 C34.1195876,54.2962077 33.7195876,54.7962077 33.1195876,53.8962077 Z" id="Path" transform="translate(39.964036, 47.509960) scale(-1, 1) rotate(-90.000000) translate(-39.964036, -47.509960) "></path>
                    <path d="M32.9567166,31.6333367 C32.9567166,27.6333367 35.1567166,26.8333367 37.1567166,30.1333367 C38.8567166,32.7333367 39.9567166,32.6333367 39.9567166,29.9333367 C39.9567166,28.3333367 40.2567166,28.0333367 41.0567166,28.8333367 C42.3567166,30.1333367 41.3567166,34.1333367 39.7567166,34.1333367 C39.1567166,34.1333367 37.7567166,33.4333367 36.7567166,32.4333367 C35.0567166,30.9333367 34.9567166,30.9333367 34.9567166,32.9333367 C34.9567166,34.1333367 34.5567166,35.1333367 33.9567166,35.1333367 C33.4567166,35.1333367 32.9567166,33.5333367 32.9567166,31.6333367 Z" id="Path" transform="translate(37.305290, 31.605835) scale(-1, 1) rotate(-90.000000) translate(-37.305290, -31.605835) "></path>
                    <path d="M49.7572051,16.7338252 C49.0572051,14.5338252 48.4572051,14.4338252 39.1572051,14.4338252 C25.8572051,14.4338252 25.2572051,12.6338252 38.4572051,12.2338252 C47.6572051,11.9338252 48.7572051,11.7338252 48.4572051,10.2338252 C48.1572051,8.13382515 50.0572051,7.83382515 50.8572051,9.83382515 C51.1572051,10.6338252 51.2572051,12.9338252 50.9572051,15.0338252 C50.6572051,18.4338252 50.4572051,18.6338252 49.7572051,16.7338252 Z" id="Path" transform="translate(40.001036, 13.210578) scale(-1, 1) rotate(-90.000000) translate(-40.001036, -13.210578) "></path>
                </g>
            </g>
            <path d="M626.717991,143.063826 L626.289742,130.163826 L635.497096,130.863826 C640.421959,131.263826 646.845694,131.863826 649.843437,132.163826 C654.7683,132.763826 654.982425,132.663826 652.198806,131.063826 C647.702192,128.563826 650.914059,127.963826 657.12367,130.163826 C663.975654,132.463826 663.975654,133.563826 657.337794,136.463826 C651.770557,138.963826 647.273943,138.563826 651.770557,136.063826 C654.125927,134.763826 653.483553,134.463826 648.986939,133.863826 C645.989196,133.563826 640.421959,133.163826 636.567718,133.163826 L629.50161,132.963826 L628.216863,144.463826 L627.14624,155.963826 L626.717991,143.063826 Z" id="Path" fill="#000000" fill-rule="nonzero" transform="translate(644.289742, 142.385359) scale(-1, 1) rotate(-90.000000) translate(-644.289742, -142.385359) "></path>
            <g id="Shape" fill-rule="nonzero" transform="translate(352.373228, 83.192513) scale(-1, 1) rotate(-90.000000) translate(-352.373228, -83.192513) ">
                <use fill="#E0FEE2" xlink:href="#path-1"></use>
                <use stroke="#000000" stroke-width="1" xlink:href="#path-1"></use>
                <use stroke="#000000" stroke-width="2" xlink:href="#path-1"></use>
            </g>
            <g id="Shape" fill-rule="nonzero">
                <use fill="#E0FEE2" xlink:href="#path-2"></use>
                <use stroke="#000000" stroke-width="1" xlink:href="#path-2"></use>
                <use stroke="#000000" stroke-width="2" xlink:href="#path-2"></use>
            </g>
            <path d="M354.053453,151.140185 C354.053453,150.540185 354.553453,149.840185 355.053453,149.540185 C355.653453,149.240185 356.053453,148.240185 356.053453,147.340185 C356.053453,145.940185 354.653453,145.840185 345.153453,146.240185 L334.353453,146.740185 L333.653453,140.740185 C332.753453,132.240185 332.853453,128.040185 334.053453,128.040185 C334.553453,128.040185 335.053453,131.740185 335.253453,136.340185 L335.553453,144.540185 L346.053453,144.240185 C357.453453,143.840185 361.553453,142.740185 356.253453,141.540185 C354.453453,141.240185 353.053453,140.440185 353.053453,139.840185 C353.053453,138.840185 357.453453,139.540185 361.953453,141.240185 C364.353453,142.140185 364.353453,142.140185 359.553453,147.040185 C354.353453,152.340185 354.053453,152.540185 354.053453,151.140185 Z" id="Path" fill="#000000" fill-rule="nonzero" transform="translate(348.292337, 139.959124) scale(-1, 1) rotate(-90.000000) translate(-348.292337, -139.959124) "></path>
            <path d="M217.212326,101.199058 C203.212326,100.899058 192.212326,100.499058 192.712326,100.299058 C193.312326,100.099058 214.612326,99.8990583 240.212326,99.7990583 C276.512326,99.6990583 290.412326,99.2990583 303.712326,97.8990583 C313.112326,96.8990583 322.212326,95.8990583 324.012326,95.5990583 L327.212326,94.9990583 L327.212326,86.9990583 L327.212326,78.8990583 L313.512326,79.5990583 C293.412326,80.5990583 223.012326,80.5990583 206.312326,79.6990583 C194.612326,79.0990583 191.812326,79.1990583 191.112326,80.2990583 C190.612326,81.0990583 190.212326,84.5990583 190.112326,88.1990583 C190.012326,91.7990583 189.612326,96.0990583 189.112326,97.6990583 C188.612326,99.5990583 188.412326,96.4990583 188.712326,89.2990583 C189.012326,82.9990583 189.412326,77.6990583 189.612326,77.3990583 C189.912326,77.1990583 201.512326,77.4990583 215.512326,78.1990583 C245.812326,79.5990583 316.012326,78.5990583 326.312326,76.5990583 C328.812326,76.0990583 329.012326,76.2990583 329.612326,81.3990583 C329.912326,84.2990583 329.912326,88.9990583 329.412326,91.6990583 L328.712326,96.6990583 L312.212326,98.2990583 C288.812326,100.699058 263.012326,102.199058 252.012326,101.999058 C246.912326,101.899058 231.212326,101.499058 217.212326,101.199058 Z" id="Path" fill="#000000" fill-rule="nonzero" transform="translate(259.194217, 89.216116) scale(-1, 1) rotate(-90.000000) translate(-259.194217, -89.216116) "></path>
            <path d="M255.704207,86.2909399 C256.204207,79.9909399 256.904207,76.4909399 257.904207,75.3909399 C259.204207,74.0909399 263.304207,73.8909399 285.704207,74.0909399 C322.104207,74.3909399 356.304207,73.0909399 357.404207,71.3909399 C359.104207,68.6909399 360.104207,71.6909399 360.704207,80.5909399 C361.004207,85.6909399 361.504207,90.5909399 361.904207,91.4909399 C362.804207,93.7909399 355.804207,94.1909399 300.504207,94.9909399 L255.104207,95.6909399 L255.704207,86.2909399 Z M336.904207,92.2909399 C349.004207,91.6909399 359.104207,90.9909399 359.304207,90.8909399 C359.504207,90.6909399 359.304207,86.7909399 358.904207,82.3909399 L358.204207,74.1909399 L354.504207,74.8909399 C352.504207,75.2909399 330.304207,75.6909399 305.104207,75.8909399 C279.904207,75.9909399 259.104207,76.2909399 258.904207,76.5909399 C258.604207,76.8909399 258.104207,80.7909399 257.704207,85.1909399 L257.104207,93.2909399 L273.004207,93.5909399 C293.904207,93.9909399 310.204207,93.6909399 336.904207,92.2909399 Z" id="Shape" fill="#000000" fill-rule="nonzero" transform="translate(308.539560, 83.062655) scale(-1, 1) rotate(-90.000000) translate(-308.539560, -83.062655) "></path>
            <g id="Group-2" transform="translate(383.433487, 55.243599)" fill="#000000" fill-rule="nonzero">
                <path d="M-10.5356083,38.4410117 C-10.9356083,36.9410117 -10.9356083,32.7410117 -10.5356083,29.1410117 C-10.1356083,25.5410117 -9.83560828,21.9410117 -10.0356083,21.3410117 C-10.1356083,20.6410117 -9.73560828,20.0410117 -9.03560828,20.0410117 C-8.23560828,20.0410117 -8.03560828,22.4410117 -8.53560828,29.0410117 L-9.33560828,38.0410117 L-5.43560828,37.9410117 C4.26439172,37.8410117 36.9643917,35.3410117 37.5643917,34.6410117 C38.5643917,33.7410117 38.5643917,17.4410117 37.6643917,16.5410117 C37.2643917,16.1410117 29.4643917,16.3410117 20.1643917,16.9410117 C10.9643917,17.5410117 -0.635608279,18.3410117 -5.63560828,18.7410117 C-11.5356083,19.0410117 -14.3356083,18.9410117 -13.6356083,18.3410117 C-13.0356083,17.7410117 -4.53560828,16.8410117 5.36439172,16.1410117 C15.2643917,15.5410117 26.9643917,14.7410117 31.4643917,14.3410117 L39.5643917,13.7410117 L40.1643917,19.1410117 C41.2643917,28.1410117 40.9643917,33.7410117 39.3643917,35.4410117 C37.5643917,37.2410117 34.6643917,37.6410117 11.8643917,39.0410117 C2.26439172,39.6410117 -6.63560828,40.3410117 -7.73560828,40.6410117 C-9.43560828,41.1410117 -10.0356083,40.6410117 -10.5356083,38.4410117 Z" id="Path" transform="translate(13.538894, 27.279906) scale(-1, 1) rotate(-90.000000) translate(-13.538894, -27.279906) "></path>
                <path d="M33.1195876,53.8962077 C32.1195876,52.2962077 33.4195876,40.6962077 34.5195876,40.6962077 C35.0195876,40.6962077 35.5195876,42.1962077 35.7195876,43.9962077 C36.0195876,47.0962077 36.2195876,47.1962077 41.0195876,47.4962077 C43.8195876,47.6962077 46.5195876,48.2962077 47.0195876,48.7962077 C47.7195876,49.4962077 45.9195876,49.7962077 41.5195876,49.4962077 L35.0195876,49.1962077 L34.5195876,52.1962077 C34.1195876,54.2962077 33.7195876,54.7962077 33.1195876,53.8962077 Z" id="Path" transform="translate(39.964036, 47.509960) scale(-1, 1) rotate(-90.000000) translate(-39.964036, -47.509960) "></path>
                <path d="M32.9567166,31.6333367 C32.9567166,27.6333367 35.1567166,26.8333367 37.1567166,30.1333367 C38.8567166,32.7333367 39.9567166,32.6333367 39.9567166,29.9333367 C39.9567166,28.3333367 40.2567166,28.0333367 41.0567166,28.8333367 C42.3567166,30.1333367 41.3567166,34.1333367 39.7567166,34.1333367 C39.1567166,34.1333367 37.7567166,33.4333367 36.7567166,32.4333367 C35.0567166,30.9333367 34.9567166,30.9333367 34.9567166,32.9333367 C34.9567166,34.1333367 34.5567166,35.1333367 33.9567166,35.1333367 C33.4567166,35.1333367 32.9567166,33.5333367 32.9567166,31.6333367 Z" id="Path" transform="translate(37.305290, 31.605835) scale(-1, 1) rotate(-90.000000) translate(-37.305290, -31.605835) "></path>
                <path d="M49.7572051,16.7338252 C49.0572051,14.5338252 48.4572051,14.4338252 39.1572051,14.4338252 C25.8572051,14.4338252 25.2572051,12.6338252 38.4572051,12.2338252 C47.6572051,11.9338252 48.7572051,11.7338252 48.4572051,10.2338252 C48.1572051,8.13382515 50.0572051,7.83382515 50.8572051,9.83382515 C51.1572051,10.6338252 51.2572051,12.9338252 50.9572051,15.0338252 C50.6572051,18.4338252 50.4572051,18.6338252 49.7572051,16.7338252 Z" id="Path" transform="translate(40.001036, 13.210578) scale(-1, 1) rotate(-90.000000) translate(-40.001036, -13.210578) "></path>
            </g>
            <rect id="Rectangle" stroke="#000000" x="224.5" y="0.5" width="224" height="199"></rect>
            <rect id="Rectangle" stroke="#000000" x="448.5" y="0.5" width="224" height="199"></rect>
            <rect id="Rectangle" stroke="#000000" x="0.5" y="0.5" width="224" height="199"></rect>
            <text id="Inserted" font-family="Kalam-Bold, Kalam" font-size="14" font-weight="bold" letter-spacing="0.042" fill="#444444">
                <tspan x="369" y="159">Inserted</tspan>
            </text>
            <text id="Stacked" font-family="Kalam-Bold, Kalam" font-size="14" font-weight="bold" letter-spacing="0.042" fill="#444444">
                <tspan x="572" y="159">Stacked</tspan>
            </text>
            <text id="C" font-family="Kalam-Regular, Kalam" font-size="36" font-weight="normal" letter-spacing="0.108" fill="#444444">
                <tspan x="550" y="250">C</tspan>
            </text>
            <text id="A" font-family="Kalam-Regular, Kalam" font-size="36" font-weight="normal" letter-spacing="0.108" fill="#444444">
                <tspan x="101" y="250">A</tspan>
            </text>
            <text id="B" font-family="Kalam-Regular, Kalam" font-size="36" font-weight="normal" letter-spacing="0.108" fill="#444444">
                <tspan x="325.5" y="250">B</tspan>
            </text>
        </g>
    </g>
</svg>