<?xml version="1.0" encoding="UTF-8" standalone="no"?>
<!-- Created with Inkscape (http://www.inkscape.org/) -->

<svg
   version="1.1"
   id="svg4157"
   width="1794.6667"
   height="717.33331"
   viewBox="0 0 1794.6667 717.33331"
   xmlns="http://www.w3.org/2000/svg"
   xmlns:svg="http://www.w3.org/2000/svg">
  <defs
     id="defs4161">
    <clipPath
       clipPathUnits="userSpaceOnUse"
       id="clipPath4173">
      <path
         d="m 80.42255,261.604 c 0.6,-28 1.4,-50 1.8,-49 0.4,1.2 0.8,43.8 1,95 0.2,72.6 1,100.4 3.8,127 2,18.8 4,37 4.6,40.6 l 1.2,6.4 h 16.00005 16.2 l -1.4,-27.4 c -2,-40.2 -2,-181 -0.2,-214.4 1.2,-23.4 1,-29 -1.2,-30.4 -1.6,-1 -8.6,-1.8 -15.8,-2 -7.20005,-0.2 -15.80005,-1 -19.00005,-2 -3.8,-1 2.4,-1.4 16.80005,-0.8 12.6,0.6 23.2,1.4 23.8,1.8 0.4,0.6 -0.2,23.8 -1.6,51.8 -2.8,60.6 -0.8,201 3.2,221.6 1,5 0.6,5.4 -9.6,6.6 -5.8,0.6 -15.2,0.6 -20.60005,-0.4 l -10,-1.4 -3.2,-33 c -4.8,-46.8 -7.8,-98.4 -7.4,-120.4 0.2,-10.2 1,-41.6 1.6,-69.6 z"
         id="path4171" />
    </clipPath>
    <clipPath
       clipPathUnits="userSpaceOnUse"
       id="clipPath4183">
      <path
         d="m 196.6226,252.204 c 12.6,1 19.6,2.4 21.8,4.4 2.6,2.6 3,10.8 2.6,55.6 -0.6,72.8 2,141.2 5.4,143.4 5.4,3.4 -0.6,5.4 -18.4,6.6 -10.2,0.6 -20,1.6 -21.8,2.4 -4.6,1.8 -5.4,-12.2 -7,-122.8 l -1.4,-90.8 z m -12,162.4 c 1.2,24.2 2.6,44.4 2.8,44.8 0.4,0.4 8.2,0 17,-0.8 l 16.4,-1.4 -1.4,-7.4 c -0.8,-4 -1.6,-48.4 -2,-98.8 -0.2,-50.4 -0.8,-92 -1.4,-92.4 -0.6,-0.6 -8.4,-1.6 -17.2,-2.4 l -16.2,-1.2 -0.6,31.8 c -0.8,41.8 -0.2,74.4 2.6,127.8 z"
         id="path4181" />
    </clipPath>
    <clipPath
       clipPathUnits="userSpaceOnUse"
       id="clipPath4193">
      <path
         d="m 281.6226,308.804 c 3,-0.8 11.4,-0.8 18.6,0 7.2,0.8 14.4,1.4 15.6,1 1.4,-0.2 2.6,0.6 2.6,2 0,1.6 -4.8,2 -18,1 l -18,-1.6 0.2,7.8 c 0.2,19.4 5.2,84.8 6.6,86 1.8,2 34.4,2 36.2,0.2 0.8,-0.8 0.4,-16.4 -0.8,-35 -1.2,-18.4 -2.8,-41.6 -3.6,-51.6 -0.6,-11.8 -0.4,-17.4 0.8,-16 1.2,1.2 3,18.2 4.4,38 1.2,19.8 2.8,43.2 3.6,52.2 l 1.2,16.2 -10.8,1.2 c -18,2.2 -29.2,1.6 -32.6,-1.6 -3.6,-3.6 -4.4,-9.4 -7.2,-55 -1.2,-19.2 -2.6,-37 -3.2,-39.2 -1,-3.4 0,-4.6 4.4,-5.6 z"
         id="path4191" />
    </clipPath>
    <clipPath
       clipPathUnits="userSpaceOnUse"
       id="clipPath4203">
      <path
         d="m 344.0226,302.804 c 3.2,-2 26.4,0.6 26.4,2.8 0,1 -3,2 -6.6,2.4 -6.2,0.6 -6.4,1 -7,10.6 -0.4,5.6 -1.6,11 -2.6,12 -1.4,1.4 -2,-2.2 -1.4,-11 l 0.6,-13 -6,-1 c -4.2,-0.8 -5.2,-1.6 -3.4,-2.8 z"
         id="path4201" />
    </clipPath>
    <clipPath
       clipPathUnits="userSpaceOnUse"
       id="clipPath4213">
      <path
         d="m 351.4226,339.604 c 8,0 9.6,4.4 3,8.4 -5.2,3.4 -5,5.6 0.4,5.6 3.2,0 3.8,0.6 2.2,2.2 -2.6,2.6 -10.6,0.6 -10.6,-2.6 0,-1.2 1.4,-4 3.4,-6 3,-3.4 3,-3.6 -1,-3.6 -2.4,0 -4.4,-0.8 -4.4,-2 0,-1 3.2,-2 7,-2 z"
         id="path4211" />
    </clipPath>
    <clipPath
       clipPathUnits="userSpaceOnUse"
       id="clipPath4223">
      <path
         d="m 349.8226,404.604 c 4.4,-1.4 4.6,-2.6 4.6,-21.2 0,-26.6 3.6,-27.8 4.4,-1.4 0.6,18.4 1,20.6 4,20 4.2,-0.6 4.8,3.2 0.8,4.8 -1.6,0.6 -6.2,0.8 -10.4,0.2 -6.8,-0.6 -7.2,-1 -3.4,-2.4 z"
         id="path4221" />
    </clipPath>
    <clipPath
       clipPathUnits="userSpaceOnUse"
       id="clipPath4233">
      <path
         d="m 954.4226,261.604 c 0.6,-28 1.4,-50 1.8,-49 0.4,1.2 0.8,43.8 1,95 0.2,72.6 1,100.4 3.8,127 2,18.8 4,37 4.6,40.6 l 1.2,6.4 h 16 16.2 l -1.4,-27.4 c -2,-40.2 -2,-181 -0.2,-214.4 1.2,-23.4 1,-29 -1.2,-30.4 -1.6,-1 -8.6,-1.8 -15.8,-2 -7.2,-0.2 -15.8,-1 -19,-2 -3.8,-1 2.4,-1.4 16.8,-0.8 12.6,0.6 23.2004,1.4 23.8004,1.8 0.4,0.6 -0.2,23.8 -1.6,51.8 -2.8004,60.6 -0.8004,201 3.2,221.6 1,5 0.6,5.4 -9.6004,6.6 -5.8,0.6 -15.2,0.6 -20.6,-0.4 l -10,-1.4 -3.2,-33 c -4.8,-46.8 -7.8,-98.4 -7.4,-120.4 0.2,-10.2 1,-41.6 1.6,-69.6 z"
         id="path4231" />
    </clipPath>
    <clipPath
       clipPathUnits="userSpaceOnUse"
       id="clipPath4243">
      <path
         d="m 1070.623,252.204 c 12.6,1 19.6,2.4 21.8,4.4 2.6,2.6 3,10.8 2.6,55.6 -0.6,72.8 2,141.2 5.4,143.4 5.4,3.4 -0.6,5.4 -18.4,6.6 -10.2,0.6 -20,1.6 -21.8,2.4 -4.6,1.8 -5.4,-12.2 -7,-122.8 l -1.4,-90.8 z m -12,162.4 c 1.2,24.2 2.6,44.4 2.8,44.8 0.4,0.4 8.2,0 17,-0.8 l 16.4,-1.4 -1.4,-7.4 c -0.8,-4 -1.6,-48.4 -2,-98.8 -0.2,-50.4 -0.8,-92 -1.4,-92.4 -0.6,-0.6 -8.4,-1.6 -17.2,-2.4 l -16.2,-1.2 -0.6,31.8 c -0.8,41.8 -0.2,74.4 2.6,127.8 z"
         id="path4241" />
    </clipPath>
    <clipPath
       clipPathUnits="userSpaceOnUse"
       id="clipPath4253">
      <path
         d="m 1155.623,308.804 c 3,-0.8 11.4,-0.8 18.6,0 7.2,0.8 14.4,1.4 15.6,1 1.4,-0.2 2.6,0.6 2.6,2 0,1.6 -4.8,2 -18,1 l -18,-1.6 0.2,7.8 c 0.2,19.4 5.2,84.8 6.6,86 1.8,2 34.4,2 36.2,0.2 0.8,-0.8 0.4,-16.4 -0.8,-35 -1.2,-18.4 -2.8,-41.6 -3.6,-51.6 -0.6,-11.8 -0.4,-17.4 0.8,-16 1.2,1.2 3,18.2 4.4,38 1.2,19.8 2.8,43.2 3.6,52.2 l 1.2,16.2 -10.8,1.2 c -18,2.2 -29.2,1.6 -32.6,-1.6 -3.6,-3.6 -4.4,-9.4 -7.2,-55 -1.2,-19.2 -2.6,-37 -3.2,-39.2 -1,-3.4 0,-4.6 4.4,-5.6 z"
         id="path4251" />
    </clipPath>
    <clipPath
       clipPathUnits="userSpaceOnUse"
       id="clipPath4263">
      <path
         d="m 1218.023,302.804 c 3.2,-2 26.4,0.6 26.4,2.8 0,1 -3,2 -6.6,2.4 -6.2,0.6 -6.4,1 -7,10.6 -0.4,5.6 -1.6,11 -2.6,12 -1.4,1.4 -2,-2.2 -1.4,-11 l 0.6,-13 -6,-1 c -4.2,-0.8 -5.2,-1.6 -3.4,-2.8 z"
         id="path4261" />
    </clipPath>
    <clipPath
       clipPathUnits="userSpaceOnUse"
       id="clipPath4273">
      <path
         d="m 1225.423,339.604 c 8,0 9.6,4.4 3,8.4 -5.2,3.4 -5,5.6 0.4,5.6 3.2,0 3.8,0.6 2.2,2.2 -2.6,2.6 -10.6,0.6 -10.6,-2.6 0,-1.2 1.4,-4 3.4,-6 3,-3.4 3,-3.6 -1,-3.6 -2.4,0 -4.4,-0.8 -4.4,-2 0,-1 3.2,-2 7,-2 z"
         id="path4271" />
    </clipPath>
    <clipPath
       clipPathUnits="userSpaceOnUse"
       id="clipPath4283">
      <path
         d="m 1223.823,404.604 c 4.4,-1.4 4.6,-2.6 4.6,-21.2 0,-26.6 3.6,-27.8 4.4,-1.4 0.6,18.4 1,20.6 4,20 4.2,-0.6 4.8,3.2 0.8,4.8 -1.6,0.6 -6.2,0.8 -10.4,0.2 -6.8,-0.6 -7.2,-1 -3.4,-2.4 z"
         id="path4281" />
    </clipPath>
    <clipPath
       clipPathUnits="userSpaceOnUse"
       id="clipPath4293">
      <path
         d="m 1287.223,218.0858 25.8,-0.8565 -1.4,18.4147 c -0.8,9.8497 -2,22.6972 -2.6,28.6927 -1.2,9.8497 -1,10.2779 2.2,4.7107 5,-8.9932 6.2,-2.5695 1.8,9.8497 -4.6,13.704 -6.8,13.704 -12.6,0.4283 -5,-11.1345 -4.2,-20.1277 0.8,-11.1345 2.6,4.7108 3.2,3.426 4.4,-5.5672 0.6,-5.9955 1.4,-17.13 1.4,-24.8385 l 0.4,-14.1322 -23,-2.5695 -23,-2.1412 z"
         id="path4291" />
    </clipPath>
    <clipPath
       clipPathUnits="userSpaceOnUse"
       id="clipPath4303">
      <path
         d="m 682.4226,337.804 c 1.2,11.4 3.2,37.4 4.8,57.4 1.8,27.2 3.2,37.2 5.4,38.6 1.6,1 10.4,1.8 19.6,1.8 h 16.8 l -1.4,-15.4 c -1.4,-17.2 -5.2,-78.2 -6.2,-98.6 l -0.6,-13 -20.2,-0.6 c -23.6,-0.6 -21.4,-4 -18.2,29.8 z"
         id="path4301" />
    </clipPath>
    <clipPath
       clipPathUnits="userSpaceOnUse"
       id="clipPath4323">
      <path
         d="m 1270.328,348.3604 c 1.321,3.9137 1.543,11.4906 3.274,18.3567 1.944,9.338 0.098,14.6058 1.893,15.0864 1.301,0.3433 13.578,0.1324 20.983,0.1324 H 1310 l -0.778,-5.287 c -0.782,-5.9049 0.529,-21.1908 -0.031,-28.1943 l 0.757,-9.5282 -23.329,-0.7966 c -21.996,-0.206 -20.032,-1.3733 -16.291,10.2306 z"
         id="path4321" />
    </clipPath>
    <clipPath
       clipPathUnits="userSpaceOnUse"
       id="clipPath4343">
      <path
         d="m 674.2226,269.604 c 1.2,0 2.6,1 3.2,2 0.6,1.2 2.6,2 4.4,2 2.8,0 3,-2.8 2.2,-21.8 l -1,-21.6 12,-1.4 c 17,-1.8 25.4,-1.6 25.4,0.8 0,1 -7.4,2 -16.6,2.4 l -16.4,0.6 0.6,21 c 0.8,22.8 3,31 5.4,20.4 0.6,-3.6 2.2,-6.4 3.4,-6.4 2,0 0.6,8.8 -2.8,17.8 -1.8,4.8 -1.8,4.8 -11.6,-4.8 -10.6,-10.4 -11,-11 -8.2,-11 z"
         id="path4341" />
    </clipPath>
    <clipPath
       clipPathUnits="userSpaceOnUse"
       id="clipPath4353">
      <path
         d="m 494.4226,275.604 c 0.6,-28 1.4,-50 1.8,-49 0.4,1.2 0.8,43.8 1,95 0.2,72.6 1,100.4 3.8,127 2,18.8 4,37 4.6,40.6 l 1.2,6.4 h 16 16.2 l -1.4,-27.4 c -2,-40.2 -2,-181 -0.2,-214.4 1.2,-23.4 1,-29 -1.2,-30.4 -1.6,-1 -8.6,-1.8 -15.8,-2 -7.2,-0.2 -15.8,-1 -19,-2 -3.8,-1 2.4,-1.4 16.8,-0.8 12.6,0.6 23.2,1.4 23.8,1.8 0.4,0.6 -0.2,23.8 -1.6,51.8 -2.8,60.6 -0.8,201 3.2,221.6 1,5 0.6,5.4 -9.6,6.6 -5.8,0.6 -15.2,0.6 -20.6,-0.4 l -10,-1.4 -3.2,-33 c -4.8,-46.8 -7.8,-98.4 -7.4,-120.4 0.2,-10.2 1,-41.6 1.6,-69.6 z"
         id="path4351" />
    </clipPath>
    <clipPath
       clipPathUnits="userSpaceOnUse"
       id="clipPath4363">
      <path
         d="m 610.6226,266.204 c 12.6,1 19.6,2.4 21.8,4.4 2.6,2.6 3,10.8 2.6,55.6 -0.6,72.8 2,141.2 5.4,143.4 5.4,3.4 -0.6,5.4 -18.4,6.6 -10.2,0.6 -20,1.6 -21.8,2.4 -4.6,1.8 -5.4,-12.2 -7,-122.8 l -1.4,-90.8 z m -12,162.4 c 1.2,24.2 2.6,44.4 2.8,44.8 0.4,0.4 8.2,0 17,-0.8 l 16.4,-1.4 -1.4,-7.4 c -0.8,-4 -1.6,-48.4 -2,-98.8 -0.2,-50.4 -0.8,-92 -1.4,-92.4 -0.6,-0.6 -8.4,-1.6 -17.2,-2.4 l -16.2,-1.2 -0.6,31.8 c -0.8,41.8 -0.2,74.4 2.6,127.8 z"
         id="path4361" />
    </clipPath>
    <clipPath
       clipPathUnits="userSpaceOnUse"
       id="clipPath4373">
      <path
         d="m 771.6226,324.804 c 3,-0.8 11.4,-0.8 18.6,0 7.2,0.8 14.4,1.4 15.6,1 1.4,-0.2 2.6,0.6 2.6,2 0,1.6 -4.8,2 -18,1 l -18,-1.6 0.2,7.8 c 0.2,19.4 5.2,84.8 6.6,86 1.8,2 34.4,2 36.2,0.2 0.8,-0.8 0.4,-16.4 -0.8,-35 -1.2,-18.4 -2.8,-41.6 -3.6,-51.6 -0.6,-11.8 -0.4,-17.4 0.8,-16 1.2,1.2 3,18.2 4.4,38 1.2,19.8 2.8,43.2 3.6,52.2 l 1.2,16.2 -10.8,1.2 c -18,2.2 -29.2,1.6 -32.6,-1.6 -3.6,-3.6 -4.4,-9.4 -7.2,-55 -1.2,-19.2 -2.6,-37 -3.2,-39.2 -1,-3.4 0,-4.6 4.4,-5.6 z"
         id="path4371" />
    </clipPath>
    <clipPath
       clipPathUnits="userSpaceOnUse"
       id="clipPath4383">
      <path
         d="m 834.0226,318.804 c 3.2,-2 26.4,0.6 26.4,2.8 0,1 -3,2 -6.6,2.4 -6.2,0.6 -6.4,1 -7,10.6 -0.4,5.6 -1.6,11 -2.6,12 -1.4,1.4 -2,-2.2 -1.4,-11 l 0.6,-13 -6,-1 c -4.2,-0.8 -5.2,-1.6 -3.4,-2.8 z"
         id="path4381" />
    </clipPath>
    <clipPath
       clipPathUnits="userSpaceOnUse"
       id="clipPath4393">
      <path
         d="m 841.4226,355.604 c 8,0 9.6,4.4 3,8.4 -5.2,3.4 -5,5.6 0.4,5.6 3.2,0 3.8,0.6 2.2,2.2 -2.6,2.6 -10.6,0.6 -10.6,-2.6 0,-1.2 1.4,-4 3.4,-6 3,-3.4 3,-3.6 -1,-3.6 -2.4,0 -4.4,-0.8 -4.4,-2 0,-1 3.2,-2 7,-2 z"
         id="path4391" />
    </clipPath>
    <clipPath
       clipPathUnits="userSpaceOnUse"
       id="clipPath4403">
      <path
         d="m 839.8226,420.604 c 4.4,-1.4 4.6,-2.6 4.6,-21.2 0,-26.6 3.6,-27.8 4.4,-1.4 0.6,18.4 1,20.6 4,20 4.2,-0.6 4.8,3.2 0.8,4.8 -1.6,0.6 -6.2,0.8 -10.4,0.2 -6.8,-0.6 -7.2,-1 -3.4,-2.4 z"
         id="path4401" />
    </clipPath>
    <clipPath
       clipPathUnits="userSpaceOnUse"
       id="clipPath4413">
      <path
         d="M 448,138 H 898 V 538 H 448 Z"
         id="path4411" />
    </clipPath>
    <clipPath
       clipPathUnits="userSpaceOnUse"
       id="clipPath4425">
      <path
         d="m 896,138 h 450 V 538 H 896 Z"
         id="path4423" />
    </clipPath>
    <clipPath
       clipPathUnits="userSpaceOnUse"
       id="clipPath4437">
      <path
         d="M 0,138 H 450 V 538 H 0 Z"
         id="path4435" />
    </clipPath>
  </defs>
  <g
     id="g4163"
     transform="matrix(1.3333333,0,0,-1.3333333,0,717.33333)">
    <g
       id="g4165" />
    <g
       id="g4167">
      <g
         id="g4169"
         clip-path="url(#clipPath4173)">
        <path
           d="m 132.6226,202.004 v 287 H 76.42255 v -287 z"
           style="fill:#000000;fill-opacity:1;fill-rule:nonzero;stroke:none"
           id="path4175" />
      </g>
    </g>
    <g
       id="g4177">
      <g
         id="g4179"
         clip-path="url(#clipPath4183)">
        <path
           d="m 233.8226,249.004 v 219.4 h -58 v -219.4 z"
           style="fill:#000000;fill-opacity:1;fill-rule:nonzero;stroke:none"
           id="path4185" />
      </g>
    </g>
    <g
       id="g4187">
      <g
         id="g4189"
         clip-path="url(#clipPath4193)">
        <path
           d="m 333.0226,299.204 v 115.2 h -58.8 v -115.2 z"
           style="fill:#000000;fill-opacity:1;fill-rule:nonzero;stroke:none"
           id="path4195" />
      </g>
    </g>
    <g
       id="g4197">
      <g
         id="g4199"
         clip-path="url(#clipPath4203)">
        <path
           d="m 372.4226,298.804 v 35.2 h -32.2 v -35.2 z"
           style="fill:#000000;fill-opacity:1;fill-rule:nonzero;stroke:none"
           id="path4205" />
      </g>
    </g>
    <g
       id="g4207">
      <g
         id="g4209"
         clip-path="url(#clipPath4213)">
        <path
           d="m 363.0226,337.604 v 22.8 h -20.6 v -22.8 z"
           style="fill:#000000;fill-opacity:1;fill-rule:nonzero;stroke:none"
           id="path4215" />
      </g>
    </g>
    <g
       id="g4217">
      <g
         id="g4219"
         clip-path="url(#clipPath4223)">
        <path
           d="m 369.6226,353.604 v 56 h -25.6 v -56 z"
           style="fill:#000000;fill-opacity:1;fill-rule:nonzero;stroke:none"
           id="path4225" />
      </g>
    </g>
    <g
       id="g4227">
      <g
         id="g4229"
         clip-path="url(#clipPath4233)">
        <path
           d="m 1006.623,202.004 v 287 h -56.2004 v -287 z"
           style="fill:#000000;fill-opacity:1;fill-rule:nonzero;stroke:none"
           id="path4235" />
      </g>
    </g>
    <g
       id="g4237">
      <g
         id="g4239"
         clip-path="url(#clipPath4243)">
        <path
           d="m 1107.823,249.004 v 219.4 h -58 v -219.4 z"
           style="fill:#000000;fill-opacity:1;fill-rule:nonzero;stroke:none"
           id="path4245" />
      </g>
    </g>
    <g
       id="g4247">
      <g
         id="g4249"
         clip-path="url(#clipPath4253)">
        <path
           d="m 1207.023,299.204 v 115.2 h -58.8 v -115.2 z"
           style="fill:#000000;fill-opacity:1;fill-rule:nonzero;stroke:none"
           id="path4255" />
      </g>
    </g>
    <g
       id="g4257">
      <g
         id="g4259"
         clip-path="url(#clipPath4263)">
        <path
           d="m 1246.423,298.804 v 35.2 h -32.2 v -35.2 z"
           style="fill:#000000;fill-opacity:1;fill-rule:nonzero;stroke:none"
           id="path4265" />
      </g>
    </g>
    <g
       id="g4267">
      <g
         id="g4269"
         clip-path="url(#clipPath4273)">
        <path
           d="m 1237.023,337.604 v 22.8 h -20.6 v -22.8 z"
           style="fill:#000000;fill-opacity:1;fill-rule:nonzero;stroke:none"
           id="path4275" />
      </g>
    </g>
    <g
       id="g4277">
      <g
         id="g4279"
         clip-path="url(#clipPath4283)">
        <path
           d="m 1243.623,353.604 v 56 h -25.6 v -56 z"
           style="fill:#000000;fill-opacity:1;fill-rule:nonzero;stroke:none"
           id="path4285" />
      </g>
    </g>
    <g
       id="g4287">
      <g
         id="g4289"
         clip-path="url(#clipPath4293)">
        <path
           d="m 1319.423,215.2293 v 79.3718 h -60 v -79.3718 z"
           style="fill:#000000;fill-opacity:1;fill-rule:nonzero;stroke:none"
           id="path4295" />
      </g>
    </g>
    <g
       id="g4297">
      <g
         id="g4299"
         clip-path="url(#clipPath4303)">
        <path
           d="m 731.0226,302.004 v 135.6 h -56 v -135.6 z"
           style="fill:#e0fee2;fill-opacity:1;fill-rule:nonzero;stroke:none"
           id="path4305" />
      </g>
    </g>
    <g
       id="g4307">
      <g
         id="g4309"
         transform="matrix(0,2,-2,0,729.0226,307.626)">
        <path
           d="m 15.08901,23.3 c 5.7,-0.6 18.7,-1.6 28.7,-2.4 13.6,-0.9 18.6,-1.6 19.3,-2.7 0.5,-0.8 0.9,-5.2 0.9,-9.8 V 0 l -7.7,0.7 c -8.6,0.7 -39.1,2.6 -49.3,3.1 l -6.5000004,0.3 -0.3,10.1 c -0.3,11.8 -1.9999996,10.7 14.9000004,9.1 z"
           style="fill:none;stroke:#000000;stroke-width:1;stroke-linecap:butt;stroke-linejoin:miter;stroke-miterlimit:10;stroke-dasharray:none;stroke-opacity:1"
           id="path4311" />
      </g>
      <g
         id="g4313"
         transform="matrix(0,2,-2,0,729.0226,307.626)">
        <path
           d="m 15.08901,23.3 c 5.7,-0.6 18.7,-1.6 28.7,-2.4 13.6,-0.9 18.6,-1.6 19.3,-2.7 0.5,-0.8 0.9,-5.2 0.9,-9.8 V 0 l -7.7,0.7 c -8.6,0.7 -39.1,2.6 -49.3,3.1 l -6.5000004,0.3 -0.3,10.1 c -0.3,11.8 -1.9999996,10.7 14.9000004,9.1 z"
           style="fill:none;stroke:#000000;stroke-width:2;stroke-linecap:butt;stroke-linejoin:miter;stroke-miterlimit:10;stroke-dasharray:none;stroke-opacity:1"
           id="path4315" />
      </g>
    </g>
    <g
       id="g4317">
      <g
         id="g4319"
         clip-path="url(#clipPath4323)">
        <path
           d="M 1262.623,384.1468 H 1312 v -49.3903 h -49.377 z"
           style="fill:#e0fee2;fill-opacity:1;fill-rule:nonzero;stroke:none"
           id="path4325" />
      </g>
    </g>
    <g
       id="g4327">
      <g
         id="g4329"
         transform="matrix(2,0,0,-2,1268,382)">
        <path
           d="M 1.163866,16.81982 C 1.824299,14.86297 1.935351,11.07452 2.800842,7.641443 3.773232,2.972456 2.850072,0.3385534 3.747364,0.09823792 4.397928,-0.07341602 10.53628,0.03206945 14.23883,0.03206945 H 21 L 20.61115,2.67554 c -0.39107,2.952448 0.26456,10.59541 -0.01569,14.09715 l 0.37861,4.76413 -11.664439,0.39829 C -1.688732,22.0381 -0.7065791,22.62173 1.163866,16.81982 Z"
           style="fill:none;stroke:#000000;stroke-width:1;stroke-linecap:butt;stroke-linejoin:miter;stroke-miterlimit:10;stroke-dasharray:none;stroke-opacity:1"
           id="path4331" />
      </g>
      <g
         id="g4333"
         transform="matrix(2,0,0,-2,1268,382)">
        <path
           d="M 1.163866,16.81982 C 1.824299,14.86297 1.935351,11.07452 2.800842,7.641443 3.773232,2.972456 2.850072,0.3385534 3.747364,0.09823792 4.397928,-0.07341602 10.53628,0.03206945 14.23883,0.03206945 H 21 L 20.61115,2.67554 c -0.39107,2.952448 0.26456,10.59541 -0.01569,14.09715 l 0.37861,4.76413 -11.664439,0.39829 C -1.688732,22.0381 -0.7065791,22.62173 1.163866,16.81982 Z"
           style="fill:none;stroke:#000000;stroke-width:2;stroke-linecap:butt;stroke-linejoin:miter;stroke-miterlimit:10;stroke-dasharray:none;stroke-opacity:1"
           id="path4335" />
      </g>
    </g>
    <g
       id="g4337">
      <g
         id="g4339"
         clip-path="url(#clipPath4343)">
        <path
           d="m 722.4226,225.004 v 67.2 h -53 v -67.2 z"
           style="fill:#000000;fill-opacity:1;fill-rule:nonzero;stroke:none"
           id="path4345" />
      </g>
    </g>
    <g
       id="g4347">
      <g
         id="g4349"
         clip-path="url(#clipPath4353)">
        <path
           d="m 546.6226,216.004 v 287 h -56.2 v -287 z"
           style="fill:#000000;fill-opacity:1;fill-rule:nonzero;stroke:none"
           id="path4355" />
      </g>
    </g>
    <g
       id="g4357">
      <g
         id="g4359"
         clip-path="url(#clipPath4363)">
        <path
           d="m 647.8226,263.004 v 219.4 h -58 v -219.4 z"
           style="fill:#000000;fill-opacity:1;fill-rule:nonzero;stroke:none"
           id="path4365" />
      </g>
    </g>
    <g
       id="g4367">
      <g
         id="g4369"
         clip-path="url(#clipPath4373)">
        <path
           d="m 823.0226,315.204 v 115.2 h -58.8 v -115.2 z"
           style="fill:#000000;fill-opacity:1;fill-rule:nonzero;stroke:none"
           id="path4375" />
      </g>
    </g>
    <g
       id="g4377">
      <g
         id="g4379"
         clip-path="url(#clipPath4383)">
        <path
           d="m 862.4226,314.804 v 35.2 h -32.2 v -35.2 z"
           style="fill:#000000;fill-opacity:1;fill-rule:nonzero;stroke:none"
           id="path4385" />
      </g>
    </g>
    <g
       id="g4387">
      <g
         id="g4389"
         clip-path="url(#clipPath4393)">
        <path
           d="m 853.0226,353.604 v 22.8 h -20.6 v -22.8 z"
           style="fill:#000000;fill-opacity:1;fill-rule:nonzero;stroke:none"
           id="path4395" />
      </g>
    </g>
    <g
       id="g4397">
      <g
         id="g4399"
         clip-path="url(#clipPath4403)">
        <path
           d="m 859.6226,369.604 v 56 h -25.6 v -56 z"
           style="fill:#000000;fill-opacity:1;fill-rule:nonzero;stroke:none"
           id="path4405" />
      </g>
    </g>
    <g
       id="g4407">
      <g
         id="g4409"
         clip-path="url(#clipPath4413)">
        <g
           id="g4415"
           transform="matrix(2,0,0,-2,448,538)">
          <path
             d="M 0,0 H 225 V 200 H 0 Z"
             style="fill:none;stroke:#000000;stroke-width:2;stroke-linecap:butt;stroke-linejoin:miter;stroke-miterlimit:5;stroke-dasharray:none;stroke-opacity:1"
             id="path4417" />
        </g>
      </g>
    </g>
    <g
       id="g4419">
      <g
         id="g4421"
         clip-path="url(#clipPath4425)">
        <g
           id="g4427"
           transform="matrix(2,0,0,-2,896,538)">
          <path
             d="M 0,0 H 225 V 200 H 0 Z"
             style="fill:none;stroke:#000000;stroke-width:2;stroke-linecap:butt;stroke-linejoin:miter;stroke-miterlimit:5;stroke-dasharray:none;stroke-opacity:1"
             id="path4429" />
        </g>
      </g>
    </g>
    <g
       id="g4431">
      <g
         id="g4433"
         clip-path="url(#clipPath4437)">
        <g
           id="g4439"
           transform="matrix(2,0,0,-2,0,538)">
          <path
             d="M 0,0 H 225 V 200 H 0 Z"
             style="fill:none;stroke:#000000;stroke-width:2;stroke-linecap:butt;stroke-linejoin:miter;stroke-miterlimit:5;stroke-dasharray:none;stroke-opacity:1"
             id="path4441" />
        </g>
      </g>
    </g>
    <g
       id="g4443">
      <g
         id="g4445"
         transform="matrix(2,0,0,-2,738,250)">
        <text
           xml:space="preserve"
           transform="translate(0,15)"
           style="font-variant:normal;font-weight:bold;font-size:14px;font-family:Kalam;-inkscape-font-specification:Kalam-Bold;writing-mode:lr-tb;fill:#444444;fill-opacity:1;fill-rule:nonzero;stroke:none"
           id="text4449"><tspan
             x="0 4.368 12.166 18.746 25.620001 30.73 37.085999 43.959999"
             y="0"
             id="tspan4447">Inserted</tspan></text>
      </g>
      <g
         id="g4451"
         transform="matrix(2,0,0,-2,1144,250)">
        <text
           xml:space="preserve"
           transform="translate(0,15)"
           style="font-variant:normal;font-weight:bold;font-size:14px;font-family:Kalam;-inkscape-font-specification:Kalam-Bold;writing-mode:lr-tb;fill:#444444;fill-opacity:1;fill-rule:nonzero;stroke:none"
           id="text4455"><tspan
             x="0 7.77 14.126 21.308001 28.195999 35.139999 42.014"
             y="0"
             id="tspan4453">Stacked</tspan></text>
      </g>
      <g
         id="g4457"
         transform="matrix(2,0,0,-2,1100,114)">
        <text
           xml:space="preserve"
           transform="translate(0,38)"
           style="font-variant:normal;font-weight:normal;font-size:36px;font-family:Kalam;-inkscape-font-specification:Kalam-Regular;writing-mode:lr-tb;fill:#444444;fill-opacity:1;fill-rule:nonzero;stroke:none"
           id="text4461"><tspan
             x="0"
             y="0"
             id="tspan4459">C</tspan></text>
      </g>
      <g
         id="g4463"
         transform="matrix(2,0,0,-2,202,114)">
        <text
           xml:space="preserve"
           transform="translate(0,38)"
           style="font-variant:normal;font-weight:normal;font-size:36px;font-family:Kalam;-inkscape-font-specification:Kalam-Regular;writing-mode:lr-tb;fill:#444444;fill-opacity:1;fill-rule:nonzero;stroke:none"
           id="text4467"><tspan
             x="0"
             y="0"
             id="tspan4465">A</tspan></text>
      </g>
      <g
         id="g4469"
         transform="matrix(2,0,0,-2,651,114)">
        <text
           xml:space="preserve"
           transform="translate(0,38)"
           style="font-variant:normal;font-weight:normal;font-size:36px;font-family:Kalam;-inkscape-font-specification:Kalam-Regular;writing-mode:lr-tb;fill:#444444;fill-opacity:1;fill-rule:nonzero;stroke:none"
           id="text4473"><tspan
             x="0"
             y="0"
             id="tspan4471">B</tspan></text>
      </g>
    </g>
  </g>
</svg>
