<?xml version="1.0" encoding="UTF-8" standalone="no"?>
<!-- Created with Inkscape (http://www.inkscape.org/) -->

<svg
   version="1.1"
   id="svg4634"
   width="1903.2533"
   height="1378.6667"
   viewBox="0 0 1903.2533 1378.6667"
   xmlns="http://www.w3.org/2000/svg"
   xmlns:svg="http://www.w3.org/2000/svg">
  <defs
     id="defs4638">
    <clipPath
       clipPathUnits="userSpaceOnUse"
       id="clipPath4648">
      <path
         d="M 0,1034 H 1427.44 V 0 H 0 Z"
         id="path4646" />
    </clipPath>
  </defs>
  <g
     id="g4640"
     transform="matrix(1.3333333,0,0,-1.3333333,0,1378.6667)">
    <g
       id="g4642">
      <g
         id="g4644"
         clip-path="url(#clipPath4648)">
        <g
           id="g4650"
           transform="translate(711.5807,13.8368)">
          <path
             d="m 0,0 c -0.001,-0.181 -0.001,-0.361 -0.001,-0.542 18.89,0 37.78,-0.013 56.671,0.002 209.178,0.165 418.355,0.335 627.533,0.504 3.784,0.003 7.578,0.207 11.349,-0.012 5.448,-0.314 7.935,2.023 7.766,7.488 -0.132,4.317 0.036,8.642 0.021,12.962 -0.259,78.849 -0.722,157.697 -0.754,236.544 -0.1,244.139 -0.036,488.279 -0.037,732.418 0,4.321 -0.042,8.642 -0.024,12.963 0.022,5.246 -2.355,8.058 -7.81,7.968 -3.782,-0.062 -7.567,0.012 -11.351,0.012 -96.184,0.01 -192.37,0.021 -288.554,0.021 -106.481,0 -212.962,-0.224 -319.442,0.044 -89.699,0.226 -179.396,1.36 -269.095,1.448 -72.359,0.071 -144.719,-0.896 -217.079,-1.253 -36.755,-0.181 -73.51,0 -110.265,-0.038 -56.213,-0.052 -112.427,-0.306 -168.638,-0.051 -8.576,0.039 -13.289,-1.609 -11.768,-11.223 0.416,-2.635 0.064,-5.392 0.063,-8.092 -0.135,-243.597 -0.207,-487.193 -0.439,-730.79 -0.077,-81.534 -0.591,-163.069 -0.827,-244.603 -0.042,-14.363 0.136,-14.398 13.697,-14.541 40.513,-0.425 81.026,-1.147 121.54,-1.173 C -378.296,-0.07 -189.148,0 0,0 m 537.468,1020.163 h 155.687 c 0.528,-1.578 1.375,-2.707 3.216,-2.97 14.15,-2.02 14.434,-2.029 14.745,-16.038 0.444,-19.965 0.534,-39.94 0.573,-59.911 0.238,-123.64 0.509,-247.282 0.596,-370.922 0.131,-187.364 0.121,-374.727 0.166,-562.092 10e-4,-3.233 0.158,-6.49 -0.16,-9.697 -0.614,-6.204 -3.183,-8.866 -10.459,-8.759 -59.406,0.876 -118.822,1.677 -178.233,1.532 -98.845,-0.242 -197.692,-1.966 -296.534,-1.711 -258.753,0.667 -517.519,-2.713 -776.262,2.453 -54.01,1.078 -108.053,0.48 -162.08,0.654 v 486.181 c 4.434,2.349 2.862,6.577 2.866,10.065 0.132,99.216 0.182,198.433 0.143,297.65 -0.002,3.451 1.651,7.741 -3.009,9.923 v 223.642 H 242.31 c 3.509,-5.163 8.857,-2.895 13.347,-2.904 89.53,-0.184 179.06,-0.23 268.589,-0.123 4.446,0.01 9.853,-2.385 13.222,3.027"
             style="fill:#292929;fill-opacity:1;fill-rule:nonzero;stroke:none"
             id="path4652" />
        </g>
        <g
           id="g4654"
           transform="translate(0.3033,6.539)">
          <path
             d="m 0,0 c 54.028,-0.174 108.071,0.424 162.08,-0.654 258.743,-5.166 517.509,-1.786 776.263,-2.453 98.842,-0.255 197.688,1.469 296.533,1.711 59.411,0.145 118.827,-0.656 178.233,-1.532 7.277,-0.107 9.845,2.555 10.459,8.759 0.319,3.207 0.161,6.464 0.161,9.697 -0.045,187.365 -0.036,374.728 -0.166,562.092 -0.087,123.64 -0.359,247.281 -0.596,370.922 -0.039,19.971 -0.13,39.946 -0.573,59.911 -0.312,14.008 -0.595,14.018 -14.746,16.038 -1.84,0.263 -2.688,1.392 -3.215,2.97 h 22.704 V -6.482 H 14.596 c -3.784,0 -7.578,0.171 -11.35,-0.039 C -3.158,-6.876 1.336,-2.033 0,0"
             style="fill:#eaeaea;fill-opacity:1;fill-rule:nonzero;stroke:none"
             id="path4656" />
        </g>
        <g
           id="g4658"
           transform="translate(0.3033,810.3574)">
          <path
             d="M 0,0 C 4.66,-2.182 3.008,-6.471 3.009,-9.923 3.048,-109.14 2.998,-208.356 2.867,-307.573 2.862,-311.06 4.435,-315.289 0,-317.638 Z"
             style="fill:#929292;fill-opacity:1;fill-rule:nonzero;stroke:none"
             id="path4660" />
        </g>
        <g
           id="g4662"
           transform="translate(1249.0485,1033.9999)">
          <path
             d="m 0,0 c -3.369,-5.412 -8.775,-3.021 -13.222,-3.027 -89.529,-0.107 -179.059,-0.061 -268.589,0.123 -4.49,0.009 -9.837,-2.259 -13.347,2.904 z"
             style="fill:#787778;fill-opacity:1;fill-rule:nonzero;stroke:none"
             id="path4664" />
        </g>
        <g
           id="g4666"
           transform="translate(766.1901,117.4687)">
          <path
             d="m 0,0 c -38.311,-0.128 -76.622,-0.116 -114.933,-0.152 -12.917,-0.012 -25.833,-0.002 -38.75,-0.002 -0.008,-0.678 -0.017,-1.358 -0.025,-2.036 -51.744,1.155 -103.484,2.549 -155.233,3.24 -9.061,0.121 -11.077,3.651 -10.589,11.465 1.813,29.059 1.624,58.168 1.165,87.253 -0.128,8.041 2.489,9.769 10.082,9.767 42.546,-0.01 85.142,1.869 127.615,0.278 19.257,-0.721 38.414,0.044 57.609,-0.359 19.415,-0.409 38.846,-0.073 58.271,-0.073 19.937,0 39.875,0.006 59.812,-0.025 17.171,-0.025 17.13,-0.045 17.225,-18.001 C 12.388,64.943 12.563,38.531 12.781,12.118 12.881,0.209 12.947,0.043 0,0 m -0.872,609.336 c -40.513,-0.145 -81.026,-0.196 -121.539,-0.274 -10.233,-0.02 -20.465,-0.003 -30.697,-0.003 -0.007,-0.634 -0.014,-1.267 -0.02,-1.9 -52.341,1.155 -104.68,2.429 -157.025,3.326 -7.028,0.12 -9.541,2.445 -9.401,9.368 0.624,30.733 1.021,61.473 1.32,92.212 0.046,4.684 1.481,7.118 6.44,6.645 1.07,-0.102 2.159,-0.011 3.24,-0.002 45.833,0.351 91.692,1.786 137.495,0.774 55.067,-1.216 110.116,0.246 165.166,-0.729 18.098,-0.32 18.086,-0.077 18.136,-18.79 0.07,-25.906 0.137,-51.813 0.261,-77.719 0.06,-12.745 0.119,-12.859 -13.376,-12.908 M 111.252,60.805 c -9.254,-0.654 -12.712,2.715 -11.364,11.663 0.238,1.584 0.023,3.235 0.023,4.855 0.039,180.38 0.044,360.759 0.188,541.138 0.01,13.997 -1.555,28.03 0.517,42.005 v 12.986 c -1.818,5.366 -1.733,10.766 -0.294,16.192 -0.036,1.085 -0.072,2.171 -0.109,3.256 -1.983,22.603 -0.81,45.274 -1.521,67.898 -0.412,13.116 -0.93,13.186 -14.001,13.469 -33.984,0.734 -67.976,0.76 -101.965,1.407 -54.001,1.029 -108.044,-0.356 -162.057,0.325 -81.106,1.022 -162.213,1.092 -243.32,0.988 v -7.98 c 11.068,-0.066 22.135,-0.178 33.198,-0.268 77.77,-0.635 155.533,-1.644 233.311,-1.353 77.23,0.288 154.461,-0.002 231.693,-0.107 14.284,-0.019 14.387,-0.169 14.481,-14.237 0.113,-16.736 0.027,-33.473 0.027,-50.209 0,-31.811 0,-31.811 -31.976,-28.096 0,2.562 0.174,5.103 -0.029,7.614 -0.964,11.941 -3.272,13.288 -13.863,7.236 -6.845,-3.912 -13.246,-8.604 -20.99,-13.698 -0.869,13.664 -1.831,25.82 -2.349,37.997 -0.351,8.241 -3.262,11.966 -12.452,11.973 -27.502,0.023 -55.001,1.399 -82.505,1.647 -63.721,0.576 -127.444,0.821 -191.166,1.152 -17.288,0.091 -34.587,-0.338 -51.861,0.161 -8.722,0.251 -11.694,-3.093 -10.676,-11.425 1.174,-9.61 1.873,-19.216 1.862,-28.978 -0.03,-25.372 -3.131,-50.625 -2.265,-76.039 0.25,-7.332 1.403,-10.568 9.642,-10.53 39.364,0.186 78.605,-4.234 118.027,-3.271 11.12,0.272 25.273,4.95 32.576,-2.253 5.413,-5.341 2.322,-19.289 3.02,-29.403 4.675,-1.655 7.579,3.666 11.993,3.039 1.02,9.044 -3.732,20.863 1.866,26.512 6.313,6.37 18.394,2.166 27.927,2.181 44.791,0.075 89.582,3.918 134.352,0.508 8.429,-0.642 10.801,3.173 10.943,9.923 0.193,9.169 -0.338,18.351 -0.321,27.526 0.013,6.345 -1.637,12.797 1.021,19.51 7.028,-4.117 14.069,-7.841 21.715,-10.262 4.583,-1.451 9.437,-4.215 13.719,-0.485 5.613,4.892 0.581,9.692 -1.591,14.972 7.968,0 15.568,-0.6 23.031,0.154 9.007,0.911 10.551,-3.03 10.512,-11.064 -0.246,-50.771 0.041,-101.543 0.05,-152.315 0.03,-140.973 0.011,-281.946 0.006,-422.92 C 90.276,61.157 90.256,61.08 77.333,61.006 62.199,60.92 47.043,61.469 31.938,60.795 c -8.237,-0.368 -9.849,2.701 -9.723,10.184 0.191,11.302 -1.221,22.622 -1.417,33.944 -0.153,8.862 -4.19,11.222 -12.814,11.599 -43.181,1.894 -86.373,1.621 -129.567,1.737 -6.938,0.018 -13.981,-0.609 -20.829,1.866 -0.776,6.93 12.301,25.76 12.78,32.219 -11.299,1.607 -31.419,-16.365 -39.546,-4.254 -1.614,0.117 -3.241,0.433 -4.839,0.32 -12.424,-0.882 -13.376,-2.615 -7.866,-13.291 2.539,-4.919 8.081,-8.736 6.235,-15.996 -5.654,0 -11.046,-0.008 -16.437,10e-4 -39.997,0.066 -79.993,0.171 -119.989,0.187 -16.6,0.005 -16.775,-0.1 -15.065,-15.885 0.99,-9.139 1.081,-18.244 1.092,-27.42 0.03,-24.299 -3.049,-48.485 -2.152,-72.831 0.263,-7.154 1.035,-10.814 9.497,-10.668 35.069,0.604 70.013,-2.957 105.099,-3.354 75.071,-0.847 150.116,3.618 225.165,0.601 8.629,-0.348 10.54,3.863 10.59,10.346 0.096,12.413 -0.166,24.84 -0.731,37.242 -0.317,6.946 0.621,10.971 9.342,10.614 16.727,-0.685 33.523,-0.682 50.251,-0.001 8.707,0.354 9.451,-3.586 9.408,-10.615 -0.152,-24.833 0.273,-49.67 0.418,-74.506 0.101,-17.238 -0.766,-14.561 -15.198,-14.634 -121.584,-0.62 -243.168,0.079 -364.758,-1.136 -102.65,-1.025 -205.327,0.618 -307.991,1.205 -23.218,0.131 -46.433,1.006 -69.651,1.047 -6.911,0.012 -10.04,2.153 -9.509,9.21 0.283,3.76 0.02,7.559 0.037,11.339 0.423,99.354 1.092,198.707 1.224,298.062 0.21,158.799 0.031,317.598 0.173,476.397 0.006,7.343 -3.236,16.301 2.013,21.648 4.07,4.147 12.332,0.864 18.71,1.326 1.076,0.077 2.161,0.037 3.242,0.047 3.033,0.027 4.921,1.076 5.112,4.554 0.244,4.47 -2.168,5.447 -5.934,5.404 -7.026,-0.08 -14.091,-0.471 -21.071,0.101 -9.087,0.744 -12.187,-2.372 -11.939,-11.868 1.746,-66.906 2.476,-133.82 1.897,-200.764 -0.887,-102.609 -0.342,-205.231 -1.315,-307.838 -0.963,-101.532 -0.589,-203.059 -0.866,-304.588 -0.026,-9.361 2.736,-11.804 11.73,-11.717 46.404,0.451 92.781,-2.181 139.156,-2.481 125.388,-0.811 250.79,-1.01 376.176,-0.056 79.397,0.603 158.779,1.674 238.174,0.45 19.925,-0.307 19.873,-0.315 19.817,19.958 -0.073,26.466 0.256,52.938 -0.268,79.395 -0.155,7.801 1.868,10.472 9.824,10.03 10.77,-0.599 21.605,-0.017 32.414,0.057 v 12.779 c -10.267,0.075 -20.576,0.764 -30.787,0.044"
             style="fill:#292929;fill-opacity:1;fill-rule:nonzero;stroke:none"
             id="path4668" />
        </g>
        <g
           id="g4670"
           transform="translate(614.1764,361.58)">
          <path
             d="m 0,0 c 0.006,0.606 0.012,1.213 0.018,1.82 8.074,0 16.149,-0.019 24.223,0.003 42.68,0.116 85.361,0.375 128.04,0.248 8.04,-0.023 13.046,0.647 12.94,10.951 -0.636,62.073 -0.893,124.15 -0.779,186.226 0.018,9.844 -2.88,13.235 -12.922,13.012 -25.892,-0.574 -51.807,-0.214 -77.711,-0.109 -74.457,0.3 -148.914,1.192 -223.371,-0.076 -14.691,-0.251 -13.329,1.891 -13.346,-14.265 -0.031,-29.695 0.161,-59.391 -0.056,-89.083 -0.228,-31.285 -0.711,-62.569 -1.343,-93.847 -0.154,-7.624 1.216,-11.498 10.499,-11.62 C -102.533,2.589 -51.269,1.165 0,0 m -10.652,-40.874 c -0.324,3.282 -0.648,6.564 -0.972,9.847 0.1,1.148 0.199,2.298 0.299,3.447 v 19.532 c -26.683,0 -53.528,-0.38 -80.357,0.112 -24.207,0.445 -48.39,2.12 -72.597,2.66 -7.521,0.168 -8.5,3.378 -8.608,9.862 -0.638,38.302 1.024,76.558 1.655,114.832 0.488,29.622 1.45,59.25 -0.892,88.862 -1.062,13.429 -0.674,13.691 12.589,13.702 46.423,0.04 92.847,-0.211 139.269,0.019 4.656,0.023 10.872,-3.603 14.082,3.408 1.283,-0.07 2.566,-0.139 3.85,-0.209 2.344,-5.749 7.396,-3.081 11.222,-3.278 47.918,-2.467 95.931,0.443 143.862,-2.702 19.338,-1.268 19.335,-0.554 20.345,-20.477 3.249,-64.123 -1.179,-128.296 1.261,-192.424 0.082,-2.14 -0.126,-4.312 -0.406,-6.442 -0.73,-5.556 -3.119,-8.442 -9.582,-7.91 C 120.74,-4.442 77.111,-8.401 33.477,-8.504 23.453,-8.527 9.803,-3.757 4.341,-10.866 -0.696,-17.422 2.644,-30.405 2.294,-40.558 Z"
             style="fill:#292929;fill-opacity:1;fill-rule:nonzero;stroke:none"
             id="path4672" />
        </g>
        <g
           id="g4674"
           transform="translate(1121.0026,178.1923)">
          <path
             d="m 0,0 h 86.489 c 0.073,5.26 -3.808,10.831 0.663,14.818 4.534,4.043 8.998,-0.15 13.484,-1.189 10.266,-2.377 18.427,-8.183 26.042,-15.151 4.366,-3.997 3.828,-7.313 -0.524,-10.477 -7.808,-5.681 -15.674,-11.287 -23.629,-16.761 -3.518,-2.422 -7.499,-5.463 -11.82,-3.235 -5.317,2.74 -3.149,8.466 -3.456,13.019 -0.096,1.425 1.166,2.941 2.613,6.273 H 0 Z"
             style="fill:#0e0f0f;fill-opacity:1;fill-rule:nonzero;stroke:none"
             id="path4676" />
        </g>
        <g
           id="g4678"
           transform="translate(611.8424,586.7797)">
          <path
             d="m 0,0 c -1.284,0.07 -2.567,0.139 -3.85,0.209 -8.838,7.323 -14.413,17.21 -20.598,26.562 -6.817,10.308 -4.933,13.995 7.134,14.522 1.905,0.084 3.874,-1.3 5.814,-2.006 9.943,-6.166 21.408,-2.027 31.866,-4.7 C 15.981,21.645 11.625,8.685 0,0"
             style="fill:#0e0f0f;fill-opacity:1;fill-rule:nonzero;stroke:none"
             id="path4680" />
        </g>
        <g
           id="g4682"
           transform="translate(1163.1686,790.7792)">
          <path
             d="m 0,0 c 23.702,0.051 47.404,0.113 71.105,0.141 3.227,0.004 6.506,0.164 9.666,-0.338 3.337,-0.531 6.311,-2.45 6.19,-6.207 -0.114,-3.53 -2.735,-5.74 -6.178,-6.265 -2.636,-0.403 -5.371,-0.186 -8.061,-0.182 C 48.48,-12.81 24.24,-12.754 0,-12.703 Z"
             style="fill:#0e0f0f;fill-opacity:1;fill-rule:nonzero;stroke:none"
             id="path4684" />
        </g>
        <g
           id="g4686"
           transform="translate(881.6344,791.0121)">
          <path
             d="m 0,0 c 7.847,-3.851 -0.741,-8.797 0.872,-13.063 -5.233,-0.005 -10.467,-0.01 -15.7,-0.014 V -0.092 C -9.886,-0.061 -4.942,-0.031 0,0"
             style="fill:#f7f7f6;fill-opacity:1;fill-rule:nonzero;stroke:none"
             id="path4688" />
        </g>
        <g
           id="g4690"
           transform="translate(1113.1686,790.7792)">
          <path
             d="m 0,0 v -12.703 c -3.605,0.178 -7.211,0.357 -10.816,0.536 -2.333,2.74 -1.543,7.468 -5.747,9.019 0.453,2.374 -0.077,5.323 4.24,4.436 C -8.298,0.46 -4.114,0.399 0,0"
             style="fill:#f7f7f6;fill-opacity:1;fill-rule:nonzero;stroke:none"
             id="path4692" />
        </g>
        <g
           id="g4694"
           transform="translate(866.5133,807.1122)">
          <path
             d="M 0,0 C -0.037,1.085 -0.074,2.171 -0.11,3.257 1.727,3.304 4.303,6.378 5.1,3.774 6.197,0.19 2.454,0.352 0,0"
             style="fill:#f7f7f6;fill-opacity:1;fill-rule:nonzero;stroke:none"
             id="path4696" />
        </g>
        <g
           id="g4698"
           transform="translate(1062.3756,141.3437)">
          <path
             d="M 0,0 C -0.266,0.407 -0.775,0.828 -0.755,1.221 -0.677,2.663 0.039,3.044 0.944,2.164 1.23,1.886 1.292,1.134 1.134,0.722 1.006,0.386 0.396,0.233 0,0"
             style="fill:#f7f7f6;fill-opacity:1;fill-rule:nonzero;stroke:none"
             id="path4700" />
        </g>
        <g
           id="g4702"
           transform="translate(595.9186,313.2773)">
          <path
             d="M 0,0 C 0.456,0.179 0.969,0.592 1.356,0.496 2.838,0.131 3.004,-0.664 1.766,-1.429 1.44,-1.629 0.706,-1.43 0.317,-1.174 0.064,-1.007 0.096,-0.406 0,0"
             style="fill:#f7f7f6;fill-opacity:1;fill-rule:nonzero;stroke:none"
             id="path4704" />
        </g>
        <g
           id="g4706"
           transform="translate(602.8512,333.9999)">
          <path
             d="M 0,0 C -0.1,-1.149 -0.199,-2.299 -0.299,-3.447 -2.671,-2.084 -2.002,-0.984 0,0"
             style="fill:#cccccc;fill-opacity:1;fill-rule:nonzero;stroke:none"
             id="path4708" />
        </g>
        <g
           id="g4710"
           transform="translate(736.6471,464.2045)">
          <path
             d="m 0,0 c 0.428,16.164 0.664,32.361 -1.289,48.435 -2.299,18.914 -0.049,14.876 -16.471,16.2 -30.137,2.429 -60.321,1.553 -90.485,1.91 -42.588,0.504 -85.184,0.486 -127.77,1.115 -9.064,0.134 -11.295,-3.758 -10.291,-11.731 1.209,-9.597 1.876,-19.187 1.813,-28.936 -0.154,-24.246 -3.044,-48.382 -2.275,-72.678 0.24,-7.569 1.908,-10.21 9.833,-10.359 30.678,-0.58 61.263,-3.128 92.004,-3.378 43.645,-0.355 87.225,3.48 130.871,1.242 12.437,-0.638 13.767,0.602 13.994,12.933 C 0.211,-30.169 0,-15.083 0,0 m -122.471,-102.625 c -51.268,1.166 -102.533,2.589 -153.808,3.26 -9.283,0.122 -10.653,3.996 -10.499,11.62 0.632,31.279 1.115,62.563 1.343,93.847 0.217,29.693 0.025,59.389 0.056,89.083 0.017,16.157 -1.345,14.015 13.347,14.265 74.456,1.269 148.913,0.377 223.37,0.076 25.904,-0.104 51.819,-0.465 77.711,0.11 10.042,0.223 12.94,-3.169 12.923,-13.013 -0.115,-62.075 0.142,-124.153 0.778,-186.225 0.106,-10.305 -4.899,-10.975 -12.939,-10.951 -42.68,0.127 -85.361,-0.132 -128.041,-0.248 -8.074,-0.023 -16.148,-0.003 -24.223,-0.003 -0.005,-0.608 -0.012,-1.214 -0.018,-1.821"
             style="fill:#f7f7f6;fill-opacity:1;fill-rule:nonzero;stroke:none"
             id="path4712" />
        </g>
        <g
           id="g4714"
           transform="translate(613.068,413.3349)">
          <path
             d="m 0,0 c 0.007,0.805 0.014,1.61 0.021,2.416 33.978,0 67.957,0.194 101.931,-0.138 8.4,-0.082 12.652,1.265 12.314,11.296 -0.889,26.398 -0.63,52.835 -0.846,79.257 -0.127,15.511 -0.146,15.318 -16.431,15.638 -38.823,0.764 -77.646,-0.445 -116.485,0.747 -27.956,0.859 -55.979,-0.434 -83.971,-0.798 -4.631,-0.06 -9.742,1.381 -9.778,-6.595 -0.135,-29.641 -0.629,-59.282 -1.25,-88.918 -0.146,-6.97 2.481,-9.152 9.451,-9.332 C -70.021,2.668 -35.013,1.242 0,0 m 123.579,50.87 c 0,-15.083 0.211,-30.17 -0.066,-45.247 -0.227,-12.331 -1.557,-13.571 -13.993,-12.934 -43.647,2.239 -87.227,-1.596 -130.872,-1.242 -30.741,0.25 -61.326,2.799 -92.004,3.378 -7.925,0.15 -9.593,2.79 -9.833,10.36 -0.769,24.295 2.121,48.431 2.275,72.678 0.063,9.748 -0.604,19.339 -1.813,28.935 -1.004,7.974 1.227,11.866 10.291,11.732 42.586,-0.629 85.182,-0.611 127.77,-1.115 30.164,-0.358 60.348,0.518 90.485,-1.911 16.422,-1.323 14.172,2.715 16.471,-16.2 1.953,-16.074 1.717,-32.271 1.289,-48.434"
             style="fill:#292929;fill-opacity:1;fill-rule:nonzero;stroke:none"
             id="path4716" />
        </g>
        <g
           id="g4718"
           transform="translate(816.8014,790.2055)">
          <path
             d="m 0,0 c 23.702,0.051 47.404,0.113 71.105,0.141 3.227,0.004 6.506,0.164 9.666,-0.338 3.337,-0.531 6.312,-2.45 6.19,-6.207 -0.114,-3.53 -2.735,-5.74 -6.178,-6.265 -2.636,-0.403 -5.371,-0.186 -8.061,-0.182 C 48.481,-12.81 24.24,-12.754 0,-12.704 Z"
             style="fill:#0e0f0f;fill-opacity:1;fill-rule:nonzero;stroke:none"
             id="path4720" />
        </g>
        <g
           id="g4722"
           transform="translate(818.0533,808.3032)">
          <path
             d="m 0,0 c -0.687,-1.131 -1.773,-1.594 -2.763,-0.782 -0.724,0.595 -1.444,1.797 -1.357,2.646 0.145,1.424 1.379,1.763 2.445,0.754 C -0.944,1.927 -0.546,0.886 0,0"
             style="fill:#f7f7f6;fill-opacity:1;fill-rule:nonzero;stroke:none"
             id="path4724" />
        </g>
      </g>
    </g>
    <text
       xml:space="preserve"
       transform="matrix(1,0,0,-1,1172.0435,942.646)"
       style="font-variant:normal;font-weight:normal;font-stretch:normal;font-size:72px;font-family:Kalam;-inkscape-font-specification:Kalam-Regular;writing-mode:lr-tb;fill:#231f20;fill-opacity:1;fill-rule:nonzero;stroke:none"
       id="text4730"><tspan
         x="0 48.743999 82.512001 110.376 145.008 168.84"
         y="0"
         id="tspan4726">Nature</tspan><tspan
         x="-1019.88 -976.104 -941.90399 -909.50403 -871.12799"
         y="74.519997"
         id="tspan4728">Agent</tspan></text>
    <text
       xml:space="preserve"
       transform="matrix(1,0,0,-1,520.9009,759.6816)"
       style="font-variant:normal;font-weight:normal;font-stretch:normal;font-size:60px;font-family:Kalam;-inkscape-font-specification:Kalam-Regular;writing-mode:lr-tb;fill:#231f20;fill-opacity:1;fill-rule:nonzero;stroke:none"
       id="text4738"><tspan
         x="0 31.860001 58.860001 90.839996 116.4 143.58 163.44"
         y="0"
         id="tspan4732">Sensors</tspan><tspan
         x="57.66 93.120003"
         y="304.14001"
         id="tspan4734">KB</tspan><tspan
         x="-25.08 11.4 38.099998 61.32 90.18 118.32 141.53999 168.72 188.58"
         y="608.28003"
         id="tspan4736">Actuators</tspan></text>
    <text
       xml:space="preserve"
       transform="matrix(1,0,0,-1,954.5942,158.3071)"
       style="font-variant:normal;font-weight:normal;font-stretch:normal;font-size:48px;font-family:Kalam;-inkscape-font-specification:Kalam-Regular;writing-mode:lr-tb;fill:#231f20;fill-opacity:1;fill-rule:nonzero;stroke:none"
       id="text4748"><tspan
         x="0 29.184 50.543999 69.120003 80.543999 102.288 127.872"
         y="0"
         id="tspan4740">Actions</tspan><tspan
         x="-39.456001 -13.392 8.2080002 24.096001 45.456001 67.056 90 108.576 120 141.744 167.328"
         y="-609.888"
         id="tspan4742">Perceptions</tspan><tspan
         x="-346.272 -321.168 -298.65601 -277.29599 -258.72"
         y="-481.728"
         id="tspan4744">Facts</tspan><tspan
         x="-346.272 -315.31201 -293.71201 -272.35199 -260.92801 -240.48 -229.056 -207.312 -181.728"
         y="-118.128"
         id="tspan4746">Decisions</tspan></text>
  </g>
</svg>
