<?xml version="1.0" encoding="UTF-8" standalone="no"?>
<!-- Created with Inkscape (http://www.inkscape.org/) -->

<svg
   version="1.1"
   id="svg6668"
   width="1415.5867"
   height="896.18134"
   viewBox="0 0 1415.5867 896.18134"
   xmlns="http://www.w3.org/2000/svg"
   xmlns:svg="http://www.w3.org/2000/svg">
  <defs
     id="defs6672">
    <clipPath
       clipPathUnits="userSpaceOnUse"
       id="clipPath6682">
      <path
         d="M 0,672.136 H 1061.695 V 0 H 0 Z"
         id="path6680" />
    </clipPath>
    <clipPath
       clipPathUnits="userSpaceOnUse"
       id="clipPath6842">
      <path
         d="M 0,672.136 H 1061.695 V 0 H 0 Z"
         id="path6840" />
    </clipPath>
  </defs>
  <g
     id="g6674"
     transform="matrix(1.3333333,0,0,-1.3333333,0,896.18133)">
    <g
       id="g6676">
      <g
         id="g6678"
         clip-path="url(#clipPath6682)">
        <g
           id="g6684"
           transform="translate(371.5071,65.5348)">
          <path
             d="m 0,0 c -0.08,0.126 -0.133,0.328 -0.244,0.367 -2.061,0.731 -3.428,0.005 -3.928,-2.071 -0.075,-0.31 -0.166,-0.626 -0.167,-0.941 0,-0.213 0.085,-0.515 0.238,-0.618 0.152,-0.101 0.485,-0.08 0.658,0.023 1.321,0.781 2.407,1.836 3.382,3.01 C -0.015,-0.175 -0.02,-0.078 0,0 M 1.06,7.266 C 1.255,7.277 1.653,7.281 2.046,7.331 3.109,7.466 3.444,7.887 3.214,8.938 2.774,10.952 2.299,12.96 1.801,14.96 1.649,15.571 1.397,16.162 1.138,16.738 1.055,16.925 0.818,17.122 0.622,17.16 0.246,17.234 0.043,16.919 -0.03,16.613 -0.55,14.455 -1.112,12.304 -1.534,10.126 -1.988,7.782 -1.503,7.265 1.06,7.266 m 6.76,-21.463 c 1.5,-0.088 1.986,0.426 1.788,1.682 -0.036,0.236 -0.098,0.467 -0.16,0.698 -0.432,1.614 -0.847,3.233 -1.31,4.838 -0.264,0.917 -0.584,1.82 -0.925,2.71 -0.239,0.626 -0.826,0.791 -1.351,0.431 -0.196,-0.134 -0.388,-0.28 -0.558,-0.446 -1.882,-1.831 -3.765,-3.662 -5.633,-5.508 -0.28,-0.277 -0.511,-0.613 -0.722,-0.948 -0.48,-0.766 -0.233,-1.384 0.702,-1.571 2.418,-0.482 4.833,-0.969 7.19,-1.712 0.375,-0.12 0.782,-0.141 0.979,-0.174 m -3.356,-5.707 c -0.584,0.236 -0.997,0.438 -1.431,0.574 -2.908,0.904 -5.919,1.329 -8.904,1.869 -0.31,0.056 -0.636,0.025 -0.956,0.028 -0.546,0.004 -0.901,-0.271 -1.081,-0.773 -0.107,-0.301 -0.214,-0.605 -0.28,-0.916 -0.671,-3.203 -1.336,-6.409 -1.998,-9.614 -0.064,-0.313 -0.113,-0.632 -0.124,-0.951 -0.015,-0.463 -0.139,-1 0.378,-1.279 0.404,-0.218 0.779,0.038 1.108,0.253 0.533,0.351 1.078,0.697 1.555,1.116 3.121,2.74 6.349,5.346 9.643,7.872 0.677,0.52 1.291,1.121 2.09,1.821 m 0.762,-21.835 c 0.01,0.305 -0.203,0.408 -0.441,0.464 -3.138,0.73 -6.326,0.724 -9.495,0.419 -1.902,-0.184 -3.784,-0.443 -5.705,-0.398 -1.721,0.041 -1.977,-0.227 -2.449,-1.96 -0.063,-0.23 -0.133,-0.46 -0.178,-0.693 -0.433,-2.186 -0.862,-4.372 -1.291,-6.559 -0.046,-0.234 -0.104,-0.467 -0.131,-0.704 -0.13,-1.104 0.382,-1.537 1.371,-1.155 0.297,0.115 0.583,0.259 0.87,0.395 2.946,1.4 5.683,3.214 8.748,4.378 0.292,0.111 0.555,0.312 0.817,0.491 2.615,1.796 5.412,3.321 7.884,5.322 m 6.886,18.393 c -0.249,-0.101 -0.491,-0.154 -0.677,-0.284 -0.716,-0.503 -1.38,-1.087 -2.125,-1.538 -3.14,-1.903 -6.016,-4.183 -9.023,-6.273 -0.924,-0.643 -1.726,-1.416 -2.336,-2.363 -0.196,-0.302 -0.052,-0.663 0.284,-0.78 0.365,-0.127 0.771,-0.171 1.161,-0.182 4.815,-0.129 9.525,-0.726 13.915,-2.913 0.689,-0.342 1.543,-1.058 2.198,-0.575 0.878,0.647 0.11,1.621 -0.12,2.413 -1.025,3.524 -2.03,7.046 -2.324,10.729 -0.037,0.462 -0.216,0.925 -0.404,1.355 -0.079,0.18 -0.355,0.274 -0.549,0.411 M 6.918,53.231 C 6.82,51.173 6.44,48.915 4.437,47.3 3.498,46.542 3.113,45.541 3.12,44.347 3.134,41.789 2.967,39.227 3.39,36.685 3.403,36.605 3.42,36.525 3.418,36.446 3.283,31.062 5.264,26.113 6.604,21.034 c 0.775,-2.936 1.769,-5.807 2.49,-8.765 0.679,-2.79 1.669,-5.502 2.496,-8.256 0.805,-2.679 1.589,-5.365 2.361,-8.053 1.589,-5.531 3.171,-11.064 4.735,-16.604 0.282,-0.998 0.538,-2.013 0.683,-3.039 0.541,-3.806 1.381,-7.536 2.395,-11.248 0.988,-3.622 1.66,-7.329 2.491,-10.994 1.06,-4.675 1.851,-9.416 3.511,-13.942 0.272,-0.742 0.397,-1.547 0.524,-2.334 0.12,-0.746 -0.143,-1.421 -0.588,-2.02 -1.187,-1.595 -2.894,-1.759 -4.328,-0.373 -0.394,0.38 -0.721,0.86 -0.972,1.348 -0.289,0.565 -0.522,1.176 -0.672,1.793 -0.963,3.959 -2.311,7.818 -2.956,11.863 -0.288,1.809 -0.859,3.573 -1.326,5.351 -0.122,0.465 -0.494,0.625 -0.93,0.435 -2.053,-0.891 -4.137,-1.721 -6.132,-2.728 -2.065,-1.042 -4.119,-2.144 -6.032,-3.435 -2.145,-1.448 -4.468,-2.455 -6.843,-3.401 -3.273,-1.303 -6.462,-2.772 -9.374,-4.787 -0.789,-0.547 -1.616,-1.081 -2.583,-1.224 -1.145,-0.169 -1.621,-0.91 -1.866,-1.911 -0.151,-0.621 -0.237,-1.261 -0.432,-1.867 -0.513,-1.593 -2.173,-2.279 -3.663,-1.534 -1.339,0.669 -2.1,1.695 -1.943,3.26 0.032,0.319 0.061,0.638 0.116,0.952 0.883,5.117 1.768,10.233 2.657,15.348 0.644,3.7 1.233,7.412 1.958,11.096 1.42,7.212 2.905,14.412 4.39,21.611 0.646,3.127 1.194,6.288 2.083,9.348 1.07,3.686 1.935,7.42 2.868,11.137 1.302,5.192 2.431,10.428 3.695,15.631 0.528,2.172 1.202,4.309 1.83,6.455 0.431,1.475 0.575,2.972 0.556,4.504 -0.046,3.758 -0.07,7.517 -0.057,11.275 0.003,1.164 -0.199,2.212 -0.963,3.127 -0.305,0.366 -0.575,0.777 -0.783,1.205 -0.983,2.018 -1.003,4.027 0.294,5.912 0.81,1.177 1.615,2.373 2.946,3.095 3.123,1.692 6.179,0.494 7.235,-2.889 0.287,-0.92 0.454,-1.864 0.443,-3.145"
             style="fill:#000000;fill-opacity:1;fill-rule:nonzero;stroke:none"
             id="path6686" />
        </g>
        <g
           id="g6688"
           transform="translate(327.9871,101.1783)">
          <path
             d="m 0,0 c -0.288,4.705 0.239,9.154 0.852,13.586 0.403,2.923 0.938,5.821 1.734,8.685 0.618,2.223 1.022,4.515 1.737,6.717 0.811,2.501 1.347,5.116 2.748,7.387 1.005,1.63 2.057,3.24 3.215,4.763 1.412,1.856 3.329,2.948 5.672,3.256 1.243,0.163 2.191,-0.309 2.917,-1.271 0.962,-1.272 0.772,-2.978 -0.625,-3.746 C 14.836,37.499 13.407,34.172 11.908,30.921 11.179,29.34 10.923,27.542 10.225,25.942 9.547,24.391 9.08,22.787 8.611,21.18 7.962,18.952 7.482,16.684 7.243,14.37 7.185,13.813 7.163,13.238 6.997,12.712 6.286,10.463 6.257,8.147 6.216,5.826 6.202,5.028 6.13,4.231 6.055,3.437 5.743,0.164 5.758,-3.095 6.116,-6.373 c 0.317,-2.901 0.949,-5.666 2.377,-8.228 0.153,-0.275 0.273,-0.584 0.34,-0.892 0.416,-1.893 -1.008,-3.368 -2.91,-3.01 -1.517,0.286 -2.631,1.155 -3.308,2.522 -0.352,0.71 -0.575,1.488 -0.818,2.248 C 0.346,-9.197 -0.379,-4.562 0,0"
             style="fill:#000000;fill-opacity:1;fill-rule:nonzero;stroke:none"
             id="path6690" />
        </g>
        <g
           id="g6692"
           transform="translate(420.7068,105.6735)">
          <path
             d="m 0,0 c 0.188,-3.03 -0.237,-6.583 -1.357,-10.044 -0.196,-0.605 -0.39,-1.231 -0.709,-1.774 -0.728,-1.243 -2.045,-1.514 -3.283,-0.75 -1.878,1.158 -2.37,2.435 -1.766,4.698 0.267,0.999 0.694,1.938 0.869,2.98 0.521,3.102 0.453,6.207 0.254,9.321 -0.112,1.754 -0.279,3.504 -0.388,5.257 -0.25,4.075 -0.777,8.08 -2.054,11.999 -0.649,1.991 -1.441,3.852 -2.417,5.696 -0.892,1.685 -1.569,3.491 -2.584,5.124 -0.294,0.472 -0.546,0.988 -0.913,1.398 -1.553,1.735 -2.366,3.97 -3.928,5.708 -0.514,0.572 -0.824,1.366 -0.948,2.176 -0.184,1.195 0.461,2.095 1.646,2.161 1.419,0.08 2.653,-0.352 3.635,-1.454 2.618,-2.936 4.77,-6.185 6.686,-9.613 1.365,-2.444 2.659,-4.915 3.729,-7.5 1.045,-2.524 1.596,-5.192 2.099,-7.858 0.577,-3.06 0.915,-6.148 1.042,-9.275 C -0.283,5.701 0.013,3.157 0,0"
             style="fill:#000000;fill-opacity:1;fill-rule:nonzero;stroke:none"
             id="path6694" />
        </g>
        <g
           id="g6696"
           transform="translate(391.8963,111.0182)">
          <path
             d="m 0,0 c -0.109,2.788 -0.179,5.567 -0.631,8.343 -0.603,3.699 -2.311,6.743 -4.852,9.398 -0.828,0.864 -1.698,1.692 -2.48,2.595 -1.312,1.517 -0.834,3.073 1.055,3.697 1.075,0.355 1.986,0.184 2.92,-0.473 3.013,-2.119 5.124,-4.973 6.934,-8.119 C 4.748,12.311 5.425,8.891 5.65,5.36 5.849,2.257 5.996,-0.852 5.746,-3.966 5.648,-5.17 5.506,-6.354 4.982,-7.449 4.455,-8.552 3.523,-8.885 2.391,-8.448 c -1.738,0.67 -2.362,1.54 -2.405,3.42 -0.02,0.877 0.01,1.756 0.013,2.633 C 0.002,-1.597 0,-0.798 0,0"
             style="fill:#000000;fill-opacity:1;fill-rule:nonzero;stroke:none"
             id="path6698" />
        </g>
        <g
           id="g6700"
           transform="translate(349.0252,116.4498)">
          <path
             d="m 0,0 c -0.1,4.207 0.733,8.226 2.598,12.021 0.531,1.081 1.21,2.053 2.075,2.904 0.715,0.703 1.574,1.077 2.534,1.248 1.313,0.233 2.38,-0.27 3.04,-1.394 C 10.888,13.687 10.78,12.652 10.01,11.668 9.911,11.543 9.809,11.42 9.702,11.302 7.57,8.956 6.729,6.1 6.327,3.035 6.035,0.808 5.976,-1.389 6.24,-3.633 c 0.265,-2.252 0.863,-4.368 1.781,-6.42 0.357,-0.799 0.743,-1.599 0.965,-2.439 0.504,-1.907 -0.643,-3.054 -2.593,-2.771 -0.846,0.123 -1.448,0.419 -1.956,1.139 C 1.894,-10.528 0.296,-6.606 0.118,-2.163 0.089,-1.446 0.04,-0.729 0,0"
             style="fill:#000000;fill-opacity:1;fill-rule:nonzero;stroke:none"
             id="path6702" />
        </g>
        <g
           id="g6704"
           transform="translate(1006.1462,95.4606)">
          <path
             d="m 0,0 c 0,-2.96 -0.004,-5.919 0.003,-8.878 0.001,-0.56 0.004,-1.122 0.071,-1.676 0.092,-0.751 0.474,-1.095 1.248,-1.228 0.078,-0.014 0.158,-0.025 0.239,-0.026 2.557,-0.03 5.116,-0.171 7.666,0.176 3.009,0.41 6.021,0.817 9.069,0.73 3.469,-0.098 6.831,0.687 10.228,1.187 2.769,0.407 5.546,0.704 8.349,0.778 2.475,0.065 4.95,0.185 7.419,0.358 1.539,0.107 3.046,-0.046 4.522,-0.401 1.394,-0.335 2.749,-0.801 4.165,-1.085 1.69,-0.339 3.02,-2.345 2.425,-3.828 -1.036,-2.586 -0.714,-5.209 -0.529,-7.815 0.171,-2.401 0.196,-4.774 0.044,-7.179 -0.137,-2.141 -0.309,-4.307 0.044,-6.461 0.115,-0.706 0.125,-1.434 0.126,-2.153 0.014,-8.555 0.018,-17.108 0.017,-25.662 0,-1.6 -0.002,-3.197 -0.282,-4.784 -0.109,-0.626 -0.118,-1.276 -0.121,-1.913 -0.023,-4.4 -0.084,-8.799 -0.03,-13.198 0.036,-2.966 -0.03,-5.914 -0.504,-8.847 -0.115,-0.714 -0.193,-1.429 -0.532,-2.08 -0.636,-1.223 -2.033,-1.661 -3.278,-1.038 -1.162,0.582 -1.725,1.576 -1.613,2.922 0.066,0.797 0.142,1.597 0.286,2.382 0.425,2.306 0.414,4.633 0.139,6.934 -0.391,3.276 -0.381,6.558 -0.147,9.822 0.31,4.314 0.381,8.626 0.38,12.943 -0.005,12.558 -0.022,25.115 -0.054,37.671 -0.005,2.078 -0.088,4.158 -0.179,6.234 -0.058,1.326 -0.574,1.84 -1.976,1.856 -1.517,0.018 -3.05,0.017 -4.551,-0.172 -2.948,-0.37 -5.907,-0.247 -8.859,-0.363 -1.041,-0.041 -2.069,-0.082 -3.098,-0.277 -2.748,-0.522 -5.479,-1.154 -8.279,-1.37 -0.875,-0.068 -1.758,-0.23 -2.626,-0.175 -3.541,0.22 -7.017,-0.392 -10.51,-0.757 -1.761,-0.185 -3.494,-0.255 -5.254,0.022 -1.019,0.161 -2.073,0.15 -3.109,0.131 -0.783,-0.013 -1.164,-0.384 -1.283,-1.161 -0.097,-0.63 -0.136,-1.273 -0.141,-1.911 -0.024,-3.039 -0.044,-6.079 -0.033,-9.118 0.008,-2.48 -0.102,-4.946 -0.298,-7.424 -0.331,-4.225 -0.327,-8.468 0.109,-12.697 0.082,-0.794 0.17,-1.593 0.171,-2.39 0.004,-3.767 0.421,-7.499 0.895,-11.228 0.201,-1.585 0.354,-3.181 0.43,-4.778 0.234,-4.869 0.44,-9.74 0.617,-14.613 0.067,-1.839 -0.057,-3.675 -0.267,-5.508 -0.108,-0.95 -0.091,-1.915 -0.119,-2.874 -0.017,-0.64 0.022,-1.282 -0.025,-1.919 -0.103,-1.403 -0.831,-2.465 -1.73,-2.589 -1.593,-0.22 -3.143,0.766 -3.46,2.298 -0.161,0.776 -0.187,1.588 -0.19,2.385 -0.009,2.479 0.012,4.959 0.043,7.438 0.035,2.801 0.021,5.592 -0.322,8.384 -0.205,1.661 -0.234,3.356 -0.198,5.031 0.065,2.897 -0.415,5.732 -0.743,8.59 -0.382,3.332 -0.716,6.674 -0.717,10.04 -10e-4,1.275 -0.142,2.552 -0.267,3.823 -0.346,3.515 -0.333,7.029 0.07,10.534 0.211,1.835 0.247,3.671 0.254,5.509 0.01,2.399 -0.059,4.798 -0.055,7.198 0.009,4.162 0.459,8.298 0.743,12.444 0.124,1.83 0.228,3.683 0.086,5.504 -0.189,2.399 -0.096,4.775 0.009,7.167 0.088,1.993 -0.038,3.995 -0.029,5.993 0.01,2.156 0.008,4.308 -0.343,6.446 -0.076,0.467 -0.049,0.959 -0.009,1.434 0.223,2.646 -0.21,5.268 -0.267,7.902 -0.013,0.542 -0.307,0.94 -0.81,1.062 -0.692,0.169 -1.41,0.317 -2.119,0.327 -2.397,0.036 -4.794,0.068 -7.189,-0.194 -1.988,-0.219 -3.981,-0.191 -5.985,0.004 -2.065,0.2 -4.151,0.221 -6.229,0.242 -2.236,0.021 -4.472,-0.022 -6.706,-0.089 -1.196,-0.035 -2.391,-0.152 -3.581,-0.281 -1.43,-0.156 -2.847,-0.227 -4.295,-0.199 -2.95,0.057 -5.905,-0.152 -8.858,-0.218 -1.917,-0.043 -3.837,-0.077 -5.754,-0.026 -1.993,0.054 -3.983,0.263 -5.977,0.319 -2.236,0.062 -4.46,-0.018 -6.698,-0.294 -2.929,-0.362 -5.895,-0.408 -8.843,-0.611 -2.073,-0.142 -4.147,-0.292 -6.214,-0.496 -0.94,-0.092 -1.259,-0.457 -1.376,-1.369 -0.07,-0.554 -0.096,-1.117 -0.089,-1.676 0.057,-4.957 0.114,-9.914 0.195,-14.871 0.102,-6.391 0.203,-12.783 0.353,-19.173 0.067,-2.874 0.136,-5.744 -0.044,-8.616 -0.039,-0.636 -0.059,-1.29 0.034,-1.917 0.432,-2.863 0.267,-5.746 0.353,-8.622 0.156,-5.193 0.274,-10.39 0.603,-15.574 0.361,-5.664 0.687,-11.328 0.91,-16.999 0.025,-0.637 0.122,-1.271 0.19,-1.905 0.06,-0.556 0.23,-1.12 0.176,-1.664 -0.253,-2.56 0.137,-5.091 0.235,-7.635 0.036,-0.952 -0.166,-1.911 -0.18,-2.867 -0.036,-2.559 -0.022,-5.119 -0.042,-7.678 -0.004,-0.639 0,-1.286 -0.102,-1.913 -0.212,-1.302 -0.936,-1.989 -2.193,-2.196 -1.982,-0.328 -2.854,0.25 -3.229,2.223 -0.134,0.702 -0.164,1.431 -0.173,2.148 -0.049,3.999 -0.176,8 -0.083,11.996 0.093,3.932 -0.402,7.823 -0.589,11.733 -0.072,1.51 -0.146,3.036 -0.178,4.537 -0.105,4.879 -0.73,9.723 -0.737,14.612 -0.006,3.907 -0.433,7.814 -0.67,11.721 -0.052,0.878 -0.217,1.773 -0.108,2.631 0.293,2.322 -0.016,4.627 -0.053,6.939 -0.026,1.681 0.034,3.353 0.218,5.029 0.139,1.266 0.152,2.555 0.126,3.832 -0.072,3.513 -0.241,7.024 -0.289,10.537 -0.08,5.838 -0.107,11.677 -0.129,17.516 -0.005,1.29 -0.079,2.549 -0.617,3.743 0.402,1.131 0.696,2.273 0.667,3.496 -0.045,1.919 -0.05,3.839 -0.03,5.758 0.008,0.795 0.032,1.609 0.211,2.377 0.355,1.523 2.09,2.476 3.345,1.598 1.971,-1.377 4.012,-1.292 6.192,-1.066 3.497,0.361 7,0.646 10.503,0.925 3.914,0.31 7.832,0.251 11.741,-0.064 2.396,-0.192 4.78,-0.401 7.17,0.022 0.313,0.055 0.636,0.083 0.955,0.084 9.274,0.021 18.531,0.854 27.812,0.586 3.117,-0.09 6.237,-0.048 9.356,-0.067 1.838,-0.011 3.671,-0.02 5.504,-0.295 1.419,-0.213 2.871,-0.211 4.3,0.073 0.236,0.046 0.472,0.092 0.711,0.111 2.114,0.172 3.178,-0.674 3.439,-2.743 0.05,-0.396 0.072,-0.799 0.059,-1.198 -0.13,-4.406 0.479,-8.779 0.587,-13.176 0.056,-2.23 0.366,-4.458 0.354,-6.7 C -0.043,4.318 -0.033,2.159 -0.033,-0.001 -0.022,-0.001 -0.012,0 0,0"
             style="fill:#000000;fill-opacity:1;fill-rule:nonzero;stroke:none"
             id="path6706" />
        </g>
        <g
           id="g6708"
           transform="translate(946.1404,47.0485)">
          <path
             d="m 0,0 v 0.063 c -0.56,0 -1.118,0.009 -1.678,-0.001 -1.83,-0.033 -2.274,-0.471 -2.013,-2.353 0.277,-1.99 0.234,-3.984 0.292,-5.979 0.046,-1.596 0.043,-3.195 0.065,-4.793 0.007,-0.479 10e-4,-0.96 0.049,-1.436 0.122,-1.195 0.551,-1.555 1.703,-1.475 0.079,0.006 0.158,0.02 0.236,0.036 1.186,0.239 2.385,0.188 3.583,0.178 2.753,-0.02 2.948,0.178 2.918,3.021 -0.008,0.718 -0.025,1.44 -0.117,2.151 C 4.713,-8.055 4.256,-5.539 4.145,-2.979 4.116,-2.348 3.946,-1.717 3.789,-1.1 3.61,-0.4 3.115,-0.025 2.396,-0.005 1.598,0.017 0.799,0 0,0 m -10.146,2.584 c 0,1.277 -0.023,2.555 0.007,3.831 0.026,1.069 0.642,1.762 1.554,2.241 0.527,0.279 1.057,0.333 1.614,0.121 0.91,-0.344 1.71,-0.86 2.4,-1.546 0.593,-0.59 1.307,-0.855 2.142,-0.93 1.505,-0.135 2.982,-0.404 4.503,0.059 0.847,0.258 1.461,0.576 1.678,1.468 0.094,0.388 0.201,0.775 0.336,1.15 0.452,1.256 1.341,1.97 2.414,1.964 C 7.538,10.937 8.64,10.148 9.035,9.043 9.222,8.522 9.284,7.956 9.382,7.407 9.482,6.84 9.827,6.591 10.378,6.599 c 0.239,0.003 0.48,0.069 0.716,0.049 1.584,-0.127 2.48,-0.961 2.721,-2.51 C 13.988,3.029 13.483,2.086 12.456,1.602 12.385,1.568 12.303,1.556 12.229,1.524 9.978,0.564 9.904,0.561 10.041,-1.767 c 0.174,-2.944 0.436,-5.886 0.748,-8.82 0.272,-2.548 0.381,-5.094 0.27,-7.65 -0.017,-0.399 -0.025,-0.802 -0.096,-1.193 -0.261,-1.416 -1.16,-2.144 -2.539,-1.877 -1.107,0.215 -2.216,0.266 -3.324,0.391 -2.102,0.236 -4.135,-0.108 -6.161,-0.604 -0.9,-0.219 -1.619,-0.629 -1.975,-1.553 -0.45,-1.171 -1.27,-1.832 -2.583,-1.655 -1.455,0.198 -2.775,1.316 -2.998,2.715 -0.264,1.654 -0.383,3.329 -0.537,4.998 -0.059,0.635 -0.064,1.278 -0.055,1.916 0.063,4.56 -0.411,9.083 -0.834,13.614 -0.126,1.345 -0.02,2.712 -0.02,4.069 z"
             style="fill:#000000;fill-opacity:1;fill-rule:nonzero;stroke:none"
             id="path6710" />
        </g>
        <g
           id="g6712"
           transform="translate(975.0046,96.1647)">
          <path
             d="m 0,0 c 0.115,-2.458 0.259,-5.243 0.373,-8.028 0.053,-1.275 -0.002,-2.555 0.085,-3.826 0.108,-1.588 0.283,-3.173 0.487,-4.753 0.101,-0.785 0.547,-1.106 1.333,-1.043 0.714,0.057 1.427,0.156 2.132,0.288 1.228,0.228 1.672,0.677 1.658,1.937 -0.016,1.59 0.021,3.184 -0.223,4.772 C 5.555,-8.765 5.318,-6.866 5.14,-4.964 4.9,-2.428 4.743,0.116 4.54,2.656 4.515,2.971 4.455,3.29 4.36,3.591 4.182,4.156 3.81,4.552 3.227,4.724 2.61,4.906 1.992,5.021 1.344,4.88 0.518,4.701 0.059,4.281 0.013,3.434 -0.043,2.401 0,1.362 0,0 m -5.93,3.469 c 0,1.518 -0.048,3.04 0.011,4.556 0.096,2.461 1.429,3.599 3.901,3.369 1.113,-0.104 2.215,-0.383 3.327,-0.41 1.689,-0.04 3.342,-0.296 4.993,-0.599 0.621,-0.114 1.26,-0.283 1.818,-0.571 1.132,-0.581 1.782,-1.49 1.892,-2.838 0.442,-5.413 0.878,-10.828 1.457,-16.226 0.264,-2.469 0.503,-4.929 0.494,-7.409 -0.002,-0.799 -0.033,-1.602 -0.114,-2.396 -0.107,-1.038 -0.622,-1.798 -1.664,-2.124 -0.305,-0.094 -0.676,-0.108 -0.905,-0.297 -2.093,-1.726 -4.652,-1.494 -7.09,-1.667 -2.408,-0.169 -4.274,1.1 -5.965,2.643 -0.495,0.451 -0.664,1.069 -0.721,1.729 -0.459,5.333 -1.189,10.644 -1.18,16.015 0.004,2.073 -0.219,4.149 -0.338,6.223 0.029,0 0.057,10e-4 0.084,0.002"
             style="fill:#000000;fill-opacity:1;fill-rule:nonzero;stroke:none"
             id="path6714" />
        </g>
        <g
           id="g6716"
           transform="translate(938.5759,101.3082)">
          <path
             d="m 0,0 c 0,0.015 0,0.03 -0.001,0.045 -0.636,-0.046 -1.275,-0.059 -1.905,-0.147 -0.619,-0.086 -1.012,-0.52 -1.018,-1.138 -0.006,-0.554 0.077,-1.11 0.139,-1.662 0.263,-2.376 0.541,-4.75 0.797,-7.127 0.291,-2.699 0.717,-5.374 1.347,-8.013 0.308,-1.29 1.147,-1.644 2.34,-1.104 0.556,0.25 0.887,0.658 1.015,1.241 0.188,0.859 0.291,1.719 0.212,2.609 -0.106,1.19 -0.174,2.386 -0.194,3.58 C 2.686,-8.925 2.687,-6.133 2.648,-3.342 2.639,-2.627 2.604,-1.904 2.493,-1.199 2.38,-0.479 1.93,-0.096 1.194,-0.009 0.802,0.038 0.398,0 0,0 m 8.506,-3.765 c 0.196,-6.142 0.392,-12.285 0.589,-18.426 0.015,-0.478 0.09,-0.964 0.028,-1.432 -0.166,-1.27 -1.27,-2.166 -2.386,-1.628 -1.986,0.957 -3.891,0.572 -5.834,0.135 -1.68,-0.378 -3.15,0.063 -4.559,0.929 -0.854,0.526 -1.473,1.23 -1.712,2.214 -0.301,1.24 -0.546,2.494 -0.856,3.731 -0.912,3.65 -1.44,7.354 -1.721,11.106 -0.149,1.985 -0.501,3.955 -0.812,5.925 -0.11,0.704 -0.218,1.482 -0.588,2.06 -0.92,1.435 -0.627,2.916 -0.376,4.4 0.231,1.36 1.488,2.172 2.836,1.861 0.454,-0.104 0.972,-0.278 1.282,-0.595 1.018,-1.039 2.284,-1.135 3.558,-0.961 1.977,0.268 3.98,0.117 5.949,0.572 2.197,0.507 4.342,-1.147 4.563,-3.425 0.092,-0.948 0.004,-1.914 0.002,-2.872 -0.002,-1.197 0,-2.395 0,-3.593 0.011,-0.001 0.024,-0.001 0.037,-0.001"
             style="fill:#000000;fill-opacity:1;fill-rule:nonzero;stroke:none"
             id="path6718" />
        </g>
        <g
           id="g6720"
           transform="translate(974.3708,41.6305)">
          <path
             d="m 0,0 c -0.052,-2.646 0.422,-5.251 0.604,-7.878 0.048,-0.712 0.197,-1.424 0.364,-2.121 0.217,-0.907 0.683,-1.255 1.552,-1.071 1.325,0.281 2.636,0.634 3.942,0.997 0.788,0.219 1.178,0.82 1.184,1.612 0.007,1.116 0.016,2.238 -0.093,3.347 C 7.248,-2.031 6.765,1.04 7.086,4.155 7.118,4.466 7.057,4.793 6.993,5.104 6.847,5.826 6.327,6.22 5.603,6.061 4.354,5.787 3.11,5.536 1.836,5.394 0.46,5.24 0.089,4.801 0.012,3.352 -0.047,2.237 0,1.117 0,0 m 13.032,3.099 c 0.058,-1.975 0.077,-4.044 0.276,-6.12 0.289,-3.02 0.371,-6.06 0.479,-9.094 0.057,-1.606 -0.756,-2.513 -2.352,-2.815 -0.47,-0.089 -0.952,-0.204 -1.422,-0.185 -2.198,0.084 -4.231,-0.691 -6.312,-1.186 -1.001,-0.238 -1.957,-0.68 -2.919,-1.064 -1.022,-0.407 -2.014,-0.385 -3.027,0.04 -1.188,0.498 -2.008,1.264 -2.187,2.61 -0.283,2.138 -0.609,4.269 -0.889,6.406 -0.124,0.95 -0.203,1.906 -0.264,2.862 -0.242,3.825 -0.492,7.651 -0.689,11.479 -0.083,1.604 0.204,3.183 0.558,4.747 0.19,0.835 0.65,1.442 1.372,1.874 0.661,0.396 1.338,0.502 2.048,0.136 0.143,-0.073 0.304,-0.126 0.419,-0.23 1.525,-1.377 3.318,-1.394 5.19,-1.046 1.033,0.192 2.059,0.175 3.096,-0.027 0.703,-0.135 1.426,-0.169 2.142,-0.237 0.477,-0.045 0.962,-0.033 1.433,-0.109 1.983,-0.318 2.799,-1.163 2.971,-3.149 0.083,-0.953 0.061,-1.916 0.075,-2.875 0.011,-0.638 0.002,-1.278 0.002,-2.017"
             style="fill:#000000;fill-opacity:1;fill-rule:nonzero;stroke:none"
             id="path6722" />
        </g>
        <g
           id="g6724"
           transform="translate(1033.988,49.8668)">
          <path
             d="m 0,0 c 0,0.718 -0.115,1.458 0.021,2.148 0.417,2.09 0.084,4.132 -0.257,6.175 -0.225,1.343 -0.366,2.69 -0.328,4.048 0.014,0.547 0.094,1.122 0.29,1.629 0.419,1.083 1.653,1.686 2.742,1.31 C 4.076,14.753 5.475,13.832 6.556,12.501 7.232,11.667 7.49,10.638 7.513,9.591 7.558,7.523 7.795,5.447 7.365,3.39 7.316,3.156 7.252,2.913 7.27,2.681 7.48,-0.113 6.387,-2.635 5.627,-5.223 5.143,-6.872 3.866,-7.426 2.265,-6.743 1.163,-6.273 0.458,-5.5 0.214,-4.29 -0.074,-2.867 -0.046,-1.435 0,0"
             style="fill:#000000;fill-opacity:1;fill-rule:nonzero;stroke:none"
             id="path6726" />
        </g>
        <g
           id="g6728"
           transform="translate(1033.4246,24.1422)">
          <path
             d="M 0,0 C 0,1.357 -0.02,2.714 0.005,4.07 0.03,5.414 0.444,6.558 1.663,7.331 2.121,7.622 2.454,8.107 2.853,8.495 4.061,9.674 5.373,9.758 6.714,8.741 7.593,8.074 8.038,7.153 8.182,6.087 8.488,3.793 8.792,1.498 9.053,-0.802 9.207,-2.168 8.885,-3.505 8.636,-4.839 8.578,-5.146 8.518,-5.558 8.305,-5.718 6.901,-6.77 6.565,-8.514 5.562,-9.805 5.045,-10.47 4.186,-10.584 3.355,-10.31 1.997,-9.86 0.942,-9.102 0.585,-7.604 0.288,-6.359 -0.037,-5.123 -0.042,-3.833 -0.046,-2.555 -0.043,-1.277 -0.043,0 Z"
             style="fill:#000000;fill-opacity:1;fill-rule:nonzero;stroke:none"
             id="path6730" />
        </g>
        <g
           id="g6732"
           transform="translate(1026.2205,22.0377)">
          <path
             d="m 0,0 c 0,-1.24 0.005,-2.278 -0.001,-3.315 -0.01,-1.662 -1.221,-2.329 -2.481,-2.892 -1.27,-0.566 -2.505,-0.352 -3.625,0.436 -0.471,0.331 -0.728,0.849 -0.861,1.404 -0.205,0.852 -0.512,1.708 -0.546,2.571 -0.125,3.27 -0.782,6.5 -0.705,9.782 0.01,0.399 -0.023,0.803 0.031,1.196 0.164,1.203 1.092,1.987 2.318,1.969 0.821,-0.011 1.629,-0.22 2.212,-0.783 C -2.743,9.484 -1.896,8.523 -1.085,7.541 -0.62,6.978 -0.521,6.235 -0.422,5.516 -0.162,3.618 0.155,1.726 0,0"
             style="fill:#000000;fill-opacity:1;fill-rule:nonzero;stroke:none"
             id="path6734" />
        </g>
        <g
           id="g6736"
           transform="translate(1023.408,52.153)">
          <path
             d="m 0,0 c 0,-1.599 0.008,-3.196 -0.002,-4.795 -0.007,-1.031 -0.344,-1.876 -1.37,-2.316 -1.054,-0.452 -2.022,-0.296 -2.937,0.365 -0.967,0.699 -1.481,1.611 -1.533,2.832 -0.082,1.913 -0.323,3.821 -0.35,5.733 -0.032,2.254 -0.462,4.442 -0.86,6.638 -0.128,0.71 -0.288,1.406 -0.202,2.134 0.172,1.456 1.146,2.301 2.622,2.169 1.661,-0.148 2.836,-1.013 3.417,-2.597 C -0.494,8.198 -0.103,6.158 0.001,4.074 0.069,2.719 0.014,1.358 0.014,0 Z"
             style="fill:#000000;fill-opacity:1;fill-rule:nonzero;stroke:none"
             id="path6738" />
        </g>
        <g
           id="g6740"
           transform="translate(704.5828,483.1359)">
          <path
             d="m 0,0 c 11.832,-0.454 21.26,5.047 29.546,12.956 2.45,2.338 3.593,5.284 2.433,8.922 -1.162,3.644 0.124,4.751 4.042,4.129 5.255,-0.833 9.526,1.001 12.862,5.076 3.169,3.871 4.62,7.908 2.498,13.004 -2.388,5.737 -5.772,9.669 -12.387,10.161 -1.878,0.14 -4.396,0.464 -5.013,2.638 -0.728,2.569 2.066,2.517 3.463,3.486 0.579,0.401 1.115,0.905 1.564,1.45 5.582,6.789 10.081,14.169 12.078,22.839 0.477,2.07 0.763,4.264 -0.395,6.264 -3.625,6.265 -8.223,11.041 -16.281,10.248 -10.6,-1.044 -21.161,-1.591 -31.293,-5.962 -7.406,-3.195 -13.004,-7.942 -17.751,-14.065 -1.398,-1.802 -2.483,-3.832 0.07,-5.945 1.405,-1.163 1.165,-2.9 -0.396,-4.021 -1.377,-0.991 -2.958,-2.173 -4.386,-0.076 -0.772,1.134 -1.862,1.744 -3.004,2.312 -11.735,5.839 -23.107,4.149 -34.185,-1.833 -2.267,-1.223 -3.968,-3.253 -5.395,-5.419 -1.243,-1.888 -1.661,-3.878 -0.631,-6.063 0.627,-1.33 2.186,-2.727 0.708,-4.235 -1.442,-1.472 -3.274,-1.466 -5.103,-0.41 -0.457,0.264 -1.132,0.378 -1.65,0.275 -9.291,-1.838 -18.501,-4.007 -25.351,-11.22 -4.053,-4.267 -3.366,-9.811 1.287,-13.385 1.962,-1.507 4.191,-2.387 6.626,-2.799 4.818,-0.816 9.632,-1.063 14.467,-0.104 2.208,0.439 3.925,-0.53 5.187,-2.252 1.363,-1.858 -0.111,-3.125 -1.063,-4.531 -2.689,-3.969 -0.965,-8.737 3.809,-10.683 7.642,-3.115 21.404,0.275 26.843,6.612 4.424,5.153 6.209,4.872 8.615,-1.471 2.043,-5.386 4.971,-9.974 10.6,-12.191 C -11.984,1.5 -6.252,-0.163 0,0 m -32.974,12.859 c -8.517,-7.557 -18.407,-9.213 -28.993,-7.677 -7.476,1.084 -12.76,7.605 -12.162,15.022 0.195,2.423 -1.039,2.269 -2.427,2.24 -4.46,-0.094 -8.86,0.336 -13.083,1.765 -5.958,2.016 -10.997,5.402 -12.169,11.99 -1.15,6.462 2.451,11.064 7.292,14.955 6.703,5.388 14.761,7.184 22.819,9.07 1.445,0.338 2.961,0.204 3.461,2.402 2.591,11.397 11.246,16.071 21.557,17.877 7.508,1.316 15.324,2.371 22.719,-1.145 1.689,-0.803 2.195,0.193 2.881,1.43 8.185,14.773 21.886,20.946 37.602,23.655 5.884,1.014 11.901,1.59 17.87,1.718 15.62,0.336 25.538,-14.13 19.925,-28.634 C 52.034,71.622 48.754,66.303 45.005,61.261 43.679,59.478 43.667,58.625 45.874,57.505 53.336,53.719 59.108,43.892 57.987,36.926 56.887,30.093 50.022,21.525 40.322,20.654 38.278,20.471 37.726,19.411 37.57,17.607 37.191,13.22 34.837,9.96 31.603,7.117 16.285,-6.35 -0.871,-8.262 -19.482,-1.132 -26.021,1.374 -29.839,6.656 -32.974,12.859"
             style="fill:#000000;fill-opacity:1;fill-rule:nonzero;stroke:none"
             id="path6742" />
        </g>
        <g
           id="g6744"
           transform="translate(275.1731,541.7291)">
          <path
             d="m 0,0 c 2.503,1.299 5.906,-1.846 8.203,1.558 4.216,6.247 6.561,13.236 7.221,20.864 0.151,1.743 -0.46,3.241 -1.381,4.67 -8.15,12.65 -28.186,11.542 -34.961,-2.016 -2.46,-4.923 -3.862,-10.28 -3.952,-15.843 -0.083,-5.195 0.131,-10.44 4.974,-13.809 1.152,-0.801 1.952,-1.479 3.256,-0.358 C -11.837,-0.802 -6.15,0.186 0,0 m 0.553,-3.332 c -5.546,0.411 -10.484,-0.642 -14.703,-3.953 -2.908,-2.282 -5.879,-4.754 -3.641,-9.558 1.118,-2.399 -0.792,-2.926 -2.507,-2.742 -6.996,0.75 -12.95,-1.966 -18.461,-6.094 -2.435,-1.824 -4.209,-4.273 -3.518,-7.649 0.716,-3.5 3.284,-5.174 6.362,-5.988 3.566,-0.943 7.163,-0.928 10.827,-0.496 3.734,0.439 4.994,-1.498 3.465,-4.833 -1.879,-4.101 -0.395,-7.844 3.929,-8.495 6.604,-0.993 12.944,-0.267 17.887,5.411 3.179,3.652 4.181,3.411 6.071,-1.372 1.304,-3.3 2.879,-6.303 5.927,-8.189 10.825,-6.693 27.208,-3.8 35.21,6.245 1.26,1.581 2.505,3.515 1.868,5.44 -1.599,4.836 0.984,4.319 4.024,4.275 7.41,-0.107 11.962,7.393 9.103,14.522 -1.646,4.108 -4.408,6.335 -8.615,6.753 -1.208,0.12 -2.693,0.437 -3.147,1.851 -0.598,1.866 1.3,1.894 2.143,2.72 4.401,4.305 7.233,9.698 9.1,15.611 C 64.382,8.06 59.608,14.92 51.604,15.076 46.052,15.184 40.537,14.456 35.164,13.102 28.808,11.5 22.875,8.728 18.39,3.454 16.431,1.15 13.199,-0.981 16.159,-4.942 c 0.618,-0.828 0.111,-1.9 -0.783,-2.57 -1.266,-0.95 -2.129,-0.51 -3.297,0.477 -3.432,2.903 -7.278,4.724 -11.526,3.703 m 50.94,22.368 c 1.751,-1.724 4.224,-0.335 6.19,-1.826 7.746,-5.875 10.753,-10.869 6.899,-20.174 -1.658,-4.002 -3.632,-7.794 -6.13,-11.251 -1.234,-1.707 -1.332,-2.663 0.681,-3.783 5.775,-3.208 8.663,-8.848 7.947,-15.262 -0.747,-6.694 -5.557,-10.612 -11.856,-11.978 -1.201,-0.261 -2.034,-0.548 -2.397,-1.91 -3.16,-11.838 -12.518,-15.081 -22.232,-17.192 -6.445,-1.4 -12.894,0.728 -19.098,2.56 -3.463,1.023 -5.165,4.789 -6.971,7.866 -1.281,2.183 -2.029,2.754 -4.192,0.99 -5.041,-4.112 -11.024,-4.766 -17.128,-4.071 -5.376,0.613 -9.055,4.587 -9.676,9.966 -0.12,1.045 0.664,2.415 -0.949,2.931 -1.584,0.507 -2.682,-0.196 -3.73,-1.414 -3.839,-4.459 -7.191,-9.304 -10.336,-14.317 -1.216,-1.939 -2.237,-4.492 -5.074,-2.803 -2.509,1.493 -4.154,3.465 -2.56,6.933 1.371,2.984 2.092,6.317 3.569,9.23 1.89,3.725 3.502,6.669 0.308,11.03 -2.837,3.872 -0.424,9.35 5.186,13.331 2.562,1.817 3.754,3.775 3.412,6.899 1.579,-3.35 3.567,-2.519 5.66,-0.62 1.247,-2.047 2.805,-0.713 4.227,-0.384 1.899,0.439 4.122,0.077 4.871,3 0.718,2.8 -1.04,3.94 -2.541,5.332 -2.658,2.465 -4.818,5.212 -5.738,8.963 -4.791,19.529 5.07,36.416 23.608,40.324 17.64,3.719 30.641,-10.946 25.73,-28.973 -0.269,-0.988 -1.234,-1.969 -0.262,-3.388 2.03,2.248 4.517,3.629 7.227,4.625 2.826,1.038 5.572,2.367 8.451,3.184 1.914,0.543 3.635,1.02 4.496,3.101 4.059,-1.465 8.118,-2.942 12.408,-0.919"
             style="fill:#010101;fill-opacity:1;fill-rule:nonzero;stroke:none"
             id="path6746" />
        </g>
        <g
           id="g6748"
           transform="translate(244.1892,525.9005)">
          <path
             d="m 0,0 c -2.093,-1.899 -4.081,-2.73 -5.66,0.619 -6.562,7.861 -14.904,7.625 -23.546,5.652 -2.819,-0.644 -5.609,-0.952 -8.459,-0.677 -1.933,0.187 -3.31,1.213 -3.525,3.368 -0.196,1.954 0.902,3.041 2.539,3.719 3.084,1.277 6.16,2.579 9.209,3.951 1.594,0.717 3.182,1.492 4.668,2.429 11.808,7.448 13.117,16.952 3.945,27.763 -4.529,5.339 -8.949,10.781 -13.377,16.215 -1.006,1.235 -2.419,2.636 -1.183,4.382 1.459,2.061 3.114,0.656 4.596,-0.226 6.182,-3.683 12.839,-5.494 19.906,-5.672 11.704,-0.293 21.054,6.033 25.88,17.324 1.685,3.944 3.623,7.765 5.406,11.663 0.636,1.39 1.158,2.924 3.048,2.288 1.582,-0.532 2.807,-1.513 2.972,-3.471 0.321,-3.827 0.594,-7.659 0.999,-11.476 1.279,-12.05 9.795,-16.449 19.676,-10.073 4.857,3.135 9.41,6.733 13.426,11.058 1.556,1.676 3.078,4.57 5.798,2.035 2.387,-2.224 0.305,-4.166 -0.88,-6.077 -3.586,-5.781 -6.285,-11.918 -7.041,-18.903 -0.876,-8.092 3.275,-13.266 10.941,-13.136 3.618,0.062 7.225,0.647 10.843,0.912 1.718,0.126 3.476,0.263 5.166,0.016 1.475,-0.215 2.511,-1.368 2.825,-3.002 0.322,-1.681 -0.828,-2.283 -1.952,-3.002 -1.307,-0.835 -2.5,-1.867 -3.743,-2.814 -4.29,-2.023 -8.349,-0.547 -12.408,0.918 -0.594,0.226 -1.172,0.543 -1.783,0.665 -11.543,2.312 -17.185,10.682 -15.509,22.973 0.147,1.08 0.638,2.264 -0.264,3.276 C 34.463,56.379 26.507,59.884 21.016,77.291 12.243,57.337 -2.541,51.931 -22.171,56.75 -9.911,43.038 0.23,29.581 -19.667,14.604 c 2.756,-2.258 5.578,-2.265 7.975,-3.398 C -6.659,8.826 -1.401,6.643 0,0"
             style="fill:#000000;fill-opacity:1;fill-rule:nonzero;stroke:none"
             id="path6750" />
        </g>
        <g
           id="g6752"
           transform="translate(479.367,584.1359)">
          <path
             d="m 0,0 c -13.315,-1.301 -18.907,-4.492 -21.984,-16.806 -0.802,-3.207 -0.543,-4.249 3.109,-3.974 6.908,0.521 13.957,2.098 20.621,-1.483 1.498,-0.804 2.35,0.233 2.91,1.562 1.586,3.762 3.951,6.936 7.216,9.413 0.955,0.725 1.869,1.448 0.899,2.78 C 9.478,-3.991 5.687,-0.241 0,0 m -48.243,4.453 c 0.562,-2.669 2.106,-3.812 3.424,-5.01 3.026,-2.75 5.017,-6.215 6.969,-9.706 2.703,-4.834 2.472,-9.454 -0.838,-14.054 -2.095,-2.912 -4.652,-5.348 -7.325,-7.931 2.585,-1.927 4.395,-2.308 6.435,0.703 2.078,3.067 5.013,5.553 8.43,7.151 1.93,0.903 2.654,2.03 2.805,4.162 0.305,4.292 1.684,8.346 3.215,12.39 4.609,12.17 28.99,18.3 37.557,6.682 1.092,-1.482 2.618,-2.638 3.878,-4.005 0.657,-0.714 1.24,-1.18 2.097,-0.352 0.667,0.644 2.293,0.949 1.716,2.086 C 18.039,0.667 19.207,4.912 19.745,10.356 13.57,5.659 7.744,5.262 1.559,7.56 -4.718,9.893 -8.011,14.535 -9.179,22.2 -17.521,4.389 -30.874,0.002 -48.243,4.453 M 62.735,-75.716 c 4.851,-0.534 9.143,0.432 12.864,3.161 2.69,1.973 5.256,4.182 3.658,8.219 -0.71,1.792 0.359,2.358 1.963,2.191 5.542,-0.577 10.355,1.514 14.976,4.157 3.278,1.874 6.099,4.43 4.841,8.599 -1.25,4.142 -4.976,5.208 -8.901,5.363 -2.575,0.101 -5.164,-0.133 -7.731,0.037 -2.02,0.134 -3.151,0.888 -2.007,3.37 2.037,4.412 0.683,7.28 -4.106,8.028 -5.842,0.912 -11.396,-0.054 -15.772,-4.627 -2.874,-3.003 -3.511,-2.897 -5.208,1.004 -1.34,3.083 -2.957,5.828 -6.136,7.429 -10.437,5.257 -23.263,3.044 -31.205,-5.424 -1.45,-1.546 -2.516,-3.263 -2.039,-5.391 0.629,-2.804 -0.191,-3.29 -3.036,-3.178 -7.361,0.291 -11.832,-6.654 -8.801,-13.2 1.493,-3.228 3.872,-5.186 7.549,-5.556 1.031,-0.104 2.542,-0.334 2.779,-1.644 0.219,-1.204 -1.302,-1.295 -1.973,-1.962 -3.62,-3.597 -6.12,-7.924 -7.838,-12.672 -2.673,-7.387 1.619,-13.749 9.479,-13.993 2.699,-0.083 5.424,0.32 8.122,0.633 8.72,1.012 16.837,3.454 22.844,10.385 1.515,1.75 3.72,3.538 1.537,6.307 -0.677,0.858 -0.361,1.598 0.487,2.15 0.839,0.547 1.511,0.336 2.297,-0.287 3.401,-2.697 7.197,-4.108 11.357,-3.099 m -4.562,-4.502 c 3.47,1.915 7.734,0.136 12.206,2.964 -5.39,-0.677 -9.718,-1.697 -14.007,-0.349 -1.409,-0.201 -2.873,1.905 -4.274,-0.773 -3.084,-5.896 -8.182,-9.528 -14.312,-12.201 -6.898,-3.007 -14.162,-3.461 -21.358,-3.756 -9.358,-0.381 -15.538,8.987 -12.248,17.676 1.269,3.353 2.877,6.564 5.141,9.339 1.908,2.338 1.563,3.384 -1.089,5.056 -8.583,5.412 -8.321,16.409 0.516,20.814 3.543,1.766 5.798,3.565 7.86,7.386 6.118,11.338 28.924,14.261 38.691,5.718 4.907,-4.293 5.572,-3.914 12.301,-2.464 3.963,0.854 5.407,3.073 6.676,6.143 0.546,1.32 1.101,2.641 1.552,3.994 C 79.444,-9.824 72.741,-0.154 61.253,-0.246 48.596,-0.346 36.062,-2 24.677,-7.903 18.869,-10.914 13.825,-15.32 10.431,-21.176 c -0.67,-1.156 -1.759,-2.487 -0.368,-3.889 1.667,-1.68 2.894,-3.337 0.423,-5.338 -2.271,-1.839 -3.824,-0.864 -5.264,1.175 -0.375,0.531 -1.211,0.721 -1.804,1.115 -8.027,5.329 -16.753,3.597 -25.3,2.2 -5.639,-0.921 -10.42,-3.859 -13.981,-8.502 -1.674,-2.181 -2.486,-4.477 -1.152,-7.159 0.663,-1.332 2.119,-2.739 0.462,-4.199 -1.394,-1.23 -3.071,-1.285 -4.786,-0.357 -0.587,0.317 -1.415,0.492 -2.056,0.36 -9.013,-1.853 -17.967,-3.967 -24.784,-10.774 -4.636,-4.63 -3.95,-10.517 1.41,-14.272 1.912,-1.339 4.04,-2.083 6.335,-2.462 4.696,-0.775 9.383,-1.035 14.089,-0.088 2.393,0.482 4.25,-0.505 5.532,-2.434 1.114,-1.678 -0.193,-2.899 -1.08,-4.202 -2.832,-4.164 -1.058,-9.073 3.915,-10.971 7.883,-3.008 21.338,0.461 26.862,6.927 4.209,4.926 6.225,4.647 8.403,-1.502 2.534,-7.153 7.258,-11.528 14.561,-13.859 16.173,-5.163 30.112,-1.546 42.447,9.668 2.827,2.57 4.323,5.639 3.878,9.521 m -65.656,-8.249 c -8.061,-7.777 -17.835,-8.86 -28.081,-7.989 -7.639,0.65 -13.489,7.207 -12.915,14.78 0.219,2.876 -1.43,2.693 -3.05,2.736 -4.013,0.106 -8.016,0.264 -11.87,1.482 -1.758,0.556 -3.527,1.22 -5.118,2.135 -9.672,5.561 -10.679,15.45 -2.581,23.102 6.992,6.607 15.851,8.743 24.773,10.81 1.345,0.312 3.487,-0.019 3.366,1.781 -0.137,2.03 -2.409,1.679 -3.815,1.536 -4.545,-0.465 -9.054,-1.284 -13.599,-1.74 -2.115,-0.213 -4.589,-0.237 -5.255,2.514 -0.722,2.982 1.851,3.459 3.782,4.241 5.959,2.412 12.115,4.403 16.578,9.49 4.616,5.261 5.004,7.803 1.538,13.81 -3.971,6.88 -10.181,11.942 -14.893,18.223 -0.515,0.687 -1.13,1.303 -1.606,2.014 -0.673,1.01 -1.058,2.1 0.042,3.082 1.078,0.962 2.213,0.444 3.171,-0.158 3.567,-2.245 7.497,-3.493 11.557,-4.433 14.711,-3.406 25.614,2.201 31.46,16.072 1.105,2.624 2.585,5.09 3.891,7.629 0.637,1.241 1.004,2.904 3.006,2.225 1.629,-0.552 2.549,-1.641 2.661,-3.481 0.189,-3.143 0.48,-6.282 0.842,-9.41 1.169,-10.091 8.797,-13.893 17.556,-8.649 4.796,2.872 9.263,6.219 13.094,10.358 1.155,1.248 2.496,2.714 4.384,1.197 2.018,-1.622 0.931,-3.245 -0.202,-4.854 C 27.553,14.81 25.009,9.127 24.358,2.691 23.887,-1.97 24.562,-2.523 28.757,-0.814 40.375,3.919 52.592,5.175 64.882,4.124 75.853,3.185 84.12,-9.989 81.15,-20.48 c -0.425,-1.506 -0.845,-3.069 -1.608,-4.412 -1.649,-2.902 -2.506,-4.89 2.017,-6.187 2.805,-0.805 5.115,-3.74 4.887,-6.956 -0.223,-3.167 1.279,-3.295 3.49,-3.248 3.803,0.081 7.408,-0.67 10.523,-2.936 4.706,-3.423 5.142,-8.609 1.193,-12.914 -4.085,-4.453 -9.58,-6.1 -15.178,-7.306 -2.089,-0.45 -3.069,-1.21 -3.858,-3.21 -2.895,-7.332 -8.37,-11.875 -16.148,-13.148 -2.416,-0.396 -3.005,-1.329 -3.278,-3.464 -0.53,-4.15 -2.746,-7.378 -5.894,-10.128 -15.506,-13.544 -32.8,-15.514 -51.552,-8.077 -6.371,2.526 -9.945,7.89 -13.227,13.999"
             style="fill:#000000;fill-opacity:1;fill-rule:nonzero;stroke:none"
             id="path6754" />
        </g>
        <g
           id="g6756"
           transform="translate(542.1023,508.42)">
          <path
             d="m 0,0 c -4.16,-1.009 -7.956,0.401 -11.357,3.099 -0.787,0.623 -1.458,0.834 -2.297,0.287 -0.848,-0.553 -1.164,-1.292 -0.488,-2.151 2.184,-2.768 -0.021,-4.556 -1.537,-6.306 -6.007,-6.931 -14.124,-9.373 -22.843,-10.385 -2.699,-0.314 -5.423,-0.716 -8.123,-0.633 -7.859,0.244 -12.151,6.606 -9.478,13.993 1.718,4.748 4.218,9.075 7.838,12.672 0.671,0.667 2.191,0.757 1.973,1.962 -0.238,1.31 -1.749,1.54 -2.78,1.644 -3.677,0.37 -6.055,2.328 -7.549,5.556 -3.03,6.546 1.441,13.491 8.801,13.2 2.846,-0.112 3.665,0.374 3.036,3.178 -0.476,2.128 0.59,3.845 2.039,5.39 7.943,8.469 20.769,10.682 31.205,5.425 3.18,-1.601 4.796,-4.346 6.137,-7.43 1.696,-3.9 2.334,-4.006 5.208,-1.003 4.376,4.573 9.93,5.539 15.772,4.627 4.789,-0.748 6.142,-3.616 4.106,-8.028 -1.144,-2.482 -0.014,-3.237 2.007,-3.37 2.566,-0.17 5.156,0.064 7.73,-0.038 3.925,-0.154 7.652,-1.22 8.902,-5.362 C 39.56,22.158 36.738,19.602 33.461,17.728 28.84,15.085 24.026,12.994 18.484,13.571 16.881,13.738 15.812,13.171 16.521,11.38 18.12,7.343 15.554,5.134 12.863,3.161 9.143,0.432 4.851,-0.534 0,0"
             style="fill:#9a9a9a;fill-opacity:1;fill-rule:nonzero;stroke:none"
             id="path6758" />
        </g>
        <g
           id="g6760"
           transform="translate(22.5354,583.0123)">
          <path
             d="M 0,0 C 1.992,-4.164 4.516,-5.887 6.508,-8.035 16.236,-18.52 17.048,-26.624 9.689,-36.344 7.813,-38.822 3.182,-40.43 4,-43.096 c 0.752,-2.446 5.53,-2.155 8.445,-3.333 9.202,-3.717 12.126,-8.238 11.312,-17.919 -0.3,-3.565 -0.756,-7.117 -1.233,-11.521 13.585,13.618 25.424,9.95 36.248,-3.571 3.322,18.377 3.322,18.377 30.772,20.862 -10.711,15.014 -2.308,26.08 7.805,36.719 C 80.612,-15.68 79.815,-14.48 79.03,6.261 72.536,1.218 65.768,0.77 58.58,3.417 51.224,6.126 47.31,11.473 46.006,20.5 36.339,-0.083 20.906,-5.4 0,0 m 99.127,-14.786 c 3.793,0.476 7.578,1.038 11.382,1.399 2.418,0.229 4.848,-0.14 5.809,-2.803 1.007,-2.789 -1.685,-3.3 -3.215,-4.24 -5.366,-3.291 -11.103,-5.968 -15.303,-10.964 -2.825,-3.36 -5.134,-6.867 -6.511,-11.083 -1.549,-4.744 -0.707,-8.874 2.407,-12.596 3.418,-4.085 7.003,-8.031 10.378,-12.149 1.167,-1.424 3.495,-3.131 1.662,-5.057 -1.738,-1.826 -3.552,0.072 -5.195,1.246 -8.003,5.718 -16.762,7.804 -26.458,5.397 -5.077,-1.26 -7.545,-4.447 -7.703,-9.628 -0.219,-7.26 1.046,-14.191 3.766,-20.958 0.854,-2.125 3.267,-5.546 -0.538,-6.822 -3.078,-1.034 -4.269,2.149 -5.256,4.759 -3.254,8.603 -9.395,15.279 -15.643,21.638 -4.883,4.971 -11.971,4.533 -16.963,-0.524 -7.137,-7.231 -13.423,-15.219 -19.113,-23.653 -1.383,-2.051 -2.445,-4.808 -5.709,-2.866 -2.717,1.617 -3.522,3.627 -2.436,7.065 2.633,8.333 7.558,15.535 10.859,23.526 2.057,4.98 2.02,10.061 2.164,15.196 0.079,2.815 -2.236,3.913 -4.206,5.098 -6.619,3.981 -13.685,3.459 -20.791,1.799 -2.965,-0.693 -5.926,-0.912 -8.921,-0.565 -1.813,0.21 -3.113,1.224 -3.38,3.131 -0.272,1.933 0.733,3.125 2.485,3.812 2.322,0.911 4.644,1.824 6.938,2.802 2.292,0.977 4.629,1.891 6.81,3.082 13.552,7.397 15.105,17.595 4.623,28.837 -4.532,4.861 -8.799,9.972 -13.103,15.042 -1.213,1.428 -3.337,2.983 -1.416,5.1 1.652,1.821 3.368,0.177 4.91,-0.668 6.556,-3.593 13.585,-5.22 21.031,-5.5 12.747,-0.48 20.953,6.12 26.599,16.77 2.021,3.811 3.787,7.756 5.726,11.612 0.704,1.398 1.017,3.477 3.378,2.83 2.166,-0.593 3.149,-2.073 3.325,-4.392 0.338,-4.476 0.638,-8.99 1.488,-13.385 1.599,-8.277 9.322,-12.296 17.033,-8.796 6.26,2.84 11.554,7.208 16.538,11.914 0.725,0.685 1.337,1.493 2.078,2.158 1.426,1.277 2.942,2.399 4.784,0.669 1.723,-1.618 1.162,-3.265 -0.038,-4.884 C 89.484,13.276 86.916,7.396 85.39,0.996 83.342,-7.592 87.568,-16.347 99.127,-14.786"
             style="fill:#000000;fill-opacity:1;fill-rule:nonzero;stroke:none"
             id="path6762" />
        </g>
        <g
           id="g6764"
           transform="translate(52.5032,549.7135)">
          <path
             d="m 0,0 c 0.454,-4.083 0.589,-7.958 3.745,-11.512 5.24,-5.9 20.436,-5.257 25.936,-0.472 6.086,5.293 9.511,11.854 11.646,19.343 3.285,11.527 -6.036,22 -18.061,20.321 C 7.585,25.49 -0.463,15.915 0,0 M 17.011,-22.001 C 3.081,-23.476 -8.3,-10.848 -6.449,4.539 -4.251,22.801 4.602,31.989 22.87,33.783 38.759,35.343 51.287,20.388 46.571,5.223 44.755,-0.615 42.707,-6.482 39.9,-11.887 c -3.629,-6.99 -10.576,-9.161 -17.909,-10.078 -1.636,-0.205 -3.319,-0.031 -4.98,-0.036"
             style="fill:#010101;fill-opacity:1;fill-rule:nonzero;stroke:none"
             id="path6766" />
        </g>
        <g
           id="g6768"
           transform="translate(59.2859,302.9879)">
          <path
             d="m 0,0 c -1.488,-1.758 -3.023,-3.477 -4.454,-5.279 -3.998,-5.038 -8.192,-9.969 -10.324,-16.185 -0.52,-1.515 -0.907,-3.177 0.796,-4.354 1.484,-1.027 2.885,-0.332 4.079,0.469 1.317,0.886 2.49,2.016 3.621,3.144 C -0.202,-16.142 0.502,-8.331 0,0 m -10.671,-31.73 c -7.091,-0.121 -11.494,5.674 -9.566,11.954 1.843,6.008 5.405,11.065 9.352,15.817 3.75,4.515 7.697,8.872 11.718,13.149 1.364,1.452 3.12,3.001 5.423,1.739 C 8.639,9.621 7.746,7.581 7.424,5.499 6.596,0.143 5.993,-5.251 5.425,-10.644 4.549,-18.971 0.076,-25.066 -6.344,-29.989 c -1.428,-1.096 -3.076,-1.689 -4.327,-1.741"
             style="fill:#010101;fill-opacity:1;fill-rule:nonzero;stroke:none"
             id="path6770" />
        </g>
        <g
           id="g6772"
           transform="translate(90.1023,323.401)">
          <path
             d="m 0,0 c 10.449,-0.401 18.775,4.458 26.094,11.442 2.163,2.065 3.173,4.667 2.149,7.88 -1.026,3.219 0.109,4.196 3.569,3.647 4.642,-0.737 8.414,0.884 11.359,4.482 2.799,3.419 4.081,6.984 2.206,11.485 -2.108,5.066 -5.096,8.539 -10.939,8.974 -1.659,0.123 -3.883,0.41 -4.427,2.329 -0.643,2.269 1.824,2.223 3.058,3.078 0.512,0.355 0.985,0.8 1.381,1.282 4.929,5.995 8.904,12.513 10.667,20.17 0.421,1.828 0.673,3.766 -0.349,5.532 -3.201,5.533 -7.262,9.751 -14.379,9.05 C 21.028,88.43 11.701,87.946 2.753,84.086 -3.788,81.265 -8.731,77.072 -12.924,71.665 c -1.235,-1.592 -2.194,-3.385 0.061,-5.251 1.241,-1.027 1.029,-2.561 -0.349,-3.551 -1.216,-0.875 -2.612,-1.919 -3.873,-0.066 -0.682,1.001 -1.645,1.539 -2.653,2.041 -10.365,5.157 -20.408,3.664 -30.191,-1.618 -2.002,-1.081 -3.505,-2.874 -4.764,-4.787 -1.099,-1.667 -1.468,-3.425 -0.557,-5.354 0.553,-1.174 1.929,-2.409 0.625,-3.74 -1.274,-1.301 -2.892,-1.295 -4.507,-0.363 -0.404,0.233 -1,0.335 -1.458,0.244 -8.205,-1.624 -16.339,-3.54 -22.389,-9.909 -3.579,-3.769 -2.972,-8.665 1.138,-11.822 1.732,-1.33 3.701,-2.108 5.851,-2.472 4.256,-0.72 8.506,-0.938 12.777,-0.091 1.95,0.387 3.465,-0.468 4.581,-1.99 1.203,-1.641 -0.099,-2.76 -0.939,-4 -2.375,-3.506 -0.853,-7.717 3.364,-9.436 6.749,-2.751 18.903,0.243 23.707,5.839 3.906,4.552 5.483,4.303 7.608,-1.298 1.804,-4.757 4.39,-8.81 9.361,-10.768 C -10.583,1.325 -5.521,-0.144 0,0 m -29.121,11.356 c -7.523,-6.673 -16.256,-8.136 -25.605,-6.78 -6.603,0.958 -11.269,6.717 -10.741,13.268 0.173,2.139 -0.918,2.003 -2.143,1.977 -3.94,-0.082 -7.826,0.298 -11.555,1.559 -5.262,1.781 -9.712,4.771 -10.747,10.589 -1.015,5.707 2.164,9.771 6.44,13.208 5.92,4.759 13.036,6.344 20.152,8.01 1.277,0.298 2.615,0.18 3.057,2.122 2.289,10.066 9.931,14.192 19.038,15.788 6.631,1.162 13.533,2.094 20.065,-1.011 1.492,-0.71 1.939,0.17 2.544,1.263 7.229,13.046 19.328,18.498 33.209,20.891 5.197,0.895 10.51,1.404 15.782,1.517 C 44.169,94.054 52.928,81.278 47.972,68.469 45.954,63.253 43.058,58.556 39.746,54.104 38.575,52.529 38.565,51.775 40.514,50.786 47.104,47.442 52.202,38.763 51.211,32.611 50.24,26.577 44.178,19.01 35.611,18.241 33.806,18.079 33.318,17.143 33.18,15.55 32.846,11.676 30.766,8.796 27.91,6.285 14.383,-5.608 -0.769,-7.297 -17.206,-0.999 -22.98,1.213 -26.353,5.879 -29.121,11.356"
             style="fill:#000000;fill-opacity:1;fill-rule:nonzero;stroke:none"
             id="path6774" />
        </g>
        <g
           id="g6776"
           transform="translate(292.5877,323.9489)">
          <path
             d="m 0,0 c 10.406,-0.399 18.697,4.439 25.985,11.395 2.155,2.056 3.161,4.647 2.14,7.847 -1.021,3.205 0.109,4.178 3.555,3.631 4.622,-0.733 8.378,0.88 11.312,4.464 2.787,3.405 4.063,6.955 2.197,11.437 -2.101,5.045 -5.076,8.504 -10.895,8.937 -1.651,0.122 -3.866,0.408 -4.408,2.32 -0.64,2.259 1.817,2.213 3.046,3.065 0.509,0.353 0.98,0.797 1.375,1.276 4.909,5.97 8.866,12.461 10.622,20.086 0.419,1.821 0.671,3.75 -0.347,5.51 -3.187,5.51 -7.232,9.71 -14.319,9.012 C 20.94,88.063 11.652,87.581 2.741,83.737 -3.772,80.927 -8.695,76.752 -12.871,71.368 c -1.229,-1.586 -2.184,-3.371 0.061,-5.23 1.236,-1.022 1.025,-2.55 -0.347,-3.536 -1.211,-0.871 -2.601,-1.911 -3.858,-0.066 -0.678,0.997 -1.637,1.533 -2.641,2.033 -10.322,5.135 -20.323,3.648 -30.066,-1.612 -1.993,-1.076 -3.49,-2.862 -4.744,-4.767 -1.094,-1.66 -1.462,-3.41 -0.555,-5.332 0.551,-1.169 1.921,-2.398 0.623,-3.724 -1.269,-1.296 -2.881,-1.29 -4.489,-0.362 -0.402,0.233 -0.996,0.333 -1.451,0.243 -8.172,-1.617 -16.272,-3.525 -22.296,-9.868 -3.565,-3.753 -2.961,-8.628 1.132,-11.772 1.725,-1.325 3.686,-2.1 5.827,-2.462 4.238,-0.717 8.471,-0.934 12.724,-0.091 1.942,0.386 3.451,-0.466 4.562,-1.981 1.199,-1.634 -0.098,-2.749 -0.935,-3.985 -2.364,-3.49 -0.849,-7.684 3.35,-9.396 6.721,-2.739 18.825,0.243 23.608,5.815 3.89,4.533 5.461,4.286 7.577,-1.293 C -22.992,9.246 -20.417,5.21 -15.466,3.26 -10.54,1.319 -5.499,-0.144 0,0 m -29,11.309 c -7.492,-6.646 -16.189,-8.102 -25.499,-6.751 -6.576,0.953 -11.222,6.688 -10.696,13.212 0.172,2.13 -0.914,1.995 -2.135,1.969 -3.922,-0.082 -7.793,0.296 -11.506,1.553 -5.24,1.772 -9.672,4.75 -10.703,10.544 -1.011,5.684 2.155,9.731 6.414,13.154 5.895,4.739 12.981,6.317 20.068,7.976 1.271,0.297 2.604,0.18 3.044,2.113 2.279,10.024 9.89,14.134 18.959,15.723 6.604,1.157 13.477,2.085 19.981,-1.007 1.486,-0.707 1.931,0.169 2.534,1.257 7.199,12.992 19.248,18.422 33.071,20.804 5.175,0.893 10.466,1.399 15.716,1.512 C 43.985,93.663 52.708,80.94 47.772,68.185 45.763,62.991 42.879,58.313 39.581,53.879 38.415,52.311 38.405,51.56 40.346,50.575 46.908,47.246 51.985,38.602 50.999,32.476 50.031,26.466 43.994,18.931 35.463,18.165 33.665,18.004 33.179,17.072 33.042,15.485 32.709,11.627 30.638,8.76 27.794,6.259 14.323,-5.585 -0.766,-7.267 -17.134,-0.995 -22.885,1.208 -26.243,5.854 -29,11.309"
             style="fill:#000000;fill-opacity:1;fill-rule:nonzero;stroke:none"
             id="path6778" />
        </g>
        <g
           id="g6780"
           transform="translate(285.388,303.0953)">
          <path
             d="m 0,0 c -1.481,-1.75 -3.011,-3.462 -4.435,-5.257 -3.982,-5.017 -8.158,-9.927 -10.282,-16.118 -0.517,-1.508 -0.903,-3.163 0.793,-4.336 1.478,-1.021 2.873,-0.33 4.062,0.469 1.312,0.881 2.48,2.006 3.606,3.13 C -0.201,-16.074 0.5,-8.297 0,0 m -10.627,-31.599 c -7.061,-0.12 -11.445,5.652 -9.526,11.906 1.836,5.982 5.383,11.018 9.313,15.751 3.734,4.496 7.666,8.836 11.669,13.094 1.359,1.447 3.108,2.989 5.401,1.731 C 8.604,9.582 7.713,7.55 7.393,5.477 6.568,0.143 5.968,-5.229 5.403,-10.599 4.53,-18.892 0.075,-24.962 -6.317,-29.864 c -1.423,-1.091 -3.064,-1.682 -4.31,-1.735"
             style="fill:#010101;fill-opacity:1;fill-rule:nonzero;stroke:none"
             id="path6782" />
        </g>
        <g
           id="g6784"
           transform="translate(244.6033,311.2614)">
          <path
             d="m 0,0 c -1.481,-1.75 -3.011,-3.462 -4.436,-5.257 -3.981,-5.017 -8.158,-9.927 -10.281,-16.117 -0.518,-1.509 -0.903,-3.164 0.793,-4.337 1.478,-1.021 2.873,-0.33 4.062,0.469 1.312,0.881 2.479,2.006 3.606,3.13 C -0.201,-16.073 0.5,-8.296 0,0 m -10.627,-31.598 c -7.061,-0.12 -11.446,5.651 -9.526,11.905 1.836,5.983 5.382,11.018 9.313,15.751 3.734,4.496 7.665,8.836 11.669,13.094 1.359,1.447 3.108,2.989 5.401,1.732 C 8.603,9.582 7.713,7.55 7.393,5.477 6.568,0.143 5.968,-5.229 5.403,-10.599 4.53,-18.891 0.075,-24.962 -6.318,-29.864 c -1.422,-1.091 -3.063,-1.682 -4.309,-1.734"
             style="fill:#010101;fill-opacity:1;fill-rule:nonzero;stroke:none"
             id="path6786" />
        </g>
        <g
           id="g6788"
           transform="translate(495.8963,312.6598)">
          <path
             d="m 0,0 c -1.357,-1.604 -2.76,-3.174 -4.065,-4.819 -3.65,-4.6 -7.479,-9.1 -9.425,-14.775 -0.475,-1.382 -0.828,-2.899 0.727,-3.974 1.354,-0.937 2.633,-0.303 3.723,0.428 1.202,0.809 2.272,1.84 3.306,2.869 C -0.185,-14.734 0.459,-7.605 0,0 m -9.741,-28.965 c -6.473,-0.11 -10.491,5.18 -8.733,10.912 1.683,5.485 4.935,10.101 8.537,14.439 C -6.514,0.507 -2.91,4.485 0.76,8.39 2.006,9.715 3.608,11.129 5.711,9.976 7.887,8.783 7.071,6.92 6.777,5.021 6.021,0.131 5.471,-4.794 4.953,-9.716 4.152,-17.317 0.069,-22.883 -5.791,-27.376 c -1.304,-1 -2.809,-1.541 -3.95,-1.589"
             style="fill:#010101;fill-opacity:1;fill-rule:nonzero;stroke:none"
             id="path6790" />
        </g>
        <g
           id="g6792"
           transform="translate(438.159,315.403)">
          <path
             d="m 0,0 c -1.358,-1.604 -2.76,-3.174 -4.066,-4.819 -3.649,-4.6 -7.478,-9.1 -9.425,-14.775 -0.474,-1.383 -0.827,-2.9 0.727,-3.975 1.355,-0.937 2.634,-0.303 3.723,0.429 1.203,0.808 2.273,1.839 3.306,2.869 C -0.185,-14.735 0.458,-7.605 0,0 m -9.742,-28.966 c -6.472,-0.11 -10.491,5.18 -8.732,10.912 1.683,5.486 4.934,10.102 8.537,14.44 C -6.514,0.507 -2.91,4.484 0.76,8.389 2.006,9.714 3.608,11.128 5.711,9.976 7.886,8.782 7.07,6.92 6.776,5.02 6.021,0.13 5.471,-4.794 4.952,-9.717 c -0.8,-7.6 -4.884,-13.166 -10.743,-17.659 -1.304,-1 -2.809,-1.542 -3.951,-1.59"
             style="fill:#010101;fill-opacity:1;fill-rule:nonzero;stroke:none"
             id="path6794" />
        </g>
        <g
           id="g6796"
           transform="translate(485.5603,331.7306)">
          <path
             d="m 0,0 c 9.539,-0.367 17.14,4.069 23.82,10.445 1.975,1.885 2.897,4.26 1.961,7.193 -0.936,2.938 0.1,3.83 3.259,3.329 4.237,-0.673 7.68,0.806 10.369,4.092 2.555,3.121 3.725,6.375 2.015,10.483 -1.926,4.625 -4.654,7.795 -9.988,8.192 -1.513,0.113 -3.543,0.374 -4.041,2.127 -0.586,2.071 1.666,2.029 2.792,2.81 0.468,0.324 0.899,0.73 1.261,1.17 4.5,5.472 8.127,11.422 9.737,18.412 0.384,1.669 0.615,3.437 -0.318,5.05 -2.922,5.051 -6.63,8.901 -13.126,8.261 C 19.195,80.724 10.682,80.282 2.513,76.758 -3.458,74.183 -7.97,70.355 -11.798,65.419 c -1.127,-1.452 -2.002,-3.089 0.056,-4.793 1.133,-0.938 0.939,-2.337 -0.319,-3.242 -1.11,-0.798 -2.384,-1.751 -3.536,-0.06 -0.622,0.914 -1.501,1.405 -2.422,1.864 -9.46,4.707 -18.628,3.344 -27.559,-1.478 -1.827,-0.987 -3.199,-2.623 -4.349,-4.369 -1.003,-1.522 -1.34,-3.127 -0.509,-4.888 0.505,-1.072 1.762,-2.199 0.571,-3.414 -1.163,-1.187 -2.64,-1.183 -4.114,-0.331 -0.369,0.212 -0.913,0.305 -1.331,0.222 -7.49,-1.482 -14.916,-3.231 -20.438,-9.046 -3.267,-3.44 -2.713,-7.909 1.039,-10.791 1.581,-1.215 3.378,-1.925 5.341,-2.257 3.885,-0.657 7.765,-0.856 11.663,-0.083 1.781,0.353 3.164,-0.427 4.183,-1.816 1.098,-1.498 -0.091,-2.52 -0.858,-3.652 -2.167,-3.201 -0.778,-7.044 3.071,-8.613 6.161,-2.511 17.255,0.222 21.641,5.33 3.565,4.155 5.005,3.928 6.945,-1.186 1.647,-4.341 4.007,-8.041 8.546,-9.828 C -9.661,1.209 -5.04,-0.132 0,0 m -26.583,10.366 c -6.867,-6.092 -14.84,-7.427 -23.374,-6.189 -6.027,0.875 -10.287,6.132 -9.805,12.111 0.158,1.953 -0.838,1.829 -1.957,1.806 -3.595,-0.076 -7.143,0.271 -10.547,1.423 -4.803,1.625 -8.866,4.355 -9.811,9.666 -0.926,5.21 1.975,8.92 5.879,12.057 5.405,4.344 11.9,5.791 18.396,7.311 1.166,0.273 2.387,0.165 2.79,1.938 2.09,9.188 9.067,12.955 17.38,14.412 6.053,1.061 12.354,1.911 18.316,-0.923 1.362,-0.647 1.77,0.155 2.323,1.152 6.598,11.91 17.643,16.887 30.314,19.071 4.744,0.818 9.594,1.282 14.407,1.385 C 40.32,85.857 48.315,74.195 43.792,62.502 41.949,57.741 39.306,53.453 36.283,49.388 35.214,47.951 35.205,47.263 36.984,46.36 42.999,43.308 47.653,35.385 46.749,29.769 45.862,24.26 40.328,17.353 32.508,16.651 30.86,16.503 30.414,15.649 30.289,14.194 29.983,10.658 28.085,8.029 25.479,5.737 13.13,-5.12 -0.702,-6.662 -15.706,-0.913 c -5.272,2.02 -8.35,6.279 -10.877,11.279"
             style="fill:#000000;fill-opacity:1;fill-rule:nonzero;stroke:none"
             id="path6798" />
        </g>
        <g
           id="g6800"
           transform="translate(459.074,300.3854)">
          <path
             d="m 0,0 c -1.357,-1.604 -2.76,-3.173 -4.065,-4.818 -3.65,-4.6 -7.479,-9.101 -9.425,-14.775 -0.475,-1.383 -0.828,-2.9 0.727,-3.975 1.355,-0.937 2.633,-0.303 3.723,0.429 1.203,0.808 2.273,1.839 3.306,2.869 C -0.184,-14.734 0.459,-7.604 0,0 m -9.741,-28.965 c -6.473,-0.11 -10.491,5.18 -8.733,10.912 1.684,5.486 4.935,10.102 8.538,14.44 C -6.514,0.508 -2.909,4.485 0.76,8.39 2.006,9.715 3.609,11.129 5.711,9.977 7.887,8.783 7.071,6.921 6.777,5.021 6.021,0.131 5.471,-4.793 4.953,-9.716 c -0.8,-7.6 -4.884,-13.166 -10.744,-17.66 -1.304,-0.999 -2.809,-1.541 -3.95,-1.589"
             style="fill:#010101;fill-opacity:1;fill-rule:nonzero;stroke:none"
             id="path6802" />
        </g>
        <g
           id="g6804"
           transform="translate(699.8972,317.6598)">
          <path
             d="m 0,0 c -1.358,-1.604 -2.76,-3.174 -4.065,-4.819 -3.65,-4.6 -7.479,-9.1 -9.425,-14.775 -0.475,-1.382 -0.828,-2.899 0.726,-3.974 1.355,-0.937 2.634,-0.303 3.724,0.428 1.202,0.809 2.272,1.84 3.306,2.869 C -0.185,-14.734 0.459,-7.605 0,0 m -9.741,-28.965 c -6.473,-0.11 -10.492,5.18 -8.733,10.912 1.683,5.485 4.935,10.101 8.537,14.439 C -6.514,0.507 -2.91,4.485 0.76,8.39 2.006,9.715 3.608,11.129 5.711,9.976 7.887,8.783 7.07,6.92 6.777,5.02 6.021,0.131 5.471,-4.794 4.952,-9.716 c -0.8,-7.601 -4.883,-13.167 -10.743,-17.66 -1.304,-1 -2.809,-1.541 -3.95,-1.589"
             style="fill:#010101;fill-opacity:1;fill-rule:nonzero;stroke:none"
             id="path6806" />
        </g>
        <g
           id="g6808"
           transform="translate(630.1599,324.402)">
          <path
             d="m 0,0 c -1.358,-1.604 -2.761,-3.173 -4.066,-4.818 -3.65,-4.6 -7.478,-9.1 -9.425,-14.775 -0.475,-1.383 -0.827,-2.9 0.727,-3.975 1.355,-0.937 2.633,-0.303 3.723,0.429 1.203,0.808 2.273,1.839 3.306,2.869 C -0.185,-14.734 0.458,-7.604 0,0 m -9.742,-28.965 c -6.473,-0.11 -10.491,5.18 -8.733,10.912 1.684,5.486 4.935,10.102 8.538,14.44 C -6.514,0.508 -2.91,4.485 0.76,8.39 2.005,9.715 3.608,11.129 5.71,9.977 7.886,8.783 7.07,6.921 6.776,5.021 6.021,0.131 5.47,-4.793 4.952,-9.716 c -0.8,-7.6 -4.884,-13.166 -10.743,-17.659 -1.305,-1 -2.809,-1.542 -3.951,-1.59"
             style="fill:#010101;fill-opacity:1;fill-rule:nonzero;stroke:none"
             id="path6810" />
        </g>
        <g
           id="g6812"
           transform="translate(663.075,300.3854)">
          <path
             d="m 0,0 c -1.357,-1.604 -2.76,-3.173 -4.065,-4.818 -3.65,-4.6 -7.479,-9.101 -9.425,-14.776 -0.475,-1.382 -0.828,-2.899 0.727,-3.974 1.354,-0.937 2.633,-0.303 3.723,0.429 1.202,0.808 2.273,1.839 3.306,2.869 C -0.185,-14.734 0.459,-7.604 0,0 m -9.741,-28.965 c -6.473,-0.11 -10.491,5.18 -8.733,10.912 1.683,5.486 4.935,10.102 8.537,14.44 C -6.514,0.508 -2.909,4.485 0.76,8.39 2.006,9.715 3.609,11.129 5.711,9.977 7.887,8.783 7.071,6.921 6.777,5.021 6.021,0.131 5.471,-4.793 4.953,-9.716 c -0.801,-7.6 -4.884,-13.166 -10.744,-17.66 -1.304,-1 -2.809,-1.541 -3.95,-1.589"
             style="fill:#010101;fill-opacity:1;fill-rule:nonzero;stroke:none"
             id="path6814" />
        </g>
        <g
           id="g6816"
           transform="translate(687.5623,331.7306)">
          <path
             d="m 0,0 c 9.539,-0.366 17.14,4.069 23.82,10.445 1.975,1.885 2.897,4.26 1.961,7.193 -0.936,2.938 0.1,3.83 3.258,3.329 4.237,-0.672 7.681,0.807 10.37,4.092 2.555,3.121 3.725,6.375 2.014,10.484 -1.925,4.624 -4.652,7.794 -9.986,8.191 -1.514,0.113 -3.545,0.375 -4.041,2.127 -0.587,2.071 1.665,2.029 2.791,2.81 0.467,0.324 0.899,0.73 1.26,1.17 4.501,5.472 8.128,11.422 9.738,18.412 0.384,1.669 0.615,3.438 -0.318,5.05 -2.922,5.051 -6.63,8.901 -13.126,8.262 C 19.195,80.724 10.682,80.282 2.513,76.758 -3.458,74.183 -7.971,70.355 -11.798,65.42 c -1.127,-1.453 -2.002,-3.09 0.056,-4.794 1.133,-0.937 0.939,-2.337 -0.319,-3.241 -1.11,-0.799 -2.384,-1.752 -3.536,-0.061 -0.622,0.914 -1.501,1.406 -2.422,1.864 -9.46,4.707 -18.628,3.344 -27.559,-1.478 -1.827,-0.986 -3.199,-2.623 -4.35,-4.369 -1.002,-1.522 -1.339,-3.127 -0.508,-4.888 0.505,-1.072 1.761,-2.198 0.571,-3.414 -1.163,-1.187 -2.64,-1.182 -4.114,-0.331 -0.37,0.213 -0.914,0.305 -1.331,0.222 -7.49,-1.482 -14.916,-3.231 -20.438,-9.045 -3.268,-3.441 -2.714,-7.91 1.038,-10.792 1.582,-1.214 3.379,-1.924 5.342,-2.256 3.885,-0.657 7.764,-0.857 11.663,-0.084 1.78,0.354 3.164,-0.427 4.183,-1.816 1.097,-1.498 -0.091,-2.519 -0.858,-3.652 -2.168,-3.2 -0.778,-7.044 3.071,-8.613 6.161,-2.511 17.255,0.222 21.64,5.33 3.566,4.155 5.006,3.928 6.945,-1.186 1.648,-4.341 4.008,-8.04 8.546,-9.828 C -9.661,1.209 -5.041,-0.131 0,0 m -26.583,10.367 c -6.867,-6.092 -14.84,-7.428 -23.374,-6.19 -6.027,0.875 -10.287,6.132 -9.805,12.112 0.158,1.953 -0.838,1.829 -1.957,1.805 -3.595,-0.075 -7.143,0.271 -10.547,1.423 -4.803,1.625 -8.866,4.355 -9.811,9.666 -0.927,5.21 1.975,8.92 5.879,12.057 5.404,4.344 11.9,5.791 18.396,7.312 1.165,0.272 2.387,0.164 2.79,1.937 2.089,9.188 9.067,12.956 17.38,14.412 6.053,1.061 12.353,1.912 18.316,-0.923 1.362,-0.647 1.769,0.155 2.322,1.153 6.599,11.91 17.644,16.886 30.315,19.07 4.743,0.818 9.594,1.282 14.407,1.385 C 40.319,85.857 48.315,74.195 43.791,62.502 41.949,57.741 39.306,53.453 36.282,49.389 35.214,47.951 35.204,47.263 36.983,46.36 42.999,43.308 47.653,35.385 46.749,29.769 45.862,24.261 40.328,17.354 32.508,16.651 30.859,16.503 30.414,15.649 30.289,14.195 29.983,10.658 28.085,8.03 25.478,5.737 13.129,-5.12 -0.702,-6.661 -15.706,-0.913 c -5.272,2.02 -8.351,6.279 -10.877,11.28"
             style="fill:#000000;fill-opacity:1;fill-rule:nonzero;stroke:none"
             id="path6818" />
        </g>
        <g
           id="g6820"
           transform="translate(638.4607,317.6041)">
          <path
             d="m 0,0 c 0.62,-0.528 1.107,-0.347 1.564,-0.215 3.896,1.119 7.958,1.529 11.826,2.771 0.53,0.17 1.081,0.318 1.631,0.369 1.234,0.114 2.646,-0.767 3.011,-1.839 0.267,-0.78 0.135,-1.452 -0.798,-1.561 C 16.321,-0.58 15.472,-0.98 14.582,-1.055 12.783,-1.204 11.746,-2.214 10.838,-3.67 8.326,-7.702 5.645,-11.621 2.474,-15.181 1.776,-15.963 1.125,-16.785 0.457,-17.592 0.234,-17.86 -0.029,-18.15 0.089,-18.517 c 0.167,-0.514 0.663,-0.435 1.059,-0.434 2.316,0.006 4.616,0.206 6.834,0.9 1.239,0.387 2.34,0.163 3.414,-0.444 1.432,-0.811 1.52,-1.477 0.43,-2.779 -0.492,-0.588 -0.99,-1.183 -1.395,-1.83 -1.337,-2.135 -2.811,-4.165 -4.411,-6.112 -1.267,-1.542 -2.375,-3.203 -3.506,-5.165 0.917,0.167 1.409,0.562 1.88,0.928 7.171,5.576 15.115,10.038 22.366,15.499 1.759,1.324 3.515,2.641 5.339,4.533 -2.08,0.127 -3.675,-0.214 -5.232,-0.764 -2.517,-0.89 -5.115,-1.4 -7.75,-1.782 -0.94,-0.137 -1.683,0.095 -2.167,0.89 -0.484,0.799 0.071,2.511 0.998,2.812 0.995,0.325 1.678,0.995 2.364,1.675 8.236,8.18 17.14,15.614 25.886,23.226 0.326,0.284 0.915,0.489 0.487,1.341 -3.385,-0.392 -6.843,-0.784 -10.298,-1.195 -2.709,-0.324 -5.415,-0.587 -8.143,-0.225 -1.396,0.185 -2.076,0.842 -2.109,2.095 -0.037,1.423 1.034,1.225 1.91,1.295 0.817,0.065 1.479,0.223 1.621,1.249 0.163,1.18 1.116,1.901 1.858,2.723 2.622,2.905 5.145,5.908 7.909,8.671 4.046,4.044 7.06,9.057 11.771,12.469 0.277,0.201 0.578,0.491 0.455,0.863 -0.173,0.523 -0.68,0.386 -1.073,0.374 C 48.77,42.244 46.967,42.061 45.17,41.773 38.294,40.675 31.387,39.808 24.474,38.979 24.198,38.945 23.913,38.939 23.637,38.963 22.021,39.098 21.065,38.334 20.384,36.889 18.926,33.799 17.27,30.802 15.842,27.699 14.574,24.945 12.637,22.625 11.164,20.012 8.421,15.147 5.716,10.261 2.995,5.383 1.987,3.575 0.983,1.766 0,0 m 34.253,16.281 c 2.548,0.267 5.049,0.431 7.516,0.81 3.372,0.518 6.798,0.639 10.097,1.746 1.593,0.534 3.347,0.09 4.732,-1.038 0.829,-0.674 0.761,-1.37 -0.165,-1.75 -2.642,-1.08 -4.712,-2.991 -6.869,-4.738 C 45.823,8.279 42.145,5.174 38.624,1.87 36.295,-0.314 33.507,-2.003 31.11,-4.15 c -1.715,-1.537 -3.423,-3.085 -5.122,-4.643 -0.399,-0.365 -0.827,-0.732 -1.081,-1.462 1.138,0.016 2.005,0.484 2.91,0.727 3.079,0.828 6.169,1.19 9.315,0.423 0.819,-0.2 1.628,-0.44 2.229,-1.081 0.685,-0.728 0.705,-1.306 -0.073,-1.957 -2.675,-2.239 -5.378,-4.445 -8.086,-6.645 -1.245,-1.011 -2.549,-1.95 -3.786,-2.972 -3.255,-2.686 -7.039,-4.524 -10.633,-6.667 -0.844,-0.503 -1.64,-1.047 -2.41,-1.653 -2.906,-2.29 -5.83,-4.558 -8.761,-6.816 -0.495,-0.382 -1.028,-0.735 -1.59,-1.005 -3.411,-1.647 -6.025,-4.255 -8.507,-7.018 -1.148,-1.277 -1.547,-1.453 -2.392,-0.876 -1.02,0.699 -1.283,2.036 -0.49,3.129 3.654,5.035 6.524,10.572 10.072,15.674 0.796,1.144 1.705,2.211 2.546,3.324 0.205,0.271 0.445,0.574 0.308,0.947 -0.154,0.415 -0.559,0.399 -0.889,0.356 -2.292,-0.295 -4.614,0.085 -6.9,-0.306 -0.628,-0.107 -1.253,-0.104 -1.875,0.024 -2.094,0.427 -2.836,2.525 -1.379,4.096 0.993,1.072 2.196,1.947 3.206,3.005 3.383,3.544 6.278,7.493 9.26,11.367 0.128,0.165 0.252,0.338 0.348,0.524 0.408,0.789 0.185,1.134 -0.757,1.109 C 6.16,-2.557 5.747,-2.663 5.339,-2.747 3.697,-3.088 2.017,-3.308 0.428,-3.815 c -1.852,-0.591 -3.111,0.338 -4.347,1.368 -0.864,0.72 -0.917,1.602 -0.258,2.605 0.729,1.107 1.57,2.14 2.295,3.249 2.717,4.153 4.891,8.613 7.315,12.931 1.982,3.531 3.739,7.177 5.799,10.672 2.372,4.021 4.356,8.269 6.574,12.384 0.486,0.904 0.148,2.12 1.208,2.794 1.08,0.687 2.025,-0.246 3.034,-0.147 2.218,0.216 4.461,0.324 6.641,0.747 7.957,1.542 15.902,3.125 24.052,3.217 1.337,0.016 2.645,-0.156 3.96,-0.33 0.9,-0.118 1.572,-0.547 2.081,-1.26 0.724,-1.014 0.588,-1.58 -0.609,-2.018 -0.63,-0.23 -1.07,-0.502 -1.396,-1.119 C 56.28,40.333 55.371,39.734 54.553,39.089 52.521,37.483 50.677,35.712 48.978,33.739 44.33,28.343 39.565,23.048 34.849,17.711 34.58,17.407 34.191,17.172 34.253,16.281"
             style="fill:#000000;fill-opacity:1;fill-rule:nonzero;stroke:none"
             id="path6822" />
        </g>
        <g
           id="g6824"
           transform="translate(638.2371,317.9449)">
          <path
             d="m 0,0 c 0.627,-0.534 1.119,-0.35 1.58,-0.217 3.937,1.131 8.041,1.545 11.949,2.8 0.535,0.171 1.092,0.321 1.649,0.372 C 16.424,3.07 17.851,2.181 18.22,1.098 18.489,0.31 18.356,-0.369 17.413,-0.479 16.491,-0.587 15.633,-0.99 14.734,-1.065 12.916,-1.216 11.868,-2.237 10.951,-3.708 8.412,-7.782 5.703,-11.742 2.499,-15.339 1.795,-16.129 1.137,-16.96 0.461,-17.775 0.237,-18.046 -0.03,-18.34 0.09,-18.709 c 0.168,-0.521 0.67,-0.44 1.07,-0.439 2.34,0.005 4.663,0.208 6.904,0.909 1.252,0.391 2.366,0.165 3.451,-0.449 1.446,-0.819 1.536,-1.492 0.433,-2.808 -0.497,-0.595 -0.999,-1.194 -1.409,-1.849 -1.351,-2.158 -2.84,-4.208 -4.457,-6.176 -1.28,-1.557 -2.399,-3.236 -3.542,-5.218 0.926,0.169 1.423,0.567 1.898,0.937 7.248,5.634 15.274,10.143 22.601,15.66 1.776,1.338 3.552,2.669 5.395,4.581 -2.103,0.128 -3.713,-0.215 -5.288,-0.772 -2.542,-0.898 -5.168,-1.414 -7.83,-1.801 -0.95,-0.137 -1.701,0.096 -2.189,0.9 -0.49,0.807 0.072,2.537 1.008,2.842 1.006,0.328 1.696,1.005 2.387,1.692 8.324,8.264 17.321,15.776 26.158,23.468 0.329,0.287 0.924,0.494 0.491,1.355 -3.42,-0.396 -6.914,-0.791 -10.405,-1.208 -2.737,-0.326 -5.472,-0.593 -8.228,-0.227 -1.411,0.187 -2.098,0.852 -2.131,2.117 -0.038,1.438 1.045,1.238 1.93,1.308 0.825,0.066 1.495,0.226 1.639,1.263 0.164,1.192 1.127,1.92 1.877,2.751 2.649,2.935 5.199,5.97 7.991,8.761 4.089,4.086 7.134,9.153 11.893,12.599 0.281,0.203 0.585,0.496 0.461,0.873 -0.175,0.528 -0.688,0.39 -1.085,0.378 C 49.277,42.685 47.457,42.5 45.641,42.209 38.693,41.099 31.713,40.223 24.729,39.385 24.45,39.352 24.162,39.346 23.883,39.369 22.249,39.505 21.284,38.734 20.596,37.273 19.123,34.151 17.449,31.123 16.007,27.988 14.726,25.206 12.769,22.86 11.28,20.221 8.508,15.305 5.774,10.368 3.026,5.438 2.008,3.612 0.993,1.784 0,0"
             style="fill:#ffffff;fill-opacity:1;fill-rule:nonzero;stroke:none"
             id="path6826" />
        </g>
        <text
           xml:space="preserve"
           transform="matrix(1,0,0,-1,30.5044,649.0918)"
           style="font-variant:normal;font-weight:bold;font-stretch:normal;font-size:28px;font-family:'Tekton Pro';-inkscape-font-specification:TektonPro-Bold;writing-mode:lr-tb;fill:#000000;fill-opacity:1;fill-rule:nonzero;stroke:none"
           id="text6830"><tspan
             x="0 13.944 26.011999 41.523998 59.891998 78.260002 208.12399 222.06799 228.84399 244.356 262.724 281.09201 416.24799 430.19199 440.832 456.34399 474.71201 624.37201 638.31598 649.88 665.39203 683.76001"
             y="0"
             id="tspan6828">p0=75%p1=15%p2=5%p3=1%</tspan></text>
      </g>
    </g>
    <text
       xml:space="preserve"
       transform="matrix(1,0,0,-1,35.5044,219.0918)"
       style="font-variant:normal;font-weight:bold;font-stretch:normal;font-size:28px;font-family:'Tekton Pro';-inkscape-font-specification:TektonPro-Bold;writing-mode:lr-tb;fill:#000000;fill-opacity:1;fill-rule:nonzero;stroke:none"
       id="text6834"><tspan
         x="0 13.944 25.535999 41.048 59.416 207.2 221.144 232.42799 247.94 266.30801 414.39999 428.34399 440.24399 455.75601 474.12399 621.59998 635.54401 644.86798 660.38 678.74799"
         y="0"
         id="tspan6832">p4=1%p5=1%p6=1%p7=1%</tspan></text>
    <g
       id="g6836">
      <g
         id="g6838"
         clip-path="url(#clipPath6842)">
        <g
           id="g6844"
           transform="translate(431.4671,56.8717)">
          <path
             d="M 0,0 452.933,-1.903"
             style="fill:#000000;fill-opacity:1;fill-rule:nonzero;stroke:none"
             id="path6846" />
        </g>
        <g
           id="g6848"
           transform="translate(431.4671,56.8717)">
          <path
             d="M 0,0 428.476,-1.8"
             style="fill:none;stroke:#000000;stroke-width:3;stroke-linecap:round;stroke-linejoin:miter;stroke-miterlimit:10;stroke-dasharray:none;stroke-opacity:1"
             id="path6850" />
        </g>
        <g
           id="g6852"
           transform="translate(854.5583,55.0944)">
          <path
             d="m 0,0 -6.528,10.837 0.37,0.242 17.595,-7.074 C 17.572,2.629 23.707,1.252 29.842,-0.126 23.695,-1.45 17.55,-2.775 11.403,-4.102 l -17.654,-6.925 -0.369,0.185 z"
             style="fill:#000000;fill-opacity:1;fill-rule:nonzero;stroke:none"
             id="path6854" />
        </g>
      </g>
    </g>
    <text
       xml:space="preserve"
       transform="matrix(1,0,0,-1,533.229,81.6123)"
       style="font-variant:normal;font-weight:bold;font-stretch:normal;font-size:36px;font-family:'Tekton Pro';-inkscape-font-specification:TektonPro-Bold;writing-mode:lr-tb;fill:#000000;fill-opacity:1;fill-rule:nonzero;stroke:none"
       id="text6858"><tspan
         x="0 17.351999 25.091999 42.012001 60.084 72.251999 98.783997 115.632 133.70399 151.776 169.34399 186.76801 203.616 210.168"
         y="0"
         id="tspan6856">bits/message ?</tspan></text>
  </g>
</svg>
