<?xml version="1.0" encoding="UTF-8" standalone="no"?>
<!-- Created with Inkscape (http://www.inkscape.org/) -->

<svg
   version="1.1"
   id="svg2"
   width="223.028"
   height="206.58932"
   viewBox="0 0 223.028 206.58932"
   xmlns="http://www.w3.org/2000/svg"
   xmlns:svg="http://www.w3.org/2000/svg">
  <defs
     id="defs6">
    <clipPath
       clipPathUnits="userSpaceOnUse"
       id="clipPath16">
      <path
         d="M 0,154.942 H 167.271 V 0 H 0 Z"
         id="path14" />
    </clipPath>
  </defs>
  <g
     id="g8"
     transform="matrix(1.3333333,0,0,-1.3333333,0,206.58933)">
    <g
       id="g10">
      <g
         id="g12"
         clip-path="url(#clipPath16)">
        <g
           id="g18"
           transform="translate(127.3623,79.5381)">
          <path
             d="m 0,0 c -1.804,3.84 -3.59,7.712 -5.262,11.618 -2.646,6.159 -4.5,12.635 -6.65,18.978 -1.042,0.934 -2.2,1.753 -3.475,2.386 -1.505,0.752 -3.044,1.453 -4.598,2.054 3.788,-9.164 7.312,-18.444 11.084,-27.608 1.572,-3.823 3.507,-7.478 5.228,-11.233 0.381,-0.818 0.529,-1.686 0.446,-2.537 1.39,1.719 2.532,3.689 3.425,5.925 V -0.4 C 0.132,-0.267 0.066,-0.133 0,0 m -8.604,-10.165 c -0.595,1.035 -1.19,2.103 -1.587,3.222 -2.73,7.661 -5.94,15.123 -9.365,22.5 -3.027,6.526 -5.724,13.203 -8.57,19.797 -0.331,0.75 -0.645,1.518 -0.976,2.269 -0.264,0.084 -0.545,0.184 -0.81,0.301 -2.416,0.984 -4.864,1.935 -7.297,2.888 4.55,-10.45 9.281,-20.832 14.08,-31.164 3.607,-7.761 6.634,-15.773 9.777,-23.752 0.596,0.317 1.192,0.634 1.788,0.952 1.29,0.701 2.514,1.452 3.656,2.303 -0.281,0.133 -0.513,0.368 -0.696,0.684 M -21.31,-27.057 c -0.231,1.002 -0.396,1.97 -0.297,2.921 -0.794,1.57 -1.555,3.139 -2.284,4.724 -4.979,10.866 -9.727,21.883 -13.847,33.133 -3.723,10.165 -6.883,20.513 -10.225,30.796 -1.521,0.334 -3.06,0.634 -4.566,1.035 -1.191,0.317 -2.366,0.6 -3.574,0.834 4.401,-12.652 8.786,-25.304 13.732,-37.756 3.789,-9.53 7.23,-19.195 11.697,-28.442 2.896,-6.009 5.89,-11.968 8.902,-17.927 0.066,0.384 0.131,0.768 0.214,1.152 0.613,3.171 0.994,6.326 0.248,9.53 m -11.812,-2.219 c -3.011,8.395 -6.254,16.708 -9.745,24.92 -3.226,7.611 -6.171,15.306 -8.867,23.118 -2.383,6.926 -3.806,14.137 -6.287,21.048 -0.861,2.37 -1.556,4.791 -2.234,7.211 -1.108,0.1 -2.266,0.15 -3.458,0.15 -1.572,0.167 -3.127,0.05 -4.649,-0.284 3.508,-10.733 7.031,-21.465 10.704,-32.131 5.03,-14.622 10.97,-28.91 16.959,-43.148 3.425,-8.112 6.204,-16.474 9.115,-24.77 0.166,-0.467 0.314,-0.935 0.464,-1.402 0.81,0.334 1.604,0.717 2.398,1.119 1.373,0.683 2.466,1.585 3.326,2.737 -2.151,7.294 -5.178,14.288 -7.726,21.432 m -12.938,-3.94 c -1.307,3.773 -3.011,7.395 -4.566,11.083 -5.791,13.638 -9.927,27.842 -14.195,41.996 -2.581,8.53 -4.948,17.11 -7.346,25.689 -1.87,-0.868 -3.656,-2.02 -5.394,-3.339 -0.662,-0.5 -1.291,-1.018 -1.903,-1.552 2.912,-8.93 5.543,-17.943 8.537,-26.84 5.708,-16.942 12.029,-33.633 19.043,-50.074 2.946,-6.928 5.658,-13.955 8.388,-20.981 0.976,0.033 1.953,0.099 2.929,0.167 1.141,0.083 2.266,0.25 3.391,0.5 -3.177,7.695 -6.154,15.473 -8.884,23.351 m -5.493,-17.576 c -4.087,11.701 -7.974,23.452 -13.02,34.802 -4.6,10.348 -8.123,21.132 -11.25,32.048 -1.39,4.84 -3.36,9.531 -5.279,14.204 -0.86,2.087 -1.587,4.207 -2.283,6.36 -2.117,-2.52 -3.904,-5.392 -5.294,-8.63 5.361,-14.554 10.738,-29.127 16.164,-43.665 2.615,-6.994 5.758,-13.787 8.306,-20.798 2.498,-6.826 5.194,-13.587 7.66,-20.429 2.432,-0.268 4.847,-0.418 7.279,-0.435 -0.76,2.187 -1.522,4.356 -2.283,6.543 m -21.441,21.732 c -2.548,6.978 -5.03,13.988 -7.595,20.949 -0.049,-1.803 -0.313,-3.639 -0.744,-5.492 -0.629,-2.754 -1.307,-5.508 -2.019,-8.246 0.944,-2.671 1.871,-5.358 2.78,-8.045 2.597,-7.761 5.708,-15.356 8.686,-22.984 0.695,-0.418 1.407,-0.818 2.134,-1.185 1.919,-0.968 3.921,-1.453 5.956,-1.803 -3.094,8.93 -5.939,17.943 -9.198,26.806 m -12.691,-3.572 c 0.034,-0.884 0.166,-1.802 0.414,-2.721 0.646,-2.419 1.49,-4.74 2.565,-6.926 0.562,-1.152 1.142,-2.286 1.82,-3.355 -1.522,4.34 -2.862,8.796 -4.799,13.002 M -85.982,8.73 c -1.241,4.207 -2.813,8.279 -4.434,12.352 -0.182,-3.372 0.596,-6.677 2.316,-9.932 0.894,-1.702 1.836,-3.388 2.846,-5.007 -0.231,0.868 -0.479,1.719 -0.728,2.587"
             style="fill:#000000;fill-opacity:1;fill-rule:nonzero;stroke:none"
             id="path20" />
        </g>
        <g
           id="g22"
           transform="translate(127.3623,79.5381)">
          <path
             d="m 0,0 c -1.804,3.84 -3.59,7.712 -5.262,11.618 -2.646,6.159 -4.5,12.635 -6.65,18.978 -1.042,0.934 -2.2,1.753 -3.475,2.386 -1.505,0.752 -3.044,1.453 -4.598,2.054 3.788,-9.164 7.312,-18.444 11.084,-27.608 1.572,-3.823 3.507,-7.478 5.228,-11.233 0.381,-0.818 0.529,-1.686 0.446,-2.537 1.39,1.719 2.532,3.689 3.425,5.925 V -0.4 C 0.132,-0.267 0.066,-0.133 0,0 Z m -8.604,-10.165 c -0.595,1.035 -1.19,2.103 -1.587,3.222 -2.73,7.661 -5.94,15.123 -9.365,22.5 -3.027,6.526 -5.724,13.203 -8.57,19.797 -0.331,0.75 -0.645,1.518 -0.976,2.269 -0.264,0.084 -0.545,0.184 -0.81,0.301 -2.416,0.984 -4.864,1.935 -7.297,2.888 4.55,-10.45 9.281,-20.832 14.08,-31.164 3.607,-7.761 6.634,-15.773 9.777,-23.752 0.596,0.317 1.192,0.634 1.788,0.952 1.29,0.701 2.514,1.452 3.656,2.303 -0.281,0.133 -0.513,0.368 -0.696,0.684 z M -21.31,-27.057 c -0.231,1.002 -0.396,1.97 -0.297,2.921 -0.794,1.57 -1.555,3.139 -2.284,4.724 -4.979,10.866 -9.727,21.883 -13.847,33.133 -3.723,10.165 -6.883,20.513 -10.225,30.796 -1.521,0.334 -3.06,0.634 -4.566,1.035 -1.191,0.317 -2.366,0.6 -3.574,0.834 4.401,-12.652 8.786,-25.304 13.732,-37.756 3.789,-9.53 7.23,-19.195 11.697,-28.442 2.896,-6.009 5.89,-11.968 8.902,-17.927 0.066,0.384 0.131,0.768 0.214,1.152 0.613,3.171 0.994,6.326 0.248,9.53 z m -11.812,-2.219 c -3.011,8.395 -6.254,16.708 -9.745,24.92 -3.226,7.611 -6.171,15.306 -8.867,23.118 -2.383,6.926 -3.806,14.137 -6.287,21.048 -0.861,2.37 -1.556,4.791 -2.234,7.211 -1.108,0.1 -2.266,0.15 -3.458,0.15 -1.572,0.167 -3.127,0.05 -4.649,-0.284 3.508,-10.733 7.031,-21.465 10.704,-32.131 5.03,-14.622 10.97,-28.91 16.959,-43.148 3.425,-8.112 6.204,-16.474 9.115,-24.77 0.166,-0.467 0.314,-0.935 0.464,-1.402 0.81,0.334 1.604,0.717 2.398,1.119 1.373,0.683 2.466,1.585 3.326,2.737 -2.151,7.294 -5.178,14.288 -7.726,21.432 z m -12.938,-3.94 c -1.307,3.773 -3.011,7.395 -4.566,11.083 -5.791,13.638 -9.927,27.842 -14.195,41.996 -2.581,8.53 -4.948,17.11 -7.346,25.689 -1.87,-0.868 -3.656,-2.02 -5.394,-3.339 -0.662,-0.5 -1.291,-1.018 -1.903,-1.552 2.912,-8.93 5.543,-17.943 8.537,-26.84 5.708,-16.942 12.029,-33.633 19.043,-50.074 2.946,-6.928 5.658,-13.955 8.388,-20.981 0.976,0.033 1.953,0.099 2.929,0.167 1.141,0.083 2.266,0.25 3.391,0.5 -3.177,7.695 -6.154,15.473 -8.884,23.351 z m -5.493,-17.576 c -4.087,11.701 -7.974,23.452 -13.02,34.802 -4.6,10.348 -8.123,21.132 -11.25,32.048 -1.39,4.84 -3.36,9.531 -5.279,14.204 -0.86,2.087 -1.587,4.207 -2.283,6.36 -2.117,-2.52 -3.904,-5.392 -5.294,-8.63 5.361,-14.554 10.738,-29.127 16.164,-43.665 2.615,-6.994 5.758,-13.787 8.306,-20.798 2.498,-6.826 5.194,-13.587 7.66,-20.429 2.432,-0.268 4.847,-0.418 7.279,-0.435 -0.76,2.187 -1.522,4.356 -2.283,6.543 z m -21.441,21.732 c -2.548,6.978 -5.03,13.988 -7.595,20.949 -0.049,-1.803 -0.313,-3.639 -0.744,-5.492 -0.629,-2.754 -1.307,-5.508 -2.019,-8.246 0.944,-2.671 1.871,-5.358 2.78,-8.045 2.597,-7.761 5.708,-15.356 8.686,-22.984 0.695,-0.418 1.407,-0.818 2.134,-1.185 1.919,-0.968 3.921,-1.453 5.956,-1.803 -3.094,8.93 -5.939,17.943 -9.198,26.806 z m -12.691,-3.572 c 0.034,-0.884 0.166,-1.802 0.414,-2.721 0.646,-2.419 1.49,-4.74 2.565,-6.926 0.562,-1.152 1.142,-2.286 1.82,-3.355 -1.522,4.34 -2.862,8.796 -4.799,13.002 z M -85.982,8.73 c -1.241,4.207 -2.813,8.279 -4.434,12.352 -0.182,-3.372 0.596,-6.677 2.316,-9.932 0.894,-1.702 1.836,-3.388 2.846,-5.007 -0.231,0.868 -0.479,1.719 -0.728,2.587 z"
             style="fill:none;stroke:#ffffff;stroke-width:2;stroke-linecap:butt;stroke-linejoin:miter;stroke-miterlimit:10;stroke-dasharray:none;stroke-opacity:1"
             id="path24" />
        </g>
        <g
           id="g26"
           transform="translate(128.4375,81.708)">
          <path
             d="m 0,0 c -0.248,-0.9 -0.546,-1.752 -0.877,-2.57 v -0.017 c -0.894,-2.236 -2.035,-4.206 -3.425,-5.925 -1.34,-1.719 -2.911,-3.205 -4.681,-4.507 -1.142,-0.851 -2.367,-1.602 -3.657,-2.303 -0.595,-0.318 -1.191,-0.635 -1.787,-0.951 -1.571,-0.852 -3.177,-1.687 -4.764,-2.504 -1.042,-0.535 -1.621,-1.369 -1.821,-2.621 -0.132,-0.785 -0.215,-1.719 -0.644,-2.287 -0.646,-0.835 -0.96,-1.719 -1.027,-2.621 -0.098,-0.951 0.067,-1.919 0.298,-2.921 0.745,-3.204 0.364,-6.359 -0.248,-9.53 -0.083,-0.384 -0.148,-0.768 -0.215,-1.152 -0.562,-3.204 -0.96,-6.459 -1.919,-9.564 -0.414,-1.319 -0.976,-2.454 -1.704,-3.405 -0.86,-1.152 -1.953,-2.054 -3.326,-2.737 -0.794,-0.402 -1.588,-0.785 -2.398,-1.119 -1.986,-0.868 -4.004,-1.569 -6.056,-2.003 -1.125,-0.25 -2.25,-0.417 -3.392,-0.5 -0.975,-0.068 -1.952,-0.134 -2.928,-0.167 -1.919,-0.101 -3.855,-0.134 -5.774,-0.101 -2.432,0.017 -4.847,0.167 -7.279,0.435 -0.943,0.099 -1.887,0.233 -2.829,0.383 -1.473,0.234 -2.945,0.401 -4.418,0.651 -2.035,0.35 -4.037,0.835 -5.956,1.803 -0.728,0.367 -1.44,0.767 -2.134,1.185 -1.935,1.135 -3.789,2.42 -5.675,3.639 -1.406,0.918 -2.449,2.186 -3.325,3.605 -0.679,1.069 -1.258,2.203 -1.82,3.355 -1.075,2.186 -1.919,4.507 -2.565,6.927 -0.248,0.918 -0.381,1.836 -0.414,2.72 -0.049,1.103 0.067,2.204 0.364,3.323 0.663,2.486 1.324,4.973 1.969,7.46 0.712,2.738 1.39,5.492 2.019,8.247 0.43,1.852 0.695,3.688 0.744,5.491 0.183,4.239 -0.728,8.312 -3.275,12.101 -0.48,0.701 -0.944,1.418 -1.39,2.153 -1.01,1.619 -1.952,3.305 -2.846,5.007 -1.721,3.255 -2.498,6.56 -2.316,9.932 0.116,2.187 0.662,4.406 1.621,6.677 0.033,0.083 0.066,0.167 0.116,0.233 1.39,3.239 3.177,6.11 5.294,8.63 1.191,1.452 2.499,2.804 3.921,4.039 0.612,0.534 1.241,1.052 1.903,1.552 1.738,1.319 3.524,2.471 5.394,3.339 1.24,0.584 2.514,1.052 3.804,1.335 1.523,0.334 3.078,0.451 4.65,0.284 1.191,0 2.35,-0.05 3.458,-0.15 1.423,-0.134 2.796,-0.351 4.152,-0.635 1.208,-0.234 2.383,-0.517 3.574,-0.834 1.505,-0.401 3.044,-0.701 4.566,-1.035 1.87,-0.401 3.723,-0.852 5.526,-1.619 1.738,-0.718 3.474,-1.419 5.228,-2.086 2.432,-0.953 4.881,-1.904 7.297,-2.888 0.264,-0.117 0.546,-0.217 0.81,-0.301 1.274,-0.45 2.581,-0.751 3.888,-1.018 1.787,-0.368 3.523,-0.918 5.228,-1.569 1.555,-0.601 3.094,-1.302 4.599,-2.054 1.274,-0.633 2.433,-1.452 3.475,-2.386 2.398,-2.119 4.318,-4.823 6.287,-7.428 2.283,-3.037 3.921,-6.543 5.658,-9.965 C 0.745,7.545 1.125,3.989 0,0 Z"
             style="fill:none;stroke:#000000;stroke-width:2;stroke-linecap:butt;stroke-linejoin:miter;stroke-miterlimit:10;stroke-dasharray:none;stroke-opacity:1"
             id="path28" />
        </g>
        <g
           id="g30"
           transform="translate(73.9316,21.959)">
          <path
             d="m 0,0 c 7.943,0.095 14.436,0.661 20.782,2.854 3.978,1.375 6.78,3.726 8.008,8.244 0.581,2.135 0.694,4.338 1.203,6.472 0.941,3.948 1.236,7.926 0.25,11.938 -0.203,0.827 -0.261,1.7 -0.363,2.555 -0.257,2.15 -0.241,4.2 1.333,5.893 0.4,0.431 0.586,1.182 0.712,1.822 0.448,2.274 1.831,3.663 3.605,4.655 2.027,1.131 4.102,2.158 6.139,3.267 6.238,3.401 10.783,8.411 12.662,15.978 0.581,2.341 0.401,4.523 -0.643,6.679 -1.603,3.307 -3.414,6.469 -5.226,9.642 -3.64,6.374 -8.833,10.02 -15.456,11.467 -1.324,0.289 -3.46,0.89 -4.733,1.386 -5.109,1.991 -10.375,3.421 -15.481,5.449 -5.104,2.026 -10.523,2.882 -15.824,4.099 -6.284,1.444 -12.526,1.225 -18.193,-2.809 -0.509,-0.364 -1.104,-0.582 -1.638,-0.909 -1.306,-0.801 -2.499,-1.762 -3.518,-2.979 -2.324,-2.773 -4.218,-5.89 -5.823,-9.191 -2.733,-5.617 -2.747,-11.291 0.585,-16.596 2.233,-3.555 4.374,-7.173 6.567,-10.754 2.308,-3.766 2.974,-7.869 2.155,-12.355 -1.313,-7.175 -3.713,-13.988 -5.736,-20.915 -2.174,-7.45 -0.486,-13.375 4.004,-17.803 3.685,-3.631 8.391,-5.543 13.223,-6.66 C -7.217,0.46 -2.956,-0.21 0,0 m -10.711,107.283 c 4.426,0.017 8.281,-0.71 12.136,-1.734 3.647,-0.969 7.405,-1.373 10.96,-2.855 4.498,-1.875 9.075,-3.522 13.588,-5.356 1.659,-0.675 3.369,-1.058 5.084,-1.414 3.726,-0.775 7.251,-2.187 10.679,-3.904 4.545,-2.277 7.505,-6.504 10.578,-10.556 2.476,-3.263 4.254,-7.033 6.15,-10.705 1.942,-3.762 2.354,-7.575 1.119,-11.876 C 57.308,50.967 52.432,45.905 45.879,42.402 43.518,41.14 41.144,39.904 38.759,38.695 37.626,38.12 37,37.21 36.783,35.863 36.647,35.021 36.556,34.016 36.087,33.419 34.629,31.561 34.794,29.544 35.292,27.449 36.114,23.995 35.692,20.612 35.025,17.194 34.275,13.352 33.89,9.429 32.713,5.68 31.744,2.596 29.999,0.426 27.262,-0.937 23.152,-2.984 18.868,-4.506 14.405,-4.823 7.606,-5.309 0.782,-5.296 -6.004,-4.231 c -3.811,0.597 -7.676,0.838 -11.254,2.637 -2.952,1.485 -5.693,3.386 -8.479,5.187 -2.664,1.721 -4.172,4.62 -5.585,7.489 -1.16,2.356 -2.075,4.842 -2.774,7.444 -0.596,2.221 -0.627,4.306 -0.052,6.495 1.474,5.624 3.023,11.23 4.317,16.906 1.522,6.677 1.185,13.1 -2.752,18.911 -1.667,2.46 -3.192,5.055 -4.596,7.707 -3.058,5.781 -3.409,11.688 -0.739,17.864 2.783,6.437 6.924,11.573 12.185,15.537 4.597,3.465 9.646,5.919 15.022,5.337"
             style="fill:#000000;fill-opacity:1;fill-rule:nonzero;stroke:none"
             id="path32" />
        </g>
        <g
           id="g34"
           transform="translate(146.6553,9.9102)">
          <path
             d="m 0,0 c 3.868,-0.135 7.306,-0.263 10.743,-0.373 2.617,-0.084 2.809,0.154 2.972,2.805 0.226,3.683 -0.018,7.357 -0.223,11.023 -0.268,4.786 -0.623,9.573 -1.151,14.337 -1.013,9.135 -2.191,18.248 -1.725,27.478 0.205,4.062 0.09,8.131 0.266,12.205 0.188,4.374 0.196,8.786 0.191,13.181 -0.011,9.191 0.197,18.381 0.016,27.573 -0.06,3.035 0.198,6.075 0.254,9.113 0.031,1.748 -0.248,2.098 -1.894,2.539 -1.001,0.267 -2.032,0.431 -3.053,0.619 -3.601,0.666 -7.119,1.628 -10.861,1.66 -6.236,0.053 -12.458,-0.007 -18.69,-0.272 -5.186,-0.221 -10.388,-0.03 -15.583,-0.023 -0.719,0.001 -1.443,0.036 -2.158,-0.019 -9.647,-0.759 -19.309,-0.953 -28.981,-0.807 -0.639,0.01 -1.28,0.004 -1.916,-0.051 -5.282,-0.453 -10.536,-0.07 -15.791,0.471 -3.978,0.41 -7.967,0.631 -11.971,0.35 -7.396,-0.52 -14.784,-1.509 -22.214,-0.425 -0.786,0.115 -1.601,0.117 -2.396,0.061 -4.386,-0.309 -8.77,-0.58 -13.175,-0.435 -1.807,0.058 -2.308,-0.428 -2.409,-2.237 -0.123,-2.233 -0.071,-4.475 -0.093,-6.713 -0.033,-3.347 0.139,-6.712 -0.151,-10.037 -0.311,-3.574 -0.824,-7.148 -1.383,-10.691 -0.901,-5.708 -1.306,-11.429 -1.374,-17.188 -0.038,-3.197 -0.381,-6.381 -0.146,-9.589 0.318,-4.382 0.694,-8.774 0.693,-13.16 -0.002,-6.886 1.089,-13.702 1.093,-20.573 0.002,-2.742 0.737,-5.373 0.842,-8.09 0.239,-6.147 0.45,-12.295 1.133,-18.418 0.178,-1.585 0.144,-3.192 0.275,-4.784 0.087,-1.052 0.564,-1.857 1.777,-1.861 3.276,-0.012 6.544,-0.567 9.824,-0.199 4.296,0.482 8.609,0.414 12.919,0.527 3.756,0.099 7.509,-0.116 11.268,0.137 6.058,0.408 12.127,0.761 18.196,0.885 5.831,0.12 11.65,0.504 17.484,0.6 7.107,0.116 14.22,0.319 21.323,0.411 8.225,0.109 16.454,-0.045 24.687,0.093 C -14.12,0.244 -6.835,0.581 0,0 m -127.539,126.057 c 9.127,-0.643 16.655,0.463 24.21,1.131 4.875,0.43 9.758,0.176 14.599,-0.368 6.134,-0.688 12.282,-0.736 18.433,-0.822 3.984,-0.056 7.971,-0.09 11.953,-0.009 5.51,0.114 11.02,0.283 16.523,0.556 2.081,0.103 4.155,0.158 6.229,0.071 6.4,-0.268 12.771,0.405 19.154,0.53 6.38,0.126 12.793,0.182 19.116,-1.072 2.9,-0.575 5.812,-1.049 8.78,-1.191 3.505,-0.168 4.831,-1.526 4.389,-5.056 -0.679,-5.422 -0.625,-10.857 -0.439,-16.269 0.301,-8.727 -0.584,-17.422 -0.444,-26.124 0.148,-9.205 -0.49,-18.379 -0.487,-27.567 10e-4,-4.936 0.403,-9.884 1.002,-14.806 0.542,-4.439 0.854,-8.906 1.295,-13.357 0.633,-6.364 1.156,-12.728 0.854,-19.138 -0.083,-1.769 0.05,-3.528 1.806,-4.669 0.606,-0.394 0.887,-1.127 1.072,-1.833 0.315,-1.205 -0.026,-1.76 -1.303,-2.011 -0.628,-0.122 -1.257,-0.183 -1.837,-0.49 -1.125,-0.598 -2.176,-0.446 -3.075,0.443 -0.991,0.98 -2.222,1.182 -3.528,1.223 -7.588,0.238 -15.17,0.493 -22.769,0.517 -8.87,0.028 -17.722,-0.569 -26.602,-0.286 -9.656,0.309 -19.323,-0.045 -28.981,-0.628 -7.65,-0.462 -12.936,-1.451 -20.604,-1.799 -6.458,-0.293 -12.895,-1.071 -19.34,-1.638 -0.319,-0.029 -0.633,-0.137 -0.948,-0.138 -8.711,-0.017 -17.359,-1.628 -26.093,-1.037 -0.795,0.053 -1.591,0.13 -2.379,0.246 -1.647,0.244 -2.456,1.093 -3.085,2.796 -1.035,2.807 -2.948,8.472 -3.167,11.301 -0.404,5.249 -0.668,10.513 -0.668,15.797 0,6.064 -0.594,12.123 -0.936,18.183 -0.428,7.575 -1.388,15.113 -1.414,22.719 -0.015,4.709 -0.688,9.426 -0.325,14.129 0.61,7.891 0.785,15.807 1.382,23.692 0.404,5.328 1.442,10.609 1.332,15.985 -0.055,2.628 -0.445,5.245 0.182,7.878 0.606,2.547 0.937,3.049 3.482,2.922 4.718,-0.235 9.424,0.555 12.631,0.189"
             style="fill:#000000;fill-opacity:1;fill-rule:nonzero;stroke:none"
             id="path36" />
        </g>
        <g
           id="g38"
           transform="translate(7.7305,140.3232)">
          <path
             d="m 0,0 c -0.982,-0.033 -1.921,0.094 -2.771,0.619 -0.339,0.21 -0.685,0.444 -0.685,0.904 10e-4,0.569 0.4,0.857 0.863,1.018 0.526,0.183 1.078,0.284 1.618,0.428 1.78,0.472 2.091,0.849 1.904,2.679 C 0.823,6.675 0.557,7.687 0.325,8.697 -0.476,12.183 0.182,13.276 3.668,14.245 5.665,14.801 7.6,14.826 9.445,13.701 11.688,12.334 12.56,10.328 11.923,7.783 11.749,7.091 11.429,6.437 11.187,5.761 10.53,3.936 10.528,3.926 12.381,2.949 13.133,2.553 13.772,2.058 13.636,1.123 13.502,0.212 12.654,0.182 11.97,0.042 11.188,-0.118 10.396,-0.265 9.604,-0.312 7.945,-0.412 7.158,0.339 7.433,1.983 7.772,4.021 8.131,6.061 9.004,7.986 9.938,10.048 9.095,11.353 6.828,11.622 5.944,11.728 5.075,11.626 4.226,11.36 2.357,10.775 1.977,10.133 2.417,8.162 2.801,6.45 3.211,4.743 3.648,3.044 4.14,1.142 3.864,0.654 1.896,0.245 1.273,0.115 0.632,0.079 0,0"
             style="fill:#000000;fill-opacity:1;fill-rule:nonzero;stroke:none"
             id="path40" />
        </g>
        <g
           id="g42"
           transform="translate(58.8721,64.8115)">
          <path
             d="m 0,0 c -0.877,3.752 -0.877,6.809 0,10.116 4.262,7.131 7.738,14.432 6.133,23.161 -0.887,4.821 2.029,10.702 6.533,12.839 7.876,3.738 16.083,3.154 24.19,0.88 2.678,-0.75 5.124,-2.471 5.176,-5.779 0.037,-2.392 0.57,-4.765 0.101,-7.188 -0.447,-2.315 -0.202,-4.704 1.347,-6.529 3.758,-4.422 6.219,-9.639 9.267,-14.494 V 8.671 C 46.165,0.319 38.473,-7.062 31.906,-15.454 29.058,-19.095 21.586,-18.882 18.014,-15.831 11.936,-10.64 4.252,-7.268 0,0"
             style="fill:#cccccc;fill-opacity:1;fill-rule:nonzero;stroke:none"
             id="path44" />
        </g>
        <g
           id="g46"
           transform="translate(58.8721,64.8115)">
          <path
             d="m 0,0 c -0.877,3.752 -0.877,6.809 0,10.116 4.262,7.131 7.738,14.432 6.133,23.161 -0.887,4.821 2.029,10.702 6.533,12.839 7.876,3.738 16.083,3.154 24.19,0.88 2.678,-0.75 5.124,-2.471 5.176,-5.779 0.037,-2.392 0.57,-4.765 0.101,-7.188 -0.447,-2.315 -0.202,-4.704 1.347,-6.529 3.758,-4.422 6.219,-9.639 9.267,-14.494 V 8.671 C 46.165,0.319 38.473,-7.062 31.906,-15.454 29.058,-19.095 21.586,-18.882 18.014,-15.831 11.936,-10.64 4.252,-7.268 0,0 Z"
             style="fill:none;stroke:#000000;stroke-width:0.25;stroke-linecap:butt;stroke-linejoin:miter;stroke-miterlimit:10;stroke-dasharray:none;stroke-opacity:1"
             id="path48" />
        </g>
        <g
           id="g50"
           transform="translate(86.5547,111.1162)">
          <path
             d="m 0,0 c -3.302,0.225 -6.396,-0.921 -9.541,-1.597 -6.52,-1.4 -8.369,-3.486 -8.161,-10.192 0.283,-9.131 -0.568,-17.803 -5.711,-25.762 -2.187,-3.383 -1.415,-7.145 0.943,-10.47 3.208,-4.524 8.177,-6.929 12.347,-10.292 4.46,-3.594 9.77,-3.068 13.311,1.363 4.662,5.836 9.546,11.456 15.327,16.214 2.613,2.15 3.091,4.762 2.173,7.752 -1.389,4.526 -3.518,8.72 -6.757,12.187 -2.49,2.665 -3.426,5.48 -2.955,9.158 C 12.096,-2.88 9.922,-0.479 1.08,-0.002 0.722,0.017 0.36,0 0,0 m -28.122,-46.192 c -0.878,3.752 -0.878,6.807 0,10.115 4.262,7.132 7.738,14.432 6.133,23.161 -0.887,4.821 2.029,10.702 6.533,12.84 7.876,3.737 16.083,3.152 24.19,0.88 2.678,-0.751 5.124,-2.471 5.175,-5.78 0.037,-2.391 0.57,-4.764 0.102,-7.187 -0.448,-2.316 -0.203,-4.705 1.347,-6.529 3.758,-4.422 6.219,-9.64 9.267,-14.495 v -4.334 c -6.582,-8.352 -14.274,-15.734 -20.841,-24.125 -2.848,-3.641 -10.32,-3.429 -13.892,-0.378 -6.079,5.192 -13.762,8.564 -18.014,15.832"
             style="fill:#000000;fill-opacity:1;fill-rule:nonzero;stroke:none"
             id="path52" />
        </g>
      </g>
    </g>
    <text
       xml:space="preserve"
       transform="matrix(1,0,0,-1,76.6851,77.1006)"
       style="font-variant:normal;font-weight:bold;font-stretch:normal;font-size:21px;font-family:'Tekton Pro';-inkscape-font-specification:TektonPro-Bold;writing-mode:lr-tb;fill:#000000;fill-opacity:1;fill-rule:nonzero;stroke:none"
       id="text58"><tspan
         x="0"
         y="0"
         id="tspan54">B</tspan><tspan
         x="-64.658997"
         y="-11.613"
         id="tspan56">A</tspan></text>
  </g>
</svg>
