<?xml version="1.0" encoding="UTF-8" standalone="no"?>
<!-- Created with Inkscape (http://www.inkscape.org/) -->

<svg
   version="1.1"
   id="svg7043"
   width="377.82666"
   height="462.64001"
   viewBox="0 0 377.82666 462.64001"
   xmlns="http://www.w3.org/2000/svg"
   xmlns:svg="http://www.w3.org/2000/svg">
  <defs
     id="defs7047">
    <clipPath
       clipPathUnits="userSpaceOnUse"
       id="clipPath7059">
      <path
         d="M 0,346.98 H 283.37 V 0 H 0 Z"
         id="path7057" />
    </clipPath>
    <clipPath
       clipPathUnits="userSpaceOnUse"
       id="clipPath7087">
      <path
         d="M 0,346.98 H 283.37 V 0 H 0 Z"
         id="path7085" />
    </clipPath>
    <clipPath
       clipPathUnits="userSpaceOnUse"
       id="clipPath7151">
      <path
         d="M 0,346.98 H 283.37 V 0 H 0 Z"
         id="path7149" />
    </clipPath>
  </defs>
  <g
     id="g7049"
     transform="matrix(1.3333333,0,0,-1.3333333,0,462.64)">
    <path
       d="m 0.125,268.215 h 283.12 v 78.639 H 0.125 Z"
       style="fill:#ffffff;fill-opacity:1;fill-rule:nonzero;stroke:none"
       id="path7051" />
    <g
       id="g7053">
      <g
         id="g7055"
         clip-path="url(#clipPath7059)">
        <path
           d="M 283.245,268.215 H 0.125 v 78.64 h 283.12 z"
           style="fill:none;stroke:#231f20;stroke-width:0.25;stroke-linecap:butt;stroke-linejoin:miter;stroke-miterlimit:10;stroke-dasharray:none;stroke-opacity:1"
           id="path7061" />
      </g>
    </g>
    <text
       xml:space="preserve"
       transform="matrix(1,0,0,-1,86.0757,276.6426)"
       style="font-variant:normal;font-weight:normal;font-stretch:condensed;font-size:16px;font-family:'Minion Pro Cond Disp';-inkscape-font-specification:MinionPro-CnDisp;writing-mode:lr-tb;fill:#231f20;fill-opacity:1;fill-rule:nonzero;stroke:none"
       id="text7065"><tspan
         x="0 8.592 13.552 17.5984 20.992001 27.903999 33.344002 36.8144 42.622398 45.774399 48.3344 52.366402 59.262402 63.150398 68.750397 71.982399 75.116798 78.540802 84.446404 90.0784 97.132797 102.4928"
         y="0"
         id="tspan7063">Artifcial Intelligence</tspan></text>
    <text
       xml:space="preserve"
       transform="matrix(1,0,0,-1,138.6431,315.4014)"
       style="font-variant:normal;font-weight:normal;font-stretch:normal;font-size:18px;font-family:Kalam;-inkscape-font-specification:Kalam-Regular;writing-mode:lr-tb;fill:#231f20;fill-opacity:1;fill-rule:nonzero;stroke:none"
       id="text7069"><tspan
         x="0 10.782 18.936001 28.530001 38.124001 46.223999 54.234001 61.200001 65.484001 73.638 83.232002 87.515999 95.183998"
         y="0"
         id="tspan7067">Connectionism</tspan></text>
    <path
       d="M 265.373,302.484 H 124.549 v 33.007 h 140.824 z"
       style="fill:none;stroke:#231f20;stroke-width:1;stroke-linecap:butt;stroke-linejoin:miter;stroke-miterlimit:10;stroke-dasharray:none;stroke-opacity:1"
       id="path7071" />
    <text
       xml:space="preserve"
       transform="matrix(1,0,0,-1,25.6934,315.4014)"
       style="font-variant:normal;font-weight:normal;font-stretch:normal;font-size:18px;font-family:Kalam;-inkscape-font-specification:Kalam-Regular;writing-mode:lr-tb;fill:#231f20;fill-opacity:1;fill-rule:nonzero;stroke:none"
       id="text7075"><tspan
         x="0 9.5579996 18 32.327999 41.778 49.931999 54.341999 58.625999 66.293999"
         y="0"
         id="tspan7073">Symbolism</tspan></text>
    <path
       d="M 116.059,302.484 H 18.641 v 33.007 h 97.418 z"
       style="fill:none;stroke:#231f20;stroke-width:1;stroke-linecap:butt;stroke-linejoin:miter;stroke-miterlimit:10;stroke-dasharray:none;stroke-opacity:1"
       id="path7077" />
    <path
       d="m 0.125,0.125 h 283.12 V 167.07 H 0.125 Z"
       style="fill:#ffffff;fill-opacity:1;fill-rule:nonzero;stroke:none"
       id="path7079" />
    <g
       id="g7081">
      <g
         id="g7083"
         clip-path="url(#clipPath7087)">
        <path
           d="M 283.245,0.125 H 0.125 V 167.07 h 283.12 z"
           style="fill:none;stroke:#231f20;stroke-width:0.25;stroke-linecap:butt;stroke-linejoin:miter;stroke-miterlimit:10;stroke-dasharray:none;stroke-opacity:1"
           id="path7089" />
      </g>
    </g>
    <text
       xml:space="preserve"
       transform="matrix(1,0,0,-1,6.187,11.7471)"
       style="font-variant:normal;font-weight:normal;font-stretch:condensed;font-size:16px;font-family:'Minion Pro Cond Disp';-inkscape-font-specification:MinionPro-CnDisp;writing-mode:lr-tb;fill:#231f20;fill-opacity:1;fill-rule:nonzero;stroke:none"
       id="text7093"><tspan
         x="0 6.9439998 13.504 16.799999 21.52 25.408001 31.040001 41.824001 48.063999 51.216 57.599998 64.047997"
         y="0"
         id="tspan7091">Epistemology</tspan></text>
    <text
       xml:space="preserve"
       transform="matrix(1,0,0,-1,106.9468,28.7412)"
       style="font-variant:normal;font-weight:normal;font-stretch:normal;font-size:18px;font-family:Kalam;-inkscape-font-specification:Kalam-Regular;writing-mode:lr-tb;fill:#231f20;fill-opacity:1;fill-rule:nonzero;stroke:none"
       id="text7097"><tspan
         x="0 5.5799999 15.174 22.139999 30.24 34.650002 39.060001 43.344002 51.894001 59.993999 69.587997 77.598"
         y="0"
         id="tspan7095">Intelligence</tspan></text>
    <path
       d="M 204.4,15.825 H 95.19 V 48.832 H 204.4 Z"
       style="fill:none;stroke:#231f20;stroke-width:1;stroke-linecap:butt;stroke-linejoin:miter;stroke-miterlimit:10;stroke-dasharray:none;stroke-opacity:1"
       id="path7099" />
    <path
       d="M 264.948,61.307 H 18.615 v 50.344 h 246.333 z"
       style="fill:none;stroke:#231f20;stroke-width:1;stroke-linecap:butt;stroke-linejoin:miter;stroke-miterlimit:10;stroke-dasharray:none;stroke-opacity:1"
       id="path7101" />
    <text
       xml:space="preserve"
       transform="matrix(1,0,0,-1,25.6802,92.7881)"
       style="font-variant:normal;font-weight:normal;font-stretch:normal;font-size:12px;font-family:Kalam;-inkscape-font-specification:Kalam-Regular;writing-mode:lr-tb;fill:#231f20;fill-opacity:1;fill-rule:nonzero;stroke:none"
       id="text7107"><tspan
         x="0 7.0079999 12.636 17.280001 20.136 25.572001 31.968 37.596001 40.535999 43.391998 48.504002"
         y="0"
         id="tspan7103">Rationalist</tspan><tspan
         x="15.216 21.6 24.455999 29.856001"
         y="17.4"
         id="tspan7105">View</tspan></text>
    <text
       xml:space="preserve"
       transform="matrix(1,0,0,-1,98.6509,82.8931)"
       style="font-variant:normal;font-weight:normal;font-stretch:normal;font-size:18px;font-family:Kalam;-inkscape-font-specification:Kalam-Regular;writing-mode:lr-tb;fill:#231f20;fill-opacity:1;fill-rule:nonzero;stroke:none"
       id="text7111"><tspan
         x="0 10.638 20.232 28.386 40.5 44.91 53.009998 61.992001 70.542"
         y="0"
         id="tspan7109">Knowledge</tspan></text>
    <text
       xml:space="preserve"
       transform="matrix(1,0,0,-1,204.5957,92.7891)"
       style="font-variant:normal;font-weight:normal;font-stretch:normal;font-size:12px;font-family:Kalam;-inkscape-font-specification:Kalam-Regular;writing-mode:lr-tb;fill:#231f20;fill-opacity:1;fill-rule:nonzero;stroke:none"
       id="text7117"><tspan
         x="0 6.3720002 11.712 17.112 22.848 27.492001 30.348 35.688 41.316002"
         y="0"
         id="tspan7113">Sceptical</tspan><tspan
         x="10.764 17.148001 20.004 25.403999"
         y="17.4"
         id="tspan7115">View</tspan></text>
    <text
       xml:space="preserve"
       transform="matrix(1,0,0,-1,32.708,137.4678)"
       style="font-variant:normal;font-weight:normal;font-stretch:normal;font-size:18px;font-family:Kalam;-inkscape-font-specification:Kalam-Regular;writing-mode:lr-tb;fill:#231f20;fill-opacity:1;fill-rule:nonzero;stroke:none"
       id="text7121"><tspan
         x="0 14.202 22.643999 29.610001"
         y="0"
         id="tspan7119">Math</tspan></text>
    <path
       d="M 86.059,124.551 H 18.615 v 33.007 h 67.444 z"
       style="fill:none;stroke:#231f20;stroke-width:1;stroke-linecap:butt;stroke-linejoin:miter;stroke-miterlimit:10;stroke-dasharray:none;stroke-opacity:1"
       id="path7123" />
    <text
       xml:space="preserve"
       transform="matrix(1,0,0,-1,198.7925,137.4673)"
       style="font-variant:normal;font-weight:normal;font-stretch:normal;font-size:18px;font-family:Kalam;-inkscape-font-specification:Kalam-Regular;writing-mode:lr-tb;fill:#231f20;fill-opacity:1;fill-rule:nonzero;stroke:none"
       id="text7127"><tspan
         x="0 9.5579996 17.568001 21.851999 29.952 39.546001 47.556"
         y="0"
         id="tspan7125">Science</tspan></text>
    <path
       d="m 265.485,124.551 h -77.729 v 33.007 h 77.729 z"
       style="fill:none;stroke:#231f20;stroke-width:1;stroke-linecap:butt;stroke-linejoin:miter;stroke-miterlimit:10;stroke-dasharray:none;stroke-opacity:1"
       id="path7129" />
    <text
       xml:space="preserve"
       transform="matrix(1,0,0,-1,106.6689,216.5635)"
       style="font-variant:normal;font-weight:normal;font-stretch:normal;font-size:18px;font-family:Kalam;-inkscape-font-specification:Kalam-Regular;writing-mode:lr-tb;fill:#231f20;fill-opacity:1;fill-rule:nonzero;stroke:none"
       id="text7133"><tspan
         x="0 9.8280001 18.27 27.864 36.414001 45.071999 53.514 62.063999"
         y="0"
         id="tspan7131">Language</tspan></text>
    <path
       d="M 265.373,203.646 H 18.126 v 33.008 h 247.247 z"
       style="fill:none;stroke:#231f20;stroke-width:1;stroke-linecap:butt;stroke-linejoin:miter;stroke-miterlimit:10;stroke-dasharray:none;stroke-opacity:1"
       id="path7135" />
    <g
       id="g7137"
       transform="translate(52.1271,157.3605)">
      <path
         d="M 0,0 0.035,46.136 Z"
         style="fill:#ffffff;fill-opacity:1;fill-rule:nonzero;stroke:none"
         id="path7139" />
    </g>
    <g
       id="g7141"
       transform="translate(52.1273,157.3608)">
      <path
         d="M 0,0 0.03,40.101"
         style="fill:none;stroke:#231f20;stroke-width:1;stroke-linecap:butt;stroke-linejoin:miter;stroke-miterlimit:10;stroke-dasharray:none;stroke-opacity:1"
         id="path7143" />
    </g>
    <g
       id="g7145">
      <g
         id="g7147"
         clip-path="url(#clipPath7151)">
        <g
           id="g7153"
           transform="translate(52.162,203.4966)">
          <path
             d="m 0,0 c 1.052,-2.84 2.847,-6.365 4.75,-8.551 l -4.755,1.724 -4.756,-1.716 C -2.855,-6.36 -1.055,-2.839 0,0"
             style="fill:#231f20;fill-opacity:1;fill-rule:nonzero;stroke:none"
             id="path7155" />
        </g>
        <g
           id="g7157"
           transform="translate(52.0184,236.9799)">
          <path
             d="M 0,0 0.167,65.176"
             style="fill:#ffffff;fill-opacity:1;fill-rule:nonzero;stroke:none"
             id="path7159" />
        </g>
        <g
           id="g7161"
           transform="translate(52.0184,236.9799)">
          <path
             d="M 0,0 0.151,59.141"
             style="fill:none;stroke:#231f20;stroke-width:1;stroke-linecap:butt;stroke-linejoin:miter;stroke-miterlimit:10;stroke-dasharray:none;stroke-opacity:1"
             id="path7163" />
        </g>
        <g
           id="g7165"
           transform="translate(52.1849,302.1557)">
          <path
             d="m 0,0 c 1.047,-2.843 2.835,-6.371 4.734,-8.56 l -4.751,1.733 -4.759,-1.708 C -2.867,-6.356 -1.06,-2.837 0,0"
             style="fill:#231f20;fill-opacity:1;fill-rule:nonzero;stroke:none"
             id="path7167" />
        </g>
        <g
           id="g7169"
           transform="translate(225.0023,156.7798)">
          <path
             d="M 0,0 0.035,46.137"
             style="fill:#ffffff;fill-opacity:1;fill-rule:nonzero;stroke:none"
             id="path7171" />
        </g>
        <g
           id="g7173"
           transform="translate(225.0023,156.7798)">
          <path
             d="M 0,0 0.031,40.102"
             style="fill:none;stroke:#231f20;stroke-width:1;stroke-linecap:butt;stroke-linejoin:miter;stroke-miterlimit:10;stroke-dasharray:none;stroke-opacity:1"
             id="path7175" />
        </g>
        <g
           id="g7177"
           transform="translate(225.0375,202.9165)">
          <path
             d="m 0,0 c 1.052,-2.841 2.847,-6.366 4.75,-8.552 l -4.755,1.725 -4.756,-1.717 C -2.855,-6.361 -1.055,-2.839 0,0"
             style="fill:#231f20;fill-opacity:1;fill-rule:nonzero;stroke:none"
             id="path7179" />
        </g>
        <g
           id="g7181"
           transform="translate(224.8939,236.3989)">
          <path
             d="M 0,0 0.167,65.176"
             style="fill:#ffffff;fill-opacity:1;fill-rule:nonzero;stroke:none"
             id="path7183" />
        </g>
        <g
           id="g7185"
           transform="translate(224.8939,236.3989)">
          <path
             d="M 0,0 0.151,59.141"
             style="fill:none;stroke:#231f20;stroke-width:1;stroke-linecap:butt;stroke-linejoin:miter;stroke-miterlimit:10;stroke-dasharray:none;stroke-opacity:1"
             id="path7187" />
        </g>
        <g
           id="g7189"
           transform="translate(225.0604,301.5747)">
          <path
             d="m 0,0 c 1.046,-2.842 2.835,-6.371 4.734,-8.56 l -4.751,1.733 -4.759,-1.708 C -2.867,-6.356 -1.06,-2.837 0,0"
             style="fill:#231f20;fill-opacity:1;fill-rule:nonzero;stroke:none"
             id="path7191" />
        </g>
        <g
           id="g7193"
           transform="translate(225.3153,105.5141)">
          <path
             d="M 0,0 0.291,17.414"
             style="fill:#ffffff;fill-opacity:1;fill-rule:nonzero;stroke:none"
             id="path7195" />
        </g>
        <g
           id="g7197"
           transform="translate(225.3153,105.5141)">
          <path
             d="M 0,0 0.19,11.38"
             style="fill:none;stroke:#231f20;stroke-width:1;stroke-linecap:butt;stroke-linejoin:miter;stroke-miterlimit:10;stroke-dasharray:none;stroke-opacity:1"
             id="path7199" />
        </g>
        <g
           id="g7201"
           transform="translate(225.6058,122.9282)">
          <path
             d="m 0,0 c 1.006,-2.856 2.745,-6.409 4.613,-8.625 l -4.727,1.799 -4.782,-1.641 C -2.956,-6.314 -1.1,-2.821 0,0"
             style="fill:#231f20;fill-opacity:1;fill-rule:nonzero;stroke:none"
             id="path7203" />
        </g>
        <g
           id="g7205"
           transform="translate(52.0165,106.2475)">
          <path
             d="M 0,0 0.291,17.414"
             style="fill:#ffffff;fill-opacity:1;fill-rule:nonzero;stroke:none"
             id="path7207" />
        </g>
        <g
           id="g7209"
           transform="translate(52.0165,106.2475)">
          <path
             d="M 0,0 0.19,11.38"
             style="fill:none;stroke:#231f20;stroke-width:1;stroke-linecap:butt;stroke-linejoin:miter;stroke-miterlimit:10;stroke-dasharray:none;stroke-opacity:1"
             id="path7211" />
        </g>
        <g
           id="g7213"
           transform="translate(52.307,123.6616)">
          <path
             d="m 0,0 c 1.006,-2.857 2.745,-6.41 4.613,-8.626 l -4.727,1.8 -4.783,-1.641 C -2.956,-6.314 -1.1,-2.822 0,0"
             style="fill:#231f20;fill-opacity:1;fill-rule:nonzero;stroke:none"
             id="path7215" />
        </g>
      </g>
    </g>
  </g>
</svg>
