<?xml version="1.0" encoding="UTF-8" standalone="no"?>
<!-- Created with Inkscape (http://www.inkscape.org/) -->

<svg
   version="1.1"
   id="svg7943"
   width="377.82666"
   height="635.77734"
   viewBox="0 0 377.82666 635.77734"
   xmlns="http://www.w3.org/2000/svg"
   xmlns:svg="http://www.w3.org/2000/svg">
  <defs
     id="defs7947">
    <clipPath
       clipPathUnits="userSpaceOnUse"
       id="clipPath7959">
      <path
         d="M 0,476.833 H 283.37 V 0 H 0 Z"
         id="path7957" />
    </clipPath>
    <clipPath
       clipPathUnits="userSpaceOnUse"
       id="clipPath7977">
      <path
         d="M 0,476.833 H 283.37 V 0 H 0 Z"
         id="path7975" />
    </clipPath>
    <clipPath
       clipPathUnits="userSpaceOnUse"
       id="clipPath8023">
      <path
         d="M 0,476.833 H 283.37 V 0 H 0 Z"
         id="path8021" />
    </clipPath>
    <clipPath
       clipPathUnits="userSpaceOnUse"
       id="clipPath8045">
      <path
         d="M 0,476.833 H 283.37 V 0 H 0 Z"
         id="path8043" />
    </clipPath>
    <clipPath
       clipPathUnits="userSpaceOnUse"
       id="clipPath8085">
      <path
         d="M 0,476.833 H 283.37 V 0 H 0 Z"
         id="path8083" />
    </clipPath>
  </defs>
  <g
     id="g7949"
     transform="matrix(1.3333333,0,0,-1.3333333,0,635.77733)">
    <path
       d="m 0.125,265.9 h 283.12 V 476.708 H 0.125 Z"
       style="fill:#ffffff;fill-opacity:1;fill-rule:nonzero;stroke:none"
       id="path7951" />
    <g
       id="g7953">
      <g
         id="g7955"
         clip-path="url(#clipPath7959)">
        <path
           d="M 283.245,265.899 H 0.125 v 210.808 h 283.12 z"
           style="fill:none;stroke:#231f20;stroke-width:0.25;stroke-linecap:butt;stroke-linejoin:miter;stroke-miterlimit:10;stroke-dasharray:none;stroke-opacity:1"
           id="path7961" />
      </g>
    </g>
    <text
       xml:space="preserve"
       transform="matrix(1,0,0,-0.99509639,96.0527,398.3745)"
       style="font-variant:normal;font-weight:normal;font-stretch:normal;font-size:18.0887px;font-family:Kalam;-inkscape-font-specification:Kalam-Regular;writing-mode:lr-tb;fill:#231f20;fill-opacity:1;fill-rule:nonzero;stroke:none"
       id="text7965"><tspan
         x="0 5.6074972 17.129999 25.432713 39.831318 47.971233 54.971558 64.667099 72.861282"
         y="0"
         id="tspan7963">IB-method</tspan></text>
    <path
       d="M 191.871,385.457 H 82.122 v 33.007 h 109.749 z"
       style="fill:none;stroke:#231f20;stroke-width:1;stroke-linecap:butt;stroke-linejoin:miter;stroke-miterlimit:10;stroke-dasharray:none;stroke-opacity:1"
       id="path7967" />
    <path
       d="m 0.125,0.125 h 283.12 V 167.07 H 0.125 Z"
       style="fill:#ffffff;fill-opacity:1;fill-rule:nonzero;stroke:none"
       id="path7969" />
    <g
       id="g7971">
      <g
         id="g7973"
         clip-path="url(#clipPath7977)">
        <path
           d="M 283.245,0.125 H 0.125 V 167.07 h 283.12 z"
           style="fill:none;stroke:#231f20;stroke-width:0.25;stroke-linecap:butt;stroke-linejoin:miter;stroke-miterlimit:10;stroke-dasharray:none;stroke-opacity:1"
           id="path7979" />
      </g>
    </g>
    <text
       xml:space="preserve"
       transform="matrix(1,0,0,-1,6.187,11.7471)"
       style="font-variant:normal;font-weight:normal;font-stretch:condensed;font-size:16px;font-family:'Minion Pro Cond Disp';-inkscape-font-specification:MinionPro-CnDisp;writing-mode:lr-tb;fill:#231f20;fill-opacity:1;fill-rule:nonzero;stroke:none"
       id="text7983"><tspan
         x="0 6.9439998 13.504 16.799999 21.52 25.408001 31.040001 41.824001 48.063999 51.216 57.599998 64.047997"
         y="0"
         id="tspan7981">Epistemology</tspan></text>
    <text
       xml:space="preserve"
       transform="matrix(1,0,0,-1,106.9468,28.7412)"
       style="font-variant:normal;font-weight:normal;font-stretch:normal;font-size:18px;font-family:Kalam;-inkscape-font-specification:Kalam-Regular;writing-mode:lr-tb;fill:#231f20;fill-opacity:1;fill-rule:nonzero;stroke:none"
       id="text7987"><tspan
         x="0 5.5799999 15.174 22.139999 30.24 34.650002 39.060001 43.344002 51.894001 59.993999 69.587997 77.598"
         y="0"
         id="tspan7985">Intelligence</tspan></text>
    <path
       d="M 204.4,15.825 H 95.19 V 48.832 H 204.4 Z"
       style="fill:none;stroke:#231f20;stroke-width:1;stroke-linecap:butt;stroke-linejoin:miter;stroke-miterlimit:10;stroke-dasharray:none;stroke-opacity:1"
       id="path7989" />
    <path
       d="M 264.948,61.307 H 18.615 v 50.344 h 246.333 z"
       style="fill:none;stroke:#231f20;stroke-width:1;stroke-linecap:butt;stroke-linejoin:miter;stroke-miterlimit:10;stroke-dasharray:none;stroke-opacity:1"
       id="path7991" />
    <text
       xml:space="preserve"
       transform="matrix(1,0,0,-1,98.6509,82.8931)"
       style="font-variant:normal;font-weight:normal;font-stretch:normal;font-size:18px;font-family:Kalam;-inkscape-font-specification:Kalam-Regular;writing-mode:lr-tb;fill:#231f20;fill-opacity:1;fill-rule:nonzero;stroke:none"
       id="text7995"><tspan
         x="0 10.638 20.232 28.386 40.5 44.91 53.009998 61.992001 70.542"
         y="0"
         id="tspan7993">Knowledge</tspan></text>
    <text
       xml:space="preserve"
       transform="matrix(1,0,0,-1,204.5957,92.7891)"
       style="font-variant:normal;font-weight:normal;font-stretch:normal;font-size:12px;font-family:Kalam;-inkscape-font-specification:Kalam-Regular;writing-mode:lr-tb;fill:#231f20;fill-opacity:1;fill-rule:nonzero;stroke:none"
       id="text8001"><tspan
         x="0 6.3720002 11.712 17.112 22.848 27.492001 30.348 35.688 41.316002"
         y="0"
         id="tspan7997">Sceptical</tspan><tspan
         x="10.764 17.148001 20.004 25.403999"
         y="17.4"
         id="tspan7999">View</tspan></text>
    <text
       xml:space="preserve"
       transform="matrix(1,0,0,-1,198.7925,137.4673)"
       style="font-variant:normal;font-weight:normal;font-stretch:normal;font-size:18px;font-family:Kalam;-inkscape-font-specification:Kalam-Regular;writing-mode:lr-tb;fill:#231f20;fill-opacity:1;fill-rule:nonzero;stroke:none"
       id="text8005"><tspan
         x="0 9.5579996 17.568001 21.851999 29.952 39.546001 47.556"
         y="0"
         id="tspan8003">Science</tspan></text>
    <path
       d="m 265.485,124.551 h -77.729 v 33.007 h 77.729 z"
       style="fill:none;stroke:#231f20;stroke-width:1;stroke-linecap:butt;stroke-linejoin:miter;stroke-miterlimit:10;stroke-dasharray:none;stroke-opacity:1"
       id="path8007" />
    <g
       id="g8009"
       transform="translate(225.315,105.5142)">
      <path
         d="M 0,0 0.291,17.414 Z"
         style="fill:#ffffff;fill-opacity:1;fill-rule:nonzero;stroke:none"
         id="path8011" />
    </g>
    <g
       id="g8013"
       transform="translate(225.3153,105.5141)">
      <path
         d="M 0,0 0.19,11.38"
         style="fill:none;stroke:#231f20;stroke-width:1;stroke-linecap:butt;stroke-linejoin:miter;stroke-miterlimit:10;stroke-dasharray:none;stroke-opacity:1"
         id="path8015" />
    </g>
    <g
       id="g8017">
      <g
         id="g8019"
         clip-path="url(#clipPath8023)">
        <g
           id="g8025"
           transform="translate(225.6058,122.9282)">
          <path
             d="m 0,0 c 1.006,-2.856 2.745,-6.409 4.613,-8.625 l -4.727,1.799 -4.782,-1.641 C -2.956,-6.314 -1.1,-2.821 0,0"
             style="fill:#231f20;fill-opacity:1;fill-rule:nonzero;stroke:none"
             id="path8027" />
        </g>
        <path
           d="M 283.245,176.419 H 0.125 v 81.729 h 283.12 z"
           style="fill:#ffffff;fill-opacity:1;fill-rule:nonzero;stroke:#231f20;stroke-width:0.25;stroke-linecap:butt;stroke-linejoin:miter;stroke-miterlimit:10;stroke-dasharray:none;stroke-opacity:1"
           id="path8029" />
      </g>
    </g>
    <text
       xml:space="preserve"
       transform="matrix(1,0,0,-1,6.979,187.8467)"
       style="font-variant:normal;font-weight:normal;font-stretch:condensed;font-size:16px;font-family:'Minion Pro Cond Disp';-inkscape-font-specification:MinionPro-CnDisp;writing-mode:lr-tb;fill:#231f20;fill-opacity:1;fill-rule:nonzero;stroke:none"
       id="text8033"><tspan
         x="0 7.2480001 12.912 19.808001 25.968 32.784 38.543999 44.448002"
         y="0"
         id="tspan8031">Language</tspan></text>
    <text
       xml:space="preserve"
       transform="matrix(1,0,0,-1,112.4331,224.8984)"
       style="font-variant:normal;font-weight:normal;font-stretch:normal;font-size:18px;font-family:Kalam;-inkscape-font-specification:Kalam-Regular;writing-mode:lr-tb;fill:#231f20;fill-opacity:1;fill-rule:nonzero;stroke:none"
       id="text8037"><tspan
         x="0 11.466 19.908001 28.35 36.450001 44.118 48.402 56.844002 66.438004 73.655998 79.236 88.830002 95.598 103.698 109.656 117.756 127.35 135.36"
         y="0"
         id="tspan8035">Bayesian Inference</tspan></text>
    <g
       id="g8039">
      <g
         id="g8041"
         clip-path="url(#clipPath8045)">
        <path
           d="M 266.277,211.982 H 102.048 v 33.008 h 164.229 z"
           style="fill:none;stroke:#231f20;stroke-width:1;stroke-linecap:butt;stroke-linejoin:miter;stroke-miterlimit:10;stroke-dasharray:none;stroke-opacity:1"
           id="path8047" />
        <g
           id="g8049"
           transform="translate(225.0028,156.7798)">
          <path
             d="M 0,0 0.112,54.178"
             style="fill:#ffffff;fill-opacity:1;fill-rule:nonzero;stroke:none"
             id="path8051" />
        </g>
        <g
           id="g8053"
           transform="translate(225.0028,156.7798)">
          <path
             d="M 0,0 0.1,48.143"
             style="fill:none;stroke:#231f20;stroke-width:1;stroke-linecap:butt;stroke-linejoin:miter;stroke-miterlimit:10;stroke-dasharray:none;stroke-opacity:1"
             id="path8055" />
        </g>
        <g
           id="g8057"
           transform="translate(225.1151,210.9575)">
          <path
             d="m 0,0 c 1.048,-2.843 2.838,-6.369 4.738,-8.558 l -4.752,1.731 -4.758,-1.711 C -2.864,-6.357 -1.059,-2.838 0,0"
             style="fill:#231f20;fill-opacity:1;fill-rule:nonzero;stroke:none"
             id="path8059" />
        </g>
        <path
           d="M 191.871,329.323 H 18.784 v 33.427 h 173.087 z"
           style="fill:#ffffff;fill-opacity:1;fill-rule:nonzero;stroke:#231f20;stroke-width:1;stroke-linecap:butt;stroke-linejoin:miter;stroke-miterlimit:10;stroke-dasharray:none;stroke-opacity:1"
           id="path8061" />
      </g>
    </g>
    <text
       xml:space="preserve"
       transform="matrix(1,0,0,-1,33.5566,339.4521)"
       style="font-variant:normal;font-weight:normal;font-stretch:normal;font-size:18px;font-family:Kalam;-inkscape-font-specification:Kalam-Regular;writing-mode:lr-tb;fill:#231f20;fill-opacity:1;fill-rule:nonzero;stroke:none"
       id="text8065"><tspan
         x="0 9.5579996 19.205999 27.648001 37.242001 46.835999 54.990002 64.584 69.732002 77.400002 84.617996"
         y="0"
         id="tspan8063">Shannon’s 2</tspan></text>
    <text
       xml:space="preserve"
       transform="matrix(1,0,0,-1,128.6309,345.4463)"
       style="font-variant:normal;font-weight:normal;font-stretch:normal;font-size:10.494px;font-family:Kalam;-inkscape-font-specification:Kalam-Regular;writing-mode:lr-tb;fill:#231f20;fill-opacity:1;fill-rule:nonzero;stroke:none"
       id="text8069"><tspan
         x="0 5.5933018"
         y="0"
         id="tspan8067">nd</tspan></text>
    <text
       xml:space="preserve"
       transform="matrix(1,0,0,-1,146.6784,339.4521)"
       style="font-variant:normal;font-weight:normal;font-stretch:normal;font-size:18px;font-family:Kalam;-inkscape-font-specification:Kalam-Regular;writing-mode:lr-tb;fill:#231f20;fill-opacity:1;fill-rule:nonzero;stroke:none"
       id="text8073"><tspan
         x="0 9.8280001 18.27"
         y="0"
         id="tspan8071">Law</tspan></text>
    <text
       xml:space="preserve"
       transform="matrix(1,0,0,-1,9.7749,448.75)"
       style="font-variant:normal;font-weight:normal;font-stretch:condensed;font-size:16px;font-family:'Minion Pro Cond Disp';-inkscape-font-specification:MinionPro-CnDisp;writing-mode:lr-tb;fill:#231f20;fill-opacity:1;fill-rule:nonzero;stroke:none"
       id="text8077"><tspan
         x="0 4.0320001 11.056 14.72 20.927999 25.775999 36.5424 42.1264 46.1744 49.582401 55.790401 62.830399 65.390404 78.7024 84.396797 90.604797 95.756798"
         y="0"
         id="tspan8075">Information Teory</tspan></text>
    <g
       id="g8079">
      <g
         id="g8081"
         clip-path="url(#clipPath8085)">
        <g
           id="g8087"
           transform="translate(226.0697,245.5713)">
          <path
             d="m 0,0 -0.281,50.43 -27.471,0.309"
             style="fill:none;stroke:#231f20;stroke-width:1;stroke-linecap:butt;stroke-linejoin:miter;stroke-miterlimit:10;stroke-dasharray:none;stroke-opacity:1"
             id="path8089" />
        </g>
        <g
           id="g8091"
           transform="translate(192.2826,296.3774)">
          <path
             d="M 0,0 C 2.852,1.022 6.395,2.78 8.6,4.66 L 6.827,-0.077 8.493,-4.851 C 6.331,-2.922 2.828,-1.084 0,0"
             style="fill:#231f20;fill-opacity:1;fill-rule:nonzero;stroke:none"
             id="path8093" />
        </g>
        <g
           id="g8095"
           transform="translate(225.8499,296.2461)">
          <path
             d="m 0,0 -0.279,50.43 -27.254,0.308"
             style="fill:none;stroke:#231f20;stroke-width:1;stroke-linecap:butt;stroke-linejoin:miter;stroke-miterlimit:10;stroke-dasharray:none;stroke-opacity:1"
             id="path8097" />
        </g>
        <g
           id="g8099"
           transform="translate(192.2826,347.0522)">
          <path
             d="M 0,0 C 2.852,1.021 6.395,2.779 8.601,4.659 L 6.827,-0.077 8.493,-4.851 C 6.331,-2.922 2.828,-1.084 0,0"
             style="fill:#231f20;fill-opacity:1;fill-rule:nonzero;stroke:none"
             id="path8101" />
        </g>
        <path
           d="M 191.297,283.335 H 18.21 v 33.427 h 173.087 z"
           style="fill:#ffffff;fill-opacity:1;fill-rule:nonzero;stroke:#231f20;stroke-width:1;stroke-linecap:butt;stroke-linejoin:miter;stroke-miterlimit:10;stroke-dasharray:none;stroke-opacity:1"
           id="path8103" />
      </g>
    </g>
    <text
       xml:space="preserve"
       transform="matrix(1,0,0,-1,36.5347,293.4639)"
       style="font-variant:normal;font-weight:normal;font-stretch:normal;font-size:18px;font-family:Kalam;-inkscape-font-specification:Kalam-Regular;writing-mode:lr-tb;fill:#231f20;fill-opacity:1;fill-rule:nonzero;stroke:none"
       id="text8107"><tspan
         x="0 9.5579996 19.205999 27.648001 37.242001 46.835999 54.990002 64.584 69.732002 77.400002 84.617996"
         y="0"
         id="tspan8105">Shannon’s 1</tspan></text>
    <text
       xml:space="preserve"
       transform="matrix(1,0,0,-1,126.8032,299.458)"
       style="font-variant:normal;font-weight:normal;font-stretch:normal;font-size:10.494px;font-family:Kalam;-inkscape-font-specification:Kalam-Regular;writing-mode:lr-tb;fill:#231f20;fill-opacity:1;fill-rule:nonzero;stroke:none"
       id="text8111"><tspan
         x="0 4.4704442"
         y="0"
         id="tspan8109">st</tspan></text>
    <text
       xml:space="preserve"
       transform="matrix(1,0,0,-1,142.5525,293.4639)"
       style="font-variant:normal;font-weight:normal;font-stretch:normal;font-size:18px;font-family:Kalam;-inkscape-font-specification:Kalam-Regular;writing-mode:lr-tb;fill:#231f20;fill-opacity:1;fill-rule:nonzero;stroke:none"
       id="text8115"><tspan
         x="0 9.8280001 18.27"
         y="0"
         id="tspan8113">Law</tspan></text>
  </g>
</svg>
