<?xml version="1.0" encoding="UTF-8" standalone="no"?>
<!-- Created with Inkscape (http://www.inkscape.org/) -->

<svg
   version="1.1"
   id="svg8441"
   width="379.17734"
   height="812.14801"
   viewBox="0 0 379.17734 812.14801"
   xmlns="http://www.w3.org/2000/svg"
   xmlns:svg="http://www.w3.org/2000/svg">
  <defs
     id="defs8445">
    <clipPath
       clipPathUnits="userSpaceOnUse"
       id="clipPath8489">
      <path
         d="M 0,609.111 H 284.383 V 0 H 0 Z"
         id="path8487" />
    </clipPath>
    <clipPath
       clipPathUnits="userSpaceOnUse"
       id="clipPath8583">
      <path
         d="M 0,609.111 H 284.383 V 0 H 0 Z"
         id="path8581" />
    </clipPath>
  </defs>
  <g
     id="g8447"
     transform="matrix(1.3333333,0,0,-1.3333333,0,812.148)">
    <path
       d="M 284.258,357.041 H 159.851 v 126.74 h 124.407 z"
       style="fill:none;stroke:#231f20;stroke-width:0.25;stroke-linecap:butt;stroke-linejoin:miter;stroke-miterlimit:10;stroke-dasharray:none;stroke-opacity:1"
       id="path8449" />
    <text
       xml:space="preserve"
       transform="matrix(1,0,0,-1,172.1167,364.8818)"
       style="font-variant:normal;font-weight:normal;font-stretch:condensed;font-size:16px;font-family:'Minion Pro Cond Disp';-inkscape-font-specification:MinionPro-CnDisp;writing-mode:lr-tb;fill:#231f20;fill-opacity:1;fill-rule:nonzero;stroke:none"
       id="text8453"><tspan
         x="0 4.0320001 11.056 14.72 20.927999 25.774401 36.543999 42.1264 46.1744 49.582401 55.790401 62.830399 65.390404 78.7024 84.398399 90.6064 95.7584"
         y="0"
         id="tspan8451">Information Teory</tspan></text>
    <text
       xml:space="preserve"
       transform="matrix(1,0,0,-1,199.8901,447.7178)"
       style="font-variant:normal;font-weight:normal;font-stretch:normal;font-size:18px;font-family:Kalam;-inkscape-font-specification:Kalam-Regular;writing-mode:lr-tb;fill:#231f20;fill-opacity:1;fill-rule:nonzero;stroke:none"
       id="text8457"><tspan
         x="0"
         y="0"
         id="tspan8455">2</tspan></text>
    <text
       xml:space="preserve"
       transform="matrix(1,0,0,-1,210.3481,453.7119)"
       style="font-variant:normal;font-weight:normal;font-stretch:normal;font-size:10.494px;font-family:Kalam;-inkscape-font-specification:Kalam-Regular;writing-mode:lr-tb;fill:#231f20;fill-opacity:1;fill-rule:nonzero;stroke:none"
       id="text8461"><tspan
         x="0 5.5933018"
         y="0"
         id="tspan8459">nd</tspan></text>
    <text
       xml:space="preserve"
       transform="matrix(1,0,0,-1,228.3957,447.7178)"
       style="font-variant:normal;font-weight:normal;font-stretch:normal;font-size:18px;font-family:Kalam;-inkscape-font-specification:Kalam-Regular;writing-mode:lr-tb;fill:#231f20;fill-opacity:1;fill-rule:nonzero;stroke:none"
       id="text8465"><tspan
         x="0 9.8280001 18.27"
         y="0"
         id="tspan8463">Law</tspan></text>
    <path
       d="M 266.386,437.588 H 192.32 v 33.427 h 74.066 z"
       style="fill:none;stroke:#231f20;stroke-width:1;stroke-linecap:butt;stroke-linejoin:miter;stroke-miterlimit:10;stroke-dasharray:none;stroke-opacity:1"
       id="path8467" />
    <text
       xml:space="preserve"
       transform="matrix(1,0,0,-1,178.9087,397.9004)"
       style="font-variant:normal;font-weight:normal;font-stretch:normal;font-size:18px;font-family:Kalam;-inkscape-font-specification:Kalam-Regular;writing-mode:lr-tb;fill:#231f20;fill-opacity:1;fill-rule:nonzero;stroke:none"
       id="text8471"><tspan
         x="0"
         y="0"
         id="tspan8469">1</tspan></text>
    <text
       xml:space="preserve"
       transform="matrix(1,0,0,-1,184.5605,403.8945)"
       style="font-variant:normal;font-weight:normal;font-stretch:normal;font-size:10.494px;font-family:Kalam;-inkscape-font-specification:Kalam-Regular;writing-mode:lr-tb;fill:#231f20;fill-opacity:1;fill-rule:nonzero;stroke:none"
       id="text8475"><tspan
         x="0 4.4704442"
         y="0"
         id="tspan8473">st</tspan></text>
    <text
       xml:space="preserve"
       transform="matrix(1,0,0,-1,200.3103,397.9004)"
       style="font-variant:normal;font-weight:normal;font-stretch:normal;font-size:18px;font-family:Kalam;-inkscape-font-specification:Kalam-Regular;writing-mode:lr-tb;fill:#231f20;fill-opacity:1;fill-rule:nonzero;stroke:none"
       id="text8479"><tspan
         x="0 9.8280001 18.27"
         y="0"
         id="tspan8477">Law</tspan></text>
    <path
       d="m 241.852,387.771 h -74.067 v 33.426 h 74.067 z"
       style="fill:none;stroke:#231f20;stroke-width:1;stroke-linecap:butt;stroke-linejoin:miter;stroke-miterlimit:10;stroke-dasharray:none;stroke-opacity:1"
       id="path8481" />
    <g
       id="g8483">
      <g
         id="g8485"
         clip-path="url(#clipPath8489)">
        <path
           d="M 149.56,357.041 H 0.124 v 126.96 H 149.56 Z"
           style="fill:none;stroke:#231f20;stroke-width:0.25;stroke-linecap:butt;stroke-linejoin:miter;stroke-miterlimit:10;stroke-dasharray:none;stroke-opacity:1"
           id="path8491" />
      </g>
    </g>
    <text
       xml:space="preserve"
       transform="matrix(1,0,0,-1,29.1323,400.8154)"
       style="font-variant:normal;font-weight:normal;font-stretch:normal;font-size:18.4094px;font-family:Kalam;-inkscape-font-specification:Kalam-Regular;writing-mode:lr-tb;fill:#231f20;fill-opacity:1;fill-rule:nonzero;stroke:none"
       id="text8495"><tspan
         x="0 9.7753916 19.62442"
         y="0"
         id="tspan8493">STL</tspan></text>
    <path
       d="M 65.925,387.98 H 21.296 v 33.007 h 44.629 z"
       style="fill:none;stroke:#231f20;stroke-width:1;stroke-linecap:butt;stroke-linejoin:miter;stroke-miterlimit:10;stroke-dasharray:none;stroke-opacity:1"
       id="path8497" />
    <path
       d="M 117.072,434.956 H 21.296 v 33.426 h 95.776 z"
       style="fill:#ffffff;fill-opacity:1;fill-rule:nonzero;stroke:#231f20;stroke-width:1;stroke-linecap:butt;stroke-linejoin:miter;stroke-miterlimit:10;stroke-dasharray:none;stroke-opacity:1"
       id="path8499" />
    <text
       xml:space="preserve"
       transform="matrix(1,0,0,-1,27.2441,448.083)"
       style="font-variant:normal;font-weight:normal;font-stretch:normal;font-size:18px;font-family:Kalam;-inkscape-font-specification:Kalam-Regular;writing-mode:lr-tb;fill:#231f20;fill-opacity:1;fill-rule:nonzero;stroke:none"
       id="text8503"><tspan
         x="0 9.7740002 20.718 31.5 39.762001 51.228001 59.669998 68.112 76.211998"
         y="0"
         id="tspan8501">PAC-Bayes</tspan></text>
    <text
       xml:space="preserve"
       transform="matrix(1,0,0,-1,79.0088,400.8154)"
       style="font-variant:normal;font-weight:normal;font-stretch:normal;font-size:18.4094px;font-family:Kalam;-inkscape-font-specification:Kalam-Regular;writing-mode:lr-tb;fill:#231f20;fill-opacity:1;fill-rule:nonzero;stroke:none"
       id="text8507"><tspan
         x="0 9.9963045 21.189219"
         y="0"
         id="tspan8505">PAC</tspan></text>
    <path
       d="M 117.072,387.98 H 72.443 v 33.007 h 44.629 z"
       style="fill:none;stroke:#231f20;stroke-width:1;stroke-linecap:butt;stroke-linejoin:miter;stroke-miterlimit:10;stroke-dasharray:none;stroke-opacity:1"
       id="path8509" />
    <text
       xml:space="preserve"
       transform="matrix(1,0,0,-1,7.0879,364.8818)"
       style="font-variant:normal;font-weight:normal;font-stretch:condensed;font-size:16px;font-family:'Minion Pro Cond Disp';-inkscape-font-specification:MinionPro-CnDisp;writing-mode:lr-tb;fill:#231f20;fill-opacity:1;fill-rule:nonzero;stroke:none"
       id="text8513"><tspan
         x="0 11.312 17.040001 22.271999 29.040001 32.431999 39.486401 45.006401 47.566399 54.608002 60.350399 66.014397 70.862396 77.886398 81.278397 88.176003 94.158401 96.718399 110.0304 115.7264 121.9344 127.0864"
         y="0"
         id="tspan8511">Machine Learning Teory</tspan></text>
    <path
       d="m 96.608,493.743 h 187.65 V 608.986 H 96.608 Z"
       style="fill:#ffffff;fill-opacity:1;fill-rule:nonzero;stroke:none"
       id="path8515" />
    <path
       d="M 284.258,493.743 H 96.609 v 115.243 h 187.649 z"
       style="fill:none;stroke:#231f20;stroke-width:0.25;stroke-linecap:butt;stroke-linejoin:miter;stroke-miterlimit:10;stroke-dasharray:none;stroke-opacity:1"
       id="path8517" />
    <text
       xml:space="preserve"
       transform="matrix(1,0,0,-1,111.6436,504.6191)"
       style="font-variant:normal;font-weight:normal;font-stretch:condensed;font-size:16px;font-family:'Minion Pro Cond Disp';-inkscape-font-specification:MinionPro-CnDisp;writing-mode:lr-tb;fill:#231f20;fill-opacity:1;fill-rule:nonzero;stroke:none"
       id="text8521"><tspan
         x="0 4.0320001 11.056 14.72 20.927999 25.775999 36.543999 42.127998 46.175999 49.584 55.792 62.832001 65.391998 78.704002 84.400002 90.608002 95.120003 100.656 104.7024 108.1104 113.5504 116.1104 123.1504 128.89439 134.5584 139.4064 146.4304 149.8224 156.7184"
         y="0"
         id="tspan8519">Information Teoretic Learning</tspan></text>
    <text
       xml:space="preserve"
       transform="matrix(1,0,0,-1,173.7495,537.6045)"
       style="font-variant:normal;font-weight:normal;font-stretch:normal;font-size:18.4094px;font-family:Kalam;-inkscape-font-specification:Kalam-Regular;writing-mode:lr-tb;fill:#231f20;fill-opacity:1;fill-rule:nonzero;stroke:none"
       id="text8525"><tspan
         x="0 14.525017 26.39908"
         y="0"
         id="tspan8523">MDL</tspan></text>
    <path
       d="M 213.929,524.77 H 169.3 v 33.007 h 44.629 z"
       style="fill:none;stroke:#231f20;stroke-width:1;stroke-linecap:butt;stroke-linejoin:miter;stroke-miterlimit:10;stroke-dasharray:none;stroke-opacity:1"
       id="path8527" />
    <path
       d="M 250.887,566.199 H 132.341 v 33.427 h 118.546 z"
       style="fill:#ffffff;fill-opacity:1;fill-rule:nonzero;stroke:#231f20;stroke-width:1;stroke-linecap:butt;stroke-linejoin:miter;stroke-miterlimit:10;stroke-dasharray:none;stroke-opacity:1"
       id="path8529" />
    <text
       xml:space="preserve"
       transform="matrix(1,0,0,-1,138.0571,579.3262)"
       style="font-variant:normal;font-weight:normal;font-stretch:normal;font-size:18px;font-family:Kalam;-inkscape-font-specification:Kalam-Regular;writing-mode:lr-tb;fill:#231f20;fill-opacity:1;fill-rule:nonzero;stroke:none"
       id="text8533"><tspan
         x="0 9.7740002 20.718 31.5 39.762001 49.32 58.967999 67.410004 77.003998 86.598 94.751999"
         y="0"
         id="tspan8531">PAC-Shannon</tspan></text>
    <path
       d="m 1.138,268.215 h 283.12 v 78.639 H 1.138 Z"
       style="fill:#ffffff;fill-opacity:1;fill-rule:nonzero;stroke:none"
       id="path8535" />
    <path
       d="M 284.258,268.215 H 1.138 v 78.64 h 283.12 z"
       style="fill:none;stroke:#231f20;stroke-width:0.25;stroke-linecap:butt;stroke-linejoin:miter;stroke-miterlimit:10;stroke-dasharray:none;stroke-opacity:1"
       id="path8537" />
    <text
       xml:space="preserve"
       transform="matrix(1,0,0,-1,7.0879,276.6426)"
       style="font-variant:normal;font-weight:normal;font-stretch:condensed;font-size:16px;font-family:'Minion Pro Cond Disp';-inkscape-font-specification:MinionPro-CnDisp;writing-mode:lr-tb;fill:#231f20;fill-opacity:1;fill-rule:nonzero;stroke:none"
       id="text8541"><tspan
         x="0 8.592 13.552 17.5984 20.992001 27.903999 33.344002 36.8144 42.622398 45.774399 48.3344 52.366402 59.262402 63.150398 68.750397 71.982399 75.116798 78.540802 84.446404 90.0784 97.132797 102.4928"
         y="0"
         id="tspan8539">Artifcial Intelligence</tspan></text>
    <text
       xml:space="preserve"
       transform="matrix(1,0,0,-1,139.6558,315.4014)"
       style="font-variant:normal;font-weight:normal;font-stretch:normal;font-size:18px;font-family:Kalam;-inkscape-font-specification:Kalam-Regular;writing-mode:lr-tb;fill:#231f20;fill-opacity:1;fill-rule:nonzero;stroke:none"
       id="text8545"><tspan
         x="0 10.782 18.936001 28.530001 38.124001 46.223999 54.234001 61.200001 65.484001 73.638 83.232002 87.515999 95.183998"
         y="0"
         id="tspan8543">Connectionism</tspan></text>
    <path
       d="M 266.386,302.484 H 125.563 v 33.008 h 140.823 z"
       style="fill:none;stroke:#231f20;stroke-width:1;stroke-linecap:butt;stroke-linejoin:miter;stroke-miterlimit:10;stroke-dasharray:none;stroke-opacity:1"
       id="path8547" />
    <text
       xml:space="preserve"
       transform="matrix(1,0,0,-1,26.7061,315.4014)"
       style="font-variant:normal;font-weight:normal;font-stretch:normal;font-size:18px;font-family:Kalam;-inkscape-font-specification:Kalam-Regular;writing-mode:lr-tb;fill:#231f20;fill-opacity:1;fill-rule:nonzero;stroke:none"
       id="text8551"><tspan
         x="0 9.5579996 18 32.327999 41.778 49.931999 54.341999 58.625999 66.293999"
         y="0"
         id="tspan8549">Symbolism</tspan></text>
    <path
       d="M 117.072,302.484 H 19.655 v 33.008 h 97.417 z"
       style="fill:none;stroke:#231f20;stroke-width:1;stroke-linecap:butt;stroke-linejoin:miter;stroke-miterlimit:10;stroke-dasharray:none;stroke-opacity:1"
       id="path8553" />
    <path
       d="m 1.138,176.849 h 283.12 v 81.727 H 1.138 Z"
       style="fill:#ffffff;fill-opacity:1;fill-rule:nonzero;stroke:none"
       id="path8555" />
    <path
       d="M 284.258,176.849 H 1.138 v 81.728 h 283.12 z"
       style="fill:none;stroke:#231f20;stroke-width:0.25;stroke-linecap:butt;stroke-linejoin:miter;stroke-miterlimit:10;stroke-dasharray:none;stroke-opacity:1"
       id="path8557" />
    <text
       xml:space="preserve"
       transform="matrix(1,0,0,-1,7.0879,188.2754)"
       style="font-variant:normal;font-weight:normal;font-stretch:condensed;font-size:16px;font-family:'Minion Pro Cond Disp';-inkscape-font-specification:MinionPro-CnDisp;writing-mode:lr-tb;fill:#231f20;fill-opacity:1;fill-rule:nonzero;stroke:none"
       id="text8561"><tspan
         x="0 7.2480001 12.912 19.808001 25.968 32.784 38.543999 44.448002"
         y="0"
         id="tspan8559">Language</tspan></text>
    <text
       xml:space="preserve"
       transform="matrix(1,0,0,-1,32.0776,225.3281)"
       style="font-variant:normal;font-weight:normal;font-stretch:normal;font-size:18px;font-family:Kalam;-inkscape-font-specification:Kalam-Regular;writing-mode:lr-tb;fill:#231f20;fill-opacity:1;fill-rule:nonzero;stroke:none"
       id="text8565"><tspan
         x="0 9.8280001 17.982 26.532 30.816"
         y="0"
         id="tspan8563">Logic</tspan></text>
    <path
       d="M 85.213,212.411 H 17.768 v 33.007 h 67.445 z"
       style="fill:none;stroke:#231f20;stroke-width:1;stroke-linecap:butt;stroke-linejoin:miter;stroke-miterlimit:10;stroke-dasharray:none;stroke-opacity:1"
       id="path8567" />
    <text
       xml:space="preserve"
       transform="matrix(1,0,0,-1,112.542,225.3281)"
       style="font-variant:normal;font-weight:normal;font-stretch:normal;font-size:18px;font-family:Kalam;-inkscape-font-specification:Kalam-Regular;writing-mode:lr-tb;fill:#231f20;fill-opacity:1;fill-rule:nonzero;stroke:none"
       id="text8571"><tspan
         x="0 11.466 19.908001 28.35 36.450001 44.118 48.402 56.844002 66.438004 73.655998 79.236 88.830002 95.598 103.698 109.656 117.756 127.35 135.36"
         y="0"
         id="tspan8569">Bayesian Inference</tspan></text>
    <path
       d="M 266.386,212.411 H 102.157 v 33.007 h 164.229 z"
       style="fill:none;stroke:#231f20;stroke-width:1;stroke-linecap:butt;stroke-linejoin:miter;stroke-miterlimit:10;stroke-dasharray:none;stroke-opacity:1"
       id="path8573" />
    <path
       d="m 1.138,0.125 h 283.12 V 167.07 H 1.138 Z"
       style="fill:#ffffff;fill-opacity:1;fill-rule:nonzero;stroke:none"
       id="path8575" />
    <g
       id="g8577">
      <g
         id="g8579"
         clip-path="url(#clipPath8583)">
        <path
           d="M 284.258,0.125 H 1.138 V 167.07 h 283.12 z"
           style="fill:none;stroke:#231f20;stroke-width:0.25;stroke-linecap:butt;stroke-linejoin:miter;stroke-miterlimit:10;stroke-dasharray:none;stroke-opacity:1"
           id="path8585" />
      </g>
    </g>
    <text
       xml:space="preserve"
       transform="matrix(1,0,0,-1,7.1992,11.7471)"
       style="font-variant:normal;font-weight:normal;font-stretch:condensed;font-size:16px;font-family:'Minion Pro Cond Disp';-inkscape-font-specification:MinionPro-CnDisp;writing-mode:lr-tb;fill:#231f20;fill-opacity:1;fill-rule:nonzero;stroke:none"
       id="text8589"><tspan
         x="0 6.9439998 13.504 16.799999 21.52 25.408001 31.040001 41.824001 48.063999 51.216 57.599998 64.047997"
         y="0"
         id="tspan8587">Epistemology</tspan></text>
    <text
       xml:space="preserve"
       transform="matrix(1,0,0,-1,107.9595,28.7412)"
       style="font-variant:normal;font-weight:normal;font-stretch:normal;font-size:18px;font-family:Kalam;-inkscape-font-specification:Kalam-Regular;writing-mode:lr-tb;fill:#231f20;fill-opacity:1;fill-rule:nonzero;stroke:none"
       id="text8593"><tspan
         x="0 5.5799999 15.174 22.139999 30.24 34.650002 39.060001 43.344002 51.894001 59.993999 69.587997 77.598"
         y="0"
         id="tspan8591">Intelligence</tspan></text>
    <path
       d="M 205.413,15.825 H 96.203 v 33.007 h 109.21 z"
       style="fill:none;stroke:#231f20;stroke-width:1;stroke-linecap:butt;stroke-linejoin:miter;stroke-miterlimit:10;stroke-dasharray:none;stroke-opacity:1"
       id="path8595" />
    <path
       d="M 265.96,61.307 H 19.627 v 50.345 H 265.96 Z"
       style="fill:none;stroke:#231f20;stroke-width:1;stroke-linecap:butt;stroke-linejoin:miter;stroke-miterlimit:10;stroke-dasharray:none;stroke-opacity:1"
       id="path8597" />
    <text
       xml:space="preserve"
       transform="matrix(1,0,0,-1,26.6924,92.7891)"
       style="font-variant:normal;font-weight:normal;font-stretch:normal;font-size:12px;font-family:Kalam;-inkscape-font-specification:Kalam-Regular;writing-mode:lr-tb;fill:#231f20;fill-opacity:1;fill-rule:nonzero;stroke:none"
       id="text8603"><tspan
         x="0 7.0079999 12.636 17.280001 20.136 25.572001 31.968 37.596001 40.535999 43.391998 48.504002"
         y="0"
         id="tspan8599">Rationalist</tspan><tspan
         x="15.216 21.6 24.455999 29.856001"
         y="17.4"
         id="tspan8601">View</tspan></text>
    <text
       xml:space="preserve"
       transform="matrix(1,0,0,-1,99.6631,82.8931)"
       style="font-variant:normal;font-weight:normal;font-stretch:normal;font-size:18px;font-family:Kalam;-inkscape-font-specification:Kalam-Regular;writing-mode:lr-tb;fill:#231f20;fill-opacity:1;fill-rule:nonzero;stroke:none"
       id="text8607"><tspan
         x="0 10.638 20.232 28.386 40.5 44.91 53.009998 61.992001 70.542"
         y="0"
         id="tspan8605">Knowledge</tspan></text>
    <text
       xml:space="preserve"
       transform="matrix(1,0,0,-1,205.6084,92.7891)"
       style="font-variant:normal;font-weight:normal;font-stretch:normal;font-size:12px;font-family:Kalam;-inkscape-font-specification:Kalam-Regular;writing-mode:lr-tb;fill:#231f20;fill-opacity:1;fill-rule:nonzero;stroke:none"
       id="text8613"><tspan
         x="0 6.3720002 11.712 17.112 22.848 27.492001 30.348 35.688 41.316002"
         y="0"
         id="tspan8609">Sceptical</tspan><tspan
         x="10.764 17.148001 20.004 25.403999"
         y="17.4"
         id="tspan8611">View</tspan></text>
    <text
       xml:space="preserve"
       transform="matrix(1,0,0,-1,33.7207,137.4678)"
       style="font-variant:normal;font-weight:normal;font-stretch:normal;font-size:18px;font-family:Kalam;-inkscape-font-specification:Kalam-Regular;writing-mode:lr-tb;fill:#231f20;fill-opacity:1;fill-rule:nonzero;stroke:none"
       id="text8617"><tspan
         x="0 14.202 22.643999 29.610001"
         y="0"
         id="tspan8615">Math</tspan></text>
    <path
       d="M 87.072,124.551 H 19.627 v 33.007 h 67.445 z"
       style="fill:none;stroke:#231f20;stroke-width:1;stroke-linecap:butt;stroke-linejoin:miter;stroke-miterlimit:10;stroke-dasharray:none;stroke-opacity:1"
       id="path8619" />
    <text
       xml:space="preserve"
       transform="matrix(1,0,0,-1,199.8047,137.4673)"
       style="font-variant:normal;font-weight:normal;font-stretch:normal;font-size:18px;font-family:Kalam;-inkscape-font-specification:Kalam-Regular;writing-mode:lr-tb;fill:#231f20;fill-opacity:1;fill-rule:nonzero;stroke:none"
       id="text8623"><tspan
         x="0 9.5579996 17.568001 21.851999 29.952 39.546001 47.556"
         y="0"
         id="tspan8621">Science</tspan></text>
    <path
       d="m 266.497,124.551 h -77.729 v 33.007 h 77.729 z"
       style="fill:none;stroke:#231f20;stroke-width:1;stroke-linecap:butt;stroke-linejoin:miter;stroke-miterlimit:10;stroke-dasharray:none;stroke-opacity:1"
       id="path8625" />
  </g>
</svg>
