<?xml version="1.0" encoding="UTF-8" standalone="no"?>
<!-- Created with Inkscape (http://www.inkscape.org/) -->

<svg
   version="1.1"
   id="svg8966"
   width="379.03201"
   height="344.36401"
   viewBox="0 0 379.03201 344.36401"
   xmlns="http://www.w3.org/2000/svg"
   xmlns:svg="http://www.w3.org/2000/svg">
  <defs
     id="defs8970">
    <clipPath
       clipPathUnits="userSpaceOnUse"
       id="clipPath8982">
      <path
         d="M 0,258.273 H 284.274 V 0 H 0 Z"
         id="path8980" />
    </clipPath>
    <clipPath
       clipPathUnits="userSpaceOnUse"
       id="clipPath9040">
      <path
         d="M 0,258.273 H 284.274 V 0 H 0 Z"
         id="path9038" />
    </clipPath>
    <clipPath
       clipPathUnits="userSpaceOnUse"
       id="clipPath9074">
      <path
         d="M 0,258.273 H 284.274 V 0 H 0 Z"
         id="path9072" />
    </clipPath>
    <clipPath
       clipPathUnits="userSpaceOnUse"
       id="clipPath9088">
      <path
         d="M 0,258.273 H 284.274 V 0 H 0 Z"
         id="path9086" />
    </clipPath>
  </defs>
  <g
     id="g8972"
     transform="matrix(1.3333333,0,0,-1.3333333,0,344.364)">
    <path
       d="m 0.125,0.125 h 283.12 V 167.07 H 0.125 Z"
       style="fill:#ffffff;fill-opacity:1;fill-rule:nonzero;stroke:none"
       id="path8974" />
    <g
       id="g8976">
      <g
         id="g8978"
         clip-path="url(#clipPath8982)">
        <path
           d="M 283.245,0.125 H 0.125 V 167.07 h 283.12 z"
           style="fill:none;stroke:#231f20;stroke-width:0.25;stroke-linecap:butt;stroke-linejoin:miter;stroke-miterlimit:10;stroke-dasharray:none;stroke-opacity:1"
           id="path8984" />
      </g>
    </g>
    <text
       xml:space="preserve"
       transform="matrix(1,0,0,-1,6.187,11.7471)"
       style="font-variant:normal;font-weight:normal;font-stretch:condensed;font-size:16px;font-family:'Minion Pro Cond Disp';-inkscape-font-specification:MinionPro-CnDisp;writing-mode:lr-tb;fill:#231f20;fill-opacity:1;fill-rule:nonzero;stroke:none"
       id="text8988"><tspan
         x="0 6.9439998 13.504 16.799999 21.52 25.408001 31.040001 41.824001 48.063999 51.216 57.599998 64.047997"
         y="0"
         id="tspan8986">Epistemology</tspan></text>
    <text
       xml:space="preserve"
       transform="matrix(1,0,0,-1,106.9468,28.7412)"
       style="font-variant:normal;font-weight:normal;font-stretch:normal;font-size:18px;font-family:Kalam;-inkscape-font-specification:Kalam-Regular;writing-mode:lr-tb;fill:#231f20;fill-opacity:1;fill-rule:nonzero;stroke:none"
       id="text8992"><tspan
         x="0 5.5799999 15.174 22.139999 30.24 34.650002 39.060001 43.344002 51.894001 59.993999 69.587997 77.598"
         y="0"
         id="tspan8990">Intelligence</tspan></text>
    <path
       d="M 204.4,15.825 H 95.19 V 48.832 H 204.4 Z"
       style="fill:none;stroke:#231f20;stroke-width:1;stroke-linecap:butt;stroke-linejoin:miter;stroke-miterlimit:10;stroke-dasharray:none;stroke-opacity:1"
       id="path8994" />
    <path
       d="M 264.948,61.307 H 18.615 v 50.344 h 246.333 z"
       style="fill:none;stroke:#231f20;stroke-width:1;stroke-linecap:butt;stroke-linejoin:miter;stroke-miterlimit:10;stroke-dasharray:none;stroke-opacity:1"
       id="path8996" />
    <text
       xml:space="preserve"
       transform="matrix(1,0,0,-1,25.6802,92.7881)"
       style="font-variant:normal;font-weight:normal;font-stretch:normal;font-size:12px;font-family:Kalam;-inkscape-font-specification:Kalam-Regular;writing-mode:lr-tb;fill:#231f20;fill-opacity:1;fill-rule:nonzero;stroke:none"
       id="text9002"><tspan
         x="0 7.0079999 12.636 17.280001 20.136 25.572001 31.968 37.596001 40.535999 43.391998 48.504002"
         y="0"
         id="tspan8998">Rationalist</tspan><tspan
         x="15.216 21.6 24.455999 29.856001"
         y="17.4"
         id="tspan9000">View</tspan></text>
    <text
       xml:space="preserve"
       transform="matrix(1,0,0,-1,98.6509,82.8931)"
       style="font-variant:normal;font-weight:normal;font-stretch:normal;font-size:18px;font-family:Kalam;-inkscape-font-specification:Kalam-Regular;writing-mode:lr-tb;fill:#231f20;fill-opacity:1;fill-rule:nonzero;stroke:none"
       id="text9006"><tspan
         x="0 10.638 20.232 28.386 40.5 44.91 53.009998 61.992001 70.542"
         y="0"
         id="tspan9004">Knowledge</tspan></text>
    <text
       xml:space="preserve"
       transform="matrix(1,0,0,-1,204.5957,92.7891)"
       style="font-variant:normal;font-weight:normal;font-stretch:normal;font-size:12px;font-family:Kalam;-inkscape-font-specification:Kalam-Regular;writing-mode:lr-tb;fill:#231f20;fill-opacity:1;fill-rule:nonzero;stroke:none"
       id="text9012"><tspan
         x="0 6.3720002 11.712 17.112 22.848 27.492001 30.348 35.688 41.316002"
         y="0"
         id="tspan9008">Sceptical</tspan><tspan
         x="10.764 17.148001 20.004 25.403999"
         y="17.4"
         id="tspan9010">View</tspan></text>
    <text
       xml:space="preserve"
       transform="matrix(1,0,0,-1,32.708,137.4678)"
       style="font-variant:normal;font-weight:normal;font-stretch:normal;font-size:18px;font-family:Kalam;-inkscape-font-specification:Kalam-Regular;writing-mode:lr-tb;fill:#231f20;fill-opacity:1;fill-rule:nonzero;stroke:none"
       id="text9016"><tspan
         x="0 14.202 22.643999 29.610001"
         y="0"
         id="tspan9014">Math</tspan></text>
    <path
       d="M 86.059,124.551 H 18.615 v 33.007 h 67.444 z"
       style="fill:none;stroke:#231f20;stroke-width:1;stroke-linecap:butt;stroke-linejoin:miter;stroke-miterlimit:10;stroke-dasharray:none;stroke-opacity:1"
       id="path9018" />
    <text
       xml:space="preserve"
       transform="matrix(1,0,0,-1,198.7925,137.4673)"
       style="font-variant:normal;font-weight:normal;font-stretch:normal;font-size:18px;font-family:Kalam;-inkscape-font-specification:Kalam-Regular;writing-mode:lr-tb;fill:#231f20;fill-opacity:1;fill-rule:nonzero;stroke:none"
       id="text9022"><tspan
         x="0 9.5579996 17.568001 21.851999 29.952 39.546001 47.556"
         y="0"
         id="tspan9020">Science</tspan></text>
    <path
       d="m 265.485,124.551 h -77.729 v 33.007 h 77.729 z"
       style="fill:none;stroke:#231f20;stroke-width:1;stroke-linecap:butt;stroke-linejoin:miter;stroke-miterlimit:10;stroke-dasharray:none;stroke-opacity:1"
       id="path9024" />
    <g
       id="g9026"
       transform="translate(225.315,105.5142)">
      <path
         d="M 0,0 0.291,17.414 Z"
         style="fill:#ffffff;fill-opacity:1;fill-rule:nonzero;stroke:none"
         id="path9028" />
    </g>
    <g
       id="g9030"
       transform="translate(225.3153,105.5141)">
      <path
         d="M 0,0 0.19,11.38"
         style="fill:none;stroke:#231f20;stroke-width:1;stroke-linecap:butt;stroke-linejoin:miter;stroke-miterlimit:10;stroke-dasharray:none;stroke-opacity:1"
         id="path9032" />
    </g>
    <g
       id="g9034">
      <g
         id="g9036"
         clip-path="url(#clipPath9040)">
        <g
           id="g9042"
           transform="translate(225.6058,122.9282)">
          <path
             d="m 0,0 c 1.006,-2.856 2.745,-6.409 4.613,-8.625 l -4.727,1.799 -4.782,-1.641 C -2.956,-6.314 -1.1,-2.821 0,0"
             style="fill:#231f20;fill-opacity:1;fill-rule:nonzero;stroke:none"
             id="path9044" />
        </g>
        <g
           id="g9046"
           transform="translate(52.0164,106.2475)">
          <path
             d="M 0,0 0.291,17.414"
             style="fill:#ffffff;fill-opacity:1;fill-rule:nonzero;stroke:none"
             id="path9048" />
        </g>
        <g
           id="g9050"
           transform="translate(52.0164,106.2475)">
          <path
             d="M 0,0 0.19,11.38"
             style="fill:none;stroke:#231f20;stroke-width:1;stroke-linecap:butt;stroke-linejoin:miter;stroke-miterlimit:10;stroke-dasharray:none;stroke-opacity:1"
             id="path9052" />
        </g>
        <g
           id="g9054"
           transform="translate(52.307,123.6616)">
          <path
             d="m 0,0 c 1.006,-2.857 2.745,-6.41 4.613,-8.626 l -4.727,1.8 -4.783,-1.641 C -2.956,-6.314 -1.1,-2.822 0,0"
             style="fill:#231f20;fill-opacity:1;fill-rule:nonzero;stroke:none"
             id="path9056" />
        </g>
        <path
           d="M 284.149,176.419 H 1.028 v 81.729 h 283.121 z"
           style="fill:#ffffff;fill-opacity:1;fill-rule:nonzero;stroke:#231f20;stroke-width:0.25;stroke-linecap:butt;stroke-linejoin:miter;stroke-miterlimit:10;stroke-dasharray:none;stroke-opacity:1"
           id="path9058" />
      </g>
    </g>
    <text
       xml:space="preserve"
       transform="matrix(1,0,0,-1,116.979,187.8467)"
       style="font-variant:normal;font-weight:normal;font-stretch:condensed;font-size:16px;font-family:'Minion Pro Cond Disp';-inkscape-font-specification:MinionPro-CnDisp;writing-mode:lr-tb;fill:#231f20;fill-opacity:1;fill-rule:nonzero;stroke:none"
       id="text9062"><tspan
         x="0 7.2480001 12.912 19.808001 25.968 32.784 38.543999 44.448002"
         y="0"
         id="tspan9060">Language</tspan></text>
    <text
       xml:space="preserve"
       transform="matrix(1,0,0,-1,31.9688,224.8984)"
       style="font-variant:normal;font-weight:normal;font-stretch:normal;font-size:18px;font-family:Kalam;-inkscape-font-specification:Kalam-Regular;writing-mode:lr-tb;fill:#231f20;fill-opacity:1;fill-rule:nonzero;stroke:none"
       id="text9066"><tspan
         x="0 9.8280001 17.982 26.532 30.816"
         y="0"
         id="tspan9064">Logic</tspan></text>
    <g
       id="g9068">
      <g
         id="g9070"
         clip-path="url(#clipPath9074)">
        <path
           d="M 85.103,211.982 H 17.659 v 33.008 h 67.444 z"
           style="fill:none;stroke:#231f20;stroke-width:1;stroke-linecap:butt;stroke-linejoin:miter;stroke-miterlimit:10;stroke-dasharray:none;stroke-opacity:1"
           id="path9076" />
      </g>
    </g>
    <text
       xml:space="preserve"
       transform="matrix(1,0,0,-1,112.4331,224.8984)"
       style="font-variant:normal;font-weight:normal;font-stretch:normal;font-size:18px;font-family:Kalam;-inkscape-font-specification:Kalam-Regular;writing-mode:lr-tb;fill:#231f20;fill-opacity:1;fill-rule:nonzero;stroke:none"
       id="text9080"><tspan
         x="0 11.466 19.908001 28.35 36.450001 44.118 48.402 56.844002 66.438004 73.655998 79.236 88.830002 95.598 103.698 109.656 117.756 127.35 135.36"
         y="0"
         id="tspan9078">Bayesian Inference</tspan></text>
    <g
       id="g9082">
      <g
         id="g9084"
         clip-path="url(#clipPath9088)">
        <path
           d="M 266.277,211.982 H 102.048 v 33.008 h 164.229 z"
           style="fill:none;stroke:#231f20;stroke-width:1;stroke-linecap:butt;stroke-linejoin:miter;stroke-miterlimit:10;stroke-dasharray:none;stroke-opacity:1"
           id="path9090" />
        <g
           id="g9092"
           transform="translate(52.1273,157.3608)">
          <path
             d="M 0,0 -0.055,54.55"
             style="fill:#ffffff;fill-opacity:1;fill-rule:nonzero;stroke:none"
             id="path9094" />
        </g>
        <g
           id="g9096"
           transform="translate(52.1273,157.3608)">
          <path
             d="M 0,0 -0.048,48.514"
             style="fill:none;stroke:#231f20;stroke-width:1;stroke-linecap:butt;stroke-linejoin:miter;stroke-miterlimit:10;stroke-dasharray:none;stroke-opacity:1"
             id="path9098" />
        </g>
        <g
           id="g9100"
           transform="translate(52.0726,211.9096)">
          <path
             d="M 0,0 C 1.057,-2.838 2.858,-6.36 4.765,-8.542 L 0.007,-6.826 -4.746,-8.552 C -2.844,-6.365 -1.05,-2.841 0,0"
             style="fill:#231f20;fill-opacity:1;fill-rule:nonzero;stroke:none"
             id="path9102" />
        </g>
        <g
           id="g9104"
           transform="translate(225.0028,156.7798)">
          <path
             d="M 0,0 0.112,54.178"
             style="fill:#ffffff;fill-opacity:1;fill-rule:nonzero;stroke:none"
             id="path9106" />
        </g>
        <g
           id="g9108"
           transform="translate(225.0028,156.7798)">
          <path
             d="M 0,0 0.1,48.143"
             style="fill:none;stroke:#231f20;stroke-width:1;stroke-linecap:butt;stroke-linejoin:miter;stroke-miterlimit:10;stroke-dasharray:none;stroke-opacity:1"
             id="path9110" />
        </g>
        <g
           id="g9112"
           transform="translate(225.1151,210.9575)">
          <path
             d="m 0,0 c 1.048,-2.843 2.838,-6.369 4.738,-8.558 l -4.752,1.731 -4.758,-1.711 C -2.864,-6.357 -1.059,-2.838 0,0"
             style="fill:#231f20;fill-opacity:1;fill-rule:nonzero;stroke:none"
             id="path9114" />
        </g>
      </g>
    </g>
  </g>
</svg>
