<?xml version="1.0" encoding="UTF-8" standalone="no"?>
<!-- Created with Inkscape (http://www.inkscape.org/) -->

<svg
   version="1.1"
   id="svg8720"
   width="379.03201"
   height="526.65997"
   viewBox="0 0 379.03201 526.65997"
   xmlns="http://www.w3.org/2000/svg"
   xmlns:svg="http://www.w3.org/2000/svg">
  <defs
     id="defs8724">
    <clipPath
       clipPathUnits="userSpaceOnUse"
       id="clipPath8736">
      <path
         d="M 0,394.995 H 284.274 V 0 H 0 Z"
         id="path8734" />
    </clipPath>
    <clipPath
       clipPathUnits="userSpaceOnUse"
       id="clipPath8782">
      <path
         d="M 0,394.995 H 284.274 V 0 H 0 Z"
         id="path8780" />
    </clipPath>
    <clipPath
       clipPathUnits="userSpaceOnUse"
       id="clipPath8804">
      <path
         d="M 0,394.995 H 284.274 V 0 H 0 Z"
         id="path8802" />
    </clipPath>
    <clipPath
       clipPathUnits="userSpaceOnUse"
       id="clipPath8838">
      <path
         d="M 0,394.995 H 284.274 V 0 H 0 Z"
         id="path8836" />
    </clipPath>
    <clipPath
       clipPathUnits="userSpaceOnUse"
       id="clipPath8852">
      <path
         d="M 0,394.995 H 284.274 V 0 H 0 Z"
         id="path8850" />
    </clipPath>
    <clipPath
       clipPathUnits="userSpaceOnUse"
       id="clipPath8866">
      <path
         d="M 0,394.995 H 284.274 V 0 H 0 Z"
         id="path8864" />
    </clipPath>
  </defs>
  <g
     id="g8726"
     transform="matrix(1.3333333,0,0,-1.3333333,0,526.66)">
    <path
       d="m 0.125,0.125 h 283.12 V 167.07 H 0.125 Z"
       style="fill:#ffffff;fill-opacity:1;fill-rule:nonzero;stroke:none"
       id="path8728" />
    <g
       id="g8730">
      <g
         id="g8732"
         clip-path="url(#clipPath8736)">
        <path
           d="M 283.245,0.125 H 0.125 V 167.07 h 283.12 z"
           style="fill:none;stroke:#231f20;stroke-width:0.25;stroke-linecap:butt;stroke-linejoin:miter;stroke-miterlimit:10;stroke-dasharray:none;stroke-opacity:1"
           id="path8738" />
      </g>
    </g>
    <text
       xml:space="preserve"
       transform="matrix(1,0,0,-1,6.187,11.7471)"
       style="font-variant:normal;font-weight:normal;font-stretch:condensed;font-size:16px;font-family:'Minion Pro Cond Disp';-inkscape-font-specification:MinionPro-CnDisp;writing-mode:lr-tb;fill:#231f20;fill-opacity:1;fill-rule:nonzero;stroke:none"
       id="text8742"><tspan
         x="0 6.9439998 13.504 16.799999 21.52 25.408001 31.040001 41.824001 48.063999 51.216 57.599998 64.047997"
         y="0"
         id="tspan8740">Epistemology</tspan></text>
    <text
       xml:space="preserve"
       transform="matrix(1,0,0,-1,106.9468,28.7412)"
       style="font-variant:normal;font-weight:normal;font-stretch:normal;font-size:18px;font-family:Kalam;-inkscape-font-specification:Kalam-Regular;writing-mode:lr-tb;fill:#231f20;fill-opacity:1;fill-rule:nonzero;stroke:none"
       id="text8746"><tspan
         x="0 5.5799999 15.174 22.139999 30.24 34.650002 39.060001 43.344002 51.894001 59.993999 69.587997 77.598"
         y="0"
         id="tspan8744">Intelligence</tspan></text>
    <path
       d="M 204.4,15.825 H 95.19 V 48.832 H 204.4 Z"
       style="fill:none;stroke:#231f20;stroke-width:1;stroke-linecap:butt;stroke-linejoin:miter;stroke-miterlimit:10;stroke-dasharray:none;stroke-opacity:1"
       id="path8748" />
    <path
       d="M 264.948,61.307 H 18.615 v 50.344 h 246.333 z"
       style="fill:none;stroke:#231f20;stroke-width:1;stroke-linecap:butt;stroke-linejoin:miter;stroke-miterlimit:10;stroke-dasharray:none;stroke-opacity:1"
       id="path8750" />
    <text
       xml:space="preserve"
       transform="matrix(1,0,0,-1,98.6509,82.8931)"
       style="font-variant:normal;font-weight:normal;font-stretch:normal;font-size:18px;font-family:Kalam;-inkscape-font-specification:Kalam-Regular;writing-mode:lr-tb;fill:#231f20;fill-opacity:1;fill-rule:nonzero;stroke:none"
       id="text8754"><tspan
         x="0 10.638 20.232 28.386 40.5 44.91 53.009998 61.992001 70.542"
         y="0"
         id="tspan8752">Knowledge</tspan></text>
    <text
       xml:space="preserve"
       transform="matrix(1,0,0,-1,204.5957,92.7891)"
       style="font-variant:normal;font-weight:normal;font-stretch:normal;font-size:12px;font-family:Kalam;-inkscape-font-specification:Kalam-Regular;writing-mode:lr-tb;fill:#231f20;fill-opacity:1;fill-rule:nonzero;stroke:none"
       id="text8760"><tspan
         x="0 6.3720002 11.712 17.112 22.848 27.492001 30.348 35.688 41.316002"
         y="0"
         id="tspan8756">Sceptical</tspan><tspan
         x="10.764 17.148001 20.004 25.403999"
         y="17.4"
         id="tspan8758">View</tspan></text>
    <text
       xml:space="preserve"
       transform="matrix(1,0,0,-1,198.7925,137.4673)"
       style="font-variant:normal;font-weight:normal;font-stretch:normal;font-size:18px;font-family:Kalam;-inkscape-font-specification:Kalam-Regular;writing-mode:lr-tb;fill:#231f20;fill-opacity:1;fill-rule:nonzero;stroke:none"
       id="text8764"><tspan
         x="0 9.5579996 17.568001 21.851999 29.952 39.546001 47.556"
         y="0"
         id="tspan8762">Science</tspan></text>
    <path
       d="m 265.485,124.551 h -77.729 v 33.007 h 77.729 z"
       style="fill:none;stroke:#231f20;stroke-width:1;stroke-linecap:butt;stroke-linejoin:miter;stroke-miterlimit:10;stroke-dasharray:none;stroke-opacity:1"
       id="path8766" />
    <g
       id="g8768"
       transform="translate(225.315,105.5142)">
      <path
         d="M 0,0 0.291,17.414 Z"
         style="fill:#ffffff;fill-opacity:1;fill-rule:nonzero;stroke:none"
         id="path8770" />
    </g>
    <g
       id="g8772"
       transform="translate(225.3153,105.5141)">
      <path
         d="M 0,0 0.19,11.38"
         style="fill:none;stroke:#231f20;stroke-width:1;stroke-linecap:butt;stroke-linejoin:miter;stroke-miterlimit:10;stroke-dasharray:none;stroke-opacity:1"
         id="path8774" />
    </g>
    <g
       id="g8776">
      <g
         id="g8778"
         clip-path="url(#clipPath8782)">
        <g
           id="g8784"
           transform="translate(225.6058,122.9282)">
          <path
             d="m 0,0 c 1.006,-2.856 2.745,-6.409 4.613,-8.625 l -4.727,1.799 -4.782,-1.641 C -2.956,-6.314 -1.1,-2.821 0,0"
             style="fill:#231f20;fill-opacity:1;fill-rule:nonzero;stroke:none"
             id="path8786" />
        </g>
        <path
           d="M 284.149,176.419 H 1.028 v 81.729 h 283.121 z"
           style="fill:#ffffff;fill-opacity:1;fill-rule:nonzero;stroke:#231f20;stroke-width:0.25;stroke-linecap:butt;stroke-linejoin:miter;stroke-miterlimit:10;stroke-dasharray:none;stroke-opacity:1"
           id="path8788" />
      </g>
    </g>
    <text
       xml:space="preserve"
       transform="matrix(1,0,0,-1,6.979,187.8467)"
       style="font-variant:normal;font-weight:normal;font-stretch:condensed;font-size:16px;font-family:'Minion Pro Cond Disp';-inkscape-font-specification:MinionPro-CnDisp;writing-mode:lr-tb;fill:#231f20;fill-opacity:1;fill-rule:nonzero;stroke:none"
       id="text8792"><tspan
         x="0 7.2480001 12.912 19.808001 25.968 32.784 38.543999 44.448002"
         y="0"
         id="tspan8790">Language</tspan></text>
    <text
       xml:space="preserve"
       transform="matrix(1,0,0,-1,112.4331,224.8984)"
       style="font-variant:normal;font-weight:normal;font-stretch:normal;font-size:18px;font-family:Kalam;-inkscape-font-specification:Kalam-Regular;writing-mode:lr-tb;fill:#231f20;fill-opacity:1;fill-rule:nonzero;stroke:none"
       id="text8796"><tspan
         x="0 11.466 19.908001 28.35 36.450001 44.118 48.402 56.844002 66.438004 73.655998 79.236 88.830002 95.598 103.698 109.656 117.756 127.35 135.36"
         y="0"
         id="tspan8794">Bayesian Inference</tspan></text>
    <g
       id="g8798">
      <g
         id="g8800"
         clip-path="url(#clipPath8804)">
        <path
           d="M 266.277,211.982 H 102.048 v 33.008 h 164.229 z"
           style="fill:none;stroke:#231f20;stroke-width:1;stroke-linecap:butt;stroke-linejoin:miter;stroke-miterlimit:10;stroke-dasharray:none;stroke-opacity:1"
           id="path8806" />
        <g
           id="g8808"
           transform="translate(225.0028,156.7798)">
          <path
             d="M 0,0 0.112,54.178"
             style="fill:#ffffff;fill-opacity:1;fill-rule:nonzero;stroke:none"
             id="path8810" />
        </g>
        <g
           id="g8812"
           transform="translate(225.0028,156.7798)">
          <path
             d="M 0,0 0.1,48.143"
             style="fill:none;stroke:#231f20;stroke-width:1;stroke-linecap:butt;stroke-linejoin:miter;stroke-miterlimit:10;stroke-dasharray:none;stroke-opacity:1"
             id="path8814" />
        </g>
        <g
           id="g8816"
           transform="translate(225.1151,210.9575)">
          <path
             d="m 0,0 c 1.048,-2.843 2.838,-6.369 4.738,-8.558 l -4.752,1.731 -4.758,-1.711 C -2.864,-6.357 -1.059,-2.838 0,0"
             style="fill:#231f20;fill-opacity:1;fill-rule:nonzero;stroke:none"
             id="path8818" />
        </g>
        <path
           d="M 283.868,267.909 H 3.192 V 394.87 h 280.676 z"
           style="fill:none;stroke:#231f20;stroke-width:0.25;stroke-linecap:butt;stroke-linejoin:miter;stroke-miterlimit:10;stroke-dasharray:none;stroke-opacity:1"
           id="path8820" />
        <path
           d="M 191.417,327.824 H 95.641 v 33.427 h 95.776 z"
           style="fill:#ffffff;fill-opacity:1;fill-rule:nonzero;stroke:#231f20;stroke-width:1;stroke-linecap:butt;stroke-linejoin:miter;stroke-miterlimit:10;stroke-dasharray:none;stroke-opacity:1"
           id="path8822" />
      </g>
    </g>
    <text
       xml:space="preserve"
       transform="matrix(1,0,0,-1,101.5898,340.9512)"
       style="font-variant:normal;font-weight:normal;font-stretch:normal;font-size:18px;font-family:Kalam;-inkscape-font-specification:Kalam-Regular;writing-mode:lr-tb;fill:#231f20;fill-opacity:1;fill-rule:nonzero;stroke:none"
       id="text8826"><tspan
         x="0 9.7740002 20.718 31.5 39.762001 51.228001 59.669998 68.112 76.211998"
         y="0"
         id="tspan8824">PAC-Bayes</tspan></text>
    <text
       xml:space="preserve"
       transform="matrix(1,0,0,-1,102.2075,293.6826)"
       style="font-variant:normal;font-weight:normal;font-stretch:normal;font-size:18.4094px;font-family:Kalam;-inkscape-font-specification:Kalam-Regular;writing-mode:lr-tb;fill:#231f20;fill-opacity:1;fill-rule:nonzero;stroke:none"
       id="text8830"><tspan
         x="0 9.9963045 21.189219"
         y="0"
         id="tspan8828">PAC</tspan></text>
    <g
       id="g8832">
      <g
         id="g8834"
         clip-path="url(#clipPath8838)">
        <path
           d="M 140.27,280.848 H 95.641 v 33.007 h 44.629 z"
           style="fill:none;stroke:#231f20;stroke-width:1;stroke-linecap:butt;stroke-linejoin:miter;stroke-miterlimit:10;stroke-dasharray:none;stroke-opacity:1"
           id="path8840" />
      </g>
    </g>
    <text
       xml:space="preserve"
       transform="matrix(1,0,0,-1,154.625,293.6826)"
       style="font-variant:normal;font-weight:normal;font-stretch:normal;font-size:18.4094px;font-family:Kalam;-inkscape-font-specification:Kalam-Regular;writing-mode:lr-tb;fill:#231f20;fill-opacity:1;fill-rule:nonzero;stroke:none"
       id="text8844"><tspan
         x="0 9.7753916 19.62442"
         y="0"
         id="tspan8842">STL</tspan></text>
    <g
       id="g8846">
      <g
         id="g8848"
         clip-path="url(#clipPath8852)">
        <path
           d="m 191.417,280.848 h -44.629 v 33.007 h 44.629 z"
           style="fill:none;stroke:#231f20;stroke-width:1;stroke-linecap:butt;stroke-linejoin:miter;stroke-miterlimit:10;stroke-dasharray:none;stroke-opacity:1"
           id="path8854" />
      </g>
    </g>
    <text
       xml:space="preserve"
       transform="matrix(1,0,0,-1,9.7749,375.75)"
       style="font-variant:normal;font-weight:normal;font-stretch:condensed;font-size:16px;font-family:'Minion Pro Cond Disp';-inkscape-font-specification:MinionPro-CnDisp;writing-mode:lr-tb;fill:#231f20;fill-opacity:1;fill-rule:nonzero;stroke:none"
       id="text8858"><tspan
         x="0 11.312 17.040001 22.271999 29.040001 32.431999 39.486401 45.006401 47.566399 54.608002 60.350399 66.014397 70.862396 77.886398 81.278397 88.176003 94.158401 96.718399 110.0304 115.7264 121.9344 127.0864"
         y="0"
         id="tspan8856">Machine Learning Teory</tspan></text>
    <g
       id="g8860">
      <g
         id="g8862"
         clip-path="url(#clipPath8866)">
        <g
           id="g8868"
           transform="translate(226.0697,245.5713)">
          <path
             d="m 0,0 -0.281,50.43 -27.471,0.309"
             style="fill:none;stroke:#231f20;stroke-width:1;stroke-linecap:butt;stroke-linejoin:miter;stroke-miterlimit:10;stroke-dasharray:none;stroke-opacity:1"
             id="path8870" />
        </g>
        <g
           id="g8872"
           transform="translate(192.2826,296.3774)">
          <path
             d="M 0,0 C 2.852,1.022 6.395,2.78 8.6,4.66 L 6.827,-0.077 8.493,-4.851 C 6.331,-2.922 2.828,-1.084 0,0"
             style="fill:#231f20;fill-opacity:1;fill-rule:nonzero;stroke:none"
             id="path8874" />
        </g>
        <g
           id="g8876"
           transform="translate(225.8499,296.2461)">
          <path
             d="m 0,0 -0.279,50.43 -27.254,0.308"
             style="fill:none;stroke:#231f20;stroke-width:1;stroke-linecap:butt;stroke-linejoin:miter;stroke-miterlimit:10;stroke-dasharray:none;stroke-opacity:1"
             id="path8878" />
        </g>
        <g
           id="g8880"
           transform="translate(192.2826,347.0522)">
          <path
             d="M 0,0 C 2.852,1.021 6.395,2.779 8.601,4.659 L 6.827,-0.077 8.493,-4.851 C 6.331,-2.922 2.828,-1.084 0,0"
             style="fill:#231f20;fill-opacity:1;fill-rule:nonzero;stroke:none"
             id="path8882" />
        </g>
      </g>
    </g>
  </g>
</svg>
