<?xml version="1.0" encoding="UTF-8" standalone="no"?>
<!-- Created with Inkscape (http://www.inkscape.org/) -->

<svg
   version="1.1"
   id="svg9191"
   width="384.06799"
   height="249.8"
   viewBox="0 0 384.06799 249.8"
   xmlns="http://www.w3.org/2000/svg"
   xmlns:svg="http://www.w3.org/2000/svg">
  <defs
     id="defs9195">
    <clipPath
       clipPathUnits="userSpaceOnUse"
       id="clipPath9205">
      <path
         d="M 0,187.35 H 288.051 V 0 H 0 Z"
         id="path9203" />
    </clipPath>
  </defs>
  <g
     id="g9197"
     transform="matrix(1.3333333,0,0,-1.3333333,0,249.8)">
    <g
       id="g9199">
      <g
         id="g9201"
         clip-path="url(#clipPath9205)">
        <g
           id="g9207"
           transform="translate(144.6208,54.606)">
          <path
             d="m 0,0 c -0.016,-0.109 -0.031,-0.218 -0.046,-0.327 h 1.114 c 0.005,0.063 0.009,0.128 0.014,0.191 C 0.722,-0.09 0.36,-0.045 0,0 m 139.539,-19.228 c -0.622,0.281 -0.499,0.218 -1.148,0.041 0.616,-0.304 0.493,-0.233 1.148,-0.041 M 77.585,79.717 c -0.742,0.493 -1.356,0.131 -0.672,-0.519 0.123,0.095 0.246,0.19 0.672,0.519 M 47.618,-15 c -0.017,-0.11 -0.035,-0.22 -0.053,-0.33 0.383,-0.254 0.783,-0.26 1.216,0.111 -0.387,0.073 -0.775,0.146 -1.163,0.219 m 68.356,-14.502 c 0.169,0.149 0.285,0.252 0.401,0.356 -0.412,0.601 -1.102,0.147 -0.401,-0.356 m -32.382,7.073 c 0.355,-0.38 0.771,-0.58 1.252,-0.194 -0.417,0.064 -0.834,0.129 -1.252,0.194 m -33.641,9.523 c -0.71,-0.06 -1.136,-0.095 -1.78,-0.149 0.691,-0.518 1.11,-0.405 1.78,0.149 m 69.426,49.845 c -0.52,0.268 -0.56,0.433 -0.953,0.159 0.271,-0.472 0.344,-0.363 0.953,-0.159 m -8.316,-41.865 c -0.372,0.139 -0.581,0.421 -0.763,-0.034 0.35,-0.214 0.446,-0.479 0.763,0.034 M 38.709,-16.18 c 0.692,-0.384 0.692,-0.384 1.348,-0.09 -0.464,0.255 -0.855,0.453 -1.348,0.09 m 76.538,10.279 c 0.569,-0.466 0.939,-0.664 1.474,-0.432 -0.523,0.47 -0.523,0.47 -1.474,0.432 m 12.372,-16.107 c 0.017,0.108 0.032,0.216 0.049,0.324 -0.428,0.305 -0.868,0.362 -1.649,-0.081 0.734,-0.112 1.168,-0.177 1.6,-0.243 M 17.004,-6.953 c -0.771,0.451 -0.771,0.451 -1.718,0.252 0.586,-0.381 1.026,-0.77 1.718,-0.252 M -6.268,13.193 c 0.823,-0.227 1.319,-0.298 1.622,0.44 -0.636,0.332 -1.023,0.049 -1.622,-0.44 m 61.833,39.453 c 0.115,-0.026 0.229,-0.052 0.344,-0.078 0.317,0.863 0.634,1.725 0.951,2.588 -0.577,-0.784 -1.436,-1.452 -1.295,-2.51 m 16.522,-73.777 c -0.041,-0.093 -0.081,-0.184 -0.121,-0.276 1.04,-0.238 2.08,-0.474 3.12,-0.71 0.022,0.097 0.045,0.196 0.067,0.294 -1.022,0.23 -2.045,0.461 -3.066,0.692 m 55.356,21.934 c -0.032,-0.104 -0.063,-0.207 -0.094,-0.311 1.071,-0.205 2.143,-0.41 3.215,-0.615 0.018,0.088 0.036,0.175 0.054,0.263 -1.058,0.22 -2.117,0.442 -3.175,0.663 m -52.97,-20.199 c -0.105,-0.733 0.432,-1.835 1.056,-1.087 -0.23,0.617 -0.223,1.031 -1.056,1.087 M -12.844,2.656 c 0.822,-0.613 0.893,-0.614 1.548,-0.032 -0.82,0.478 -0.82,0.478 -1.548,0.032 m 45.098,80.876 c -0.076,-1.37 -0.921,-2.306 -0.501,-3.41 0.319,1.136 1.112,2.101 0.501,3.41 m -12.076,19.976 c -0.035,-0.822 2.471,0.507 2.917,0.837 l -0.123,0.253 c -0.951,-0.37 -1.9,-0.741 -2.794,-1.09 M -5.315,1.277 C -6.741,2.091 -8.063,2.395 -9.064,2.171 -7.902,1.58 -6.739,1.508 -5.315,1.277 m 124.041,-8.019 c 0.726,-0.157 1.378,-0.526 2.104,0.031 -1.116,0.741 -1.285,0.739 -2.104,-0.031 M 65.364,38.05 c -1.368,-1.268 0.184,-1.581 0.911,-1.233 0.49,0.59 -0.478,1.003 -0.911,1.233 m 62.959,21.083 c 2.2,0.377 -0.695,2.407 -0.745,0.565 0.018,-0.464 0.343,-0.579 0.745,-0.565 m 11.385,-90.517 c 1.463,-0.851 2.376,-0.987 3.045,-0.446 -1.174,0.01 -1.883,0.93 -3.045,0.446 M 3.476,80.74 C 2.537,80.345 1.364,79.716 1.631,78.829 2.528,78.59 3.246,79.673 3.476,80.74 M 60.957,40.004 c -0.858,-0.796 -1.476,-2.55 -0.088,-2.53 0.726,0.62 0.13,1.464 0.088,2.53 m 57.247,-67.334 c 0.985,-0.86 1.904,-0.783 2.892,-0.655 -0.424,0.87 -0.578,0.905 -2.892,0.655 m -66.543,11.255 c 1.725,-0.342 3.385,-1.062 5.375,-0.907 -1.018,0.539 -4.174,1.076 -5.375,0.907 m -25.895,4.897 c 1.772,-0.319 3.545,-0.639 5.318,-0.96 -1.64,1.067 -3.435,1.26 -5.318,0.96 M 135.921,-26.12 c -1.409,0.263 -2.549,0.475 -3.777,0.705 0.306,-1.377 2.566,-1.273 3.777,-0.705 M 14.248,56.145 c 1.19,-0.775 2.515,-0.888 3.867,-0.878 -1.18,0.765 -2.426,1.249 -3.867,0.878 m 111.449,-80.842 c -0.602,1.009 -1.982,0.061 -2.644,1.145 -0.232,0.243 -0.977,0.207 -0.936,-0.27 0.678,-0.887 2.578,-1.13 3.58,-0.875 M 7.968,56.444 C 6.886,57.38 5.896,58.743 4.667,58.443 5.115,57.154 5.885,56.661 7.968,56.444 m 114.495,-77.582 c -1.15,0.612 -2.18,1.356 -3.564,0.771 0.869,-1.03 2.47,-1.397 3.564,-0.771 m -78.107,6.502 c -1.216,0.625 -7.085,1.769 -8.314,1.66 2.818,-0.946 5.584,-1.209 8.314,-1.66 m 71.114,55.042 c 0.015,0.122 0.03,0.243 0.046,0.365 -1.922,-0.007 -4.323,1.692 -5.905,0.179 2.037,-0.234 3.93,-0.594 5.859,-0.544 m -1.333,-66.275 c -0.184,-1.457 2.719,-1.958 3.421,-0.989 -0.812,0.852 -2.291,1.036 -3.421,0.989 m -4.819,50.688 c 2.706,-0.776 11.046,-1.034 12.822,-0.602 -4.369,0.205 -8.595,0.403 -12.822,0.602 m 28.654,-46.293 c -0.334,0.703 -0.984,0.666 -1.573,0.549 -1.388,-0.282 -2.621,0.648 -4.003,0.761 -2.344,-0.895 5.347,-2.263 5.576,-1.31 m -49.567,-2.191 c 3.053,-1.638 6.433,-1.495 9.742,-2.216 0.019,0.109 0.038,0.217 0.056,0.326 -3.256,0.846 -6.424,1.693 -9.798,1.89 m 24.45,65.788 c 0.443,-0.053 0.963,-0.132 1.08,0.459 -0.169,1.974 -2.872,0.861 -4.089,0.622 -1.219,-1.392 2.225,-0.929 3.009,-1.081 M 37.893,103.55 c -0.383,-0.09 -0.173,-0.743 -0.731,-0.469 -0.251,0.123 -0.616,0.107 -0.903,0.041 -0.409,-0.095 -0.721,-0.208 -1.13,0.134 -1.32,0.591 -1.104,-1.787 -0.806,-2.635 1.107,1.407 2.943,0.968 4.35,1.901 -0.326,0.43 -0.538,0.709 -0.78,1.028 M 79.937,38.735 c 1.974,-0.894 16.205,-2.393 18.778,-1.994 -6.36,0.675 -12.428,1.32 -18.778,1.994 M 7.658,69.789 7.532,69.522 c 5.166,-1.809 9.652,-4.968 14.505,-7.366 -4.368,3.354 -9.049,6.111 -14.379,7.633 M 94.393,7.074 c 0.057,0.113 0.114,0.227 0.171,0.34 -2.107,1.893 -5.799,1.885 -8.568,1.891 2.714,-1.242 5.641,-1.363 8.397,-2.231 m 28.263,-35.129 c -0.029,-0.144 -0.058,-0.29 -0.088,-0.434 4.047,-0.665 7.798,-1.908 11.958,-1.941 -3.477,1.879 -7.907,1.394 -11.87,2.375 M 70.611,34.641 c 0.059,0.098 0.118,0.197 0.175,0.296 -2.615,1.625 -7.431,1.49 -10.311,1.116 3.366,-0.84 6.748,-1.149 10.136,-1.412 m 30.993,46.19 c -1.875,0.198 -5.276,0.993 -6.111,-0.953 2.028,-1.313 4.936,-1.842 6.111,0.953 m 2.597,-2.188 c 0.772,-0.261 4.237,-0.369 4.779,-0.174 0.833,0.169 1.08,2.462 -0.199,2.382 -2.036,0.234 -4.062,0.177 -4.58,-2.208 M 76.588,11.853 c 9.472,-1.402 19.627,-3.487 29.023,-2.836 -8.056,1.2 -16.6,2.004 -24.756,2.872 -1.204,0.498 -3.528,1.452 -4.267,-0.036 m 29.638,8.861 c -3.971,1.73 -8.758,2.246 -12.37,5.198 -0.892,0.471 -1.882,0.01 -2.04,-0.985 0.403,-5.448 10.397,-3.03 14.41,-4.213 M 15.713,75.26 C 13.9,73.911 12.439,73.377 10.15,73.201 c 3.56,-0.671 6.957,-1.312 10.515,-1.983 -0.457,2.699 -0.701,2.444 0.815,4.65 0.96,-0.034 1.912,-0.688 3.033,-0.532 -0.184,1.42 0.232,2.237 -1.395,2.45 -4.17,1.092 -8.604,2.223 -12.56,-0.039 1.026,-0.121 2.22,-0.261 3.463,-0.406 -0.013,-1.06 1.071,-1.196 1.692,-2.081 m 1.956,18.997 c 4.974,1.811 9.993,5.047 15.48,6.278 3.907,5.077 -9.81,2.11 -11.411,0.112 -1.635,-1.22 -2.604,-2.647 -3.729,-4.234 -0.061,0.292 -0.118,0.574 -0.21,1.019 -0.501,-1.314 -0.515,-1.765 -0.13,-3.175 m 95.616,-120.966 c -0.223,2.433 -13.609,2.328 -16.003,3.846 -1.726,1.495 -5.812,-0.783 -6.112,2.026 -0.043,2.36 5.927,-2.798 7.639,0.495 1.087,3.52 -6.673,0.51 -8.437,1.379 -3.064,0.359 -6.292,2.001 -9.284,1.564 1.942,-3.771 -4.369,-0.574 -2.86,-4.232 11.57,0.373 23.374,-4.052 35.057,-5.078 M 75.71,42.18 c 1.38,-1.203 8.303,1.584 8.344,-2.567 -0.051,-0.667 0.305,-0.972 0.935,-1.049 6.028,-1.632 3.56,3.154 11.039,7.105 -9.108,1.792 -18.243,3.485 -27.537,3.792 -2.258,0.295 -1.257,-4.745 -1.381,-6.261 h 0.212 c 0.265,0.773 0.531,1.546 0.796,2.319 -1.122,-4.576 5.987,-3.773 1.616,-6.886 -0.818,-0.577 -2.955,-0.495 -2.796,-1.81 1.156,-1.447 4.559,0.197 4.924,-2.103 0.123,-0.754 0.182,-1.634 0.9,-2.061 1.307,3.538 -1.439,7.065 2.948,9.521 M 29.378,80.295 c 0.46,0.636 0.921,1.272 1.381,1.909 0.039,-1.779 -1.832,-2.935 -1.784,-4.629 1.072,1.526 1.98,3.06 2.575,5.101 -0.462,-0.284 -0.639,-0.393 -0.816,-0.502 0.039,0.471 0.078,0.94 0.125,1.517 -0.333,-0.084 -0.629,-0.159 -0.976,-0.248 0.058,0.687 0.111,1.299 0.177,2.057 -0.891,-0.386 -1.599,1.09 -2.391,0.075 -0.562,0.271 -1.098,0.529 -1.704,0.821 v -0.71 c -2.727,2.096 -6.149,1.007 -9.236,0.952 -3.463,-0.383 -3.65,0.175 -6.188,-2.821 0.132,0.868 0.084,1.138 -0.528,1.785 -0.357,-0.325 -0.71,-0.646 -1.097,-0.998 -0.366,0.188 -0.7,0.36 -1.301,0.67 1.039,-1.291 0.48,-2.766 1.897,-3.546 2.337,-2.672 9.399,-2.123 13.05,-2.719 0.665,-0.529 0.662,0.193 0.895,0.484 0.046,-0.389 -0.05,-0.838 0.564,-0.887 0.697,-0.188 1.457,-0.88 1.973,0.02 0.315,-1.677 1.882,-0.543 1.939,0.633 0.838,-0.133 1.214,0.378 1.468,1.057 z M 104.786,-3.66 c 0.568,-1.53 2.621,-0.262 4.062,-0.879 -2.201,1.358 -2.418,1.397 -4.081,0.852 -0.067,0.413 -0.132,0.824 -0.208,1.296 2.626,0.05 5.144,-0.929 7.645,-1.417 1.31,0.685 2.599,-0.334 3.937,-0.067 1.726,0.818 2.659,-1.992 3.543,-0.101 -4.312,1.282 -8.831,1.603 -13.214,2.615 -4.206,1.966 -8.891,3.057 -13.559,4.029 -4.188,0.368 -12.707,5.427 -12.786,-1.942 2.363,-1.107 5.049,-1.181 7.213,-2.268 0.876,-1.061 1.931,-1.197 3.136,-0.735 1.031,0.396 1.987,0.445 2.716,-0.648 1.462,1.939 5.45,-1.174 7.315,-0.429 1.373,0.699 1.944,-0.286 2.789,-1.247 0.539,0.34 1.016,0.64 1.492,0.941 m 24.389,-27.907 c 0.624,-0.675 1.517,-0.372 2.261,-0.622 0.721,-0.243 1.451,-0.56 2.343,0.039 -5.095,0.6 -9.993,2.203 -15.101,2.669 3.195,-1.492 7.01,-1.881 10.497,-2.086 M 15.919,93.682 c 0.506,-0.108 0.833,-0.408 1.332,-0.036 -0.238,0.334 -0.443,0.624 -0.638,0.898 -0.296,-0.367 -0.504,-0.625 -0.713,-0.883 -0.08,0.325 -0.16,0.65 -0.293,1.186 -0.429,-0.78 -0.459,-1.292 0.079,-1.86 0.099,0.298 0.167,0.496 0.233,0.695 M -3.64,-4.962 C -0.543,-5.004 2.284,-6.436 5.376,-6.353 0.497,-5.296 -0.836,-3.826 5.284,-4.752 5.259,-5.097 5.242,-5.308 5.225,-5.549 6.494,-5.995 8.666,-4.779 9.267,-6.426 8.48,-7.05 7.909,-6.629 6.76,-6.562 c 1.348,-0.62 5.637,-1.459 6.769,-1.344 -1.008,1.077 -3.073,-0.161 -3.349,1.615 1.341,-0.01 2.694,-0.291 4.177,0.078 -1.275,0.931 -2.255,0.582 -3.737,1.344 0.457,0.254 0.693,0.386 1.005,0.558 C 8.2,-1.127 1.776,-3.487 -1.35,0.03 c -0.387,1.399 -1.518,1.055 -2.757,1.31 0.633,-0.544 1.063,-0.914 1.664,-1.43 -6.04,1.198 -12.7,1.801 -19.018,3.453 1.03,2.362 4.114,-0.536 5.919,0.279 -1.914,0.506 -3.828,1.013 -5.912,1.565 5.731,0.172 11.838,-2.397 17.477,-1.619 -0.702,0.686 -2.039,0.254 -2.16,1.196 0.658,1.299 2.606,-0.185 3.803,0.581 -1.125,1.345 -2.872,0.711 -3.994,1.699 1.312,0.171 2.149,0.663 2.896,1.767 -0.18,1.396 -4.998,2.143 -1.599,2.799 -3.03,3.683 -16.854,-6.193 -21.385,-7.39 -13.616,-6.172 -27.381,-12.009 -38.688,-22.013 13.444,16.943 36.401,21.493 55.277,30.598 2.125,1.702 14.566,4.386 11.099,7.694 -7.411,5.002 -10.972,12.967 -13.025,21.251 -5.847,8.135 -8.206,19.819 -0.215,27.348 -0.075,0.075 -0.149,0.15 -0.224,0.224 -0.403,-0.343 -0.805,-0.686 -1.257,-1.072 -0.926,3.284 4.011,5.637 5.18,8.618 2,4.299 6.582,6.413 9.097,10.178 3.233,2.787 3.642,8.005 7.692,10.16 6.713,6.043 16.592,11.926 25.386,11.27 6.135,4.685 17.172,-0.524 22.623,-5.017 2.019,-1.547 3.543,2.398 5.665,2.462 0.056,-0.077 0.113,-0.154 0.168,-0.232 -7.776,-7.37 -0.705,-3.557 5.62,-13.689 5.08,-4.134 18.702,-3.314 24.839,-1.745 4.111,3.369 8.701,1.261 12.642,-0.809 2.771,-0.06 5.544,-0.127 8.311,-0.265 2.62,-0.433 2.915,3.24 5.156,3.437 8.157,-0.286 16.274,-1.134 24.501,-1.566 v -2.146 c -6.119,-0.065 -28.327,6.809 -10.05,-2.677 3.326,-0.658 6.696,-1.061 10.05,-1.885 V 61.825 c -4.008,0.373 -17.05,3.51 -7.047,-2.567 1.686,-1.946 -3.586,-2.54 -3.466,-0.335 -0.686,4.576 -4.638,4.049 -2.349,-0.327 -0.87,-2.003 -5.263,0.754 -6.686,-1.44 -0.926,-0.682 -3.502,-5.059 -3.889,-2.303 0.147,1.323 0.801,2.006 1.87,2.686 -2.001,3.428 3.169,1.055 3.698,3.353 0.121,1.068 -1.248,0.864 -1.45,1.801 1.045,0.597 2.029,-0.381 3.094,-0.492 1.136,-0.197 1.54,1.435 0.332,1.516 -1.813,0.076 -3.925,1.459 -5.537,0.21 -0.267,-0.221 -0.812,-0.408 -1.073,-0.283 -2.595,1.047 -5.785,0.044 -6.009,3.768 -0.252,0.752 -0.722,1.167 -1.574,1.19 -7.811,0.299 -15.633,0.59 -23.448,0.581 -0.578,-0.001 -1.059,-0.115 -1.243,-0.769 -1.14,-1.71 -4.358,-0.831 -5.948,-0.093 -2.044,1.053 -7.791,1.619 -9.139,-0.216 -0.994,-5.523 -3.91,-10.147 -6.607,-14.908 11.117,-0.707 22.174,-2.685 33.222,-4.369 1.437,-0.202 3.35,-0.452 3.506,-2.242 -1.22,-4.311 -8.852,-4.048 -10.494,-8.69 19.518,-2.798 10.633,-0.86 12.13,15.811 0.949,-0.012 2.197,0.583 2.43,-0.61 0.716,-2.066 2.261,-5.243 4.913,-4.108 -0.027,0.29 -0.055,0.582 -0.103,1.086 4.402,-1.033 8.93,-1.336 13.352,-1.38 -1.044,1.758 -3.583,1.407 -5.273,2.301 -2.497,1.735 7.06,1.491 7.719,0.993 0.331,-0.219 0.885,-0.374 1.229,-0.251 1.807,0.672 3.436,-0.425 5.254,-0.388 2.769,-1.212 5.51,-1.714 8.586,-1.868 V 22.918 c -6.843,-1.674 -13.827,-2.574 -20.867,-2.774 6.925,-0.547 13.915,-0.035 20.867,-0.177 V 3.33 C 132.557,5.346 122.221,8.523 111.086,8.57 121.37,5.469 132.702,4.375 143.431,2.257 V 0.647 C 141.778,1.15 85.711,12.397 98.344,6.158 93.348,5.396 87.803,8.477 82.479,8.075 c 0.793,-0.831 2.125,-0.57 2.538,-1.994 0.771,-0.999 2.417,0.26 3.392,-0.959 1.121,-1.035 2.487,-0.155 3.511,-1.171 1.763,-1.198 3.962,-0.456 5.949,-1.091 1.827,-0.168 3.479,-0.996 5.324,-0.569 -0.362,0.386 -0.555,0.591 -0.845,0.898 0.98,0.056 2.273,-0.541 2.642,0.571 0.102,0.598 -0.372,0.747 -0.832,0.829 -1.6,0.586 -3.766,-0.029 -4.921,1.37 1.286,0.749 2.946,-0.439 4.269,0.042 2.859,1.116 5.927,-0.88 8.849,-1.123 10.352,-2.028 20.749,-4.94 31.076,-6.109 v -2.683 c -7.215,0.822 -13.846,3.014 -21.173,2.826 4.323,-2.605 9.85,-1.525 14.388,-3.323 0.543,-0.16 1.245,-0.347 1.678,-0.749 1.386,-1.353 3.381,-0.559 5.107,-0.901 v -2.683 c -5.785,0.393 -17.019,5.213 -21.603,3.508 2.323,-0.021 3.072,-1.402 5.184,-2.134 -0.648,-0.309 -1.051,-0.501 -1.486,-0.708 1.291,-0.566 4.197,-1.483 5.393,-0.525 -0.284,0.704 -1.257,0.499 -1.388,1.421 4.349,0.906 2.141,-3.277 6.948,-2.6 -0.775,1.028 -2.162,0.755 -2.861,1.846 3.256,0.16 6.39,-1.639 9.813,-1.613 v -1.073 c -0.521,-0.053 -1.088,0.12 -1.539,-0.434 0.512,-0.035 1.025,-0.069 1.539,-0.103 V -22.16 c -0.633,0.106 -1.289,0.308 -1.828,-0.403 0.589,-0.566 1.244,-0.327 1.828,-0.402 v -1.342 c -3.338,-0.179 -7.04,1.914 -10.026,0.234 3.371,-0.86 6.62,-0.886 10.026,-1.307 v -8.318 c -12.025,0.629 -23.335,2.183 -34.842,5.097 0.895,0.385 -0.343,1.432 -0.734,0.5 0.275,-0.184 0.52,-0.349 0.765,-0.514 -1.278,0.166 -2.556,0.333 -3.833,0.499 0.004,0.07 0.009,0.141 0.013,0.213 4.121,-0.121 -0.325,2.175 -1.991,1.88 -1.424,0.078 -2.874,0.659 -4.23,-0.394 -0.275,-0.213 -0.871,-0.105 -1.294,-0.022 -6.129,0.585 -12.92,3.845 -18.742,3.087 -0.369,-0.505 -0.923,-0.265 -1.311,0.053 -0.469,0.547 -1.056,0.232 -1.594,0.245 -0.607,0.718 -1.402,0.264 -2.103,0.363 -3.273,-0.096 -6.273,2.794 -9.456,1.722 -10e-4,-0.111 -0.002,-0.222 -0.002,-0.334 0.568,-0.131 1.136,-0.261 1.904,-0.438 -4.65,-1.139 -9.405,1.778 -14.108,2.022 -1.444,0.655 -6.569,0.505 -6.63,1.955 -0.32,0.085 -0.732,0.341 -0.948,0.227 -2.641,-1.016 -5.207,0.666 -7.675,1.566 0.325,0.048 0.651,0.097 1.202,0.179 -1.093,0.634 -13.227,3.867 -9.655,0.84 -1.708,-0.005 -3.352,0.46 -4.978,0.993 h 1.213 c -19.459,5.085 -39.482,8.154 -58.868,12.805 6.305,1.387 12.935,-2.913 19.497,-2.622 -0.923,0.823 -2.149,0.677 -2.967,1.792 5.041,-0.387 2.404,-2.538 7.32,-2.87 -0.818,1.274 -2.398,0.292 -2.828,1.84 3.089,0.839 6.827,-0.852 9.833,-1.967 -2.12,-0.082 -3.701,0.012 -5.92,0.363 3.418,-1.985 7.854,-2.21 11.826,-2.508 0.333,-0.712 0.983,-0.77 1.647,-0.801 2.675,-0.824 2.675,-0.824 3.469,-0.466 -1.016,0.83 -2.39,1.002 -3.491,0.442 -0.307,0.764 -0.958,0.821 -1.647,0.801 -1.688,1.306 -4.41,0.65 -5.913,2.188"
             style="fill:#58595b;fill-opacity:1;fill-rule:nonzero;stroke:none"
             id="path9209" />
        </g>
        <g
           id="g9211"
           transform="translate(288.0515,106.2349)">
          <path
             d="M 0,0 C -1.382,-0.467 -6.279,-0.74 -6.272,1.078 -5.493,4.222 -4.88,6.462 -1.167,6.571 -0.856,6.322 -0.429,5.978 0,5.635 Z"
             style="fill:#58595b;fill-opacity:1;fill-rule:nonzero;stroke:none"
             id="path9213" />
        </g>
        <g
           id="g9215"
           transform="translate(106.7868,137.1826)">
          <path
             d="M 0,0 C -0.627,-0.014 -1.317,-0.615 -1.002,-1.162 -0.363,-1.417 0.056,-0.624 0,0 m -10.583,23.962 c -1.259,0.078 -2.514,0.1 -3.736,-0.288 1.266,-0.165 2.523,-0.213 3.736,0.288 m 11.911,-71.86 c -1.44,0.048 -1.677,-0.252 -1.23,-1.438 1.223,0.24 1.223,0.24 1.23,1.438 M 6.513,31.966 C 3.649,33.102 4.298,27.067 6.535,29.319 4.348,28.905 4.714,31.734 6.513,31.966 M -5.994,-51.878 c 1.847,0.246 1.943,0.384 1.633,2.206 -1.983,-0.212 -2.15,-0.426 -1.633,-2.206 m 7.219,82.929 c -1.414,-4.284 3.71,-3.603 1.894,0.281 -0.562,-0.845 0.102,-1.936 -0.843,-2.579 -0.913,0.463 -0.715,1.464 -1.051,2.298 m -2.378,-4.45 c 0.298,0.66 0.927,0.77 1.032,1.461 -2.028,-0.444 -2.338,2.127 -0.314,2.578 -2.577,0.939 -2.385,-2.791 -0.718,-4.039 m -2.403,-77.44 c 1.029,0.291 3.538,0.815 2.677,2.291 -2.369,-0.163 -3.065,-0.753 -2.677,-2.291 M -4.908,30.453 C -5.827,29.368 -6.453,27.45 -6.225,26.5 c 0.667,1.118 1.569,1.182 2.812,0.43 -0.379,1.407 -0.862,2.402 -1.495,3.523 m 7.071,-79.245 c 1.306,0.194 4.414,0.022 4.085,1.905 -0.233,0.555 -0.715,0.438 -1.139,0.339 -1.317,-0.562 -3.338,-0.093 -2.946,-2.244 m -22.28,75.66 c -0.705,-0.68 -1.437,0.266 -1.925,-0.522 2.168,-2.27 4.688,1.128 1.077,2.089 0.611,0.571 1.273,-0.3 1.499,0.541 0.047,0.512 -0.52,0.511 -0.889,0.621 -2.639,0.064 -1.787,-2.345 0.238,-2.729 m 22.64,-70.385 c -1.75,-0.529 -3.912,-0.93 -2.815,-3.305 1.949,0.503 3.936,0.498 2.815,3.305 m -20.389,72.861 c 0.108,-1.926 -0.653,-4.403 2.187,-3.703 0.415,-0.003 0.478,0.283 0.886,0.608 -0.757,0.181 -1.316,0.315 -1.876,0.449 -0.001,0.086 -0.001,0.171 -0.002,0.257 0.492,0.168 0.984,0.336 1.437,0.489 -0.013,0.542 -0.82,0.56 -1.257,0.919 0.429,0.519 1.33,0.069 1.572,0.807 -0.727,0.569 -0.958,0.587 -2.947,0.174 m 6.941,-1.627 c 0.083,-0.045 0.166,-0.089 0.249,-0.133 -0.057,-0.64 -0.1,-2.43 0.924,-1.531 0.635,1.729 0.033,5.752 -1.849,2.294 -3.513,5.169 -1.788,-7.021 -0.919,-0.798 0.396,-0.238 0.681,-0.41 1.086,-0.654 0.181,0.292 0.345,0.557 0.509,0.822 m -2.635,-44.716 c -0.038,-2.937 0.74,-5.721 1.65,-8.81 0.279,1.297 1.549,1.958 0.478,3.006 -0.848,1.903 0.445,4.79 -2.128,5.804 m 7.432,-28.056 c 1.802,-1.21 -2.243,-3.775 1.24,-3.335 1.611,0.437 4.335,0.98 3.601,3.192 -0.577,1.37 -0.964,1.081 -1.791,0.234 -0.349,0.126 -0.537,0.835 -1.075,0.31 0.416,-1.319 0.161,-2.098 -0.926,-2.489 0.055,0.966 0.709,2.871 -1.049,2.088 m 5.746,40.672 c -1.584,-2.398 -4.454,-10.13 0.373,-10.012 0.773,0.261 0.996,0.85 0.401,1.395 -2.554,2.547 1.564,5.995 -0.774,8.617 m -4.999,-10.819 c -6.183,5.765 -14.479,-0.671 -21.68,0.259 -9.174,2.003 1.666,19.15 7.798,17.247 -3.796,-2.506 0.485,-3.991 0.928,-0.264 -2.328,5.983 -11.726,-2.558 -13.359,-6.092 -2.457,-3.907 -2.652,-11.255 3.123,-12.038 5.453,-0.676 11.714,3.467 16.356,-0.86 2.712,1.772 4.331,1.767 6.834,1.748 m -8.01,4.892 c 0.82,-2.144 2.618,-1.146 4.074,-0.362 1.962,-1.522 4.181,1.577 4.928,3.213 -0.737,-0.233 -0.913,-1.223 -1.97,-1.062 0.912,2.844 2.698,5.121 3.585,7.984 -6.219,1.07 -7.905,-6.021 -12.126,-8.987 -4.467,-1.616 0.902,5.92 2.451,6.647 -1.62,-3.665 2.578,-2 2.364,0.594 -1.521,4.539 -5.838,-1.79 -8.101,-2.485 1.781,10.926 -14.855,-5.919 -6.372,-6.567 2.931,0.665 3.763,3.976 6.059,5.135 -2.531,-5.204 0.554,-7.02 5.108,-4.11 m -28.887,53.248 c 13.36,-2.021 27.181,-3.103 40.5,0.03 -0.978,0.208 -1.954,0.417 -3.177,0.678 4.29,1.671 8.775,2.399 13.388,3.047 C 7.521,45.68 7.229,44.101 9.097,44.799 9.979,42.525 11.908,40.103 11.322,37.438 10.65,37.245 9.687,36.95 9.931,36.072 10.173,34.256 9.455,32.418 9.98,30.625 10.83,23.629 10.234,16.52 9.904,9.495 10.063,-3.69 8.96,-16.835 8.646,-29.992 c -0.123,-4.674 0.34,-10.06 -3.002,-13.664 0.437,0.299 0.875,0.599 1.529,1.047 -0.123,-0.699 -0.196,-1.115 -0.279,-1.587 0.397,-0.166 0.75,-0.313 1.165,-0.486 -0.28,-0.949 -1.946,-1.191 -1.186,-2.6 1.309,0.386 2.055,1.442 2.992,2.618 1.296,-6.696 -17.568,-9.216 -22.533,-9.974 l 0.014,-0.019 c -0.387,0.416 -0.774,0.831 -1.233,1.324 0.89,0.524 1.738,0.209 2.656,-0.098 0.922,1.514 4.334,-0.088 4.589,1.966 -0.234,1.036 0.148,2.72 -1.114,3.125 -2.12,0.548 -2.923,2.789 -4.497,4.032 -2.996,2.177 -3.468,5.822 -5.639,8.555 -1.91,2.778 -6.95,-3.248 -9.428,0.922 -2.454,2.615 -3.047,-3.773 -5.851,-0.084 -0.428,-2.403 -0.324,-4.662 -0.588,-7.042 -3.91,1.896 -1.796,7.019 -2.526,10.49 -0.299,12.458 -1.251,24.884 -1.224,37.363 -0.283,6.02 -0.628,12.031 -0.617,18.038 0.22,1.935 -1.383,2.205 -2.9,2.811 2.363,-0.104 1.444,2.134 1.337,3.619 -0.048,1.552 -0.427,2.72 -1.707,3.632 -1.414,0.83 -2.887,4.686 -4.235,1.823 -0.776,0.475 -1.899,-0.196 -2.663,0.812 0.9,0.675 2.4,-0.659 2.626,0.862 -0.391,1.756 3.947,6.708 0.435,6.134"
             style="fill:#58595b;fill-opacity:1;fill-rule:nonzero;stroke:none"
             id="path9217" />
        </g>
        <g
           id="g9219"
           transform="translate(156.7068,159.7305)">
          <path
             d="M 0,0 C 0.245,0.268 0.274,0.328 0.305,0.329 1.801,0.191 3.569,2.69 2.447,3.586 2.236,3.624 1.816,3.385 1.747,3.183 0.787,0.749 -2.151,1.786 -3.843,2.714 -4.866,3.587 -2.373,3.962 -2.94,5.07 -3.416,7.04 -5.742,5.61 -6.545,7.252 -3.82,8.982 7.954,8.769 9.326,5.772 10.707,2.043 8.456,2.284 5.422,2.457 1.417,2.876 5.488,-0.752 0,0"
             style="fill:#58595b;fill-opacity:1;fill-rule:nonzero;stroke:none"
             id="path9221" />
        </g>
        <g
           id="g9223"
           transform="translate(82.6657,28.562)">
          <path
             d="M 0,0 C 0.006,0.093 0.012,0.187 0.018,0.279"
             style="fill:#58595b;fill-opacity:1;fill-rule:nonzero;stroke:none"
             id="path9225" />
        </g>
        <g
           id="g9227"
           transform="translate(17.9226,20.4185)">
          <path
             d="m 0,0 c -0.134,0.677 4.462,0.436 4.515,-0.292 0.136,-0.109 0.883,0.057 1,-0.226"
             style="fill:#58595b;fill-opacity:1;fill-rule:nonzero;stroke:none"
             id="path9229" />
        </g>
        <g
           id="g9231"
           transform="translate(53.1989,9.4566)">
          <path
             d="M 0,0 C 0.062,0.338 0.111,0.619 0.192,1.065"
             style="fill:#58595b;fill-opacity:1;fill-rule:nonzero;stroke:none"
             id="path9233" />
        </g>
        <g
           id="g9235"
           transform="translate(135.4499,21.52)">
          <path
             d="M 0,0 C 0.561,-0.561 1.556,-0.584 1.309,0.245 0.774,0.434 0.63,0.298 0,0 M 2.657,0.59 C 2.647,0.479 2.638,0.368 2.628,0.257 3.228,0.177 3.734,-0.532 4.467,0.212 3.864,0.338 3.261,0.464 2.657,0.59 M -7.612,4.422 C -3.661,3.174 0.472,2.615 4.412,1.512 5.288,1.068 6.042,0.561 7.056,1.335 7.138,1.237 7.22,1.14 7.301,1.043 7.062,0.104 7.553,-1.99 6.069,-1.852 c -2.451,0.531 -5.026,0.569 -7.364,1.487 0.856,2.742 -3.733,2.063 -5.376,2.877"
             style="fill:#58595b;fill-opacity:1;fill-rule:nonzero;stroke:none"
             id="path9237" />
        </g>
        <g
           id="g9239"
           transform="translate(182.0886,34.0659)">
          <path
             d="m 0,0 c 0.332,-0.197 0.665,-0.395 0.997,-0.592 l 0.019,0.018 c -25.912,5.131 -51.832,10.77 -77.52,16.984 0.025,0.089 0.049,0.179 0.073,0.268 19.657,-3.765 39.059,-8.258 58.778,-12.643 0.17,0.443 0.291,0.757 0.474,1.233 1.123,-0.267 2.25,-0.535 3.42,-0.813 -0.425,-0.879 -1.159,-0.221 -1.729,-0.649 5.276,-0.845 10.193,-2.91 15.517,-3.826 z"
             style="fill:#58595b;fill-opacity:1;fill-rule:nonzero;stroke:none"
             id="path9241" />
        </g>
        <g
           id="g9243"
           transform="translate(79.8952,79.4331)">
          <path
             d="M 0,0 C 7.6,-1.358 15.306,-1.152 22.642,1.45 21.341,2.771 19.003,1.41 17.247,1.773 23.342,3.112 29.549,4.036 34.698,8.048 35.945,6.204 33.368,4.522 36.096,3.602 35.331,3.729 34.845,3.81 34.26,3.906 25.185,-1.854 10.687,-2.998 0.02,0.017 Z"
             style="fill:#58595b;fill-opacity:1;fill-rule:nonzero;stroke:none"
             id="path9245" />
        </g>
        <g
           id="g9247"
           transform="translate(29.7654,30.4439)">
          <path
             d="M 0,0 C 0.868,1.538 2.531,-0.851 3.638,0.697 3.722,0.781 3.965,0.708 4.144,0.708 4.017,-0.386 4.017,-0.451 4.918,-0.605 5.49,-0.704 6.193,-1.229 6.649,-0.33 10.27,-1.271 14.166,-1.895 17.83,-2.989 20.52,-4.715 24.62,-3.392 26.855,-5.276 24.742,-6.995 20.821,-4.893 18.186,-4.82 12.2,-3.02 5.795,-2.24 0,0"
             style="fill:#58595b;fill-opacity:1;fill-rule:nonzero;stroke:none"
             id="path9249" />
        </g>
        <g
           id="g9251"
           transform="translate(76.9753,36.6196)">
          <path
             d="M 0,0 C -5.793,2.056 -11.512,4.823 -17.551,5.745 -15.884,11.104 -2.663,2.393 0.111,0.187 0.074,0.125 0.037,0.062 0,0"
             style="fill:#58595b;fill-opacity:1;fill-rule:nonzero;stroke:none"
             id="path9253" />
        </g>
        <g
           id="g9255"
           transform="translate(-3e-4,20.3696)">
          <path
             d="m 0,0 c 1.246,0.317 2.696,-0.07 3.952,-0.511 1.074,-0.339 2.31,0.133 3.37,-0.478"
             style="fill:#58595b;fill-opacity:1;fill-rule:nonzero;stroke:none"
             id="path9257" />
        </g>
        <g
           id="g9259"
           transform="translate(50.8279,4.9546)">
          <path
             d="M 0,0 C -0.862,0.043 -1.542,1.255 -2.485,0.893 -3.824,0.393 -4.19,2.13 -2.752,1.899"
             style="fill:#58595b;fill-opacity:1;fill-rule:nonzero;stroke:none"
             id="path9261" />
        </g>
        <g
           id="g9263"
           transform="translate(71.0759,187.2149)">
          <path
             d="m 0,0 c 4.17,-0.727 -5.458,-4.354 -6.696,-3.642 -2.624,2.806 4.96,3.055 6.656,3.777 C -0.027,0.09 -0.014,0.045 0,0"
             style="fill:#58595b;fill-opacity:1;fill-rule:nonzero;stroke:none"
             id="path9265" />
        </g>
        <g
           id="g9267"
           transform="translate(143.1999,32.0757)">
          <path
             d="m 0,0 c -0.568,-0.701 -1.114,-0.574 -1.591,-0.443 -7.263,2.17 -14.933,2.732 -22.2,5.083 0.027,0.118 0.055,0.237 0.082,0.356"
             style="fill:#58595b;fill-opacity:1;fill-rule:nonzero;stroke:none"
             id="path9269" />
        </g>
        <g
           id="g9271"
           transform="translate(37.2224,39.5034)">
          <path
             d="M 0,0 C 28.758,-4.891 25.345,-7.777 -0.062,-0.178 -0.042,-0.118 -0.021,-0.06 0,0"
             style="fill:#58595b;fill-opacity:1;fill-rule:nonzero;stroke:none"
             id="path9273" />
        </g>
        <g
           id="g9275"
           transform="translate(193.9861,32.7105)">
          <path
             d="M 0,0 C -2.715,-0.853 -4.417,1.186 -6.917,1.63 -0.958,0.952 4.741,-0.962 10.619,-2.049 8.378,-1.398 0.302,-2.276 0,0"
             style="fill:#58595b;fill-opacity:1;fill-rule:nonzero;stroke:none"
             id="path9277" />
        </g>
        <g
           id="g9279"
           transform="translate(76.5349,30.9439)">
          <path
             d="M 0,0 C -1.265,0.2 -2.529,0.4 -3.794,0.602 -3.824,0.545 -3.854,0.489 -3.885,0.434 -3.644,0.267 -3.402,0.101 -2.928,-0.227 -6.371,0.236 -9.457,0.706 -12.313,2.542 -8.104,2.421 -4.05,1.022 0.088,0.328 Z"
             style="fill:#58595b;fill-opacity:1;fill-rule:nonzero;stroke:none"
             id="path9281" />
        </g>
        <g
           id="g9283"
           transform="translate(81.8161,182.4038)">
          <path
             d="M 0,0 C -1.616,-2.484 -5.318,-0.82 -7.896,-0.875 -6.642,-0.144 -1.758,0.403 0,0"
             style="fill:#58595b;fill-opacity:1;fill-rule:nonzero;stroke:none"
             id="path9285" />
        </g>
        <g
           id="g9287"
           transform="translate(35.4968,39.4419)">
          <path
             d="M 0,0 C -4.459,1.298 -9.206,1.592 -13.422,3.51 -11.404,3.957 -1.333,0.757 0.079,0.291 0.053,0.193 0.026,0.097 0,0"
             style="fill:#58595b;fill-opacity:1;fill-rule:nonzero;stroke:none"
             id="path9289" />
        </g>
        <g
           id="g9291"
           transform="translate(133.0427,27.6167)">
          <path
             d="M 0,0 C -3.689,0.811 -7.442,1.323 -11.082,2.414 -7.355,2.583 -3.426,1.381 0.129,0.307 0.086,0.205 0.043,0.103 0,0"
             style="fill:#58595b;fill-opacity:1;fill-rule:nonzero;stroke:none"
             id="path9293" />
        </g>
        <g
           id="g9295"
           transform="translate(153.5027,50.3638)">
          <path
             d="M 0,0 C -2.451,-0.39 -4.602,0.669 -7.068,0.7 -6.843,2.563 -1.103,0.732 0,0"
             style="fill:#58595b;fill-opacity:1;fill-rule:nonzero;stroke:none"
             id="path9297" />
        </g>
        <g
           id="g9299"
           transform="translate(7.6687,24.1499)">
          <path
             d="M 0,0 C 0.285,-0.168 0.541,-0.318 0.792,-0.467 -0.323,-1.521 -3.175,-0.804 -3.819,0.62 -1.027,-0.767 -1.665,1.175 0.551,0.878 0.362,0.578 0.195,0.312 0,0"
             style="fill:#58595b;fill-opacity:1;fill-rule:nonzero;stroke:none"
             id="path9301" />
        </g>
        <g
           id="g9303"
           transform="translate(59.3298,34.687)">
          <path
             d="M 0,0 C 0.896,0.023 5.526,-0.784 2.804,-1.411 1.889,-1.071 -0.335,-1.533 0,0"
             style="fill:#58595b;fill-opacity:1;fill-rule:nonzero;stroke:none"
             id="path9305" />
        </g>
        <g
           id="g9307"
           transform="translate(164.9685,40.7612)">
          <path
             d="M 0,0 C 0.672,-0.213 1.345,-0.426 2.06,-0.652 1.007,-0.792 -1.113,-0.366 -2.07,0.16 -1.45,0.61 -1.135,0.636 0.807,0.295 0.548,0.275 0.289,0.256 0.031,0.236 0.021,0.157 0.011,0.078 0,0"
             style="fill:#58595b;fill-opacity:1;fill-rule:nonzero;stroke:none"
             id="path9309" />
        </g>
        <g
           id="g9311"
           transform="translate(43.0339,9.6568)">
          <path
             d="M 0,0 C -1.017,0.223 -1.771,0.389 -2.523,0.554"
             style="fill:#58595b;fill-opacity:1;fill-rule:nonzero;stroke:none"
             id="path9313" />
        </g>
        <g
           id="g9315"
           transform="translate(79.5642,30.5601)">
          <path
             d="m 0,0 c 0.047,-0.409 0.086,-0.753 0.121,-1.065 -0.28,-0.281 -3.064,0.293 -4.301,0.998 0.688,-0.079 1.428,-0.024 2.05,-0.267 C -1.326,-0.649 -0.842,0.233 0,0"
             style="fill:#58595b;fill-opacity:1;fill-rule:nonzero;stroke:none"
             id="path9317" />
        </g>
        <g
           id="g9319"
           transform="translate(273.1198,151.2393)">
          <path
             d="M 0,0 C 1.156,0.873 2.739,0.959 3.834,0.281 2.594,-0.406 1.444,0.163 0,0"
             style="fill:#58595b;fill-opacity:1;fill-rule:nonzero;stroke:none"
             id="path9321" />
        </g>
        <g
           id="g9323"
           transform="translate(177.821,37.564)">
          <path
             d="M 0,0 C -2.122,0.427 -4.243,0.854 -6.364,1.28 -4.149,1.355 -2.07,0.676 0.078,0.384 0.052,0.256 0.025,0.128 0,0"
             style="fill:#58595b;fill-opacity:1;fill-rule:nonzero;stroke:none"
             id="path9325" />
        </g>
        <g
           id="g9327"
           transform="translate(110.3122,43.2808)">
          <path
             d="M 0,0 C -1.802,0.385 -3.604,0.769 -5.405,1.153 -3.571,0.915 -1.666,1.064 0.056,0.262 0.037,0.175 0.019,0.087 0,0"
             style="fill:#58595b;fill-opacity:1;fill-rule:nonzero;stroke:none"
             id="path9329" />
        </g>
        <g
           id="g9331"
           transform="translate(129.5388,55.3198)">
          <path
             d="M 0,0 C 1.575,-0.509 3.493,-0.497 4.873,-1.311 3.194,-1.005 1.247,-1.35 0.018,0.017 Z"
             style="fill:#58595b;fill-opacity:1;fill-rule:nonzero;stroke:none"
             id="path9333" />
        </g>
        <g
           id="g9335"
           transform="translate(78.4743,10.1587)">
          <path
             d="M 0,0 C 0.022,0.1 0.045,0.198 0.067,0.298"
             style="fill:#58595b;fill-opacity:1;fill-rule:nonzero;stroke:none"
             id="path9337" />
        </g>
        <g
           id="g9339"
           transform="translate(141.6736,51.1343)">
          <path
             d="M 0,0 C -1.587,-0.645 -3.314,-0.321 -4.319,0.768 -2.662,0.253 -1.776,0.081 0,0"
             style="fill:#58595b;fill-opacity:1;fill-rule:nonzero;stroke:none"
             id="path9341" />
        </g>
        <g
           id="g9343"
           transform="translate(13.0905,35.2993)">
          <path
             d="M 0,0 C 0.848,0.46 2.099,0.619 2.485,-0.341 1.727,-0.938 0.824,-0.133 0,0"
             style="fill:#58595b;fill-opacity:1;fill-rule:nonzero;stroke:none"
             id="path9345" />
        </g>
        <g
           id="g9347"
           transform="translate(30.5984,4.1528)">
          <path
             d="M 0,0 C 1.124,-0.336 2.247,-0.672 3.371,-1.008 2.064,-1.216 0.924,-0.852 -0.15,-0.247 -0.101,-0.165 -0.05,-0.083 0,0"
             style="fill:#58595b;fill-opacity:1;fill-rule:nonzero;stroke:none"
             id="path9349" />
        </g>
        <g
           id="g9351"
           transform="translate(97.9548,35.355)">
          <path
             d="M 0,0 C 1.193,-0.178 2.43,-0.21 3.514,-0.826 2.236,-1.008 1.121,-0.486 0,0"
             style="fill:#58595b;fill-opacity:1;fill-rule:nonzero;stroke:none"
             id="path9353" />
        </g>
        <g
           id="g9355"
           transform="translate(98.7478,41.3081)">
          <path
             d="M 0,0 C 0.907,0.371 1.775,0.446 2.779,-0.268 1.676,-0.542 0.834,-0.25 0,0"
             style="fill:#58595b;fill-opacity:1;fill-rule:nonzero;stroke:none"
             id="path9357" />
        </g>
        <g
           id="g9359"
           transform="translate(143.8474,45.231)">
          <path
             d="M 0,0 -4.049,0.85 C -4.03,0.944 -4.012,1.039 -3.993,1.133 -2.637,0.892 -1.279,0.65 0.077,0.409 0.052,0.272 0.025,0.137 0,0"
             style="fill:#58595b;fill-opacity:1;fill-rule:nonzero;stroke:none"
             id="path9361" />
        </g>
        <g
           id="g9363"
           transform="translate(46.0105,7.1099)">
          <path
             d="M 0,0 C -0.915,-0.331 -0.915,-0.331 -1.839,0.161 -1.075,0.771 -0.861,0.762 0,0"
             style="fill:#58595b;fill-opacity:1;fill-rule:nonzero;stroke:none"
             id="path9365" />
        </g>
        <g
           id="g9367"
           transform="translate(67.8132,28.7622)">
          <path
             d="M 0,0 C 0.835,-0.241 1.671,-0.481 2.749,-0.792 0.881,-1.081 0.733,-1.047 0,0"
             style="fill:#58595b;fill-opacity:1;fill-rule:nonzero;stroke:none"
             id="path9369" />
        </g>
        <g
           id="g9371"
           transform="translate(19.9675,32.9263)">
          <path
             d="M 0,0 C -1.9,-0.5 -1.937,1.639 0,0.376 Z"
             style="fill:#58595b;fill-opacity:1;fill-rule:nonzero;stroke:none"
             id="path9373" />
        </g>
        <g
           id="g9375"
           transform="translate(16.3142,20.815)">
          <path
             d="M 0,0 C -0.911,-0.299 -1.055,-0.239 -1.612,0.312 -1.398,1.061 -0.537,0.48 0,0"
             style="fill:#58595b;fill-opacity:1;fill-rule:nonzero;stroke:none"
             id="path9377" />
        </g>
        <g
           id="g9379"
           transform="translate(178.1882,36.3794)">
          <path
             d="M 0,0 C 1.147,-0.208 2.294,-0.415 3.441,-0.622 2.243,-0.711 1.083,-0.58 -0.045,-0.263 -0.03,-0.175 -0.016,-0.088 0,0"
             style="fill:#58595b;fill-opacity:1;fill-rule:nonzero;stroke:none"
             id="path9381" />
        </g>
        <g
           id="g9383"
           transform="translate(27.0261,20.6626)">
          <path
             d="M 0,0 C -0.778,0.224 -1.558,0.447 -2.336,0.67 -2.309,0.769 -2.28,0.866 -2.252,0.965 -1.38,1.074 -0.66,0.62 0.088,0.27 Z"
             style="fill:#58595b;fill-opacity:1;fill-rule:nonzero;stroke:none"
             id="path9385" />
        </g>
        <g
           id="g9387"
           transform="translate(183.0857,33.4741)">
          <path
             d="M 0,0 C 1.307,0.111 2.481,-0.392 3.68,-0.784 2.379,-0.883 1.218,-0.349 0.019,0.018 Z"
             style="fill:#58595b;fill-opacity:1;fill-rule:nonzero;stroke:none"
             id="path9389" />
        </g>
        <g
           id="g9391"
           transform="translate(66.3659,169.2554)">
          <path
             d="m 0,0 c -0.078,-0.602 -0.157,-1.205 -0.265,-2.03 -0.501,0.976 -0.501,0.976 -0.03,2.053 C -0.196,0.016 -0.099,0.008 0,0"
             style="fill:#58595b;fill-opacity:1;fill-rule:nonzero;stroke:none"
             id="path9393" />
        </g>
        <g
           id="g9395"
           transform="translate(156.7058,42.4439)">
          <path
             d="M 0,0 C 0.876,-0.187 1.751,-0.374 2.627,-0.562 1.605,-1.067 0.829,-0.339 -0.078,-0.285 -0.052,-0.19 -0.025,-0.095 0,0"
             style="fill:#58595b;fill-opacity:1;fill-rule:nonzero;stroke:none"
             id="path9397" />
        </g>
        <g
           id="g9399"
           transform="translate(144.0505,35.7027)">
          <path
             d="M 0,0 C -0.73,0.183 -1.461,0.365 -2.19,0.548 -1.367,0.77 -0.604,0.734 0.065,0.284 0.044,0.189 0.021,0.095 0,0"
             style="fill:#58595b;fill-opacity:1;fill-rule:nonzero;stroke:none"
             id="path9401" />
        </g>
        <g
           id="g9403"
           transform="translate(160.6589,41.1929)">
          <path
             d="M 0,0 C 0.648,0.467 1.039,1.127 1.796,0.523 1.006,-0.144 1.006,-0.144 0,0"
             style="fill:#58595b;fill-opacity:1;fill-rule:nonzero;stroke:none"
             id="path9405" />
        </g>
        <g
           id="g9407"
           transform="translate(144.0261,52.3638)">
          <path
             d="M 0,0 C 0.543,-0.066 1.085,-0.132 1.789,-0.218 0.71,-1.045 0.621,-1.023 0.018,0.017 Z"
             style="fill:#58595b;fill-opacity:1;fill-rule:nonzero;stroke:none"
             id="path9409" />
        </g>
        <g
           id="g9411"
           transform="translate(49.0085,32.728)">
          <path
             d="M 0,0 C -0.542,-0.628 -1.134,-0.565 -1.738,-0.079 -1.159,-0.053 -0.579,-0.026 0,0"
             style="fill:#58595b;fill-opacity:1;fill-rule:nonzero;stroke:none"
             id="path9413" />
        </g>
        <g
           id="g9415"
           transform="translate(142.9128,50.4536)">
          <path
             d="M 0,0 C 0.703,0.339 1.11,0.376 1.422,-0.271 0.898,-0.653 0.537,-0.44 0,0"
             style="fill:#58595b;fill-opacity:1;fill-rule:nonzero;stroke:none"
             id="path9417" />
        </g>
        <g
           id="g9419"
           transform="translate(237.3523,26.8892)">
          <path
             d="m 0,0 c -0.93,0.144 -1.86,0.288 -2.791,0.433 0.013,0.085 0.025,0.171 0.038,0.256 C -1.829,0.537 -0.904,0.384 0.02,0.231 0.013,0.154 0.007,0.077 0,0"
             style="fill:#58595b;fill-opacity:1;fill-rule:nonzero;stroke:none"
             id="path9421" />
        </g>
        <g
           id="g9423"
           transform="translate(174.654,39.8355)">
          <path
             d="M 0,0 C 0.519,-0.169 1.037,-0.338 1.76,-0.572 0.665,-0.85 0.665,-0.85 0,0"
             style="fill:#58595b;fill-opacity:1;fill-rule:nonzero;stroke:none"
             id="path9425" />
        </g>
        <g
           id="g9427"
           transform="translate(71.7693,12.1929)">
          <path
             d="M 0,0 C -0.393,0.116 -0.784,0.231 -1.326,0.392 -0.614,0.724 -0.614,0.724 0,0"
             style="fill:#58595b;fill-opacity:1;fill-rule:nonzero;stroke:none"
             id="path9429" />
        </g>
        <g
           id="g9431"
           transform="translate(181.573,34.6089)">
          <path
             d="M 0,0 C 0.731,-0.041 1.489,0.06 2.153,-0.543 H 0.516 L 0.545,-0.562 0.021,0.021 Z"
             style="fill:#58595b;fill-opacity:1;fill-rule:nonzero;stroke:none"
             id="path9433" />
        </g>
        <g
           id="g9435"
           transform="translate(10.4079,23.4273)">
          <path
             d="M 0,0 C 0.708,-0.276 0.966,-0.546 0.854,-1.142 0.164,-1.118 0.124,-0.674 0,0"
             style="fill:#58595b;fill-opacity:1;fill-rule:nonzero;stroke:none"
             id="path9437" />
        </g>
        <g
           id="g9439"
           transform="translate(129.5564,55.3364)">
          <path
             d="M 0,0 C -0.797,-0.328 -1.56,-0.122 -2.427,0.109 -1.7,0.364 -1.7,0.364 -0.018,-0.017 Z"
             style="fill:#58595b;fill-opacity:1;fill-rule:nonzero;stroke:none"
             id="path9441" />
        </g>
        <g
           id="g9443"
           transform="translate(19.8962,27.0083)">
          <path
             d="M 0,0 C 0.492,-0.066 0.984,-0.132 1.477,-0.198 1.465,-0.296 1.452,-0.394 1.44,-0.491 0.925,-0.7 0.449,-0.456 -0.032,-0.277 -0.021,-0.185 -0.011,-0.093 0,0"
             style="fill:#58595b;fill-opacity:1;fill-rule:nonzero;stroke:none"
             id="path9445" />
        </g>
        <g
           id="g9447"
           transform="translate(0.7683,37.981)">
          <path
             d="M 0,0 C 0.463,-0.123 0.926,-0.247 1.389,-0.37 0.828,-0.695 0.356,-0.603 -0.066,-0.286 -0.045,-0.191 -0.022,-0.096 0,0"
             style="fill:#58595b;fill-opacity:1;fill-rule:nonzero;stroke:none"
             id="path9449" />
        </g>
        <g
           id="g9451"
           transform="translate(69.1843,182.6353)">
          <path
             d="m 0,0 c -0.437,-0.076 -0.872,-0.151 -1.308,-0.227 0.312,0.661 0.813,0.535 1.257,0.625 C -0.034,0.266 -0.018,0.133 0,0"
             style="fill:#58595b;fill-opacity:1;fill-rule:nonzero;stroke:none"
             id="path9453" />
        </g>
        <g
           id="g9455"
           transform="translate(51.9304,31.7124)">
          <path
             d="M 0,0 C 0.671,0.743 0.54,0.42 1.028,0.016 0.703,-0.409 0.435,-0.192 0,0"
             style="fill:#58595b;fill-opacity:1;fill-rule:nonzero;stroke:none"
             id="path9457" />
        </g>
        <g
           id="g9459"
           transform="translate(181.5935,34.6294)">
          <path
             d="m 0,0 c -0.684,0.019 -1.39,-0.097 -2.181,0.332 0.903,0.236 1.559,0.091 2.16,-0.353 z"
             style="fill:#58595b;fill-opacity:1;fill-rule:nonzero;stroke:none"
             id="path9461" />
        </g>
        <g
           id="g9463"
           transform="translate(10.0661,46.2808)">
          <path
             d="M 0,0 C 0.461,-0.023 0.921,-0.047 1.382,-0.07 1.376,-0.187 1.37,-0.306 1.364,-0.424 0.904,-0.401 0.443,-0.38 -0.017,-0.358 -0.011,-0.239 -0.005,-0.119 0,0"
             style="fill:#58595b;fill-opacity:1;fill-rule:nonzero;stroke:none"
             id="path9465" />
        </g>
        <g
           id="g9467"
           transform="translate(28.7107,4.5161)">
          <path
             d="M 0,0 C -0.565,-0.239 -0.924,-0.177 -1.347,0.244 -0.815,0.472 -0.47,0.336 0,0"
             style="fill:#58595b;fill-opacity:1;fill-rule:nonzero;stroke:none"
             id="path9469" />
        </g>
        <g
           id="g9471"
           transform="translate(109.5114,39.3189)">
          <path
             d="M 0,0 C -0.483,0.054 -0.912,0.102 -1.489,0.166 -0.73,0.491 -0.73,0.491 0,0"
             style="fill:#58595b;fill-opacity:1;fill-rule:nonzero;stroke:none"
             id="path9473" />
        </g>
        <g
           id="g9475"
           transform="translate(208.529,31.1304)">
          <path
             d="M 0,0 C -0.49,0.098 -0.981,0.194 -1.473,0.291 -0.899,0.663 -0.449,0.229 0,0"
             style="fill:#58595b;fill-opacity:1;fill-rule:nonzero;stroke:none"
             id="path9477" />
        </g>
        <g
           id="g9479"
           transform="translate(94.1189,82.5444)">
          <path
             d="m 0,0 c -0.646,-0.044 -1.293,-0.089 -1.939,-0.133 0.64,0.484 1.29,0.667 1.953,0.114 z"
             style="fill:#58595b;fill-opacity:1;fill-rule:nonzero;stroke:none"
             id="path9481" />
        </g>
        <g
           id="g9483"
           transform="translate(42.6696,0.4273)">
          <path
             d="M 0,0 C 0.573,0.177 0.666,0.219 0.955,-0.202 0.558,-0.642 0.471,-0.363 0,0"
             style="fill:#58595b;fill-opacity:1;fill-rule:nonzero;stroke:none"
             id="path9485" />
        </g>
        <g
           id="g9487"
           transform="translate(144.0437,52.3804)">
          <path
             d="m 0,0 c -0.574,-0.175 -1.148,-0.344 -1.95,-0.071 0.77,0.589 1.356,0.114 1.932,0.054 z"
             style="fill:#58595b;fill-opacity:1;fill-rule:nonzero;stroke:none"
             id="path9489" />
        </g>
        <g
           id="g9491"
           transform="translate(7.8718,168.8267)">
          <path
             d="M 0,0 C 0.239,-0.142 0.478,-0.284 0.717,-0.425 0.699,-0.492 0.683,-0.559 0.665,-0.626 0.292,-0.656 0.014,-0.576 -0.192,-0.247 -0.128,-0.165 -0.064,-0.083 0,0"
             style="fill:#58595b;fill-opacity:1;fill-rule:nonzero;stroke:none"
             id="path9493" />
        </g>
        <g
           id="g9495"
           transform="translate(53.8318,6.8169)">
          <path
             d="M 0,0 C 0.296,-0.091 0.592,-0.182 0.889,-0.272 0.865,-0.37 0.841,-0.468 0.817,-0.565 0.504,-0.507 0.189,-0.447 -0.124,-0.389 -0.083,-0.259 -0.042,-0.129 0,0"
             style="fill:#58595b;fill-opacity:1;fill-rule:nonzero;stroke:none"
             id="path9497" />
        </g>
        <g
           id="g9499"
           transform="translate(138.2937,54.6372)">
          <path
             d="M 0,0 1.339,-0.331 C 0.81,-0.639 0.388,-0.374 0,0"
             style="fill:#58595b;fill-opacity:1;fill-rule:nonzero;stroke:none"
             id="path9501" />
        </g>
        <g
           id="g9503"
           transform="translate(73.9978,23.1001)">
          <path
             d="M 0,0 C -0.324,-0.553 -0.406,-0.254 -0.736,-0.001 -0.663,0.365 -0.315,0.059 0,0"
             style="fill:#58595b;fill-opacity:1;fill-rule:nonzero;stroke:none"
             id="path9505" />
        </g>
        <g
           id="g9507"
           transform="translate(138.0915,46.4536)">
          <path
             d="M 0,0 C -0.586,0.134 -1.172,0.267 -1.758,0.4 -1.114,0.626 -0.555,0.376 0,0"
             style="fill:#58595b;fill-opacity:1;fill-rule:nonzero;stroke:none"
             id="path9509" />
        </g>
        <g
           id="g9511"
           transform="translate(207.032,163.2847)">
          <path
             d="M 0,0 C -0.318,-0.276 -0.637,-0.551 -0.954,-0.827 -0.792,-0.188 -0.792,-0.188 0,0"
             style="fill:#58595b;fill-opacity:1;fill-rule:nonzero;stroke:none"
             id="path9513" />
        </g>
        <g
           id="g9515"
           transform="translate(107.695,33.0034)">
          <path
             d="M 0,0 H 0.649 C 0.645,-0.114 0.639,-0.229 0.634,-0.343 0.416,-0.307 0.198,-0.271 -0.02,-0.235 -0.013,-0.156 -0.007,-0.078 0,0"
             style="fill:#58595b;fill-opacity:1;fill-rule:nonzero;stroke:none"
             id="path9517" />
        </g>
        <g
           id="g9519"
           transform="translate(182.3952,36.6441)">
          <path
             d="M 0,0 C -0.431,-0.401 -0.49,-0.276 -0.856,-0.02 -0.656,0.446 -0.439,0.131 0,0"
             style="fill:#58595b;fill-opacity:1;fill-rule:nonzero;stroke:none"
             id="path9521" />
        </g>
        <g
           id="g9523"
           transform="translate(122.1433,56.5913)">
          <path
             d="M 0,0 C -0.453,0.052 -0.906,0.103 -1.359,0.154 -0.871,0.432 -0.428,0.287 0,0"
             style="fill:#58595b;fill-opacity:1;fill-rule:nonzero;stroke:none"
             id="path9525" />
        </g>
        <g
           id="g9527"
           transform="translate(20.4655,43.3257)">
          <path
             d="M 0,0 C -0.289,0.04 -0.578,0.079 -1.104,0.15 -0.504,0.651 -0.234,0.465 0,0"
             style="fill:#58595b;fill-opacity:1;fill-rule:nonzero;stroke:none"
             id="path9529" />
        </g>
        <g
           id="g9531"
           transform="translate(5.2155,37.7778)">
          <path
             d="M 0,0 C 0.49,-0.072 0.98,-0.145 1.47,-0.217 1.458,-0.301 1.446,-0.385 1.434,-0.47 0.945,-0.388 0.456,-0.307 -0.033,-0.226 -0.021,-0.15 -0.011,-0.075 0,0"
             style="fill:#58595b;fill-opacity:1;fill-rule:nonzero;stroke:none"
             id="path9533" />
        </g>
        <g
           id="g9535"
           transform="translate(114.9157,38.146)">
          <path
             d="M 0,0 H 0.907 C 0.912,-0.085 0.917,-0.169 0.922,-0.254 0.617,-0.281 0.313,-0.31 0.009,-0.338 0.006,-0.225 0.003,-0.112 0,0"
             style="fill:#58595b;fill-opacity:1;fill-rule:nonzero;stroke:none"
             id="path9537" />
        </g>
        <g
           id="g9539"
           transform="translate(79.9148,79.4497)">
          <path
             d="M 0,0 C -0.751,-0.05 -1.477,0.013 -2.066,0.648 -1.384,0.427 -0.702,0.205 -0.02,-0.017 Z"
             style="fill:#58595b;fill-opacity:1;fill-rule:nonzero;stroke:none"
             id="path9541" />
        </g>
        <g
           id="g9543"
           transform="translate(212.2116,30.1987)">
          <path
             d="M 0,0 C 0.281,-0.018 0.563,-0.035 0.846,-0.053 0.849,-0.11 0.851,-0.168 0.853,-0.227 h -0.854 c 0,0.077 0,0.152 0.001,0.227"
             style="fill:#58595b;fill-opacity:1;fill-rule:nonzero;stroke:none"
             id="path9545" />
        </g>
        <g
           id="g9547"
           transform="translate(259.2439,120.1963)">
          <path
             d="M 0,0 C -7.273,1.898 -14.716,1.769 -21.861,0 -15.412,3.43 -6.769,2.252 0.116,0.454 0.077,0.302 0.039,0.151 0,0"
             style="fill:#58595b;fill-opacity:1;fill-rule:nonzero;stroke:none"
             id="path9549" />
        </g>
        <g
           id="g9551"
           transform="translate(254.0212,115.3242)">
          <path
             d="M 0,0 C 12.921,0.456 13.631,-3.441 -0.017,-0.417 -0.011,-0.278 -0.005,-0.139 0,0"
             style="fill:#58595b;fill-opacity:1;fill-rule:nonzero;stroke:none"
             id="path9553" />
        </g>
        <g
           id="g9555"
           transform="translate(262.115,106.8892)">
          <path
             d="M 0,0 C -1.322,-0.566 -2.261,-0.545 -3.21,0.458 -2.067,0.61 -1.124,0.525 0,0"
             style="fill:#58595b;fill-opacity:1;fill-rule:nonzero;stroke:none"
             id="path9557" />
        </g>
        <g
           id="g9559"
           transform="translate(172.0857,134.4248)">
          <path
             d="m 0,0 c -0.51,-0.323 -0.672,-1.095 -1.426,-1.102 0.655,1.11 1.309,2.221 1.962,3.332 L 0.662,2.198 C 0.441,1.465 0.221,0.733 0,0"
             style="fill:#58595b;fill-opacity:1;fill-rule:nonzero;stroke:none"
             id="path9561" />
        </g>
        <g
           id="g9563"
           transform="translate(167.6853,135.2398)">
          <path
             d="M 0,0 C 0.383,0.963 0.766,1.927 1.242,3.127 1.208,2.017 0.892,1.178 0,0"
             style="fill:#58595b;fill-opacity:1;fill-rule:nonzero;stroke:none"
             id="path9565" />
        </g>
        <g
           id="g9567"
           transform="translate(174.0222,134.9224)">
          <path
             d="M 0,0 C -0.683,0.724 -0.055,1.259 0.434,1.809 0.281,1.199 0.129,0.589 -0.023,-0.021 Z"
             style="fill:#58595b;fill-opacity:1;fill-rule:nonzero;stroke:none"
             id="path9569" />
        </g>
        <g
           id="g9571"
           transform="translate(231.9782,34.687)">
          <path
             d="M 0,0 0.812,-0.146 C 0.82,-0.211 0.828,-0.275 0.836,-0.339 0.501,-0.507 0.224,-0.479 -0.075,-0.255 -0.05,-0.17 -0.025,-0.085 0,0"
             style="fill:#58595b;fill-opacity:1;fill-rule:nonzero;stroke:none"
             id="path9573" />
        </g>
        <g
           id="g9575"
           transform="translate(101.7898,135.7271)">
          <path
             d="M 0,0 C 0.04,-1.863 -2.787,-6.266 -4.709,-7.258 -3.885,-4.953 -2.46,-0.729 0,0"
             style="fill:#58595b;fill-opacity:1;fill-rule:nonzero;stroke:none"
             id="path9577" />
        </g>
        <g
           id="g9579"
           transform="translate(84.7155,132.48)">
          <path
             d="M 0,0 C 0.678,-0.522 1.227,-0.944 1.813,-1.396 -0.849,-6.706 -3.88,-4.234 0,0"
             style="fill:#58595b;fill-opacity:1;fill-rule:nonzero;stroke:none"
             id="path9581" />
        </g>
        <g
           id="g9583"
           transform="translate(87.8347,133.6421)">
          <path
             d="M 0,0 C 0.001,-0.411 -0.437,-1.308 -0.925,-1.368 -3.808,-1.17 -0.267,3.127 0,0"
             style="fill:#58595b;fill-opacity:1;fill-rule:nonzero;stroke:none"
             id="path9585" />
        </g>
      </g>
    </g>
  </g>
</svg>
