<?xml version="1.0" encoding="UTF-8" standalone="no"?>
<!-- Created with Inkscape (http://www.inkscape.org/) -->

<svg
   version="1.1"
   id="svg9881"
   width="68.26667"
   height="34.133331"
   viewBox="0 0 68.26667 34.133331"
   xmlns="http://www.w3.org/2000/svg"
   xmlns:svg="http://www.w3.org/2000/svg">
  <defs
     id="defs9885" />
  <g
     id="g9887"
     transform="matrix(1.3333333,0,0,-1.3333333,0,34.133333)">
    <g
       id="g9889">
      <path
         d="m 49.605,22.733 -7.281,-5.258 v 0 c -2.492,-1.797 -5.219,-3.355 -8.16,-4.629 -1.375,-0.594 -2.863,-1.008 -4.43,-1.203 v 0 C 28.586,11.502 27.41,11.428 26.219,11.428 v 12.754 h 23.386 z m 0,-21.227 H 26.219 v 8.504 c 1.25,0 2.484,0.074 3.691,0.227 1.703,0.211 3.32,0.66 4.817,1.308 3.039,1.313 5.851,2.922 8.429,4.782 v -0.004 l 6.449,4.66 z m -48.187,0 v 19.477 l 6.449,-4.66 v 0.004 c 2.578,-1.86 5.391,-3.469 8.426,-4.782 1.5,-0.648 3.117,-1.097 4.816,-1.308 1.211,-0.153 2.442,-0.227 3.692,-0.227 V 1.506 Z m 0,22.676 H 24.801 V 11.428 c -1.188,0 -2.363,0.074 -3.516,0.215 v 0 c -1.562,0.195 -3.051,0.609 -4.43,1.203 -2.937,1.274 -5.664,2.832 -8.156,4.629 v 0 L 1.418,22.733 Z M 51.023,25.6 H 0 V 0.088 H 51.023 V 25.6"
         style="fill:#231f20;fill-opacity:1;fill-rule:nonzero;stroke:none"
         id="path9891" />
    </g>
  </g>
</svg>
