<?xml version="1.0" encoding="UTF-8" standalone="no"?>
<!-- Created with Inkscape (http://www.inkscape.org/) -->

<svg
   version="1.1"
   id="svg15140"
   width="566.66669"
   height="756"
   viewBox="0 0 566.66669 756"
   xmlns="http://www.w3.org/2000/svg"
   xmlns:svg="http://www.w3.org/2000/svg">
  <defs
     id="defs15144">
    <clipPath
       clipPathUnits="userSpaceOnUse"
       id="clipPath15154">
      <path
         d="M 0,567 H 425 V 0 H 0 Z"
         id="path15152" />
    </clipPath>
    <clipPath
       clipPathUnits="userSpaceOnUse"
       id="clipPath15162">
      <path
         d="M 104.843,499.253 H 402.398 V 10.9836 H 104.843 Z"
         id="path15160" />
    </clipPath>
  </defs>
  <g
     id="g15146"
     transform="matrix(1.3333333,0,0,-1.3333333,0,756)">
    <g
       id="g15148">
      <g
         id="g15150"
         clip-path="url(#clipPath15154)">
        <g
           id="g15156">
          <g
             id="g15158" />
          <g
             id="g15186">
            <g
               clip-path="url(#clipPath15162)"
               id="g15184">
              <g
                 transform="translate(280.21,16.1552)"
                 id="g15166">
                <path
                   d="M 0,0 C 2.978,4.795 1.77,9.282 -2.993,10.944 -2.053,7.505 -1.032,3.773 0,0 m -147.735,324.325 c 0.344,-0.7 0.689,-1.4 1.034,-2.1 4.381,2.025 8.762,4.05 13.143,6.076 -0.228,0.505 -0.456,1.009 -0.683,1.514 z M 121.73,463.14 c -2.425,-0.68 -3.967,-0.862 -5.272,-1.517 -10.943,-5.493 -21.778,-11.207 -32.803,-16.53 -2.664,-1.286 -5.938,-2.018 -8.884,-1.893 -20.41,0.872 -40.803,2.104 -61.208,3.076 -8.58,0.409 -15.839,3.459 -21.466,9.968 -2.82,3.262 -5.362,6.768 -7.958,10.217 -4.659,6.186 -9.783,12.081 -17.3,14.505 -3.405,1.098 -8.499,1.436 -11.053,-0.379 -3.624,-2.574 -4.802,-7.544 -4.291,-12.61 0.88,-8.731 1.24,-17.515 1.789,-26.278 0.204,-3.251 -1.079,-6.856 2.99,-9.027 0.689,-0.367 0.332,-2.914 0.252,-4.443 -0.101,-1.925 -0.711,-3.858 -0.58,-5.752 0.315,-4.541 1.543,-9.091 1.315,-13.582 -0.652,-12.826 -6.687,-22.28 -18.711,-27.597 -4.998,-2.21 -9.697,-5.224 -14.841,-6.955 -14.617,-4.917 -24.365,-15.599 -31.923,-27.998 -4.995,-8.195 -10.064,-15.078 -19.744,-17.41 -0.099,-0.024 -0.08,-0.538 -0.202,-1.502 7.759,1.09 14.393,3.109 18.552,10.467 3.078,5.446 6.205,11.131 10.491,15.57 7.531,7.801 14.963,15.822 26.649,18.251 5.984,1.243 11.795,4.526 17.036,7.895 14.002,9 21.16,28.417 17.009,44.404 -4.134,15.927 -4.489,32.186 -4.105,48.491 0.097,4.154 1.979,5.053 5.89,3.49 10.665,-4.26 17.93,-12.552 24.514,-21.335 6.26,-8.35 14.12,-11.432 24.415,-11.737 17.077,-0.505 34.194,-1.651 51.147,-3.732 11.659,-1.431 21.775,-0.725 31.057,7.542 4.44,3.953 10.608,5.987 16.057,8.763 1.001,0.51 2.314,0.406 4.446,0.734 -1.304,-2.527 -1.868,-4.323 -2.982,-5.664 -6.013,-7.236 -8.838,-15.797 -10.978,-24.76 -1.108,-4.645 -2.102,-9.634 -4.571,-13.576 -6.349,-10.137 -8.795,-20.923 -8.269,-32.725 0.518,-11.614 -3.46,-21.845 -10.845,-30.731 -13.062,-15.714 -26.217,-31.348 -39.293,-47.05 -6.018,-7.225 -9.497,-15.207 -6.648,-24.807 1.151,-3.877 3.839,-7.754 -0.694,-11.298 -0.27,-0.211 -0.099,-1.289 0.158,-1.824 3.222,-6.71 0.227,-12.292 -3.311,-17.659 -10.416,-15.8 -20.836,-31.599 -31.461,-47.258 -4.5,-6.632 -7.198,-13.769 -7.824,-21.705 -0.391,-4.965 -0.793,-9.939 -0.9,-14.914 -0.215,-9.973 -6.806,-16.304 -12.989,-22.739 -5.537,-5.763 -8.525,-12.231 -9.275,-20.294 -1.194,-12.843 -3.638,-25.57 -4.819,-38.415 -0.782,-8.518 -1.159,-17.258 -0.163,-25.716 1.753,-14.891 6.707,-28.934 14.04,-42.12 1.767,-3.179 3.469,-2.168 5.652,-1.064 3.295,1.666 6.623,3.264 9.854,4.85 -5.181,4.65 -7.613,-3.116 -12.455,-3.628 -2.742,5.387 -6.014,10.775 -8.269,16.559 -2.029,5.207 -2.927,10.853 -4.352,16.297 -2.839,10.853 -5.03,22.019 -2.417,32.969 2.834,11.872 4.849,23.674 4.852,35.864 0.002,10.942 4.111,20.003 12.861,26.83 1.563,1.219 2.943,2.709 4.252,4.209 3.855,4.416 5.563,9.478 5.656,15.462 0.22,14.301 3.083,27.891 11.53,39.967 9.032,12.912 17.779,26.029 26.393,39.224 2.7,4.137 4.805,8.715 6.758,13.273 3.164,7.382 4.154,15.195 1.524,22.849 -2.808,8.171 -0.778,15.098 4.333,21.296 4.322,5.244 9.484,9.793 13.822,15.025 8.791,10.605 17.196,21.53 25.913,32.199 6.927,8.477 11.051,18.001 12.025,28.938 0.456,5.109 0.651,10.369 2.069,15.239 3.466,11.902 8.068,23.484 11.283,35.444 3.096,11.515 7.48,22.252 14.154,32.118 1.08,1.597 1.311,3.768 2.118,6.239 M -175.367,313.352 V 483.097 H 122.188 V -5.172 h -297.555 v 317.525 c 6.795,1.889 13.59,3.778 20.385,5.667 -0.179,0.582 -0.357,1.164 -0.536,1.746 -6.616,-2.139 -13.232,-4.276 -19.849,-6.414"
                   style="fill:#ffffff;fill-opacity:1;fill-rule:nonzero;stroke:none"
                   id="path15164" />
              </g>
              <g
                 transform="translate(104.8433,329.5067)"
                 id="g15170">
                <path
                   d="M 0,0 C 6.616,2.138 13.233,4.276 19.849,6.414 20.027,5.832 20.206,5.25 20.384,4.668 13.589,2.779 6.794,0.89 0,-0.999 Z"
                   style="fill:#000000;fill-opacity:1;fill-rule:nonzero;stroke:none"
                   id="path15168" />
              </g>
              <g
                 transform="translate(401.9404,479.2953)"
                 id="g15174">
                <path
                   d="m 0,0 c -0.808,-2.471 -1.038,-4.643 -2.118,-6.239 -6.674,-9.866 -11.059,-20.603 -14.154,-32.118 -3.215,-11.96 -7.818,-23.542 -11.284,-35.444 -1.418,-4.87 -1.613,-10.13 -2.068,-15.24 -0.975,-10.936 -5.099,-20.46 -12.025,-28.938 -8.717,-10.668 -17.122,-21.593 -25.914,-32.198 -4.337,-5.232 -9.5,-9.781 -13.822,-15.025 -5.11,-6.198 -7.14,-13.125 -4.333,-21.296 2.63,-7.654 1.641,-15.467 -1.523,-22.849 -1.953,-4.558 -4.059,-9.136 -6.758,-13.273 -8.614,-13.195 -17.361,-26.312 -26.394,-39.224 -8.447,-12.076 -11.309,-25.666 -11.53,-39.967 -0.093,-5.984 -1.801,-11.046 -5.655,-15.462 -1.31,-1.5 -2.69,-2.99 -4.252,-4.209 -8.75,-6.827 -12.859,-15.888 -12.861,-26.83 -0.003,-12.19 -2.018,-23.992 -4.852,-35.864 -2.613,-10.95 -0.423,-22.116 2.417,-32.969 1.425,-5.444 2.322,-11.09 4.352,-16.297 2.254,-5.784 5.527,-11.172 8.268,-16.559 4.843,0.512 7.275,8.278 12.455,3.627 -3.23,-1.585 -6.558,-3.183 -9.853,-4.849 -2.184,-1.104 -3.885,-2.115 -5.653,1.064 -7.333,13.186 -12.287,27.229 -14.04,42.119 -0.996,8.458 -0.619,17.199 0.163,25.717 1.181,12.845 3.625,25.572 4.82,38.415 0.75,8.063 3.737,14.531 9.274,20.294 6.184,6.435 12.775,12.766 12.989,22.739 0.108,4.975 0.509,9.949 0.901,14.914 0.626,7.936 3.324,15.073 7.823,21.705 10.625,15.659 21.046,31.458 31.462,47.257 3.537,5.368 6.532,10.95 3.311,17.66 -0.257,0.535 -0.428,1.613 -0.159,1.824 4.534,3.544 1.846,7.421 0.695,11.298 -2.849,9.6 0.63,17.582 6.647,24.807 13.076,15.702 26.232,31.336 39.293,47.05 7.386,8.885 11.363,19.117 10.846,30.731 -0.527,11.802 1.92,22.587 8.268,32.725 2.469,3.942 3.463,8.931 4.572,13.576 2.139,8.963 4.964,17.524 10.977,24.76 1.114,1.34 1.679,3.137 2.983,5.664 -2.132,-0.328 -3.446,-0.224 -4.447,-0.734 -5.449,-2.776 -11.617,-4.81 -16.056,-8.763 -9.283,-8.267 -19.399,-8.973 -31.058,-7.542 -16.952,2.081 -34.069,3.227 -51.146,3.732 -10.295,0.305 -18.156,3.387 -24.415,11.737 -6.584,8.783 -13.849,17.075 -24.514,21.335 -3.911,1.563 -5.793,0.664 -5.891,-3.49 -0.384,-16.305 -0.028,-32.564 4.106,-48.491 4.15,-15.987 -3.007,-35.404 -17.009,-44.404 -5.241,-3.369 -11.053,-6.652 -17.037,-7.895 -11.685,-2.429 -19.117,-10.45 -26.649,-18.251 -4.285,-4.439 -7.412,-10.124 -10.49,-15.57 -4.16,-7.358 -10.794,-9.377 -18.552,-10.467 0.121,0.964 0.102,1.478 0.201,1.502 9.681,2.331 14.749,9.215 19.744,17.41 7.559,12.399 17.306,23.081 31.924,27.998 5.144,1.731 9.842,4.745 14.84,6.955 12.025,5.317 18.06,14.771 18.711,27.597 0.229,4.491 -1,9.041 -1.314,13.581 -0.131,1.894 0.478,3.828 0.58,5.753 0.08,1.529 0.436,4.076 -0.252,4.443 -4.069,2.171 -2.786,5.776 -2.99,9.027 -0.549,8.763 -0.909,17.546 -1.789,26.277 -0.511,5.067 0.667,10.037 4.291,12.611 2.553,1.815 7.647,1.477 11.052,0.379 7.518,-2.424 12.642,-8.319 17.3,-14.505 2.597,-3.449 5.139,-6.955 7.958,-10.217 5.627,-6.509 12.887,-9.56 21.466,-9.968 20.405,-0.972 40.799,-2.204 61.208,-3.076 2.946,-0.125 6.221,0.607 8.885,1.893 11.024,5.322 21.859,11.037 32.803,16.53 C -3.968,-0.862 -2.426,-0.68 0,0"
                   style="fill:#000000;fill-opacity:1;fill-rule:nonzero;stroke:none"
                   id="path15172" />
              </g>
              <g
                 transform="translate(132.4746,340.4799)"
                 id="g15178">
                <path
                   d="M 0,0 13.494,5.49 C 13.722,4.985 13.949,4.481 14.177,3.976 9.796,1.951 5.415,-0.074 1.034,-2.1 0.689,-1.4 0.345,-0.7 0,0"
                   style="fill:#000000;fill-opacity:1;fill-rule:nonzero;stroke:none"
                   id="path15176" />
              </g>
              <g
                 transform="translate(280.21,16.1552)"
                 id="g15182">
                <path
                   d="M 0,0 C -1.032,3.773 -2.053,7.505 -2.993,10.944 1.77,9.282 2.978,4.795 0,0"
                   style="fill:#000000;fill-opacity:1;fill-rule:nonzero;stroke:none"
                   id="path15180" />
              </g>
            </g>
          </g>
        </g>
      </g>
    </g>
  </g>
</svg>
