<svg id="f2b79f1b-1386-4b4b-94ab-afc91ec2c8a2" data-name="Layer 1" xmlns="http://www.w3.org/2000/svg" viewBox="0 0 297.55 488.27"><defs><style>.e845ee28-391c-4356-b859-c3e4c8ab24fb{fill:#fff;}</style></defs><title>cutia-line</title><path class="e845ee28-391c-4356-b859-c3e4c8ab24fb" d="M104.84,237.49V67.75H402.4V556H104.84V238.49l20.39-5.66-.54-1.75ZM401.94,87.7a34.53,34.53,0,0,0-5.27,1.52c-10.95,5.5-21.78,11.21-32.81,16.53a19.23,19.23,0,0,1-8.88,1.89c-20.41-.87-40.8-2.1-61.21-3.07-8.58-.41-15.84-3.46-21.46-10-2.82-3.26-5.36-6.77-8-10.22-4.66-6.18-9.78-12.08-17.3-14.5-3.41-1.1-8.5-1.44-11.05.38-3.63,2.57-4.81,7.54-4.29,12.61.88,8.73,1.24,17.51,1.78,26.28.21,3.25-1.08,6.85,3,9,.69.37.34,2.92.26,4.45-.11,1.92-.71,3.85-.58,5.75.31,4.54,1.54,9.09,1.31,13.58-.65,12.83-6.69,22.28-18.71,27.6-5,2.21-9.7,5.22-14.84,6.95-14.62,4.92-24.37,15.6-31.92,28-5,8.19-10.07,15.08-19.75,17.41-.1,0-.08.54-.2,1.5,7.76-1.09,14.39-3.11,18.55-10.47,3.08-5.44,6.21-11.13,10.49-15.56,7.53-7.81,15-15.83,26.65-18.26,6-1.24,11.8-4.52,17-7.89,14-9,21.16-28.42,17-44.41s-4.49-32.18-4.11-48.49c.1-4.15,2-5,5.89-3.49,10.67,4.26,17.93,12.56,24.52,21.34,6.26,8.35,14.12,11.43,24.41,11.74,17.08.5,34.2,1.65,51.15,3.73,11.66,1.43,21.77.72,31.06-7.54,4.43-4,10.6-6,16.05-8.77,1-.51,2.32-.4,4.45-.73-1.31,2.53-1.87,4.32-3,5.66-6,7.24-8.84,15.8-11,24.76-1.11,4.65-2.1,9.64-4.57,13.58-6.35,10.14-8.8,20.92-8.27,32.72.52,11.62-3.46,21.85-10.85,30.73-13.06,15.72-26.21,31.35-39.29,47.05-6,7.23-9.5,15.21-6.65,24.81,1.15,3.88,3.84,7.76-.69,11.3-.27.21-.1,1.29.16,1.82,3.22,6.71.22,12.3-3.31,17.66-10.42,15.8-20.84,31.6-31.47,47.26a44.22,44.22,0,0,0-7.82,21.71c-.39,5-.79,9.93-.9,14.91-.21,10-6.81,16.3-13,22.74a32.22,32.22,0,0,0-9.27,20.29c-1.2,12.85-3.64,25.57-4.82,38.42a124.16,124.16,0,0,0-.17,25.71,113.83,113.83,0,0,0,14,42.12c1.77,3.18,3.47,2.17,5.66,1.07,3.29-1.67,6.62-3.27,9.85-4.85-5.18-4.65-7.61,3.11-12.46,3.63-2.74-5.39-6-10.78-8.26-16.56-2-5.21-2.93-10.86-4.36-16.3-2.84-10.85-5-22-2.41-33,2.83-11.87,4.85-23.67,4.85-35.86,0-10.95,4.11-20,12.86-26.83a31.89,31.89,0,0,0,4.25-4.21A23,23,0,0,0,270,389.52c.22-14.31,3.08-27.9,11.53-40,9-12.91,17.78-26,26.39-39.23a85.78,85.78,0,0,0,6.76-13.27c3.16-7.38,4.15-15.19,1.52-22.85-2.8-8.17-.77-15.09,4.34-21.29,4.32-5.25,9.48-9.8,13.82-15,8.79-10.6,17.19-21.53,25.91-32.2a52,52,0,0,0,12-28.93c.45-5.11.65-10.37,2.06-15.24,3.47-11.91,8.07-23.49,11.29-35.45a105,105,0,0,1,14.15-32.12C400.9,92.35,401.13,90.18,401.94,87.7ZM132.47,226.52l1,2.1,13.14-6.08L146,221ZM280.21,550.84c3-4.79,1.77-9.28-3-10.94Z" transform="translate(-104.84 -67.75)"/><path d="M104.84,237.49l19.85-6.41.54,1.75-20.39,5.66Z" transform="translate(-104.84 -67.75)"/><path d="M401.94,87.7c-.81,2.48-1,4.65-2.12,6.24a105,105,0,0,0-14.15,32.12c-3.22,12-7.82,23.54-11.29,35.45-1.41,4.87-1.61,10.13-2.06,15.24a52,52,0,0,1-12,28.93c-8.72,10.67-17.12,21.6-25.91,32.2-4.34,5.23-9.5,9.78-13.82,15-5.11,6.2-7.14,13.12-4.34,21.29,2.63,7.66,1.64,15.47-1.52,22.85a85.78,85.78,0,0,1-6.76,13.27c-8.61,13.2-17.36,26.32-26.39,39.23-8.45,12.07-11.31,25.66-11.53,40A23,23,0,0,1,264.36,405a31.89,31.89,0,0,1-4.25,4.21c-8.75,6.82-12.86,15.88-12.86,26.83,0,12.19-2,24-4.85,35.86-2.62,10.95-.43,22.12,2.41,33,1.43,5.44,2.33,11.09,4.36,16.3,2.25,5.78,5.52,11.17,8.26,16.56,4.85-.52,7.28-8.28,12.46-3.63-3.23,1.58-6.56,3.18-9.85,4.85-2.19,1.1-3.89,2.11-5.66-1.07a113.83,113.83,0,0,1-14-42.12,124.16,124.16,0,0,1,.17-25.71c1.18-12.85,3.62-25.57,4.82-38.42a32.22,32.22,0,0,1,9.27-20.29c6.18-6.44,12.78-12.77,13-22.74.11-5,.51-9.95.9-14.91A44.22,44.22,0,0,1,276.31,352c10.63-15.66,21.05-31.46,31.47-47.26,3.53-5.36,6.53-10.95,3.31-17.66-.26-.53-.43-1.61-.16-1.82,4.53-3.54,1.84-7.42.69-11.3-2.85-9.6.63-17.58,6.65-24.81,13.08-15.7,26.23-31.33,39.29-47.05,7.39-8.88,11.37-19.11,10.85-30.73-.53-11.8,1.92-22.58,8.27-32.72,2.47-3.94,3.46-8.93,4.57-13.58,2.14-9,5-17.52,11-24.76,1.11-1.34,1.67-3.13,3-5.66-2.13.33-3.45.22-4.45.73-5.45,2.78-11.62,4.81-16.05,8.77-9.29,8.26-19.4,9-31.06,7.54-16.95-2.08-34.07-3.23-51.15-3.73-10.29-.31-18.15-3.39-24.41-11.74-6.59-8.78-13.85-17.08-24.52-21.34-3.91-1.56-5.79-.66-5.89,3.49-.38,16.31,0,32.57,4.11,48.49s-3,35.41-17,44.41c-5.24,3.37-11.05,6.65-17,7.89-11.68,2.43-19.12,10.45-26.65,18.26-4.28,4.43-7.41,10.12-10.49,15.56-4.16,7.36-10.79,9.38-18.55,10.47.12-1,.1-1.48.2-1.5,9.68-2.33,14.75-9.22,19.75-17.41,7.55-12.4,17.3-23.08,31.92-28,5.14-1.73,9.84-4.74,14.84-6.95,12-5.32,18.06-14.77,18.71-27.6.23-4.49-1-9-1.31-13.58-.13-1.9.47-3.83.58-5.75.08-1.53.43-4.08-.26-4.45-4.07-2.17-2.78-5.77-3-9-.54-8.77-.9-17.55-1.78-26.28-.52-5.07.66-10,4.29-12.61,2.55-1.82,7.64-1.48,11.05-.38,7.52,2.42,12.64,8.32,17.3,14.5,2.6,3.45,5.14,7,8,10.22,5.62,6.51,12.88,9.56,21.46,10,20.41,1,40.8,2.2,61.21,3.07a19.23,19.23,0,0,0,8.88-1.89c11-5.32,21.86-11,32.81-16.53A34.53,34.53,0,0,1,401.94,87.7Z" transform="translate(-104.84 -67.75)"/><path d="M132.47,226.52,146,221l.68,1.51-13.14,6.08Z" transform="translate(-104.84 -67.75)"/><path d="M280.21,550.84l-3-10.94C282,541.56,283.19,546.05,280.21,550.84Z" transform="translate(-104.84 -67.75)"/></svg>