<?xml version="1.0" encoding="UTF-8" standalone="no"?>
<!-- Created with Inkscape (http://www.inkscape.org/) -->

<svg
   version="1.1"
   id="svg15212"
   width="223.028"
   height="206.58932"
   viewBox="0 0 223.028 206.58932"
   xmlns="http://www.w3.org/2000/svg"
   xmlns:svg="http://www.w3.org/2000/svg">
  <defs
     id="defs15216">
    <clipPath
       clipPathUnits="userSpaceOnUse"
       id="clipPath15226">
      <path
         d="M 0,154.942 H 167.271 V 0 H 0 Z"
         id="path15224" />
    </clipPath>
    <clipPath
       clipPathUnits="userSpaceOnUse"
       id="clipPath15256">
      <path
         d="M 0,154.942 H 167.271 V 0 H 0 Z"
         id="path15254" />
    </clipPath>
  </defs>
  <g
     id="g15218"
     transform="matrix(1.3333333,0,0,-1.3333333,0,206.58933)">
    <g
       id="g15220">
      <g
         id="g15222"
         clip-path="url(#clipPath15226)">
        <g
           id="g15228"
           transform="translate(146.6554,9.9099)">
          <path
             d="m 0,0 c 3.868,-0.135 7.306,-0.263 10.743,-0.372 2.617,-0.084 2.809,0.153 2.972,2.805 0.226,3.682 -0.018,7.356 -0.223,11.023 -0.268,4.785 -0.623,9.573 -1.151,14.336 -1.013,9.135 -2.191,18.248 -1.725,27.478 0.205,4.062 0.09,8.132 0.266,12.205 0.188,4.374 0.196,8.786 0.19,13.181 -0.01,9.191 0.198,18.381 0.017,27.573 -0.06,3.035 0.198,6.075 0.253,9.113 0.032,1.749 -0.247,2.098 -1.893,2.539 -1.001,0.268 -2.032,0.431 -3.053,0.62 -3.601,0.666 -7.12,1.628 -10.861,1.659 -6.236,0.053 -12.458,-0.007 -18.69,-0.272 -5.186,-0.221 -10.388,-0.03 -15.583,-0.023 -0.72,0.001 -1.443,0.036 -2.158,-0.019 -9.647,-0.759 -19.309,-0.952 -28.981,-0.806 -0.639,0.01 -1.28,0.003 -1.916,-0.052 -5.283,-0.453 -10.536,-0.069 -15.791,0.472 -3.978,0.409 -7.967,0.63 -11.971,0.349 -7.396,-0.52 -14.784,-1.509 -22.214,-0.424 -0.786,0.114 -1.601,0.116 -2.396,0.06 -4.387,-0.309 -8.77,-0.579 -13.175,-0.435 -1.807,0.058 -2.309,-0.428 -2.409,-2.237 -0.123,-2.232 -0.071,-4.475 -0.093,-6.713 -0.033,-3.347 0.139,-6.712 -0.151,-10.037 -0.311,-3.574 -0.824,-7.148 -1.383,-10.69 -0.902,-5.709 -1.306,-11.429 -1.374,-17.189 -0.038,-3.197 -0.381,-6.381 -0.147,-9.589 0.319,-4.381 0.695,-8.773 0.694,-13.16 -0.002,-6.885 1.088,-13.702 1.093,-20.573 0.002,-2.742 0.736,-5.373 0.842,-8.089 0.239,-6.147 0.45,-12.296 1.133,-18.419 0.178,-1.585 0.144,-3.192 0.275,-4.783 0.087,-1.052 0.564,-1.858 1.777,-1.862 3.276,-0.012 6.543,-0.567 9.824,-0.199 4.296,0.482 8.609,0.414 12.919,0.527 3.756,0.1 7.509,-0.115 11.268,0.138 6.058,0.407 12.127,0.76 18.196,0.885 5.831,0.12 11.65,0.503 17.484,0.599 7.106,0.116 14.219,0.319 21.323,0.412 8.225,0.108 16.453,-0.046 24.687,0.092 C -14.12,0.245 -6.835,0.581 0,0 m -127.539,126.057 c 9.127,-0.643 16.655,0.463 24.21,1.131 4.875,0.431 9.758,0.176 14.599,-0.367 6.134,-0.688 12.282,-0.737 18.433,-0.823 3.984,-0.056 7.971,-0.09 11.953,-0.008 5.51,0.113 11.02,0.283 16.523,0.555 2.081,0.103 4.155,0.158 6.228,0.071 6.401,-0.267 12.772,0.405 19.155,0.53 6.38,0.126 12.793,0.182 19.116,-1.071 2.9,-0.575 5.812,-1.05 8.779,-1.192 3.506,-0.168 4.832,-1.526 4.39,-5.056 -0.679,-5.422 -0.625,-10.857 -0.439,-16.268 0.301,-8.728 -0.584,-17.423 -0.444,-26.125 0.148,-9.205 -0.49,-18.379 -0.487,-27.567 10e-4,-4.936 0.403,-9.884 1.002,-14.805 0.542,-4.44 0.854,-8.906 1.295,-13.357 0.633,-6.364 1.155,-12.729 0.854,-19.138 -0.083,-1.77 0.05,-3.529 1.806,-4.67 0.606,-0.393 0.887,-1.127 1.071,-1.832 0.315,-1.205 -0.025,-1.761 -1.302,-2.011 -0.628,-0.123 -1.257,-0.183 -1.837,-0.491 -1.125,-0.598 -2.176,-0.446 -3.075,0.444 -0.991,0.979 -2.222,1.181 -3.528,1.222 -7.588,0.238 -15.17,0.493 -22.769,0.517 -8.87,0.028 -17.722,-0.569 -26.602,-0.285 -9.656,0.308 -19.323,-0.046 -28.981,-0.629 -7.65,-0.462 -12.936,-1.451 -20.604,-1.799 -6.458,-0.292 -12.895,-1.071 -19.34,-1.638 -0.319,-0.028 -0.633,-0.137 -0.949,-0.138 -8.71,-0.017 -17.358,-1.627 -26.092,-1.036 -0.795,0.053 -1.591,0.129 -2.379,0.246 -1.647,0.243 -2.456,1.093 -3.085,2.795 -1.035,2.807 -2.948,8.472 -3.167,11.301 -0.405,5.25 -0.668,10.513 -0.668,15.797 -0.001,6.064 -0.594,12.123 -0.936,18.184 -0.428,7.574 -1.388,15.112 -1.414,22.718 -0.015,4.709 -0.688,9.426 -0.325,14.129 0.609,7.891 0.785,15.807 1.382,23.692 0.404,5.328 1.442,10.609 1.332,15.985 -0.055,2.628 -0.446,5.245 0.182,7.878 0.606,2.547 0.937,3.049 3.481,2.922 4.719,-0.234 9.425,0.556 12.632,0.189"
             style="fill:#000000;fill-opacity:1;fill-rule:nonzero;stroke:none"
             id="path15230" />
        </g>
        <g
           id="g15232"
           transform="translate(7.7306,140.3229)">
          <path
             d="m 0,0 c -0.983,-0.032 -1.921,0.094 -2.771,0.62 -0.339,0.21 -0.685,0.443 -0.685,0.903 10e-4,0.569 0.4,0.857 0.863,1.018 0.526,0.183 1.078,0.285 1.617,0.428 1.781,0.473 2.092,0.849 1.905,2.679 -0.106,1.027 -0.372,2.039 -0.604,3.049 -0.801,3.486 -0.143,4.58 3.343,5.549 1.997,0.555 3.932,0.581 5.776,-0.544 2.244,-1.368 3.116,-3.373 2.479,-5.919 C 11.749,7.091 11.429,6.437 11.187,5.761 10.53,3.936 10.528,3.926 12.381,2.949 13.133,2.554 13.772,2.059 13.636,1.124 13.502,0.212 12.654,0.182 11.97,0.042 11.188,-0.118 10.396,-0.264 9.604,-0.312 7.945,-0.412 7.158,0.339 7.433,1.984 7.772,4.021 8.131,6.061 9.004,7.987 9.938,10.049 9.095,11.353 6.828,11.622 5.944,11.728 5.075,11.627 4.226,11.36 2.357,10.776 1.976,10.133 2.417,8.163 2.801,6.45 3.21,4.743 3.648,3.044 4.14,1.142 3.863,0.654 1.896,0.245 1.273,0.116 0.632,0.079 0,0"
             style="fill:#000000;fill-opacity:1;fill-rule:nonzero;stroke:none"
             id="path15234" />
        </g>
        <g
           id="g15236"
           transform="translate(94.4161,52.8561)">
          <path
             d="m 0,0 v 0.01 c 9.12,3.219 18.28,6.33 27.26,9.929 5.219,2.081 10.51,4.01 15.61,6.39 0.48,0.21 0.96,0.441 1.43,0.671 0.23,0.109 0.46,0.229 0.69,0.34 -0.65,1.099 -1.32,2.189 -2.02,3.26 C 42.28,20.279 41.58,19.96 40.88,19.649 35.399,17.18 29.859,14.819 24.21,12.739 16.5,9.89 8.6,7.579 0.819,4.92 0.74,4.89 0.649,4.859 0.569,4.829 -1.04,4.27 -2.62,3.609 -4.21,2.979 c -0.05,-1.4 0.069,-2.839 0.35,-4.37 0.839,0.321 1.679,0.62 2.52,0.92 C -0.891,-0.311 -0.45,-0.15 0,0 m 22.819,-10.28 c -2.899,-0.84 -5.71,-2.04 -8.509,-3.191 -0.38,-0.16 -0.76,-0.309 -1.15,-0.45 -1.1,-0.42 -2.221,-0.79 -3.341,-1.149 1.561,-1.111 3.091,-2.241 4.54,-3.47 1.381,0.51 2.761,1.029 4.151,1.54 3.07,1.14 6.13,2.279 9.2,3.43 2.2,0.82 4.399,1.639 6.609,2.469 2.08,2.361 4.201,4.691 6.311,7.021 -2.42,-1.051 -4.89,-2.011 -7.38,-2.881 -3.431,-1.22 -6.92,-2.31 -10.431,-3.319 m -5.649,-9.88 c 3.82,-1.42 8.93,-0.941 11.17,1.93 0.729,0.94 1.479,1.87 2.25,2.78 -1.13,-0.33 -2.26,-0.651 -3.38,-0.981 -3.44,-1.009 -6.731,-2.41 -10.04,-3.729 m 9.479,41.729 c 3.181,1.491 6.431,2.821 9.701,4.111 0.82,0.33 1.629,0.649 2.45,0.979 -0.42,1.141 -0.51,2.38 -0.37,3.63 -0.59,-0.34 -1.201,-0.67 -1.84,-0.899 -0.38,-0.14 -0.75,-0.271 -1.13,-0.411 V 28.97 C 31.27,27.42 27.18,25.619 23.12,23.72 19.21,21.899 15.21,20.27 11.25,18.55 9.34,17.72 7.439,16.89 5.53,16.06 3.62,15.229 1.72,14.399 -0.19,13.579 c -0.82,-1.769 -1.77,-3.5 -2.77,-5.22 2.33,0.96 4.64,1.951 6.95,2.951 7.61,3.29 15.15,6.74 22.659,10.259 m 5.79,13.981 C 30.13,34.449 27.819,33.38 25.47,32.369 20.189,30.09 14.55,28.779 9.27,26.51 8.46,26.159 7.64,25.81 6.83,25.47 5.5,24.89 4.17,24.329 2.84,23.76 2.689,22.229 2.39,20.729 1.979,19.27 c 0.691,0.33 1.391,0.66 2.09,0.98 0.811,0.369 1.62,0.739 2.431,1.1 7.08,3.139 14.34,5.849 21.49,8.82 2.28,0.949 4.48,2.119 6.72,3.159 0.33,0.15 0.67,0.24 1.01,0.271 1.19,0.129 2.38,-0.441 2.98,-1.46 0.21,2.12 -0.2,4.2 -0.24,6.299 -0.01,0.491 -0.07,0.941 -0.18,1.35 -0.65,0.74 -1.25,1.53 -1.78,2.391 -0.17,0.28 -0.34,0.559 -0.521,0.83 -0.799,0.55 -1.729,0.939 -2.689,1.21 -4.96,1.389 -9.95,2.149 -14.88,1.679 C 15.28,44.63 12.08,43.52 8.899,42.39 8.53,42.25 8.12,42.18 7.53,42.399 5.45,40.89 3.85,38.55 3.03,36.029 c 0.39,0.281 0.84,0.5 1.329,0.691 1.21,0.46 2.411,0.92 3.62,1.399 4.081,1.57 8.151,3.181 12.231,4.771 0.26,0.099 0.53,0.21 0.79,0.309 1.6,0.63 3.189,1.271 4.79,1.891 0.439,0.17 0.92,0.25 1.22,0.33 1.07,0.04 1.679,-0.441 2.179,-1.11 C 29.53,43.84 29.6,43.39 29.29,43.029 29.2,42.909 29.069,42.8 28.89,42.71 28.109,42.3 27.33,41.89 26.51,41.56 21.109,39.39 15.7,37.22 10.27,35.1 9.16,34.67 8.01,34.34 6.87,33.989 5.56,33.609 4.27,33.199 3.03,32.6 2.83,32.5 2.62,32.409 2.41,32.369 2.41,31.739 2.46,31.109 2.569,30.5 2.7,29.8 2.79,29.1 2.859,28.42 3,28.489 3.149,28.55 3.3,28.6 c 1.2,0.439 2.4,0.889 3.59,1.349 7.39,2.83 14.66,5.92 21.92,9.04 0.73,0.311 1.46,0.63 2.28,0.691 1.18,-0.01 2.74,-1.491 2.71,-2.611 -0.03,-0.88 -0.74,-1.219 -1.361,-1.519 M 23.6,0.699 c 7.42,2.571 14.68,5.53 21.92,8.58 1.12,0.481 2.25,0.95 3.37,1.431 -0.75,1.189 -1.451,2.399 -2.15,3.609 -0.841,-0.299 -1.69,-0.62 -2.52,-0.96 C 41.13,12.189 38.08,10.939 35.04,9.64 30.49,7.689 25.88,5.909 21.2,4.279 17.04,2.84 12.72,1.979 8.59,0.479 5.97,-0.48 3.25,-1.091 0.609,-1.98 -0.23,-2.261 -1.061,-2.57 -1.88,-2.931 -2.311,-3.12 -2.74,-3.28 -3.19,-3.41 c 0.89,-1.42 1.919,-2.691 3.04,-3.851 1.15,0.38 2.29,0.761 3.44,1.141 6.779,2.239 13.569,4.47 20.31,6.819 m 22.1,4.25 C 45.38,4.819 45.069,4.68 44.75,4.55 36.859,1.26 28.68,-1.16 20.53,-3.641 15.45,-5.181 10.35,-6.61 5.229,-8.051 4.96,-8.131 4.68,-8.2 4.41,-8.28 3.53,-8.53 2.64,-8.79 1.76,-9.07 c 1.58,-1.38 3.26,-2.63 4.98,-3.84 1.14,0.38 2.28,0.75 3.42,1.109 4.67,1.49 9.36,2.901 13.989,4.481 4.411,1.5 8.801,3.07 13.161,4.719 2.37,0.89 4.72,1.8 7.07,2.741 1.65,1.88 3.25,3.79 4.8,5.75 V 6.46 C 48.01,5.97 46.859,5.449 45.7,4.949"
             style="fill:#000000;fill-opacity:1;fill-rule:nonzero;stroke:none"
             id="path15238" />
        </g>
        <g
           id="g15240"
           transform="translate(137.4854,55.5358)">
          <path
             d="m 0,0 c -2.02,-1.66 -3.93,-3.43 -5.76,-5.28 -1.399,-1.41 -2.75,-2.87 -4.059,-4.361 -1.901,-2.139 -3.72,-4.339 -5.51,-6.579 l -0.03,-0.03 c -2.491,-3.11 -5.87,-4.271 -9.201,-3.43 -1.389,0.35 -2.769,1.05 -4.08,2.1 -0.42,0.34 -0.839,0.66 -1.269,0.979 -0.981,0.731 -1.99,1.421 -3,2.121 -1.691,1.18 -3.391,2.37 -4.931,3.75 -0.68,0.589 -1.33,1.23 -1.939,1.93 -0.431,0.47 -0.83,0.98 -1.21,1.51 -0.601,0.85 -1.101,1.729 -1.471,2.63 -0.269,0.65 -0.479,1.309 -0.609,1.98 v 0.01 c -0.311,1.62 -0.16,3.25 0.569,4.819 0.16,0.351 0.351,0.691 0.57,1.031 1.151,1.78 2.09,3.6 2.851,5.45 0.64,1.559 1.149,3.15 1.54,4.75 0.449,1.74 0.76,3.5 0.97,5.29 0.17,1.36 0.269,2.729 0.33,4.12 0.069,1.48 0.08,2.97 0.059,4.48 -0.009,0.55 -0.019,1.11 -0.04,1.669 -0.03,0.871 -0.019,1.651 0.021,2.371 0.12,1.74 0.46,3.07 1.109,4.129 1.191,1.911 3.37,2.92 7.03,3.701 2,0.42 3.97,1.04 5.991,1.38 1.16,0.19 2.34,0.29 3.549,0.209 0.361,0 0.731,0.021 1.09,0 1.37,-0.069 2.59,-0.189 3.651,-0.379 5.279,-0.911 6.91,-3.38 6.429,-9.43 -0.04,-0.57 -0.11,-1.18 -0.189,-1.83 -0.131,-0.99 -0.15,-1.91 -0.07,-2.79 V 26.29 C -7.5,25.12 -7.21,24.03 -6.72,23 c 0.5,-1.061 1.22,-2.07 2.141,-3.061 0.88,-0.939 1.67,-1.929 2.39,-2.969 0.74,-1.06 1.4,-2.17 1.99,-3.321 C 0.301,12.689 0.74,11.7 1.15,10.68 1.53,9.729 1.87,8.75 2.171,7.75 2.29,7.359 2.391,6.979 2.45,6.6 2.78,4.88 2.57,3.29 1.681,1.87 1.271,1.21 0.721,0.59 0,0 m 5.82,8.03 c -0.75,1.19 -1.45,2.4 -2.149,3.61 -0.58,1.009 -1.16,2.02 -1.75,3.02 -0.65,1.1 -1.32,2.19 -2.021,3.26 -0.939,1.42 -1.939,2.809 -3.059,4.12 -0.5,0.59 -0.87,1.25 -1.111,1.939 -0.419,1.141 -0.509,2.38 -0.37,3.63 0.031,0.321 0.08,0.641 0.14,0.961 0.061,0.3 0.101,0.59 0.131,0.89 0.21,2.12 -0.2,4.2 -0.24,6.3 -0.01,0.49 -0.071,0.94 -0.18,1.349 -0.341,1.421 -1.19,2.461 -2.301,3.221 -0.8,0.55 -1.729,0.94 -2.689,1.21 -4.96,1.39 -9.95,2.149 -14.88,1.68 -3.141,-0.3 -6.25,-1.1 -9.311,-2.56 -0.55,-0.261 -1.069,-0.58 -1.569,-0.94 -2.08,-1.51 -3.681,-3.85 -4.5,-6.37 -0.391,-1.201 -0.61,-2.44 -0.62,-3.661 0,-0.629 0.05,-1.259 0.159,-1.869 0.131,-0.7 0.221,-1.4 0.29,-2.08 0.15,-1.6 0.141,-3.15 -0.019,-4.66 -0.151,-1.53 -0.451,-3.03 -0.861,-4.49 -0.54,-1.941 -1.29,-3.84 -2.17,-5.691 -0.819,-1.769 -1.769,-3.5 -2.769,-5.219 -0.21,-0.34 -0.41,-0.68 -0.611,-1.02 -0.389,-1.48 -0.599,-2.9 -0.639,-4.36 -0.05,-1.401 0.069,-2.84 0.349,-4.37 v -0.01 c 0.08,-0.45 0.18,-0.91 0.29,-1.38 0.12,-0.21 0.25,-0.42 0.38,-0.63 0.891,-1.42 1.92,-2.69 3.04,-3.85 0.611,-0.63 1.25,-1.24 1.91,-1.81 1.581,-1.38 3.26,-2.63 4.981,-3.84 1.019,-0.73 2.05,-1.45 3.079,-2.16 1.561,-1.11 3.091,-2.24 4.54,-3.47 0.03,-0.02 0.061,-0.04 0.091,-0.07 0.76,-0.65 1.689,-1.17 2.72,-1.55 3.82,-1.42 8.929,-0.94 11.17,1.93 0.729,0.94 1.479,1.87 2.25,2.78 1.209,1.47 2.459,2.92 3.729,4.35 2.08,2.36 4.2,4.69 6.311,7.02 1.259,1.4 2.519,2.8 3.75,4.22 1.65,1.88 3.25,3.79 4.799,5.75 V 7.55 C 6.011,7.71 5.91,7.87 5.82,8.03 M 2.631,2.27 C 2.311,2.14 2,2 1.681,1.87 1.271,1.21 0.721,0.59 0,0 c -2.02,-1.66 -3.93,-3.43 -5.76,-5.28 2.37,0.889 4.721,1.8 7.071,2.74 1.65,1.88 3.25,3.79 4.799,5.75 V 3.78 C 4.94,3.29 3.79,2.77 2.631,2.27"
             style="fill:#000000;fill-opacity:1;fill-rule:nonzero;stroke:none"
             id="path15242" />
        </g>
      </g>
    </g>
    <text
       xml:space="preserve"
       transform="matrix(1,0,0,-1,35.3848,112.7305)"
       style="font-variant:normal;font-weight:bold;font-stretch:normal;font-size:21px;font-family:'Tekton Pro';-inkscape-font-specification:TektonPro-Bold;writing-mode:lr-tb;fill:#000000;fill-opacity:1;fill-rule:nonzero;stroke:none"
       id="text15248"><tspan
         x="0"
         y="0"
         id="tspan15244">A</tspan><tspan
         x="96.957001"
         y="94.226997"
         id="tspan15246">B</tspan></text>
    <g
       id="g15250">
      <g
         id="g15252"
         clip-path="url(#clipPath15256)">
        <g
           id="g15258"
           transform="translate(72.5099,75.3161)">
          <path
             d="m 0,0 c -1.09,2.3 -2.17,4.619 -3.18,6.96 -1.6,3.689 -2.72,7.569 -4.02,11.37 -0.63,0.56 -1.33,1.05 -2.1,1.43 -0.91,0.45 -1.84,0.87 -2.78,1.229 2.29,-5.489 4.42,-11.05 6.7,-16.54 0.95,-2.29 2.12,-4.479 3.16,-6.729 0.23,-0.491 0.32,-1.01 0.27,-1.521 0.84,1.03 1.53,2.21 2.07,3.551 v 0.01 z m -5.2,-6.091 c -0.361,0.62 -0.72,1.261 -0.96,1.931 -1.651,4.59 -3.59,9.059 -5.66,13.479 -1.83,3.91 -3.46,7.91 -5.18,11.861 -0.2,0.45 -0.39,0.91 -0.59,1.36 -0.16,0.05 -0.33,0.109 -0.49,0.18 -1.46,0.59 -2.941,1.16 -4.41,1.729 2.75,-6.26 5.61,-12.479 8.51,-18.67 2.18,-4.649 4.01,-9.449 5.91,-14.229 0.36,0.189 0.719,0.38 1.08,0.569 0.78,0.421 1.52,0.87 2.21,1.381 -0.17,0.08 -0.31,0.22 -0.42,0.409 m -7.68,-10.119 c -0.141,0.6 -0.24,1.18 -0.181,1.75 -0.479,0.939 -0.939,1.88 -1.379,2.829 -3.01,6.511 -5.88,13.11 -8.371,19.851 -2.25,6.09 -4.159,12.29 -6.179,18.45 -0.92,0.199 -1.85,0.38 -2.76,0.62 -0.72,0.189 -1.43,0.359 -2.16,0.5 2.66,-7.58 5.309,-15.16 8.3,-22.62 2.29,-5.71 4.37,-11.5 7.07,-17.04 1.75,-3.601 3.56,-7.17 5.38,-10.74 0.04,0.229 0.08,0.46 0.13,0.69 0.37,1.899 0.6,3.789 0.15,5.71 m -7.141,-1.33 c -1.819,5.029 -3.779,10.01 -5.889,14.93 -1.95,4.559 -3.73,9.17 -5.361,13.849 -1.439,4.151 -2.299,8.471 -3.799,12.611 -0.52,1.42 -0.94,2.87 -1.35,4.32 -0.67,0.059 -1.37,0.09 -2.09,0.09 -0.95,0.099 -1.89,0.03 -2.81,-0.17 2.12,-6.431 4.25,-12.861 6.469,-19.25 3.04,-8.76 6.631,-17.32 10.25,-25.851 2.071,-4.859 3.75,-9.87 5.511,-14.84 0.1,-0.28 0.19,-0.559 0.279,-0.839 0.491,0.2 0.971,0.429 1.451,0.669 0.83,0.411 1.49,0.951 2.009,1.64 -1.299,4.37 -3.129,8.561 -4.67,12.841 m -7.819,-2.36 c -0.79,2.259 -1.82,4.429 -2.761,6.639 -3.5,8.17 -6,16.681 -8.579,25.16 -1.56,5.111 -2.99,10.25 -4.44,15.391 -1.13,-0.52 -2.21,-1.21 -3.26,-2 -0.4,-0.301 -0.78,-0.61 -1.15,-0.931 1.759,-5.349 3.35,-10.75 5.16,-16.08 3.45,-10.149 7.269,-20.149 11.51,-30 1.78,-4.149 3.42,-8.359 5.07,-12.569 0.59,0.019 1.18,0.06 1.769,0.1 0.691,0.049 1.371,0.15 2.051,0.299 -1.92,4.611 -3.72,9.271 -5.37,13.991 m -3.32,-10.531 c -2.47,7.011 -4.82,14.05 -7.87,20.851 -2.781,6.199 -4.91,12.66 -6.8,19.199 -0.84,2.901 -2.03,5.711 -3.191,8.511 -0.519,1.25 -0.959,2.519 -1.379,3.809 -1.28,-1.509 -2.36,-3.229 -3.201,-5.169 3.241,-8.72 6.491,-17.451 9.771,-26.161 1.58,-4.189 3.479,-8.259 5.019,-12.46 1.511,-4.089 3.141,-8.139 4.631,-12.24 1.47,-0.159 2.93,-0.25 4.4,-0.26 -0.46,1.311 -0.92,2.611 -1.38,3.92 m -12.96,13.021 c -1.54,4.18 -3.04,8.38 -4.59,12.55 -0.03,-1.08 -0.19,-2.18 -0.45,-3.29 -0.38,-1.651 -0.79,-3.3 -1.22,-4.941 0.569,-1.599 1.13,-3.21 1.68,-4.819 1.57,-4.651 3.45,-9.2 5.25,-13.771 0.42,-0.25 0.849,-0.489 1.29,-0.71 1.16,-0.58 2.37,-0.87 3.599,-1.08 -1.869,5.351 -3.589,10.75 -5.559,16.061 m -7.67,-2.141 c 0.019,-0.529 0.1,-1.08 0.25,-1.63 0.39,-1.45 0.9,-2.84 1.55,-4.149 0.34,-0.691 0.69,-1.37 1.1,-2.011 -0.921,2.601 -1.73,5.271 -2.9,7.79 m -0.18,24.78 c -0.75,2.521 -1.7,4.96 -2.68,7.401 -0.11,-2.021 0.36,-4 1.4,-5.95 0.54,-1.021 1.11,-2.031 1.72,-3 -0.14,0.519 -0.29,1.03 -0.44,1.549"
             style="fill:#000000;fill-opacity:1;fill-rule:nonzero;stroke:none"
             id="path15260" />
        </g>
        <g
           id="g15262"
           transform="translate(72.5099,75.3161)">
          <path
             d="m 0,0 c -1.09,2.3 -2.17,4.619 -3.18,6.96 -1.6,3.689 -2.72,7.569 -4.02,11.37 -0.63,0.56 -1.33,1.05 -2.1,1.43 -0.91,0.45 -1.84,0.87 -2.78,1.229 2.29,-5.489 4.42,-11.05 6.7,-16.54 0.95,-2.29 2.12,-4.479 3.16,-6.729 0.23,-0.491 0.32,-1.01 0.27,-1.521 0.84,1.03 1.53,2.21 2.07,3.551 v 0.01 z m -5.2,-6.091 c -0.361,0.62 -0.72,1.261 -0.96,1.931 -1.651,4.59 -3.59,9.059 -5.66,13.479 -1.83,3.91 -3.46,7.91 -5.18,11.861 -0.2,0.45 -0.39,0.91 -0.59,1.36 -0.16,0.05 -0.33,0.109 -0.49,0.18 -1.46,0.59 -2.941,1.16 -4.41,1.729 2.75,-6.26 5.61,-12.479 8.51,-18.67 2.18,-4.649 4.01,-9.449 5.91,-14.229 0.36,0.189 0.719,0.38 1.08,0.569 0.78,0.421 1.52,0.87 2.21,1.381 -0.17,0.08 -0.31,0.22 -0.42,0.409 z m -7.68,-10.119 c -0.141,0.6 -0.24,1.18 -0.181,1.75 -0.479,0.939 -0.939,1.88 -1.379,2.829 -3.01,6.511 -5.88,13.11 -8.371,19.851 -2.25,6.09 -4.159,12.29 -6.179,18.45 -0.92,0.199 -1.85,0.38 -2.76,0.62 -0.72,0.189 -1.43,0.359 -2.16,0.5 2.66,-7.58 5.309,-15.16 8.3,-22.62 2.29,-5.71 4.37,-11.5 7.07,-17.04 1.75,-3.601 3.56,-7.17 5.38,-10.74 0.04,0.229 0.08,0.46 0.13,0.69 0.37,1.899 0.6,3.789 0.15,5.71 z m -7.141,-1.33 c -1.819,5.029 -3.779,10.01 -5.889,14.93 -1.95,4.559 -3.73,9.17 -5.361,13.849 -1.439,4.151 -2.299,8.471 -3.799,12.611 -0.52,1.42 -0.94,2.87 -1.35,4.32 -0.67,0.059 -1.37,0.09 -2.09,0.09 -0.95,0.099 -1.89,0.03 -2.81,-0.17 2.12,-6.431 4.25,-12.861 6.469,-19.25 3.04,-8.76 6.631,-17.32 10.25,-25.851 2.071,-4.859 3.75,-9.87 5.511,-14.84 0.1,-0.28 0.19,-0.559 0.279,-0.839 0.491,0.2 0.971,0.429 1.451,0.669 0.83,0.411 1.49,0.951 2.009,1.64 -1.299,4.37 -3.129,8.561 -4.67,12.841 z m -7.819,-2.36 c -0.79,2.259 -1.82,4.429 -2.761,6.639 -3.5,8.17 -6,16.681 -8.579,25.16 -1.56,5.111 -2.99,10.25 -4.44,15.391 -1.13,-0.52 -2.21,-1.21 -3.26,-2 -0.4,-0.301 -0.78,-0.61 -1.15,-0.931 1.759,-5.349 3.35,-10.75 5.16,-16.08 3.45,-10.149 7.269,-20.149 11.51,-30 1.78,-4.149 3.42,-8.359 5.07,-12.569 0.59,0.019 1.18,0.06 1.769,0.1 0.691,0.049 1.371,0.15 2.051,0.299 -1.92,4.611 -3.72,9.271 -5.37,13.991 z m -3.32,-10.531 c -2.47,7.011 -4.82,14.05 -7.87,20.851 -2.781,6.199 -4.91,12.66 -6.8,19.199 -0.84,2.901 -2.03,5.711 -3.191,8.511 -0.519,1.25 -0.959,2.519 -1.379,3.809 -1.28,-1.509 -2.36,-3.229 -3.201,-5.169 3.241,-8.72 6.491,-17.451 9.771,-26.161 1.58,-4.189 3.479,-8.259 5.019,-12.46 1.511,-4.089 3.141,-8.139 4.631,-12.24 1.47,-0.159 2.93,-0.25 4.4,-0.26 -0.46,1.311 -0.92,2.611 -1.38,3.92 z m -12.96,13.021 c -1.54,4.18 -3.04,8.38 -4.59,12.55 -0.03,-1.08 -0.19,-2.18 -0.45,-3.29 -0.38,-1.651 -0.79,-3.3 -1.22,-4.941 0.569,-1.599 1.13,-3.21 1.68,-4.819 1.57,-4.651 3.45,-9.2 5.25,-13.771 0.42,-0.25 0.849,-0.489 1.29,-0.71 1.16,-0.58 2.37,-0.87 3.599,-1.08 -1.869,5.351 -3.589,10.75 -5.559,16.061 z m -7.67,-2.141 c 0.019,-0.529 0.1,-1.08 0.25,-1.63 0.39,-1.45 0.9,-2.84 1.55,-4.149 0.34,-0.691 0.69,-1.37 1.1,-2.011 -0.921,2.601 -1.73,5.271 -2.9,7.79 z m -0.18,24.78 c -0.75,2.521 -1.7,4.96 -2.68,7.401 -0.11,-2.021 0.36,-4 1.4,-5.95 0.54,-1.021 1.11,-2.031 1.72,-3 -0.14,0.519 -0.29,1.03 -0.44,1.549 z"
             style="fill:none;stroke:#ffffff;stroke-width:1;stroke-linecap:butt;stroke-linejoin:miter;stroke-miterlimit:10;stroke-dasharray:none;stroke-opacity:1"
             id="path15264" />
        </g>
        <g
           id="g15266"
           transform="translate(73.1593,76.6159)">
          <path
             d="M 0,0 C -0.149,-0.54 -0.329,-1.05 -0.529,-1.54 V -1.55 C -1.069,-2.891 -1.76,-4.07 -2.6,-5.101 -3.409,-6.13 -4.359,-7.021 -5.43,-7.8 -6.119,-8.311 -6.859,-8.76 -7.64,-9.181 -8,-9.37 -8.359,-9.561 -8.72,-9.75 c -0.95,-0.51 -1.92,-1.01 -2.88,-1.5 -0.629,-0.32 -0.979,-0.82 -1.099,-1.57 -0.08,-0.47 -0.13,-1.031 -0.391,-1.37 -0.389,-0.5 -0.58,-1.03 -0.62,-1.57 -0.06,-0.57 0.04,-1.15 0.181,-1.75 0.45,-1.921 0.219,-3.81 -0.151,-5.71 -0.049,-0.23 -0.09,-0.461 -0.13,-0.69 -0.339,-1.92 -0.58,-3.87 -1.16,-5.731 -0.25,-0.79 -0.59,-1.469 -1.03,-2.04 -0.52,-0.689 -1.18,-1.229 -2.01,-1.639 -0.479,-0.241 -0.96,-0.47 -1.45,-0.67 -1.199,-0.52 -2.42,-0.941 -3.659,-1.2 -0.681,-0.15 -1.36,-0.25 -2.051,-0.3 -0.59,-0.04 -1.18,-0.08 -1.769,-0.1 -1.161,-0.06 -2.331,-0.08 -3.491,-0.06 -1.469,0.009 -2.929,0.1 -4.399,0.259 -0.57,0.061 -1.141,0.141 -1.71,0.231 -0.891,0.139 -1.78,0.24 -2.671,0.389 -1.229,0.21 -2.439,0.5 -3.6,1.081 -0.44,0.22 -0.87,0.46 -1.29,0.71 -1.17,0.68 -2.29,1.45 -3.429,2.18 -0.851,0.55 -1.481,1.31 -2.01,2.159 -0.41,0.641 -0.761,1.321 -1.101,2.011 -0.649,1.31 -1.16,2.699 -1.549,4.15 -0.151,0.549 -0.231,1.1 -0.25,1.629 -0.031,0.661 0.04,1.321 0.219,1.991 0.401,1.49 0.8,2.98 1.191,4.469 0.429,1.641 0.84,3.29 1.219,4.941 0.26,1.11 0.42,2.21 0.451,3.29 0.109,2.54 -0.441,4.979 -1.981,7.25 -0.29,0.42 -0.569,0.849 -0.84,1.29 -0.609,0.97 -1.179,1.979 -1.719,3 -1.04,1.95 -1.51,3.93 -1.401,5.95 0.071,1.31 0.401,2.64 0.981,4 0.019,0.05 0.04,0.1 0.069,0.14 0.841,1.94 1.921,3.66 3.2,5.17 0.721,0.87 1.511,1.679 2.37,2.42 0.37,0.32 0.75,0.629 1.151,0.93 1.05,0.79 2.13,1.48 3.259,2 0.75,0.35 1.52,0.63 2.3,0.8 0.92,0.2 1.861,0.27 2.811,0.17 0.72,0 1.42,-0.03 2.09,-0.09 0.859,-0.08 1.689,-0.21 2.509,-0.38 0.731,-0.14 1.441,-0.31 2.161,-0.5 0.91,-0.24 1.839,-0.421 2.759,-0.62 1.13,-0.24 2.25,-0.511 3.34,-0.971 1.05,-0.429 2.101,-0.849 3.16,-1.25 1.47,-0.569 2.951,-1.139 4.411,-1.729 0.16,-0.07 0.33,-0.13 0.49,-0.18 0.769,-0.27 1.559,-0.45 2.349,-0.61 1.08,-0.22 2.13,-0.55 3.161,-0.941 0.94,-0.359 1.87,-0.779 2.78,-1.229 0.769,-0.38 1.47,-0.87 2.099,-1.43 1.451,-1.27 2.611,-2.89 3.8,-4.45 1.38,-1.82 2.37,-3.92 3.42,-5.971 C 0.45,4.52 0.681,2.39 0,0 Z"
             style="fill:none;stroke:#000000;stroke-width:3;stroke-linecap:butt;stroke-linejoin:miter;stroke-miterlimit:10;stroke-dasharray:none;stroke-opacity:1"
             id="path15268" />
        </g>
      </g>
    </g>
  </g>
</svg>
