<?xml version="1.0" encoding="UTF-8" standalone="no"?>
<!-- Created with Inkscape (http://www.inkscape.org/) -->

<svg
   version="1.1"
   id="svg15617"
   width="841.33868"
   height="635.34534"
   viewBox="0 0 841.33868 635.34534"
   xmlns="http://www.w3.org/2000/svg"
   xmlns:svg="http://www.w3.org/2000/svg">
  <defs
     id="defs15621">
    <clipPath
       clipPathUnits="userSpaceOnUse"
       id="clipPath15635">
      <path
         d="M 0,0 H 631.003 V 476.445 H 0 Z"
         id="path15633" />
    </clipPath>
    <clipPath
       clipPathUnits="userSpaceOnUse"
       id="clipPath15695">
      <path
         d="M 0,0 H 631.003 V 476.509 H 0 Z"
         id="path15693" />
    </clipPath>
  </defs>
  <g
     id="g15623"
     transform="matrix(1.3333333,0,0,-1.3333333,0,635.34533)">
    <text
       xml:space="preserve"
       transform="matrix(1,0,0,-1,612.457,15.0625)"
       style="font-variant:normal;font-weight:bold;font-stretch:normal;font-size:18px;font-family:'The Great Escape';-inkscape-font-specification:TheGreatEscape-Bold;writing-mode:lr-tb;fill:#231f20;fill-opacity:1;fill-rule:nonzero;stroke:none"
       id="text15627"><tspan
         x="0"
         y="0"
         id="tspan15625">0</tspan></text>
    <g
       id="g15629">
      <g
         id="g15631"
         clip-path="url(#clipPath15635)">
        <g
           id="g15637"
           transform="translate(578.2168,16.2793)">
          <path
             d="m 0,0 c 0.553,-0.888 1.729,-1.92 3.385,-1.92 1.921,0 3.289,1.416 3.289,3.336 0,2.306 -1.634,3.48 -3.745,3.554 -0.216,0.022 -0.433,0 -0.649,0 v 1.439 c 0.145,0 0.265,0.025 0.408,0.048 1.826,0.12 2.738,1.536 2.738,3.072 0,1.704 -1.032,2.808 -2.448,2.808 C 1.032,12.337 0,10.657 0,7.346 Z m 0.024,-2.088 v -1.607 c 0,-1.368 0.025,-3.362 0.264,-4.345 h -1.969 c -0.287,0.769 -0.358,2.399 -0.358,4.08 V 7.104 c 0,3.313 0.888,4.777 1.8,5.641 0.815,0.77 1.872,1.274 3.407,1.274 2.377,0 4.2,-1.682 4.2,-4.178 0,-1.823 -1.03,-3.193 -2.136,-3.743 V 6.001 C 7.058,5.616 8.785,4.08 8.785,1.416 8.785,-1.8 6.338,-3.552 3.77,-3.552 c -1.61,0 -2.809,0.529 -3.698,1.464 z"
             style="fill:#231f20;fill-opacity:1;fill-rule:nonzero;stroke:none"
             id="path15639" />
        </g>
        <g
           id="g15641"
           transform="translate(592.459,21.4395)">
          <path
             d="m 0,0 c -0.418,0.034 -0.687,0.11 -0.807,0.229 -0.119,0.12 -0.147,0.247 -0.089,0.381 0.06,0.136 0.179,0.261 0.36,0.374 0.179,0.114 0.357,0.181 0.536,0.203 0.181,0 0.479,0.006 0.896,0.017 0.418,0.012 1.061,0.024 1.926,0.034 0.866,0.012 2.047,0.027 3.54,0.042 1.493,0.018 3.406,0.043 5.736,0.077 1.014,0 1.747,-0.059 2.195,-0.177 C 14.74,1.062 14.949,0.926 14.92,0.771 14.891,0.619 14.629,0.479 14.136,0.349 13.644,0.219 12.964,0.147 12.098,0.137 Z"
             style="fill:#231f20;fill-opacity:1;fill-rule:nonzero;stroke:none"
             id="path15643" />
        </g>
        <g
           id="g15645"
           transform="translate(602.6582,16.5625)">
          <path
             d="m 0,0 c -0.233,-0.108 -0.426,-0.145 -0.573,-0.104 -0.15,0.039 -0.25,0.121 -0.306,0.246 -0.055,0.125 -0.055,0.28 0,0.467 0.056,0.188 0.168,0.383 0.341,0.586 L 3.867,5.017 C 3.681,5.156 3.353,5.353 2.884,5.603 2.414,5.853 1.906,6.125 1.359,6.422 0.812,6.72 0.285,7.023 -0.223,7.336 -0.729,7.648 -1.116,7.931 -1.383,8.181 L -1.43,8.509 c -0.014,0.108 -0.01,0.207 0.012,0.293 0.023,0.086 0.074,0.155 0.152,0.211 0.079,0.053 0.211,0.096 0.4,0.129 C -0.663,9.156 -0.37,9.091 0.013,8.941 0.396,8.793 0.82,8.599 1.289,8.355 1.759,8.113 2.238,7.836 2.73,7.523 3.224,7.211 3.673,6.902 4.078,6.599 4.484,6.293 4.82,6.004 5.087,5.73 5.353,5.457 5.5,5.242 5.531,5.086 5.375,4.773 5.105,4.396 4.724,3.949 4.341,3.504 3.892,3.047 3.375,2.578 2.859,2.109 2.31,1.648 1.724,1.195 1.138,0.742 0.562,0.345 0,0"
             style="fill:#231f20;fill-opacity:1;fill-rule:nonzero;stroke:none"
             id="path15647" />
        </g>
        <g
           id="g15649"
           transform="translate(33.9883,453.4272)">
          <path
             d="m 0,0 c 0.552,-0.888 1.729,-1.92 3.384,-1.92 1.921,0 3.289,1.416 3.289,3.336 0,2.305 -1.632,3.48 -3.745,3.553 -0.216,0.023 -0.431,0 -0.648,0 v 1.44 c 0.144,0 0.264,0.024 0.408,0.048 1.825,0.12 2.737,1.536 2.737,3.072 0,1.704 -1.032,2.808 -2.448,2.808 C 1.032,12.337 0,10.657 0,7.345 Z m 0.024,-2.088 v -1.608 c 0,-1.368 0.024,-3.361 0.264,-4.344 H -1.68 c -0.288,0.768 -0.36,2.399 -0.36,4.08 V 7.104 c 0,3.313 0.888,4.777 1.8,5.641 0.816,0.769 1.872,1.273 3.408,1.273 2.376,0 4.201,-1.681 4.201,-4.177 0,-1.824 -1.032,-3.193 -2.137,-3.744 V 6.001 C 7.057,5.616 8.785,4.08 8.785,1.416 c 0,-3.216 -2.448,-4.968 -5.016,-4.968 -1.609,0 -2.809,0.528 -3.697,1.464 z"
             style="fill:#231f20;fill-opacity:1;fill-rule:nonzero;stroke:none"
             id="path15651" />
        </g>
        <g
           id="g15653"
           transform="translate(48.231,458.5874)">
          <path
             d="m 0,0 c -0.418,0.034 -0.687,0.11 -0.807,0.229 -0.119,0.119 -0.149,0.246 -0.089,0.381 0.06,0.136 0.179,0.261 0.358,0.373 0.18,0.114 0.359,0.182 0.538,0.204 0.179,0 0.478,0.006 0.896,0.017 0.418,0.012 1.06,0.023 1.926,0.034 0.866,0.011 2.046,0.026 3.54,0.042 1.493,0.018 3.405,0.043 5.734,0.076 1.016,0 1.748,-0.058 2.196,-0.177 C 14.74,1.061 14.949,0.925 14.919,0.771 14.889,0.619 14.627,0.478 14.135,0.348 13.642,0.218 12.962,0.146 12.096,0.136 Z"
             style="fill:#231f20;fill-opacity:1;fill-rule:nonzero;stroke:none"
             id="path15655" />
        </g>
        <g
           id="g15657"
           transform="translate(58.4297,453.7095)">
          <path
             d="m 0,0 c -0.234,-0.109 -0.426,-0.145 -0.574,-0.105 -0.149,0.039 -0.25,0.121 -0.305,0.246 -0.055,0.125 -0.055,0.281 0,0.468 0.055,0.188 0.168,0.383 0.34,0.586 L 3.867,5.016 C 3.68,5.156 3.352,5.352 2.883,5.602 2.414,5.852 1.906,6.125 1.359,6.422 0.812,6.719 0.285,7.023 -0.223,7.336 -0.73,7.648 -1.117,7.93 -1.383,8.18 L -1.43,8.508 c -0.015,0.109 -0.011,0.207 0.012,0.293 0.023,0.086 0.074,0.156 0.152,0.211 0.079,0.054 0.211,0.097 0.399,0.129 0.203,0.015 0.496,-0.051 0.879,-0.2 C 0.395,8.793 0.82,8.598 1.289,8.355 1.758,8.113 2.238,7.836 2.73,7.523 3.223,7.211 3.672,6.902 4.078,6.598 4.484,6.293 4.82,6.004 5.086,5.73 5.352,5.457 5.5,5.242 5.531,5.086 5.375,4.773 5.105,4.395 4.723,3.949 4.34,3.504 3.891,3.047 3.375,2.578 2.859,2.109 2.309,1.648 1.723,1.195 1.137,0.742 0.562,0.344 0,0"
             style="fill:#231f20;fill-opacity:1;fill-rule:nonzero;stroke:none"
             id="path15659" />
        </g>
        <g
           id="g15661"
           transform="translate(82.5864,458.5874)">
          <path
             d="M 0,0 C 0,1.224 -0.864,2.112 -2.04,2.112 -3.408,2.112 -4.512,0.936 -5.424,0 -4.488,-0.864 -3.504,-2.112 -2.112,-2.112 -0.912,-2.112 0,-1.129 0,0 m -7.344,0 c -0.936,0.863 -1.921,2.112 -3.313,2.112 -1.2,0 -2.112,-0.984 -2.112,-2.112 0,-1.225 0.864,-2.112 2.04,-2.112 1.369,0 2.473,1.175 3.385,2.112 m 0.96,-0.984 c -1.224,-1.225 -2.496,-2.569 -4.441,-2.569 -2.016,0 -3.456,1.489 -3.456,3.553 0,1.896 1.536,3.552 3.648,3.552 1.777,0 3.096,-1.416 4.249,-2.569 1.224,1.225 2.496,2.569 4.44,2.569 2.04,0 3.456,-1.489 3.456,-3.552 0,-1.896 -1.536,-3.553 -3.648,-3.553 -1.776,0 -3.096,1.416 -4.248,2.569"
             style="fill:#231f20;fill-opacity:1;fill-rule:nonzero;stroke:none"
             id="path15663" />
        </g>
        <g
           id="g15665"
           transform="translate(39.9482,34.8857)">
          <path
             d="m 0,0 0.5,413.521 0.39,-1.46 0.39,-1.461 0.39,-1.44 0.4,-1.44 0.39,-1.429 0.39,-1.421 0.39,-1.41 0.39,-1.399 0.39,-1.391 0.39,-1.379 0.4,-1.371 0.39,-1.359 0.39,-1.361 0.39,-1.341 0.39,-1.329 0.39,-1.33 0.39,-1.31 0.39,-1.31 0.39,-1.289 0.4,-1.291 0.39,-1.271 0.39,-1.259 0.39,-1.26 0.39,-1.25 0.39,-1.25 0.39,-1.24 0.4,-1.241 0.39,-1.229 0.39,-1.22 0.39,-1.23 0.39,-1.21 0.39,-1.21 0.39,-1.21 0.4,-1.2 0.39,-1.19 0.39,-1.19 0.39,-1.191 0.39,-1.179 0.39,-1.17 0.39,-1.17 0.39,-1.17 0.4,-1.16 0.39,-1.151 0.39,-1.149 0.39,-1.141 0.39,-1.139 0.39,-1.14 0.39,-1.12 0.39,-1.13 0.4,-1.11 0.39,-1.12 0.39,-1.1 0.39,-1.11 0.39,-1.09 0.39,-1.09 0.4,-1.09 0.39,-1.079 0.39,-1.081 0.39,-1.07 0.39,-1.06 0.39,-1.059 0.39,-1.061 0.39,-1.05 0.39,-1.04 0.4,-1.05 0.39,-1.029 0.39,-1.041 0.39,-1.03 0.39,-1.031 0.39,-1.019 0.39,-1.03 0.4,-1.01 0.39,-1.021 0.39,-1.009 0.39,-1.01 0.39,-1 0.39,-1 0.39,-1 0.39,-0.99 0.4,-0.991 0.39,-0.989 0.39,-0.98 0.39,-0.98 0.39,-0.98 0.39,-0.97 0.39,-0.97 0.4,-0.96 0.39,-0.96 0.39,-0.961 0.39,-0.96 0.39,-0.949 0.39,-0.95 0.39,-0.939 0.39,-0.941 0.4,-0.94 0.39,-0.94 0.39,-0.929 0.39,-0.921 0.39,-0.93 0.39,-0.919 0.39,-0.921 0.4,-0.91 0.39,-0.91 0.39,-0.91 0.39,-0.9 0.39,-0.9 0.39,-0.901 0.39,-0.889 0.39,-0.89 0.4,-0.889 0.39,-0.881 0.39,-0.88 0.39,-0.87 0.39,-0.88 0.39,-0.87 0.39,-0.86 0.4,-0.87 0.39,-0.86 0.39,-0.85 0.39,-0.85 0.39,-0.85 0.39,-0.851 0.39,-0.838 0.39,-0.841 0.4,-0.83 0.39,-0.84 0.39,-0.83 0.39,-0.83 0.39,-0.829 0.39,-0.821 0.39,-0.82 0.4,-0.82 0.39,-0.82 0.39,-0.81 0.39,-0.81 0.39,-0.81 0.39,-0.809 0.39,-0.801 0.39,-0.801 0.4,-0.799 0.39,-0.8 0.39,-0.79 0.39,-0.79 0.39,-0.79 0.39,-0.79 0.39,-0.781 0.4,-0.79 0.39,-0.779 0.39,-0.769 0.39,-0.781 0.39,-0.77 0.39,-0.77 0.39,-0.77 0.39,-0.76 0.4,-0.76 0.39,-0.761 0.39,-0.759 0.39,-0.75 0.39,-0.76 0.39,-0.75 0.4,-0.75 0.39,-0.74 0.39,-0.741 0.39,-0.739 0.39,-0.74 0.39,-0.74 0.39,-0.73 0.39,-0.73 0.39,-0.73 0.4,-0.73 0.39,-0.72 0.39,-0.721 0.39,-0.719 0.39,-0.72 0.39,-0.71 0.4,-0.72 0.39,-0.699 0.39,-0.711 0.39,-0.71 0.39,-0.7 0.39,-0.7 0.39,-0.699 0.39,-0.691 0.4,-0.7 0.39,-0.691 0.39,-0.689 0.39,-0.68 0.39,-0.69 0.39,-0.68 0.39,-0.679 0.39,-0.681 0.4,-0.67 0.39,-0.67 0.39,-0.67 0.39,-0.67 0.39,-0.67 0.39,-0.66 0.39,-0.66 0.4,-0.66 0.39,-0.66 0.39,-0.65 0.39,-0.659 0.39,-0.651 0.39,-0.64 0.39,-0.65 0.39,-0.64 0.4,-0.64 0.39,-0.64 0.39,-0.639 0.39,-0.631 0.39,-0.639 0.39,-0.631 0.39,-0.619 0.39,-0.631 0.4,-0.63 0.39,-0.62 0.39,-0.619 0.39,-0.622 0.39,-0.608 0.39,-0.621 0.39,-0.62 0.4,-0.611 0.39,-0.609 0.39,-0.61 0.39,-0.611 0.39,-0.599 0.39,-0.6 0.39,-0.61 0.39,-0.6 0.4,-0.6 0.39,-0.59 0.39,-0.6 0.39,-0.59 0.39,-0.591 0.39,-0.588 0.39,-0.59 0.4,-0.591 0.39,-0.58 0.39,-0.59 0.39,-0.58 0.39,-0.58 0.39,-0.569 0.39,-0.582 0.39,-0.58 0.4,-0.569 0.39,-0.569 0.39,-0.572 0.39,-0.569 0.39,-0.569 0.39,-0.561 0.39,-0.559 0.4,-0.572 0.39,-0.558 0.39,-0.561 0.39,-0.551 0.39,-0.559 0.39,-0.55 0.39,-0.55 0.39,-0.551 0.4,-0.548 0.39,-0.551 0.39,-0.54 0.39,-0.55 0.39,-0.54 0.39,-0.54 0.39,-0.54 0.4,-0.54 0.39,-0.529 0.39,-0.54 0.39,-0.531 0.39,-0.53 0.39,-0.529 0.39,-0.532 0.39,-0.519 0.4,-0.529 0.39,-0.521 0.39,-0.519 0.39,-0.521 0.39,-0.519 0.39,-0.521 0.39,-0.51 0.4,-0.519 0.39,-0.511 0.39,-0.51 0.39,-0.511 0.39,-0.508 0.39,-0.5 0.39,-0.511 0.39,-0.5 0.4,-0.5 0.39,-0.5 0.39,-0.5 0.39,-0.5 0.39,-0.489 0.39,-0.5 0.4,-0.492 0.39,-0.489 0.39,-0.49 0.39,-0.489 0.39,-0.481 0.39,-0.49 0.39,-0.479 0.39,-0.481 0.39,-0.479 0.4,-0.481 0.39,-0.479 0.39,-0.471 0.39,-0.481 0.39,-0.468 0.39,-0.471 0.4,-0.47 0.39,-0.469 0.39,-0.471 0.39,-0.46 0.39,-0.47 0.39,-0.46 0.39,-0.46 0.39,-0.46 0.4,-0.46 0.39,-0.461 0.39,-0.449 0.39,-0.46 0.39,-0.45 0.39,-0.449 0.39,-0.45 0.39,-0.452 0.4,-0.449 0.39,-0.439 0.39,-0.45 0.39,-0.441 0.39,-0.439 0.39,-0.441 0.39,-0.439 0.4,-0.442 0.39,-0.428 0.39,-0.441 0.39,-0.429 0.39,-0.431 0.39,-0.441 0.39,-0.418 0.39,-0.431 0.4,-0.43 0.39,-0.42 0.39,-0.429 0.39,-0.42 0.39,-0.42 0.39,-0.42 0.39,-0.421 0.39,-0.42 0.4,-0.409 0.39,-0.421 0.39,-0.409 0.39,-0.41 0.39,-0.42 0.39,-0.412 0.39,-0.409 0.4,-0.41 0.39,-0.399 0.39,-0.41 0.39,-0.401 0.39,-0.41 0.39,-0.399 0.39,-0.401 0.39,-0.4 0.4,-0.401 0.39,-0.399 0.39,-0.399 0.39,-0.401 0.39,-0.389 0.39,-0.401 0.4,-0.389 0.39,-0.391 0.39,-0.39 0.39,-0.389 0.39,-0.391 0.39,-0.391 0.39,-0.388 0.39,-0.381 0.39,-0.39 0.4,-0.38 0.39,-0.389 0.39,-0.38 0.39,-0.381 0.39,-0.38 0.39,-0.38 0.4,-0.38 0.39,-0.37 0.39,-0.38 0.39,-0.37 0.39,-0.38 0.39,-0.37 0.39,-0.37 0.39,-0.37 0.4,-0.369 0.39,-0.37 0.39,-0.361 0.39,-0.37 0.39,-0.37 0.39,-0.359 0.39,-0.37 0.4,-0.361 0.39,-0.36 0.39,-0.359 0.39,-0.361 0.39,-0.359 0.39,-0.351 0.39,-0.36 0.39,-0.361 0.39,-0.349 0.4,-0.35 0.39,-0.36 0.39,-0.35 0.39,-0.349 0.39,-0.351 0.39,-0.349 0.39,-0.351 0.4,-0.34 0.39,-0.351 0.39,-0.338 0.39,-0.351 0.39,-0.34 0.39,-0.341 0.39,-0.338 0.39,-0.34 0.4,-0.341 0.39,-0.34 0.39,-0.34 0.39,-0.33 0.39,-0.34 0.39,-0.33 0.39,-0.34 0.4,-0.33 0.39,-0.33 0.39,-0.33 0.39,-0.33 0.39,-0.33 0.39,-0.33 0.39,-0.319 0.39,-0.332 0.4,-0.33 0.39,-0.319 0.39,-0.319 0.39,-0.33 0.39,-0.321 0.39,-0.32 0.4,-0.319 0.39,-0.322 0.39,-0.308 0.39,-0.322 0.39,-0.319 0.39,-0.309 0.39,-0.321 0.39,-0.309 0.39,-0.311 0.4,-0.309 0.39,-0.311 0.39,-0.311 0.39,-0.309 0.39,-0.311 0.39,-0.308 0.39,-0.301 0.4,-0.311 0.39,-0.298 0.39,-0.311 0.39,-0.3 0.39,-0.301 0.39,-0.298 0.39,-0.301 0.4,-0.3 0.39,-0.3 0.39,-0.301 0.39,-0.298 0.39,-0.29 0.39,-0.301 0.39,-0.289 0.39,-0.29 0.4,-0.301 0.39,-0.29 0.39,-0.29 0.39,-0.29 0.39,-0.289 0.39,-0.29 0.39,-0.29 0.39,-0.282 0.4,-0.29 0.39,-0.279 0.39,-0.29 0.39,-0.279 0.39,-0.29 0.39,-0.282 0.39,-0.279 0.4,-0.28 0.39,-0.279 0.39,-0.282 0.39,-0.269 0.39,-0.279 0.39,-0.281 0.39,-0.269 0.39,-0.282 0.4,-0.269 0.39,-0.271 0.39,-0.279 0.39,-0.269 0.39,-0.271 0.39,-0.269 0.39,-0.271 0.4,-0.269 0.39,-0.26 0.39,-0.271 0.39,-0.269 0.39,-0.261 0.39,-0.271 0.39,-0.258 0.39,-0.261 0.4,-0.271 0.39,-0.258 0.39,-0.261 0.39,-0.26 0.39,-0.261 0.39,-0.258 0.4,-0.25 0.39,-0.261 0.39,-0.25 0.39,-0.26 0.39,-0.261 0.39,-0.25 0.39,-0.25 0.39,-0.258 0.39,-0.25 0.4,-0.25 0.39,-0.25 0.39,-0.25 0.39,-0.25 0.39,-0.242 0.39,-0.25 0.4,-0.25 0.39,-0.239 0.39,-0.25 0.39,-0.24 0.39,-0.25 0.39,-0.239 0.39,-0.242 0.39,-0.239 0.4,-0.24 0.39,-0.239 0.39,-0.242 0.39,-0.239 0.39,-0.24 0.39,-0.239 0.39,-0.231 0.39,-0.24 0.4,-0.239 0.39,-0.231 0.39,-0.229 0.39,-0.24 0.39,-0.231 0.39,-0.229 0.39,-0.231 0.4,-0.229 0.39,-0.231 0.39,-0.229 0.39,-0.231 0.39,-0.229 0.39,-0.221 0.39,-0.229 0.39,-0.231 0.4,-0.22 0.39,-0.219 0.39,-0.231 0.39,-0.221 0.39,-0.218 0.39,-0.221 0.39,-0.231 0.39,-0.218 0.4,-0.221 0.39,-0.21 0.39,-0.221 0.39,-0.218 0.39,-0.221 0.39,-0.21 0.39,-0.22 0.4,-0.21 0.39,-0.219 0.39,-0.21 0.39,-0.221 0.39,-0.21 0.39,-0.21 0.39,-0.21 0.39,-0.21 0.4,-0.21 0.39,-0.21 0.39,-0.21 0.39,-0.21 0.39,-0.21 0.39,-0.2 0.39,-0.21 0.4,-0.21 0.39,-0.2 0.39,-0.21 0.39,-0.199 0.39,-0.21 0.39,-0.2 0.39,-0.202 0.39,-0.21 0.4,-0.199 0.39,-0.2 0.39,-0.2 0.39,-0.199 0.39,-0.202 0.39,-0.199 0.39,-0.2 0.4,-0.2 0.39,-0.199 0.39,-0.191 0.39,-0.2 0.39,-0.189 0.39,-0.202 0.39,-0.199 0.39,-0.189 0.4,-0.191 0.39,-0.2 0.39,-0.189 0.39,-0.202 0.39,-0.189 0.39,-0.189 0.39,-0.191 0.4,-0.189 0.39,-0.191 0.39,-0.189 0.39,-0.192 0.39,-0.189 0.39,-0.191 0.39,-0.189 0.39,-0.181 0.4,-0.189 0.39,-0.191 0.39,-0.178 0.39,-0.192 0.39,-0.178 0.39,-0.191 0.39,-0.179 0.4,-0.191 0.39,-0.181 0.39,-0.178 0.39,-0.181 0.39,-0.181 0.39,-0.178 0.39,-0.191 0.39,-0.179 0.4,-0.181 0.39,-0.18 0.39,-0.17 0.39,-0.179 0.39,-0.181 0.39,-0.18 0.39,-0.171 0.4,-0.178 0.39,-0.181 0.39,-0.17 0.39,-0.181 0.39,-0.17 0.39,-0.178 0.39,-0.171 0.39,-0.17 0.4,-0.18 0.39,-0.171 0.39,-0.17 0.39,-0.168 0.39,-0.17 0.39,-0.17 0.39,-0.17 0.4,-0.171 0.39,-0.17 0.39,-0.17 0.39,-0.17 0.39,-0.17 0.39,-0.16 0.39,-0.17 0.39,-0.17 0.4,-0.16 0.39,-0.17 0.39,-0.16 0.39,-0.17 0.39,-0.16 0.39,-0.17 0.39,-0.159 0.4,-0.171 0.39,-0.159 0.39,-0.16 0.39,-0.162 0.39,-0.159 0.39,-0.16 0.39,-0.16 0.39,-0.159 0.4,-0.16 0.39,-0.162 0.39,-0.159 0.39,-0.16 0.39,-0.16 0.39,-0.159 0.39,-0.152 0.4,-0.159 0.39,-0.16 0.39,-0.149 0.39,-0.162 0.39,-0.149 0.39,-0.16 0.39,-0.149 0.39,-0.162 0.4,-0.149 0.39,-0.149 0.39,-0.151 0.39,-0.16 0.39,-0.149 0.39,-0.151 0.39,-0.149 0.4,-0.152 0.389,-0.149 0.391,-0.149 0.39,-0.151 0.39,-0.149 0.39,-0.152 0.39,-0.149 0.39,-0.149 0.4,-0.141 0.39,-0.149 0.39,-0.151 0.39,-0.139 0.39,-0.151 0.39,-0.149 0.39,-0.141 0.4,-0.149 0.39,-0.141 0.39,-0.141 0.39,-0.149 0.39,-0.141 0.39,-0.138 0.39,-0.151 0.39,-0.139 0.4,-0.141 0.389,-0.141 0.391,-0.138 0.39,-0.141 0.39,-0.141 0.39,-0.139 0.39,-0.14 0.4,-0.139 0.39,-0.141 0.39,-0.14 0.39,-0.139 0.39,-0.13 0.39,-0.141 0.39,-0.141 0.39,-0.128 0.4,-0.141 0.39,-0.14 0.39,-0.131 0.39,-0.138 0.39,-0.131 0.39,-0.14 0.39,-0.131 0.4,-0.128 0.39,-0.141 0.389,-0.13 0.391,-0.13 0.39,-0.13 0.39,-0.139 0.39,-0.13 0.39,-0.131 0.4,-0.13 0.39,-0.13 0.39,-0.13 0.39,-0.13 0.39,-0.131 0.39,-0.128 0.39,-0.13 0.4,-0.12 0.39,-0.13 0.39,-0.13 0.39,-0.131 0.39,-0.13 0.39,-0.12 0.39,-0.13 0.39,-0.12 0.4,-0.13 0.39,-0.13 0.389,-0.12 0.391,-0.13 0.39,-0.12 0.39,-0.12 0.39,-0.13 0.4,-0.12 0.39,-0.119 0.39,-0.131 0.39,-0.119 0.39,-0.12 0.39,-0.12 0.39,-0.122 0.39,-0.119 0.4,-0.131 0.39,-0.119 0.39,-0.11 0.39,-0.12 0.39,-0.119 0.39,-0.12 0.39,-0.122 0.4,-0.12 0.39,-0.119 0.39,-0.12 0.389,-0.109 0.391,-0.12 0.39,-0.12 0.39,-0.111 0.4,-0.12 0.39,-0.12 0.39,-0.109 0.39,-0.122 0.39,-0.109 0.39,-0.12 0.39,-0.109 0.4,-0.111 0.39,-0.12 0.39,-0.109 0.39,-0.12 0.39,-0.111 0.39,-0.11 0.39,-0.109 0.39,-0.122 0.39,-0.109 0.4,-0.109 0.39,-0.112 0.39,-0.109 0.389,-0.109 0.391,-0.111 0.39,-0.11 0.39,-0.109 0.4,-0.111 0.39,-0.11 0.39,-0.111 0.39,-0.099 0.39,-0.109 0.39,-0.111 0.39,-0.109 0.4,-0.112 0.39,-0.099 0.39,-0.111 0.39,-0.099 0.39,-0.109 0.39,-0.111 0.39,-0.099 0.39,-0.111 0.4,-0.099 0.39,-0.111 0.39,-0.099 0.39,-0.101 0.389,-0.109 0.391,-0.101 0.39,-0.109 0.39,-0.101 0.4,-0.099 0.39,-0.101 0.39,-0.1 0.39,-0.11 0.39,-0.101 0.39,-0.098 0.4,-0.101 0.39,-0.099 0.39,-0.101 0.39,-0.101 0.39,-0.098 0.39,-0.101 0.39,-0.099 0.39,-0.101 0.39,-0.101 0.4,-0.098 0.39,-0.091 0.39,-0.1 0.39,-0.099 0.389,-0.101 0.391,-0.09 0.39,-0.099 0.4,-0.101 0.39,-0.09 0.39,-0.099 0.39,-0.101 0.39,-0.09 0.39,-0.099 0.39,-0.09 0.4,-0.101 0.39,-0.09 0.39,-0.099 0.39,-0.091 0.39,-0.09 0.39,-0.101 0.39,-0.088 0.4,-0.09 0.39,-0.101 0.39,-0.09 0.39,-0.091 0.39,-0.088 0.39,-0.101 0.389,-0.09 0.391,-0.091 0.39,-0.088 0.4,-0.09 0.39,-0.091 0.39,-0.09 0.39,-0.09 0.39,-0.09 0.39,-0.091 0.39,-0.088 0.4,-0.09 0.39,-0.091 0.39,-0.09 0.39,-0.08 0.389,-0.09 0.391,-0.09 0.39,-0.089 0.4,-0.082 0.39,-0.088 0.389,-0.09 0.391,-0.091 0.39,-0.08 0.389,-0.09 0.39,-0.08 0.4,-0.09 0.391,-0.08 0.39,-0.09 0.389,-0.08 0.391,-0.09 0.39,-0.08 0.39,-0.09 0.39,-0.08 0.39,-0.091 0.4,-0.079 0.39,-0.08 0.39,-0.091 0.39,-0.079 0.389,-0.08 0.391,-0.08 0.4,-0.09 0.39,-0.08 0.39,-0.08 0.389,-0.08 0.391,-0.08 0.39,-0.08 0.389,-0.08 0.39,-0.079 0.4,-0.091 0.391,-0.08 0.39,-0.079 0.389,-0.08 0.391,-0.071 0.39,-0.089 0.39,-0.071 0.39,-0.08 0.4,-0.08 0.39,-0.08 0.39,-0.08 0.39,-0.079 0.39,-0.072 0.389,-0.08 0.391,-0.079 0.4,-0.08 0.39,-0.07 0.39,-0.08 0.389,-0.079 0.391,-0.072 0.39,-0.079 0.389,-0.07 0.401,-0.08 0.389,-0.08 0.391,-0.069 0.39,-0.082 0.389,-0.069 0.391,-0.08 0.39,-0.069 0.39,-0.072 0.39,-0.079 0.4,-0.07 0.39,-0.08 0.39,-0.069 0.39,-0.071 0.39,-0.08 0.389,-0.07 0.391,-0.069 0.4,-0.071 0.39,-0.08 0.39,-0.07 0.389,-0.069 0.391,-0.071 0.39,-0.07 0.389,-0.08 0.401,-0.069 0.389,-0.071 0.391,-0.07 0.39,-0.069 0.389,-0.071 0.391,-0.07 0.39,-0.069 0.399,-0.071 0.391,-0.07 0.39,-0.069 0.39,-0.071 0.39,-0.059 0.39,-0.072 0.39,-0.069 0.389,-0.069 0.391,-0.072 0.4,-0.069 0.39,-0.07 0.39,-0.06 0.389,-0.07 0.391,-0.069 0.39,-0.061 0.4,-0.069 0.39,-0.072 0.389,-0.059 0.391,-0.069 0.39,-0.071 0.389,-0.059 0.391,-0.071 0.39,-0.059 0.399,-0.072 0.391,-0.059 0.39,-0.069 0.39,-0.061 0.39,-0.069 0.39,-0.061 0.39,-0.07 0.389,-0.06 0.401,-0.07 0.39,-0.061 0.39,-0.059 0.39,-0.069 0.389,-0.061 0.391,-0.061 0.39,-0.069 0.4,-0.059 0.39,-0.061 0.389,-0.061 0.391,-0.069 0.39,-0.059 0.389,-0.061 0.391,-0.061 0.39,-0.059 0.399,-0.069 0.391,-0.061 0.39,-0.061 0.39,-0.059 0.39,-0.06 0.39,-0.059 0.39,-0.061 0.389,-0.059 0.401,-0.061 0.39,-0.061 0.39,-0.059 0.39,-0.06 0.389,-0.059 0.391,-0.061 0.39,-0.059 0.4,-0.051 0.39,-0.06 0.389,-0.059 0.391,-0.061 0.39,-0.059 0.389,-0.061 0.391,-0.059 0.39,-0.05 0.399,-0.061 0.391,-0.059 0.39,-0.061 0.39,-0.05 0.39,-0.059 0.39,-0.061 0.39,-0.05 0.4,-0.059 0.39,-0.051 0.39,-0.061 0.39,-0.059 0.39,-0.05 0.389,-0.061 0.391,-0.048 0.39,-0.061 0.4,-0.059 0.39,-0.05 0.389,-0.051 0.391,-0.061 0.39,-0.048 0.389,-0.061 0.401,-0.05 0.389,-0.059 0.39,-0.051 0.391,-0.06 0.39,-0.049 0.39,-0.05 0.39,-0.061 0.39,-0.05 0.39,-0.049 0.4,-0.05 0.39,-0.061 0.39,-0.051 0.39,-0.048 0.39,-0.061 0.389,-0.05 0.391,-0.051 0.399,-0.048 0.391,-0.051 0.39,-0.05 0.389,-0.061 0.391,-0.048 0.39,-0.051 0.389,-0.05 0.401,-0.05 0.389,-0.051 0.39,-0.048 0.391,-0.051 0.39,-0.05 0.39,-0.05 0.39,-0.051 0.39,-0.048 0.4,-0.051 0.39,-0.05 0.39,-0.05 0.39,-0.051 0.39,-0.048 0.39,-0.051 0.389,-0.05 0.391,-0.05 0.399,-0.051 0.391,-0.048 0.39,-0.04 0.389,-0.051 0.391,-0.05 0.39,-0.05 0.389,-0.051 0.401,-0.048 0.389,-0.04 0.39,-0.05 0.391,-0.051 0.39,-0.04 0.39,-0.05 0.39,-0.05 0.39,-0.049 0.4,-0.04 0.39,-0.05 0.39,-0.051 0.39,-0.04 0.39,-0.05 0.39,-0.04 0.389,-0.05 0.401,-0.051 0.389,-0.04 0.391,-0.048 0.39,-0.04 0.389,-0.05 0.391,-0.04 0.39,-0.051 0.389,-0.04 0.401,-0.05 0.389,-0.04 0.39,-0.05 0.391,-0.04 0.39,-0.04 0.39,-0.05 0.39,-0.04 0.4,-0.049 0.39,-0.042 0.39,-0.04 0.39,-0.048 0.39,-0.04 0.39,-0.04 0.39,-0.05 0.389,-0.04 0.401,-0.04 0.389,-0.051 0.391,-0.04 0.39,-0.039 0.389,-0.04 0.391,-0.051 0.39,-0.04 0.4,-0.04 0.39,-0.04 0.389,-0.05 0.39,-0.04 0.391,-0.04 0.39,-0.04 0.39,-0.04 0.39,-0.04 0.4,-0.05 0.39,-0.04 0.39,-0.04 0.39,-0.04 0.39,-0.04 0.39,-0.04 0.39,-0.039 0.4,-0.04 0.39,-0.04 0.389,-0.04 0.391,-0.04 0.39,-0.04 0.389,-0.04 0.391,-0.04 0.39,-0.042 0.4,-0.04 0.39,-0.04 0.389,-0.039 0.39,-0.04 0.391,-0.04 0.39,-0.04 0.39,-0.03 0.399,-0.04 0.391,-0.04 0.39,-0.04 0.39,-0.039 0.39,-0.04 0.39,-0.032 0.39,-0.04 0.39,-0.04 0.4,-0.039 0.39,-0.04 0.389,-0.03 0.391,-0.04 0.39,-0.04 0.389,-0.04 0.391,-0.029 0.399,-0.04 0.391,-0.04 0.39,-0.031 0.389,-0.04 0.39,-0.04 0.391,-0.03 0.39,-0.04 0.389,-0.04 0.4,-0.029 0.391,-0.04 0.39,-0.042 0.39,-0.029 0.39,-0.04 0.39,-0.03 0.399,-0.04 0.391,-0.029 0.39,-0.04 0.39,-0.042 0.389,-0.029 0.391,-0.04 0.39,-0.03 0.389,-0.04 0.391,-0.029 0.399,-0.04 0.391,-0.031 0.39,-0.04 0.389,-0.03 0.39,-0.029 0.391,-0.04 0.39,-0.031 0.4,-0.04 0.389,-0.03 0.391,-0.04 0.39,-0.029 0.39,-0.032 0.39,-0.039 0.39,-0.03 0.399,-0.029 0.391,-0.04 0.39,-0.032 0.39,-0.029 0.389,-0.04 0.391,-0.03 0.39,-0.029 0.4,-0.04 0.39,-0.031 0.389,-0.03 0.391,-0.029 0.39,-0.032 0.389,-0.04 0.39,-0.029 0.391,-0.03 0.39,-0.029 0.4,-0.04 0.389,-0.031 0.391,-0.03 0.39,-0.029 0.39,-0.032 0.39,-0.039 0.39,-0.03 0.399,-0.029 0.391,-0.03 0.39,-0.031 0.39,-0.03 0.389,-0.029 0.391,-0.032 0.39,-0.029 0.4,-0.03 0.39,-0.039 0.389,-0.03 0.391,-0.031 0.39,-0.03 0.389,-0.029 0.39,-0.032 0.391,-0.029 0.4,-0.03 0.39,-0.029 0.389,-0.031 0.391,-0.03 0.39,-0.029 0.39,-0.032 0.39,-0.029 0.39,-0.03 0.4,-0.02 0.39,-0.03 0.39,-0.029 0.39,-0.03 0.389,-0.031 0.391,-0.03 0.39,-0.029 0.4,-0.032 0.39,-0.029 0.389,-0.03 0.391,-0.029 0.39,-0.021 0.389,-0.029 0.39,-0.032 0.391,-0.029 0.4,-0.03 0.39,-0.029 0.389,-0.021 0.391,-0.03 0.39,-0.029 0.39,-0.031 0.39,-0.019 0.4,-0.032 0.39,-0.029 0.39,-0.03 0.39,-0.021 0.39,-0.029 0.389,-0.03 0.391,-0.029 0.39,-0.021 0.4,-0.029 0.39,-0.032 0.389,-0.019 0.391,-0.029 0.39,-0.032 0.389,-0.019 0.39,-0.029 0.4,-0.031 0.391,-0.019 0.39,-0.03 0.389,-0.031 0.391,-0.019 0.39,-0.032 0.39,-0.019 0.39,-0.029 0.4,-0.031 0.39,-0.02 0.39,-0.029 0.39,-0.021 0.39,-0.029 0.389,-0.021 0.391,-0.03 0.4,-0.029 0.39,-0.021 0.39,-0.03 0.389,-0.02 0.391,-0.03 0.39,-0.019 0.389,-0.031 0.39,-0.019 0.4,-0.032 0.391,-0.019 0.39,-0.029 0.389,-0.021 0.391,-0.019 0.39,-0.031 0.39,-0.02 0.4,-0.029 0.39,-0.021 0.39,-0.029 0.39,-0.021 0.39,-0.03 0.39,-0.021 0.389,-0.019 0.391,-0.029 0.4,-0.021 0.39,-0.019 0.39,-0.031 0.389,-0.019 0.391,-0.03 0.39,-0.021 0.389,-0.021 0.401,-0.019 0.389,-0.029 0.391,-0.021 0.39,-0.019 0.389,-0.031 0.391,-0.02 0.39,-0.02 0.39,-0.03 0.4,-0.019 0.39,-0.021 0.39,-0.029 0.39,-0.021 0.39,-0.019 0.39,-0.021 0.389,-0.019 0.401,-0.031 0.39,-0.02 0.39,-0.02 0.39,-0.019 0.389,-0.03 0.391,-0.021 0.39,-0.021 0.389,-0.019 0.401,-0.021 0.389,-0.029 0.391,-0.019 0.39,-0.021 0.389,-0.019 0.391,-0.021 0.39,-0.019 0.399,-0.021 0.391,-0.029 0.39,-0.021 0.39,-0.019 0.39,-0.021 0.39,-0.019 0.39,-0.021 0.389,-0.019 0.401,-0.021 0.39,-0.03 0.39,-0.02 0.39,-0.019 0.389,-0.021 0.391,-0.019 0.39,-0.021 0.4,-0.019 0.39,-0.021 0.389,-0.019 0.391,-0.021 0.39,-0.019 0.389,-0.021 0.391,-0.019 0.39,-0.021 0.399,-0.019 0.391,-0.021 0.39,-0.019 0.39,-0.021 0.39,-0.021 0.39,-0.019 0.39,-0.021 0.4,-0.019 0.39,-0.021 0.39,-0.019 0.39,-0.02 0.39,-0.02 0.389,-0.02 0.391,-0.019 0.39,-0.021 0.4,-0.019 0.39,-0.021 0.389,-0.019 0.391,-0.011 0.39,-0.021 0.39,-0.019 0.4,-0.021 0.389,-0.019 0.39,-0.02 0.391,-0.02 0.39,-0.02 0.39,-0.009 0.39,-0.021 0.39,-0.019 0.39,-0.021 z"
             style="fill:#cfcce6;fill-opacity:1;fill-rule:nonzero;stroke:none"
             id="path15667" />
        </g>
        <g
           id="g15669"
           transform="translate(40.4482,448.4058)">
          <path
             d="M 0,0 -0.45,-414.224"
             style="fill:none;stroke:#4d4d4f;stroke-width:1;stroke-linecap:square;stroke-linejoin:miter;stroke-miterlimit:10;stroke-dasharray:none;stroke-opacity:1"
             id="path15671" />
        </g>
        <g
           id="g15673"
           transform="translate(621.5098,448.5083)">
          <path
             d="M 0,0 -0.449,-414.225"
             style="fill:none;stroke:#4d4d4f;stroke-width:1;stroke-linecap:square;stroke-linejoin:miter;stroke-miterlimit:10;stroke-dasharray:none;stroke-opacity:1"
             id="path15675" />
        </g>
        <g
           id="g15677"
           transform="translate(42.46,448.4077)">
          <path
             d="m 0,0 0.391,-1.463 0.392,-1.456 0.391,-1.446 0.391,-1.437 0.392,-1.428 0.391,-1.419 0.391,-1.409 0.392,-1.401 0.391,-1.391 0.391,-1.381 0.392,-1.373 0.391,-1.362 0.391,-1.353 0.392,-1.344 0.391,-1.333 0.391,-1.324 0.392,-1.314 0.391,-1.305 0.391,-1.294 0.392,-1.286 0.391,-1.273 0.391,-1.265 0.392,-1.257 0.391,-1.251 0.391,-1.247 0.392,-1.241 0.391,-1.236 0.391,-1.232 0.392,-1.226 0.391,-1.221 0.391,-1.215 0.392,-1.212 0.391,-1.205 0.391,-1.201 0.392,-1.195 0.391,-1.191 0.391,-1.184 0.392,-1.18 0.391,-1.175 0.391,-1.17 0.392,-1.165 0.391,-1.158 0.391,-1.155 0.392,-1.148 0.391,-1.144 0.391,-1.139 0.392,-1.133 0.391,-1.128 0.391,-1.123 0.392,-1.117 0.391,-1.113 0.391,-1.107 0.392,-1.102 0.391,-1.098 0.391,-1.09 0.392,-1.086 0.391,-1.081 0.391,-1.077 0.392,-1.07 0.391,-1.065 0.391,-1.06 0.392,-1.056 0.391,-1.048 0.391,-1.046 0.392,-1.043 0.391,-1.038 0.391,-1.036 0.392,-1.032 0.391,-1.028 0.391,-1.025 0.392,-1.021 0.391,-1.018 0.391,-1.014 0.392,-1.011 0.391,-1.008 0.391,-1.003 0.392,-1.002 0.391,-0.996 0.391,-0.993 0.392,-0.99 0.391,-0.987 0.391,-0.983 0.392,-0.979 0.391,-0.976 0.391,-0.974 0.392,-0.968 0.391,-0.965 0.391,-0.962 0.392,-0.959 0.391,-0.955 0.391,-0.952 0.392,-0.948 0.391,-0.945 0.391,-0.941 0.392,-0.938 0.391,-0.934 0.391,-0.931 0.392,-0.928 0.391,-0.925 0.391,-0.919 0.392,-0.918 0.391,-0.913 0.391,-0.911 0.392,-0.906 0.391,-0.904 0.391,-0.901 0.392,-0.895 0.391,-0.894 0.391,-0.889 0.392,-0.887 0.391,-0.882 0.391,-0.88 0.392,-0.876 0.391,-0.873 0.391,-0.869 0.392,-0.866 0.391,-0.862 0.391,-0.86 0.392,-0.855 0.391,-0.853 0.391,-0.849 0.392,-0.845 0.391,-0.843 0.391,-0.839 0.392,-0.836 0.391,-0.834 0.391,-0.832 0.392,-0.828 0.391,-0.827 0.391,-0.824 0.392,-0.821 0.391,-0.819 0.391,-0.816 0.392,-0.814 0.391,-0.812 0.391,-0.809 0.392,-0.806 0.391,-0.804 0.391,-0.802 0.392,-0.799 0.391,-0.796 0.391,-0.795 0.392,-0.792 0.391,-0.788 0.391,-0.787 0.392,-0.784 0.391,-0.782 0.391,-0.779 0.392,-0.777 0.391,-0.774 0.391,-0.772 0.392,-0.77 0.391,-0.767 0.391,-0.765 0.392,-0.762 0.391,-0.76 0.391,-0.757 0.392,-0.755 0.391,-0.754 0.391,-0.75 0.392,-0.747 0.391,-0.745 0.391,-0.743 0.392,-0.741 0.391,-0.738 0.391,-0.736 0.392,-0.733 0.391,-0.731 0.391,-0.729 0.392,-0.726 0.391,-0.724 0.391,-0.721 0.392,-0.72 0.391,-0.717 0.391,-0.714 0.392,-0.712 0.391,-0.71 0.391,-0.707 0.392,-0.705 0.391,-0.704 0.391,-0.699 0.392,-0.698 0.391,-0.696 0.391,-0.693 0.392,-0.691 0.391,-0.69 0.391,-0.686 0.392,-0.684 0.391,-0.682 0.391,-0.679 0.392,-0.677 0.391,-0.675 0.391,-0.673 0.392,-0.67 0.391,-0.668 0.391,-0.666 0.392,-0.664 0.391,-0.661 0.391,-0.659 0.392,-0.657 0.391,-0.654 0.391,-0.653 0.392,-0.65 0.391,-0.647 0.391,-0.646 0.392,-0.643 0.391,-0.641 0.391,-0.639 0.392,-0.637 0.391,-0.634 0.391,-0.633 0.392,-0.63 0.391,-0.628 0.391,-0.626 0.392,-0.625 0.391,-0.622 0.391,-0.622 0.392,-0.619 0.391,-0.617 0.391,-0.616 0.392,-0.614 0.391,-0.613 0.391,-0.611 0.392,-0.608 0.391,-0.608 0.391,-0.605 0.392,-0.604 0.391,-0.602 0.391,-0.6 0.392,-0.599 0.391,-0.597 0.391,-0.595 0.392,-0.594 0.391,-0.591 0.391,-0.59 0.392,-0.589 0.391,-0.587 0.391,-0.585 0.392,-0.583 0.391,-0.582 0.391,-0.579 0.392,-0.578 0.391,-0.577 0.391,-0.576 0.392,-0.572 0.391,-0.572 0.391,-0.57 0.392,-0.568 0.391,-0.567 0.391,-0.565 0.392,-0.563 0.391,-0.562 0.391,-0.56 0.392,-0.558 0.391,-0.557 0.391,-0.555 0.392,-0.553 0.391,-0.553 0.391,-0.55 0.392,-0.548 0.391,-0.547 0.391,-0.546 0.392,-0.543 0.391,-0.542 0.391,-0.541 0.392,-0.54 0.391,-0.536 0.391,-0.536 0.392,-0.534 0.391,-0.533 0.391,-0.531 0.392,-0.529 0.391,-0.529 0.391,-0.525 0.392,-0.525 0.391,-0.523 0.391,-0.521 0.392,-0.52 0.391,-0.519 0.391,-0.517 0.392,-0.516 0.391,-0.513 0.391,-0.512 0.392,-0.51 0.391,-0.51 0.391,-0.507 0.392,-0.506 0.391,-0.505 0.391,-0.502 0.392,-0.502 0.391,-0.5 0.391,-0.498 0.392,-0.498 0.391,-0.494 0.391,-0.494 0.392,-0.493 0.391,-0.49 0.391,-0.49 0.392,-0.487 0.391,-0.487 0.391,-0.484 0.392,-0.484 0.391,-0.481 0.391,-0.481 0.392,-0.479 0.391,-0.477 0.391,-0.476 0.392,-0.475 0.391,-0.472 0.391,-0.472 0.392,-0.471 0.391,-0.467 0.391,-0.468 0.392,-0.465 0.391,-0.465 0.391,-0.462 0.392,-0.463 0.391,-0.46 0.391,-0.458 0.392,-0.457 0.391,-0.455 0.391,-0.454 0.392,-0.453 0.391,-0.452 0.391,-0.449 0.392,-0.45 0.391,-0.446 0.391,-0.447 0.392,-0.443 0.391,-0.443 0.391,-0.441 0.392,-0.44 0.391,-0.439 0.391,-0.439 0.392,-0.435 0.391,-0.434 0.391,-0.433 0.392,-0.432 0.391,-0.432 0.391,-0.428 0.392,-0.429 0.391,-0.425 0.391,-0.426 0.392,-0.423 0.391,-0.422 0.391,-0.421 0.392,-0.42 0.391,-0.418 0.391,-0.417 0.392,-0.418 0.391,-0.414 0.391,-0.414 0.392,-0.413 0.391,-0.412 0.391,-0.411 0.392,-0.409 0.391,-0.409 0.391,-0.407 0.392,-0.406 0.391,-0.406 0.391,-0.404 0.392,-0.403 0.391,-0.403 0.391,-0.4 0.392,-0.4 0.391,-0.398 0.391,-0.398 0.392,-0.397 0.391,-0.395 0.391,-0.395 0.392,-0.393 0.391,-0.392 0.391,-0.393 0.392,-0.389 0.391,-0.389 0.391,-0.389 0.392,-0.386 0.391,-0.386 0.391,-0.385 0.392,-0.385 0.391,-0.382 0.391,-0.382 0.392,-0.382 0.391,-0.378 0.391,-0.379 0.392,-0.378 0.391,-0.376 0.391,-0.376 0.392,-0.374 0.391,-0.374 0.391,-0.373 0.392,-0.371 0.391,-0.372 0.391,-0.368 0.392,-0.369 0.391,-0.367 0.391,-0.366 0.392,-0.366 0.391,-0.364 0.391,-0.364 0.392,-0.362 0.391,-0.363 0.391,-0.359 0.392,-0.36 0.391,-0.358 0.391,-0.357 0.392,-0.358 0.391,-0.355 0.391,-0.355 0.392,-0.353 0.391,-0.353 0.391,-0.351 0.392,-0.35 0.391,-0.35 0.391,-0.348 0.392,-0.348 0.391,-0.347 0.391,-0.347 0.392,-0.343 0.391,-0.344 0.391,-0.343 0.392,-0.343 0.391,-0.34 0.391,-0.34 0.392,-0.34 0.391,-0.337 0.391,-0.337 0.392,-0.337 0.391,-0.335 0.391,-0.334 0.392,-0.334 0.391,-0.332 0.391,-0.332 0.392,-0.33 0.391,-0.33 0.391,-0.33 0.392,-0.327 0.391,-0.327 0.391,-0.326 0.392,-0.325 0.391,-0.324 0.391,-0.323 0.392,-0.323 0.391,-0.321 0.391,-0.322 0.392,-0.318 0.391,-0.319 0.391,-0.319 0.392,-0.316 0.391,-0.316 0.391,-0.315 0.392,-0.314 0.391,-0.314 0.391,-0.312 0.392,-0.312 0.391,-0.31 0.391,-0.31 0.392,-0.309 0.391,-0.309 0.391,-0.306 0.392,-0.307 0.391,-0.306 0.391,-0.304 0.392,-0.304 0.391,-0.302 0.391,-0.302 0.392,-0.302 0.391,-0.3 0.391,-0.299 0.392,-0.3 0.391,-0.297 0.391,-0.296 0.392,-0.296 0.391,-0.296 0.391,-0.295 0.392,-0.293 0.391,-0.293 0.391,-0.292 0.392,-0.291 0.391,-0.29 0.391,-0.288 0.392,-0.289 0.391,-0.287 0.391,-0.287 0.392,-0.287 0.391,-0.284 0.391,-0.285 0.392,-0.284 0.391,-0.282 0.391,-0.283 0.392,-0.28 0.391,-0.281 0.391,-0.279 0.392,-0.278 0.391,-0.278 0.391,-0.277 0.392,-0.276 0.391,-0.276 0.391,-0.275 0.392,-0.273 0.391,-0.273 0.391,-0.273 0.392,-0.271 0.391,-0.271 0.391,-0.27 0.392,-0.269 0.391,-0.268 0.391,-0.269 0.392,-0.266 0.391,-0.266 0.391,-0.265 0.392,-0.265 0.391,-0.263 0.391,-0.263 0.392,-0.263 0.391,-0.261 0.391,-0.261 0.392,-0.259 0.391,-0.259 0.391,-0.259 0.392,-0.257 0.391,-0.258 0.391,-0.255 0.392,-0.256 0.391,-0.254 0.391,-0.255 0.392,-0.253 0.391,-0.252 0.391,-0.251 0.392,-0.251 0.391,-0.25 0.391,-0.25 0.392,-0.249 0.391,-0.248 0.391,-0.248 0.392,-0.245 0.391,-0.246 0.391,-0.245 0.392,-0.245 0.391,-0.243 0.391,-0.243 0.392,-0.243 0.391,-0.241 0.391,-0.241 0.392,-0.24 0.391,-0.239 0.391,-0.239 0.392,-0.238 0.391,-0.237 0.391,-0.238 0.392,-0.235 0.391,-0.235 0.391,-0.234 0.392,-0.235 0.391,-0.232 0.391,-0.232 0.392,-0.232 0.391,-0.231 0.391,-0.23 0.392,-0.23 0.391,-0.229 0.391,-0.228 0.392,-0.228 0.391,-0.227 0.391,-0.226 0.392,-0.227 0.391,-0.225 0.391,-0.223 0.392,-0.224 0.391,-0.224 0.391,-0.221 0.392,-0.221 0.391,-0.222 0.391,-0.22 0.392,-0.22 0.391,-0.218 0.391,-0.22 0.392,-0.216 0.391,-0.218 0.391,-0.216 0.392,-0.215 0.391,-0.216 0.391,-0.214 0.392,-0.214 0.391,-0.213 0.391,-0.213 0.392,-0.211 0.391,-0.211 0.391,-0.211 0.392,-0.21 0.391,-0.209 0.391,-0.209 0.392,-0.209 0.391,-0.208 0.391,-0.207 0.392,-0.207 0.391,-0.206 0.391,-0.205 0.392,-0.207 0.391,-0.203 0.391,-0.204 0.392,-0.204 0.391,-0.203 0.391,-0.203 0.392,-0.201 0.391,-0.202 0.391,-0.201 0.392,-0.2 0.391,-0.2 0.391,-0.2 0.392,-0.198 0.391,-0.199 0.391,-0.198 0.392,-0.197 0.391,-0.197 0.391,-0.196 0.392,-0.197 0.391,-0.194 0.391,-0.195 0.392,-0.195 0.391,-0.193 0.391,-0.194 0.392,-0.193 0.391,-0.192 0.391,-0.191 0.392,-0.192 0.391,-0.191 0.391,-0.19 0.392,-0.19 0.391,-0.19 0.391,-0.189 0.392,-0.188 0.391,-0.187 0.391,-0.188 0.392,-0.187 0.391,-0.187 0.391,-0.186 0.392,-0.185 0.391,-0.184 0.391,-0.184 0.392,-0.184 0.391,-0.184 0.391,-0.184 0.392,-0.182 0.391,-0.182 0.391,-0.181 0.392,-0.181 0.391,-0.181 0.391,-0.18 0.392,-0.18 0.391,-0.179 0.391,-0.18 0.392,-0.177 0.391,-0.178 0.391,-0.177 0.392,-0.177 0.391,-0.177 0.391,-0.177 0.392,-0.174 0.391,-0.176 0.391,-0.174 0.392,-0.174 0.391,-0.175 0.391,-0.172 0.392,-0.173 0.391,-0.173 0.391,-0.171 0.392,-0.172 0.391,-0.171 0.391,-0.17 0.392,-0.17 0.391,-0.171 0.391,-0.168 0.392,-0.169 0.391,-0.168 0.391,-0.168 0.392,-0.167 0.391,-0.167 0.391,-0.167 0.392,-0.166 0.391,-0.166 0.391,-0.165 0.392,-0.165 0.391,-0.164 0.391,-0.165 0.392,-0.163 0.391,-0.163 0.391,-0.162 0.392,-0.163 0.391,-0.163 0.391,-0.16 0.392,-0.161 0.391,-0.16 0.391,-0.16 0.392,-0.16 0.391,-0.159 0.391,-0.159 0.392,-0.159 0.391,-0.159 0.391,-0.156 0.392,-0.158 0.391,-0.156 0.391,-0.157 0.392,-0.155 0.391,-0.157 0.391,-0.154 0.392,-0.156 0.391,-0.153 0.391,-0.154 0.392,-0.153 0.391,-0.154 0.391,-0.152 0.392,-0.153 0.391,-0.151 0.391,-0.152 0.392,-0.151 0.391,-0.15 0.391,-0.151 0.392,-0.15 0.391,-0.149 0.391,-0.149 0.392,-0.15 0.391,-0.147 0.391,-0.148 0.392,-0.147 0.391,-0.147 0.391,-0.147 0.392,-0.146 0.391,-0.146 0.391,-0.146 0.392,-0.145 0.391,-0.145 0.391,-0.144 0.392,-0.144 0.391,-0.145 0.391,-0.143 0.392,-0.142 0.391,-0.142 0.391,-0.143 0.392,-0.141 0.391,-0.143 0.391,-0.14 0.392,-0.14 0.391,-0.14 0.391,-0.141 0.392,-0.139 0.391,-0.139 0.391,-0.139 0.392,-0.138 0.391,-0.138 0.391,-0.137 0.392,-0.138 0.391,-0.138 0.391,-0.135 0.392,-0.136 0.391,-0.136 0.391,-0.135 0.392,-0.136 0.391,-0.134 0.391,-0.135 0.392,-0.135 0.391,-0.132 0.391,-0.134 0.392,-0.132 0.391,-0.133 0.391,-0.133 0.392,-0.131 0.391,-0.132 0.391,-0.131 0.392,-0.13 0.391,-0.131 0.391,-0.13 0.392,-0.131 0.391,-0.129 0.391,-0.128 0.392,-0.129 0.391,-0.128 0.391,-0.128 0.392,-0.128 0.391,-0.128 0.391,-0.127 0.392,-0.126 0.391,-0.125 0.391,-0.127 0.392,-0.126 0.391,-0.125 0.391,-0.125 0.392,-0.125 0.391,-0.124 0.391,-0.123 0.392,-0.125 0.392,-0.124 0.39,-0.123 0.392,-0.122 0.391,-0.122 0.391,-0.122 0.392,-0.122 0.391,-0.121 0.391,-0.122 0.392,-0.121 0.391,-0.119 0.391,-0.12 0.392,-0.119 0.391,-0.12 0.391,-0.119 0.392,-0.119 0.391,-0.119 0.391,-0.118 0.392,-0.117 0.391,-0.119 0.391,-0.116 0.392,-0.117 0.391,-0.116 0.391,-0.116 0.392,-0.116 0.391,-0.116 0.391,-0.116 0.392,-0.114 0.391,-0.116 0.391,-0.113 0.392,-0.115 0.391,-0.113 0.391,-0.113 0.392,-0.113 0.391,-0.113 0.391,-0.113 0.392,-0.112 0.391,-0.113 0.391,-0.11 0.392,-0.112 0.391,-0.112 0.391,-0.108 0.392,-0.112 0.391,-0.11 0.391,-0.111 0.392,-0.108 0.391,-0.109 0.391,-0.109 0.392,-0.11 0.391,-0.106 0.391,-0.109 0.392,-0.108 0.391,-0.107 0.391,-0.109 0.392,-0.105 0.391,-0.108 0.391,-0.104 0.392,-0.107 0.391,-0.106 0.391,-0.105 0.392,-0.106 0.391,-0.104 0.391,-0.105 0.392,-0.104 0.391,-0.104 0.391,-0.104 0.392,-0.103 0.391,-0.104 0.391,-0.102 0.392,-0.103 0.391,-0.102 0.391,-0.103 0.392,-0.101 0.391,-0.103 0.391,-0.1 0.393,-0.101 0.39,-0.1 0.391,-0.101 0.392,-0.101 0.391,-0.099 0.391,-0.099 0.392,-0.1 0.391,-0.099 0.391,-0.098 0.392,-0.099 0.391,-0.098 0.391,-0.099 0.392,-0.097 0.391,-0.097 0.391,-0.098 0.392,-0.096 0.391,-0.097 0.391,-0.097 0.392,-0.095 0.391,-0.096 0.391,-0.096 0.392,-0.095 0.391,-0.095 0.392,-0.095 0.391,-0.095 0.391,-0.094 0.391,-0.094 0.392,-0.094 0.391,-0.094 0.391,-0.092 0.392,-0.093 0.391,-0.093 0.391,-0.093 0.392,-0.092 0.391,-0.092 0.391,-0.093 0.392,-0.09 0.391,-0.091 0.391,-0.091 0.392,-0.091 0.39,-0.092 0.392,-0.089 0.392,-0.09 0.391,-0.091 0.391,-0.088 0.391,-0.089 0.392,-0.09 0.391,-0.088 0.392,-0.089 0.391,-0.088 0.39,-0.088 0.393,-0.089 0.391,-0.087 0.391,-0.087 0.392,-0.087 0.39,-0.087 0.392,-0.087 0.392,-0.086 0.39,-0.086 0.392,-0.085 0.392,-0.087 0.391,-0.085 0.391,-0.085 0.391,-0.085 0.392,-0.085 0.391,-0.085 0.392,-0.084 0.391,-0.084 0.39,-0.084 0.393,-0.083 0.391,-0.085 0.391,-0.082 0.392,-0.083 0.39,-0.082 0.392,-0.083 0.392,-0.082 0.391,-0.082 0.391,-0.082 0.391,-0.081 0.392,-0.082 0.391,-0.081 0.392,-0.08 0.391,-0.081 0.391,-0.081 0.392,-0.08 0.391,-0.08 0.39,-0.08 0.393,-0.079 0.391,-0.081 0.391,-0.078 0.392,-0.079 0.39,-0.079 0.392,-0.077 0.392,-0.079 0.391,-0.078 0.391,-0.078 0.391,-0.078 0.392,-0.077 0.391,-0.077 0.392,-0.076 0.391,-0.079 0.39,-0.076 0.394,-0.076 0.39,-0.077 0.391,-0.075 0.392,-0.076 0.39,-0.075 0.392,-0.076 0.392,-0.076 0.39,-0.074 0.392,-0.074 0.392,-0.075 0.391,-0.074 0.391,-0.075 0.391,-0.073 0.392,-0.075 0.391,-0.072 0.392,-0.074 0.391,-0.072 0.39,-0.073 0.393,-0.073 0.391,-0.073 0.391,-0.072 0.392,-0.073 0.39,-0.071 0.393,-0.071 0.391,-0.072 0.391,-0.071 0.391,-0.072 0.391,-0.07 0.392,-0.07 0.391,-0.071 0.391,-0.07 0.392,-0.071 0.391,-0.069 0.392,-0.07 0.391,-0.07 0.39,-0.069 0.393,-0.069 0.391,-0.069 0.391,-0.069 0.392,-0.068 0.39,-0.069 0.392,-0.068 0.392,-0.068 0.391,-0.068 0.391,-0.068 0.391,-0.066 0.392,-0.068 0.391,-0.067 0.392,-0.067 0.391,-0.067 0.39,-0.065 0.393,-0.067 0.391,-0.066 0.39,-0.066 0.393,-0.067 0.39,-0.065 0.392,-0.065 0.392,-0.065 0.39,-0.065 0.392,-0.065 0.392,-0.065 0.391,-0.065 0.391,-0.064 0.391,-0.065 0.392,-0.063 0.391,-0.065 0.392,-0.062 0.391,-0.064 0.39,-0.062 0.393,-0.064 0.391,-0.063 0.391,-0.063 0.392,-0.062 0.39,-0.063 0.392,-0.062 0.392,-0.062 0.391,-0.061 0.391,-0.063 0.391,-0.061 0.392,-0.063 0.391,-0.06 0.391,-0.062 0.392,-0.06 0.391,-0.06 0.392,-0.061 0.391,-0.06 0.39,-0.061 0.393,-0.06 0.391,-0.059 0.391,-0.06 0.392,-0.061 0.39,-0.058 0.392,-0.059 0.392,-0.059 0.391,-0.059 0.391,-0.06 0.391,-0.057 0.393,-0.059 0.39,-0.058 0.392,-0.057 0.391,-0.06 0.39,-0.057 0.393,-0.057 0.391,-0.058 0.39,-0.058 0.393,-0.056 0.391,-0.057 0.391,-0.057 0.392,-0.057 0.39,-0.056 0.392,-0.056 0.392,-0.057 0.391,-0.055 0.391,-0.056 0.391,-0.056 0.392,-0.055 0.391,-0.056 0.392,-0.055 0.391,-0.055 0.39,-0.055 0.393,-0.056 0.391,-0.053 0.391,-0.055 0.392,-0.055 0.39,-0.053 0.392,-0.055 0.392,-0.053 0.391,-0.054 0.391,-0.053 0.391,-0.054 0.392,-0.054 0.391,-0.052 0.391,-0.053 0.392,-0.053 0.391,-0.054 0.392,-0.051 0.391,-0.053 0.39,-0.052 0.393,-0.052 0.391,-0.052 0.391,-0.052 0.392,-0.051 0.39,-0.053 0.392,-0.05 0.392,-0.052 0.391,-0.05 0.391,-0.051 0.391,-0.051 0.392,-0.051 0.391,-0.05 0.392,-0.051 0.391,-0.051 0.39,-0.049 0.393,-0.05 0.391,-0.049 0.39,-0.05 0.393,-0.051 0.391,-0.048 0.391,-0.05 0.392,-0.05 0.39,-0.048 0.392,-0.049 0.392,-0.049 0.391,-0.048 0.391,-0.048 0.391,-0.049 0.392,-0.048 0.391,-0.048 0.392,-0.049 0.391,-0.047 0.39,-0.047 0.393,-0.048 0.391,-0.047 0.391,-0.047 0.392,-0.047 0.39,-0.048 0.392,-0.046 0.392,-0.047 0.391,-0.047 0.391,-0.046 0.391,-0.047 0.392,-0.046 0.391,-0.046 0.391,-0.046 0.392,-0.046 0.391,-0.046 0.392,-0.045 0.391,-0.045 0.39,-0.045 0.393,-0.045 0.391,-0.047 0.391,-0.043 0.392,-0.044 0.39,-0.046 0.392,-0.044 0.392,-0.045 0.391,-0.044 0.391,-0.045 0.391,-0.044 0.393,-0.043 0.39,-0.044 0.392,-0.044 0.391,-0.043 0.39,-0.044 0.393,-0.043 0.391,-0.043 0.39,-0.043 0.393,-0.043 0.391,-0.043 0.391,-0.044 0.392,-0.043 0.39,-0.041 0.392,-0.043 0.392,-0.043 0.391,-0.041 0.391,-0.042 0.391,-0.042 0.392,-0.041 0.391,-0.042 0.392,-0.042 0.391,-0.041 0.39,-0.041 0.393,-0.043 0.391,-0.041 0.391,-0.041 0.392,-0.039 0.39,-0.041 0.392,-0.041 0.392,-0.04 0.39,-0.041 0.392,-0.04 0.391,-0.04 0.392,-0.04 0.391,-0.04 0.391,-0.04 0.392,-0.04 0.391,-0.039 0.392,-0.041 0.391,-0.039 0.39,-0.038 0.393,-0.04 0.391,-0.039 0.391,-0.039 0.392,-0.038 0.39,-0.039 0.392,-0.04 0.392,-0.037 0.391,-0.039 0.391,-0.038 0.391,-0.038 0.392,-0.038 0.391,-0.039 0.392,-0.038 0.391,-0.037 0.39,-0.038 0.393,-0.037 0.391,-0.038 0.39,-0.037 0.393,-0.037 0.391,-0.037 0.391,-0.037 0.392,-0.038 0.39,-0.036 0.392,-0.037 0.392,-0.036 0.391,-0.038 0.391,-0.035 0.391,-0.037 0.392,-0.036 0.391,-0.037 0.392,-0.035 0.391,-0.036 0.39,-0.035 0.394,-0.036 0.39,-0.036 0.391,-0.035 0.392,-0.037 0.39,-0.034 0.392,-0.035 0.392,-0.036 0.39,-0.034 0.392,-0.035 0.392,-0.036 0.391,-0.034 0.391,-0.035 0.391,-0.035 0.392,-0.033 0.391,-0.035 0.392,-0.035 0.391,-0.033 0.39,-0.034 0.393,-0.035 0.391,-0.033 0.391,-0.034 0.392,-0.033 0.39,-0.034 0.393,-0.034 0.391,-0.033 0.391,-0.033 0.391,-0.033 0.391,-0.033 0.392,-0.034 0.391,-0.032 0.392,-0.033 0.391,-0.033 0.391,-0.032 0.392,-0.033 0.391,-0.032 0.39,-0.034 0.393,-0.031 0.391,-0.033 0.391,-0.031 0.392,-0.033 0.39,-0.031 0.392,-0.031 0.392,-0.033 0.391,-0.031 0.391,-0.032 0.391,-0.031 0.392,-0.032 0.391,-0.031 0.392,-0.031 0.391,-0.031 0.39,-0.031 0.393,-0.031 0.391,-0.031 0.391,-0.03 0.392,-0.032 0.39,-0.031 0.392,-0.03 0.392,-0.031 0.39,-0.029 0.392,-0.032 0.392,-0.029 0.391,-0.03 0.391,-0.03 0.391,-0.03 0.392,-0.03 0.391,-0.029 0.392,-0.031 0.391,-0.028 0.39,-0.03 0.393,-0.029 0.391,-0.03 0.391,-0.029 0.392,-0.029 0.39,-0.029 0.392,-0.029 0.392,-0.029 0.391,-0.03 0.391,-0.028 0.391,-0.028 0.392,-0.029 0.391,-0.028 0.392,-0.029 0.391,-0.028 0.391,-0.028 0.392,-0.029 0.391,-0.028 0.39,-0.028 0.393,-0.028 0.391,-0.028 0.391,-0.027 0.392,-0.029 0.39,-0.027 0.392,-0.027 0.392,-0.028 0.391,-0.027 0.391,-0.028 0.391,-0.027 0.392,-0.027 0.391,-0.027 0.392,-0.027 0.391,-0.028 0.39,-0.026 0.393,-0.027 0.391,-0.027 0.391,-0.025 0.392,-0.028 0.39,-0.026 0.392,-0.027 0.392,-0.026 0.39,-0.026 0.392,-0.026 0.392,-0.027 0.391,-0.025 0.391,-0.026 0.391,-0.026 0.392,-0.027 0.391,-0.025 0.392,-0.026 0.391,-0.025 0.39,-0.027 0.392,-0.023 0.392,-0.027 0.391,-0.025 0.392,-0.025 0.39,-0.026 0.392,-0.024 0.392,-0.025 0.391,-0.025 0.391,-0.025 0.391,-0.026 0.392,-0.024 0.391,-0.025 0.391,-0.024 0.392,-0.025 0.391,-0.025 0.392,-0.024 0.391,-0.024 0.39,-0.024 0.393,-0.024 0.391,-0.025 0.391,-0.025 0.392,-0.024 0.39,-0.022 0.391,-0.024 0.393,-0.024 0.391,-0.024 0.391,-0.024 0.391,-0.023 0.392,-0.025 0.391,-0.022 0.392,-0.024 0.391,-0.023 0.39,-0.023 0.393,-0.023 0.391,-0.024 0.39,-0.024 0.393,-0.022 0.39,-0.024 0.392,-0.021 0.392,-0.023 0.39,-0.023 0.392,-0.023 0.392,-0.022 0.391,-0.023 0.391,-0.022 0.391,-0.023 0.392,-0.022 0.391,-0.022 0.392,-0.024 0.391,-0.021 0.39,-0.023 0.393,-0.021 0.391,-0.022 0.391,-0.021 0.392,-0.023 0.39,-0.022 0.392,-0.021 0.392,-0.022 0.391,-0.022 0.391,-0.021 0.391,-0.022 0.392,-0.021 0.391,-0.021 0.391,-0.022 0.392,-0.021 0.391,-0.021 0.392,-0.021 0.391,-0.021 0.39,-0.021 0.393,-0.021 0.391,-0.021 0.391,-0.021 0.392,-0.021 0.39,-0.021 0.392,-0.02 0.392,-0.021 0.391,-0.02 0.391,-0.021 0.391,-0.02 0.393,-0.021 0.39,-0.02 0.392,-0.02 0.391,-0.02 0.39,-0.021 0.393,-0.02 0.391,-0.02 0.39,-0.02 0.393,-0.02 0.391,-0.019 0.391,-0.02 0.392,-0.02 0.39,-0.02 0.392,-0.02 0.392,-0.019 0.391,-0.02 0.391,-0.019 0.391,-0.019 0.392,-0.02 0.391,-0.019 0.392,-0.019 0.391,-0.019 0.39,-0.02 0.393,-0.019 0.391,-0.019 0.391,-0.019 0.392,-0.02 0.39,-0.018 0.392,-0.019 0.392,-0.018 0.391,-0.019 0.391,-0.018 0.391,-0.019 0.392,-0.019 0.391,-0.018"
             style="fill:none;stroke:#231f20;stroke-width:2.5;stroke-linecap:square;stroke-linejoin:miter;stroke-miterlimit:10;stroke-dasharray:none;stroke-opacity:1"
             id="path15679" />
        </g>
        <g
           id="g15681"
           transform="translate(41.4482,448.4058)">
          <path
             d="M 0,0 H 579.061"
             style="fill:none;stroke:#4d4d4f;stroke-width:1;stroke-linecap:square;stroke-linejoin:miter;stroke-miterlimit:10;stroke-dasharray:none;stroke-opacity:1"
             id="path15683" />
        </g>
      </g>
    </g>
    <text
       xml:space="preserve"
       transform="matrix(1,0,0,-1,122.2603,256.1807)"
       style="font-variant:normal;font-weight:500;font-stretch:normal;font-size:30px;font-family:'Minion Pro Med Capt';-inkscape-font-specification:MinionPro-MediumCapt;writing-mode:lr-tb;fill:#010101;fill-opacity:1;fill-rule:nonzero;stroke:none"
       id="text15687"><tspan
         x="0 19.17 29.91 52.380001"
         y="0"
         id="tspan15685">R(D)</tspan></text>
    <g
       id="g15689">
      <g
         id="g15691"
         clip-path="url(#clipPath15695)">
        <text
           xml:space="preserve"
           transform="matrix(1,0,0,-1,263.9575,5.9072)"
           style="font-variant:normal;font-weight:normal;font-stretch:normal;font-size:30px;font-family:'Minion Pro Subh';-inkscape-font-specification:MinionPro-Subh;writing-mode:lr-tb;fill:#010101;fill-opacity:1;fill-rule:nonzero;stroke:none"
           id="text15699"><tspan
             x="0 15.87 21.959999 37.349998 47.099998 60.810001 67.169998 79.260002 89.010002 95.099998"
             y="0"
             id="tspan15697">&lt; d(x;z) &gt;</tspan></text>
        <text
           xml:space="preserve"
           transform="matrix(0.01256335,0.99992108,0.99992108,-0.01256335,24.9328,185.5242)"
           style="font-variant:normal;font-weight:normal;font-stretch:normal;font-size:30px;font-family:'Minion Pro Subh';-inkscape-font-specification:MinionPro-Subh;writing-mode:lr-tb;fill:#010101;fill-opacity:1;fill-rule:nonzero;stroke:none"
           id="text15703"><tspan
             x="0 18.11998 34.559963 44.429951 50.519947 60.269936 77.849915 84.209908 103.28989"
             y="0"
             id="tspan15701">R=I [Z;X]</tspan></text>
      </g>
    </g>
    <g
       id="g15705"
       transform="translate(40.9985,34.2461)">
      <path
         d="M 0,0 H 579.286"
         style="fill:none;stroke:#4d4d4f;stroke-width:1;stroke-linecap:square;stroke-linejoin:miter;stroke-miterlimit:10;stroke-dasharray:none;stroke-opacity:1"
         id="path15707" />
    </g>
    <text
       xml:space="preserve"
       transform="matrix(1,0,0,-1,277.0586,290.2773)"
       style="font-variant:normal;font-weight:normal;font-stretch:normal;font-size:47px;font-family:Kalam;-inkscape-font-specification:Kalam-Regular;writing-mode:lr-tb;fill:#231f20;fill-opacity:1;fill-rule:nonzero;stroke:none"
       id="text15713"><tspan
         x="0 27.448 49.491001 67.68 88.830002 110.403 133.856 145.04201 165.064 183.25301 204.54401 226.58701 244.776 255.96201 277.25299"
         y="0"
         id="tspan15709">Rate-distortion</tspan><tspan
         x="92.872002 108.429 129.57899 151.90401 163.09 184.381"
         y="56.400002"
         id="tspan15711">region</tspan></text>
    <text
       xml:space="preserve"
       transform="matrix(1,0,0,-1,47.8428,93.8369)"
       style="font-variant:normal;font-weight:normal;font-stretch:normal;font-size:31px;font-family:Kalam;-inkscape-font-specification:Kalam-Regular;writing-mode:lr-tb;fill:#231f20;fill-opacity:1;fill-rule:nonzero;stroke:none"
       id="text15719"><tspan
         x="0 20.987 35.029999 51.553001 65.781998 80.320999 94.115997 110.732 118.11 132.06 145.142 159.681 175.95599 183.55099"
         y="0"
         id="tspan15715">Non-achievable</tspan><tspan
         x="60.294998 70.556 84.505997 99.231003 106.609 120.652"
         y="37.200001"
         id="tspan15717">region</tspan></text>
  </g>
</svg>
