<?xml version="1.0" encoding="UTF-8" standalone="no"?>
<!-- Created with Inkscape (http://www.inkscape.org/) -->

<svg
   version="1.1"
   id="svg17612"
   width="223.028"
   height="206.58932"
   viewBox="0 0 223.028 206.58932"
   xmlns="http://www.w3.org/2000/svg"
   xmlns:svg="http://www.w3.org/2000/svg">
  <defs
     id="defs17616">
    <clipPath
       clipPathUnits="userSpaceOnUse"
       id="clipPath17626">
      <path
         d="M 0,154.942 H 167.271 V 0 H 0 Z"
         id="path17624" />
    </clipPath>
  </defs>
  <g
     id="g17618"
     transform="matrix(1.3333333,0,0,-1.3333333,0,206.58933)">
    <g
       id="g17620">
      <g
         id="g17622"
         clip-path="url(#clipPath17626)">
        <g
           id="g17628"
           transform="translate(146.6553,9.9098)">
          <path
             d="m 0,0 c 3.869,-0.135 7.305,-0.262 10.743,-0.373 2.617,-0.083 2.809,0.154 2.972,2.806 0.226,3.682 -0.017,7.356 -0.223,11.023 -0.268,4.786 -0.623,9.573 -1.151,14.336 -1.013,9.135 -2.191,18.249 -1.725,27.478 0.205,4.063 0.09,8.132 0.266,12.205 0.188,4.374 0.197,8.786 0.191,13.181 -0.012,9.191 0.197,18.382 0.016,27.573 -0.059,3.035 0.198,6.075 0.253,9.113 0.033,1.748 -0.247,2.099 -1.893,2.539 -1.001,0.268 -2.032,0.431 -3.053,0.62 -3.601,0.666 -7.119,1.627 -10.861,1.659 -6.236,0.053 -12.458,-0.007 -18.69,-0.272 -5.185,-0.221 -10.388,-0.03 -15.583,-0.023 -0.72,0.001 -1.443,0.037 -2.158,-0.019 -9.647,-0.759 -19.309,-0.953 -28.98,-0.806 -0.639,0.009 -1.281,0.003 -1.917,-0.051 -5.283,-0.454 -10.536,-0.07 -15.79,0.47 -3.979,0.41 -7.968,0.631 -11.972,0.35 -7.396,-0.52 -14.784,-1.509 -22.214,-0.424 -0.785,0.114 -1.602,0.116 -2.396,0.06 -4.386,-0.309 -8.77,-0.579 -13.174,-0.435 -1.808,0.059 -2.31,-0.428 -2.41,-2.237 -0.123,-2.232 -0.071,-4.475 -0.093,-6.713 -0.033,-3.347 0.138,-6.712 -0.151,-10.037 -0.311,-3.574 -0.824,-7.148 -1.383,-10.69 -0.902,-5.709 -1.306,-11.429 -1.374,-17.189 -0.038,-3.196 -0.381,-6.381 -0.147,-9.589 0.319,-4.382 0.695,-8.773 0.694,-13.16 -0.003,-6.885 1.088,-13.701 1.093,-20.572 0.001,-2.742 0.736,-5.374 0.842,-8.09 0.239,-6.147 0.45,-12.296 1.134,-18.418 0.176,-1.585 0.143,-3.192 0.274,-4.784 0.087,-1.053 0.564,-1.858 1.777,-1.862 3.276,-0.012 6.543,-0.567 9.824,-0.199 4.296,0.483 8.609,0.414 12.92,0.528 3.756,0.098 7.508,-0.117 11.267,0.136 6.058,0.408 12.127,0.761 18.196,0.886 5.832,0.119 11.65,0.503 17.485,0.599 7.105,0.117 14.219,0.319 21.322,0.412 8.225,0.108 16.453,-0.045 24.687,0.093 C -14.12,0.245 -6.835,0.581 0,0 m -127.539,126.057 c 9.127,-0.642 16.655,0.463 24.21,1.131 4.875,0.431 9.757,0.176 14.599,-0.367 6.134,-0.688 12.282,-0.737 18.433,-0.823 3.984,-0.056 7.971,-0.09 11.954,-0.008 5.509,0.113 11.018,0.283 16.522,0.555 2.081,0.103 4.155,0.159 6.229,0.072 6.4,-0.268 12.771,0.404 19.154,0.53 6.38,0.125 12.793,0.181 19.116,-1.072 2.9,-0.575 5.812,-1.049 8.78,-1.192 3.505,-0.168 4.831,-1.525 4.389,-5.055 -0.679,-5.423 -0.625,-10.858 -0.439,-16.269 0.301,-8.728 -0.584,-17.423 -0.444,-26.125 0.148,-9.205 -0.49,-18.379 -0.487,-27.566 10e-4,-4.937 0.403,-9.885 1.003,-14.807 0.541,-4.438 0.853,-8.905 1.295,-13.356 0.632,-6.365 1.154,-12.729 0.853,-19.138 -0.083,-1.77 0.05,-3.529 1.805,-4.669 0.607,-0.395 0.888,-1.128 1.072,-1.833 0.316,-1.205 -0.024,-1.761 -1.302,-2.011 -0.628,-0.123 -1.257,-0.183 -1.837,-0.491 -1.125,-0.598 -2.176,-0.446 -3.075,0.444 -0.991,0.98 -2.222,1.181 -3.529,1.222 -7.588,0.238 -15.169,0.493 -22.768,0.517 -8.87,0.028 -17.722,-0.569 -26.602,-0.286 -9.656,0.309 -19.322,-0.045 -28.981,-0.628 -7.65,-0.462 -12.936,-1.451 -20.604,-1.798 -6.458,-0.293 -12.895,-1.072 -19.34,-1.639 -0.319,-0.028 -0.633,-0.137 -0.949,-0.138 -8.71,-0.016 -17.358,-1.628 -26.092,-1.037 -0.795,0.054 -1.591,0.13 -2.379,0.246 -1.647,0.244 -2.457,1.093 -3.085,2.796 -1.036,2.807 -2.948,8.472 -3.167,11.302 -0.405,5.248 -0.668,10.513 -0.669,15.797 0,6.063 -0.592,12.122 -0.935,18.182 -0.428,7.576 -1.388,15.113 -1.414,22.719 -0.015,4.709 -0.688,9.426 -0.325,14.129 0.609,7.892 0.785,15.807 1.382,23.692 0.404,5.328 1.442,10.609 1.332,15.986 -0.054,2.628 -0.446,5.244 0.182,7.877 0.606,2.547 0.938,3.049 3.482,2.923 4.718,-0.236 9.424,0.554 12.631,0.188"
             style="fill:#000000;fill-opacity:1;fill-rule:nonzero;stroke:none"
             id="path17630" />
        </g>
        <g
           id="g17632"
           transform="translate(7.73,140.3229)">
          <path
             d="m 0,0 c -0.982,-0.033 -1.921,0.094 -2.77,0.62 -0.339,0.21 -0.686,0.443 -0.685,0.903 10e-4,0.569 0.4,0.857 0.863,1.018 0.525,0.183 1.078,0.285 1.617,0.428 1.78,0.473 2.092,0.849 1.904,2.679 -0.105,1.027 -0.371,2.039 -0.603,3.049 -0.801,3.486 -0.144,4.58 3.342,5.549 1.998,0.555 3.933,0.581 5.777,-0.544 2.243,-1.368 3.115,-3.373 2.478,-5.918 C 11.75,7.091 11.43,6.437 11.187,5.761 10.531,3.936 10.528,3.926 12.382,2.95 13.134,2.553 13.773,2.059 13.636,1.124 13.503,0.212 12.655,0.182 11.97,0.042 11.189,-0.118 10.397,-0.264 9.604,-0.312 7.946,-0.412 7.158,0.339 7.433,1.984 7.773,4.021 8.132,6.061 9.005,7.987 9.939,10.049 9.095,11.353 6.829,11.623 5.945,11.728 5.076,11.626 4.227,11.361 2.358,10.776 1.977,10.133 2.418,8.163 2.801,6.451 3.211,4.743 3.649,3.044 4.14,1.142 3.864,0.654 1.896,0.245 1.274,0.116 0.633,0.079 0,0"
             style="fill:#000000;fill-opacity:1;fill-rule:nonzero;stroke:none"
             id="path17634" />
        </g>
      </g>
    </g>
  </g>
</svg>
