<?xml version="1.0" encoding="UTF-8" standalone="no"?>
<!-- Created with Inkscape (http://www.inkscape.org/) -->

<svg
   version="1.1"
   id="svg17648"
   width="636.18402"
   height="366.46268"
   viewBox="0 0 636.18402 366.46268"
   xmlns="http://www.w3.org/2000/svg"
   xmlns:svg="http://www.w3.org/2000/svg">
  <defs
     id="defs17652">
    <clipPath
       clipPathUnits="userSpaceOnUse"
       id="clipPath17662">
      <path
         d="M 0,274.847 H 477.138 V 0 H 0 Z"
         id="path17660" />
    </clipPath>
    <clipPath
       clipPathUnits="userSpaceOnUse"
       id="clipPath17910">
      <path
         d="M 0,274.847 H 477.138 V 0 H 0 Z"
         id="path17908" />
    </clipPath>
  </defs>
  <g
     id="g17654"
     transform="matrix(1.3333333,0,0,-1.3333333,0,366.46267)">
    <g
       id="g17656">
      <g
         id="g17658"
         clip-path="url(#clipPath17662)">
        <g
           id="g17664"
           transform="translate(269.4019,254.4019)">
          <path
             d="m 0,0 c 1.23,0.035 2.069,-0.661 2.902,-1.458 2.554,-2.439 4.675,-5.253 6.955,-7.93 5.232,-6.145 10.446,-12.307 15.707,-18.429 4.9,-5.703 10.279,-10.945 15.559,-16.292 4.546,-4.606 8.906,-9.408 13.613,-13.853 5.875,-5.547 11.147,-11.685 17.061,-17.182 2.521,-2.342 4.775,-4.942 7.341,-7.23 1.383,-1.232 2.442,-2.747 3.576,-4.191 0.285,-0.361 0.481,-0.84 0.568,-1.294 0.13,-0.682 -0.17,-1.254 -0.763,-1.634 -0.638,-0.408 -1.227,-0.224 -1.761,0.214 -0.245,0.201 -0.497,0.425 -0.658,0.692 -2.571,4.241 -6.453,7.271 -9.912,10.683 -2.673,2.636 -5.545,5.072 -8.213,7.714 -4.884,4.834 -9.684,9.751 -14.515,14.637 -5.337,5.401 -10.65,10.825 -16.009,16.204 -5.703,5.723 -10.889,11.91 -16.301,17.895 -5.363,5.932 -10.447,12.1 -15.762,18.071 -0.212,0.239 -0.431,0.473 -0.634,0.72 -0.447,0.545 -1.084,1.021 -0.839,1.865 C -1.914,-0.208 -1.231,0.036 0,0"
             style="fill:#231f20;fill-opacity:1;fill-rule:nonzero;stroke:none"
             id="path17666" />
        </g>
        <g
           id="g17668"
           transform="translate(171.228,163.043)">
          <path
             d="m 0,0 c -0.548,0.043 -0.822,0.324 -0.655,0.79 0.187,0.519 0.481,1.005 0.764,1.484 1.511,2.557 3.412,4.843 5.297,7.106 6.907,8.287 13.223,17.044 20.172,25.296 4.629,5.498 9.144,11.099 14.389,16.045 2.221,2.094 3.862,4.679 5.922,6.912 1.738,1.883 3.576,3.643 5.519,5.313 4.317,3.709 7.778,8.249 11.774,12.267 2.981,2.999 5.691,6.233 8.46,9.407 2.412,2.763 5.062,5.297 7.44,8.085 0.204,0.239 0.42,0.49 0.681,0.657 0.699,0.445 1.397,0.483 1.823,-0.348 0.378,-0.738 0.264,-1.626 -0.589,-1.745 -1.604,-0.226 -1.993,-1.548 -2.911,-2.474 -1.923,-1.937 -3.613,-4.114 -5.589,-5.93 -1.6,-1.469 -3.045,-2.767 -4.047,-4.787 C 67.635,76.436 66.233,75.005 64.997,73.541 62.276,70.318 59.26,67.369 56.603,64.085 54.402,61.366 51.822,58.954 49.425,56.392 41.241,47.644 33.081,38.883 25.64,29.467 21.331,24.012 17.083,18.514 12.821,13.024 10.035,9.436 6.891,6.119 3.813,2.767 2.909,1.782 1.687,1.088 0.6,0.275 0.416,0.138 0.174,0.077 0,0"
             style="fill:#231f20;fill-opacity:1;fill-rule:nonzero;stroke:none"
             id="path17670" />
        </g>
        <g
           id="g17672"
           transform="translate(196.2373,96.3037)">
          <path
             d="m 0,0 c -0.03,-0.939 -2.041,-2.131 -2.904,-1.613 -0.54,0.323 -1.047,0.751 -1.463,1.224 -6.49,7.379 -13.754,14.006 -20.477,21.156 -2.84,3.02 -5.469,6.238 -8.186,9.373 -0.261,0.3 -0.472,0.643 -0.696,0.973 -0.227,0.334 -0.483,0.718 -0.212,1.094 0.344,0.477 0.897,0.383 1.292,0.121 2.317,-1.536 4.965,-2.558 6.909,-4.678 5.554,-6.056 11.124,-12.1 16.75,-18.09 2.725,-2.9 5.044,-6.206 8.359,-8.532 C -0.301,0.798 -0.029,0.497 0,0"
             style="fill:#231f20;fill-opacity:1;fill-rule:nonzero;stroke:none"
             id="path17674" />
        </g>
        <g
           id="g17676"
           transform="translate(424.1748,97.7026)">
          <path
             d="m 0,0 c -0.133,-1.159 -1.472,-1.81 -2.347,-1.172 -0.638,0.467 -1.238,1.025 -1.742,1.635 -6.091,7.372 -13.119,13.717 -20.799,19.399 -3.265,2.416 -6.442,4.992 -9.231,7.987 -0.481,0.516 -1.17,0.982 -0.534,1.816 0.611,0.8 1.372,0.732 2.125,0.258 2.441,-1.535 4.534,-3.524 6.797,-5.292 3.71,-2.898 7.177,-6.097 10.951,-8.93 2.493,-1.871 4.461,-4.318 6.529,-6.639 C -6.129,6.681 -4.175,4.143 -1.595,2.193 -0.855,1.635 -0.123,0.949 0,0"
             style="fill:#231f20;fill-opacity:1;fill-rule:nonzero;stroke:none"
             id="path17678" />
        </g>
        <g
           id="g17680"
           transform="translate(136.394,125.5317)">
          <path
             d="m 0,0 c 0.101,-1.013 -0.204,-1.272 -0.574,-1.446 -2.058,-0.973 -3.113,-2.891 -4.444,-4.579 -7.308,-9.267 -14.145,-18.913 -22.215,-27.564 -0.599,-0.642 -1.158,-1.352 -2.006,-1.667 -0.684,-0.253 -1.462,-0.412 -1.969,0.295 -0.51,0.709 0.159,1.182 0.549,1.64 3.567,4.195 7.203,8.332 10.717,12.571 4.837,5.835 9.595,11.736 14.357,17.632 0.747,0.926 1.26,2.043 2.02,2.957 0.888,1.071 2.025,1.226 2.97,0.582 C -0.261,0.194 0.01,-0.099 0,0"
             style="fill:#231f20;fill-opacity:1;fill-rule:nonzero;stroke:none"
             id="path17682" />
        </g>
        <g
           id="g17684"
           transform="translate(360.5488,137.5098)">
          <path
             d="m 0,0 c -0.097,-0.797 -0.587,-1.44 -1.102,-2.046 -8.278,-9.745 -15.585,-20.22 -22.989,-30.621 -0.369,-0.52 -0.755,-1.029 -1.15,-1.53 -0.382,-0.483 -0.841,-0.784 -1.419,-0.308 -0.47,0.386 -0.687,0.898 -0.402,1.487 0.135,0.28 0.355,0.531 0.574,0.758 3.687,3.821 6.213,8.49 9.334,12.723 4.78,6.485 9.101,13.315 14.439,19.385 0.317,0.36 0.618,0.735 0.962,1.067 0.293,0.283 0.652,0.475 1.082,0.293 C -0.157,0.992 -0.027,0.543 0,0"
             style="fill:#231f20;fill-opacity:1;fill-rule:nonzero;stroke:none"
             id="path17686" />
        </g>
        <g
           id="g17688"
           transform="translate(456.2041,58.8301)">
          <path
             d="m 0,0 c -0.129,-1.354 -0.724,-1.738 -1.899,-0.93 -1.369,0.939 -2.584,2.108 -3.821,3.227 -2.069,1.871 -4.087,3.801 -6.157,5.672 -1.678,1.518 -3.011,3.283 -4.055,5.283 -0.475,0.91 -0.836,1.791 0.221,2.525 0.84,0.584 2.265,0.287 2.998,-0.622 0.65,-0.804 1.234,-1.662 1.863,-2.484 C -9.248,10.579 -7.475,8.67 -5.478,6.922 -3.629,5.305 -2.063,3.365 -0.377,1.563 0.039,1.119 0.112,0.579 0,0"
             style="fill:#231f20;fill-opacity:1;fill-rule:nonzero;stroke:none"
             id="path17690" />
        </g>
        <g
           id="g17692"
           transform="translate(318.5752,93.457)">
          <path
             d="M 0,0 C -1.313,2.067 -1.225,4.226 -1.252,6.362 -1.258,6.831 -1.291,7.391 -0.688,7.532 -0.059,7.679 0.37,7.305 0.66,6.779 1.139,5.915 1.103,4.928 1.281,3.994 1.354,3.607 1.314,3.2 1.34,2.803 1.391,2.023 0.904,1.167 1.403,0.484 1.845,-0.12 2.759,0.162 3.392,-0.187 3.752,-0.386 4.091,-0.575 4.107,-1.162 3.374,-1.893 2.258,-1.799 1.32,-2.157 0.895,-2.32 0.139,-2.503 0.43,-3.008 1.082,-4.136 0.5,-5.195 0.54,-6.277 c 0.013,-0.327 0.069,-0.702 0.454,-0.729 0.288,-0.021 0.629,0.089 0.878,0.247 0.508,0.324 0.579,0.917 0.768,1.441 0.308,0.86 0.918,0.762 1.525,0.363 0.476,-0.312 0.865,-0.763 0.924,-1.343 0.191,-1.908 0.281,-3.817 -0.298,-5.688 -0.122,-0.395 -0.301,-0.774 -0.77,-0.778 -0.488,-0.004 -0.63,0.428 -0.776,0.794 -0.116,0.295 -0.226,0.604 -0.264,0.916 -0.157,1.29 -0.638,1.923 -2.16,1.802 -1.674,-0.134 -2.461,0.814 -2.485,2.481 -0.008,0.55 0.113,1.107 0.217,1.654 0.351,1.861 0.358,1.859 -1.447,2.198 -0.233,0.044 -0.477,0.066 -0.695,0.151 -0.392,0.153 -0.674,0.436 -0.695,0.879 -0.025,0.478 0.303,0.709 0.703,0.831 C -2.449,-0.713 -1.312,-0.386 0,0"
             style="fill:#231f20;fill-opacity:1;fill-rule:nonzero;stroke:none"
             id="path17694" />
        </g>
        <g
           id="g17696"
           transform="translate(315.0791,78.4326)">
          <path
             d="m 0,0 c 0.01,-0.343 -0.124,-0.643 -0.385,-0.837 -2.647,-1.969 -3.945,-4.981 -5.832,-7.535 -1.471,-1.992 -2.905,-4.012 -4.365,-6.012 -0.281,-0.387 -0.578,-0.77 -0.919,-1.104 -0.602,-0.59 -1.328,-1.052 -2.124,-0.467 -0.75,0.552 -0.405,1.333 -0.041,1.948 0.978,1.648 1.983,3.283 3.046,4.877 1.95,2.923 3.703,5.984 5.974,8.687 0.514,0.613 1.015,1.255 1.728,1.64 C -1.902,1.747 -0.039,0.958 0,0"
             style="fill:#231f20;fill-opacity:1;fill-rule:nonzero;stroke:none"
             id="path17698" />
        </g>
        <g
           id="g17700"
           transform="translate(91.8931,82.1211)">
          <path
             d="m 0,0 c -0.722,0.775 -1.764,0.291 -2.495,0.804 -0.389,0.274 -0.859,0.532 -0.798,1.088 0.066,0.603 0.6,0.67 1.073,0.728 1.975,0.243 3.949,0.494 5.929,0.69 C 4.167,3.355 4.657,3.235 5.111,3.115 5.59,2.989 6.017,2.688 6.066,2.163 6.118,1.605 5.685,1.337 5.217,1.158 5.068,1.102 4.911,1.012 4.762,1.021 1.439,1.207 1.598,-1.484 1.003,-3.537 0.887,-3.941 0.994,-4.339 1.485,-4.47 c 0.437,-0.115 0.854,0.046 1.01,0.424 0.208,0.503 0.242,1.075 0.386,1.608 0.265,0.976 0.761,1.141 1.506,0.474 0.665,-0.596 1.182,-1.299 1.197,-2.253 0.028,-1.856 -0.265,-3.65 -1.011,-5.362 -0.165,-0.379 -0.338,-0.773 -0.803,-0.745 -0.328,0.02 -0.589,0.323 -0.623,0.645 -0.176,1.695 -1.101,2.316 -2.786,2.551 -1.585,0.22 -2.258,2.446 -1.615,4.363 C -0.93,-1.796 -0.132,-1.03 0,0"
             style="fill:#231f20;fill-opacity:1;fill-rule:nonzero;stroke:none"
             id="path17702" />
        </g>
        <g
           id="g17704"
           transform="translate(424.3203,82.6372)">
          <path
             d="M 0,0 C 0.783,-0.1 1.326,-0.466 1.267,-1.377 1.229,-1.958 0.899,-2.425 0.584,-2.886 c -3.562,-5.2 -6.995,-10.484 -10.318,-15.838 -0.309,-0.497 -0.605,-0.987 -1.298,-0.758 -0.726,0.24 -0.922,0.874 -0.911,1.528 0.011,0.741 0.447,1.366 0.831,1.963 3.193,4.969 6.41,9.923 9.62,14.881 C -1.14,-0.565 -0.766,-0.049 0,0"
             style="fill:#231f20;fill-opacity:1;fill-rule:nonzero;stroke:none"
             id="path17706" />
        </g>
        <g
           id="g17708"
           transform="translate(102.7241,73.0332)">
          <path
             d="m 0,0 c 0.863,-0.145 1.576,-0.51 2.21,-1.005 3.776,-2.949 7.558,-5.89 11.301,-8.88 1.088,-0.87 1.054,-1.67 0.11,-2.627 -0.841,-0.852 -1.464,-0.457 -2.234,0.211 -3.559,3.083 -7.008,6.303 -10.897,8.988 -0.523,0.362 -0.995,0.805 -1.454,1.248 -0.36,0.346 -0.576,0.778 -0.334,1.293 C -1.031,-0.203 -0.576,0.055 0,0"
             style="fill:#231f20;fill-opacity:1;fill-rule:nonzero;stroke:none"
             id="path17710" />
        </g>
        <g
           id="g17712"
           transform="translate(72.6152,52.4551)">
          <path
             d="m 0,0 c -0.757,0.105 -1.081,0.549 -0.919,1.329 0.149,0.72 0.519,1.345 0.944,1.921 2.889,3.918 5.778,7.836 8.704,11.726 0.894,1.187 1.676,1.286 2.583,0.493 0.468,-0.409 0.67,-0.822 0.219,-1.431 C 8.5,9.94 5.5,5.819 2.469,1.721 2.094,1.215 1.611,0.783 1.145,0.354 0.844,0.077 0.446,-0.018 0,0"
             style="fill:#231f20;fill-opacity:1;fill-rule:nonzero;stroke:none"
             id="path17714" />
        </g>
        <g
           id="g17716"
           transform="translate(229.5078,65.1533)">
          <path
             d="m 0,0 c -0.002,-0.996 -1.657,-1.857 -2.619,-1.403 -0.281,0.132 -0.535,0.353 -0.758,0.577 -2.766,2.768 -5.555,5.516 -8.262,8.343 -0.597,0.624 -1.591,1.344 -0.855,2.456 0.487,0.735 1.829,0.632 3.018,-0.332 C -8.302,8.688 -7.221,7.608 -6.177,6.51 -4.416,4.658 -2.28,3.19 -0.705,1.151 -0.416,0.777 -0.022,0.463 0,0"
             style="fill:#231f20;fill-opacity:1;fill-rule:nonzero;stroke:none"
             id="path17718" />
        </g>
        <g
           id="g17720"
           transform="translate(258.6494,266.3809)">
          <path
             d="m 0,0 c -0.936,0.294 -1.435,-1.215 -2.201,-0.553 -0.811,0.7 -0.079,1.66 0.138,2.442 0.511,1.846 1.165,3.654 1.776,5.472 0.213,0.633 0.521,1.206 1.342,1.091 C 1.745,8.354 2.221,7.951 2.466,7.303 2.549,7.082 2.591,6.835 2.597,6.599 2.661,4.115 3.075,1.668 3.352,-0.793 3.431,-1.495 3.554,-2.354 2.54,-2.49 1.709,-2.601 0.93,-2.369 0.611,-1.443 0.432,-0.924 0.417,-0.333 0,0"
             style="fill:#231f20;fill-opacity:1;fill-rule:nonzero;stroke:none"
             id="path17722" />
        </g>
        <g
           id="g17724"
           transform="translate(210.2275,79.5469)">
          <path
             d="m 0,0 c 0.037,-1.561 -0.316,-2.694 -0.835,-3.783 -0.138,-0.289 -0.359,-0.565 -0.706,-0.569 -0.348,-0.004 -0.626,0.239 -0.644,0.574 -0.084,1.539 -0.872,1.923 -2.359,1.869 -1.624,-0.059 -2.674,1.142 -2.553,2.78 0.094,1.254 0.499,2.488 0.788,3.725 0.075,0.319 0.279,0.598 0.664,0.533 0.329,-0.055 0.56,-0.285 0.682,-0.599 0.268,-0.693 0.159,-1.411 0.13,-2.125 -0.022,-0.556 -0.099,-1.225 0.643,-1.327 0.678,-0.093 1.234,0.245 1.481,0.944 0.052,0.149 0.067,0.31 0.109,0.463 0.135,0.501 -0.153,1.284 0.548,1.416 0.836,0.159 1.217,-0.624 1.58,-1.213 C 0.1,1.762 -0.042,0.69 0,0"
             style="fill:#231f20;fill-opacity:1;fill-rule:nonzero;stroke:none"
             id="path17726" />
        </g>
        <g
           id="g17728"
           transform="translate(198.417,73.334)">
          <path
             d="m 0,0 c -0.028,-0.704 -0.268,-1.21 -0.572,-1.681 -1.514,-2.346 -3.032,-4.691 -4.566,-7.025 -0.44,-0.67 -0.973,-1.268 -1.67,-1.692 -0.523,-0.319 -1.043,-0.417 -1.513,0.089 -0.404,0.436 -0.651,0.934 -0.348,1.517 0.181,0.352 0.428,0.672 0.673,0.985 1.922,2.451 3.61,5.064 5.332,7.654 0.178,0.266 0.346,0.538 0.537,0.793 0.34,0.452 0.691,0.945 1.365,0.638 C -0.178,1.012 -0.101,0.429 0,0"
             style="fill:#231f20;fill-opacity:1;fill-rule:nonzero;stroke:none"
             id="path17730" />
        </g>
        <g
           id="g17732"
           transform="translate(375.7598,142.4097)">
          <path
             d="m 0,0 c 0.177,-0.09 0.37,-0.236 0.587,-0.291 0.577,-0.146 1.412,0.122 1.527,-0.778 0.099,-0.769 -0.645,-1.029 -1.13,-1.412 -1.055,-0.835 -2.273,-1.15 -3.596,-0.989 -1.635,0.199 -2.304,1.502 -1.485,2.937 0.394,0.689 0.926,1.298 1.387,1.949 0.513,0.721 0.824,1.413 -0.257,1.94 -0.379,0.185 -0.676,0.507 -0.475,0.953 0.175,0.391 0.607,0.493 1.004,0.558 C -0.507,5.185 0.836,3.771 0.399,1.885 0.259,1.277 -0.171,0.733 0,0"
             style="fill:#231f20;fill-opacity:1;fill-rule:nonzero;stroke:none"
             id="path17734" />
        </g>
        <g
           id="g17736"
           transform="translate(148.9048,140.0786)">
          <path
             d="M 0,0 C 2.851,-0.145 3.814,-1.785 2.66,-4.488 2.384,-5.135 2.074,-5.724 3.16,-5.815 3.805,-5.87 4.231,-6.139 4.187,-6.846 4.137,-7.633 3.706,-8.182 2.993,-8.485 1.933,-8.935 -0.711,-8 -1.264,-6.97 c -0.369,0.688 -0.341,1.4 0.163,2.008 0.353,0.424 0.827,0.747 1.2,1.157 1.179,1.295 1.133,1.559 -0.429,2.294 -0.442,0.208 -1.014,0.376 -0.951,0.908 C -1.189,0.163 -0.477,-0.027 0,0"
             style="fill:#231f20;fill-opacity:1;fill-rule:nonzero;stroke:none"
             id="path17738" />
        </g>
        <g
           id="g17740"
           transform="translate(376.4258,157.3965)">
          <path
             d="m 0,0 c -0.025,-0.712 -0.023,-1.427 -0.083,-2.136 -0.051,-0.593 -0.303,-1.094 -0.982,-1.145 -0.626,-0.047 -1.06,0.293 -1.28,0.86 -0.142,0.366 -0.266,0.757 -0.299,1.146 -0.195,2.368 -0.393,4.737 -0.523,7.109 -0.05,0.93 0.542,1.201 1.413,0.757 C -0.982,6.197 -0.606,5.537 -0.428,4.724 -0.086,3.167 0.083,1.596 0,0"
             style="fill:#231f20;fill-opacity:1;fill-rule:nonzero;stroke:none"
             id="path17742" />
        </g>
        <g
           id="g17744"
           transform="translate(204.3472,86.2104)">
          <path
             d="M 0,0 C -0.993,0.099 -1.869,0.146 -2.652,0.594 -2.94,0.758 -3.186,1 -3.165,1.333 -3.144,1.684 -2.854,1.874 -2.511,1.888 -0.278,1.977 1.846,2.703 4.041,3.006 4.506,3.07 4.998,3.077 5.459,3.002 6.075,2.902 6.864,2.795 6.91,2.031 6.956,1.271 6.14,1.417 5.656,1.26 3.771,0.649 1.886,0.039 0,0"
             style="fill:#231f20;fill-opacity:1;fill-rule:nonzero;stroke:none"
             id="path17746" />
        </g>
        <g
           id="g17748"
           transform="translate(375.5576,152.7168)">
          <path
             d="M 0,0 C 1.016,-0.002 1.603,-0.101 1.824,-0.707 2.095,-1.445 1.456,-1.661 0.963,-1.887 -1.078,-2.821 -3.231,-3.393 -5.429,-3.8 -5.8,-3.868 -6.223,-3.802 -6.591,-3.692 c -0.39,0.116 -0.68,0.424 -0.736,0.859 -0.06,0.466 0.223,0.775 0.621,0.894 2.363,0.7 4.735,1.372 6.706,1.939"
             style="fill:#231f20;fill-opacity:1;fill-rule:nonzero;stroke:none"
             id="path17750" />
        </g>
        <g
           id="g17752"
           transform="translate(93.9697,91.9971)">
          <path
             d="m 0,0 c 0.04,-0.815 -0.158,-1.583 -0.488,-2.318 -0.169,-0.375 -0.425,-0.695 -0.868,-0.72 -0.504,-0.029 -0.642,0.381 -0.765,0.758 -0.682,2.081 -0.435,4.265 -0.679,6.396 -0.02,0.177 0.164,0.462 0.333,0.561 0.399,0.235 0.793,0.048 1.073,-0.249 C -0.217,3.184 0.053,1.639 0,0"
             style="fill:#231f20;fill-opacity:1;fill-rule:nonzero;stroke:none"
             id="path17754" />
        </g>
        <g
           id="g17756"
           transform="translate(147.2319,145.5806)">
          <path
             d="M 0,0 C 1.463,-0.228 2.877,-0.431 4.283,-0.678 4.678,-0.747 5.042,-0.984 5.082,-1.444 5.133,-2.033 4.697,-2.271 4.235,-2.424 3.939,-2.522 3.61,-2.601 3.305,-2.575 c -1.818,0.153 -3.636,0.32 -5.449,0.524 -0.584,0.065 -1.096,0.378 -1.116,1.038 -0.023,0.761 0.643,0.834 1.171,0.905 C -1.386,-0.014 -0.668,-0.03 0,0"
             style="fill:#231f20;fill-opacity:1;fill-rule:nonzero;stroke:none"
             id="path17758" />
        </g>
        <g
           id="g17760"
           transform="translate(150.5693,150.9219)">
          <path
             d="m 0,0 c -0.066,-0.443 -0.088,-0.927 -0.22,-1.377 -0.145,-0.498 -0.558,-0.781 -1.068,-0.816 -0.556,-0.039 -0.846,0.335 -1.036,0.813 -0.7,1.761 -0.554,3.607 -0.464,5.426 0.044,0.893 0.696,0.7 1.194,0.312 C -0.171,3.25 -0.123,1.63 0,0"
             style="fill:#231f20;fill-opacity:1;fill-rule:nonzero;stroke:none"
             id="path17762" />
        </g>
        <g
           id="g17764"
           transform="translate(208.3823,94.23)">
          <path
             d="m 0,0 c -0.134,-0.821 -0.057,-2.159 -1.128,-2.262 -1.161,-0.112 -1.167,1.274 -1.397,2.143 -0.201,0.763 -0.265,1.565 -0.354,2.353 -0.045,0.402 0.017,0.802 0.463,0.99 0.409,0.172 0.784,0.044 1.115,-0.195 C -0.305,2.31 -0.003,1.273 0,0"
             style="fill:#231f20;fill-opacity:1;fill-rule:nonzero;stroke:none"
             id="path17766" />
        </g>
        <g
           id="g17768"
           transform="translate(60.2554,28.0776)">
          <path
             d="M 0,0 C 0.678,0.109 1.016,0.606 1.198,1.219 1.299,1.559 1.117,1.848 0.753,1.871 -0.021,1.92 -0.348,1.426 -0.44,0.743 -0.483,0.421 -0.392,0.126 0,0 M 0.823,-3.383 C 0.15,-3.337 -0.235,-3.71 -0.381,-4.304 -0.525,-4.896 -0.162,-5.23 0.382,-5.26 c 0.672,-0.037 1.341,0.131 1.381,0.955 0.026,0.541 -0.441,0.799 -0.94,0.922 M 0.938,-6.18 c -2.132,0.073 -2.991,1.095 -2.318,3 0.36,1.021 0.175,1.822 -0.24,2.729 -0.474,1.036 -0.833,2.18 0.319,3.03 C -0.239,3.363 0.76,2.93 1.796,2.321 2.591,1.854 2.825,1.262 2.45,0.554 1.583,-1.079 1.543,-2.449 2.816,-4.012 3.767,-5.179 2.772,-6.243 0.938,-6.18"
             style="fill:#231f20;fill-opacity:1;fill-rule:nonzero;stroke:none"
             id="path17770" />
        </g>
        <g
           id="g17772"
           transform="translate(59.6343,43.147)">
          <path
             d="M 0,0 C 0.036,1.014 0.022,1.736 0.099,2.448 0.152,2.945 0.408,3.385 1.003,3.357 1.455,3.337 1.729,2.993 1.788,2.584 2.118,0.293 2.503,-1.996 2.356,-4.325 2.329,-4.749 2.157,-5.132 1.704,-5.205 1.264,-5.276 0.949,-4.991 0.749,-4.623 -0.095,-3.075 0.081,-1.37 0,0"
             style="fill:#231f20;fill-opacity:1;fill-rule:nonzero;stroke:none"
             id="path17774" />
        </g>
        <g
           id="g17776"
           transform="translate(59.4492,32.7002)">
          <path
             d="m 0,0 c -0.59,-0.007 -1.223,-0.023 -1.856,-0.02 -0.531,0.003 -1.271,-0.184 -1.326,0.584 -0.046,0.645 0.637,0.855 1.176,0.976 0.771,0.172 1.555,0.315 2.341,0.38 C 1.609,2.026 2.862,1.812 4.099,1.508 4.496,1.41 4.92,1.228 4.89,0.772 4.861,0.345 4.445,0.162 4.049,0.047 2.72,-0.338 1.383,-0.227 0,0"
             style="fill:#231f20;fill-opacity:1;fill-rule:nonzero;stroke:none"
             id="path17778" />
        </g>
        <g
           id="g17780"
           transform="translate(435.2178,77.4092)">
          <path
             d="m 0,0 c -0.014,-0.397 0.014,-0.802 -0.052,-1.191 -0.09,-0.525 0.047,-1.241 -0.581,-1.455 -0.784,-0.269 -0.857,0.518 -1.057,0.977 -0.355,0.81 -1.07,0.836 -1.774,0.976 -1.249,0.249 -2.013,1.084 -2.068,2.304 -0.07,1.526 0.225,3.048 1.416,4.147 C -3.525,6.302 -2.6,5.745 -2.681,4.89 -2.764,4.028 -3.054,3.187 -3.218,2.33 c -0.06,-0.315 -0.003,-0.677 0.35,-0.802 0.373,-0.132 0.552,0.141 0.675,0.459 0.222,0.575 -0.2,1.683 1.014,1.467 C -0.119,3.265 0.095,2.377 0.077,1.431 0.067,0.954 0.045,0.477 0.028,-0.001 0.019,0 0.009,0 0,0"
             style="fill:#231f20;fill-opacity:1;fill-rule:nonzero;stroke:none"
             id="path17782" />
        </g>
        <g
           id="g17784"
           transform="translate(431.376,84.2061)">
          <path
             d="M 0,0 C -0.905,0.147 -1.923,0.289 -2.929,0.489 -3.34,0.571 -3.642,0.89 -3.612,1.336 -3.58,1.81 -3.187,2.009 -2.778,2.001 -0.165,1.949 2.441,2.025 5.046,2.255 5.422,2.288 5.876,2.187 5.982,1.71 6.11,1.136 5.717,0.817 5.261,0.646 3.6,0.019 1.859,-0.021 0,0"
             style="fill:#231f20;fill-opacity:1;fill-rule:nonzero;stroke:none"
             id="path17786" />
        </g>
        <g
           id="g17788"
           transform="translate(433.7568,93.4077)">
          <path
             d="M 0,0 C 0.004,-0.349 0.015,-0.429 0.004,-0.507 -0.112,-1.311 0.457,-2.583 -0.611,-2.774 -1.841,-2.994 -1.88,-1.62 -2.104,-0.759 -2.429,0.48 -2.29,1.756 -2.173,3.018 -2.134,3.439 -1.922,3.813 -1.505,3.9 -0.98,4.01 -0.593,3.706 -0.372,3.239 0.158,2.116 -0.071,0.906 0,0"
             style="fill:#231f20;fill-opacity:1;fill-rule:nonzero;stroke:none"
             id="path17790" />
        </g>
        <g
           id="g17792"
           transform="translate(120.9219,28.0776)">
          <path
             d="M 0,0 C 0.678,0.109 1.016,0.606 1.198,1.219 1.299,1.559 1.117,1.848 0.753,1.871 -0.021,1.92 -0.348,1.426 -0.44,0.743 -0.483,0.421 -0.392,0.126 0,0 M 0.823,-3.383 C 0.15,-3.337 -0.236,-3.71 -0.381,-4.304 -0.526,-4.896 -0.162,-5.23 0.382,-5.26 c 0.672,-0.037 1.341,0.131 1.381,0.955 0.026,0.541 -0.441,0.799 -0.94,0.922 M 0.938,-6.18 c -2.132,0.073 -2.991,1.095 -2.318,3 0.36,1.021 0.175,1.822 -0.24,2.729 -0.474,1.036 -0.833,2.18 0.319,3.03 C -0.239,3.363 0.76,2.93 1.796,2.321 2.591,1.854 2.825,1.262 2.45,0.554 1.583,-1.079 1.543,-2.449 2.816,-4.012 3.767,-5.179 2.772,-6.243 0.938,-6.18"
             style="fill:#231f20;fill-opacity:1;fill-rule:nonzero;stroke:none"
             id="path17794" />
        </g>
        <g
           id="g17796"
           transform="translate(120.3008,43.147)">
          <path
             d="M 0,0 C 0.035,1.014 0.022,1.736 0.099,2.448 0.152,2.945 0.408,3.385 1.003,3.357 1.455,3.337 1.729,2.993 1.788,2.584 2.117,0.293 2.503,-1.996 2.355,-4.325 2.329,-4.749 2.157,-5.132 1.704,-5.205 1.264,-5.276 0.949,-4.991 0.749,-4.623 -0.095,-3.075 0.081,-1.37 0,0"
             style="fill:#231f20;fill-opacity:1;fill-rule:nonzero;stroke:none"
             id="path17798" />
        </g>
        <g
           id="g17800"
           transform="translate(120.1157,32.7002)">
          <path
             d="m 0,0 c -0.59,-0.007 -1.224,-0.023 -1.856,-0.02 -0.531,0.003 -1.271,-0.184 -1.326,0.584 -0.046,0.645 0.637,0.855 1.176,0.976 0.771,0.172 1.555,0.315 2.34,0.38 C 1.609,2.026 2.862,1.812 4.098,1.508 4.496,1.41 4.92,1.228 4.89,0.772 4.861,0.345 4.445,0.162 4.049,0.047 2.72,-0.338 1.382,-0.227 0,0"
             style="fill:#231f20;fill-opacity:1;fill-rule:nonzero;stroke:none"
             id="path17802" />
        </g>
        <g
           id="g17804"
           transform="translate(181.5884,28.0776)">
          <path
             d="M 0,0 C 0.677,0.109 1.016,0.606 1.198,1.219 1.299,1.559 1.117,1.848 0.752,1.871 -0.021,1.92 -0.348,1.426 -0.44,0.743 -0.483,0.421 -0.393,0.126 0,0 M 0.823,-3.383 C 0.15,-3.337 -0.236,-3.71 -0.381,-4.304 -0.526,-4.896 -0.162,-5.23 0.382,-5.26 c 0.672,-0.037 1.341,0.131 1.381,0.955 0.026,0.541 -0.442,0.799 -0.94,0.922 M 0.938,-6.18 c -2.132,0.073 -2.991,1.095 -2.318,3 0.36,1.021 0.175,1.822 -0.24,2.729 -0.475,1.036 -0.833,2.18 0.319,3.03 C -0.239,3.363 0.76,2.93 1.796,2.321 2.591,1.854 2.825,1.262 2.449,0.554 1.583,-1.079 1.543,-2.449 2.816,-4.012 3.767,-5.179 2.772,-6.243 0.938,-6.18"
             style="fill:#231f20;fill-opacity:1;fill-rule:nonzero;stroke:none"
             id="path17806" />
        </g>
        <g
           id="g17808"
           transform="translate(180.9673,43.147)">
          <path
             d="M 0,0 C 0.035,1.014 0.021,1.736 0.099,2.448 0.152,2.945 0.408,3.385 1.002,3.357 1.455,3.337 1.729,2.993 1.788,2.584 2.117,0.293 2.503,-1.996 2.355,-4.325 2.329,-4.749 2.157,-5.132 1.703,-5.205 1.264,-5.276 0.949,-4.991 0.749,-4.623 -0.095,-3.075 0.081,-1.37 0,0"
             style="fill:#231f20;fill-opacity:1;fill-rule:nonzero;stroke:none"
             id="path17810" />
        </g>
        <g
           id="g17812"
           transform="translate(180.7822,32.7002)">
          <path
             d="m 0,0 c -0.59,-0.007 -1.224,-0.023 -1.856,-0.02 -0.532,0.003 -1.271,-0.184 -1.326,0.584 -0.046,0.645 0.637,0.855 1.176,0.976 0.771,0.172 1.555,0.315 2.34,0.38 C 1.609,2.026 2.862,1.812 4.098,1.508 4.496,1.41 4.92,1.228 4.89,0.772 4.861,0.345 4.445,0.162 4.049,0.047 2.72,-0.338 1.382,-0.227 0,0"
             style="fill:#231f20;fill-opacity:1;fill-rule:nonzero;stroke:none"
             id="path17814" />
        </g>
        <g
           id="g17816"
           transform="translate(242.2544,28.0776)">
          <path
             d="M 0,0 C 0.678,0.109 1.016,0.606 1.198,1.219 1.299,1.559 1.117,1.848 0.753,1.871 -0.021,1.92 -0.347,1.426 -0.439,0.743 -0.483,0.421 -0.392,0.126 0,0 m 0.823,-3.383 c -0.673,0.046 -1.058,-0.327 -1.204,-0.921 -0.144,-0.592 0.22,-0.926 0.763,-0.956 0.672,-0.037 1.341,0.131 1.381,0.955 0.026,0.541 -0.441,0.799 -0.94,0.922 M 0.938,-6.18 c -2.132,0.073 -2.991,1.095 -2.318,3 0.36,1.021 0.176,1.822 -0.24,2.729 -0.474,1.036 -0.833,2.18 0.319,3.03 C -0.239,3.363 0.76,2.93 1.796,2.321 2.591,1.854 2.825,1.262 2.45,0.554 1.583,-1.079 1.543,-2.449 2.816,-4.012 3.767,-5.179 2.772,-6.243 0.938,-6.18"
             style="fill:#231f20;fill-opacity:1;fill-rule:nonzero;stroke:none"
             id="path17818" />
        </g>
        <g
           id="g17820"
           transform="translate(241.6333,43.147)">
          <path
             d="M 0,0 C 0.036,1.014 0.022,1.736 0.099,2.448 0.152,2.945 0.408,3.385 1.003,3.357 1.455,3.337 1.729,2.993 1.788,2.584 2.118,0.293 2.504,-1.996 2.356,-4.325 2.329,-4.749 2.157,-5.132 1.704,-5.205 1.264,-5.276 0.949,-4.991 0.749,-4.623 -0.095,-3.075 0.082,-1.37 0,0"
             style="fill:#231f20;fill-opacity:1;fill-rule:nonzero;stroke:none"
             id="path17822" />
        </g>
        <g
           id="g17824"
           transform="translate(241.4487,32.7002)">
          <path
             d="m 0,0 c -0.59,-0.007 -1.224,-0.023 -1.857,-0.02 -0.531,0.003 -1.27,-0.184 -1.325,0.584 -0.046,0.645 0.637,0.855 1.176,0.976 0.77,0.172 1.554,0.315 2.34,0.38 C 1.609,2.026 2.862,1.812 4.098,1.508 4.496,1.41 4.92,1.228 4.889,0.772 4.861,0.345 4.444,0.162 4.049,0.047 2.72,-0.338 1.382,-0.227 0,0"
             style="fill:#231f20;fill-opacity:1;fill-rule:nonzero;stroke:none"
             id="path17826" />
        </g>
        <g
           id="g17828"
           transform="translate(285.2559,29.0776)">
          <path
             d="M 0,0 C 0.678,0.109 1.017,0.606 1.198,1.22 1.299,1.559 1.117,1.849 0.753,1.872 -0.021,1.92 -0.347,1.427 -0.439,0.743 -0.482,0.421 -0.392,0.126 0,0 m 0.823,-3.383 c -0.673,0.047 -1.058,-0.326 -1.204,-0.921 -0.144,-0.591 0.22,-0.925 0.764,-0.956 0.672,-0.037 1.341,0.132 1.381,0.956 0.025,0.54 -0.442,0.798 -0.941,0.921 M 0.938,-6.18 c -2.131,0.073 -2.99,1.095 -2.318,3 0.36,1.022 0.176,1.822 -0.239,2.729 -0.475,1.036 -0.833,2.18 0.318,3.031 C -0.238,3.363 0.761,2.93 1.797,2.321 2.592,1.854 2.826,1.262 2.45,0.554 1.584,-1.079 1.543,-2.448 2.816,-4.012 3.767,-5.178 2.772,-6.242 0.938,-6.18"
             style="fill:#231f20;fill-opacity:1;fill-rule:nonzero;stroke:none"
             id="path17830" />
        </g>
        <g
           id="g17832"
           transform="translate(284.6348,44.1475)">
          <path
             d="M 0,0 C 0.036,1.014 0.022,1.736 0.1,2.448 0.153,2.945 0.408,3.384 1.003,3.357 1.456,3.337 1.729,2.993 1.788,2.584 2.118,0.293 2.504,-1.996 2.356,-4.326 2.329,-4.749 2.157,-5.132 1.704,-5.206 1.265,-5.276 0.949,-4.991 0.749,-4.623 -0.095,-3.076 0.082,-1.37 0,0"
             style="fill:#231f20;fill-opacity:1;fill-rule:nonzero;stroke:none"
             id="path17834" />
        </g>
        <g
           id="g17836"
           transform="translate(284.4502,33.7007)">
          <path
             d="m 0,0 c -0.59,-0.007 -1.224,-0.023 -1.856,-0.02 -0.532,0.003 -1.271,-0.184 -1.326,0.584 -0.046,0.645 0.637,0.855 1.176,0.976 0.771,0.172 1.555,0.315 2.341,0.38 C 1.609,2.025 2.862,1.812 4.099,1.507 4.496,1.41 4.92,1.228 4.89,0.771 4.861,0.345 4.445,0.162 4.049,0.047 2.72,-0.338 1.383,-0.227 0,0"
             style="fill:#231f20;fill-opacity:1;fill-rule:nonzero;stroke:none"
             id="path17838" />
        </g>
        <g
           id="g17840"
           transform="translate(345.9229,29.0776)">
          <path
             d="M 0,0 C 0.678,0.109 1.016,0.606 1.198,1.22 1.299,1.559 1.116,1.849 0.753,1.872 -0.021,1.92 -0.348,1.427 -0.44,0.743 -0.483,0.421 -0.393,0.126 0,0 m 0.823,-3.383 c -0.674,0.047 -1.058,-0.326 -1.204,-0.921 -0.144,-0.591 0.219,-0.925 0.763,-0.956 0.672,-0.037 1.341,0.132 1.381,0.956 0.026,0.54 -0.442,0.798 -0.94,0.921 M 0.938,-6.18 c -2.132,0.073 -2.991,1.095 -2.319,3 0.36,1.022 0.177,1.822 -0.239,2.729 -0.475,1.036 -0.833,2.18 0.319,3.031 C -0.239,3.363 0.76,2.93 1.796,2.321 2.591,1.854 2.825,1.262 2.449,0.554 1.583,-1.079 1.543,-2.448 2.816,-4.012 3.767,-5.178 2.772,-6.242 0.938,-6.18"
             style="fill:#231f20;fill-opacity:1;fill-rule:nonzero;stroke:none"
             id="path17842" />
        </g>
        <g
           id="g17844"
           transform="translate(345.3018,44.1475)">
          <path
             d="M 0,0 C 0.035,1.014 0.021,1.736 0.099,2.448 0.152,2.945 0.408,3.384 1.003,3.357 1.455,3.337 1.729,2.993 1.788,2.584 2.117,0.293 2.503,-1.996 2.355,-4.326 2.329,-4.749 2.156,-5.132 1.703,-5.206 1.264,-5.276 0.949,-4.991 0.748,-4.623 -0.095,-3.076 0.081,-1.37 0,0"
             style="fill:#231f20;fill-opacity:1;fill-rule:nonzero;stroke:none"
             id="path17846" />
        </g>
        <g
           id="g17848"
           transform="translate(345.1162,33.7007)">
          <path
             d="m 0,0 c -0.59,-0.007 -1.223,-0.023 -1.856,-0.02 -0.531,0.003 -1.271,-0.184 -1.326,0.584 -0.046,0.645 0.637,0.855 1.176,0.976 0.771,0.172 1.555,0.315 2.341,0.38 C 1.609,2.025 2.862,1.812 4.099,1.507 4.496,1.41 4.921,1.228 4.89,0.771 4.861,0.345 4.445,0.162 4.049,0.047 2.721,-0.338 1.383,-0.227 0,0"
             style="fill:#231f20;fill-opacity:1;fill-rule:nonzero;stroke:none"
             id="path17850" />
        </g>
        <g
           id="g17852"
           transform="translate(406.5889,29.0776)">
          <path
             d="M 0,0 C 0.678,0.109 1.017,0.606 1.198,1.22 1.299,1.559 1.117,1.849 0.753,1.872 -0.021,1.92 -0.348,1.427 -0.439,0.743 -0.483,0.421 -0.392,0.126 0,0 m 0.823,-3.383 c -0.673,0.047 -1.058,-0.326 -1.204,-0.921 -0.144,-0.591 0.22,-0.925 0.763,-0.956 0.673,-0.037 1.342,0.132 1.381,0.956 0.026,0.54 -0.441,0.798 -0.94,0.921 M 0.938,-6.18 c -2.132,0.073 -2.991,1.095 -2.318,3 0.36,1.022 0.176,1.822 -0.24,2.729 -0.474,1.036 -0.832,2.18 0.319,3.031 C -0.238,3.363 0.76,2.93 1.796,2.321 2.591,1.854 2.825,1.262 2.45,0.554 1.584,-1.079 1.543,-2.448 2.816,-4.012 3.767,-5.178 2.772,-6.242 0.938,-6.18"
             style="fill:#231f20;fill-opacity:1;fill-rule:nonzero;stroke:none"
             id="path17854" />
        </g>
        <g
           id="g17856"
           transform="translate(405.9678,44.1475)">
          <path
             d="M 0,0 C 0.035,1.014 0.022,1.736 0.099,2.448 0.152,2.945 0.408,3.384 1.003,3.357 1.455,3.337 1.729,2.993 1.788,2.584 2.117,0.293 2.504,-1.996 2.355,-4.326 2.329,-4.749 2.157,-5.132 1.704,-5.206 1.265,-5.276 0.949,-4.991 0.749,-4.623 -0.095,-3.076 0.081,-1.37 0,0"
             style="fill:#231f20;fill-opacity:1;fill-rule:nonzero;stroke:none"
             id="path17858" />
        </g>
        <g
           id="g17860"
           transform="translate(405.7832,33.7007)">
          <path
             d="m 0,0 c -0.591,-0.007 -1.224,-0.023 -1.856,-0.02 -0.532,0.003 -1.272,-0.184 -1.327,0.584 -0.045,0.645 0.638,0.855 1.177,0.976 0.771,0.172 1.555,0.315 2.34,0.38 C 1.608,2.025 2.862,1.812 4.098,1.507 4.495,1.41 4.92,1.228 4.89,0.771 4.861,0.345 4.444,0.162 4.049,0.047 2.72,-0.338 1.382,-0.227 0,0"
             style="fill:#231f20;fill-opacity:1;fill-rule:nonzero;stroke:none"
             id="path17862" />
        </g>
        <g
           id="g17864"
           transform="translate(467.2559,29.0776)">
          <path
             d="M 0,0 C 0.677,0.109 1.016,0.606 1.197,1.22 1.299,1.559 1.116,1.849 0.752,1.872 -0.021,1.92 -0.348,1.427 -0.44,0.743 -0.483,0.421 -0.393,0.126 0,0 m 0.822,-3.383 c -0.673,0.047 -1.058,-0.326 -1.204,-0.921 -0.144,-0.591 0.22,-0.925 0.764,-0.956 0.672,-0.037 1.341,0.132 1.381,0.956 0.025,0.54 -0.442,0.798 -0.941,0.921 M 0.937,-6.18 c -2.131,0.073 -2.99,1.095 -2.318,3 0.36,1.022 0.176,1.822 -0.239,2.729 -0.475,1.036 -0.833,2.18 0.318,3.031 C -0.239,3.363 0.76,2.93 1.796,2.321 2.591,1.854 2.825,1.262 2.449,0.554 1.583,-1.079 1.543,-2.448 2.816,-4.012 3.767,-5.178 2.772,-6.242 0.937,-6.18"
             style="fill:#231f20;fill-opacity:1;fill-rule:nonzero;stroke:none"
             id="path17866" />
        </g>
        <g
           id="g17868"
           transform="translate(466.6348,44.1475)">
          <path
             d="M 0,0 C 0.035,1.014 0.021,1.736 0.099,2.448 0.152,2.945 0.407,3.384 1.002,3.357 1.455,3.337 1.729,2.993 1.788,2.584 2.117,0.293 2.503,-1.996 2.355,-4.326 2.328,-4.749 2.156,-5.132 1.703,-5.206 1.264,-5.276 0.948,-4.991 0.748,-4.623 -0.096,-3.076 0.081,-1.37 0,0"
             style="fill:#231f20;fill-opacity:1;fill-rule:nonzero;stroke:none"
             id="path17870" />
        </g>
        <g
           id="g17872"
           transform="translate(466.4492,33.7007)">
          <path
             d="m 0,0 c -0.59,-0.007 -1.224,-0.023 -1.856,-0.02 -0.532,0.003 -1.271,-0.184 -1.326,0.584 -0.046,0.645 0.637,0.855 1.176,0.976 0.771,0.172 1.555,0.315 2.341,0.38 C 1.609,2.025 2.862,1.812 4.099,1.507 4.496,1.41 4.92,1.228 4.89,0.771 4.861,0.345 4.445,0.162 4.049,0.047 2.72,-0.338 1.383,-0.227 0,0"
             style="fill:#231f20;fill-opacity:1;fill-rule:nonzero;stroke:none"
             id="path17874" />
        </g>
        <g
           id="g17876"
           transform="translate(329.7783,80.8711)">
          <path
             d="m 0,0 c 0.959,-0.122 1.767,-0.572 2.498,-1.239 3.819,-3.482 5.356,-10.264 9.512,-13.39 0.626,-0.471 1.187,-1.074 1.655,-1.707 0.469,-0.634 0.093,-1.299 -0.695,-1.336 -0.841,-0.039 -1.548,0.331 -2.161,0.87 -3.824,3.363 -5.65,9.723 -9.455,13.106 -0.772,0.686 -1.466,1.461 -2.186,2.205 -0.274,0.283 -0.601,0.599 -0.434,1.027 C -1.043,0.102 -0.496,-0.011 0,0"
             style="fill:#231f20;fill-opacity:1;fill-rule:nonzero;stroke:none"
             id="path17878" />
        </g>
      </g>
    </g>
    <text
       xml:space="preserve"
       transform="matrix(1,0,0,-1,195,225.0811)"
       style="font-variant:normal;font-weight:normal;font-stretch:normal;font-size:18px;font-family:'Humor Sans';-inkscape-font-specification:HumorSans;writing-mode:lr-tb;fill:#231f20;fill-opacity:1;fill-rule:nonzero;stroke:none"
       id="text17902"><tspan
         x="0"
         y="0"
         id="tspan17880">0</tspan><tspan
         x="-88.001999"
         y="99.666"
         id="tspan17882">0</tspan><tspan
         x="-131.004"
         y="153.342"
         id="tspan17884">0</tspan><tspan
         x="132.84"
         y="99.666"
         id="tspan17886">0</tspan><tspan
         x="88.991997 -19.007999 201.996 36.990002"
         y="153.342"
         id="tspan17888">0001</tspan><tspan
         x="-79.001999"
         y="152.334"
         id="tspan17890">1</tspan><tspan
         x="149.994"
         y="148.662"
         id="tspan17892">1</tspan><tspan
         x="-8.0100002"
         y="99.323997"
         id="tspan17894">1</tspan><tspan
         x="217.998"
         y="97.325996"
         id="tspan17896">1</tspan><tspan
         x="266.99399"
         y="155.32201"
         id="tspan17898">1</tspan><tspan
         x="129.14999"
         y="-0.017999999"
         id="tspan17900">1</tspan></text>
    <g
       id="g17904">
      <g
         id="g17906"
         clip-path="url(#clipPath17910)">
        <text
           xml:space="preserve"
           transform="matrix(1,0,0,-1,46,5.4141)"
           style="font-variant:normal;font-weight:normal;font-stretch:normal;font-size:18px;font-family:'Humor Sans';-inkscape-font-specification:HumorSans;writing-mode:lr-tb;fill:#231f20;fill-opacity:1;fill-rule:nonzero;stroke:none"
           id="text17914"><tspan
             x="0 10.026 20.052 60.282001 70.307999 80.334 122.562 132.588 137.97 183.85201 193.87801 199.25999 231.138 236.52 246.54601 291.42001 296.802 306.828 353.70001 359.082 364.46399 414.98999 420.37201 425.754"
             y="0"
             id="tspan17912">000001010011100101110111</tspan></text>
      </g>
    </g>
  </g>
</svg>
