<?xml version="1.0" encoding="UTF-8" standalone="no"?>
<!-- Created with Inkscape (http://www.inkscape.org/) -->

<svg
   version="1.1"
   id="svg18134"
   width="223.028"
   height="206.58932"
   viewBox="0 0 223.028 206.58932"
   xmlns="http://www.w3.org/2000/svg"
   xmlns:svg="http://www.w3.org/2000/svg">
  <defs
     id="defs18138">
    <clipPath
       clipPathUnits="userSpaceOnUse"
       id="clipPath18148">
      <path
         d="M 0,154.942 H 167.271 V 0 H 0 Z"
         id="path18146" />
    </clipPath>
  </defs>
  <g
     id="g18140"
     transform="matrix(1.3333333,0,0,-1.3333333,0,206.58933)">
    <g
       id="g18142">
      <g
         id="g18144"
         clip-path="url(#clipPath18148)">
        <g
           id="g18150"
           transform="translate(97.6279,105.603)">
          <path
             d="M 0,0 C -0.068,0.431 0.14,1.06 -0.509,1.154 -1.14,1.245 -1.558,0.814 -1.614,0.195 -1.681,-0.519 -1.318,-1.111 -0.592,-1.118 0.021,-1.124 -0.07,-0.456 0,0 m -10.003,-59.203 c -0.841,-2.964 -1.685,-5.929 -2.517,-8.897 -0.063,-0.223 -0.084,-0.479 -0.046,-0.707 0.1,-0.608 0.477,-1.047 1.076,-1.131 0.757,-0.104 0.905,0.495 0.978,1.071 0.119,0.949 0.277,1.897 0.304,2.848 0.065,2.259 0.639,4.49 0.205,6.816 m 44.145,46.335 c 1.119,1.781 1.892,3.607 2.521,5.505 0.718,2.167 0.011,4.092 -0.865,6.007 -0.133,0.292 -0.353,0.555 -0.708,0.557 -0.401,0.002 -0.5,-0.337 -0.589,-0.642 -0.067,-0.23 -0.119,-0.467 -0.139,-0.705 -0.306,-3.562 -0.049,-7.138 -0.22,-10.722 m 7.079,-24.935 c -0.588,-0.697 -0.293,-1.512 -0.291,-2.263 0.008,-2.542 0.052,-5.083 0.092,-7.625 0.005,-0.311 0.027,-0.655 0.34,-0.834 0.348,-0.198 0.584,0.036 0.81,0.268 2.444,2.508 1.955,8.126 -0.951,10.454 M 7.711,-0.748 c 0,0.892 0.016,2.563 -0.008,4.235 C 7.694,4.143 7.575,4.771 6.743,4.911 5.034,5.197 3.188,3.81 3.075,2.062 2.985,0.633 3.144,-0.821 2.959,-2.233 2.616,-4.847 3.975,-6.638 5.635,-8.307 c 0.932,-0.937 1.386,-0.763 1.692,0.588 0.463,2.041 0.258,4.124 0.384,6.971 m -24.329,-38.974 c -0.468,0.162 -0.744,-0.167 -1.029,-0.425 -1.881,-1.714 -3.04,-3.85 -3.758,-6.275 -1.007,-3.4 -0.322,-6.648 0.857,-9.828 0.529,-1.433 0.827,-3.011 1.912,-4.382 0.823,1.91 2.425,19.246 2.018,20.91 m 23.283,16.483 h 0.079 c 0,1.114 -0.119,2.244 0.027,3.339 0.305,2.333 -0.519,4.205 -2.07,5.846 -0.357,0.378 -0.546,1.098 -1.253,0.87 -0.544,-0.175 -0.482,-0.775 -0.529,-1.23 -0.518,-4.988 -0.638,-9.997 -0.729,-15.006 -0.014,-0.847 -0.006,-1.882 1.044,-2.195 0.915,-0.275 1.685,0.28 2.388,0.823 0.75,0.578 1.046,1.374 1.044,2.301 -0.002,1.75 -0.001,3.501 -0.001,5.252 m 7.212,1.836 c 0.191,0.049 0.383,0.098 0.574,0.147 v 1.65 c -0.002,4.148 0.004,8.29 0.328,12.439 0.28,3.574 0.821,7.142 0.701,10.742 C 15.43,5.104 15.038,5.481 13.679,5.523 12.174,5.571 11.729,5.175 11.631,3.584 11.573,2.629 11.604,1.668 11.6,0.711 c -0.013,-4.867 0.213,-9.738 -0.238,-14.598 -0.06,-0.646 -0.074,-1.345 0.289,-1.865 1.19,-1.697 1.957,-3.56 2.226,-5.651 m -18.591,-6.456 c 0,-1.675 -0.015,-3.349 0.009,-5.025 0.01,-0.689 -0.184,-1.504 0.643,-1.897 0.617,-0.295 2.006,0.395 2.384,1.229 0.223,0.492 0.324,1.072 0.347,1.617 0.308,7.249 0.597,14.5 0.877,21.751 0.034,0.874 0.047,1.753 -0.357,2.58 -0.603,1.237 -2.05,2.53 -2.564,2.18 -1.053,-0.714 -0.724,-1.883 -0.644,-2.86 0.218,-2.631 0.199,-5.24 0.014,-7.879 -0.273,-3.893 -0.958,-7.771 -0.709,-11.696 m 37.398,-30.184 c 3.417,2.441 3.87,3.13 3.904,6.228 0.045,4.147 0.032,8.294 -0.039,12.44 -0.042,2.465 -0.371,4.929 -0.341,7.39 0.027,2.184 -0.791,4.011 -2.916,5.239 -0.738,-10.329 -0.361,-20.568 -0.608,-31.297 M -13.13,-11.9 c -0.641,-0.561 -0.604,-1.13 -0.689,-1.658 -0.365,-2.271 0.686,-4.19 1.486,-6.187 1.714,-4.284 2.234,-8.628 0.486,-13.054 -0.173,-0.436 -0.336,-0.927 -0.313,-1.383 0.126,-2.49 -0.298,-4.929 -0.56,-7.386 -0.101,-0.957 -0.317,-1.969 0.167,-3.137 1.308,1.864 2.436,3.502 3.596,5.115 0.593,0.824 0.833,1.743 0.73,2.715 -0.353,3.357 0.161,6.69 0.255,10.034 0.118,4.145 0.48,8.282 0.643,12.427 0.119,3.004 0.345,6.028 -0.426,9.321 -0.765,-1.093 -0.687,-2.051 -0.731,-2.967 -0.124,-2.632 -0.314,-5.258 -0.906,-7.834 -0.251,-1.088 -0.49,-2.283 -1.874,-2.476 -0.905,-0.127 -1.421,0.87 -1.605,2.817 -0.108,1.144 0.149,2.327 -0.259,3.653 m 11.767,-42.033 c 0,3.755 0.002,7.51 -0.001,11.266 -10e-4,0.558 -0.008,1.118 -0.041,1.676 -0.024,0.398 -0.074,0.848 -0.529,0.975 -0.42,0.118 -0.744,-0.183 -1.045,-0.447 -0.942,-0.82 -1.612,-1.795 -1.612,-3.088 -10e-4,-2.959 -0.62,-5.873 -0.566,-8.84 0.044,-2.394 -0.199,-4.787 -0.295,-7.178 -0.152,-3.838 -1.083,-7.584 -1.105,-11.44 -0.012,-2.302 0.958,-3.772 2.828,-4.87 1.554,-0.913 1.902,-0.767 1.897,1.11 -0.021,6.95 0.589,13.885 0.469,20.836 m 15.79,25.456 c -1.033,-1.49 -1.73,-2.634 -2.569,-3.662 -0.81,-0.994 -1.086,-2.038 -1.059,-3.313 0.071,-3.353 0.014,-6.708 0.002,-10.062 -0.03,-9.758 -0.063,-19.517 -0.097,-29.276 -0.005,-1.366 0.125,-2.716 0.443,-4.045 0.159,-0.66 0.434,-1.253 1.234,-1.228 0.715,0.021 1.249,0.455 1.382,1.127 0.17,0.855 0.233,1.743 0.234,2.617 0.008,5.36 -0.024,10.718 -0.026,16.078 -0.002,7.999 0.329,15.986 0.734,23.973 0.123,2.434 -0.162,4.886 -0.278,7.791 M 2.489,-56.722 h 0.006 c 0,-5.591 -0.029,-11.182 0.021,-16.772 0.012,-1.511 0.196,-3.03 0.432,-4.525 0.2,-1.266 1.094,-1.814 2.427,-1.745 1.389,0.074 1.405,1.043 1.376,2.049 -0.022,0.718 -0.043,1.438 -0.101,2.154 -0.654,8.134 -0.73,16.267 -0.029,24.405 0.144,1.662 0.113,3.364 -0.062,5.022 -0.229,2.157 -0.222,4.306 -0.154,6.46 0.025,0.798 0.193,1.591 0.2,2.386 0.014,1.329 -0.519,1.712 -1.803,1.392 -1.72,-0.429 -2.297,-1.143 -2.304,-3.092 -0.022,-5.911 -0.009,-11.823 -0.009,-17.734 m 27.241,41.67 h 0.088 c 0,5.032 0.014,10.065 -0.01,15.097 -0.005,1.033 -0.074,2.079 -0.252,3.095 -0.15,0.843 -0.373,2.011 -1.484,1.82 -1.039,-0.179 -0.586,-1.323 -0.596,-2.055 -0.061,-4.232 -0.25,-8.465 -0.778,-12.656 -0.517,-4.118 -1.097,-8.22 -1.147,-12.38 -0.024,-1.995 -0.165,-3.984 -0.29,-5.976 -0.249,-3.983 -0.333,-7.974 -0.045,-11.969 0.475,-6.591 1.537,-13.153 0.976,-19.803 -0.091,-1.091 0.211,-2.217 0.349,-3.324 0.038,-0.313 0.106,-0.656 0.467,-0.766 0.458,-0.139 0.742,0.177 1.006,0.474 0.691,0.775 0.712,1.745 0.757,2.706 0.211,4.385 0.226,8.774 0.444,13.164 0.369,7.413 0.386,14.845 0.507,22.27 0.055,3.433 0.008,6.869 0.008,10.303 M 18.611,-74.856 c 0.82,-0.082 1.103,0.463 1.457,0.863 2.161,2.431 2.833,5.26 2.398,8.459 -0.477,3.5 -0.334,7.013 -0.034,10.532 0.394,4.63 0.297,9.276 -0.065,13.902 -0.232,2.963 -0.307,5.916 -0.058,8.865 0.462,5.498 0.881,10.987 0.783,16.517 -0.113,6.398 0,12.798 -0.034,19.197 C 23.046,5.581 22.329,6.284 20.426,6.435 19.599,6.5 19.252,6.183 19.285,5.345 19.336,4.067 19.375,2.786 19.343,1.509 19.05,-9.92 18.23,-21.334 18.399,-32.775 c 0.039,-2.64 -0.003,-5.28 -0.009,-7.919 -0.019,-10.558 -0.046,-21.117 -0.042,-31.675 0.001,-0.835 -0.184,-1.737 0.263,-2.487 m -56.391,-3.557 c 3.548,-0.051 7.112,0.787 10.68,1.72 3.761,0.984 5.72,3.882 7.629,6.845 0.629,0.975 0.696,2.05 -0.103,3.126 -2.965,3.994 -4.447,8.657 -5.703,13.372 -1.889,7.086 -0.008,13.252 4.93,18.564 1.25,1.345 2.537,2.641 3.635,4.135 2.458,3.341 2.466,6.865 0.772,10.415 -2.588,5.423 -2.107,10.482 1.325,15.351 0.973,1.382 2.126,2.592 3.293,3.799 1.557,1.613 1.612,2.1 -0.06,3.462 -3.69,3.009 -7.817,5.303 -12.415,6.552 -4.492,1.22 -9.126,1.519 -13.774,1.364 -3.234,-0.108 -6.349,0.646 -9.496,1.169 -1.525,0.254 -2.942,0.226 -4.442,-0.386 -5.13,-2.089 -9.951,-4.698 -14.447,-7.934 -3.121,-2.247 -5.396,-5.162 -7.146,-8.546 -1.836,-3.548 -0.097,-7.82 2.723,-9.408 2.914,-1.64 5.604,-3.678 8.014,-6.053 2.851,-2.811 4.115,-6.36 4.178,-10.171 0.051,-3.077 -0.06,-6.232 -1.006,-9.259 -0.906,-2.897 -1.613,-5.858 -2.565,-8.739 -1.967,-5.959 -1.144,-11.664 1.344,-17.254 1.155,-2.597 3.393,-4.193 5.518,-5.882 4.958,-3.945 10.466,-6.418 17.116,-6.242 m 48.135,-6.678 c -0.959,0 -1.92,-0.036 -2.876,0.008 -2.436,0.11 -4.645,0.799 -6.792,2.06 -4.419,2.595 -8.631,5.466 -12.663,8.618 -0.377,0.295 -0.787,0.548 -1.191,0.807 -0.804,0.517 -1.535,0.39 -2.121,-0.339 -0.601,-0.746 -1.252,-1.479 -1.697,-2.315 -0.798,-1.5 -2.006,-2.454 -3.522,-3.102 -9.977,-4.269 -19.987,-4.958 -29.862,0.149 -4.41,2.281 -8.412,5.236 -11.784,8.958 -1.376,1.518 -2.208,3.34 -2.888,5.214 -1.234,3.399 -1.946,6.915 -2.112,10.543 -0.13,2.828 0.195,5.567 1.043,8.278 1.242,3.97 2.233,8.004 2.916,12.117 1.273,7.681 -0.186,11.045 -6.869,14.916 -3.209,1.86 -5.819,4.12 -7.195,7.707 -1.223,3.19 -1.176,6.255 0.268,9.299 2.169,4.574 5.346,8.319 9.503,11.211 2.951,2.053 6.106,3.784 9.046,5.874 3.449,2.452 7.454,2.689 11.517,2.041 1.417,-0.226 2.832,-0.564 4.192,-1.02 3.498,-1.172 7.092,-1.783 10.735,-2.314 5.388,-0.787 10.685,-1.978 15.583,-4.557 2.611,-1.375 5.414,-2.382 7.857,-4.089 1.596,-1.114 3.137,-0.976 4.61,0.276 5.084,4.32 11.373,5.663 17.623,7.058 2.231,0.497 4.443,0.269 6.539,-0.8 2.929,-1.493 6.095,-2.402 9.137,-3.617 4.073,-1.629 7.69,-3.912 10.321,-7.533 2.221,-3.053 2.855,-6.315 1.572,-9.965 -1.091,-3.102 -2.598,-6.017 -3.864,-9.038 -1.215,-2.894 -0.891,-5.348 0.915,-7.863 2.7,-3.761 5.245,-7.633 7.836,-11.47 3.993,-5.916 3.844,-8.981 -0.671,-14.445 -1.121,-1.357 -2.328,-2.624 -3.617,-3.832 -4.906,-4.598 -9.484,-9.515 -13.526,-14.885 -2.206,-2.93 -4.227,-6.014 -6.296,-9.049 -2.403,-3.525 -5.591,-5.086 -9.748,-4.964 -0.638,0.018 -1.279,0.002 -1.919,0.002 z"
             style="fill:#000000;fill-opacity:1;fill-rule:nonzero;stroke:none"
             id="path18152" />
        </g>
        <g
           id="g18154"
           transform="translate(63.8037,115.6089)">
          <path
             d="M 0,0 C 0.27,-0.044 0.435,-0.199 0.35,-0.467 0.315,-0.574 0.12,-0.697 -0.002,-0.696 -0.268,-0.694 -0.437,-0.513 -0.35,-0.242 -0.315,-0.135 -0.121,-0.079 0,0"
             style="fill:#000000;fill-opacity:1;fill-rule:nonzero;stroke:none"
             id="path18156" />
        </g>
      </g>
    </g>
  </g>
</svg>
