<?xml version="1.0" encoding="UTF-8" standalone="no"?>
<!-- Created with Inkscape (http://www.inkscape.org/) -->

<svg
   version="1.1"
   id="svg18050"
   width="223.028"
   height="206.58932"
   viewBox="0 0 223.028 206.58932"
   xmlns="http://www.w3.org/2000/svg"
   xmlns:svg="http://www.w3.org/2000/svg">
  <defs
     id="defs18054">
    <clipPath
       clipPathUnits="userSpaceOnUse"
       id="clipPath18064">
      <path
         d="M 0,0 H 167.271 V 154.942 H 0 Z"
         id="path18062" />
    </clipPath>
  </defs>
  <g
     id="g18056"
     transform="matrix(1.3333333,0,0,-1.3333333,0,206.58933)">
    <g
       id="g18058">
      <g
         id="g18060"
         clip-path="url(#clipPath18064)">
        <g
           id="g18066"
           transform="translate(146.6553,9.9102)">
          <path
             d="m 0,0 c 3.868,-0.136 7.306,-0.263 10.743,-0.373 2.617,-0.083 2.809,0.153 2.972,2.806 0.226,3.681 -0.018,7.356 -0.223,11.023 -0.268,4.785 -0.623,9.572 -1.151,14.336 -1.013,9.135 -2.191,18.249 -1.725,27.478 0.205,4.063 0.09,8.131 0.266,12.205 0.188,4.374 0.196,8.786 0.191,13.181 -0.01,9.191 0.198,18.382 0.016,27.573 -0.06,3.035 0.198,6.075 0.254,9.113 0.031,1.748 -0.248,2.098 -1.894,2.539 -1.001,0.267 -2.032,0.431 -3.053,0.619 -3.601,0.667 -7.119,1.627 -10.861,1.66 -6.236,0.052 -12.458,-0.007 -18.69,-0.272 -5.186,-0.221 -10.388,-0.031 -15.583,-0.023 -0.719,0.001 -1.443,0.037 -2.158,-0.019 -9.647,-0.76 -19.309,-0.953 -28.981,-0.806 -0.639,0.009 -1.28,0.002 -1.916,-0.051 -5.282,-0.454 -10.536,-0.071 -15.791,0.469 -3.978,0.411 -7.967,0.632 -11.971,0.351 -7.396,-0.52 -14.784,-1.509 -22.214,-0.424 -0.786,0.114 -1.601,0.115 -2.396,0.06 -4.386,-0.309 -8.77,-0.579 -13.175,-0.435 -1.807,0.059 -2.308,-0.428 -2.409,-2.238 -0.123,-2.231 -0.071,-4.474 -0.093,-6.712 -0.033,-3.348 0.139,-6.712 -0.151,-10.038 -0.311,-3.573 -0.824,-7.147 -1.383,-10.689 -0.901,-5.709 -1.306,-11.429 -1.374,-17.189 -0.038,-3.196 -0.381,-6.381 -0.146,-9.589 0.318,-4.382 0.694,-8.774 0.693,-13.16 -0.002,-6.885 1.089,-13.702 1.093,-20.573 0.002,-2.741 0.737,-5.374 0.842,-8.09 0.239,-6.146 0.45,-12.295 1.133,-18.418 0.178,-1.585 0.144,-3.191 0.275,-4.784 0.087,-1.052 0.564,-1.857 1.777,-1.861 3.276,-0.013 6.544,-0.567 9.824,-0.199 4.296,0.483 8.609,0.414 12.919,0.528 3.756,0.098 7.509,-0.117 11.268,0.136 6.058,0.408 12.127,0.761 18.196,0.886 5.831,0.119 11.65,0.502 17.484,0.598 7.107,0.117 14.22,0.32 21.323,0.412 8.225,0.109 16.454,-0.045 24.687,0.094 C -14.12,0.245 -6.835,0.581 0,0 m -127.539,126.057 c 9.127,-0.642 16.655,0.463 24.21,1.131 4.875,0.431 9.758,0.176 14.599,-0.367 6.134,-0.688 12.282,-0.738 18.433,-0.823 3.984,-0.057 7.971,-0.09 11.953,-0.008 5.51,0.113 11.02,0.282 16.523,0.554 2.081,0.103 4.155,0.16 6.229,0.073 6.4,-0.268 12.771,0.404 19.155,0.529 6.379,0.125 12.792,0.182 19.115,-1.071 2.9,-0.575 5.812,-1.05 8.78,-1.192 3.505,-0.168 4.831,-1.526 4.389,-5.055 -0.679,-5.423 -0.625,-10.858 -0.439,-16.269 0.301,-8.728 -0.584,-17.423 -0.444,-26.125 0.148,-9.205 -0.49,-18.379 -0.487,-27.567 10e-4,-4.936 0.403,-9.885 1.002,-14.806 0.542,-4.438 0.854,-8.906 1.295,-13.356 0.633,-6.365 1.156,-12.729 0.854,-19.139 -0.083,-1.769 0.05,-3.528 1.806,-4.669 0.606,-0.394 0.887,-1.127 1.072,-1.833 0.315,-1.205 -0.026,-1.76 -1.303,-2.01 -0.628,-0.123 -1.257,-0.183 -1.837,-0.491 -1.125,-0.598 -2.176,-0.447 -3.075,0.444 -0.991,0.979 -2.222,1.181 -3.528,1.222 -7.588,0.238 -15.17,0.493 -22.769,0.517 -8.87,0.027 -17.722,-0.569 -26.602,-0.286 -9.656,0.309 -19.323,-0.045 -28.981,-0.628 -7.65,-0.462 -12.936,-1.451 -20.604,-1.799 -6.458,-0.293 -12.895,-1.071 -19.34,-1.638 -0.319,-0.029 -0.633,-0.137 -0.948,-0.138 -8.711,-0.017 -17.359,-1.628 -26.093,-1.037 -0.795,0.053 -1.591,0.13 -2.379,0.246 -1.647,0.244 -2.456,1.093 -3.085,2.796 -1.035,2.806 -2.948,8.471 -3.167,11.301 -0.404,5.249 -0.668,10.513 -0.668,15.797 0,6.064 -0.594,12.122 -0.936,18.183 -0.428,7.575 -1.388,15.112 -1.414,22.719 -0.015,4.709 -0.688,9.426 -0.325,14.129 0.61,7.892 0.785,15.807 1.382,23.692 0.404,5.328 1.442,10.608 1.332,15.986 -0.055,2.628 -0.445,5.244 0.182,7.877 0.606,2.547 0.937,3.049 3.482,2.923 4.718,-0.236 9.424,0.554 12.631,0.188"
             style="fill:#000000;fill-opacity:1;fill-rule:nonzero;stroke:none"
             id="path18068" />
        </g>
        <g
           id="g18070"
           transform="translate(7.7305,140.3228)">
          <path
             d="m 0,0 c -0.982,-0.033 -1.921,0.094 -2.771,0.62 -0.339,0.21 -0.685,0.443 -0.685,0.903 10e-4,0.569 0.4,0.857 0.863,1.018 0.526,0.183 1.078,0.285 1.618,0.428 1.78,0.473 2.091,0.849 1.904,2.679 -0.106,1.027 -0.372,2.039 -0.604,3.049 -0.801,3.486 -0.143,4.58 3.343,5.549 1.997,0.555 3.932,0.581 5.777,-0.544 2.243,-1.368 3.115,-3.373 2.478,-5.918 C 11.749,7.091 11.429,6.437 11.187,5.761 10.53,3.936 10.528,3.926 12.381,2.95 13.133,2.553 13.772,2.059 13.636,1.124 13.502,0.212 12.654,0.182 11.97,0.042 11.188,-0.118 10.396,-0.264 9.604,-0.312 7.945,-0.412 7.158,0.339 7.433,1.984 7.772,4.021 8.131,6.061 9.004,7.987 9.938,10.049 9.095,11.353 6.828,11.623 5.944,11.728 5.075,11.626 4.226,11.361 2.357,10.776 1.977,10.133 2.417,8.163 2.801,6.451 3.211,4.743 3.648,3.044 4.14,1.142 3.864,0.654 1.896,0.245 1.273,0.116 0.632,0.079 0,0"
             style="fill:#000000;fill-opacity:1;fill-rule:nonzero;stroke:none"
             id="path18072" />
        </g>
        <g
           id="g18074"
           transform="translate(73.7676,27.9805)">
          <path
             d="m 0,0 c 7.255,0.079 13.184,0.551 18.979,2.378 3.632,1.145 6.191,3.104 7.313,6.869 0.53,1.778 0.634,3.613 1.099,5.394 0.858,3.288 1.128,6.602 0.228,9.945 -0.185,0.689 -0.239,1.417 -0.332,2.129 -0.235,1.792 -0.221,3.5 1.217,4.911 0.366,0.358 0.535,0.983 0.65,1.518 0.409,1.895 1.672,3.051 3.293,3.877 1.85,0.945 3.745,1.798 5.606,2.723 5.696,2.835 9.847,7.009 11.563,13.314 0.53,1.95 0.366,3.769 -0.588,5.565 -1.464,2.755 -3.117,5.39 -4.772,8.034 -3.323,5.31 -8.067,8.347 -14.114,9.553 -1.209,0.242 -3.161,0.743 -4.322,1.156 -4.666,1.658 -9.474,2.851 -14.137,4.541 -4.661,1.688 -9.611,2.401 -14.452,3.415 -5.738,1.202 -11.437,1.021 -16.612,-2.342 -0.467,-0.302 -1.01,-0.484 -1.497,-0.757 -1.192,-0.667 -2.281,-1.469 -3.212,-2.481 -2.123,-2.311 -3.852,-4.909 -5.318,-7.659 -2.495,-4.68 -2.509,-9.407 0.534,-13.829 2.039,-2.962 3.995,-5.975 5.998,-8.96 2.106,-3.138 2.716,-6.557 1.967,-10.294 -1.198,-5.979 -3.391,-11.654 -5.237,-17.428 -1.986,-6.206 -0.445,-11.143 3.656,-14.833 3.364,-3.025 7.662,-4.617 12.075,-5.55 C -6.59,0.383 -2.698,-0.176 0,0 m -9.78,89.391 c 4.042,0.013 7.561,-0.592 11.082,-1.446 3.331,-0.807 6.762,-1.144 10.009,-2.379 4.107,-1.562 8.287,-2.934 12.408,-4.462 1.515,-0.562 3.077,-0.881 4.642,-1.178 3.404,-0.646 6.622,-1.822 9.753,-3.253 4.151,-1.899 6.854,-5.421 9.66,-8.797 2.261,-2.717 3.885,-5.858 5.617,-8.918 1.773,-3.134 2.149,-6.312 1.021,-9.895 C 52.334,42.466 47.882,38.25 41.897,35.33 39.74,34.277 37.573,33.249 35.396,32.241 34.361,31.763 33.789,31.004 33.591,29.882 33.467,29.18 33.383,28.343 32.956,27.846 31.624,26.297 31.774,24.616 32.229,22.871 32.98,19.993 32.595,17.174 31.986,14.326 31.301,11.125 30.948,7.855 29.874,4.731 28.99,2.163 27.396,0.354 24.896,-0.781 21.144,-2.486 17.231,-3.754 13.156,-4.02 6.947,-4.424 0.715,-4.412 -5.482,-3.525 c -3.48,0.497 -7.009,0.699 -10.277,2.197 -2.696,1.237 -5.199,2.82 -7.743,4.32 -2.434,1.436 -3.81,3.851 -5.101,6.241 -1.059,1.963 -1.895,4.035 -2.533,6.204 -0.544,1.85 -0.572,3.586 -0.048,5.411 1.347,4.685 2.761,9.358 3.943,14.086 1.39,5.564 1.083,10.916 -2.513,15.756 -1.522,2.051 -2.915,4.213 -4.197,6.423 -2.793,4.817 -3.112,9.74 -0.674,14.885 2.541,5.363 6.322,9.643 11.126,12.946 4.198,2.887 8.81,4.931 13.719,4.447"
             style="fill:#000000;fill-opacity:1;fill-rule:nonzero;stroke:none"
             id="path18076" />
        </g>
      </g>
    </g>
    <text
       xml:space="preserve"
       transform="matrix(1,0,0,-1,56,92)"
       style="font-variant:normal;font-weight:bold;font-stretch:normal;font-size:21px;font-family:'Tekton Pro';-inkscape-font-specification:TektonPro-Bold;writing-mode:lr-tb;fill:#000000;fill-opacity:1;fill-rule:nonzero;stroke:none"
       id="text18080"><tspan
         x="0"
         y="0"
         id="tspan18078">A</tspan></text>
  </g>
</svg>
