<?xml version="1.0" encoding="UTF-8" standalone="no"?>
<!-- Created with Inkscape (http://www.inkscape.org/) -->

<svg
   version="1.1"
   id="svg18170"
   width="618.59326"
   height="375.74368"
   viewBox="0 0 618.59326 375.74368"
   xmlns="http://www.w3.org/2000/svg"
   xmlns:svg="http://www.w3.org/2000/svg">
  <defs
     id="defs18174">
    <clipPath
       clipPathUnits="userSpaceOnUse"
       id="clipPath18186">
      <path
         d="M 66.144932,57.167762 H 456.74493 V 274.60776 H 66.144932 Z"
         id="path18184" />
    </clipPath>
    <clipPath
       clipPathUnits="userSpaceOnUse"
       id="clipPath18266">
      <path
         d="M 66.144932,57.167762 H 456.74493 V 274.60776 H 66.144932 Z"
         id="path18264" />
    </clipPath>
  </defs>
  <g
     id="g18176"
     transform="matrix(1.3333333,0,0,-1.3333333,0,375.74368)">
    <path
       d="M 66.144932,57.167762 H 456.74493 V 274.60776 H 66.144932 Z"
       style="fill:#ffffff;fill-opacity:1;fill-rule:nonzero;stroke:none"
       id="path18178" />
    <g
       id="g18180">
      <g
         id="g18182"
         clip-path="url(#clipPath18186)">
        <path
           d="M 83.899477,57.167762 V 249.1678 H 118.59337 V 144.44051 h 34.6939 v -23.27273 h 34.69389 v -5.81819 h 34.69389 V 80.440495 h 34.6939 V 68.804129 h 34.69389 v 0 h 34.6939 v -5.818183 h 34.69389 v 0 h 34.6939 v 0 h 34.69389 v -5.818184 h -34.69389 v 0 h -34.6939 v 0 h -34.69389 v 0 h -34.6939 v 0 h -34.69389 v 0 h -34.6939 v 0 h -34.69389 v 0 h -34.69389 v 0 h -34.6939 v 0 z"
           style="fill:#d3d3d3;fill-opacity:0.4;fill-rule:nonzero;stroke:none"
           id="path18188" />
      </g>
    </g>
    <g
       id="g18190">
      <path
         d="m 83.472744,57.167762 v -3.5"
         style="fill:#000000;fill-opacity:1;fill-rule:nonzero;stroke:#000000;stroke-width:0.8;stroke-linecap:butt;stroke-linejoin:round;stroke-miterlimit:10;stroke-dasharray:none;stroke-opacity:1"
         id="path18192" />
      <text
         xml:space="preserve"
         transform="matrix(1,0,0,-1,78.446791,34.947069)"
         style="font-variant:normal;font-weight:normal;font-size:21.9178px;font-family:CMR17;-inkscape-font-specification:CMR17;writing-mode:lr-tb;fill:#000000;fill-opacity:1;fill-rule:nonzero;stroke:none"
         id="text18196"><tspan
           x="0"
           y="0"
           id="tspan18194">0</tspan></text>
      <path
         d="m 237.87209,57.167762 v -3.5"
         style="fill:#000000;fill-opacity:1;fill-rule:nonzero;stroke:#000000;stroke-width:0.8;stroke-linecap:butt;stroke-linejoin:round;stroke-miterlimit:10;stroke-dasharray:none;stroke-opacity:1"
         id="path18198" />
      <text
         xml:space="preserve"
         transform="matrix(1,0,0,-1,232.84614,34.947069)"
         style="font-variant:normal;font-weight:normal;font-size:21.9178px;font-family:CMR17;-inkscape-font-specification:CMR17;writing-mode:lr-tb;fill:#000000;fill-opacity:1;fill-rule:nonzero;stroke:none"
         id="text18202"><tspan
           x="0"
           y="0"
           id="tspan18200">2</tspan></text>
      <path
         d="m 392.27144,57.167762 v -3.5"
         style="fill:#000000;fill-opacity:1;fill-rule:nonzero;stroke:#000000;stroke-width:0.8;stroke-linecap:butt;stroke-linejoin:round;stroke-miterlimit:10;stroke-dasharray:none;stroke-opacity:1"
         id="path18204" />
      <text
         xml:space="preserve"
         transform="matrix(1,0,0,-1,387.24549,34.947069)"
         style="font-variant:normal;font-weight:normal;font-size:21.9178px;font-family:CMR17;-inkscape-font-specification:CMR17;writing-mode:lr-tb;fill:#000000;fill-opacity:1;fill-rule:nonzero;stroke:none"
         id="text18208"><tspan
           x="0"
           y="0"
           id="tspan18206">4</tspan></text>
      <text
         xml:space="preserve"
         transform="matrix(1,0,0,-1,253.84697,11.463188)"
         style="font-variant:normal;font-weight:normal;font-size:21.9178px;font-family:CMR17;-inkscape-font-specification:CMR17;writing-mode:lr-tb;fill:#000000;fill-opacity:1;fill-rule:nonzero;stroke:none"
         id="text18212"><tspan
           x="0"
           y="0"
           id="tspan18210">X</tspan></text>
      <path
         d="m 66.144932,57.167762 h -3.5"
         style="fill:#000000;fill-opacity:1;fill-rule:nonzero;stroke:#000000;stroke-width:0.8;stroke-linecap:butt;stroke-linejoin:round;stroke-miterlimit:10;stroke-dasharray:none;stroke-opacity:1"
         id="path18214" />
      <text
         xml:space="preserve"
         transform="matrix(1,0,0,-1,33.079743,49.557416)"
         style="font-variant:normal;font-weight:normal;font-size:21.9178px;font-family:CMR17;-inkscape-font-specification:CMR17;writing-mode:lr-tb;fill:#000000;fill-opacity:1;fill-rule:nonzero;stroke:none"
         id="text18218"><tspan
           x="0"
           y="0"
           id="tspan18216">0</tspan></text>
      <text
         xml:space="preserve"
         transform="matrix(1,0,0,-1,43.131648,49.557416)"
         style="font-style:italic;font-variant:normal;font-weight:normal;font-size:21.9178px;font-family:CMMI12;-inkscape-font-specification:CMMI12;writing-mode:lr-tb;fill:#000000;fill-opacity:1;fill-rule:nonzero;stroke:none"
         id="text18222"><tspan
           x="0"
           y="0"
           id="tspan18220">.</tspan></text>
      <text
         xml:space="preserve"
         transform="matrix(1,0,0,-1,49.093027,49.557416)"
         style="font-variant:normal;font-weight:normal;font-size:21.9178px;font-family:CMR17;-inkscape-font-specification:CMR17;writing-mode:lr-tb;fill:#000000;fill-opacity:1;fill-rule:nonzero;stroke:none"
         id="text18226"><tspan
           x="0"
           y="0"
           id="tspan18224">0</tspan></text>
      <path
         d="m 66.144932,161.75651 h -3.5"
         style="fill:#000000;fill-opacity:1;fill-rule:nonzero;stroke:#000000;stroke-width:0.8;stroke-linecap:butt;stroke-linejoin:round;stroke-miterlimit:10;stroke-dasharray:none;stroke-opacity:1"
         id="path18228" />
      <text
         xml:space="preserve"
         transform="matrix(1,0,0,-1,33.079743,154.14616)"
         style="font-variant:normal;font-weight:normal;font-size:21.9178px;font-family:CMR17;-inkscape-font-specification:CMR17;writing-mode:lr-tb;fill:#000000;fill-opacity:1;fill-rule:nonzero;stroke:none"
         id="text18232"><tspan
           x="0"
           y="0"
           id="tspan18230">0</tspan></text>
      <text
         xml:space="preserve"
         transform="matrix(1,0,0,-1,43.131648,154.14616)"
         style="font-style:italic;font-variant:normal;font-weight:normal;font-size:21.9178px;font-family:CMMI12;-inkscape-font-specification:CMMI12;writing-mode:lr-tb;fill:#000000;fill-opacity:1;fill-rule:nonzero;stroke:none"
         id="text18236"><tspan
           x="0"
           y="0"
           id="tspan18234">.</tspan></text>
      <text
         xml:space="preserve"
         transform="matrix(1,0,0,-1,49.093027,154.14616)"
         style="font-variant:normal;font-weight:normal;font-size:21.9178px;font-family:CMR17;-inkscape-font-specification:CMR17;writing-mode:lr-tb;fill:#000000;fill-opacity:1;fill-rule:nonzero;stroke:none"
         id="text18240"><tspan
           x="0"
           y="0"
           id="tspan18238">5</tspan></text>
      <path
         d="m 66.144932,266.34525 h -3.5"
         style="fill:#000000;fill-opacity:1;fill-rule:nonzero;stroke:#000000;stroke-width:0.8;stroke-linecap:butt;stroke-linejoin:round;stroke-miterlimit:10;stroke-dasharray:none;stroke-opacity:1"
         id="path18242" />
      <text
         xml:space="preserve"
         transform="matrix(1,0,0,-1,33.079743,258.7349)"
         style="font-variant:normal;font-weight:normal;font-size:21.9178px;font-family:CMR17;-inkscape-font-specification:CMR17;writing-mode:lr-tb;fill:#000000;fill-opacity:1;fill-rule:nonzero;stroke:none"
         id="text18246"><tspan
           x="0"
           y="0"
           id="tspan18244">1</tspan></text>
      <text
         xml:space="preserve"
         transform="matrix(1,0,0,-1,43.131648,258.7349)"
         style="font-style:italic;font-variant:normal;font-weight:normal;font-size:21.9178px;font-family:CMMI12;-inkscape-font-specification:CMMI12;writing-mode:lr-tb;fill:#000000;fill-opacity:1;fill-rule:nonzero;stroke:none"
         id="text18250"><tspan
           x="0"
           y="0"
           id="tspan18248">.</tspan></text>
      <text
         xml:space="preserve"
         transform="matrix(1,0,0,-1,49.093027,258.7349)"
         style="font-variant:normal;font-weight:normal;font-size:21.9178px;font-family:CMR17;-inkscape-font-specification:CMR17;writing-mode:lr-tb;fill:#000000;fill-opacity:1;fill-rule:nonzero;stroke:none"
         id="text18254"><tspan
           x="0"
           y="0"
           id="tspan18252">0</tspan></text>
      <text
         xml:space="preserve"
         transform="matrix(0,1,1,0,23.618624,143.64355)"
         style="font-variant:normal;font-weight:normal;font-size:21.9178px;font-family:CMR17;-inkscape-font-specification:CMR17;writing-mode:lr-tb;fill:#000000;fill-opacity:1;fill-rule:nonzero;stroke:none"
         id="text18258"><tspan
           x="0 13.764383 21.523287 36.71233"
           y="0"
           id="tspan18256">P(X)</tspan></text>
    </g>
    <g
       id="g18260">
      <g
         id="g18262"
         clip-path="url(#clipPath18266)">
        <path
           d="m 84.248626,264.25348 3.58325,-9.3923 3.583251,-8.96631 3.58325,-8.55965 3.58325,-8.17143 3.583253,-7.80082 3.58325,-7.44701 3.58325,-7.10926 3.58325,-6.78682 3.58325,-6.479 3.58325,-6.18516 3.58325,-5.90462 3.58325,-5.63683 3.58325,-5.38117 3.58325,-5.13711 3.58325,-4.90411 3.58325,-4.68169 3.58325,-4.46936 3.58325,-4.26665 3.58325,-4.07314 3.58325,-3.8884 3.58325,-3.71204 3.58325,-3.54369 3.58325,-3.38296 3.58325,-3.22953 3.58325,-3.08306 3.58325,-2.94322 3.58325,-2.80974 3.58325,-2.6823 3.58325,-2.56065 3.58325,-2.44451 3.58325,-2.33364 3.58325,-2.2278 3.58325,-2.12676 3.58325,-2.030295 3.58325,-1.938216 3.58325,-1.850309 3.58325,-1.766389 3.58325,-1.686275 3.58325,-1.609794 3.58325,-1.536783 3.58325,-1.467082 3.58325,-1.400544 3.58325,-1.337022 3.58325,-1.276383 3.58325,-1.218492 3.58325,-1.163228 3.58325,-1.110471 3.58325,-1.060105 3.58325,-1.012025 3.58325,-0.966124 3.58325,-0.922307 3.58325,-0.880475 3.58325,-0.840542 3.58325,-0.80242 3.58325,-0.766026 3.58325,-0.731283 3.58325,-0.698116 3.58325,-0.666453 3.58325,-0.636227 3.58325,-0.607371 3.58325,-0.579823 3.58325,-0.553526 3.58325,-0.528421 3.58325,-0.504455 3.58325,-0.481575 3.58325,-0.459734 3.58325,-0.438882 3.58325,-0.418978 3.58325,-0.399974 3.58325,-0.381834 3.58325,-0.364516 3.58325,-0.347984 3.58325,-0.332201 3.58325,-0.317134 3.58325,-0.30275 3.58325,-0.28902 3.58325,-0.275911 3.58325,-0.263397 3.58325,-0.251451 3.58325,-0.240046 3.58325,-0.229159 3.58325,-0.218766 3.58325,-0.208844 3.58325,-0.199372 3.58326,-0.190329 3.58324,-0.181697 3.58325,-0.173456 3.58325,-0.165589 3.58326,-0.158079 3.58324,-0.150909 3.58326,-0.144065 3.58325,-0.137531 3.58325,-0.131293 3.58325,-0.125338 3.58325,-0.119654 3.58325,-0.114227 3.58325,-0.109046 3.58325,-0.104101 3.58325,-0.09938"
           style="fill:none;stroke:#000000;stroke-width:2;stroke-linecap:square;stroke-linejoin:round;stroke-miterlimit:10;stroke-dasharray:none;stroke-opacity:1"
           id="path18268" />
      </g>
    </g>
    <g
       id="g18270">
      <path
         d="M 66.144932,57.167762 V 274.60776"
         style="fill:none;stroke:#000000;stroke-width:0.8;stroke-linecap:square;stroke-linejoin:miter;stroke-miterlimit:10;stroke-dasharray:none;stroke-opacity:1"
         id="path18272" />
      <path
         d="M 456.74493,57.167762 V 274.60776"
         style="fill:none;stroke:#000000;stroke-width:0.8;stroke-linecap:square;stroke-linejoin:miter;stroke-miterlimit:10;stroke-dasharray:none;stroke-opacity:1"
         id="path18274" />
      <path
         d="M 66.144932,57.167762 H 456.74493"
         style="fill:none;stroke:#000000;stroke-width:0.8;stroke-linecap:square;stroke-linejoin:miter;stroke-miterlimit:10;stroke-dasharray:none;stroke-opacity:1"
         id="path18276" />
      <path
         d="M 66.144932,274.60776 H 456.74493"
         style="fill:none;stroke:#000000;stroke-width:0.8;stroke-linecap:square;stroke-linejoin:miter;stroke-miterlimit:10;stroke-dasharray:none;stroke-opacity:1"
         id="path18278" />
      <path
         d="m 341.18148,247.10776 h 44"
         style="fill:none;stroke:#000000;stroke-width:2;stroke-linecap:square;stroke-linejoin:round;stroke-miterlimit:10;stroke-dasharray:none;stroke-opacity:1"
         id="path18280" />
      <text
         xml:space="preserve"
         transform="matrix(1,0,0,-1,402.78148,239.40776)"
         style="font-variant:normal;font-weight:normal;font-size:21.9178px;font-family:CMR17;-inkscape-font-specification:CMR17;writing-mode:lr-tb;fill:#000000;fill-opacity:1;fill-rule:nonzero;stroke:none"
         id="text18284"><tspan
           x="0 11.750611 22.928694"
           y="0"
           id="tspan18282">pdf</tspan></text>
      <path
         d="m 341.18148,208.74457 h 44 v 15.4 h -44 z"
         style="fill:#d3d3d3;fill-opacity:0.4;fill-rule:nonzero;stroke:none"
         id="path18286" />
      <text
         xml:space="preserve"
         transform="matrix(1,0,0,-1,402.78148,208.74457)"
         style="font-variant:normal;font-weight:normal;font-size:21.9178px;font-family:CMR17;-inkscape-font-specification:CMR17;writing-mode:lr-tb;fill:#000000;fill-opacity:1;fill-rule:nonzero;stroke:none"
         id="text18290"><tspan
           x="0 11.178082 28.098631"
           y="0"
           id="tspan18288">pmf</tspan></text>
    </g>
  </g>
</svg>
