<?xml version="1.0" encoding="UTF-8" standalone="no"?>
<!-- Created with Inkscape (http://www.inkscape.org/) -->

<svg
   version="1.1"
   id="svg18353"
   width="481.888"
   height="399.02133"
   viewBox="0 0 481.888 399.02133"
   xmlns="http://www.w3.org/2000/svg"
   xmlns:svg="http://www.w3.org/2000/svg">
  <defs
     id="defs18357">
    <clipPath
       clipPathUnits="userSpaceOnUse"
       id="clipPath18367">
      <path
         d="M 0,299.266 H 361.416 V 0 H 0 Z"
         id="path18365" />
    </clipPath>
  </defs>
  <g
     id="g18359"
     transform="matrix(1.3333333,0,0,-1.3333333,0,399.02133)">
    <g
       id="g18361">
      <g
         id="g18363"
         clip-path="url(#clipPath18367)">
        <g
           id="g18369"
           transform="translate(202.2242,174.1071)">
          <path
             d="m 0,0 c -1.313,0.279 -2.652,0.474 -3.937,0.852 -13.576,3.986 -27.152,7.973 -40.71,12.021 -9.424,2.814 -18.816,5.732 -28.23,8.581 -1.318,0.399 -2.608,0.752 -3.406,2.03 -0.195,0.312 -0.596,0.54 -0.95,0.699 -1.063,0.476 -2.324,0.055 -2.671,-0.843 -0.372,-0.965 0.239,-1.872 1.538,-2.237 10.847,-3.048 21.721,-6.005 32.538,-9.156 16.58,-4.829 33.122,-9.789 49.679,-14.7 1.117,-0.331 2.218,-0.714 3.326,-1.074 L 7.053,-4.326 c -1.319,0.155 -2.64,0.286 -3.955,0.467 -12.515,1.727 -25.038,3.389 -37.537,5.215 -12.422,1.814 -24.822,3.778 -37.223,5.727 -1.808,0.284 -3.566,0.872 -5.356,1.279 -0.847,0.194 -1.831,0.504 -2.359,-0.477 -0.215,-0.398 -0.174,-1.303 0.107,-1.523 0.635,-0.497 1.64,-1.158 2.232,-0.962 2.434,0.809 4.751,0.182 7.109,-0.157 14.483,-2.084 28.973,-4.118 43.447,-6.271 8.541,-1.27 17.055,-2.718 25.578,-4.109 1.167,-0.191 2.312,-0.519 3.451,-1.224 -5.852,-0.028 -11.703,-0.056 -17.555,-0.083 -8.476,-0.038 -16.953,-0.166 -25.428,-0.087 -7.675,0.071 -15.347,0.376 -23.021,0.56 -2.958,0.071 -5.918,0.096 -8.876,0.132 -1.288,0.016 -2.549,0.041 -3.629,0.935 -0.351,0.29 -0.861,0.442 -1.322,0.529 -0.838,0.156 -1.659,0.068 -1.924,-0.93 -0.245,-0.927 0.283,-1.589 1.061,-1.912 0.566,-0.236 1.249,-0.257 1.88,-0.261 21.112,-0.125 42.223,-0.235 63.334,-0.353 3.679,-0.02 7.357,-0.052 11.036,-0.099 0.864,-0.011 1.728,-0.104 2.646,-0.599 -1.725,-0.289 -3.443,-0.625 -5.176,-0.858 -12.2,-1.645 -24.405,-3.266 -36.607,-4.901 -10.224,-1.37 -20.445,-2.77 -30.673,-4.106 -1.815,-0.237 -3.663,-0.258 -5.498,-0.315 -0.798,-0.025 -1.785,0.222 -2.058,-0.719 -0.164,-0.564 0.072,-1.593 0.498,-1.898 0.625,-0.449 2.034,-0.864 2.325,-0.555 2.578,2.738 6.084,2.158 9.193,2.592 18.213,2.542 36.454,4.888 54.684,7.314 4.834,0.643 9.661,1.35 14.494,2.003 1.178,0.159 2.369,0.222 3.674,-0.077 -0.778,-0.257 -1.545,-0.554 -2.335,-0.764 -12.824,-3.419 -25.649,-6.834 -38.478,-10.236 -10.278,-2.726 -20.556,-5.454 -30.845,-8.142 -3.48,-0.91 -6.993,-1.698 -10.489,-2.551 -0.698,-0.171 -1.396,-0.359 -2.076,-0.59 -0.918,-0.312 -1.554,-0.872 -1.313,-1.958 0.203,-0.918 1.171,-1.402 2.313,-1.144 0.372,0.084 0.904,0.238 1.03,0.512 0.879,1.912 2.742,2.037 4.396,2.484 11.267,3.043 22.547,6.037 33.814,9.082 9.799,2.648 19.567,5.416 29.385,7.996 8.501,2.234 17.054,4.276 25.581,6.412 1.1,0.275 2.179,0.541 3.262,-0.064 0.199,-0.111 0.463,-0.144 0.698,-0.145 0.929,-0.004 1.847,0.163 2.066,1.226 0.211,1.023 -0.445,1.663 -1.345,1.984 -1.048,0.373 -2.106,0.793 -3.196,0.957 -5.081,0.766 -9.525,3.233 -14.099,5.295 -15.162,6.835 -30.282,13.764 -45.396,20.706 -10.027,4.606 -20.024,9.278 -30.014,13.964 -1.644,0.772 -3.161,1.811 -4.777,2.648 -0.533,0.275 -1.205,0.451 -1.793,0.405 -0.874,-0.068 -1.515,-0.613 -1.412,-1.593 0.096,-0.927 0.775,-1.591 1.629,-1.385 2.279,0.55 4.042,-0.773 5.855,-1.57 8.346,-3.666 16.609,-7.517 24.905,-11.294 C -33.348,15.958 -19.664,9.738 -5.985,3.504 -3.9,2.554 -1.841,1.547 0.23,0.567 0.154,0.378 0.077,0.189 0,0"
             style="fill:#231f20;fill-opacity:1;fill-rule:nonzero;stroke:none"
             id="path18371" />
        </g>
        <g
           id="g18373"
           transform="translate(197.3521,57.215)">
          <path
             d="m 0,0 c -1.568,0.501 -3.103,1.182 -4.709,1.474 -16.041,2.923 -32.094,5.787 -48.146,8.653 -2.351,0.42 -4.715,0.768 -7.106,1.579 0.465,0.095 0.933,0.285 1.396,0.272 11.591,-0.33 23.182,-0.675 34.772,-1.03 8.871,-0.272 17.744,-0.52 26.612,-0.855 6.472,-0.244 12.94,-0.599 19.407,-0.944 0.783,-0.041 1.557,-0.311 2.327,-0.506 1.82,-0.463 2.347,-0.148 3.121,2.007 -1.417,1.018 -2.892,1.387 -4.667,0.81 -1.035,-0.337 -2.189,-0.465 -3.284,-0.441 -13.272,0.291 -26.544,0.6 -39.814,0.961 -9.513,0.259 -19.024,0.591 -28.535,0.916 -3.436,0.118 -6.869,0.305 -10.303,0.471 -0.365,0.018 -0.727,0.107 -1.098,0.584 3.585,0.513 7.164,1.07 10.756,1.529 13.403,1.714 26.803,3.458 40.219,5.069 11.034,1.326 22.089,2.483 33.135,3.708 1.559,0.173 1.799,0.324 2.9,2.058 -1.213,1.547 -2.231,1.901 -3.533,0.836 -1.068,-0.873 -2.216,-1.212 -3.488,-1.378 -8.561,-1.12 -17.122,-2.243 -25.686,-3.342 -11.102,-1.423 -22.203,-2.853 -33.311,-4.222 -4.903,-0.604 -9.824,-1.063 -14.814,-1.229 3.811,1.144 7.602,2.361 11.439,3.414 6.472,1.774 12.967,3.462 19.461,5.154 8.816,2.297 17.641,4.559 26.461,6.843 4.641,1.201 9.262,2.489 13.925,3.601 2.862,0.681 5.783,1.122 8.685,1.631 0.982,0.172 1.966,0.338 2.242,1.45 0.091,0.369 -0.122,0.99 -0.415,1.243 -0.799,0.693 -1.788,0.686 -2.704,0.228 C 20.338,38.096 14.968,37.072 9.764,35.566 2.47,33.457 -4.89,31.572 -12.235,29.645 c -11.214,-2.944 -22.44,-5.844 -33.661,-8.757 -6.811,-1.768 -13.627,-3.514 -20.433,-5.3 -1.529,-0.4 -2.853,-0.38 -4.327,0.494 -2.375,1.408 -5.951,0.022 -6.298,-2.441 -0.197,-1.402 0.247,-2.968 0.707,-4.359 0.246,-0.744 1.287,-0.483 1.538,0.124 0.845,2.047 2.271,1.807 3.948,1.333 4.071,-1.151 8.167,-2.213 12.251,-3.319 1.747,-0.474 3.489,-0.971 5.233,-1.458 0.06,0.201 0.121,0.4 0.181,0.6 -3.812,1.194 -7.624,2.388 -11.437,3.581 0.001,0.116 0.002,0.232 0.003,0.348 0.234,0.032 0.468,0.098 0.7,0.089 0.236,-0.01 0.468,-0.104 0.704,-0.142 9.786,-1.571 19.578,-3.103 29.356,-4.721 7.249,-1.2 14.478,-2.529 21.721,-3.767 C -8.036,1.264 -4.011,0.647 0.009,0 Z"
             style="fill:#231f20;fill-opacity:1;fill-rule:nonzero;stroke:none"
             id="path18375" />
        </g>
        <g
           id="g18377"
           transform="translate(301.1963,283.882)">
          <path
             d="m 0,0 c 0.189,-0.166 2.422,-0.91 3.21,-1.053 0.531,-1.554 -1.376,-3.062 -0.189,-4.943 0.702,0.634 1.285,1.162 2.141,1.936 0.271,-1.832 0.583,-3.38 0.718,-4.944 1.087,-12.6 1.459,-25.213 1.039,-37.865 -0.24,-7.268 0.102,-14.554 0.092,-21.832 -0.005,-3.674 -0.231,-7.347 -0.323,-11.021 -0.047,-1.917 -0.073,-3.837 -0.022,-5.754 0.22,-8.306 0.455,-16.612 0.73,-24.917 0.04,-1.17 0.354,-2.329 0.501,-3.498 0.139,-1.11 0.283,-2.223 0.328,-3.339 0.368,-9.108 0.819,-18.215 1.032,-27.327 0.164,-7.034 0.012,-14.074 0.014,-21.111 0.002,-6.079 0.087,-12.157 0.02,-18.234 -0.066,-5.835 -0.345,-11.668 -0.402,-17.503 -0.026,-2.549 0.298,-5.099 0.403,-7.652 0.207,-5.028 0.429,-10.058 0.54,-15.089 0.148,-6.714 0.251,-13.43 0.264,-20.146 0.005,-2.712 -0.124,-5.445 -0.461,-8.135 -1.011,-8.052 -1.025,-16.11 -0.479,-24.186 0.053,-0.77 0.008,-1.547 0.008,-2.437 -1.806,-0.065 -2.347,2.308 -4.201,1.699 -0.426,-1.341 1.279,-1.766 1.248,-3.005 -1.277,-0.834 -2.818,-1.511 -3.69,-3.309 0.626,-0.094 1.066,-0.263 1.473,-0.206 2.035,0.287 4.016,0.768 6.142,0.427 0.803,-0.13 1.768,0.735 2.805,1.214 -0.341,0.569 -0.448,0.868 -0.652,1.066 -1.125,1.098 -1.199,1.4 -0.364,2.559 0.419,0.582 0.992,1.054 1.387,1.648 0.183,0.277 0.26,0.822 0.104,1.068 -0.145,0.232 -0.673,0.339 -1.012,0.304 -0.437,-0.046 -0.853,-0.289 -1.607,-0.568 -0.126,4.485 -0.434,8.702 -0.314,12.906 0.154,5.352 0.777,10.689 0.964,16.041 0.134,3.829 -0.157,7.671 -0.186,11.508 -0.046,5.838 0.004,11.677 -0.056,17.514 -0.024,2.392 -0.067,4.805 -0.389,7.168 -0.693,5.102 -0.557,10.211 -0.498,15.329 0.07,5.995 0.068,11.99 0.12,17.984 0.055,6.396 0.157,12.791 0.201,19.187 0.03,4.317 0.04,8.636 -0.021,12.952 -0.054,3.757 -0.181,7.515 -0.343,11.269 -0.178,4.153 -0.459,8.303 -0.643,12.456 -0.117,2.636 -0.124,5.276 -0.207,7.913 -0.144,4.547 -0.309,9.093 -0.464,13.639 -0.338,9.903 -0.817,19.793 -0.403,29.718 0.272,6.542 -0.179,13.112 -0.195,19.671 -0.009,3.514 0.321,7.029 0.315,10.544 -0.02,10.479 -0.397,20.947 -1.324,31.39 -0.124,1.402 -0.449,2.822 0.994,3.929 0.684,0.525 0.498,1.415 -0.001,2.183 -0.416,0.639 -0.699,1.365 -1.004,1.981 0.815,0.866 2.462,0.401 2.258,2.006 C 7.484,2.547 2.749,1.365 0,0"
             style="fill:#231f20;fill-opacity:1;fill-rule:nonzero;stroke:none"
             id="path18379" />
        </g>
        <g
           id="g18381"
           transform="translate(57.6617,52.6652)">
          <path
             d="M 0,0 C 0.74,1.504 0.74,1.504 -0.554,3.054 -0.103,3.96 0.376,4.955 0.884,5.935 1.243,6.629 1.474,7.425 0.676,7.806 0.306,7.982 -0.399,7.504 -0.93,7.273 -1.192,7.16 -1.404,6.933 -1.709,6.706 -2.664,7.951 -2.379,9.274 -2.36,10.5 c 0.064,3.996 0.305,7.99 0.317,11.984 0.009,3.112 -0.061,6.24 -0.384,9.33 -0.508,4.853 -0.909,9.677 -0.621,14.576 0.196,3.335 -0.179,6.703 -0.279,10.057 -0.043,1.437 -0.153,2.886 -0.034,4.312 0.878,10.541 0.515,21.085 0.239,31.635 -0.132,5.024 0.078,10.058 0.151,15.087 0.137,9.427 0.355,18.854 0.405,28.282 0.026,4.871 -0.301,9.742 -0.34,14.614 -0.018,2.31 0.202,4.63 0.428,6.935 0.642,6.557 -0.024,13.096 -0.174,19.642 -0.025,1.088 0.102,2.179 0.175,3.587 1.467,-0.971 2.612,-1.127 3.647,0.423 -0.482,0.492 -1.107,0.898 -1.392,1.472 -0.594,1.196 -1.084,2.458 -1.476,3.737 -0.417,1.361 -0.939,1.702 -2.22,1.22 -1.04,-0.392 -2.133,-0.667 -3.123,-1.155 -0.47,-0.231 -0.755,-0.837 -1.124,-1.274 0.447,-0.238 0.88,-0.508 1.345,-0.703 0.273,-0.115 0.595,-0.113 1.106,-0.198 -0.167,-0.788 -0.299,-1.465 -0.454,-2.137 -0.407,-1.749 -0.391,-1.781 1.649,-2.572 0.355,-6.6 1.112,-13.24 0.592,-19.987 -0.435,-5.641 -0.286,-11.331 -0.304,-17 -0.023,-7.195 0.088,-14.39 0.06,-21.585 -0.017,-4.315 -0.031,-8.64 -0.326,-12.942 -0.577,-8.396 0.178,-16.766 0.189,-25.148 0.011,-7.028 -0.289,-14.058 -0.452,-21.087 -0.028,-1.199 -0.089,-2.398 -0.073,-3.596 0.025,-1.995 0.57,-4.128 0.031,-5.946 -0.62,-2.097 0.383,-3.86 0.248,-5.789 C -4.907,41.23 -4.13,36.248 -3.753,31.235 -3.371,26.149 -3.591,21.014 -3.644,15.901 -3.665,13.841 -3.941,11.783 -4.108,9.642 -4.579,9.6 -4.881,9.598 -5.173,9.544 -6.486,9.302 -6.755,8.742 -6.117,7.602 -5.431,6.375 -4.74,5.15 -3.875,3.612 H -6.643 C -7.184,2.147 -6.201,1.609 -5.248,1.312 -3.514,0.772 -1.722,0.42 0,0"
             style="fill:#231f20;fill-opacity:1;fill-rule:nonzero;stroke:none"
             id="path18383" />
        </g>
        <g
           id="g18385"
           transform="translate(110.2266,143.4162)">
          <path
             d="M 0,0 C -0.934,0.896 -1.514,1.53 -2.181,2.05 -2.431,2.245 -3.008,2.336 -3.215,2.181 -3.421,2.025 -3.439,1.486 -3.376,1.145 -3.323,0.86 -3.029,0.622 -2.851,0.357 c 0.861,-1.276 1.7,-2.557 0.012,-4.257 1.278,-0.262 2.17,-0.58 3.068,-0.599 1.789,-0.036 3.584,0.062 5.37,0.192 0.227,0.017 0.595,0.567 0.575,0.846 -0.022,0.3 -0.381,0.753 -0.67,0.823 -0.9,0.22 -1.837,0.29 -3.009,0.454 0.3,0.801 0.474,1.388 0.734,1.934 C 3.688,0.713 3.805,1.442 2.711,2.196 2.215,2.538 1.996,3.569 1.992,4.289 1.978,7.486 1.883,10.704 2.19,13.878 c 0.813,8.396 0.432,16.775 0.02,25.163 -0.22,4.468 -0.404,8.938 -0.611,13.407 -0.082,1.756 -0.165,3.513 -0.285,5.267 -0.097,1.417 -0.482,2.839 0.829,4.016 0.281,0.252 0.193,1.037 0.106,1.547 -0.131,0.766 -0.412,1.506 -0.608,2.182 0.79,0.623 1.42,1.121 2.049,1.619 -0.074,0.178 -0.148,0.357 -0.222,0.535 -2.563,0.477 -4.954,-0.556 -7.424,-0.902 -0.02,-0.182 -0.04,-0.364 -0.06,-0.546 0.826,-0.193 1.651,-0.386 2.618,-0.611 -0.558,-1.548 -1.078,-2.989 -1.689,-4.684 0.941,-0.061 1.462,-0.095 2.24,-0.145 C 1.043,40.67 1.845,20.58 0,0"
             style="fill:#231f20;fill-opacity:1;fill-rule:nonzero;stroke:none"
             id="path18387" />
        </g>
        <g
           id="g18389"
           transform="translate(273.4619,52.7414)">
          <path
             d="M 0,0 -0.609,0.328 C -0.67,0.933 -0.896,1.585 -0.738,2.126 -0.617,2.543 -0.06,2.931 0.392,3.116 0.661,3.227 1.328,3.01 1.417,2.784 1.597,2.327 1.702,1.643 1.477,1.272 1.154,0.745 0.508,0.415 0,0 M 4.433,-1.906 C 3.768,-3.608 2.564,-4.174 1.184,-4.128 0.315,-4.1 -0.073,-3.307 0.102,-2.334 c 1.28,0.96 2.609,1.296 4.331,0.428 m -7.31,5.049 c 0.682,-3.42 0.511,-6.98 -0.415,-8.644 -3.003,1.617 -2.807,5.688 0.415,8.644 M 3.896,0.613 C 3.459,2.049 3.427,3.475 2.698,4.18 1.937,4.915 0.506,4.956 -0.729,5.33 0.823,6.682 2.507,7.258 4.418,6.672 5.855,6.232 7.32,5.756 8.623,5.027 c 3.042,-1.702 4.16,-4.917 3.01,-8.22 -0.944,-2.705 -2.858,-4.671 -5.309,-5.925 -2.207,-1.128 -4.553,-0.868 -6.892,0.437 1.695,1.296 2.686,2.836 4.41,3.768 3.375,1.824 3.243,3.728 0.054,5.526 M 3.05,-11.229 c 4.989,-0.494 11.959,7.083 10.034,12.867 -1.639,4.926 -9.915,9.502 -15.393,4.799 -3.693,-3.17 -5.326,-7.358 -3.999,-11.913 0.252,-0.862 0.785,-1.737 1.419,-2.378 2.166,-2.188 4.808,-3.391 7.939,-3.375"
             style="fill:#231f20;fill-opacity:1;fill-rule:nonzero;stroke:none"
             id="path18391" />
        </g>
        <g
           id="g18393"
           transform="translate(93.4761,224.6227)">
          <path
             d="M 0,0 C -2.655,0.115 -3.161,2.035 -4.028,3.71 -4.297,4.231 -5.149,4.818 -5.65,4.75 -6.172,4.68 -6.88,3.919 -7.006,3.35 -7.472,1.252 -7.765,-0.886 -8.05,-3.019 c -0.134,-0.998 -0.487,-1.683 -1.581,-1.738 -1.144,-0.057 -2.059,0.649 -2.074,1.837 -0.014,1.104 0.122,2.248 0.42,3.311 1.662,5.913 6.31,7.308 10.908,6.491 0.882,-0.157 1.9,-0.663 2.462,-1.336 5.217,-6.253 2.681,-12.232 -3.047,-14.753 -3.266,-1.436 -7.25,0.018 -8.93,3.145 0.456,0.131 0.873,0.319 1.303,0.356 0.529,0.046 1.07,-0.032 1.693,-0.061 0.388,1.23 0.743,2.351 1.052,3.328 2.1,1.299 2.172,-1.535 3.91,-1.562 0.143,0.622 0.198,1.307 0.466,1.895 C -1.191,-1.501 -0.707,-0.991 0,0 m -13.705,-3.217 c 0.523,-1.821 0.922,-3.691 1.629,-5.437 0.273,-0.675 1.168,-1.278 1.912,-1.54 1.171,-0.414 2.468,-0.457 3.686,-0.757 3.264,-0.801 6.245,-0.278 8.687,2.068 1.307,1.255 2.607,2.664 3.421,4.254 1.915,3.742 0.472,9.453 -2.952,11.921 -3.17,2.286 -6.631,1.952 -10.037,0.499 -3.134,-1.336 -4.722,-3.957 -5.506,-7.12 -0.305,-1.233 -0.392,-2.522 -0.579,-3.785 -0.087,-0.034 -0.174,-0.069 -0.261,-0.103"
             style="fill:#231f20;fill-opacity:1;fill-rule:nonzero;stroke:none"
             id="path18395" />
        </g>
        <g
           id="g18397"
           transform="translate(237.2989,48.2951)">
          <path
             d="m 0,0 c -1.103,-0.155 -1.692,1.697 -2.585,0.55 -0.312,-0.4 0.326,-1.537 0.525,-2.34 0.31,-1.245 0.615,-2.491 1.068,-4.335 1.366,-0.672 3.427,-0.583 5.447,-0.396 1.031,0.096 1.149,0.847 0.553,2.551 C 4.297,-4.177 3.579,-4.385 2.73,-4.631 2.236,-2.735 4.136,-1.686 3.992,0.115 1.635,0.681 2.034,2.618 2.076,4.427 c 0.16,6.789 0.356,13.578 0.438,20.368 0.075,6.15 0.014,12.302 0.028,18.452 0.003,0.947 0.093,1.893 0.138,2.766 2.916,1.196 2.916,1.196 0.359,4.525 0.572,0.601 1.162,1.22 2.148,2.255 C 2.353,53.252 0.209,52.942 -1.921,52.46 -1.974,52.256 -2.027,52.052 -2.081,51.848 -1.413,51.414 -0.745,50.98 0.02,50.482 -0.289,49.401 -0.608,48.288 -0.977,46.998 -0.237,46.85 0.269,46.75 0.768,46.65 1.528,45.762 0.85,3.407 0,0"
             style="fill:#231f20;fill-opacity:1;fill-rule:nonzero;stroke:none"
             id="path18399" />
        </g>
        <g
           id="g18401"
           transform="translate(123.7515,254.3996)">
          <path
             d="M 0,0 C -1.449,-0.008 -1.758,0.682 -1.839,1.525 -1.917,2.325 -1.465,2.673 -0.7,2.628 0.242,2.574 0.793,1.988 0.737,1.119 0.708,0.663 0.169,0.24 0,0 M 8.579,4.061 C 8.985,2.727 9.232,1.926 9.473,1.123 c 0.182,-0.61 0.236,-1.3 0.571,-1.806 0.241,-0.362 0.853,-0.477 1.299,-0.703 0.116,0.417 0.398,0.868 0.319,1.243 -0.296,1.393 -0.709,2.76 -1.099,4.211 0.847,0.501 1.552,0.919 2.506,1.484 C 12.558,5.899 12.291,6.181 11.966,6.284 10.122,6.87 9.923,7.057 9.797,8.838 9.742,9.606 9.788,10.38 9.788,11.093 8.518,11.364 8.398,10.63 8.312,10.035 8.197,9.25 8.299,8.434 8.178,7.651 8.1,7.147 7.911,6.394 7.561,6.243 5.81,5.491 5.628,4.115 5.749,2.5 5.778,2.099 5.546,1.679 5.318,0.838 4.748,1.907 4.394,2.573 4.062,3.194 1.387,3.63 -1.073,5.312 -4.122,3.872 c -0.06,-2.108 0.922,-4.13 1.465,-6.247 0.523,-2.035 0.868,-4.116 1.553,-6.16 1.543,1.582 0.164,3.415 0.544,4.931 1.203,1.045 2.325,2.021 3.509,3.049 0.129,-0.059 0.347,-0.139 0.546,-0.255 1.768,-1.027 2.752,-0.829 3.655,0.945 0.532,1.044 0.818,2.212 1.429,3.926"
             style="fill:#231f20;fill-opacity:1;fill-rule:nonzero;stroke:none"
             id="path18403" />
        </g>
        <g
           id="g18405"
           transform="translate(234.1929,292.0856)">
          <path
             d="m 0,0 c 1.139,-1.395 1.573,-2.958 0.269,-4.793 -1.572,1.351 -0.755,3.171 -1.226,5.033 -0.554,-0.386 -1.16,-0.576 -1.256,-0.912 -0.559,-1.943 -0.201,-3.82 0.863,-5.505 0.641,-1.015 1.542,-1.062 2.438,-0.241 1.112,1.02 1.579,2.371 1.795,3.828 0.11,0.738 0.236,1.475 0.354,2.212 0.223,0.005 0.447,0.011 0.671,0.016 0.285,-1.355 0.516,-2.725 0.871,-4.061 0.372,-1.399 0.832,-1.541 2.395,-0.928 -0.413,1.34 -0.942,2.657 -1.211,4.025 C 5.641,0.314 5.912,0.577 7.541,0.962 7.997,1.07 8.454,1.188 8.894,1.348 9,1.386 9.038,1.609 9.129,1.79 8.498,3.137 7.128,2.335 5.838,2.93 5.736,3.785 5.654,4.86 5.458,5.913 5.399,6.228 5.021,6.483 4.791,6.766 4.52,6.522 4.097,6.326 4.002,6.026 3.408,4.156 1.648,1.538 0.263,0.562 0.153,0.484 0.128,0.285 0,0"
             style="fill:#231f20;fill-opacity:1;fill-rule:nonzero;stroke:none"
             id="path18407" />
        </g>
        <g
           id="g18409"
           transform="translate(202.5484,291.5129)">
          <path
             d="M 0,0 C 0.274,1.071 0.404,2.208 0.854,3.2 1.705,5.08 3.292,5.161 4.562,3.5 6.065,1.534 5.351,-2.413 3.251,-3.798 2.53,-4.273 1.911,-4.154 1.323,-3.568 0.337,-2.587 0.108,-1.361 0,0 M 6.992,1.4 C 6.908,1.744 6.809,2.467 6.554,3.129 5.808,5.075 4.308,6.246 2.665,6.189 0.632,6.119 -0.239,4.66 -0.808,3.026 -1.279,1.676 -1.605,0.262 -1.857,-1.148 c -0.305,-1.708 1.313,-4.256 2.937,-4.816 1.007,-0.347 1.866,-0.043 2.69,0.56 1.847,1.349 3.27,4.153 3.222,6.804"
             style="fill:#231f20;fill-opacity:1;fill-rule:nonzero;stroke:none"
             id="path18411" />
        </g>
        <g
           id="g18413"
           transform="translate(29.7217,169.2126)">
          <path
             d="m 0,0 c 0.559,-0.966 0.844,-1.632 1.29,-2.163 0.249,-0.296 0.765,-0.368 1.16,-0.54 0.169,0.408 0.562,0.884 0.464,1.213 C 2.645,-0.588 2.169,0.253 1.698,1.287 2.518,2.044 3.322,2.799 4.141,3.538 4.497,3.858 4.987,4.081 5.225,4.467 5.47,4.863 5.48,5.404 5.594,5.882 5.154,5.865 4.636,5.991 4.293,5.801 3.674,5.457 3.162,4.922 2.602,4.471 2.053,4.028 1.5,3.591 1.031,3.217 -0.786,3.752 0.07,5.087 -0.087,6.211 -1.762,6.611 -3.411,6.932 -5.513,5.989 -3.866,4.502 -1.406,4.109 -1.193,1.4 -1.711,0.929 -2.381,0.271 -3.104,-0.322 c -0.525,-0.43 -1.12,-0.882 -0.548,-1.55 0.596,-0.696 1.274,-0.388 1.855,0.194 C -1.301,-1.18 -0.771,-0.716 0,0"
             style="fill:#231f20;fill-opacity:1;fill-rule:nonzero;stroke:none"
             id="path18415" />
        </g>
        <g
           id="g18417"
           transform="translate(5.627,160.1696)">
          <path
             d="m 0,0 c 0.331,-2.254 -0.22,-3.729 -1.278,-4.954 -0.394,-0.456 -1.219,-0.626 -1.88,-0.751 -1.68,-0.318 -2.582,-0.917 -2.458,-1.774 0.133,-0.912 1.077,-1.089 2.797,-0.893 1.063,0.121 2.174,-0.165 3.263,-0.275 0.938,-0.094 1.888,-0.344 2.808,-0.26 1.098,0.1 1.424,0.865 0.997,1.961 -1.278,0.153 -2.571,0.307 -4.137,0.494 0.383,0.967 0.669,1.597 0.884,2.249 0.349,1.061 0.835,2.123 0.914,3.211 C 1.965,-0.227 1.672,0.884 1.124,1.301 0.15,2.043 -1.056,1.511 -2.006,0.904 -2.932,0.314 -3.055,-0.58 -2.499,-1.718 -1.723,-1.185 -1.068,-0.734 0,0"
             style="fill:#231f20;fill-opacity:1;fill-rule:nonzero;stroke:none"
             id="path18419" />
        </g>
        <g
           id="g18421"
           transform="translate(195.0523,48.3835)">
          <path
             d="m 0,0 c 2.566,-0.835 5.121,-1.708 7.701,-2.497 4.953,-1.516 9.928,-2.961 14.875,-4.497 0.881,-0.274 1.671,-0.843 2.495,-1.29 0.208,-0.113 0.387,-0.281 0.582,-0.419 0.803,-0.56 1.684,-0.694 2.412,-0.018 0.322,0.299 0.518,1.017 0.401,1.443 -0.246,0.883 -0.931,1.654 -1.907,1.52 -5.067,-0.699 -9.398,1.98 -14.08,3.014 C 8.37,-1.836 4.34,-0.568 0.274,0.541 0.183,0.36 0.091,0.18 0,0"
             style="fill:#231f20;fill-opacity:1;fill-rule:nonzero;stroke:none"
             id="path18423" />
        </g>
        <g
           id="g18425"
           transform="translate(105.0972,261.0095)">
          <path
             d="M 0,0 C 2.709,-0.804 2.366,-2.857 2.127,-5.013 1.33,-5.182 0.577,-5.205 -0.01,-5.528 -0.273,-5.673 -0.447,-6.597 -0.25,-6.858 0.587,-7.972 4.729,-8.27 5.742,-7.383 6.328,-6.87 6.478,-6.077 5.78,-5.803 3.096,-4.749 3.83,-2.551 3.744,-0.341 5.162,0.046 6.552,0.425 8.014,0.824 7.558,2.209 6.665,2.147 5.799,2.096 2.09,1.877 1.039,1.514 0,0"
             style="fill:#231f20;fill-opacity:1;fill-rule:nonzero;stroke:none"
             id="path18427" />
        </g>
        <g
           id="g18429"
           transform="translate(74.9995,175.1286)">
          <path
             d="M 0,0 C -1.877,1.299 -1.828,1.272 -0.92,2.956 -0.36,3.994 0.132,5.098 0.447,6.229 0.68,7.064 0.597,8.024 -0.315,8.555 -1.25,9.097 -2.018,8.544 -2.699,8 -3.093,7.684 -3.341,7.187 -3.446,6.377 -2.698,6.578 -1.949,6.78 -1.197,6.982 -0.646,4.276 -1.993,2.61 -4.479,2.711 -5.228,2.742 -6.062,2.578 -6.728,2.245 -7.52,1.848 -7.833,0.933 -7.306,0.211 c 0.347,-0.474 1.163,-0.825 1.771,-0.829 0.661,-0.004 1.324,0.459 2.19,0.798 0.663,-0.471 1.363,-1.163 2.206,-1.503 0.654,-0.264 1.592,-0.323 2.213,-0.047 0.819,0.365 1.55,1.108 0.989,2.436 C 1.3,0.672 0.633,0.327 0,0"
             style="fill:#231f20;fill-opacity:1;fill-rule:nonzero;stroke:none"
             id="path18431" />
        </g>
        <g
           id="g18433"
           transform="translate(13.9346,176.318)">
          <path
             d="M 0,0 C -0.39,-1.046 -0.666,-1.646 -0.833,-2.276 -0.976,-2.811 -0.894,-3.419 -1.1,-3.917 -1.254,-4.29 -1.693,-4.756 -2.035,-4.781 c -0.342,-0.026 -0.813,0.379 -1.057,0.718 -0.212,0.293 -0.12,0.791 -0.288,1.136 -0.117,0.239 -0.504,0.561 -0.672,0.512 -0.314,-0.093 -0.785,-0.422 -0.792,-0.664 -0.059,-2.142 -0.049,-4.286 -0.004,-6.429 0.005,-0.234 0.358,-0.462 0.574,-0.722 1.214,0.316 0.977,1.378 1.319,2.102 0.144,0.306 0.526,0.676 0.811,0.686 0.27,0.008 0.675,-0.364 0.808,-0.662 0.3,-0.679 0.137,-1.815 1.303,-1.612 1.027,0.179 0.881,1.18 0.883,1.964 C 0.855,-5.626 0.86,-3.5 0.806,-1.375 0.798,-1.068 0.465,-0.77 0,0"
             style="fill:#231f20;fill-opacity:1;fill-rule:nonzero;stroke:none"
             id="path18435" />
        </g>
        <g
           id="g18437"
           transform="translate(227.1075,287.3449)">
          <path
             d="M 0,0 C -0.167,0.985 -0.309,1.828 -0.468,2.771 0.795,2.904 1.773,2.865 2.005,1.828 2.231,0.818 1.472,0.275 0,0 m -0.099,-5.668 c 0.135,0.541 0.409,1.09 0.373,1.62 -0.077,1.17 0.303,2.002 1.356,2.527 0.212,0.105 0.417,0.241 0.592,0.399 1.022,0.927 2,1.905 1.616,3.463 C 3.445,3.94 2.077,4.24 0.732,4.51 0.188,4.618 -0.371,4.697 -0.924,4.701 -2.193,4.71 -3.373,3.149 -2.744,2.097 c 0.948,-1.586 1.02,-3.297 1.23,-5.023 0.111,-0.905 0.377,-1.79 0.573,-2.684 z"
             style="fill:#231f20;fill-opacity:1;fill-rule:nonzero;stroke:none"
             id="path18439" />
        </g>
        <g
           id="g18441"
           transform="translate(253.7041,72.3205)">
          <path
             d="m 0,0 c -1.948,-0.45 -3.655,-0.189 -4.967,1.829 0.426,0.593 0.902,1.289 1.413,1.957 0.864,1.129 1.269,2.393 1.144,3.807 -0.074,0.843 -0.362,1.578 -1.326,1.754 -0.739,0.135 -1.097,-0.184 -1.8,-1.599 0.518,-0.151 1.012,-0.295 1.505,-0.439 0.144,-2.712 -0.864,-4.038 -3.406,-4.484 -1.191,-0.21 -2.38,-0.416 -2.682,-2.054 0.359,-0.163 0.76,-0.519 1.018,-0.435 1.632,0.533 2.899,-0.044 4.154,-1.044 0.673,-0.536 1.502,-0.941 2.324,-1.21 C -1.257,-2.365 -0.452,-1.771 0,0"
             style="fill:#231f20;fill-opacity:1;fill-rule:nonzero;stroke:none"
             id="path18443" />
        </g>
        <g
           id="g18445"
           transform="translate(223.7139,289.2165)">
          <path
             d="m 0,0 c -1.352,0.249 -2.838,0.09 -3.444,0.745 -0.749,0.81 -0.766,2.297 -1.134,3.611 1.031,0.318 1.744,0.539 2.857,0.882 -0.958,0.818 -1.883,1.315 -2.348,2.09 -0.434,0.723 -0.379,1.739 -0.538,2.627 -0.183,0.031 -0.365,0.063 -0.547,0.094 C -5.4,9.652 -5.835,9.265 -5.857,8.856 -5.922,7.631 -6.358,6.899 -7.679,6.819 -8.335,6.779 -9.086,6.534 -8.894,5.718 -8.81,5.364 -8.096,5.113 -7.627,4.912 -7.276,4.762 -6.859,4.768 -6.376,4.688 -6.005,3.122 -5.716,1.57 -5.255,0.072 -4.935,-0.969 -4.171,-1.804 -3,-1.777 -1.837,-1.75 -0.619,-1.568 0,0"
             style="fill:#231f20;fill-opacity:1;fill-rule:nonzero;stroke:none"
             id="path18447" />
        </g>
        <g
           id="g18449"
           transform="translate(243.8863,287.9269)">
          <path
             d="m 0,0 c -0.625,-2.157 -0.476,-2.364 1.314,-2.129 0.866,0.114 1.753,0.142 2.595,0.351 0.701,0.174 1.351,0.554 2.138,0.892 C 5.072,1.315 2.945,1.261 1.327,2.292 2.428,2.77 3.301,3.149 4.509,3.673 3.892,4.185 3.637,4.577 3.343,4.609 1.39,4.828 -0.249,4.079 -1.565,2.694 -2.332,1.889 -2.167,1.235 -1.175,0.555 -0.857,0.336 -0.47,0.217 0,0"
             style="fill:#231f20;fill-opacity:1;fill-rule:nonzero;stroke:none"
             id="path18451" />
        </g>
        <g
           id="g18453"
           transform="translate(197.3609,57.2145)">
          <path
             d="m 0,0 c 3.136,-0.561 6.28,-1.08 9.407,-1.692 3.675,-0.719 7.339,-1.496 10.997,-2.294 1.317,-0.287 2.603,-0.708 3.904,-1.068 0.305,-0.084 0.674,-0.32 0.904,-0.223 0.605,0.254 1.151,0.652 1.72,0.993 -0.318,0.513 -0.528,1.188 -0.985,1.494 -0.482,0.322 -1.234,0.485 -1.81,0.384 -3.718,-0.652 -7.283,0.427 -10.895,0.89 C 9.607,-1.048 6,-0.366 2.371,0.15 1.602,0.26 0.788,0.058 -0.007,0 -0.009,0 0,0 0,0"
             style="fill:#231f20;fill-opacity:1;fill-rule:nonzero;stroke:none"
             id="path18455" />
        </g>
        <g
           id="g18457"
           transform="translate(19.9038,175.2277)">
          <path
             d="m 0,0 c 1.325,0.396 2.406,0.72 3.679,1.101 -1.572,1.313 -3.381,1.301 -6.081,0.144 0.845,-2.577 0.697,-5.25 0.412,-7.93 -0.096,-0.91 0.303,-1.649 1.141,-1.881 1.292,-0.356 2.633,-0.575 3.968,-0.712 0.291,-0.03 0.862,0.505 0.902,0.829 0.038,0.301 -0.446,0.685 -0.738,0.995 C 3.197,-7.363 2.978,-7.4 2.821,-7.375 -0.39,-6.848 -0.392,-6.848 -0.221,-3.7 -0.156,-2.515 -0.08,-1.33 0,0"
             style="fill:#231f20;fill-opacity:1;fill-rule:nonzero;stroke:none"
             id="path18459" />
        </g>
        <g
           id="g18461"
           transform="translate(80.6206,183.4787)">
          <path
             d="M 0,0 C 0.292,0.272 0.844,0.554 0.834,0.815 0.759,2.837 1.374,5 -0.332,7.011 -0.573,6.527 -0.732,6.183 -0.914,5.851 -1.136,5.444 -1.283,4.884 -1.631,4.683 c -0.61,-0.353 -1.043,0.103 -1.375,0.64 -0.116,0.187 -0.375,0.284 -0.679,0.5 -0.184,-0.362 -0.43,-0.62 -0.429,-0.879 0.004,-1.59 0.056,-3.181 0.112,-4.771 0.018,-0.535 0.146,-1.125 0.835,-0.949 0.236,0.06 0.446,0.66 0.468,1.025 0.036,0.627 -0.115,1.262 -0.131,1.896 -0.017,0.698 0.397,1.025 1.07,1.083 C -1.037,3.29 -0.696,2.913 -0.624,2.245 -0.55,1.564 -0.503,0.881 -0.444,0.199 -0.296,0.133 -0.148,0.066 0,0"
             style="fill:#231f20;fill-opacity:1;fill-rule:nonzero;stroke:none"
             id="path18463" />
        </g>
        <g
           id="g18465"
           transform="translate(141.5816,259.4641)">
          <path
             d="m 0,0 c -1.803,0.906 -3.227,0.549 -4.561,-0.244 -0.878,-0.522 -0.874,-1.333 -0.013,-1.881 0.717,-0.457 1.526,-0.769 2.655,-1.322 -0.704,-0.161 -1.11,-0.148 -1.362,-0.338 -0.341,-0.257 -0.783,-0.674 -0.777,-1.016 0.007,-0.335 0.473,-0.872 0.82,-0.95 1.071,-0.241 2.19,-0.458 3.275,-0.399 1.404,0.076 1.853,1.07 1.221,2.374 -0.171,0.351 -0.383,0.73 -0.679,0.965 C -0.345,-2.078 -0.551,-1.187 0,0"
             style="fill:#231f20;fill-opacity:1;fill-rule:nonzero;stroke:none"
             id="path18467" />
        </g>
        <g
           id="g18469"
           transform="translate(39.5074,177.2985)">
          <path
             d="m 0,0 c -1.451,0.101 -2.824,0.196 -4.243,0.295 -0.266,-2.182 1.587,-1.392 2.462,-2.391 -0.153,-2.112 -0.277,-4.483 -0.541,-6.838 -0.046,-0.407 -0.627,-0.842 -1.06,-1.095 -0.468,-0.274 -1.1,-0.267 -1.566,-0.542 -0.272,-0.161 -0.526,-0.664 -0.477,-0.963 0.047,-0.281 0.505,-0.711 0.772,-0.703 1.028,0.029 2.097,0.073 3.059,0.39 0.437,0.144 0.974,0.966 0.93,1.43 -0.296,3.16 0.45,6.2 0.87,9.278 C 0.236,-0.918 0.128,-0.678 0,0"
             style="fill:#231f20;fill-opacity:1;fill-rule:nonzero;stroke:none"
             id="path18471" />
        </g>
        <g
           id="g18473"
           transform="translate(258.7622,84.4079)">
          <path
             d="M 0,0 C 1.351,0.479 0.32,1.716 0.976,2.764 1.359,2.86 1.996,3.019 2.876,3.24 2.986,1.937 3.075,0.882 3.167,-0.207 4.417,-0.424 4.636,0.189 4.688,1.108 4.817,3.395 4.839,3.393 5.908,4.764 5.098,5.815 4.296,6.856 3.494,7.898 3.326,7.834 3.158,7.77 2.99,7.707 2.935,6.907 2.88,6.108 2.824,5.297 1.112,3.831 0.647,6.017 -0.356,6.49 -1.45,4.889 -1.221,1.383 0,0"
             style="fill:#231f20;fill-opacity:1;fill-rule:nonzero;stroke:none"
             id="path18475" />
        </g>
        <g
           id="g18477"
           transform="translate(104.564,183.4167)">
          <path
             d="M 0,0 C 0.673,0.127 1.095,0.195 1.512,0.287 3.958,0.826 3.905,0.828 3.9,3.394 3.897,4.596 4.124,5.802 4.281,7.002 4.37,7.684 4.528,8.357 4.679,9.166 3.34,9.305 2.224,9.309 0.995,8.412 1.719,8.063 2.251,7.806 2.808,7.538 2.719,5.915 2.628,4.33 2.546,2.744 2.508,2.006 1.947,1.851 1.395,1.658 0.463,1.332 0.478,1.304 0,0"
             style="fill:#231f20;fill-opacity:1;fill-rule:nonzero;stroke:none"
             id="path18479" />
        </g>
        <g
           id="g18481"
           transform="translate(115.9839,255.9484)">
          <path
             d="m 0,0 c 0.331,-1.031 0.655,-1.976 0.935,-2.934 0.201,-0.686 0.272,-1.567 1.279,-1.327 0.948,0.225 0.823,1.13 0.659,1.787 C 2.586,-1.328 2.238,-0.169 1.711,0.882 1.143,2.017 0.203,2.662 -1.224,2.342 -1.981,2.172 -2.809,2.332 -3.582,2.205 -4.487,2.056 -5.053,0.758 -4.427,0.489 -2.856,-0.185 -3.229,-1.804 -2.497,-2.893 -0.596,-2.827 -1.756,-0.579 0,0"
             style="fill:#231f20;fill-opacity:1;fill-rule:nonzero;stroke:none"
             id="path18483" />
        </g>
        <g
           id="g18485"
           transform="translate(299.8994,95.0939)">
          <path
             d="m 0,0 c -1.73,0.152 -3.012,0.265 -4.293,0.377 -0.053,-0.163 -0.106,-0.327 -0.159,-0.49 0.323,-0.262 0.613,-0.682 0.975,-0.759 1.655,-0.351 1.873,-1.488 1.763,-2.889 -0.099,-1.27 -0.224,-2.545 -0.202,-3.816 0.022,-1.307 -0.419,-2.095 -1.767,-2.392 -0.914,-0.202 -1.776,-0.619 -1.797,-2.06 1.422,0.353 2.719,0.594 3.95,1.025 0.422,0.148 0.937,0.749 0.97,1.176 0.244,3.161 0.375,6.33 0.56,9.828"
             style="fill:#231f20;fill-opacity:1;fill-rule:nonzero;stroke:none"
             id="path18487" />
        </g>
        <g
           id="g18489"
           transform="translate(94.2041,191.3136)">
          <path
             d="m 0,0 c -0.601,-0.743 -1.203,-1.486 -1.866,-2.306 -0.759,0.681 -1.465,1.315 -2.173,1.95 -0.753,-0.82 -0.305,-1.336 0.057,-1.713 1.112,-1.157 1.614,-2.397 0.664,-4.029 0.921,-0.247 1.668,-0.506 2.437,-0.635 0.653,-0.11 0.941,0.328 0.848,0.934 -0.046,0.298 -0.222,0.606 -0.418,0.844 -0.689,0.838 -0.459,1.6 0.007,2.462 C -0.078,-1.814 0.637,-1.219 0,0"
             style="fill:#231f20;fill-opacity:1;fill-rule:nonzero;stroke:none"
             id="path18491" />
        </g>
        <g
           id="g18493"
           transform="translate(267.5791,86.3542)">
          <path
             d="m 0,0 c 0.2,2.285 0.378,4.31 0.555,6.329 0.787,0.408 1.459,0.756 2.372,1.231 -1.46,0.967 -2.708,0.534 -4.189,0.321 0,-1.392 0.027,-2.716 -0.007,-4.039 -0.034,-1.351 -0.164,-2.699 -0.178,-4.05 -0.011,-1.03 0.568,-1.7 1.605,-1.681 1.024,0.018 2.051,0.203 3.06,0.398 0.218,0.042 0.556,0.493 0.508,0.658 C 3.632,-0.519 3.324,-0.069 3.063,-0.038 2.215,0.063 1.347,0 0,0"
             style="fill:#231f20;fill-opacity:1;fill-rule:nonzero;stroke:none"
             id="path18495" />
        </g>
        <g
           id="g18497"
           transform="translate(104.523,191.5251)">
          <path
             d="m 0,0 c -1.312,0.118 -0.664,-1.55 -1.788,-1.811 -0.712,0.149 -0.846,0.944 -1.19,1.599 -0.141,0.27 -0.541,0.404 -0.823,0.6 -0.15,-0.315 -0.477,-0.671 -0.415,-0.937 0.153,-0.665 0.367,-1.373 0.765,-1.909 0.688,-0.928 1.081,-1.825 0.67,-2.985 -0.117,-0.331 -0.101,-0.783 0.028,-1.11 0.204,-0.521 0.889,-0.628 1.038,-0.203 0.743,2.12 1.345,4.29 1.98,6.447 C 0.284,-0.246 0.114,-0.128 0,0"
             style="fill:#231f20;fill-opacity:1;fill-rule:nonzero;stroke:none"
             id="path18499" />
        </g>
        <g
           id="g18501"
           transform="translate(88.9346,184.299)">
          <path
             d="M 0,0 C -0.463,0.083 -0.924,0.187 -1.391,0.247 -2.687,0.41 -2.92,0.599 -2.964,1.91 -3,2.991 -3.042,4.1 -2.843,5.152 c 0.123,0.654 0.689,1.225 1.049,1.823 -1.078,0.441 -1.078,0.441 -2.681,0.066 0.082,-1.025 0.198,-2.078 0.242,-3.134 0.045,-1.082 -0.014,-2.168 0.037,-3.249 0.04,-0.845 0.483,-1.413 1.343,-1.645 1.063,-0.286 2.083,-0.471 2.884,0.432 z"
             style="fill:#231f20;fill-opacity:1;fill-rule:nonzero;stroke:none"
             id="path18503" />
        </g>
        <g
           id="g18505"
           transform="translate(289.7383,87.3405)">
          <path
             d="M 0,0 C 0.98,-0.125 2.088,-0.59 2.464,-0.249 3.438,0.635 2.063,1.16 1.756,1.875 1.694,2.017 1.651,2.168 1.59,2.345 1.814,3.572 3.33,4.468 2.518,6.369 2.001,5.772 1.632,5.354 1.272,4.929 0.931,4.525 0.599,4.113 0.259,3.7 -0.673,4.444 -1.489,5.099 -2.313,5.743 -2.34,5.765 -2.446,5.684 -2.655,5.585 -3.054,4.594 -2.314,3.831 -1.791,3.136 -1.072,2.181 -0.952,1.342 -1.579,0.318 -1.86,-0.142 -2.07,-0.713 -2.088,-1.242 -2.1,-1.574 -1.695,-1.921 -1.331,-2.491 -0.756,-1.415 -0.33,-0.619 0,0"
             style="fill:#231f20;fill-opacity:1;fill-rule:nonzero;stroke:none"
             id="path18507" />
        </g>
        <g
           id="g18509"
           transform="translate(212.9922,288.3796)">
          <path
             d="M 0,0 C -0.492,1.37 -0.819,2.282 -1.166,3.246 -2.576,2.771 -2.591,1.812 -2.345,1.01 c 0.378,-1.232 0.339,-3.036 2.026,-3.195 1.565,-0.147 2.265,1.301 2.759,2.59 0.399,1.039 0.753,2.126 0.887,3.22 C 3.384,4.093 2.934,4.95 2.536,5.077 1.765,5.325 1.448,4.625 1.432,3.913 1.403,2.618 1.143,1.421 0,0"
             style="fill:#231f20;fill-opacity:1;fill-rule:nonzero;stroke:none"
             id="path18511" />
        </g>
        <g
           id="g18513"
           transform="translate(275.6367,85.3879)">
          <path
             d="M 0,0 C 0.659,1.554 1.189,2.925 1.817,4.25 2.435,5.55 3.752,6.553 3.605,8.395 1.859,8.111 2.176,6.031 0.802,5.65 -0.422,5.775 -0.37,7.828 -1.922,7.536 -2.685,6.637 -1.953,6.042 -1.474,5.472 -0.645,4.486 -0.185,3.541 -0.907,2.244 -1.388,1.382 -1.146,0.564 0,0"
             style="fill:#231f20;fill-opacity:1;fill-rule:nonzero;stroke:none"
             id="path18515" />
        </g>
        <g
           id="g18517"
           transform="translate(120.0323,84.2365)">
          <path
             d="m 0,0 c 1.074,-1.213 2.148,-2.427 3.241,-3.663 0.653,0.254 1.156,0.331 1.493,0.61 0.444,0.368 1.006,0.862 1.071,1.359 0.116,0.895 -0.588,1.476 -1.42,1.637 C 3.036,0.204 1.661,0.333 0.296,0.519 0.198,0.346 0.099,0.173 0,0"
             style="fill:#231f20;fill-opacity:1;fill-rule:nonzero;stroke:none"
             id="path18519" />
        </g>
        <g
           id="g18521"
           transform="translate(98.2246,192.1891)">
          <path
             d="m 0,0 c -1.14,-1.324 -1.397,-5.775 -0.624,-7.416 0.67,-0.033 0.891,0.368 0.899,0.953 0.025,1.649 0.062,3.297 0.046,4.946 C 0.317,-1.074 0.14,-0.633 0,0"
             style="fill:#231f20;fill-opacity:1;fill-rule:nonzero;stroke:none"
             id="path18523" />
        </g>
        <g
           id="g18525"
           transform="translate(224.4317,113.4416)">
          <path
             d="m 0,0 c -1.177,-0.056 -2.096,-0.713 -2.126,-1.52 -0.038,-1.015 1.159,-2.021 2.282,-1.917 1.188,0.11 2.021,0.961 1.944,1.985 C 2.03,-0.537 1.173,0.056 0,0"
             style="fill:#231f20;fill-opacity:1;fill-rule:nonzero;stroke:none"
             id="path18527" />
        </g>
        <g
           id="g18529"
           transform="translate(222.7139,153.6921)">
          <path
             d="m 0,0 c -1.16,-0.026 -1.868,-0.581 -1.811,-1.419 0.069,-1.01 1.223,-2.036 2.289,-2.035 1.115,0 1.905,0.702 1.894,1.682 C 2.359,-0.692 1.391,0.032 0,0"
             style="fill:#231f20;fill-opacity:1;fill-rule:nonzero;stroke:none"
             id="path18531" />
        </g>
        <g
           id="g18533"
           transform="translate(222.7388,26.0778)">
          <path
             d="m 0,0 c -1.21,-0.044 -2.038,-0.726 -1.937,-1.596 0.102,-0.865 1.436,-1.896 2.446,-1.888 1.062,0.008 1.9,0.772 1.876,1.711 C 2.358,-0.737 1.303,0.047 0,0"
             style="fill:#231f20;fill-opacity:1;fill-rule:nonzero;stroke:none"
             id="path18535" />
        </g>
        <g
           id="g18537"
           transform="translate(123.2632,112.6935)">
          <path
             d="M 0,0 C -0.053,-1.068 0.838,-2.022 1.902,-2.037 3.08,-2.054 4.073,-1.285 4.148,-0.299 4.223,0.677 3.31,1.473 2.049,1.532 0.875,1.587 0.048,0.969 0,0"
             style="fill:#231f20;fill-opacity:1;fill-rule:nonzero;stroke:none"
             id="path18539" />
        </g>
        <g
           id="g18541"
           transform="translate(283.1465,85.6349)">
          <path
             d="M 0,0 C 0.306,0.679 0.554,0.968 0.545,1.25 0.471,3.611 0.365,5.971 0.218,8.329 0.205,8.53 -0.179,8.708 -0.421,8.924 -1.276,7.209 -1.209,2.348 0,0"
             style="fill:#231f20;fill-opacity:1;fill-rule:nonzero;stroke:none"
             id="path18543" />
        </g>
        <g
           id="g18545"
           transform="translate(123.1372,98.1232)">
          <path
             d="m 0,0 c -0.084,-1.515 2.085,-3.023 3.253,-2.397 0.358,0.192 0.831,0.812 0.746,1.065 C 3.766,-0.645 3.4,0.233 2.833,0.509 2.153,0.838 1.206,0.666 0.382,0.604 0.208,0.591 0.069,0.117 0,0"
             style="fill:#231f20;fill-opacity:1;fill-rule:nonzero;stroke:none"
             id="path18547" />
        </g>
        <g
           id="g18549"
           transform="translate(123.3413,54.5549)">
          <path
             d="M 0,0 C 1.236,0.033 2.036,0.601 2.093,1.487 2.155,2.446 0.991,3.337 -0.275,3.259 -1.222,3.202 -1.994,2.857 -2.053,1.761 -2.109,0.722 -1.199,-0.032 0,0"
             style="fill:#231f20;fill-opacity:1;fill-rule:nonzero;stroke:none"
             id="path18551" />
        </g>
        <g
           id="g18553"
           transform="translate(222.4976,198.1652)">
          <path
             d="m 0,0 c -0.236,-0.219 -1.026,-0.607 -1.18,-1.169 -0.287,-1.05 0.919,-2.039 2.3,-2.107 1.067,-0.053 1.827,0.546 1.775,1.399 C 2.835,-0.903 1.75,-0.056 0,0"
             style="fill:#231f20;fill-opacity:1;fill-rule:nonzero;stroke:none"
             id="path18555" />
        </g>
        <g
           id="g18557"
           transform="translate(223.1905,126.0529)">
          <path
             d="m 0,0 c -0.764,-0.077 -1.614,-0.294 -1.764,-1.365 -0.12,-0.854 1.035,-1.845 2.056,-1.848 1.119,-0.004 1.956,0.658 1.995,1.575 C 2.328,-0.651 1.432,0.035 0,0"
             style="fill:#231f20;fill-opacity:1;fill-rule:nonzero;stroke:none"
             id="path18559" />
        </g>
        <g
           id="g18561"
           transform="translate(223.0264,179.7551)">
          <path
             d="M 0,0 C 1.064,0.005 1.915,0.629 1.893,1.389 1.866,2.317 0.681,3.234 -0.53,3.248 -1.31,3.256 -1.972,3.063 -2.043,2.128 -2.134,0.957 -1.196,-0.005 0,0"
             style="fill:#231f20;fill-opacity:1;fill-rule:nonzero;stroke:none"
             id="path18563" />
        </g>
        <g
           id="g18565"
           transform="translate(123.2032,126.8991)">
          <path
             d="M 0,0 C 0.05,-0.907 0.972,-1.651 2.028,-1.638 3.103,-1.625 3.912,-1.02 3.925,-0.217 3.941,0.766 2.898,1.634 1.783,1.567 0.747,1.505 -0.045,0.81 0,0"
             style="fill:#231f20;fill-opacity:1;fill-rule:nonzero;stroke:none"
             id="path18567" />
        </g>
        <g
           id="g18569"
           transform="translate(223.7764,140.4416)">
          <path
             d="m 0,0 c -1.09,-0.022 -1.716,-0.576 -1.706,-1.509 0.013,-1.114 0.717,-1.797 1.777,-1.722 1.038,0.073 2.064,0.833 2.121,1.57 C 2.259,-0.778 1.2,0.024 0,0"
             style="fill:#231f20;fill-opacity:1;fill-rule:nonzero;stroke:none"
             id="path18571" />
        </g>
        <g
           id="g18573"
           transform="translate(221.3794,211.1076)">
          <path
             d="M 0,0 C 0.105,-0.97 1.264,-1.892 2.249,-1.674 3.1,-1.487 4.027,-1.227 4.034,-0.081 4.039,0.834 2.908,1.484 1.651,1.347 0.564,1.228 -0.076,0.705 0,0"
             style="fill:#231f20;fill-opacity:1;fill-rule:nonzero;stroke:none"
             id="path18575" />
        </g>
        <g
           id="g18577"
           transform="translate(221.8887,224.7214)">
          <path
             d="m 0,0 c -0.03,-1.152 1.021,-2.142 1.914,-2.133 0.841,0.008 1.575,0.31 1.737,1.241 C 3.795,-0.066 2.829,0.832 1.756,0.727 1.1,0.662 0.481,0.21 0,0"
             style="fill:#231f20;fill-opacity:1;fill-rule:nonzero;stroke:none"
             id="path18579" />
        </g>
        <g
           id="g18581"
           transform="translate(122.3223,237.193)">
          <path
             d="m 0,0 c -0.081,-1.006 0.728,-1.838 1.767,-1.9 1,-0.059 1.929,0.588 1.913,1.334 C 3.662,0.213 2.703,1.042 1.685,1.147 0.762,1.243 0.174,0.862 0,0"
             style="fill:#231f20;fill-opacity:1;fill-rule:nonzero;stroke:none"
             id="path18583" />
        </g>
        <g
           id="g18585"
           transform="translate(224.8985,237.3732)">
          <path
             d="M 0,0 C 0.23,0.276 0.871,0.712 0.995,1.265 1.207,2.216 -0.107,3.196 -1.343,2.982 -1.835,2.897 -2.511,2.394 -2.631,1.953 -2.872,1.063 -1.498,-0.055 0,0"
             style="fill:#231f20;fill-opacity:1;fill-rule:nonzero;stroke:none"
             id="path18587" />
        </g>
        <g
           id="g18589"
           transform="translate(222.0952,279.1965)">
          <path
             d="m 0,0 c 0.073,-1.051 1.478,-2.256 2.521,-2.137 0.771,0.088 1.106,0.594 1.077,1.324 C 3.554,0.282 2.481,1.142 1.25,1.098 0.542,1.072 -0.007,0.849 0,0"
             style="fill:#231f20;fill-opacity:1;fill-rule:nonzero;stroke:none"
             id="path18591" />
        </g>
        <g
           id="g18593"
           transform="translate(221.7622,264.7082)">
          <path
             d="m 0,0 c 0.387,-1.973 0.836,-2.614 1.971,-2.52 0.523,0.043 1.191,0.442 1.445,0.881 0.167,0.289 -0.17,1.033 -0.482,1.406 C 2.354,0.461 1.709,0.463 0,0"
             style="fill:#231f20;fill-opacity:1;fill-rule:nonzero;stroke:none"
             id="path18595" />
        </g>
        <g
           id="g18597"
           transform="translate(122.6719,225.9299)">
          <path
             d="M 0,0 C -0.046,-1.277 0.698,-2.037 1.635,-2.097 2.643,-2.162 3.592,-1.493 3.542,-0.753 3.49,0.017 2.374,0.957 1.448,0.797 0.867,0.696 0.354,0.206 0,0"
             style="fill:#231f20;fill-opacity:1;fill-rule:nonzero;stroke:none"
             id="path18599" />
        </g>
        <g
           id="g18601"
           transform="translate(222.9024,11.4836)">
          <path
             d="m 0,0 c -0.233,-0.201 -0.957,-0.534 -1.156,-1.065 -0.285,-0.759 0.924,-1.761 1.905,-1.664 0.843,0.084 1.593,0.42 1.655,1.407 C 2.452,-0.568 1.511,0.028 0,0"
             style="fill:#231f20;fill-opacity:1;fill-rule:nonzero;stroke:none"
             id="path18603" />
        </g>
        <g
           id="g18605"
           transform="translate(221.8409,253.6159)">
          <path
             d="M 0,0 C -0.038,-1.239 1.078,-2.377 1.991,-2.357 2.752,-2.341 3.432,-2.1 3.516,-1.206 3.601,-0.312 2.509,0.634 1.382,0.553 0.862,0.515 0.365,0.154 0,0"
             style="fill:#231f20;fill-opacity:1;fill-rule:nonzero;stroke:none"
             id="path18607" />
        </g>
        <g
           id="g18609"
           transform="translate(181.4942,52.361)">
          <path
             d="M 0,0 C -2.761,1.795 -6.061,1.839 -9.062,2.854 -6.238,1.264 -3.047,0.865 0,0"
             style="fill:#231f20;fill-opacity:1;fill-rule:nonzero;stroke:none"
             id="path18611" />
        </g>
        <g
           id="g18613"
           transform="translate(151.8711,61.488)">
          <path
             d="m 0,0 c 1.843,-1.702 4.363,-1.541 6.536,-2.332 -1.962,1.419 -4.343,1.663 -6.583,2.3 z"
             style="fill:#231f20;fill-opacity:1;fill-rule:nonzero;stroke:none"
             id="path18615" />
        </g>
        <g
           id="g18617"
           transform="translate(151.8238,61.4557)">
          <path
             d="M 0,0 C -1.889,0.595 -3.777,1.189 -5.667,1.784 -5.712,1.617 -5.757,1.45 -5.803,1.282 -3.886,0.748 -2.096,-0.306 0.04,0.026 0.047,0.032 0,0 0,0"
             style="fill:#231f20;fill-opacity:1;fill-rule:nonzero;stroke:none"
             id="path18619" />
        </g>
        <g
           id="g18621"
           transform="translate(161.897,58.3844)">
          <path
             d="M 0,0 C -0.466,0.132 -0.933,0.265 -1.399,0.397 -1.43,0.294 -1.46,0.191 -1.49,0.088 -1.036,-0.066 -0.583,-0.22 -0.129,-0.375 -0.086,-0.25 -0.043,-0.125 0,0"
             style="fill:#231f20;fill-opacity:1;fill-rule:nonzero;stroke:none"
             id="path18623" />
        </g>
        <g
           id="g18625"
           transform="translate(277.3584,53.3547)">
          <path
             d="m 0,0 c 3.188,-1.798 3.32,-3.702 -0.055,-5.526 -1.723,-0.932 -2.715,-2.473 -4.41,-3.768 2.34,-1.306 4.686,-1.565 6.893,-0.437 2.451,1.254 4.365,3.219 5.308,5.925 1.151,3.303 0.033,6.517 -3.009,8.22 C 3.424,5.143 1.959,5.619 0.521,6.059 -1.39,6.645 -3.073,6.069 -4.626,4.717 -3.391,4.343 -1.959,4.302 -1.198,3.566 -0.47,2.861 -0.437,1.436 0,0"
             style="fill:#ffffff;fill-opacity:1;fill-rule:nonzero;stroke:none"
             id="path18627" />
        </g>
        <g
           id="g18629"
           transform="translate(270.585,55.884)">
          <path
             d="M 0,0 C -3.222,-2.956 -3.418,-7.026 -0.415,-8.644 0.511,-6.98 0.682,-3.419 0,0"
             style="fill:#ffffff;fill-opacity:1;fill-rule:nonzero;stroke:none"
             id="path18631" />
        </g>
        <g
           id="g18633"
           transform="translate(277.8946,50.8351)">
          <path
             d="M 0,0 C -1.722,0.868 -3.051,0.533 -4.331,-0.428 -4.506,-1.4 -4.117,-2.193 -3.249,-2.222 -1.868,-2.268 -0.665,-1.702 0,0"
             style="fill:#ffffff;fill-opacity:1;fill-rule:nonzero;stroke:none"
             id="path18635" />
        </g>
        <g
           id="g18637"
           transform="translate(273.4619,52.7414)">
          <path
             d="M 0,0 C 0.508,0.415 1.154,0.745 1.477,1.272 1.702,1.643 1.597,2.327 1.417,2.784 1.328,3.01 0.661,3.227 0.392,3.116 -0.06,2.931 -0.617,2.543 -0.738,2.126 -0.896,1.585 -0.67,0.933 -0.609,0.328 Z"
             style="fill:#ffffff;fill-opacity:1;fill-rule:nonzero;stroke:none"
             id="path18639" />
        </g>
        <g
           id="g18641"
           transform="translate(93.4761,224.6227)">
          <path
             d="m 0,0 c -0.707,-0.991 -1.191,-1.501 -1.468,-2.106 -0.268,-0.588 -0.323,-1.273 -0.466,-1.895 -1.738,0.027 -1.81,2.861 -3.91,1.562 -0.309,-0.977 -0.664,-2.098 -1.052,-3.328 -0.623,0.029 -1.164,0.107 -1.693,0.061 -0.43,-0.037 -0.847,-0.225 -1.303,-0.356 1.68,-3.127 5.664,-4.581 8.93,-3.145 5.728,2.521 8.264,8.5 3.047,14.753 -0.562,0.673 -1.58,1.179 -2.462,1.336 -4.598,0.817 -9.246,-0.578 -10.908,-6.491 -0.298,-1.063 -0.434,-2.207 -0.42,-3.311 0.015,-1.188 0.93,-1.894 2.074,-1.837 1.094,0.055 1.447,0.74 1.581,1.738 0.285,2.133 0.578,4.271 1.044,6.369 0.126,0.569 0.834,1.33 1.356,1.4 0.501,0.068 1.353,-0.519 1.622,-1.04 C -3.161,2.035 -2.655,0.115 0,0"
             style="fill:#ffffff;fill-opacity:1;fill-rule:nonzero;stroke:none"
             id="path18643" />
        </g>
        <g
           id="g18645"
           transform="translate(123.7515,254.3996)">
          <path
             d="M 0,0 C 0.169,0.24 0.708,0.663 0.737,1.119 0.793,1.988 0.242,2.574 -0.7,2.628 -1.465,2.673 -1.917,2.325 -1.839,1.525 -1.758,0.682 -1.449,-0.008 0,0"
             style="fill:#ffffff;fill-opacity:1;fill-rule:nonzero;stroke:none"
             id="path18647" />
        </g>
        <g
           id="g18649"
           transform="translate(202.5484,291.5129)">
          <path
             d="M 0,0 C 0.108,-1.361 0.337,-2.587 1.323,-3.568 1.911,-4.154 2.53,-4.273 3.251,-3.798 5.351,-2.413 6.065,1.534 4.562,3.5 3.292,5.161 1.705,5.08 0.854,3.2 0.404,2.208 0.274,1.071 0,0"
             style="fill:#ffffff;fill-opacity:1;fill-rule:nonzero;stroke:none"
             id="path18651" />
        </g>
        <g
           id="g18653"
           transform="translate(227.1075,287.3449)">
          <path
             d="M 0,0 C 1.472,0.275 2.231,0.818 2.005,1.828 1.773,2.865 0.795,2.904 -0.468,2.771 -0.309,1.828 -0.167,0.985 0,0"
             style="fill:#ffffff;fill-opacity:1;fill-rule:nonzero;stroke:none"
             id="path18655" />
        </g>
        <g
           id="g18657"
           transform="translate(331.1836,161.4406)">
          <path
             d="m 0,0 c -1.154,0.714 -2.146,1.329 -3.297,2.042 0.573,0.887 1.133,1.557 1.473,2.325 0.509,1.147 1.047,2.334 1.233,3.556 0.205,1.35 -0.671,2.52 -1.574,2.612 -0.915,0.092 -1.842,-0.735 -2.51,-2.459 0.879,0.302 1.547,0.532 2.217,0.762 0.964,-2.012 0.489,-3.305 -2.044,-5.374 -0.521,0.19 -1.095,0.511 -1.699,0.591 -0.682,0.09 -1.439,0.106 -2.079,-0.102 -1.145,-0.372 -1.76,-1.482 -1.519,-2.39 0.253,-0.954 1.305,-1.671 2.494,-1.222 1.908,0.722 3.273,0.23 4.734,-1.033 C -1.372,-1.728 -1.036,-1.531 0,0"
             style="fill:#231f20;fill-opacity:1;fill-rule:nonzero;stroke:none"
             id="path18659" />
        </g>
        <g
           id="g18661"
           transform="translate(340.1631,179.3976)">
          <path
             d="M 0,0 C -0.564,1.283 -1.187,2.701 -1.978,4.496 -2.904,2.736 -1.299,-0.119 -4.712,0.315 -5.034,0.993 -5.384,1.729 -5.909,2.835 -6.22,2.078 -6.512,1.689 -6.515,1.298 c -0.014,-1.739 0.022,-3.482 0.107,-5.219 0.037,-0.752 0.403,-1.593 1.243,-1.421 1.006,0.205 0.981,1.055 0.561,1.892 -0.172,0.346 -0.242,0.743 -0.459,1.443 0.853,0.197 1.613,0.373 2.814,0.651 -0.204,-0.99 -0.414,-1.553 -0.41,-2.115 0.003,-0.559 0.131,-1.164 0.389,-1.65 0.106,-0.199 0.879,-0.316 1.034,-0.159 0.347,0.351 0.612,0.876 0.706,1.368 C -0.305,-2.72 -0.195,-1.507 0,0"
             style="fill:#231f20;fill-opacity:1;fill-rule:nonzero;stroke:none"
             id="path18663" />
        </g>
        <g
           id="g18665"
           transform="translate(361.1494,184.883)">
          <path
             d="m 0,0 h -4.646 c 0.231,-1.913 1.919,-1.297 2.93,-2.123 0.534,-1.762 0.156,-3.689 -0.053,-5.472 -1.065,-1.099 -3.166,0.228 -3.616,-1.987 1.428,-0.639 2.854,-0.536 4.234,-0.375 0.413,0.048 1.053,0.669 1.084,1.066 C 0.15,-5.968 0.525,-3.031 0,0"
             style="fill:#231f20;fill-opacity:1;fill-rule:nonzero;stroke:none"
             id="path18667" />
        </g>
        <g
           id="g18669"
           transform="translate(342.0088,183.8615)">
          <path
             d="m 0,0 c 0,-2.235 0.022,-4.442 -0.008,-6.648 -0.023,-1.781 0.161,-2.144 1.848,-2.478 1.325,-0.263 2.681,-0.418 4.029,-0.493 0.636,-0.035 1.287,0.232 1.931,0.363 0.012,0.167 0.024,0.335 0.037,0.502 -0.441,0.242 -0.856,0.598 -1.326,0.703 -1.088,0.242 -2.198,0.418 -3.307,0.517 -1.21,0.109 -1.69,0.747 -1.62,1.893 0.088,1.426 0.189,2.851 0.293,4.392 0.808,0.284 1.583,0.555 2.461,0.862 C 3.033,0.617 2.093,0.667 0,0"
             style="fill:#231f20;fill-opacity:1;fill-rule:nonzero;stroke:none"
             id="path18671" />
        </g>
        <g
           id="g18673"
           transform="translate(354.8828,184.7536)">
          <path
             d="m 0,0 c -1.852,-0.267 -1.284,-2.625 -2.908,-3.037 -0.777,0.424 -1.632,0.891 -2.447,1.336 -0.893,-1.031 -0.24,-1.584 0.269,-2.012 1.173,-0.988 2.008,-2.033 1.471,-3.694 -0.086,-0.266 -0.015,-0.704 0.163,-0.905 0.228,-0.259 0.629,-0.466 0.972,-0.493 0.221,-0.018 0.684,0.334 0.678,0.508 -0.098,2.747 1.391,5.043 2.08,7.562 C 0.311,-0.616 0.177,-0.451 0,0"
             style="fill:#231f20;fill-opacity:1;fill-rule:nonzero;stroke:none"
             id="path18675" />
        </g>
      </g>
    </g>
  </g>
</svg>
