<?xml version="1.0" encoding="UTF-8" standalone="no"?>
<!-- Created with Inkscape (http://www.inkscape.org/) -->

<svg
   version="1.1"
   id="svg18839"
   width="456.40668"
   height="255.20399"
   viewBox="0 0 456.40668 255.20399"
   xmlns="http://www.w3.org/2000/svg"
   xmlns:svg="http://www.w3.org/2000/svg">
  <defs
     id="defs18843">
    <clipPath
       clipPathUnits="userSpaceOnUse"
       id="clipPath18853">
      <path
         d="M 0,191.403 H 342.305 V 0 H 0 Z"
         id="path18851" />
    </clipPath>
  </defs>
  <g
     id="g18845"
     transform="matrix(1.3333333,0,0,-1.3333333,0,255.204)">
    <g
       id="g18847">
      <g
         id="g18849"
         clip-path="url(#clipPath18853)">
        <g
           id="g18855"
           transform="translate(229.4433,143.0662)">
          <path
             d="M 0,0 C 1.477,1.15 2.093,1.178 3.439,0.289 1.919,-0.645 1.919,-0.645 0,0 M -0.436,2.876 C -0.527,5.484 0.019,6.854 1.299,7.359 2.374,7.782 3.513,7.996 4.475,6.803 0.567,5.415 0.567,5.415 -0.436,2.876 m 84.249,-13.047 c 0.267,-0.301 0.434,-0.468 0.577,-0.653 1.18,-1.54 2.222,-1.579 3.353,-0.105 0.241,0.315 0.385,0.714 0.657,0.991 0.754,0.767 0.685,1.525 0.137,2.364 -0.591,0.904 -1.377,0.992 -2.288,0.626 -1.068,-0.43 -2.096,-0.475 -3.291,0.148 1.313,1.627 2.918,1.92 4.601,1.691 1.679,-0.23 3.4,-2.182 3.565,-3.776 0.169,-1.635 -0.976,-3.231 -2.887,-3.939 -0.669,-0.247 -1.376,-0.404 -2.074,-0.559 -1.774,-0.394 -3.133,0.167 -3.963,1.823 -0.095,0.189 -0.048,0.448 -0.068,0.689 0.225,0.148 0.406,0.311 0.618,0.397 0.289,0.117 0.602,0.175 1.063,0.303 M 10.64,-36.814 c 4.667,1.852 9.3,3.795 14.007,5.54 12.815,4.751 25.665,9.408 38.489,14.133 1.195,0.441 2.343,0.5 3.511,0.104 5.501,-1.868 10.994,-3.759 16.808,-5.75 C 79.021,-24.689 20.044,-36.305 10.64,-36.814 M 34.418,-49.25 c -0.721,0.445 -1.391,1.039 -2.172,1.31 -2.718,0.941 -5.478,1.759 -8.215,2.648 -0.823,0.268 -1.621,0.611 -2.419,1.341 0.64,0 1.288,0.073 1.916,-0.012 5.544,-0.75 11.088,-1.502 16.625,-2.303 9.567,-1.383 19.127,-2.807 28.692,-4.203 4.431,-0.645 8.867,-1.256 13.299,-1.897 1.479,-0.215 3.022,-0.21 4.05,-1.662 0.419,-0.593 1.159,-0.493 1.688,0.039 0.605,0.608 0.919,1.306 0.431,2.156 -0.372,0.647 -0.887,1.465 -1.635,0.998 -1.732,-1.081 -3.433,-0.392 -5.123,-0.17 -13.635,1.784 -27.274,3.537 -40.89,5.457 -7.992,1.127 -15.945,2.536 -23.914,3.83 -0.692,0.113 -1.37,0.307 -2.043,0.826 3.541,0.198 7.08,0.484 10.624,0.577 11.111,0.294 22.224,0.557 33.337,0.749 8.075,0.139 16.153,0.146 24.23,0.211 1.122,0.008 2.21,0.007 3.158,-0.819 0.672,-0.587 1.361,-0.189 1.908,0.352 0.71,0.7 0.896,1.61 0.367,2.395 -0.268,0.398 -1.183,0.779 -1.565,0.614 -3.122,-1.355 -6.448,-1.098 -9.685,-1.224 -7.83,-0.303 -15.668,-0.416 -23.504,-0.547 -12.953,-0.217 -25.907,-0.389 -38.86,-0.576 -0.86,-0.013 -1.719,-0.002 -2.578,-0.002 -0.033,0.199 -0.064,0.397 -0.096,0.597 1.476,0.359 2.94,0.779 4.43,1.07 15.53,3.03 31.059,6.072 46.602,9.041 6.36,1.214 12.75,2.261 19.129,3.372 0.549,0.095 1.217,0.321 1.652,0.113 1.959,-0.932 3.311,0.082 4.642,1.302 -0.728,2.147 -0.729,2.044 -2.888,2.075 -1.252,0.019 -2.531,0.325 -3.74,0.694 -4.281,1.304 -8.541,2.683 -12.802,4.059 -0.486,0.157 -0.92,0.476 -1.814,0.95 4.266,1.817 8.176,3.282 12.312,4.462 0.588,-0.768 1.023,-1.555 1.66,-2.113 0.75,-0.657 1.634,-1.494 2.531,-1.589 2.425,-0.256 4.796,0.256 6.796,1.773 2.092,1.586 2.827,4.023 1.983,6.166 -0.948,2.411 -3.787,4.169 -6.411,3.573 -1.577,-0.359 -3.205,-1.115 -4.453,-2.132 -1.212,-0.987 -2.321,-1.178 -3.729,-0.97 -6.483,0.961 -12.975,1.864 -19.459,2.826 -12.568,1.866 -25.132,3.756 -37.697,5.643 -0.683,0.103 -1.355,0.268 -2.032,0.403 -0.005,0.163 -0.009,0.327 -0.013,0.491 2.006,0.187 4.01,0.486 6.02,0.543 10.706,0.302 21.412,0.626 32.12,0.781 7.989,0.115 15.982,0.004 23.973,-0.056 1.537,-0.012 3.118,0.26 4.38,-1.267 0.73,-0.883 1.777,-0.162 2.48,0.577 0.909,0.956 1.129,2.239 0.5,3.056 C 87.478,7.237 86.632,7.041 85.667,6.546 84.912,6.159 84.051,5.813 83.22,5.768 75.638,5.349 68.055,4.947 60.469,4.648 54.814,4.427 49.155,4.262 43.497,4.252 33.916,4.237 24.333,4.363 14.751,4.44 c -0.369,0.003 -0.737,0.123 -1.455,0.25 1.855,1.539 3.74,2.018 5.663,2.369 2.831,0.515 5.668,1.002 8.508,1.464 17.514,2.858 35.03,5.706 52.546,8.553 0.71,0.115 1.431,0.156 2.141,0.271 0.899,0.143 1.625,0.08 2.394,-0.634 1.055,-0.978 2.056,-0.646 2.911,0.687 0.722,1.126 0.45,2.983 -0.619,3.356 C 86.349,20.927 85.476,20.78 85.121,20.43 83.943,19.262 82.467,19.027 80.975,18.768 67.9,16.496 54.828,14.219 41.75,11.971 37.574,11.253 33.386,10.614 29.201,9.952 28.426,9.83 27.641,9.771 26.86,9.684 26.799,9.832 26.738,9.98 26.677,10.13 c 0.729,0.336 1.488,0.621 2.182,1.018 1.633,0.934 3.734,0.912 5.053,2.476 L 33.95,13.608 C 30.784,12.522 27.611,11.453 24.452,10.347 19.61,8.649 14.701,7.294 9.54,6.98 8.405,6.911 7.636,7.125 6.8,7.961 3.77,10.991 -0.698,9.806 -2.184,5.771 -2.874,3.896 -2.746,2.02 -2.696,0.131 c 0.011,-0.46 0.479,-0.992 0.869,-1.345 2.117,-1.913 5.341,-1.83 7.177,0.743 1.6,2.243 3.2,2.031 5.299,1.364 5.256,-1.668 10.531,-3.281 15.813,-4.864 1.523,-0.456 3.1,-0.734 4.651,-1.093 -4.891,1.887 -9.781,3.775 -14.671,5.663 2.489,0.112 4.929,-0.031 7.344,-0.361 6.249,-0.851 12.49,-1.76 18.727,-2.693 11.528,-1.726 23.052,-3.477 34.574,-5.243 0.901,-0.139 1.769,-0.49 2.604,-0.728 0.036,-1.705 -1.147,-1.917 -2.045,-2.268 -3.718,-1.457 -7.439,-2.916 -11.216,-4.206 -0.974,-0.333 -2.236,-0.313 -3.232,-0.013 -5.349,1.61 -10.645,3.399 -15.984,5.051 -5.259,1.626 -10.546,3.161 -15.82,4.736 3.051,-1.147 6.074,-2.386 9.163,-3.425 6.507,-2.188 13.052,-4.265 19.576,-6.408 0.724,-0.238 1.409,-0.601 2.672,-1.147 -1.489,-0.632 -2.403,-1.073 -3.352,-1.417 -10.138,-3.678 -20.283,-7.335 -30.423,-11.009 -7.211,-2.613 -14.408,-5.259 -21.627,-7.849 -1.551,-0.557 -3.045,-1.262 -4.857,-0.914 -1.634,0.314 -2.227,-1.213 -3.07,-2.365 1.024,-1.379 2.059,-1.961 3.958,-1.977 3.236,-0.028 6.531,-0.561 9.684,-1.35 4.635,-1.16 9.159,-2.755 13.744,-4.121 2.519,-0.75 5.065,-1.411 7.598,-2.111 z"
             style="fill:#231f20;fill-opacity:1;fill-rule:nonzero;stroke:none"
             id="path18857" />
        </g>
        <g
           id="g18859"
           transform="translate(36.2084,140.1599)">
          <path
             d="M 0,0 C -0.253,0.477 -0.451,0.705 -0.478,0.952 -0.494,1.099 -0.185,1.433 -0.119,1.409 0.135,1.318 0.491,1.152 0.539,0.95 0.584,0.758 0.293,0.485 0,0 M -2.709,6.803 C -0.446,8.691 1.02,8.719 2.389,6.873 0.712,4.991 -1.001,6.166 -2.709,6.803 m 84.353,-20.044 c 1.745,1.695 2.151,2.864 1.53,4.043 -0.238,0.452 -0.931,0.96 -1.406,0.949 -6.042,-0.139 -11.933,1.064 -17.846,1.985 -16.198,2.525 -32.382,5.141 -48.569,7.733 -1.642,0.262 -3.27,0.608 -4.903,0.916 l -0.009,0.489 c 0.725,0.082 1.449,0.23 2.174,0.236 7.676,0.061 15.351,0.154 23.027,0.13 C 45.709,3.21 55.777,3.099 65.845,2.989 69.604,2.948 73.361,2.763 77.119,2.745 78.792,2.737 80.29,2.551 81.16,0.966 c 2.067,0.875 2.827,1.974 2.354,3.28 -0.4,1.106 -1.056,1.508 -1.982,0.832 C 80.235,4.134 78.847,4.169 77.413,4.161 66.618,4.099 55.816,4.265 45.03,3.915 35.828,3.616 26.661,4.479 17.472,4.225 16.281,4.191 15.088,4.22 13.896,4.22 c -0.027,0.17 -0.054,0.339 -0.081,0.509 0.884,0.222 1.759,0.494 2.654,0.66 8.727,1.618 17.45,3.257 26.187,4.815 11.179,1.994 22.365,3.942 33.559,5.853 1.843,0.314 3.77,1.089 5.357,-0.362 1.556,0.87 2.222,1.938 1.82,3.492 -0.276,1.067 -1.282,1.532 -1.971,0.718 C 79.729,17.904 77.372,17.771 75.134,17.367 62.702,15.117 50.256,12.942 37.818,10.724 29.081,9.164 20.351,7.56 11.611,6.014 9.813,5.696 7.985,5.552 6.171,5.327 6.12,5.492 6.07,5.657 6.019,5.822 c 2.396,0.978 4.745,2.094 7.195,2.91 19.265,6.416 38.548,12.778 57.828,19.148 3.03,1.001 6.073,1.962 8.948,2.889 0.354,-0.173 0.533,-0.207 0.63,-0.316 0.497,-0.56 0.595,-1.602 1.665,-1.469 1.092,0.137 0.894,1.175 1.187,1.859 0.156,0.364 0.289,0.757 0.332,1.147 0.114,1.026 -0.403,1.52 -1.412,1.338 C 81.925,33.244 81.481,33.032 81.028,32.874 72.65,29.947 64.29,26.966 55.889,24.106 44.233,20.139 32.557,16.227 20.865,12.365 16.083,10.785 11.231,9.415 6.422,7.913 5.49,7.622 4.852,7.727 4.075,8.439 1.18,11.096 -4.176,9.569 -5.297,5.795 -5.868,3.877 -6.259,1.901 -5.719,-0.109 c 0.544,-2.024 1.797,-2.963 3.876,-2.79 2.253,0.187 4.145,1.053 5.201,3.373 2.748,-0.817 5.44,-1.552 8.089,-2.416 5.321,-1.735 10.622,-3.527 15.924,-5.317 5.83,-1.97 11.654,-3.958 17.479,-5.947 8.775,-2.997 17.549,-5.995 26.318,-9.01 2.117,-0.727 4.237,-1.46 6.3,-2.325 0.828,-0.347 1.605,-0.962 2.223,-1.625 0.634,-0.68 1.32,-1.062 2.085,-0.607 0.62,0.367 1.425,1.059 1.446,1.634 0.028,0.744 -0.562,1.573 -1.056,2.239 -0.155,0.21 -0.982,0.189 -1.287,-0.028 -1.08,-0.766 -2.103,-0.474 -3.198,-0.116 -7.672,2.516 -15.375,4.94 -23.022,7.53 -12.419,4.206 -24.805,8.509 -37.199,12.791 -2.395,0.827 -4.758,1.745 -7.135,2.622 0.02,0.172 0.041,0.345 0.062,0.518 0.569,0 1.146,0.065 1.704,-0.011 4.992,-0.677 9.986,-1.343 14.969,-2.084 10.993,-1.636 21.982,-3.304 32.969,-4.981 5.608,-0.857 11.206,-1.778 16.815,-2.627 1.555,-0.235 2.957,-0.587 3.686,-2.197 0.262,-0.579 0.681,-1.086 1.114,-1.758"
             style="fill:#231f20;fill-opacity:1;fill-rule:nonzero;stroke:none"
             id="path18861" />
        </g>
        <g
           id="g18863"
           transform="translate(260.8369,137.9402)">
          <path
             d="m 0,0 c 5.274,-1.575 10.562,-3.11 15.82,-4.736 5.339,-1.652 10.635,-3.441 15.985,-5.051 0.996,-0.3 2.258,-0.32 3.231,0.013 3.777,1.29 7.498,2.749 11.216,4.206 0.898,0.351 2.081,0.563 2.046,2.268 -0.835,0.238 -1.703,0.589 -2.605,0.728 C 34.172,-0.806 22.647,0.945 11.119,2.671 4.883,3.604 -1.358,4.513 -7.607,5.364 -10.022,5.694 -12.463,5.837 -14.951,5.725 -10.062,3.837 -5.172,1.949 -0.28,0.062 -0.229,0.056 -0.136,0.035 0,0"
             style="fill:#ffffff;fill-opacity:1;fill-rule:nonzero;stroke:none"
             id="path18865" />
        </g>
        <g
           id="g18867"
           transform="translate(263.9033,93.8474)">
          <path
             d="m 0,0 c 9.071,-2.821 18.16,-5.584 27.207,-8.479 7.379,-2.362 14.715,-4.86 22.047,-7.363 0.777,-0.264 1.447,-0.924 2.088,-1.489 0.642,-0.567 1.265,-1.024 2.127,-0.553 0.775,0.426 1.115,1.805 0.685,2.805 -0.368,0.855 -0.999,1.736 -1.974,1.248 -1.563,-0.783 -2.959,-0.295 -4.399,0.131 -9.649,2.851 -19.295,5.715 -28.939,8.586 C 13.33,-3.474 7.83,-1.794 2.31,-0.183 1.578,0.03 0.758,-0.063 -0.031,-0.023 -0.042,-0.031 0,0 0,0"
             style="fill:#231f20;fill-opacity:1;fill-rule:nonzero;stroke:none"
             id="path18869" />
        </g>
        <g
           id="g18871"
           transform="translate(331.5058,129.1287)">
          <path
             d="M 0,0 C 1.436,1.223 2.512,2.026 4.288,2.276 4.11,0.958 3.962,-0.15 3.752,-1.707 2.384,-1.084 1.38,-0.628 0,0 M 1.212,6.977 C 1.317,8.52 1.412,9.903 1.521,11.5 0.13,11.165 -1.024,10.887 -2.443,10.545 -1.992,10.075 -1.643,9.794 -1.4,9.438 -1.065,8.947 -0.651,8.431 -0.551,7.874 -0.037,5.024 0.159,4.876 3.054,5.579 3.27,5.631 3.51,5.586 3.712,5.586 4.329,4.861 3.987,4.337 3.408,3.951 2.412,3.286 1.363,2.701 0.355,2.054 -0.179,1.712 -0.727,1.363 -1.172,0.92 -1.687,0.407 -1.801,-0.333 -1.167,-0.757 0.018,-1.551 1.247,-2.35 2.57,-2.849 3.969,-3.376 4.886,-2.753 5.226,-1.278 5.438,-0.35 5.549,0.619 5.567,1.573 5.597,3.152 6.421,4.055 7.803,4.628 8.794,5.039 9.749,5.537 10.8,6.034 10.208,7.5 9.457,7.218 8.613,6.771 7.87,6.377 7.089,6.054 5.975,5.537 v 5.367 C 3.674,10.231 4.092,7.049 1.212,6.977"
             style="fill:#231f20;fill-opacity:1;fill-rule:nonzero;stroke:none"
             id="path18873" />
        </g>
        <g
           id="g18875"
           transform="translate(133.2861,63.8455)">
          <path
             d="M 0,0 C 0.012,0.255 0.025,0.509 0.037,0.764 0.622,1.055 1.206,1.345 1.806,1.644 2.446,0.686 2.457,-0.157 1.672,-0.576 1.318,-0.766 0.569,-0.215 0,0 M 1.698,11.74 C 0.78,10.038 0.087,8.754 -0.605,7.47 -0.792,7.491 -0.979,7.514 -1.167,7.536 -1.381,8.998 -1.596,10.461 -1.87,12.318 -3,10.469 -3.077,6.964 -2.291,5.797 -1.793,5.06 -1.116,4.907 -0.456,5.447 0.146,5.939 0.61,6.601 1.168,7.226 2.554,4.896 2.375,4.11 0.344,2.957 -2.186,1.521 -2.29,-0.326 0.065,-2.018 c 1.472,-1.057 3.145,-0.623 3.233,1.127 0.123,2.44 1.171,3.77 3.378,4.5 0.68,0.225 0.887,0.859 0.312,1.776 C 6.014,5.073 5.01,4.752 3.94,4.41 2.389,6.539 3.639,9.42 1.698,11.74"
             style="fill:#231f20;fill-opacity:1;fill-rule:nonzero;stroke:none"
             id="path18877" />
        </g>
        <g
           id="g18879"
           transform="translate(118.8911,74.8221)">
          <path
             d="m 0,0 c 1.59,0.03 2.806,-0.687 3.126,-2.04 0.502,-2.12 0.195,-4.127 -1.287,-5.821 -0.782,-0.896 -1.801,-1.468 -2.97,-0.944 -1.413,0.633 -3.004,1.082 -3.815,2.62 -0.034,0.066 -0.021,0.157 -0.033,0.235 C -5.394,-3.228 -2.736,-0.052 0,0 M 4.726,-3.637 C 4.764,-1.362 3.82,0.297 2.072,1.026 0.038,1.875 -2.913,1.185 -4.474,-0.638 c -1.392,-1.626 -2.113,-3.556 -1.972,-5.727 0.177,-2.74 2.207,-4.274 4.958,-4.364 4.236,-0.139 5.841,3.851 6.214,7.092"
             style="fill:#231f20;fill-opacity:1;fill-rule:nonzero;stroke:none"
             id="path18881" />
        </g>
        <g
           id="g18883"
           transform="translate(198.8144,103.3074)">
          <path
             d="M 0,0 C 0.99,-0.827 0.99,-0.827 4.586,-1.259 4.153,-2.617 3.732,-3.938 3.308,-5.271 c 1.433,-0.811 1.648,0.734 2.554,1.069 0.933,-0.963 1.348,-2.682 3.035,-2.677 0.923,0.002 1.914,0.195 2.755,0.569 2.059,0.914 2.244,1.281 1.905,3.123 -0.633,-0.544 -1.12,-0.985 -1.629,-1.399 -0.912,-0.742 -1.913,-1.228 -3.081,-0.654 -0.889,0.436 -1.295,1.908 -0.975,3.215 0.38,1.545 0.852,2.04 2.398,2.098 0.737,0.029 1.44,0.108 1.334,0.889 C 11.55,1.356 10.758,1.806 10.228,1.936 9.735,2.056 9.098,1.889 8.612,1.662 7.553,1.167 6.571,0.402 5.36,1.297 5.267,1.366 5.049,1.294 4.896,1.256 3.314,0.854 1.734,0.446 0,0"
             style="fill:#231f20;fill-opacity:1;fill-rule:nonzero;stroke:none"
             id="path18885" />
        </g>
        <g
           id="g18887"
           transform="translate(287.6581,165.1091)">
          <path
             d="m 0,0 c 5.005,1.832 10.003,3.686 15.019,5.488 2.7,0.97 5.432,1.854 8.152,2.773 1.126,0.381 2.167,0.777 3.417,0.064 1.033,-0.59 1.799,0.253 2.248,1.178 0.457,0.94 0.401,1.964 -0.385,2.63 -0.333,0.281 -1.378,0.244 -1.701,-0.066 C 22.958,8.45 17.937,7.402 13.31,5.568 9.097,3.898 4.804,2.43 0.548,0.866 0.268,0.763 0.008,0.602 -0.262,0.467 -0.175,0.311 -0.087,0.155 0,0"
             style="fill:#231f20;fill-opacity:1;fill-rule:nonzero;stroke:none"
             id="path18889" />
        </g>
        <g
           id="g18891"
           transform="translate(219.5136,108.657)">
          <path
             d="m 0,0 c -3.029,0.345 -1.933,3.135 -3.247,4.576 -1.962,-1.071 0.015,-2.7 -1.149,-4.196 -0.051,-0.031 -0.62,-0.318 -1.111,-0.705 -0.955,-0.753 -1.118,-1.87 -0.46,-2.73 0.655,-0.853 2.184,-1.067 3.006,-0.277 C -2.018,-2.426 -1.21,-1.378 0,0"
             style="fill:#231f20;fill-opacity:1;fill-rule:nonzero;stroke:none"
             id="path18893" />
        </g>
        <g
           id="g18895"
           transform="translate(33.3188,46.6267)">
          <path
             d="m 0,0 c -1.063,-0.026 -2.533,-1.633 -2.54,-2.777 -0.009,-1.333 0.953,-2.577 1.982,-2.564 1.26,0.016 2.286,1.46 2.241,3.154 C 1.648,-0.86 0.967,0.023 0,0"
             style="fill:#231f20;fill-opacity:1;fill-rule:nonzero;stroke:none"
             id="path18897" />
        </g>
        <g
           id="g18899"
           transform="translate(32.079,158.3748)">
          <path
             d="M 0,0 C -0.012,-1.492 0.803,-2.802 1.716,-2.758 2.852,-2.703 3.914,-1.095 3.908,0.549 3.904,1.544 3.578,2.275 2.45,2.335 1.062,2.408 0.011,1.396 0,0"
             style="fill:#231f20;fill-opacity:1;fill-rule:nonzero;stroke:none"
             id="path18901" />
        </g>
        <g
           id="g18903"
           transform="translate(30.517,56.7996)">
          <path
             d="m 0,0 c 0.226,-0.35 0.571,-1.153 1.152,-1.712 0.74,-0.711 1.664,-0.504 2.173,0.414 0.296,0.535 0.478,1.178 0.542,1.79 C 4.035,2.117 3.505,3.079 2.546,3.092 1.163,3.11 0.036,1.958 0,0"
             style="fill:#231f20;fill-opacity:1;fill-rule:nonzero;stroke:none"
             id="path18905" />
        </g>
        <g
           id="g18907"
           transform="translate(232.6738,120.2664)">
          <path
             d="m 0,0 c -0.295,0.413 -0.665,1.364 -1.358,1.785 -0.723,0.438 -1.938,-0.775 -2.214,-2.041 -0.084,-0.386 -0.124,-0.796 -0.102,-1.189 0.063,-1.071 0.546,-1.847 1.681,-2.011 0.935,-0.136 1.663,0.555 1.888,1.762 C -0.033,-1.306 -0.052,-0.9 0,0"
             style="fill:#231f20;fill-opacity:1;fill-rule:nonzero;stroke:none"
             id="path18909" />
        </g>
        <g
           id="g18911"
           transform="translate(33.6508,132.9002)">
          <path
             d="m 0,0 c -1.082,0.071 -2.096,-0.979 -2.244,-2.327 -0.115,-1.049 0.792,-2.122 1.937,-2.29 0.972,-0.144 1.761,0.856 1.81,2.294 C 1.548,-1.014 0.933,-0.062 0,0"
             style="fill:#231f20;fill-opacity:1;fill-rule:nonzero;stroke:none"
             id="path18913" />
        </g>
        <g
           id="g18915"
           transform="translate(228.5947,160.325)">
          <path
             d="M 0,0 C -0.044,-1.229 0.665,-2.132 1.686,-2.144 2.704,-2.156 3.755,-0.898 3.763,0.343 3.771,1.491 2.779,2.687 1.835,2.668 0.847,2.648 0.054,1.496 0,0"
             style="fill:#231f20;fill-opacity:1;fill-rule:nonzero;stroke:none"
             id="path18917" />
        </g>
        <g
           id="g18919"
           transform="translate(233.7128,76.1219)">
          <path
             d="M 0,0 C -0.282,0.468 -0.553,1.479 -1.08,1.637 -1.614,1.797 -2.553,1.261 -3.033,0.76 -3.466,0.31 -3.674,-0.499 -3.701,-1.162 c -0.04,-0.976 0.581,-1.63 1.563,-1.784 0.953,-0.15 1.457,0.472 1.754,1.262 C -0.22,-1.247 -0.17,-0.769 0,0"
             style="fill:#231f20;fill-opacity:1;fill-rule:nonzero;stroke:none"
             id="path18921" />
        </g>
        <g
           id="g18923"
           transform="translate(229.3398,132.0437)">
          <path
             d="M 0,0 C 0.038,-1.25 0.807,-2.143 1.789,-2.08 2.915,-2.008 3.68,-0.93 3.632,0.518 3.588,1.861 2.905,2.689 1.911,2.607 0.818,2.517 -0.042,1.344 0,0"
             style="fill:#231f20;fill-opacity:1;fill-rule:nonzero;stroke:none"
             id="path18925" />
        </g>
        <g
           id="g18927"
           transform="translate(30.8256,71.7166)">
          <path
             d="M 0,0 C -0.024,-1.15 0.592,-2.101 1.422,-2.196 2.252,-2.291 2.957,-1.53 3.19,-0.287 3.479,1.249 2.96,2.616 2.041,2.741 0.962,2.888 0.034,1.642 0,0"
             style="fill:#231f20;fill-opacity:1;fill-rule:nonzero;stroke:none"
             id="path18929" />
        </g>
        <g
           id="g18931"
           transform="translate(318.662,19.8699)">
          <path
             d="m 0,0 c -0.155,1.33 -0.078,2.314 -1.204,2.566 -0.817,0.184 -1.9,-0.656 -1.939,-1.714 -0.035,-0.98 0.28,-1.992 0.586,-2.942 0.055,-0.171 1.075,-0.306 1.214,-0.125 C -0.744,-1.437 -0.309,-0.535 0,0"
             style="fill:#231f20;fill-opacity:1;fill-rule:nonzero;stroke:none"
             id="path18933" />
        </g>
        <g
           id="g18935"
           transform="translate(231.9687,91.8992)">
          <path
             d="m 0,0 c -1.444,-0.151 -2.701,-2.711 -1.893,-3.813 0.277,-0.375 0.913,-0.689 1.377,-0.681 1.012,0.017 1.482,0.775 1.714,1.702 0.248,0.988 0.221,1.903 -0.63,2.605 C 0.404,-0.05 0.135,-0.041 0,0"
             style="fill:#231f20;fill-opacity:1;fill-rule:nonzero;stroke:none"
             id="path18937" />
        </g>
        <g
           id="g18939"
           transform="translate(32.8232,99.0183)">
          <path
             d="M 0,0 C 1.898,0.873 2.469,1.976 1.748,3.636 1.556,4.079 1.002,4.684 0.647,4.663 0.114,4.633 -0.554,4.23 -0.875,3.78 -1.636,2.715 -1.308,1.578 0,0"
             style="fill:#231f20;fill-opacity:1;fill-rule:nonzero;stroke:none"
             id="path18941" />
        </g>
        <g
           id="g18943"
           transform="translate(223.662,107.8426)">
          <path
             d="M 0,0 C 1.733,1.174 1.925,2.494 1.646,3.858 1.372,5.2 0.786,6.455 -0.523,7.146 -1.183,7.495 -1.759,7.354 -2.133,6.567 -1.433,5.671 -0.44,4.85 -0.078,3.81 0.279,2.783 0,1.534 0,0"
             style="fill:#231f20;fill-opacity:1;fill-rule:nonzero;stroke:none"
             id="path18945" />
        </g>
        <g
           id="g18947"
           transform="translate(34.5663,116.2849)">
          <path
             d="M 0,0 C -0.584,0.745 -0.925,1.609 -1.5,1.812 -2.368,2.118 -2.916,1.326 -3.202,0.526 -3.546,-0.437 -4.113,-1.471 -3.138,-2.338 -2.803,-2.635 -1.87,-2.83 -1.701,-2.64 -1.062,-1.915 -0.624,-1.014 0,0"
             style="fill:#231f20;fill-opacity:1;fill-rule:nonzero;stroke:none"
             id="path18949" />
        </g>
        <g
           id="g18951"
           transform="translate(210.7685,106.366)">
          <path
             d="M 0,0 C -1.501,2.802 -2.556,3.69 0.298,6.572 -0.055,7.456 -0.633,7.262 -1.213,6.857 -2.576,5.906 -3.198,3.919 -2.71,2.157 -2.301,0.681 -1.628,0.102 0,0"
             style="fill:#231f20;fill-opacity:1;fill-rule:nonzero;stroke:none"
             id="path18953" />
        </g>
        <g
           id="g18955"
           transform="translate(316.6708,32.7615)">
          <path
             d="M 0,0 C 1.692,1.023 2.17,1.99 1.812,3.635 1.601,4.611 0.77,5.03 0.087,4.344 -0.552,3.701 -1.092,2.827 -1.337,1.96 -1.614,0.981 -0.833,0.388 0,0"
             style="fill:#231f20;fill-opacity:1;fill-rule:nonzero;stroke:none"
             id="path18957" />
        </g>
        <g
           id="g18959"
           transform="translate(230.3906,33.7029)">
          <path
             d="M 0,0 C 0.015,-1.744 0.651,-2.648 1.528,-2.609 2.654,-2.56 3.043,-1.668 3.056,-0.796 3.068,0.013 2.76,0.862 2.42,1.616 2.337,1.801 1.381,1.877 1.171,1.664 0.6,1.083 0.213,0.319 0,0"
             style="fill:#231f20;fill-opacity:1;fill-rule:nonzero;stroke:none"
             id="path18961" />
        </g>
        <g
           id="g18963"
           transform="translate(115.2704,57.0222)">
          <path
             d="M 0,0 C -0.033,-0.99 0.588,-1.729 1.484,-1.764 2.698,-1.81 3.622,-0.815 3.637,0.535 3.646,1.446 3.276,2.071 2.332,2.192 1.246,2.331 0.04,1.171 0,0"
             style="fill:#231f20;fill-opacity:1;fill-rule:nonzero;stroke:none"
             id="path18965" />
        </g>
        <g
           id="g18967"
           transform="translate(31.4409,86.7)">
          <path
             d="m 0,0 c 0.125,-0.525 0.168,-1.016 0.356,-1.441 0.437,-0.991 1.545,-1.1 1.984,-0.128 0.342,0.754 0.482,1.68 0.414,2.506 C 2.714,1.432 2.1,1.879 1.744,2.348 1.236,1.933 0.667,1.572 0.248,1.082 0.026,0.821 0.068,0.337 0,0"
             style="fill:#231f20;fill-opacity:1;fill-rule:nonzero;stroke:none"
             id="path18969" />
        </g>
        <g
           id="g18971"
           transform="translate(120.0869,184.0632)">
          <path
             d="m 0,0 c 0.026,1.026 -0.281,1.67 -1.31,1.673 -0.932,0.003 -1.858,-0.86 -1.84,-1.793 0.008,-0.445 0.164,-0.95 0.418,-1.313 0.293,-0.418 0.865,-1.055 1.143,-0.977 0.496,0.139 0.944,0.688 1.257,1.168 C -0.089,-0.871 -0.084,-0.346 0,0"
             style="fill:#231f20;fill-opacity:1;fill-rule:nonzero;stroke:none"
             id="path18973" />
        </g>
        <g
           id="g18975"
           transform="translate(317.0488,65.6619)">
          <path
             d="M 0,0 C -0.826,0.088 -1.762,-0.821 -1.889,-1.836 -2.026,-2.941 -1.435,-4.024 -0.63,-4.137 0.189,-4.252 1.136,-3.34 1.253,-2.322 1.373,-1.28 0.725,-0.077 0,0"
             style="fill:#231f20;fill-opacity:1;fill-rule:nonzero;stroke:none"
             id="path18977" />
        </g>
        <g
           id="g18979"
           transform="translate(115.829,43.4099)">
          <path
             d="M 0,0 C -0.056,-0.859 0.081,-1.634 1.112,-1.769 2.065,-1.894 2.977,-1.054 3.014,-0.102 3.072,1.388 2.581,2.329 1.731,2.359 0.731,2.395 0.017,1.421 0,0"
             style="fill:#231f20;fill-opacity:1;fill-rule:nonzero;stroke:none"
             id="path18981" />
        </g>
        <g
           id="g18983"
           transform="translate(33.4716,30.7058)">
          <path
             d="m 0,0 c -1.604,0.038 -1.75,-0.979 -1.985,-1.896 -0.254,-0.987 0.23,-1.755 0.964,-2.259 0.379,-0.26 1.139,-0.35 1.501,-0.136 0.345,0.203 0.623,0.949 0.534,1.375 C 0.81,-1.935 0.366,-1.003 0,0"
             style="fill:#231f20;fill-opacity:1;fill-rule:nonzero;stroke:none"
             id="path18985" />
        </g>
        <g
           id="g18987"
           transform="translate(229.9931,60.6707)">
          <path
             d="M 0,0 C 0.087,-0.859 0.326,-1.679 1.439,-1.776 2.443,-1.864 3.275,-0.937 3.288,0.24 3.301,1.38 2.61,2.267 1.729,2.244 0.782,2.221 -0.018,1.211 0,0"
             style="fill:#231f20;fill-opacity:1;fill-rule:nonzero;stroke:none"
             id="path18989" />
        </g>
        <g
           id="g18991"
           transform="translate(119.9819,17.9968)">
          <path
             d="m 0,0 c -1.803,-0.112 -2.3,-1.114 -2.509,-2.099 -0.119,-0.561 0.282,-1.338 0.664,-1.86 0.199,-0.27 1.08,-0.421 1.276,-0.233 0.392,0.377 0.678,1.009 0.73,1.562 C 0.237,-1.808 0.072,-0.963 0,0"
             style="fill:#231f20;fill-opacity:1;fill-rule:nonzero;stroke:none"
             id="path18993" />
        </g>
        <g
           id="g18995"
           transform="translate(231.666,46.0007)">
          <path
             d="M 0,0 C 1.275,0.015 2.146,1.12 2.155,2.251 2.163,3.042 1.861,3.678 0.988,3.774 0.061,3.878 -1.207,2.569 -1.005,1.536 -0.882,0.907 -0.26,0.375 0,0"
             style="fill:#231f20;fill-opacity:1;fill-rule:nonzero;stroke:none"
             id="path18997" />
        </g>
        <g
           id="g18999"
           transform="translate(117.2328,83.6082)">
          <path
             d="M 0,0 C 0.998,0.669 1.388,1.669 1.294,2.811 1.255,3.28 0.812,4.105 0.59,4.094 0.056,4.063 -0.621,3.762 -0.943,3.342 -1.796,2.232 -1.457,1.164 0,0"
             style="fill:#231f20;fill-opacity:1;fill-rule:nonzero;stroke:none"
             id="path19001" />
        </g>
        <g
           id="g19003"
           transform="translate(314.8281,191.4002)">
          <path
             d="m 0,0 c -0.827,0.06 -1.865,-1.105 -1.894,-2.158 -0.023,-0.857 0.233,-1.595 1.261,-1.672 0.891,-0.067 1.467,0.664 1.597,1.976 C 1.046,-1.011 0.948,-0.259 0,0"
             style="fill:#231f20;fill-opacity:1;fill-rule:nonzero;stroke:none"
             id="path19005" />
        </g>
        <g
           id="g19007"
           transform="translate(263.3554,156.6902)">
          <path
             d="M 0,0 C 0.624,0.042 1.299,-0.057 1.863,0.149 5.279,1.394 8.67,2.707 11.951,4.413 11.374,4.252 10.779,4.137 10.223,3.923 6.831,2.618 3.447,1.291 0.05,-0.021 0.038,-0.016 0,0 0,0"
             style="fill:#231f20;fill-opacity:1;fill-rule:nonzero;stroke:none"
             id="path19009" />
        </g>
        <g
           id="g19011"
           transform="translate(118.6386,31.2654)">
          <path
             d="m 0,0 c -1.39,-0.238 -2.009,-1.026 -2.066,-2.154 -0.024,-0.461 0.308,-1.269 0.617,-1.343 0.498,-0.121 1.321,0.056 1.636,0.424 C 0.987,-2.141 1.011,-1.067 0,0"
             style="fill:#231f20;fill-opacity:1;fill-rule:nonzero;stroke:none"
             id="path19013" />
        </g>
        <g
           id="g19015"
           transform="translate(318.0927,50.2361)">
          <path
             d="M 0,0 C -0.215,0.221 -0.582,0.909 -1.107,1.064 -1.9,1.3 -2.731,0.073 -2.71,-1.128 -2.697,-1.875 -2.547,-2.595 -1.613,-2.646 -0.701,-2.695 0.054,-1.623 0,0"
             style="fill:#231f20;fill-opacity:1;fill-rule:nonzero;stroke:none"
             id="path19017" />
        </g>
        <g
           id="g19019"
           transform="translate(117.8915,98.2332)">
          <path
             d="M 0,0 C 0.575,1.288 1.08,2.236 1.394,3.243 1.481,3.525 1.082,4.103 0.756,4.316 0.55,4.451 -0.007,4.259 -0.28,4.049 -1.584,3.042 -1.583,1.672 0,0"
             style="fill:#231f20;fill-opacity:1;fill-rule:nonzero;stroke:none"
             id="path19021" />
        </g>
        <g
           id="g19023"
           transform="translate(317.4169,3.5027)">
          <path
             d="M 0,0 C 1.094,-0.072 1.831,0.911 1.932,2.021 1.999,2.763 1.752,3.251 0.981,3.354 0.161,3.464 -0.829,2.533 -0.74,1.54 -0.687,0.952 -0.206,0.403 0,0"
             style="fill:#231f20;fill-opacity:1;fill-rule:nonzero;stroke:none"
             id="path19025" />
        </g>
        <g
           id="g19027"
           transform="translate(119.3652,3.4578)">
          <path
             d="m 0,0 c -1.178,-0.138 -1.838,-1.238 -1.75,-2.292 0.063,-0.75 0.443,-1.178 1.213,-1.166 0.828,0.013 1.745,0.967 1.524,1.766 C 0.806,-1.032 0.285,-0.467 0,0"
             style="fill:#231f20;fill-opacity:1;fill-rule:nonzero;stroke:none"
             id="path19029" />
        </g>
        <g
           id="g19031"
           transform="translate(284.83,164.5183)">
          <path
             d="M 0,0 C -0.447,-0.057 -0.91,-0.061 -1.337,-0.186 -1.684,-0.287 -1.987,-0.533 -2.584,-0.869 -1.296,-1.229 -0.678,-0.559 0,0"
             style="fill:#231f20;fill-opacity:1;fill-rule:nonzero;stroke:none"
             id="path19033" />
        </g>
        <g
           id="g19035"
           transform="translate(217.0126,113.992)">
          <path
             d="M 0,0 C 0.38,0.509 0.622,0.831 0.863,1.154 0.522,1.405 0.207,1.771 -0.171,1.856 -0.354,1.898 -0.895,1.358 -0.854,1.178 -0.771,0.813 -0.399,0.516 0,0"
             style="fill:#231f20;fill-opacity:1;fill-rule:nonzero;stroke:none"
             id="path19037" />
        </g>
        <g
           id="g19039"
           transform="translate(279.9824,162.324)">
          <path
             d="M 0,0 C 0.29,0.193 0.58,0.387 0.871,0.58 L -0.219,0.407 C -0.146,0.271 -0.073,0.136 0,0"
             style="fill:#231f20;fill-opacity:1;fill-rule:nonzero;stroke:none"
             id="path19041" />
        </g>
        <g
           id="g19043"
           transform="translate(240.0829,106.2517)">
          <path
             d="m 0,0 c 9.404,0.51 68.382,12.125 72.815,14.027 -5.814,1.992 -11.306,3.882 -16.807,5.75 -1.168,0.397 -2.317,0.337 -3.512,-0.103 C 39.672,14.948 26.822,10.291 14.008,5.54 9.301,3.796 4.667,1.853 0,0"
             style="fill:#ffffff;fill-opacity:1;fill-rule:nonzero;stroke:none"
             id="path19045" />
        </g>
        <g
           id="g19047"
           transform="translate(313.2568,132.8953)">
          <path
             d="m 0,0 c -0.462,-0.128 -0.774,-0.187 -1.063,-0.303 -0.212,-0.086 -0.393,-0.249 -0.619,-0.397 0.021,-0.241 -0.026,-0.5 0.069,-0.689 0.83,-1.656 2.188,-2.217 3.963,-1.823 0.698,0.155 1.405,0.312 2.074,0.559 1.911,0.708 3.055,2.304 2.887,3.939 C 7.146,2.88 5.425,4.832 3.745,5.062 2.063,5.291 0.458,4.998 -0.855,3.371 0.34,2.748 1.367,2.793 2.436,3.223 3.347,3.589 4.133,3.501 4.724,2.597 5.271,1.758 5.341,1 4.587,0.233 4.314,-0.044 4.171,-0.443 3.93,-0.758 2.799,-2.232 1.757,-2.193 0.576,-0.653 0.434,-0.468 0.267,-0.301 0,0"
             style="fill:#ffffff;fill-opacity:1;fill-rule:nonzero;stroke:none"
             id="path19049" />
        </g>
        <g
           id="g19051"
           transform="translate(229.0078,145.9422)">
          <path
             d="M 0,0 C 1.003,2.539 1.003,2.539 4.91,3.927 3.948,5.12 2.81,4.906 1.734,4.483 0.454,3.979 -0.092,2.608 0,0"
             style="fill:#ffffff;fill-opacity:1;fill-rule:nonzero;stroke:none"
             id="path19053" />
        </g>
        <g
           id="g19055"
           transform="translate(229.4433,143.0662)">
          <path
             d="M 0,0 C 1.919,-0.645 1.919,-0.645 3.439,0.289 2.093,1.178 1.477,1.15 0,0"
             style="fill:#ffffff;fill-opacity:1;fill-rule:nonzero;stroke:none"
             id="path19057" />
        </g>
        <g
           id="g19059"
           transform="translate(33.499,146.9627)">
          <path
             d="M 0,0 C 1.708,-0.637 3.422,-1.812 5.099,0.07 3.729,1.916 2.264,1.889 0,0"
             style="fill:#ffffff;fill-opacity:1;fill-rule:nonzero;stroke:none"
             id="path19061" />
        </g>
        <g
           id="g19063"
           transform="translate(36.2084,140.1599)">
          <path
             d="M 0,0 C 0.293,0.485 0.584,0.758 0.539,0.95 0.491,1.152 0.135,1.318 -0.119,1.409 -0.185,1.433 -0.494,1.099 -0.478,0.952 -0.451,0.705 -0.253,0.477 0,0"
             style="fill:#ffffff;fill-opacity:1;fill-rule:nonzero;stroke:none"
             id="path19065" />
        </g>
        <g
           id="g19067"
           transform="translate(331.5058,129.1287)">
          <path
             d="M 0,0 C 1.38,-0.628 2.384,-1.084 3.752,-1.707 3.962,-0.15 4.11,0.958 4.288,2.276 2.512,2.026 1.436,1.223 0,0"
             style="fill:#ffffff;fill-opacity:1;fill-rule:nonzero;stroke:none"
             id="path19069" />
        </g>
        <g
           id="g19071"
           transform="translate(133.2861,63.8455)">
          <path
             d="M 0,0 C 0.569,-0.215 1.318,-0.766 1.672,-0.576 2.457,-0.157 2.446,0.686 1.806,1.644 1.206,1.345 0.622,1.055 0.037,0.764 0.025,0.509 0.012,0.255 0,0"
             style="fill:#ffffff;fill-opacity:1;fill-rule:nonzero;stroke:none"
             id="path19073" />
        </g>
        <g
           id="g19075"
           transform="translate(119.2358,71.8787)">
          <path
             d="m 0,0 c 0.012,-1.905 -0.639,-2.92 -1.888,-3.184 -0.439,-0.092 -1.177,0.094 -1.421,0.42 -0.727,0.976 -0.174,1.948 0.317,2.868 0.037,0.069 0.065,0.163 0.125,0.198 0.64,0.377 1.337,1.091 1.914,1.005 C -0.478,1.236 -0.143,0.216 0,0 m -0.345,2.943 c -2.736,-0.051 -5.393,-3.227 -4.978,-5.95 0.011,-0.078 -0.002,-0.169 0.032,-0.234 0.811,-1.538 2.402,-1.988 3.815,-2.62 1.169,-0.525 2.188,0.048 2.971,0.943 1.481,1.694 1.788,3.701 1.286,5.821 -0.32,1.354 -1.535,2.071 -3.126,2.04"
             style="fill:#ffffff;fill-opacity:1;fill-rule:nonzero;stroke:none"
             id="path19077" />
        </g>
        <g
           id="g19079"
           transform="translate(119.2358,71.8787)">
          <path
             d="M 0,0 C -0.143,0.216 -0.478,1.236 -0.953,1.307 -1.53,1.393 -2.227,0.679 -2.867,0.302 -2.927,0.267 -2.955,0.173 -2.992,0.104 -3.483,-0.816 -4.036,-1.788 -3.309,-2.764 -3.065,-3.09 -2.327,-3.276 -1.888,-3.184 -0.639,-2.92 0.012,-1.905 0,0"
             style="fill:#231f20;fill-opacity:1;fill-rule:nonzero;stroke:none"
             id="path19081" />
        </g>
        <g
           id="g19083"
           transform="translate(3.9643,141.9334)">
          <path
             d="m 0,0 c -0.401,-1.582 -0.771,-3.037 -1.206,-4.756 0.956,0.146 1.546,0.235 2.133,0.325 2.484,-2.203 3.782,-2.233 6.445,-0.143 0.565,0.443 1.185,0.844 1.648,1.378 0.225,0.259 0.147,0.782 0.205,1.186 C 8.866,-2.042 8.42,-1.949 8.163,-2.128 7.188,-2.807 6.355,-3.728 5.319,-4.271 3.831,-5.051 2.345,-3.964 2.444,-2.326 2.511,-1.22 3.292,-0.387 4.593,-0.17 5.376,-0.04 6.259,-0.166 6.334,1.122 4.819,2.336 3.373,1.102 1.763,0.851 1.014,1.913 0.11,2.516 -1.348,1.743 -2.031,1.382 -3,1.56 -3.964,1.482 -3.251,-0.419 -1.649,0.416 0,0"
             style="fill:#231f20;fill-opacity:1;fill-rule:nonzero;stroke:none"
             id="path19085" />
        </g>
        <g
           id="g19087"
           transform="translate(14.7817,148.0408)">
          <path
             d="m 0,0 c -1.785,1.363 -1.875,1.646 -1.084,3.594 0.347,0.854 0.756,1.683 1.229,2.727 -0.538,0.043 -0.968,0.197 -1.079,0.07 C -2.413,4.702 -3.141,2.71 -2.814,0.484 -2.732,-0.072 -2.04,-0.698 -1.473,-0.98 -0.864,-1.284 -0.254,-0.925 0,0"
             style="fill:#231f20;fill-opacity:1;fill-rule:nonzero;stroke:none"
             id="path19089" />
        </g>
        <g
           id="g19091"
           transform="translate(22.7573,154.6463)">
          <path
             d="M 0,0 C 1.871,-2.669 1.871,-2.669 2.152,-6.309 3.834,-5.382 4.19,-3.939 3.28,-1.733 2.558,0.02 1.713,0.511 0,0"
             style="fill:#231f20;fill-opacity:1;fill-rule:nonzero;stroke:none"
             id="path19093" />
        </g>
        <g
           id="g19095"
           transform="translate(18.8798,148.3298)">
          <path
             d="m 0,0 c -0.286,1.514 -0.492,2.604 -0.718,3.8 -1.243,-1.553 -1.385,-3.545 -0.277,-4.498 0.465,-0.4 1.381,-0.709 1.89,-0.52 0.728,0.273 1.381,0.962 1.852,1.625 C 3.082,0.879 2.396,1.462 1.773,1.195 1.294,0.991 0.89,0.612 0,0"
             style="fill:#231f20;fill-opacity:1;fill-rule:nonzero;stroke:none"
             id="path19097" />
        </g>
        <g
           id="g19099"
           transform="translate(19.7075,153.9197)">
          <path
             d="M 0,0 C -0.518,0.808 -1.104,0.808 -1.667,0.16 -1.794,0.013 -1.742,-0.542 -1.598,-0.631 -0.834,-1.108 -0.347,-0.726 0,0"
             style="fill:#231f20;fill-opacity:1;fill-rule:nonzero;stroke:none"
             id="path19101" />
        </g>
        <g
           id="g19103"
           transform="translate(198.9648,142.9343)">
          <path
             d="m 0,0 c -0.401,-1.582 -0.771,-3.038 -1.207,-4.756 0.956,0.146 1.547,0.235 2.134,0.324 2.483,-2.203 3.782,-2.232 6.445,-0.142 0.565,0.443 1.185,0.843 1.648,1.377 0.224,0.259 0.146,0.783 0.205,1.187 -0.36,-0.032 -0.805,0.061 -1.063,-0.119 -0.975,-0.679 -1.808,-1.6 -2.844,-2.142 -1.487,-0.78 -2.973,0.306 -2.875,1.945 0.068,1.105 0.848,1.939 2.15,2.156 0.782,0.13 1.666,0.003 1.741,1.292 C 4.818,2.335 3.373,1.101 1.763,0.85 1.014,1.913 0.109,2.515 -1.349,1.743 -2.031,1.381 -3,1.56 -3.965,1.482 -3.252,-0.419 -1.649,0.416 0,0"
             style="fill:#231f20;fill-opacity:1;fill-rule:nonzero;stroke:none"
             id="path19105" />
        </g>
        <g
           id="g19107"
           transform="translate(209.7822,149.0408)">
          <path
             d="m 0,0 c -1.785,1.364 -1.875,1.646 -1.084,3.595 0.347,0.854 0.755,1.682 1.229,2.727 -0.538,0.043 -0.968,0.196 -1.08,0.069 C -2.413,4.702 -3.142,2.71 -2.814,0.485 -2.732,-0.071 -2.04,-0.697 -1.473,-0.98 -0.864,-1.283 -0.255,-0.924 0,0"
             style="fill:#231f20;fill-opacity:1;fill-rule:nonzero;stroke:none"
             id="path19109" />
        </g>
        <g
           id="g19111"
           transform="translate(217.7578,155.6472)">
          <path
             d="m 0,0 c 1.871,-2.669 1.871,-2.669 2.151,-6.309 1.683,0.926 2.038,2.37 1.129,4.576 C 2.558,0.02 1.713,0.51 0,0"
             style="fill:#231f20;fill-opacity:1;fill-rule:nonzero;stroke:none"
             id="path19113" />
        </g>
        <g
           id="g19115"
           transform="translate(213.8798,149.3298)">
          <path
             d="m 0,0 c -0.286,1.515 -0.491,2.604 -0.718,3.801 -1.244,-1.554 -1.385,-3.546 -0.277,-4.498 0.465,-0.4 1.382,-0.71 1.891,-0.52 0.726,0.272 1.38,0.961 1.851,1.624 C 3.082,0.88 2.396,1.462 1.773,1.196 1.295,0.991 0.89,0.613 0,0"
             style="fill:#231f20;fill-opacity:1;fill-rule:nonzero;stroke:none"
             id="path19117" />
        </g>
        <g
           id="g19119"
           transform="translate(214.7079,154.9207)">
          <path
             d="M 0,0 C -0.519,0.808 -1.104,0.808 -1.667,0.16 -1.795,0.013 -1.742,-0.542 -1.599,-0.632 -0.835,-1.109 -0.347,-0.727 0,0"
             style="fill:#231f20;fill-opacity:1;fill-rule:nonzero;stroke:none"
             id="path19121" />
        </g>
      </g>
    </g>
  </g>
</svg>
