<?xml version="1.0" encoding="UTF-8" standalone="no"?>
<!DOCTYPE svg PUBLIC "-//W3C//DTD SVG 1.1//EN" "http://www.w3.org/Graphics/SVG/1.1/DTD/svg11.dtd">
<svg width="100%" height="100%" viewBox="0 0 752 345" version="1.1" xmlns="http://www.w3.org/2000/svg" xmlns:xlink="http://www.w3.org/1999/xlink" xml:space="preserve" xmlns:serif="http://www.serif.com/" style="fill-rule:evenodd;clip-rule:evenodd;stroke-linejoin:round;stroke-miterlimit:2;">
    <g transform="matrix(0.1,0,0,-0.1,-0.133363,355)">
        <path d="M797,3515C783,3485 782,3480 795,3480C808,3480 810,3295 810,1943L810,407L1313,413C1589,417 2996,421 4440,422L7065,423L3951,432C2238,436 836,441 835,443C834,444 830,1130 827,1967L820,3488L841,3483C861,3478 861,3478 839,3514C828,3534 817,3550 816,3550C815,3550 806,3534 797,3515Z" style="fill-rule:nonzero;"/>
        <path d="M157,3523C136,3517 114,3477 105,3425C95,3370 83,3350 65,3356C57,3360 38,3359 24,3356C5,3351 -1,3344 2,3327C5,3302 52,3291 74,3309C84,3317 96,3317 114,3310C155,3295 185,3298 205,3320C229,3346 216,3359 190,3335C174,3320 164,3319 138,3327C117,3333 106,3342 109,3351C111,3359 119,3389 126,3418C140,3479 155,3500 181,3500C208,3500 214,3481 194,3459C171,3434 184,3422 210,3445C236,3469 235,3495 208,3514C196,3523 183,3529 180,3529C177,3528 167,3526 157,3523Z" style="fill-rule:nonzero;"/>
        <path d="M604,3480C624,3449 626,3311 608,3290C597,3278 598,3278 612,3289C648,3316 646,3440 608,3482L588,3505L604,3480Z" style="fill-rule:nonzero;"/>
        <path d="M280,3471C264,3440 267,3317 285,3294C299,3276 299,3277 290,3303C277,3339 277,3431 290,3464C301,3494 295,3498 280,3471Z" style="fill-rule:nonzero;"/>
        <path d="M340,3481C340,3476 344,3469 349,3466C354,3462 364,3428 371,3390C378,3349 388,3321 394,3323C400,3325 416,3355 429,3389C456,3458 462,3455 475,3366C479,3341 486,3320 491,3320C496,3320 517,3353 537,3393C585,3485 583,3480 573,3480C568,3480 551,3453 535,3420C503,3354 495,3356 485,3432C481,3458 473,3480 467,3480C460,3480 444,3453 430,3421C416,3388 404,3363 401,3365C399,3368 392,3395 386,3427C378,3468 369,3486 357,3488C348,3490 340,3487 340,3481Z" style="fill-rule:nonzero;"/>
        <path d="M5920,3056C5920,2959 5863,2186 5835,1895C5826,1807 5808,1645 5794,1535C5740,1102 5706,978 5654,1021C5600,1065 5526,1620 5461,2460C5431,2840 5431,2837 5463,2887C5478,2911 5485,2932 5480,2935C5475,2938 5462,2927 5452,2910L5433,2880L5427,2947C5423,2985 5420,3036 5420,3061C5420,3089 5414,3112 5406,3119C5389,3133 5404,3155 5247,2889C4944,2376 4698,2042 4385,1721C3994,1320 3560,1060 3188,1004C3088,989 3050,992 2985,1017C2970,1022 2968,1020 2973,1006C2979,991 2975,989 2932,995C2781,1016 2665,1065 2530,1166C2334,1314 2157,1532 1945,1890C1809,2119 1581,2613 1429,3008C1389,3111 1370,3143 1370,3105C1370,3064 1568,2584 1713,2272C1916,1836 2144,1493 2386,1260C2532,1119 2648,1042 2797,988C2878,959 3084,952 3193,974C3300,996 3517,1069 3623,1118C3977,1283 4351,1603 4709,2050C4890,2276 5092,2574 5280,2893L5385,3071L5397,2953C5403,2888 5409,2796 5409,2748C5410,2699 5417,2621 5425,2573C5433,2524 5446,2377 5455,2245C5483,1825 5546,1293 5590,1122C5613,1032 5649,956 5673,952C5692,948 5728,1017 5750,1099C5756,1121 5767,1140 5774,1140C5784,1140 5786,1151 5783,1184C5780,1208 5789,1296 5803,1381C5817,1466 5831,1578 5835,1630C5838,1682 5852,1826 5865,1950C5878,2074 5900,2348 5915,2560C5937,2889 5945,2985 5962,3125C5964,3139 5958,3146 5943,3148C5921,3151 5920,3149 5920,3056Z" style="fill-rule:nonzero;"/>
        <path d="M5552,3063C5526,3027 5524,3016 5545,3024C5553,3027 5560,3025 5560,3020C5560,3014 5567,3010 5575,3010C5591,3010 5594,3041 5581,3074C5574,3091 5572,3090 5552,3063Z" style="fill-rule:nonzero;"/>
        <path d="M1540,3053C1540,3031 1557,3004 1565,3012C1573,3020 1560,3070 1549,3070C1544,3070 1540,3062 1540,3053Z" style="fill-rule:nonzero;"/>
        <path d="M6080,3035C6080,3016 6085,3000 6090,3000C6096,3000 6100,3016 6100,3035C6100,3054 6096,3070 6090,3070C6085,3070 6080,3054 6080,3035Z" style="fill-rule:nonzero;"/>
        <path d="M1600,2898C1600,2876 1634,2790 1642,2790C1655,2790 1651,2816 1630,2864C1611,2910 1600,2922 1600,2898Z" style="fill-rule:nonzero;"/>
        <path d="M5579,2896C5569,2886 5583,2780 5593,2780C5601,2780 5604,2799 5602,2840C5599,2893 5592,2909 5579,2896Z" style="fill-rule:nonzero;"/>
        <path d="M6070,2853C6070,2832 6067,2805 6064,2793C6059,2776 6062,2770 6074,2770C6087,2770 6090,2781 6090,2830C6090,2863 6086,2890 6080,2890C6075,2890 6070,2873 6070,2853Z" style="fill-rule:nonzero;"/>
        <path d="M5334,2715C5307,2669 5309,2638 5337,2675C5365,2713 5380,2749 5371,2755C5365,2758 5349,2740 5334,2715Z" style="fill-rule:nonzero;"/>
        <path d="M1700,2630C1711,2602 1720,2577 1720,2575C1720,2572 1726,2570 1734,2570C1745,2570 1744,2581 1727,2625C1715,2655 1699,2680 1693,2680C1684,2680 1686,2666 1700,2630Z" style="fill-rule:nonzero;"/>
        <path d="M5594,2629C5597,2612 5600,2585 5600,2569C5600,2553 5605,2540 5610,2540C5616,2540 5620,2567 5620,2600C5620,2649 5617,2660 5604,2660C5591,2660 5589,2653 5594,2629Z" style="fill-rule:nonzero;"/>
        <path d="M6057,2643C6047,2633 6049,2530 6059,2530C6066,2530 6080,2599 6080,2636C6080,2651 6068,2654 6057,2643Z" style="fill-rule:nonzero;"/>
        <path d="M5227,2534C5197,2484 5196,2480 5210,2480C5225,2480 5273,2561 5263,2571C5258,2576 5242,2559 5227,2534Z" style="fill-rule:nonzero;"/>
        <path d="M1780,2450C1780,2434 1823,2350 1832,2350C1844,2350 1842,2364 1820,2414C1801,2456 1780,2475 1780,2450Z" style="fill-rule:nonzero;"/>
        <path d="M5613,2394C5617,2372 5620,2345 5620,2333C5620,2320 5625,2310 5630,2310C5647,2310 5638,2422 5621,2428C5610,2432 5608,2425 5613,2394Z" style="fill-rule:nonzero;"/>
        <path d="M6040,2391C6040,2375 6037,2348 6034,2331C6029,2307 6031,2300 6044,2300C6057,2300 6060,2311 6060,2360C6060,2393 6056,2420 6050,2420C6045,2420 6040,2407 6040,2391Z" style="fill-rule:nonzero;"/>
        <path d="M5106,2350C5085,2320 5075,2298 5081,2294C5087,2291 5092,2290 5094,2291C5095,2293 5107,2311 5121,2330C5158,2381 5161,2388 5151,2394C5146,2397 5126,2378 5106,2350Z" style="fill-rule:nonzero;"/>
        <path d="M1880,2229C1880,2210 1932,2130 1941,2136C1952,2142 1904,2240 1890,2240C1884,2240 1880,2235 1880,2229Z" style="fill-rule:nonzero;"/>
        <path d="M4961,2154C4921,2099 4930,2081 4972,2130C5014,2179 5024,2200 5007,2200C5000,2200 4979,2179 4961,2154Z" style="fill-rule:nonzero;"/>
        <path d="M5637,2133C5643,2070 5645,2066 5657,2073C5671,2082 5660,2190 5645,2190C5635,2190 5633,2177 5637,2133Z" style="fill-rule:nonzero;"/>
        <path d="M6020,2120C6020,2087 6024,2060 6030,2060C6036,2060 6040,2077 6040,2098C6040,2118 6043,2145 6046,2158C6051,2174 6048,2180 6036,2180C6023,2180 6020,2169 6020,2120Z" style="fill-rule:nonzero;"/>
        <path d="M1990,2025C1990,2010 2042,1920 2050,1920C2064,1920 2063,1925 2035,1980C2021,2008 2005,2030 2000,2030C1994,2030 1990,2028 1990,2025Z" style="fill-rule:nonzero;"/>
        <path d="M4815,1974C4781,1933 4773,1908 4799,1924C4820,1937 4870,2009 4861,2014C4856,2017 4835,1999 4815,1974Z" style="fill-rule:nonzero;"/>
        <path d="M5660,1906C5660,1858 5672,1829 5686,1843C5694,1850 5678,1960 5669,1960C5664,1960 5660,1936 5660,1906Z" style="fill-rule:nonzero;"/>
        <path d="M6007,1944C5997,1934 5998,1830 6009,1830C6020,1830 6032,1932 6022,1942C6017,1947 6011,1947 6007,1944Z" style="fill-rule:nonzero;"/>
        <path d="M2691,1926C2684,1918 2681,1902 2685,1890C2689,1879 2687,1870 2681,1870C2675,1870 2670,1859 2670,1845C2670,1814 2708,1796 2744,1810C2789,1827 2784,1840 2736,1834C2697,1828 2690,1830 2690,1844C2690,1854 2701,1863 2720,1867C2754,1873 2761,1890 2730,1890C2718,1890 2710,1897 2710,1906C2710,1920 2717,1922 2751,1917C2779,1913 2790,1915 2787,1923C2781,1942 2705,1944 2691,1926Z" style="fill-rule:nonzero;"/>
        <path d="M4001,1926C3994,1918 3991,1902 3995,1890C3999,1879 3997,1870 3991,1870C3985,1870 3980,1859 3980,1845C3980,1814 4018,1796 4054,1810C4099,1827 4094,1840 4046,1834C4007,1828 4000,1830 4000,1844C4000,1854 4011,1863 4030,1867C4064,1873 4071,1890 4040,1890C4028,1890 4020,1897 4020,1906C4020,1920 4027,1922 4061,1917C4089,1913 4100,1915 4097,1923C4091,1942 4015,1944 4001,1926Z" style="fill-rule:nonzero;"/>
        <path d="M3870,1890C3870,1877 3863,1870 3850,1870C3839,1870 3830,1866 3830,1860C3830,1855 3839,1850 3850,1850C3863,1850 3870,1843 3870,1830C3870,1819 3875,1810 3880,1810C3886,1810 3890,1819 3890,1830C3890,1843 3897,1850 3910,1850C3921,1850 3930,1855 3930,1860C3930,1866 3921,1870 3910,1870C3897,1870 3890,1877 3890,1890C3890,1901 3886,1910 3880,1910C3875,1910 3870,1901 3870,1890Z" style="fill-rule:nonzero;"/>
        <path d="M2530,1880C2530,1875 2548,1870 2570,1870C2592,1870 2610,1875 2610,1880C2610,1886 2592,1890 2570,1890C2548,1890 2530,1886 2530,1880Z" style="fill-rule:nonzero;"/>
        <path d="M2116,1822C2108,1809 2161,1721 2178,1720C2196,1720 2194,1725 2156,1781C2137,1809 2119,1827 2116,1822Z" style="fill-rule:nonzero;"/>
        <path d="M4655,1790C4634,1768 4619,1747 4623,1743C4631,1736 4710,1808 4710,1822C4710,1839 4693,1829 4655,1790Z" style="fill-rule:nonzero;"/>
        <path d="M2563,1712C2545,1703 2530,1694 2530,1690C2530,1687 2546,1676 2565,1667C2595,1653 2600,1652 2600,1665C2600,1678 2670,1680 3143,1680C3803,1680 4060,1673 4060,1654C4060,1643 4068,1644 4095,1657C4114,1666 4130,1677 4130,1680C4130,1683 4114,1694 4095,1703C4065,1717 4060,1718 4060,1705C4060,1692 3998,1690 3587,1690C2963,1690 2602,1699 2598,1715C2596,1724 2587,1723 2563,1712Z" style="fill-rule:nonzero;"/>
        <path d="M5681,1703C5682,1660 5696,1605 5705,1610C5722,1619 5707,1720 5689,1720C5684,1720 5680,1712 5681,1703Z" style="fill-rule:nonzero;"/>
        <path d="M5980,1673C5980,1652 5977,1625 5974,1613C5969,1596 5972,1590 5984,1590C5996,1590 6000,1600 6000,1628C6000,1648 6003,1675 6006,1688C6011,1704 6008,1710 5996,1710C5984,1710 5980,1700 5980,1673Z" style="fill-rule:nonzero;"/>
        <path d="M4491,1616C4467,1592 4452,1570 4457,1567C4463,1563 4486,1580 4509,1604C4533,1628 4548,1650 4543,1653C4537,1657 4514,1640 4491,1616Z" style="fill-rule:nonzero;"/>
        <path d="M2240,1613C2241,1597 2317,1517 2323,1526C2329,1537 2264,1620 2249,1620C2244,1620 2240,1617 2240,1613Z" style="fill-rule:nonzero;"/>
        <path d="M4313,1450C4289,1428 4276,1408 4282,1404C4292,1398 4370,1467 4370,1482C4370,1498 4354,1489 4313,1450Z" style="fill-rule:nonzero;"/>
        <path d="M5714,1453C5717,1432 5720,1405 5720,1393C5720,1379 5726,1370 5735,1370C5746,1370 5749,1377 5746,1393C5743,1405 5738,1432 5735,1453C5732,1473 5724,1490 5718,1490C5711,1490 5710,1477 5714,1453Z" style="fill-rule:nonzero;"/>
        <path d="M5955,1425C5948,1374 5952,1349 5965,1361C5976,1372 5982,1480 5972,1480C5966,1480 5958,1455 5955,1425Z" style="fill-rule:nonzero;"/>
        <path d="M2396,1432C2389,1421 2455,1340 2471,1340C2487,1340 2480,1354 2441,1399C2418,1424 2400,1438 2396,1432Z" style="fill-rule:nonzero;"/>
        <path d="M4132,1300C4095,1274 4078,1250 4096,1250C4107,1250 4190,1313 4190,1322C4190,1337 4174,1331 4132,1300Z" style="fill-rule:nonzero;"/>
        <path d="M2566,1261C2560,1251 2634,1180 2651,1180C2668,1180 2658,1193 2613,1234C2590,1254 2569,1267 2566,1261Z" style="fill-rule:nonzero;"/>
        <path d="M5927,1226C5924,1219 5918,1192 5915,1166C5906,1110 5925,1102 5935,1158C5938,1178 5944,1205 5947,1218C5953,1242 5936,1249 5927,1226Z" style="fill-rule:nonzero;"/>
        <path d="M3940,1169C3897,1141 3879,1120 3897,1120C3916,1120 4001,1181 3995,1190C3992,1196 3988,1200 3987,1199C3986,1199 3965,1185 3940,1169Z" style="fill-rule:nonzero;"/>
        <path d="M2755,1120C2752,1114 2770,1097 2796,1080C2846,1049 2860,1044 2860,1059C2860,1072 2761,1130 2755,1120Z" style="fill-rule:nonzero;"/>
        <path d="M3718,1057C3670,1035 3657,1020 3685,1020C3708,1020 3790,1063 3784,1072C3777,1083 3773,1082 3718,1057Z" style="fill-rule:nonzero;"/>
        <path d="M1639,1035C1635,1030 1630,996 1627,960L1621,895L1636,940C1650,983 1652,1056 1639,1035Z" style="fill-rule:nonzero;"/>
        <path d="M6205,1013C6201,997 6195,968 6190,947C6179,897 6193,892 6220,935C6247,979 6254,979 6245,934C6237,890 6255,896 6265,941C6275,985 6255,1002 6229,971L6210,948L6216,994C6223,1044 6214,1058 6205,1013Z" style="fill-rule:nonzero;"/>
        <path d="M1555,1018C1545,986 1530,924 1530,911C1530,891 1547,910 1552,935C1554,945 1566,957 1580,961C1604,968 1604,968 1583,969C1555,970 1550,1010 1578,1010C1587,1010 1602,1015 1610,1020C1621,1027 1617,1030 1592,1030C1574,1030 1558,1024 1555,1018Z" style="fill-rule:nonzero;"/>
        <path d="M1901,969C1886,896 1892,882 1913,942C1922,966 1929,977 1929,968C1930,941 1949,936 1972,957C1993,975 1993,975 1986,937C1975,877 1995,902 2009,965C2028,1048 2016,1050 1966,975C1953,956 1952,957 1937,993C1928,1013 1919,1030 1918,1030C1916,1030 1908,1003 1901,969Z" style="fill-rule:nonzero;"/>
        <path d="M5807,1024C5804,1018 5811,1001 5823,986C5846,958 5846,958 5869,977C5884,989 5890,1002 5886,1009C5880,1018 5875,1017 5865,1003C5853,986 5851,987 5833,1009C5822,1022 5810,1029 5807,1024Z" style="fill-rule:nonzero;"/>
        <path d="M6128,1019C6104,1006 6105,981 6130,955C6149,935 6149,932 6135,920C6122,909 6114,909 6099,918C6089,925 6080,926 6080,921C6080,907 6117,898 6140,905C6166,913 6166,948 6139,976L6117,999L6144,1006C6158,1009 6170,1016 6170,1021C6170,1033 6149,1032 6128,1019Z" style="fill-rule:nonzero;"/>
        <path d="M6601,969C6586,896 6592,882 6613,942C6622,966 6629,977 6629,968C6630,941 6649,936 6672,957C6693,975 6693,975 6686,937C6675,877 6695,902 6709,965C6728,1048 6716,1050 6666,975C6653,956 6652,957 6637,993C6628,1013 6619,1030 6618,1030C6616,1030 6608,1003 6601,969Z" style="fill-rule:nonzero;"/>
        <path d="M1765,993C1761,983 1756,958 1754,938C1751,906 1753,900 1769,900C1780,900 1792,905 1795,910C1798,916 1794,920 1786,920C1768,920 1767,924 1776,958C1780,970 1789,980 1797,980C1809,980 1809,982 1796,995C1777,1014 1774,1014 1765,993Z" style="fill-rule:nonzero;"/>
        <path d="M3483,987C3442,977 3431,967 3448,956C3459,949 3560,981 3560,992C3560,1002 3538,1000 3483,987Z" style="fill-rule:nonzero;"/>
        <path d="M1670,963C1642,927 1648,905 1687,905C1715,904 1719,908 1722,937C1729,992 1703,1005 1670,963ZM1691,927C1671,907 1670,907 1670,924C1670,935 1678,952 1688,963C1704,981 1705,981 1708,965C1710,955 1703,938 1691,927Z" style="fill-rule:nonzero;"/>
        <path d="M2035,949C2026,895 2035,889 2048,940C2053,962 2054,982 2050,985C2045,988 2039,972 2035,949Z" style="fill-rule:nonzero;"/>
        <path d="M2083,952C2069,898 2082,890 2110,935C2137,979 2144,979 2135,934C2127,890 2145,896 2155,941C2165,985 2145,1003 2120,972L2101,950L2098,972C2095,990 2092,985 2083,952Z" style="fill-rule:nonzero;"/>
        <path d="M2175,949C2166,895 2175,889 2188,940C2193,962 2194,982 2190,985C2185,988 2179,972 2175,949Z" style="fill-rule:nonzero;"/>
        <path d="M2216,965C2212,949 2207,930 2205,923C2196,894 2220,903 2240,935C2268,980 2274,979 2266,933C2260,898 2261,896 2275,915C2320,977 2322,978 2315,935C2312,909 2313,900 2319,910C2335,937 2340,965 2331,979C2323,992 2319,992 2305,980C2291,968 2287,968 2279,981C2271,993 2266,991 2251,972L2231,950L2228,972C2224,993 2223,992 2216,965Z" style="fill-rule:nonzero;"/>
        <path d="M2360,955C2346,912 2353,898 2388,903C2414,907 2427,929 2429,975C2429,989 2423,983 2409,958C2378,898 2359,910 2385,973C2389,982 2388,990 2382,990C2376,990 2366,974 2360,955Z" style="fill-rule:nonzero;"/>
        <path d="M2446,965C2442,949 2437,930 2435,923C2426,894 2450,903 2470,935C2498,980 2504,979 2496,933C2490,898 2491,896 2505,915C2550,977 2552,978 2545,935C2542,909 2543,900 2549,910C2565,937 2570,965 2561,979C2553,992 2549,992 2535,980C2521,968 2517,968 2509,981C2501,993 2496,991 2481,972L2461,950L2458,972C2454,993 2453,992 2446,965Z" style="fill-rule:nonzero;"/>
        <path d="M6300,963C6272,927 6278,905 6317,905C6345,904 6349,908 6352,937C6359,992 6333,1005 6300,963ZM6321,927C6301,907 6300,907 6300,924C6300,935 6308,952 6318,963C6334,981 6335,981 6338,965C6340,955 6333,938 6321,927Z" style="fill-rule:nonzero;"/>
        <path d="M6378,984C6376,979 6373,957 6372,935L6371,895L6386,928C6395,949 6397,967 6392,977C6387,985 6381,989 6378,984Z" style="fill-rule:nonzero;"/>
        <path d="M6404,978C6399,970 6403,969 6415,973C6431,980 6432,976 6425,934C6422,908 6416,881 6412,872C6409,862 6411,859 6418,864C6425,868 6430,877 6430,883C6430,890 6445,902 6463,910C6483,920 6496,934 6498,949C6503,981 6486,997 6465,980C6457,973 6450,972 6450,977C6450,990 6412,991 6404,978ZM6490,960C6490,946 6450,907 6443,914C6435,921 6468,970 6480,970C6486,970 6490,966 6490,960Z" style="fill-rule:nonzero;"/>
        <path d="M6735,949C6726,895 6735,889 6748,940C6753,962 6754,982 6750,985C6745,988 6739,972 6735,949Z" style="fill-rule:nonzero;"/>
        <path d="M6773,952C6759,898 6772,890 6800,935C6827,979 6834,979 6825,934C6817,890 6835,896 6845,941C6855,985 6835,1003 6810,972L6791,950L6788,972C6785,990 6782,985 6773,952Z" style="fill-rule:nonzero;"/>
        <path d="M6875,949C6866,895 6875,889 6888,940C6893,962 6894,982 6890,985C6885,988 6879,972 6875,949Z" style="fill-rule:nonzero;"/>
        <path d="M6916,965C6912,949 6907,930 6905,923C6896,894 6920,903 6940,935C6968,980 6974,979 6966,933C6960,898 6961,896 6975,915C7020,977 7022,978 7015,935C7012,909 7013,900 7019,910C7035,937 7040,965 7031,979C7023,992 7019,992 7005,980C6991,968 6987,968 6979,981C6971,993 6966,991 6951,972L6931,950L6928,972C6924,993 6923,992 6916,965Z" style="fill-rule:nonzero;"/>
        <path d="M7060,955C7046,912 7053,898 7088,903C7114,907 7127,929 7129,975C7129,989 7123,983 7109,958C7078,898 7059,910 7085,973C7089,982 7088,990 7082,990C7076,990 7066,974 7060,955Z" style="fill-rule:nonzero;"/>
        <path d="M7146,965C7142,949 7137,930 7135,923C7126,894 7150,903 7170,935C7198,980 7204,979 7196,933C7190,898 7191,896 7205,915C7250,977 7252,978 7245,935C7242,909 7243,900 7249,910C7265,937 7270,965 7261,979C7253,992 7249,992 7235,980C7221,968 7217,968 7209,981C7201,993 7196,991 7181,972L7161,950L7158,972C7154,993 7153,992 7146,965Z" style="fill-rule:nonzero;"/>
        <path d="M3200,959C3200,936 3310,935 3317,957C3320,966 3305,969 3261,969C3227,968 3200,964 3200,959Z" style="fill-rule:nonzero;"/>
        <path d="M7364,425C7364,406 7365,390 7367,390C7368,390 7384,399 7401,409L7432,428L7402,444C7385,453 7369,460 7367,460C7366,460 7364,444 7364,425Z" style="fill-rule:nonzero;"/>
        <path d="M7280,261C7280,256 7284,249 7289,246C7294,242 7304,208 7311,170C7318,129 7328,101 7334,103C7340,105 7356,135 7369,169C7396,238 7402,235 7415,146C7419,121 7426,100 7431,100C7436,100 7457,133 7477,173C7525,265 7523,260 7513,260C7508,260 7491,233 7475,200C7443,134 7435,136 7425,212C7421,238 7413,260 7407,260C7400,260 7384,233 7370,201C7356,168 7344,143 7341,145C7339,148 7332,175 7326,207C7318,248 7309,266 7297,268C7288,270 7280,267 7280,261Z" style="fill-rule:nonzero;"/>
    </g>
</svg>
