<?xml version="1.0" encoding="UTF-8" standalone="no"?>
<!-- Created with Inkscape (http://www.inkscape.org/) -->

<svg
   version="1.1"
   id="svg26915"
   width="1003.1493"
   height="473.93201"
   viewBox="0 0 1003.1493 473.93201"
   xmlns="http://www.w3.org/2000/svg"
   xmlns:svg="http://www.w3.org/2000/svg">
  <defs
     id="defs26919">
    <clipPath
       clipPathUnits="userSpaceOnUse"
       id="clipPath26929">
      <path
         d="M 0,355.449 H 752.362 V 0 H 0 Z"
         id="path26927" />
    </clipPath>
    <clipPath
       clipPathUnits="userSpaceOnUse"
       id="clipPath26979">
      <path
         d="M 0,355.449 H 752.362 V 0 H 0 Z"
         id="path26977" />
    </clipPath>
    <clipPath
       clipPathUnits="userSpaceOnUse"
       id="clipPath27003">
      <path
         d="M 0,355.449 H 752.362 V 0 H 0 Z"
         id="path27001" />
    </clipPath>
  </defs>
  <g
     id="g26921"
     transform="matrix(1.3333333,0,0,-1.3333333,0,473.932)">
    <g
       id="g26923">
      <g
         id="g26925"
         clip-path="url(#clipPath26929)">
        <g
           id="g26931"
           transform="translate(297.967,95.7881)">
          <path
             d="m 0,0 c -26.339,0.287 -50.329,19.617 -67.553,38.29 -24.112,26.855 -42.305,57.626 -57.528,90.059 -12.766,27.197 -24.815,54.77 -34.975,83.095 -0.572,1.596 -1.874,3.197 -0.798,5.202 2.006,-0.618 2.168,-2.474 2.715,-3.912 9.226,-24.237 19.413,-48.048 29.932,-71.766 12.802,-28.864 28.065,-56.163 46.491,-81.716 11.419,-15.836 24.384,-30.3 40.541,-41.591 41.874,-30.903 98.013,-7.316 135.94,18.867 36.951,25.916 66.185,59.403 92.745,95.439 2.956,4.01 5.948,7.992 8.924,11.987 0.199,-0.187 0.395,-0.379 0.587,-0.573 -0.146,-2.091 -1.267,-3.731 -2.427,-5.375 C 174.115,108.982 151.511,81.728 125.144,57.867 97.583,32.926 67.051,12.813 30.173,4.091 30.318,2.333 16.972,2.113 16.969,0.462"
             style="fill:#000000;fill-opacity:1;fill-rule:nonzero;stroke:none"
             id="path26933" />
        </g>
        <g
           id="g26935"
           transform="translate(494.4006,239.7422)">
          <path
             d="m 0,0 c 6.772,10.653 13.706,21.208 20.275,31.985 7.7,12.629 15.072,25.457 22.62,38.179 0.641,1.082 1.062,2.86 2.662,2.571 1.9,-0.344 1.633,-2.283 1.709,-3.69 1.563,-29.178 3.563,-58.33 6.203,-87.427 3.239,-35.713 5.767,-71.525 13.019,-106.752 0.669,-3.246 1.657,-6.433 2.636,-9.605 0.581,-1.886 1.165,-4.054 3.788,-3.931 2.507,0.118 3.127,2.266 3.745,4.127 2.683,8.074 4.12,16.437 5.391,24.815 4.104,27.087 7.101,54.302 9.212,81.615 2.238,28.962 4.542,57.919 6.678,86.888 0.328,4.437 0.803,8.958 -0.46,13.389 -0.343,1.203 -0.049,2.333 1.11,3.035 0.937,0.569 1.911,0.514 2.803,-0.115 1.101,-0.776 1.498,-1.974 0.892,-3.072 -3.586,-6.503 -1.964,-13.721 -2.582,-20.544 -2.218,-24.463 -3.415,-49.017 -5.489,-73.496 -1.821,-21.501 -4.981,-42.91 -6.156,-64.435 -0.469,-8.579 -2.809,-16.579 -3.934,-24.896 -1.335,-9.862 -3.238,-19.695 -7.407,-28.885 -0.805,-1.773 -1.155,-4.089 -3.591,-4.352 -2.711,-0.293 -2.971,2.236 -3.83,3.905 -5.042,9.795 -6.346,20.599 -8.035,31.233 -4.329,27.236 -7.114,54.658 -9.221,82.152 -1.269,16.55 -1.279,33.369 -4.563,49.517 -1.557,7.652 0.874,14.691 -0.896,22.116 -1.776,7.457 -1.144,15.487 -1.651,24.776 C 40.12,60.844 36.058,53.744 31.878,46.711 23.131,31.989 14.068,17.465 4.254,3.421 3.211,1.929 2.322,0.289 0.587,-0.572 0.396,-0.379 0.199,-0.187 0,0"
             style="fill:#000000;fill-opacity:1;fill-rule:nonzero;stroke:none"
             id="path26937" />
        </g>
        <g
           id="g26939"
           transform="translate(609.1623,306.4937)">
          <path
             d="M 0,0 C -0.111,-2.012 -0.223,-4.009 -0.333,-5.991"
             style="fill:none;stroke:#000000;stroke-width:2;stroke-linecap:butt;stroke-linejoin:miter;stroke-miterlimit:10;stroke-dasharray:none;stroke-opacity:1"
             id="path26941" />
        </g>
        <g
           id="g26943"
           transform="translate(608.1584,288.7153)">
          <path
             d="M 0,0 C -15.13,-261.792 -30.89,-250.525 -50.047,6.485"
             style="fill:none;stroke:#000000;stroke-width:2;stroke-linecap:butt;stroke-linejoin:miter;stroke-miterlimit:10;stroke-dasharray:11.804, 11.804;stroke-dashoffset:0;stroke-opacity:1"
             id="path26945" />
        </g>
        <g
           id="g26947"
           transform="translate(557.676,301.0811)">
          <path
             d="M 0,0 C -0.146,1.98 -0.292,3.975 -0.438,5.984 -1.613,4.379 -2.77,2.747 -3.912,1.092"
             style="fill:none;stroke:#000000;stroke-width:2;stroke-linecap:butt;stroke-linejoin:miter;stroke-miterlimit:10;stroke-dasharray:none;stroke-opacity:1"
             id="path26949" />
        </g>
        <g
           id="g26951"
           transform="translate(547.9455,293.3765)">
          <path
             d="M 0,0 C -10.201,-16.021 -19.506,-33.522 -29.96,-49.696"
             style="fill:none;stroke:#000000;stroke-width:2;stroke-linecap:butt;stroke-linejoin:miter;stroke-miterlimit:10;stroke-dasharray:10.551, 10.551;stroke-dashoffset:0;stroke-opacity:1"
             id="path26953" />
        </g>
        <g
           id="g26955"
           transform="translate(515.0832,239.2725)">
          <path
             d="m 0,0 c -1.119,-1.666 -2.252,-3.314 -3.402,-4.942 0.199,-0.187 0.395,-0.379 0.587,-0.572 l 10e-4,-10e-4 c -0.193,0.194 -0.389,0.386 -0.588,0.573 -1.185,-1.629 -2.367,-3.243 -3.545,-4.841"
             style="fill:none;stroke:#000000;stroke-width:2;stroke-linecap:butt;stroke-linejoin:miter;stroke-miterlimit:10;stroke-dasharray:none;stroke-opacity:1"
             id="path26957" />
        </g>
        <g
           id="g26959"
           transform="translate(500.9475,219.8833)">
          <path
             d="M 0,0 C -153.349,-201.848 -261.264,-146.009 -342.493,75.848"
             style="fill:none;stroke:#000000;stroke-width:2;stroke-linecap:butt;stroke-linejoin:miter;stroke-miterlimit:10;stroke-dasharray:11.997, 11.997;stroke-dashoffset:0;stroke-opacity:1"
             id="path26961" />
        </g>
        <g
           id="g26963"
           transform="translate(156.4084,301.3701)">
          <path
             d="M 0,0 C -0.674,1.873 -1.345,3.757 -2.015,5.652"
             style="fill:none;stroke:#000000;stroke-width:2;stroke-linecap:butt;stroke-linejoin:miter;stroke-miterlimit:10;stroke-dasharray:none;stroke-opacity:1"
             id="path26965" />
        </g>
      </g>
    </g>
    <text
       xml:space="preserve"
       transform="matrix(1,0,0,-1,421.1006,283.7319)"
       style="font-variant:normal;font-weight:normal;font-stretch:normal;font-size:24px;font-family:Kalam;-inkscape-font-specification:Kalam-Regular;writing-mode:lr-tb;fill:#000000;fill-opacity:1;fill-rule:nonzero;stroke:none"
       id="text26971"><tspan
         x="0 12.84 20.784 32.040001 37.751999 50.543999 56.256001 69.047997"
         y="0"
         id="tspan26967">Training</tspan><tspan
         x="199.896 212.73599 223.536 233.75999 243.048 248.75999 261.552"
         y="61.248001"
         id="tspan26969">Testing</tspan></text>
    <g
       id="g26973">
      <g
         id="g26975"
         clip-path="url(#clipPath26979)">
        <g
           id="g26981"
           transform="translate(258.2893,169.0547)">
          <path
             d="M 0,0 149.436,-1.045"
             style="fill:none;stroke:#000000;stroke-width:1;stroke-linecap:round;stroke-linejoin:round;stroke-miterlimit:4;stroke-dasharray:none;stroke-opacity:1"
             id="path26983" />
        </g>
        <g
           id="g26985"
           transform="translate(252.2541,169.0972)">
          <path
             d="M 0,0 C 2.832,-1.074 6.343,-2.896 8.514,-4.815 L 6.827,-0.048 8.58,4.695 C 6.383,2.806 2.847,1.033 0,0"
             style="fill:#000000;fill-opacity:1;fill-rule:nonzero;stroke:none"
             id="path26987" />
        </g>
        <g
           id="g26989"
           transform="translate(413.76,167.9678)">
          <path
             d="m 0,0 c -2.848,-1.034 -6.384,-2.807 -8.581,-4.696 l 1.754,4.743 -1.688,4.767 C -6.344,2.895 -2.833,1.072 0,0"
             style="fill:#000000;fill-opacity:1;fill-rule:nonzero;stroke:none"
             id="path26991" />
        </g>
      </g>
    </g>
    <text
       xml:space="preserve"
       transform="matrix(1,0,0,-1,151.5811,89.8398)"
       style="font-variant:normal;font-weight:normal;font-stretch:normal;font-size:18px;font-family:Kalam;-inkscape-font-specification:Kalam-Regular;writing-mode:lr-tb;fill:#000000;fill-opacity:1;fill-rule:nonzero;stroke:none"
       id="text26995"><tspan
         x="0 9.4139996 13.824 22.266001 29.232 36.450001 50.652 54.936001 64.529999 68.814003 83.141998 91.800003 456.91199 466.47 476.11801 484.56 490.51801 499.12201 506.34 520.54199 524.82599 534.41998 538.70398 553.03198 561.69"
         y="0"
         id="tspan26993">Flat MinimumSharp Minimum</tspan></text>
    <g
       id="g26997">
      <g
         id="g26999"
         clip-path="url(#clipPath27003)">
        <g
           id="g27005"
           transform="translate(737.8742,42.4937)">
          <path
             d="m 0,0 -656.161,-0.885 -0.994,-0.001 v 0.995 l 0.016,76.794 0.228,76.793 0.226,76.794 c 0.039,25.597 0.264,51.195 0.391,76.793 h 0.266 c 0.127,-25.598 0.351,-51.196 0.39,-76.793 l 0.228,-76.794 0.226,-76.793 0.017,-76.794 -0.994,0.995 L 0,0.219 Z"
             style="fill:#000000;fill-opacity:1;fill-rule:nonzero;stroke:none"
             id="path27007" />
        </g>
        <g
           id="g27009"
           transform="translate(743.5471,42.603)">
          <path
             d="M 0,0 C -2.67,0.991 -5.981,2.681 -8.034,4.471 L -6.418,0 -8.034,-4.469 C -5.981,-2.679 -2.67,-0.989 0,0"
             style="fill:#000000;fill-opacity:1;fill-rule:nonzero;stroke:none"
             id="path27011" />
        </g>
        <g
           id="g27013"
           transform="translate(81.7131,355.4497)">
          <path
             d="M 0,0 C 0.99,-2.669 2.681,-5.981 4.471,-8.035 L 0,-6.417 -4.47,-8.035 C -2.68,-5.981 -0.989,-2.669 0,0"
             style="fill:#000000;fill-opacity:1;fill-rule:nonzero;stroke:none"
             id="path27015" />
        </g>
        <text
           xml:space="preserve"
           transform="matrix(1,0,0,-1,23.5483,331.7319)"
           style="font-variant:normal;font-weight:500;font-stretch:normal;font-size:24px;font-family:'Neo Euler';-inkscape-font-specification:Neo-Euler;writing-mode:lr-tb;fill:#000000;fill-opacity:1;fill-rule:nonzero;stroke:none"
           id="text27019"><tspan
             x="0 9.3120003 32.976002"
             y="0"
             id="tspan27017">(W)</tspan></text>
        <g
           id="g27021"
           transform="translate(18.7639,343.6851)">
          <path
             d="m 0,0 c 2.567,2.09 4.923,5.022 1.35,7.263 -2.465,1.545 -6.226,0.273 -7.327,-3.52 -0.928,-3.202 -1.378,-6.544 -2.33,-9.738 -1.3,-4.369 -5.039,-8.884 -9.159,-6.157 -1.738,4.673 4.601,3.252 6.89,2.266 4.443,-1.913 8.572,-5.554 12.831,0.125"
             style="fill:none;stroke:#000000;stroke-width:2;stroke-linecap:round;stroke-linejoin:round;stroke-miterlimit:10;stroke-dasharray:none;stroke-opacity:1"
             id="path27023" />
        </g>
        <text
           xml:space="preserve"
           transform="matrix(1,0,0,-1,726.9214,10.2959)"
           style="font-variant:normal;font-weight:500;font-stretch:normal;font-size:24px;font-family:'Neo Euler';-inkscape-font-specification:Neo-Euler;writing-mode:lr-tb;fill:#000000;fill-opacity:1;fill-rule:nonzero;stroke:none"
           id="text27027"><tspan
             x="0"
             y="0"
             id="tspan27025">W</tspan></text>
      </g>
    </g>
  </g>
</svg>
