<?xml version="1.0" encoding="UTF-8" standalone="no"?>
<!-- Created with Inkscape (http://www.inkscape.org/) -->

<svg
   version="1.1"
   id="svg27086"
   width="618.59326"
   height="375.74368"
   viewBox="0 0 618.59326 375.74368"
   xmlns="http://www.w3.org/2000/svg"
   xmlns:svg="http://www.w3.org/2000/svg">
  <defs
     id="defs27090">
    <clipPath
       clipPathUnits="userSpaceOnUse"
       id="clipPath27102">
      <path
         d="M 66.144932,57.167762 H 456.74493 V 274.60776 H 66.144932 Z"
         id="path27100" />
    </clipPath>
    <clipPath
       clipPathUnits="userSpaceOnUse"
       id="clipPath27242">
      <path
         d="M 66.144932,57.167762 H 456.74493 V 274.60776 H 66.144932 Z"
         id="path27240" />
    </clipPath>
  </defs>
  <g
     id="g27092"
     transform="matrix(1.3333333,0,0,-1.3333333,0,375.74368)">
    <path
       d="M 66.144932,57.167762 H 456.74493 V 274.60776 H 66.144932 Z"
       style="fill:#ffffff;fill-opacity:1;fill-rule:nonzero;stroke:none"
       id="path27094" />
    <g
       id="g27096">
      <g
         id="g27098"
         clip-path="url(#clipPath27102)">
        <path
           d="m 146.35048,57.167762 v 5.214404 h 25.45115 v 15.64321 h 25.45116 v 50.405894 h 25.45116 v 85.60312 h 25.45116 v 45.48119 h 25.45116 v -39.10803 h 25.45116 v -85.31343 h 25.45116 V 79.184132 h 25.45116 V 61.22341 h 25.45115 v -3.621114 h 25.45116 V 57.167762 H 375.4109 v 0 h -25.45115 v 0 h -25.45116 v 0 h -25.45116 v 0 h -25.45116 v 0 h -25.45116 v 0 h -25.45116 v 0 h -25.45116 v 0 h -25.45116 v 0 z"
           style="fill:#d3d3d3;fill-opacity:0.4;fill-rule:nonzero;stroke:none"
           id="path27104" />
      </g>
    </g>
    <g
       id="g27106">
      <path
         d="m 83.899477,57.167762 v -3.5"
         style="fill:#000000;fill-opacity:1;fill-rule:nonzero;stroke:#000000;stroke-width:0.8;stroke-linecap:butt;stroke-linejoin:round;stroke-miterlimit:10;stroke-dasharray:none;stroke-opacity:1"
         id="path27108" />
      <text
         xml:space="preserve"
         transform="matrix(1,0,0,-1,62.343266,34.947069)"
         style="font-style:italic;font-variant:normal;font-weight:normal;font-size:21.9178px;font-family:CMSY10;-inkscape-font-specification:CMSY10;writing-mode:lr-tb;fill:#000000;fill-opacity:1;fill-rule:nonzero;stroke:none"
         id="text27112"><tspan
           x="0"
           y="0"
           id="tspan27110">−</tspan></text>
      <text
         xml:space="preserve"
         transform="matrix(1,0,0,-1,79.390499,34.947069)"
         style="font-variant:normal;font-weight:normal;font-size:21.9178px;font-family:CMR17;-inkscape-font-specification:CMR17;writing-mode:lr-tb;fill:#000000;fill-opacity:1;fill-rule:nonzero;stroke:none"
         id="text27116"><tspan
           x="0"
           y="0"
           id="tspan27114">5</tspan></text>
      <text
         xml:space="preserve"
         transform="matrix(1,0,0,-1,89.442404,34.947069)"
         style="font-style:italic;font-variant:normal;font-weight:normal;font-size:21.9178px;font-family:CMMI12;-inkscape-font-specification:CMMI12;writing-mode:lr-tb;fill:#000000;fill-opacity:1;fill-rule:nonzero;stroke:none"
         id="text27120"><tspan
           x="0"
           y="0"
           id="tspan27118">.</tspan></text>
      <text
         xml:space="preserve"
         transform="matrix(1,0,0,-1,95.403783,34.947069)"
         style="font-variant:normal;font-weight:normal;font-size:21.9178px;font-family:CMR17;-inkscape-font-specification:CMR17;writing-mode:lr-tb;fill:#000000;fill-opacity:1;fill-rule:nonzero;stroke:none"
         id="text27124"><tspan
           x="0"
           y="0"
           id="tspan27122">0</tspan></text>
      <path
         d="m 172.6722,57.167762 v -3.5"
         style="fill:#000000;fill-opacity:1;fill-rule:nonzero;stroke:#000000;stroke-width:0.8;stroke-linecap:butt;stroke-linejoin:round;stroke-miterlimit:10;stroke-dasharray:none;stroke-opacity:1"
         id="path27126" />
      <text
         xml:space="preserve"
         transform="matrix(1,0,0,-1,151.11599,34.947069)"
         style="font-style:italic;font-variant:normal;font-weight:normal;font-size:21.9178px;font-family:CMSY10;-inkscape-font-specification:CMSY10;writing-mode:lr-tb;fill:#000000;fill-opacity:1;fill-rule:nonzero;stroke:none"
         id="text27130"><tspan
           x="0"
           y="0"
           id="tspan27128">−</tspan></text>
      <text
         xml:space="preserve"
         transform="matrix(1,0,0,-1,168.16323,34.947069)"
         style="font-variant:normal;font-weight:normal;font-size:21.9178px;font-family:CMR17;-inkscape-font-specification:CMR17;writing-mode:lr-tb;fill:#000000;fill-opacity:1;fill-rule:nonzero;stroke:none"
         id="text27134"><tspan
           x="0"
           y="0"
           id="tspan27132">2</tspan></text>
      <text
         xml:space="preserve"
         transform="matrix(1,0,0,-1,178.21513,34.947069)"
         style="font-style:italic;font-variant:normal;font-weight:normal;font-size:21.9178px;font-family:CMMI12;-inkscape-font-specification:CMMI12;writing-mode:lr-tb;fill:#000000;fill-opacity:1;fill-rule:nonzero;stroke:none"
         id="text27138"><tspan
           x="0"
           y="0"
           id="tspan27136">.</tspan></text>
      <text
         xml:space="preserve"
         transform="matrix(1,0,0,-1,184.17651,34.947069)"
         style="font-variant:normal;font-weight:normal;font-size:21.9178px;font-family:CMR17;-inkscape-font-specification:CMR17;writing-mode:lr-tb;fill:#000000;fill-opacity:1;fill-rule:nonzero;stroke:none"
         id="text27142"><tspan
           x="0"
           y="0"
           id="tspan27140">5</tspan></text>
      <path
         d="m 261.44493,57.167762 v -3.5"
         style="fill:#000000;fill-opacity:1;fill-rule:nonzero;stroke:#000000;stroke-width:0.8;stroke-linecap:butt;stroke-linejoin:round;stroke-miterlimit:10;stroke-dasharray:none;stroke-opacity:1"
         id="path27144" />
      <text
         xml:space="preserve"
         transform="matrix(1,0,0,-1,248.41234,34.947069)"
         style="font-variant:normal;font-weight:normal;font-size:21.9178px;font-family:CMR17;-inkscape-font-specification:CMR17;writing-mode:lr-tb;fill:#000000;fill-opacity:1;fill-rule:nonzero;stroke:none"
         id="text27148"><tspan
           x="0"
           y="0"
           id="tspan27146">0</tspan></text>
      <text
         xml:space="preserve"
         transform="matrix(1,0,0,-1,258.46424,34.947069)"
         style="font-style:italic;font-variant:normal;font-weight:normal;font-size:21.9178px;font-family:CMMI12;-inkscape-font-specification:CMMI12;writing-mode:lr-tb;fill:#000000;fill-opacity:1;fill-rule:nonzero;stroke:none"
         id="text27152"><tspan
           x="0"
           y="0"
           id="tspan27150">.</tspan></text>
      <text
         xml:space="preserve"
         transform="matrix(1,0,0,-1,264.42562,34.947069)"
         style="font-variant:normal;font-weight:normal;font-size:21.9178px;font-family:CMR17;-inkscape-font-specification:CMR17;writing-mode:lr-tb;fill:#000000;fill-opacity:1;fill-rule:nonzero;stroke:none"
         id="text27156"><tspan
           x="0"
           y="0"
           id="tspan27154">0</tspan></text>
      <path
         d="m 350.21766,57.167762 v -3.5"
         style="fill:#000000;fill-opacity:1;fill-rule:nonzero;stroke:#000000;stroke-width:0.8;stroke-linecap:butt;stroke-linejoin:round;stroke-miterlimit:10;stroke-dasharray:none;stroke-opacity:1"
         id="path27158" />
      <text
         xml:space="preserve"
         transform="matrix(1,0,0,-1,337.18506,34.947069)"
         style="font-variant:normal;font-weight:normal;font-size:21.9178px;font-family:CMR17;-inkscape-font-specification:CMR17;writing-mode:lr-tb;fill:#000000;fill-opacity:1;fill-rule:nonzero;stroke:none"
         id="text27162"><tspan
           x="0"
           y="0"
           id="tspan27160">2</tspan></text>
      <text
         xml:space="preserve"
         transform="matrix(1,0,0,-1,347.23697,34.947069)"
         style="font-style:italic;font-variant:normal;font-weight:normal;font-size:21.9178px;font-family:CMMI12;-inkscape-font-specification:CMMI12;writing-mode:lr-tb;fill:#000000;fill-opacity:1;fill-rule:nonzero;stroke:none"
         id="text27166"><tspan
           x="0"
           y="0"
           id="tspan27164">.</tspan></text>
      <text
         xml:space="preserve"
         transform="matrix(1,0,0,-1,353.19835,34.947069)"
         style="font-variant:normal;font-weight:normal;font-size:21.9178px;font-family:CMR17;-inkscape-font-specification:CMR17;writing-mode:lr-tb;fill:#000000;fill-opacity:1;fill-rule:nonzero;stroke:none"
         id="text27170"><tspan
           x="0"
           y="0"
           id="tspan27168">5</tspan></text>
      <path
         d="m 438.99039,57.167762 v -3.5"
         style="fill:#000000;fill-opacity:1;fill-rule:nonzero;stroke:#000000;stroke-width:0.8;stroke-linecap:butt;stroke-linejoin:round;stroke-miterlimit:10;stroke-dasharray:none;stroke-opacity:1"
         id="path27172" />
      <text
         xml:space="preserve"
         transform="matrix(1,0,0,-1,425.95779,34.947069)"
         style="font-variant:normal;font-weight:normal;font-size:21.9178px;font-family:CMR17;-inkscape-font-specification:CMR17;writing-mode:lr-tb;fill:#000000;fill-opacity:1;fill-rule:nonzero;stroke:none"
         id="text27176"><tspan
           x="0"
           y="0"
           id="tspan27174">5</tspan></text>
      <text
         xml:space="preserve"
         transform="matrix(1,0,0,-1,436.0097,34.947069)"
         style="font-style:italic;font-variant:normal;font-weight:normal;font-size:21.9178px;font-family:CMMI12;-inkscape-font-specification:CMMI12;writing-mode:lr-tb;fill:#000000;fill-opacity:1;fill-rule:nonzero;stroke:none"
         id="text27180"><tspan
           x="0"
           y="0"
           id="tspan27178">.</tspan></text>
      <text
         xml:space="preserve"
         transform="matrix(1,0,0,-1,441.97108,34.947069)"
         style="font-variant:normal;font-weight:normal;font-size:21.9178px;font-family:CMR17;-inkscape-font-specification:CMR17;writing-mode:lr-tb;fill:#000000;fill-opacity:1;fill-rule:nonzero;stroke:none"
         id="text27184"><tspan
           x="0"
           y="0"
           id="tspan27182">0</tspan></text>
      <text
         xml:space="preserve"
         transform="matrix(1,0,0,-1,253.84697,11.463188)"
         style="font-variant:normal;font-weight:normal;font-size:21.9178px;font-family:CMR17;-inkscape-font-specification:CMR17;writing-mode:lr-tb;fill:#000000;fill-opacity:1;fill-rule:nonzero;stroke:none"
         id="text27188"><tspan
           x="0"
           y="0"
           id="tspan27186">X</tspan></text>
      <path
         d="m 66.144932,57.167762 h -3.5"
         style="fill:#000000;fill-opacity:1;fill-rule:nonzero;stroke:#000000;stroke-width:0.8;stroke-linecap:butt;stroke-linejoin:round;stroke-miterlimit:10;stroke-dasharray:none;stroke-opacity:1"
         id="path27190" />
      <text
         xml:space="preserve"
         transform="matrix(1,0,0,-1,33.079743,49.557416)"
         style="font-variant:normal;font-weight:normal;font-size:21.9178px;font-family:CMR17;-inkscape-font-specification:CMR17;writing-mode:lr-tb;fill:#000000;fill-opacity:1;fill-rule:nonzero;stroke:none"
         id="text27194"><tspan
           x="0"
           y="0"
           id="tspan27192">0</tspan></text>
      <text
         xml:space="preserve"
         transform="matrix(1,0,0,-1,43.131648,49.557416)"
         style="font-style:italic;font-variant:normal;font-weight:normal;font-size:21.9178px;font-family:CMMI12;-inkscape-font-specification:CMMI12;writing-mode:lr-tb;fill:#000000;fill-opacity:1;fill-rule:nonzero;stroke:none"
         id="text27198"><tspan
           x="0"
           y="0"
           id="tspan27196">.</tspan></text>
      <text
         xml:space="preserve"
         transform="matrix(1,0,0,-1,49.093027,49.557416)"
         style="font-variant:normal;font-weight:normal;font-size:21.9178px;font-family:CMR17;-inkscape-font-specification:CMR17;writing-mode:lr-tb;fill:#000000;fill-opacity:1;fill-rule:nonzero;stroke:none"
         id="text27202"><tspan
           x="0"
           y="0"
           id="tspan27200">0</tspan></text>
      <path
         d="m 66.144932,160.98516 h -3.5"
         style="fill:#000000;fill-opacity:1;fill-rule:nonzero;stroke:#000000;stroke-width:0.8;stroke-linecap:butt;stroke-linejoin:round;stroke-miterlimit:10;stroke-dasharray:none;stroke-opacity:1"
         id="path27204" />
      <text
         xml:space="preserve"
         transform="matrix(1,0,0,-1,33.079743,153.37481)"
         style="font-variant:normal;font-weight:normal;font-size:21.9178px;font-family:CMR17;-inkscape-font-specification:CMR17;writing-mode:lr-tb;fill:#000000;fill-opacity:1;fill-rule:nonzero;stroke:none"
         id="text27208"><tspan
           x="0"
           y="0"
           id="tspan27206">0</tspan></text>
      <text
         xml:space="preserve"
         transform="matrix(1,0,0,-1,43.131648,153.37481)"
         style="font-style:italic;font-variant:normal;font-weight:normal;font-size:21.9178px;font-family:CMMI12;-inkscape-font-specification:CMMI12;writing-mode:lr-tb;fill:#000000;fill-opacity:1;fill-rule:nonzero;stroke:none"
         id="text27212"><tspan
           x="0"
           y="0"
           id="tspan27210">.</tspan></text>
      <text
         xml:space="preserve"
         transform="matrix(1,0,0,-1,49.093027,153.37481)"
         style="font-variant:normal;font-weight:normal;font-size:21.9178px;font-family:CMR17;-inkscape-font-specification:CMR17;writing-mode:lr-tb;fill:#000000;fill-opacity:1;fill-rule:nonzero;stroke:none"
         id="text27216"><tspan
           x="0"
           y="0"
           id="tspan27214">2</tspan></text>
      <path
         d="m 66.144932,264.80255 h -3.5"
         style="fill:#000000;fill-opacity:1;fill-rule:nonzero;stroke:#000000;stroke-width:0.8;stroke-linecap:butt;stroke-linejoin:round;stroke-miterlimit:10;stroke-dasharray:none;stroke-opacity:1"
         id="path27218" />
      <text
         xml:space="preserve"
         transform="matrix(1,0,0,-1,33.079743,257.1922)"
         style="font-variant:normal;font-weight:normal;font-size:21.9178px;font-family:CMR17;-inkscape-font-specification:CMR17;writing-mode:lr-tb;fill:#000000;fill-opacity:1;fill-rule:nonzero;stroke:none"
         id="text27222"><tspan
           x="0"
           y="0"
           id="tspan27220">0</tspan></text>
      <text
         xml:space="preserve"
         transform="matrix(1,0,0,-1,43.131648,257.1922)"
         style="font-style:italic;font-variant:normal;font-weight:normal;font-size:21.9178px;font-family:CMMI12;-inkscape-font-specification:CMMI12;writing-mode:lr-tb;fill:#000000;fill-opacity:1;fill-rule:nonzero;stroke:none"
         id="text27226"><tspan
           x="0"
           y="0"
           id="tspan27224">.</tspan></text>
      <text
         xml:space="preserve"
         transform="matrix(1,0,0,-1,49.093027,257.1922)"
         style="font-variant:normal;font-weight:normal;font-size:21.9178px;font-family:CMR17;-inkscape-font-specification:CMR17;writing-mode:lr-tb;fill:#000000;fill-opacity:1;fill-rule:nonzero;stroke:none"
         id="text27230"><tspan
           x="0"
           y="0"
           id="tspan27228">4</tspan></text>
      <text
         xml:space="preserve"
         transform="matrix(0,1,1,0,23.618624,143.64355)"
         style="font-variant:normal;font-weight:normal;font-size:21.9178px;font-family:CMR17;-inkscape-font-specification:CMR17;writing-mode:lr-tb;fill:#000000;fill-opacity:1;fill-rule:nonzero;stroke:none"
         id="text27234"><tspan
           x="0 13.764383 21.523287 36.71233"
           y="0"
           id="tspan27232">P(X)</tspan></text>
    </g>
    <g
       id="g27236">
      <g
         id="g27238"
         clip-path="url(#clipPath27242)">
        <path
           d="m 83.899477,57.168534 40.129283,0.115146 10.97341,0.2495 7.3156,0.379615 5.64651,0.509172 4.68767,0.641666 4.04844,0.775222 3.58678,0.908845 3.26716,1.053166 3.01858,1.202414 2.84101,1.367681 2.69896,1.543094 2.59242,1.735431 2.5214,1.953889 2.48589,2.210164 2.45037,2.48037 2.41486,2.762205 2.41486,3.101139 2.45037,3.515781 2.45037,3.908276 2.48589,4.384459 2.55691,4.966184 2.62793,5.597867 2.73448,6.36135 2.84101,7.18456 2.98306,8.15663 3.23165,9.50337 3.55126,11.16134 4.08396,13.60042 5.50446,19.17687 9.16226,31.95588 3.76434,12.25982 3.0896,9.32777 2.66345,7.35842 2.37934,5.94268 2.16628,4.82776 1.95319,3.83306 1.81115,3.08357 1.66909,2.41995 1.56256,1.88443 1.45601,1.41454 1.34948,1.01058 1.27846,0.68668 1.20743,0.4042 1.17192,0.16398 1.17191,-0.0615 1.17192,-0.28679 1.20743,-0.5301 1.24294,-0.79251 1.31397,-1.10685 1.38499,-1.46111 1.49154,-1.90398 1.59806,-2.40923 1.74012,-3.04135 1.88217,-3.75625 2.02423,-4.54708 2.23729,-5.58823 2.48589,-6.82929 2.80549,-8.3817 3.26717,-10.48702 4.15498,-14.13174 16.08722,-55.52539 3.69332,-11.49713 3.30267,-9.57642 3.0896,-8.29178 2.91204,-7.19248 2.8055,-6.34423 2.69896,-5.560669 2.62794,-4.910915 2.55691,-4.315176 2.52139,-3.825941 2.48589,-3.37546 2.48588,-3.00477 2.48589,-2.65894 2.48588,-2.339119 2.5214,-2.073056 2.59242,-1.845928 2.66345,-1.625641 2.76999,-1.432158 2.91203,-1.256738 3.12512,-1.104373 3.3737,-0.952782 3.69331,-0.808847 4.15498,-0.6775 4.79421,-0.549635 5.75305,-0.426392 7.28009,-0.305459 10.29866,-0.191717 18.50209,-0.08558 19.95811,-0.01018 v 0"
           style="fill:none;stroke:#000000;stroke-width:2;stroke-linecap:square;stroke-linejoin:round;stroke-miterlimit:10;stroke-dasharray:none;stroke-opacity:1"
           id="path27244" />
      </g>
    </g>
    <g
       id="g27246">
      <path
         d="M 66.144932,57.167762 V 274.60776"
         style="fill:none;stroke:#000000;stroke-width:0.8;stroke-linecap:square;stroke-linejoin:miter;stroke-miterlimit:10;stroke-dasharray:none;stroke-opacity:1"
         id="path27248" />
      <path
         d="M 456.74493,57.167762 V 274.60776"
         style="fill:none;stroke:#000000;stroke-width:0.8;stroke-linecap:square;stroke-linejoin:miter;stroke-miterlimit:10;stroke-dasharray:none;stroke-opacity:1"
         id="path27250" />
      <path
         d="M 66.144932,57.167762 H 456.74493"
         style="fill:none;stroke:#000000;stroke-width:0.8;stroke-linecap:square;stroke-linejoin:miter;stroke-miterlimit:10;stroke-dasharray:none;stroke-opacity:1"
         id="path27252" />
      <path
         d="M 66.144932,274.60776 H 456.74493"
         style="fill:none;stroke:#000000;stroke-width:0.8;stroke-linecap:square;stroke-linejoin:miter;stroke-miterlimit:10;stroke-dasharray:none;stroke-opacity:1"
         id="path27254" />
      <path
         d="m 341.18148,247.10776 h 44"
         style="fill:none;stroke:#000000;stroke-width:2;stroke-linecap:square;stroke-linejoin:round;stroke-miterlimit:10;stroke-dasharray:none;stroke-opacity:1"
         id="path27256" />
      <text
         xml:space="preserve"
         transform="matrix(1,0,0,-1,402.78148,239.40776)"
         style="font-variant:normal;font-weight:normal;font-size:21.9178px;font-family:CMR17;-inkscape-font-specification:CMR17;writing-mode:lr-tb;fill:#000000;fill-opacity:1;fill-rule:nonzero;stroke:none"
         id="text27260"><tspan
           x="0 11.750611 22.928694"
           y="0"
           id="tspan27258">pdf</tspan></text>
      <path
         d="m 341.18148,208.74457 h 44 v 15.4 h -44 z"
         style="fill:#d3d3d3;fill-opacity:0.4;fill-rule:nonzero;stroke:none"
         id="path27262" />
      <text
         xml:space="preserve"
         transform="matrix(1,0,0,-1,402.78148,208.74457)"
         style="font-variant:normal;font-weight:normal;font-size:21.9178px;font-family:CMR17;-inkscape-font-specification:CMR17;writing-mode:lr-tb;fill:#000000;fill-opacity:1;fill-rule:nonzero;stroke:none"
         id="text27266"><tspan
           x="0 11.178082 28.098631"
           y="0"
           id="tspan27264">pmf</tspan></text>
    </g>
  </g>
</svg>
