<?xml version="1.0" encoding="UTF-8"?>
<svg width="173px" height="176px" viewBox="0 0 173 176" version="1.1" xmlns="http://www.w3.org/2000/svg" xmlns:xlink="http://www.w3.org/1999/xlink">
    <!-- Generator: Sketch 63.1 (92452) - https://sketch.com -->
    <title>gutemberg_press</title>
    <desc>Created with Sketch.</desc>
    <g id="Page-1" stroke="none" stroke-width="1" fill="none" fill-rule="evenodd">
        <g id="gutemberg_press" fill="#000000" fill-rule="nonzero">
            <g id="Group" transform="translate(86.400000, 87.750000) scale(-1, 1) rotate(-180.000000) translate(-86.400000, -87.750000) translate(0.200000, 0.200000)">
                <path d="M89.2,174.5 C87.7,173.6 86.7,165.5 88,164.7 C88.5,164.4 88.3,163.4 87.6,162.5 C86.4,161 86.5,161 88,162.1 C88.9,162.8 89.5,164.3 89.3,165.5 C89,166.6 89.2,167.3 89.5,166.9 C89.9,166.5 90.3,165.4 90.5,164.4 C90.9,161.3 87.1,160.2 76.3,160.5 L66.3,160.8 L66.3,163.8 L66.2,166.8 L57.8,166.8 L49.3,166.8 L49.3,163.9 C49.2,162.3 48.7,160.8 48,160.5 C46.5,160 46.3,150.3 47.8,150.3 C48.4,150.3 48.8,142.1 48.8,127.8 C48.8,113.5 48.4,105.3 47.8,105.3 C46.5,105.3 46.5,101.6 47.8,101.1 C48.4,100.9 48.6,99.5 48.2,97.7 C47.6,94.6 47.6,94.6 37,92.9 C31.1,91.9 22.4,90.2 17.6,89.1 L8.8,87.1 L8.8,83.8 L8.8,80.5 L17.1,79.8 C21.6,79.4 26.7,79.3 28.3,79.6 C31,80 31,80 27.6,80.2 C24.4,80.3 23.8,80.6 23.8,82.6 C23.8,84.7 24.2,84.8 30,84.6 C34.4,84.5 32.9,84.9 25.3,85.7 C19.3,86.4 14.5,87.1 14.8,87.2 C17.4,88 38.4,92 38.7,91.7 C39,91.5 38.3,90.6 37.2,89.9 C36.2,89.1 35.6,88.1 36.1,87.7 C36.5,87.3 36.8,87.5 36.8,88.1 C36.8,88.8 37.3,89.3 37.9,89.3 C38.6,89.3 39.6,89.9 40.2,90.6 C41.1,91.7 43.6,91.8 52.8,91.2 C59.1,90.8 66.3,90.2 68.7,89.9 C72.6,89.4 73,89.5 72.5,91.3 C72.1,93 72.3,93.1 73.9,92.2 C74.9,91.7 75.8,90.8 75.8,90.2 C75.8,89.6 75.3,89.5 74.6,89.9 C73.9,90.4 73.7,90.1 74,89.2 C74.7,87.5 67.7,87.5 55.5,89.2 C45.6,90.6 40.8,90.6 40.8,89.3 C40.8,88.7 42.8,88.2 45.6,88.3 C48.2,88.3 53.5,88 57.3,87.6 L64.3,86.8 L58.3,86.2 C54.6,85.8 56.7,85.7 63.8,85.8 C71,86 74,85.8 71.8,85.3 C68.7,84.6 68.6,84.5 71,84.4 C72.5,84.4 77.9,85.7 83,87.3 C88.1,89 94.1,90.6 96.2,91 C98.4,91.3 101.2,92.2 102.5,92.8 C104.8,94 104.7,94.1 100.8,94.7 C98.6,95 96.8,95.8 96.8,96.4 C96.8,97 96.2,97.3 95.6,97 C94.9,96.8 94.4,96.1 94.5,95.5 C94.7,94.8 94.1,94.6 93.1,95 C91.7,95.6 91.7,95.8 93.4,97.1 C95.1,98.3 94.6,98.5 88.5,98.1 C84.7,97.9 82.4,98.1 83.2,98.5 C84,99 89.3,99.1 95,98.9 C100.7,98.6 107.1,98.4 109.4,98.3 C112.3,98.3 113.5,97.9 113.5,96.8 C113.5,95.9 112.5,95.3 110.9,95.2 C108.5,95.2 108.5,95.1 110.3,94.3 C112,93.6 111.7,93.4 108.8,93.3 C105.8,93.2 105.6,93.1 107.4,92.3 C110.2,91.2 110.7,90.2 109.7,87.8 C109.1,86.1 108.9,86.2 108.9,88.6 C108.8,91.3 108.6,91.4 105.6,90.8 C101.2,89.8 101.2,89.8 100.3,86.1 L99.5,82.8 L99.1,85.6 C98.6,88.6 99.9,88.7 85.3,84.9 C77.7,82.9 77.3,82.6 76.9,79.8 C76.5,76.9 76.5,76.8 75.9,79.3 C75.4,81.1 74.5,81.8 72.8,81.9 C70.4,82 70.4,82 72.6,81.6 C74.3,81.3 74.8,80.6 74.6,79 C74.3,77 73.8,76.8 68.3,77 L62.3,77.1 L69.1,76.1 L75.8,75.1 L75.8,64.6 C75.8,56.7 75.5,54.2 74.6,54.6 C73.9,54.8 72.8,54.3 72.1,53.4 C71.3,52.3 70.6,52.1 70,52.8 C68.9,54 63.8,67.3 63.8,69 C63.8,69.6 63.3,71.4 62.6,73 C62,74.5 61.5,76.1 61.6,76.5 C61.9,77.7 57.5,78.5 52.8,78.1 L48.4,77.8 L44.7,67.4 C42.6,61.7 40.4,56.5 39.8,55.9 C39.1,55.3 39.3,56.4 40.2,58.6 C41.6,62.2 41.6,62.4 39.5,63.7 C37.1,65.2 23.4,67.3 16,67.3 C12,67.3 11,66.8 8.1,63.7 C5.6,60.9 5,59.7 5.9,58.7 C6.5,58 6.7,57 6.4,56.4 C6.1,55.9 6.5,55.3 7.3,54.9 C9.1,54.2 9.3,52.1 7.6,52.4 C6.9,52.5 5,52.3 3.4,51.8 C0.7,51.1 0.6,50.9 2.3,49.7 C3.9,48.5 4,48.3 2.6,48.3 C1.7,48.3 0.6,47.8 0.3,47.3 C-0.5,46 0.7,42.3 1.9,42.3 C2.5,42.3 2.6,42.8 2.3,43.3 C1.4,44.7 2.7,44.5 6.8,42.5 C11.1,40.4 12.1,37.3 8.4,37.3 C7,37.3 5.6,37.8 5.2,38.4 C4.8,39.1 5.2,39.3 6.6,38.9 C7.7,38.5 8.9,38.6 9.2,39.2 C10.1,40.6 6.9,41.4 4.9,40.3 C3.7,39.7 2.7,39.8 2.1,40.4 C1.4,41.1 0.8,41.1 0.4,40.4 C-0.4,39.2 8,35.3 11.3,35.3 C12.6,35.3 13.8,34.8 14,34.2 C14.2,33.6 16.6,33 19.3,32.9 C23.9,32.8 24.3,32.6 24.3,30.3 C24.3,27.6 23.3,27.9 42,25.3 L50.7,24.1 L50.2,21.4 C49.7,19 50.1,18.5 52.5,17.5 C58.1,15.3 61.8,15 62.4,16.7 C62.7,17.5 63.9,18.5 65,18.9 C66.6,19.4 66.8,19.7 65.7,20.4 C64.6,21.1 64.7,21.3 66.1,21.3 C67.1,21.3 68.3,20.2 68.8,18.7 C70.1,15.3 70.2,15.5 67.1,15 C65.5,14.8 66.5,14.5 69.4,14.4 C72.7,14.4 75,14.8 75.7,15.6 C77.1,17.3 82.8,17 90.9,14.7 C91.8,14.5 93.5,15.2 94.8,16.3 L97.1,18.3 L93.5,18.3 C90,18.3 90,18.4 89.3,23.3 C88.9,26.1 88.2,28.3 87.7,28.3 C87.2,28.3 87.1,27 87.4,25.3 C87.9,23.1 87.6,22.2 86.4,21.7 C85.5,21.4 84.8,20.2 84.8,19.2 C84.8,17 83.5,16.7 82,18.6 C80.7,20.1 82.3,27.3 83.8,27.3 C84.4,27.3 84.8,26.9 84.8,26.3 C84.8,25.8 85.3,25.3 86,25.3 C86.9,25.3 86.9,25.6 86,26.5 C84.6,27.9 84.4,29.7 85.7,28.8 C86.2,28.5 86.9,28.7 87.3,29.3 C88.2,30.8 84.2,30.5 82.9,29 C82.3,28.2 81.5,26.2 81.2,24.4 C80.8,22.4 79.7,20.8 78.4,20.3 C76.7,19.6 76.6,19.4 78.1,19.4 C80.9,19.3 80,17.8 77.1,17.6 C74.2,17.5 72.1,19.3 73.9,20.3 C74.4,20.7 71.2,21.6 66.8,22.3 C59.8,23.5 58.7,24 58.2,25.9 C57.9,27.2 57,28.7 56.3,29.3 C55.2,30.2 54.9,30 55.1,28.4 C55.2,27.3 55.8,26.1 56.5,25.9 C57.2,25.6 57.8,24.5 57.8,23.5 C57.8,22 58.4,21.7 60.9,22.1 C63,22.4 63.9,22.2 63.4,21.5 C62.7,20.3 56.8,20.2 56.8,21.4 C56.8,21.9 56.1,22 55.3,21.7 C53.1,20.8 53.5,19.5 56.1,19 C57.3,18.7 56.7,18.6 54.8,18.6 C51.4,18.8 51.3,18.9 51.6,22.7 C51.8,24.9 52.4,27.6 52.9,28.7 C53.9,30.7 53.9,30.7 52.4,28.9 C51.6,27.9 50.7,26.6 50.6,26.1 C50.4,25.6 48.2,25.7 45.3,26.4 C42.5,27 39.2,27.6 37.8,27.8 C36.4,27.9 34.7,28.1 34.1,28.1 C33.4,28.2 32.7,29.5 32.7,31.1 L32.6,33.8 L31.8,30.8 C31,27.8 31,27.8 30.9,31.6 C30.8,34.6 31.1,35.3 32.7,35.3 C34.1,35.3 34.8,34.5 35.1,32.6 C35.5,29.8 35.5,29.8 35.7,32.4 C35.8,34.9 36,34.9 40.7,34.3 C43.5,34 45.5,34 45.2,34.5 C44.9,34.9 43,35.3 41,35.3 C39,35.3 36.4,36 35.4,36.8 C34.3,37.6 32,38.3 30.2,38.3 C28.4,38.3 26.8,38.8 26.6,39.5 C26.3,40.3 25.5,40.3 23.3,39.4 C21.6,38.8 21.2,38.4 22.4,38.7 C24.1,39 24.4,38.6 24,36.7 C23.6,34.6 23,34.3 19.4,34.3 L15.3,34.3 L13,43.3 C11.8,48.3 10.7,52.8 10.5,53.4 C10.4,54 11.8,55.1 13.6,55.7 C15.4,56.3 16.6,57.2 16.1,57.7 C15.7,58.1 16.7,58.1 18.3,57.7 C20,57.3 21,57.3 20.7,57.7 C20.3,58.1 17.5,58.8 14.3,59.3 C11.1,59.8 8.3,60.5 8,60.8 C7,61.8 12.1,66.3 14.2,66.2 C16.3,66.2 16.3,66.1 14.3,65.2 C12.4,64.3 12.4,64.3 14.4,64.6 C15.6,64.9 19.6,64.4 23.4,63.7 C31.8,62.1 36.1,61.9 35.3,63.3 C35,63.9 35.1,64.3 35.7,64.3 C37.6,64.3 37.9,62.3 36.4,60.1 C34.6,57.6 28.9,57 27.2,59.2 C26.3,60.3 25.7,60.3 24.2,59.4 C22.4,58.3 22.4,58.2 24.5,58.8 C26.8,59.4 28,57.1 29.4,48.8 C29.8,46.6 30.5,44.3 31,43.6 C31.6,42.8 31.2,42.3 29.8,41.8 C28.6,41.4 27.9,40.9 28.1,40.6 C28.4,40.4 30,40.9 31.7,41.7 C35.6,43.8 36.1,43.7 35.5,41.3 C35.2,40 35.6,39.2 36.9,38.8 C38,38.4 38.6,37.7 38.3,37.2 C37.9,36.7 39.2,36.3 41,36.2 C44.4,36.1 50.3,34.6 48.1,34.4 C47.4,34.3 46.9,33.3 46.9,32.1 C47,30.5 47.2,30.3 47.5,31.5 C47.8,32.7 48.7,33 51.1,32.7 C52.9,32.4 55.7,32.7 57.3,33.3 C59.9,34.2 59.7,34.2 55.3,33.8 C51.6,33.5 50.8,33.6 52.3,34.3 L54.3,35.3 L52.3,35.1 C51.2,35.1 49.2,35.5 47.8,36.1 C45.4,37.1 45.4,37.2 48.8,37.4 C50.7,37.5 51.5,37.7 50.6,38 C49,38.4 48.8,40.2 48.8,57.9 L48.8,77.3 L53.3,77.3 C57.2,77.3 57.9,76.9 59.3,74.3 C60.1,72.7 60.8,70.5 60.8,69.4 C60.8,67.3 70,43 71.8,40.3 C73.3,38.1 76.9,30.1 76.6,29.7 C76.4,29.6 74.8,29.8 72.9,30.2 C70,30.7 69.2,31.5 67.9,35.1 C66.5,38.9 65.9,39.4 62.6,40 C59.4,40.5 58.8,41 58.8,42.9 C58.8,45.7 58.8,45.7 62.5,44.1 L65.3,43 L62.3,42.2 L59.3,41.4 L62.5,41.7 C64.3,41.8 66,41.5 66.2,40.9 C66.5,40.2 66.7,40.3 66.7,41 C66.8,43 58.3,63.4 54.4,70.4 C50.4,77.6 49.8,77.8 52.9,70.9 C54.8,66.5 54.9,65.2 54.1,51.3 C53.4,37.7 53.5,36.3 54.9,36.3 C55.8,36.3 56.8,37 57.2,37.8 C57.8,39.4 62.5,39.8 64.4,38.5 C65,38.1 66,36.8 66.7,35.6 C67.8,33.5 67.7,33.3 65.1,33.2 C63.6,33.1 61.2,32.7 59.8,32.3 C58.1,31.7 59,31.6 62.8,31.8 C66.5,32.1 67.3,32 65.3,31.5 C62.8,30.9 63.8,30.5 71.1,29.4 C75.9,28.7 80.2,28.4 80.5,28.7 C80.9,29 80.3,29.3 79.2,29.4 C77.7,29.5 77.9,29.7 79.8,30.3 C81.4,30.8 81.7,31.1 80.6,31.2 C78.6,31.3 76.2,35.1 77.5,36.4 C77.9,36.8 81.2,37.4 84.8,37.6 L91.3,37.9 L83.3,38.3 L75.3,38.7 L82.3,39.3 L89.3,39.9 L81.7,40.1 L74,40.3 L73,44.3 L72,48.3 L81.9,48.3 C90,48.3 91.8,48 91.8,46.8 C91.8,46 91,45.3 90.1,45.2 C88.6,45.2 88.6,45 90.3,44.3 C91.4,43.8 92.6,43.4 93.1,43.4 C93.5,43.3 93.8,50.6 93.8,59.6 C93.8,76.6 93.4,78.3 89.4,78.3 C88.4,78.3 87.7,78.5 88,78.8 C88.5,79.4 99.2,82.3 99.5,82 C99.9,81.5 100.4,44.2 100,40.6 C99.7,37.4 99.1,36.3 97.9,36.3 C97,36.3 95.6,35.7 94.9,35.1 C93.8,34.1 93.5,34.1 93.1,35.1 C92.8,35.9 90.6,36.3 86.5,36.2 L80.3,36 L86.1,34.9 C89.3,34.3 91.7,33.5 91.3,33.1 C90.9,32.8 91.4,31.3 92.3,30 C93.8,27.6 93.8,27.4 92.1,27 C90.6,26.6 90.7,26.5 92.5,26.4 C94,26.3 95.3,24.9 97,21.4 C99.4,16.7 103.5,10.3 104.9,9.3 C105.2,9 105.8,7.8 106.2,6.6 C106.6,5.4 107.7,3.4 108.8,2.1 C110.5,-0.2 111.1,-0.3 116,0.4 C118.9,0.8 124.3,1.2 128.1,1.2 C136.6,1.3 137,3.2 128.6,3.4 C122.9,3.6 123.2,3.7 131.6,4.3 C136.7,4.8 142,5.4 143.4,5.7 C145.2,6.2 145.8,6 145.2,5.2 C144.8,4.5 145,4.2 145.7,4.4 C147.7,5.1 147.1,6.8 144.6,7.5 C142.6,8 142.7,8.1 145.5,8.2 C147.2,8.3 148.9,8.7 149.2,9.1 C150.1,10.6 143.4,9.1 141.4,7.4 C139.6,5.9 139.5,5.9 140,8 C140.4,9.3 140.1,10.6 139.6,10.9 C139,11.3 139.7,12.2 141.2,13 C143.2,14 144.3,14.1 145.6,13.3 C147.1,12.3 147,12.2 145.1,12.6 C143.8,12.9 142.7,12.5 142.4,11.6 C142,10.6 142.3,10.3 143.6,10.7 C146.4,11.6 154.8,12.4 154.8,11.8 C154.8,11.5 153.8,10.8 152.6,10.3 C150.9,9.7 151.7,9.5 156,9.6 C159.1,9.7 161.4,10.2 161.1,10.7 C160.8,11.1 161.4,11.3 162.4,11 C163.5,10.7 166.1,10.8 168.3,11.2 L172.3,11.9 L167.8,12.6 C164.5,13.2 163.7,13.6 164.8,14.3 C165.9,15 165.6,15.3 163.6,15.3 C161.8,15.3 160.8,15.8 160.8,16.8 C160.8,17.6 160.3,18.3 159.7,18.3 C159.2,18.3 158.9,18.7 159.2,19.2 C159.6,19.7 159.2,20.3 158.6,20.6 C157.9,20.8 159.2,21.3 161.5,21.7 C164,22.2 165.5,22.9 165.3,23.6 C165.1,24.3 164.7,27.3 164.4,30.3 C164.1,33.3 163.7,37.4 163.5,39.3 C163.2,41.2 163.3,42 163.5,41.1 C164.5,37.2 165.7,39.7 166,46.1 C166.3,52.6 166.4,52.8 169.1,53.1 C172.8,53.5 172.6,55.3 168.8,55.3 C166,55.3 165.8,55.6 165.8,58.9 C165.8,63.8 163.7,65.2 156.3,65.3 C153,65.3 148.7,65.8 146.8,66.4 C144.9,67 141.1,67.8 138.3,68.1 L133.3,68.8 L133.5,108.6 C133.6,143.3 133.8,148.7 135.2,150.2 C137.2,152.4 137.3,156.7 135.2,158.3 C134.4,159.1 133.8,160.8 133.8,162.2 C133.9,163.6 134,165.3 133.9,166 C133.8,167.6 127.3,168.4 120.8,167.5 C115.3,166.8 115.3,166.8 115.6,163.5 L116,160.3 L104.9,160.3 L93.8,160.3 L93.8,165.9 C93.8,173.4 92.1,176.5 89.2,174.5 Z M60.2,152.3 C60.2,144.9 60.1,132.7 60,125.2 L59.8,111.5 L56.3,110.9 C54.4,110.5 52.1,109.5 51.2,108.6 C49.7,107 49.6,107.7 50.1,119.3 C50.5,126.2 50.8,139.5 50.8,148.9 L50.8,166.1 L55.6,165.9 L60.3,165.8 L60.2,152.3 Z M128.3,127.1 C127.9,105.5 127.7,84.1 127.7,79.6 C127.9,72.5 127.7,71.4 126.1,71 C125.1,70.7 125.8,70.5 127.7,70.4 C129.6,70.4 130.9,70 130.5,69.7 C130.2,69.3 130.9,68.2 132.1,67.2 C133.3,66.1 133.9,65.3 133.3,65.4 C131.1,65.7 130.6,65.2 131.7,63.9 C132.6,62.8 132.5,62.4 131.3,61.9 C130.4,61.6 130,60.8 130.4,60.2 C131.4,58.5 131.7,53.3 130.7,53.3 C130.2,53.3 129.8,52.8 129.8,52.2 C129.8,51.7 130.3,51.5 130.8,51.8 C131.4,52.1 131.8,52 131.8,51.4 C131.8,50.9 131.2,50.2 130.6,50 C129.9,49.7 130.2,49.4 131.2,49.4 C133.2,49.3 133.2,49.3 131.2,47.7 C129.6,46.4 129.6,46.2 131.1,46.7 C133.2,47.4 133.4,45.5 131.2,44.6 C129.9,44.1 129.9,43.9 131,43.2 C131.8,42.6 130.6,42.3 127.6,42.3 C125,42.3 121.7,41.8 120.1,41.2 C118.6,40.6 115.6,40 113.5,39.9 L109.8,39.8 L109.8,58 L109.8,76.3 L113.1,74.3 C116.8,72 120.3,71.4 117.6,73.6 C115.5,75.2 114,88 115.1,94.8 C115.8,99.2 115.1,99.9 111,99.5 C108.2,99.3 107.7,99.4 108.8,100.2 C109.6,100.8 111.5,101.3 113.1,101.3 L115.8,101.3 L115.8,110.2 C115.8,118.6 115.9,119.2 118,119.5 C121.2,120 121.3,122.1 118.3,123.5 C115.8,124.6 115.6,125 116.2,129.1 C116.5,131.6 116.8,140.9 116.8,149.9 L116.8,166.3 L122.9,166.3 L129.1,166.3 L128.3,127.1 Z M64.3,164.3 C64.7,163.7 64.4,162.6 63.8,161.8 C63.1,161 62.7,160.2 62.9,160.1 C63.1,160 75,159.7 89.3,159.4 L115.3,158.8 L115.2,154.8 L115.1,150.8 L89,151.2 C71.3,151.4 62.8,151.2 62.8,150.5 C62.8,149.9 63.2,149.2 63.7,148.9 C64.1,148.6 64.4,145.9 64.4,142.8 C64.3,139.8 64.6,137.3 65.1,137.3 C65.5,137.3 65.5,136.5 65,135.6 C64.5,134.6 64.3,133.2 64.5,132.5 C64.8,131.8 64.4,131.4 63.8,131.5 C63.1,131.7 62.3,131.1 62.1,130.3 C61.7,129 61.8,129 62.7,130.3 C63.9,132 64,131.9 64.3,127.8 C64.4,126.2 64.1,124.2 63.5,123.6 C62.9,122.7 63,121.8 63.8,120.7 C64.9,119.5 64.9,118.9 63.6,117.7 C62.2,116.3 62.1,116.4 62.2,118.5 C62.3,119.8 62.2,121.3 61.9,121.8 C61,123.4 61.1,127.2 62,126.7 C62.4,126.4 62.8,126.6 62.8,127.2 C62.8,127.7 62.4,128.4 61.8,128.8 C61.3,129.1 61.1,131 61.4,133.1 C61.7,135.1 62,137.3 62.1,138 C62.1,138.7 62.5,139 63,138.7 C63.4,138.4 63.8,138.6 63.8,139.2 C63.8,139.7 63.4,140.4 62.9,140.8 C62.3,141.1 62,142.2 62.1,143.3 C62.2,144.3 62.6,144.9 63,144.7 C64,144.1 64.1,145.7 63.1,146.6 C62.2,147.5 62.1,165.3 63,165.3 C63.4,165.3 64,164.8 64.3,164.3 Z M132.3,162.1 C131.7,159.3 130.1,157.6 130.3,160 C130.4,161.8 131.6,164.3 132.3,164.3 C132.5,164.3 132.5,163.3 132.3,162.1 Z M49.8,155.9 C49.8,154 49.4,152.1 48.8,151.8 C48.2,151.4 47.8,152.8 47.8,155.2 C47.8,157.5 48.3,159.3 48.8,159.3 C49.4,159.3 49.8,157.8 49.8,155.9 Z M133.5,154.3 C133.4,152.1 133,150.3 132.6,150.3 C132.2,150.3 131.8,152.1 131.8,154.3 C131.8,156.5 132.2,158.3 132.7,158.3 C133.3,158.3 133.6,156.5 133.5,154.3 Z M132,148.9 C132.6,149.3 132.7,148.9 132.1,147.7 C131.6,146.6 131.3,144.3 131.4,142.5 C131.5,140.6 131.3,139.4 131,139.8 C130.6,140.1 130.3,142.8 130.2,145.6 C130.2,148.5 130.3,150.2 130.6,149.5 C130.8,148.9 131.4,148.6 132,148.9 Z M78.4,148.7 C83.5,148.1 84.5,147.7 85.6,145.5 C86.3,144.1 86.8,141.1 86.8,138.9 C86.8,135.8 86.2,134.4 84.2,132.8 C81.9,131 81.7,130.1 81.6,123.3 C81.5,115.9 81.5,115.8 84.1,115.5 C85.6,115.3 86.8,114.7 86.8,114.2 C86.8,113 85.1,113.1 82.5,114.4 C81.3,115.1 77.1,115.5 73.1,115.4 L65.8,115.2 L65.9,131.5 C66,140.5 66.3,148.1 66.5,148.6 C67,149.5 70.6,149.5 78.4,148.7 Z M115.3,142.1 C115.2,138.6 115,133.2 114.9,130 L114.8,124.1 L105.6,124.8 C100.5,125.2 95.6,126 94.8,126.5 C93.6,127.3 93.6,127.4 95.1,126.9 C96.4,126.5 96.8,126.9 96.8,129 C96.8,130.4 96,132.2 95.1,132.9 C93.7,133.9 93.3,135.6 93.3,141.2 L93.3,148.3 L104.4,148.3 L115.5,148.3 L115.3,142.1 Z M89.8,146.4 C89.8,145.8 89.4,145.1 88.8,144.8 C88.3,144.5 87.8,144.9 87.8,145.7 C87.8,146.6 88.3,147.3 88.8,147.3 C89.4,147.3 89.8,146.9 89.8,146.4 Z M90.8,138.7 C90.2,138.1 90,137.3 90.3,136.9 C90.6,136.6 90.3,136.7 89.8,137.1 C89.2,137.6 88.6,138.9 88.3,140.1 C88,142 88.2,142.1 89.8,141.1 C91.1,140.3 91.4,139.5 90.8,138.7 Z M131.8,135.5 C131.8,132 130.2,131.4 130.1,134.8 C130,136.7 130.4,138 130.9,137.7 C131.4,137.4 131.8,136.4 131.8,135.5 Z M91.4,132 C91.8,130.8 92.2,128.9 92.3,127.8 C92.4,126.7 92.6,125.4 92.8,124.8 C93.3,122.8 92.8,121.2 91.8,121.8 C91.2,122.2 90.9,121.9 91,121.2 C91.2,120.6 90.7,119.8 90,119.6 C89.3,119.3 89,119.7 89.4,120.6 C89.7,121.4 89.5,122.4 88.9,122.8 C88.2,123.2 88.1,122.8 88.5,121.7 C89,120.4 88.8,120.2 87.7,120.8 C86.5,121.5 86.5,121.4 87.6,120.1 C88.4,119.1 88.5,118.3 87.9,117.9 C86.6,117.1 84.5,121 85.4,122.5 C85.8,123.2 85.7,123.3 84.9,122.9 C84.3,122.5 84,121.3 84.3,120.3 C84.6,119.3 84.5,118.2 84.1,118 C83.7,117.7 83.3,119.9 83.3,122.8 C83.3,126.1 83.6,127.9 84.3,127.5 C84.8,127.2 84.7,127.7 83.9,128.7 C83.1,129.6 82.9,130.3 83.4,130.2 C86,129.7 87.9,130.4 87.2,131.6 C86.7,132.4 87,132.3 88.1,131.4 C90.4,129.6 91.5,130.8 89.4,132.8 C87.4,134.8 87.4,135.4 89.3,134.7 C90.1,134.4 91,133.1 91.4,132 Z M131.1,122.8 C130.8,121.2 130.2,119.4 129.7,118.9 C129.3,118.4 129.3,119.7 129.8,121.7 C130.2,123.7 130.4,126.3 130.2,127.6 C129.8,129.6 129.8,129.7 130.7,127.8 C131.2,126.7 131.3,124.5 131.1,122.8 Z M109.8,123.2 L117.3,123 L109.4,122.1 C104.1,121.5 101.1,121.6 100.4,122.3 C99.9,122.8 98.4,123.3 97.1,123.3 C95.8,123.3 94.8,123.7 94.8,124.2 C94.8,124.7 96.4,124.7 98.6,124.2 C100.6,123.7 105.7,123.3 109.8,123.2 Z M93.9,120 C93.3,119.2 93,118.4 93.3,118.2 C93.5,117.9 92.8,117.7 91.7,117.6 C89.8,117.4 89.9,117.5 92,119.3 C94.7,121.6 95.5,121.8 93.9,120 Z M115.9,120.4 C115.4,120.1 114.8,118.4 114.6,116.8 L114.3,113.8 L106.5,113.9 C98.1,114.1 97.3,114.4 96.3,118.3 L95.7,120.8 L106.3,120.9 C112.1,120.9 116.4,120.7 115.9,120.4 Z M130.5,114.4 C130.4,112.7 130,111.7 129.6,112.1 C128.9,112.8 129.6,117.3 130.4,117.3 C130.6,117.3 130.6,116 130.5,114.4 Z M77.8,112.3 C77.8,111.7 74.5,111.3 69.9,111.3 C65.5,111.3 61.6,111.8 61.3,112.3 C60.9,112.9 63.8,113.3 69.2,113.3 C74.3,113.3 77.8,112.9 77.8,112.3 Z M114,111.1 C112.9,110 97.8,111 97.8,112.2 C97.8,112.5 101.7,112.7 106.4,112.5 C112.3,112.3 114.7,111.8 114,111.1 Z M93.6,111.1 C93.4,110.2 95.5,109.6 100.8,109.3 L108.3,108.8 L103.8,107.6 C101.3,107 100.1,106.5 101.1,106.4 C102,106.3 102.8,105.9 102.8,105.4 C102.8,103.4 61.7,104.3 59.2,106.4 C58.6,106.9 56.7,107 54.9,106.7 C52.9,106.3 51.8,106.4 51.8,107.2 C51.8,107.9 55,108.4 61.1,108.5 L70.3,108.7 L62.8,109.3 C55.9,109.9 56.2,110 67.6,110.1 C75.5,110.2 79.7,110.7 79.3,111.3 C78.9,111.9 81.5,112.3 86.2,112.3 C91.8,112.3 93.7,112 93.6,111.1 Z M130.8,103.8 C130.2,102.3 129.5,101.3 129.2,101.5 C129,101.8 129.3,103.2 129.9,104.7 C131.5,108.1 132.2,107.4 130.8,103.8 Z M58.6,105.5 C59.9,104.6 59.9,96.1 58.6,94.8 C58.2,94.4 57,94.4 55.9,94.8 C53.6,95.5 53.1,99.3 54.8,103.7 C55.8,106.4 56.5,106.8 58.6,105.5 Z M53.3,103.3 C53.7,102.7 52.8,102.3 51.4,102.3 C50,102.3 48.8,102.8 48.8,103.3 C48.8,103.9 49.7,104.3 50.7,104.3 C51.8,104.3 53,103.9 53.3,103.3 Z M109.5,102.1 C109.2,101.3 108.9,101.6 108.9,102.7 C108.8,103.8 109.1,104.4 109.4,104 C109.7,103.7 109.8,102.8 109.5,102.1 Z M102.3,101.4 C102.6,100.6 102.7,99.9 102.5,99.7 C102.3,99.5 95.6,99.7 87.7,100.3 C65.7,101.8 64.1,101.7 63.5,99.1 C62.8,96.4 61.3,97.6 61.3,100.9 L61.2,103.3 L81.5,103 C97.7,102.8 101.9,102.5 102.3,101.4 Z M52.6,98.6 C52.2,94.7 49.8,94.4 49.8,98.2 C49.8,100.3 50.3,101.3 51.4,101.3 C52.5,101.3 52.8,100.5 52.6,98.6 Z M68.5,99.2 C67.1,98.4 66.3,98.4 65.5,99.2 C64.7,100 65.2,100.3 67.4,100.3 C69.9,100.2 70.1,100.1 68.5,99.2 Z M75.1,99.6 C74.4,99.4 73,99.4 72.1,99.6 C71.1,99.9 71.7,100.1 73.3,100.1 C75,100.1 75.7,99.9 75.1,99.6 Z M75.8,97.3 C73.8,96 71.5,96 72.3,97.3 C72.6,97.9 73.9,98.3 75.1,98.3 C76.9,98.3 77,98.1 75.8,97.3 Z M73.3,95.3 C74.9,94.6 74.6,94.4 71.6,94.4 C69.5,94.3 66,93.6 63.8,92.7 C61.5,91.8 59.5,91.3 59.1,91.6 C58.8,91.9 59.7,92.5 61.2,92.9 C62.6,93.2 63.8,93.9 63.8,94.3 C63.8,95 66.6,95.8 70.3,96.1 C70.9,96.1 72.2,95.8 73.3,95.3 Z M87.4,94.5 C89,94.8 89.7,94.8 89,94.6 C88.3,94.3 88,93.8 88.3,93.3 C88.6,92.9 87.9,92.7 86.7,93 C85.5,93.3 84.3,93.1 83.9,92.5 C83.5,91.8 82.7,91.7 81.8,92.3 C80.8,93 80.7,93.3 81.6,93.3 C82.2,93.3 82.8,94.1 82.8,95.1 C82.8,96.4 83,96.5 83.7,95.4 C84.2,94.6 85.7,94.3 87.4,94.5 Z M131,91.8 C130.2,90.2 130.1,90.2 129.5,91.7 C129.1,92.7 129.2,93.2 129.8,92.8 C130.4,92.5 130.8,92.7 130.8,93.4 C130.8,94.1 131.1,94.4 131.4,94 C131.7,93.7 131.6,92.7 131,91.8 Z M79.5,91.7 C79.2,91.4 78.3,91.3 77.6,91.6 C76.8,91.9 77.1,92.2 78.2,92.2 C79.3,92.3 79.9,92 79.5,91.7 Z M113.1,89.3 C113.4,88.2 113.2,87.3 112.7,87.3 C112.2,87.3 111.8,88.2 111.8,89.3 C111.8,90.4 112,91.3 112.2,91.3 C112.4,91.3 112.8,90.4 113.1,89.3 Z M107.5,86.6 C107.2,85.6 107,86.2 107,87.8 C107,89.5 107.2,90.2 107.5,89.6 C107.7,88.9 107.7,87.5 107.5,86.6 Z M105.8,87.6 C105.8,86.6 104.9,84.5 103.8,82.8 C102.7,81.2 101.8,80.2 101.8,80.6 C101.8,81 102.5,82.5 103.4,83.8 C104.3,85.2 104.6,86.3 104,86.3 C103.4,86.3 102.7,85.7 102.5,85.1 C102.2,84.4 101.9,84.7 101.9,85.9 C101.8,87 102.1,88.3 102.5,88.6 C103.8,89.9 105.8,89.3 105.8,87.6 Z M94.4,82.8 C93.6,80.5 91.8,81 91.9,83.6 C91.9,85.7 92,85.7 92.8,83.8 C93.6,82 93.7,82 93.8,84.3 C93.9,85.7 94.2,86.2 94.5,85.5 C94.8,84.8 94.7,83.6 94.4,82.8 Z M97.5,84.1 C97.2,83.3 96.9,83.6 96.9,84.7 C96.8,85.8 97.1,86.4 97.4,86 C97.7,85.7 97.8,84.8 97.5,84.1 Z M12.5,82.1 C12.2,81.4 12,81.9 12,83.3 C12,84.7 12.2,85.2 12.5,84.6 C12.7,83.9 12.7,82.7 12.5,82.1 Z M14.5,82.1 C14.2,81.4 14,81.9 14,83.3 C14,84.7 14.2,85.2 14.5,84.6 C14.7,83.9 14.7,82.7 14.5,82.1 Z M16.5,82.1 C16.2,81.4 16,81.9 16,83.3 C16,84.7 16.2,85.2 16.5,84.6 C16.7,83.9 16.7,82.7 16.5,82.1 Z M22.7,82.6 C22.7,80.1 22.6,80 21.8,81.8 C21.3,82.9 20.9,83.2 20.9,82.6 C20.8,80.4 17.8,81.2 17.8,83.3 C17.8,84.8 18.5,85.3 20.3,85.3 C22.4,85.3 22.8,84.8 22.7,82.6 Z M90.5,82.1 C90.2,81.4 90,81.9 90,83.3 C90,84.7 90.2,85.2 90.5,84.6 C90.7,83.9 90.7,82.7 90.5,82.1 Z M111.4,82.8 C111.3,82 110.3,80.6 109.2,79.7 C107.4,78.3 107.4,78.2 109.8,78.9 C111.2,79.3 112.9,79.8 113.6,80 C114.4,80.3 114.8,79.6 114.8,77.9 C114.8,75.3 112.6,74.3 111.3,76.3 C110.9,76.9 109.8,77.1 108.9,76.8 C107.4,76.4 107.1,76.8 107.2,79.1 C107.3,82.2 109.5,85.6 110.8,84.8 C111.3,84.5 111.5,83.6 111.4,82.8 Z M88.8,83.9 C88.8,83.7 88.5,82.7 88.2,81.8 C87.7,80.5 87.4,80.4 86.7,81.5 C86,82.5 85.8,82.5 85.8,81.2 C85.8,79.5 82.8,79 82.7,80.7 C82.7,81.3 82.3,80.9 81.8,79.8 C81,77.8 80.9,77.8 80.9,79.9 C80.8,81.2 81.7,82.3 83.6,83 C86.5,84.2 88.8,84.6 88.8,83.9 Z M131.4,78.5 C131.2,76.4 130.6,73.8 130,72.7 C129.1,71.2 129,71.7 129.2,75.4 C129.5,79.7 130.3,82.3 131.3,82.3 C131.5,82.3 131.6,80.6 131.4,78.5 Z M84.9,77 C84.3,76.2 84.1,75.4 84.4,75.1 C84.7,74.8 84.5,74.2 84,73.9 C83.4,73.6 83.1,73.9 83.2,74.5 C83.4,76.1 84.7,78.3 85.5,78.3 C85.8,78.3 85.5,77.7 84.9,77 Z M91.5,76.1 C92.9,74.3 93,68.6 91.8,66.3 C91,64.8 91,64.3 92,64.2 C92.7,64.2 92.4,63.8 91.3,63.3 L89.3,62.4 L91.3,62.4 C93,62.3 93,62.1 91.8,61.3 C90.5,60.4 90.5,60.3 91.8,60.2 C92.8,60.2 92.6,59.9 91.3,59.3 C89.8,58.7 89.7,58.4 90.9,58.4 C93.5,58.3 92.7,55.3 89.9,54.6 L87.3,53.9 L89.8,53.2 L92.3,52.5 L89.6,52.4 L86.9,52.3 L86.6,61.6 C86.2,74.2 86.6,77.3 88.8,77.3 C89.8,77.3 91,76.7 91.5,76.1 Z M81.8,64 C81.8,57.2 81.5,51.4 81.2,51.1 C80.9,50.8 79.8,50.7 78.7,51 C77,51.5 76.8,52.5 76.8,63.9 L76.8,76.3 L79.3,76.3 L81.8,76.3 L81.8,64 Z M46.4,53.7 C45.3,50.5 45.3,49.3 46.1,48.8 C46.8,48.5 46.3,48.5 45.2,48.7 C44,48.9 42.4,48.7 41.7,48.2 C40.7,47.6 40.9,47 42.5,45.6 C44.2,44.1 44.4,43.3 43.6,40.5 C42.6,36.8 40.7,36.7 39.7,40.4 C39.2,42 39,42.2 38.9,41.1 C38.8,39.1 36.8,38.6 36.8,40.6 C36.8,41.2 39.1,48.7 42,57.1 L47.3,72.4 L47.6,65.2 C47.8,60.8 47.3,56.4 46.4,53.7 Z M83.9,66 C83,65.1 82.9,65.5 83.2,67.3 C83.8,70.9 84,71 84.5,68.9 C84.8,67.9 84.5,66.6 83.9,66 Z M103.8,65.3 C101,62.5 100.2,63.2 102.8,66.1 C103.9,67.3 104.9,68.8 104.9,69.5 C105,70.2 105.2,70 105.5,69.1 C105.7,68.2 105,66.5 103.8,65.3 Z M142.5,66.2 C144,65.6 148.8,64.8 153.1,64.3 C157.4,63.9 161,63.4 161.2,63.2 C161.4,63 161.8,54.6 162.1,44.5 C162.4,34.5 162.9,25.9 163.2,25.5 C163.4,25.1 161.4,25 158.7,25.1 C152.5,25.6 148.8,29.4 148.8,35.4 C148.8,39.4 148.1,40.2 146,38.1 C145.1,37.2 144.8,37.2 144.8,38.1 C144.8,38.8 144.1,39.3 143.3,39.3 C142.5,39.3 141.8,39.8 141.8,40.3 C141.8,40.9 140.8,41.4 139.6,41.4 C137.7,41.5 137.8,41.7 140.3,42.4 C142.6,43 142.2,43.1 138.6,42.7 L133.8,42.2 L133.8,51.6 C133.8,64.5 134.4,67.3 137.4,67.3 C138.6,67.3 140.9,66.8 142.5,66.2 Z M31.5,64.7 C31.2,64.4 30.3,64.3 29.6,64.6 C28.8,64.9 29.1,65.2 30.2,65.2 C31.3,65.3 31.9,65 31.5,64.7 Z M84.5,62.3 C84.4,60.2 83.5,60.5 83.2,62.8 C83.1,63.6 83.4,64.3 83.8,64.3 C84.3,64.3 84.6,63.4 84.5,62.3 Z M103.5,60.3 C103.6,59.2 103.3,58.1 102.9,57.9 C102.3,57.5 102.2,60.5 102.7,62.1 C103,62.9 103.4,62 103.5,60.3 Z M164.7,53.6 C164.6,49.4 164.2,46.6 163.8,47.4 C163.1,48.7 163.6,61.3 164.4,61.3 C164.6,61.3 164.8,57.8 164.7,53.6 Z M57.6,57.3 C56.9,56.3 56.2,55.6 55.9,55.8 C55.5,56.2 57.7,59.3 58.4,59.3 C58.6,59.3 58.3,58.4 57.6,57.3 Z M34.8,54.3 C34.8,53.8 34.1,53.6 33.3,53.9 C32.5,54.3 31.8,54.7 31.8,54.9 C31.8,55.1 32.5,55.3 33.3,55.3 C34.1,55.3 34.8,54.9 34.8,54.3 Z M102.9,53 C101.9,52.1 101.8,52.2 102.4,53.6 C102.7,54.6 103.3,55.1 103.6,54.8 C103.9,54.5 103.6,53.7 102.9,53 Z M60.6,50.8 C60.6,48 58.8,47.3 58.7,50.1 C58.7,51.1 58.1,50.5 57.2,48.5 C56.4,46.7 56.1,44.7 56.4,44 C56.9,43.1 56.8,43.1 55.8,44 C54.8,44.9 55,46 56.8,49.7 C59.1,54.6 60.6,55 60.6,50.8 Z M74.3,50.3 C71.5,49.1 70.6,49.1 71.3,50.3 C71.6,50.9 72.9,51.3 74.1,51.2 C76.2,51.2 76.2,51.1 74.3,50.3 Z M90.3,50.3 C88.7,49.9 86.2,49.5 84.8,49.5 C82.5,49.4 82.5,49.5 84.3,50.3 C85.4,50.8 87.9,51.1 89.8,51.1 L93.3,51.1 L90.3,50.3 Z M38,49.6 C37.4,49.4 37.1,48.6 37.5,48 C37.9,47.4 37.5,47.2 36.5,47.6 C34.4,48.4 31.6,47.4 32.4,46.2 C32.7,45.7 32.4,45.3 31.9,45.3 C31.3,45.3 30.8,46.2 30.8,47.2 C30.8,48.6 31.6,49.3 33.6,49.6 C37.7,50.2 39.5,50.2 38,49.6 Z M44.3,47.3 C44.6,46.8 44.4,46.3 43.9,46.3 C43.3,46.3 42.8,46.8 42.8,47.3 C42.8,47.9 43,48.3 43.2,48.3 C43.5,48.3 44,47.9 44.3,47.3 Z M105.5,41.6 C105.3,40 105.1,41.1 105.1,43.8 C105.1,46.6 105.3,47.8 105.5,46.6 C105.7,45.3 105.7,43.1 105.5,41.6 Z M9.8,45.3 C9.8,43.7 8.1,43.3 7,44.6 C6.2,45.6 6.4,45.9 7.9,46 C8.9,46.1 9.8,45.8 9.8,45.3 Z M103.1,42.8 C102.8,41.9 102.3,41.4 102.1,41.7 C101.8,42 101.9,42.6 102.3,43.2 C103.2,44.8 103.8,44.5 103.1,42.8 Z M144.8,29.2 C149.2,22.6 152.4,17.3 152,17.3 C147.9,17.3 139,15 137.4,13.5 C136.2,12.5 133.6,11.5 131.6,11.4 C129.5,11.3 124.9,10.3 121.3,9.2 C117.7,8.1 114.2,7.5 113.5,7.9 C112.9,8.3 113.2,7.7 114.2,6.5 C115.9,4.6 115.9,4.3 114.5,4.3 C113.5,4.3 112.8,3.9 112.8,3.3 C112.8,1.5 110,3.4 109.4,5.6 C109.1,6.9 107.9,8.8 106.8,10.1 C105.7,11.3 105.1,12.3 105.5,12.3 C105.9,12.3 105.5,12.8 104.5,13.4 C103.6,14 103,14.8 103.3,15.4 C103.7,15.9 103.5,16.3 103,16.3 C101.5,16.3 97.7,23.3 98.4,24.5 C98.8,25.2 98.6,25.3 98,24.9 C97.3,24.5 96.1,25.8 94.8,28.2 C92.6,32.5 93.8,35 96.4,31.7 C97.8,29.9 97.8,29.9 96.9,32 C95.4,35 95.5,35.3 97.8,35.3 C98.9,35.3 103.2,36.3 107.3,37.5 L114.8,39.7 L117.2,37.4 C118.5,36.1 122.2,30.4 125.3,24.7 C128.5,19 131.5,14 132.1,13.6 C132.7,13.2 132,14.9 130.6,17.4 C129.2,19.8 126.6,24.5 124.7,27.8 C122.9,31.1 120.6,35 119.6,36.5 C117.8,39.1 117.8,39.1 120.5,40.1 C122.1,40.6 126.4,41.1 130.1,41.1 L137,41.1 L144.8,29.2 Z M27.1,32.6 C27.5,30.7 27.3,29.3 26.8,29.3 C26.2,29.3 25.8,31 25.8,33 C25.8,37.3 26.3,37.1 27.1,32.6 Z M29.6,32.1 C29.8,29.6 29.6,29.2 28.8,30.3 C27.6,32.1 27.5,35.3 28.6,35.3 C29,35.3 29.5,33.8 29.6,32.1 Z M155.3,22.3 C155.6,22.8 156.5,23.3 157.1,23.3 C158,23.3 157.9,23 157,22.5 C156,21.8 156.2,21.1 157.8,19.1 C160.2,16 160.3,15.2 158.3,16 C157.4,16.3 155.4,18.6 153.7,21.2 C152,23.7 151.6,24.8 152.7,23.5 C153.8,22.2 154.9,21.7 155.3,22.3 Z M161.5,22.7 C161.2,22.4 160.3,22.3 159.6,22.6 C158.8,22.9 159.1,23.2 160.2,23.2 C161.3,23.3 161.9,23 161.5,22.7 Z M60.8,17.8 C60.8,17 60.4,16.3 59.8,16.3 C59.3,16.3 59.1,17 59.4,17.8 C59.8,18.6 60.2,19.3 60.4,19.3 C60.6,19.3 60.8,18.6 60.8,17.8 Z M161.6,12.6 C160.6,12.4 158.8,12.4 157.6,12.6 C156.3,12.8 157.1,13 159.3,13 C161.5,13.1 162.5,12.9 161.6,12.6 Z M123.3,7.3 C120.6,6.1 119,6.1 120.8,7.3 C121.6,7.8 123,8.2 123.8,8.2 C124.8,8.2 124.6,7.9 123.3,7.3 Z M134.3,6.3 C135.8,5.7 135.4,5.6 132.6,5.6 C130.6,5.7 129.1,6.1 129.4,6.5 C130,7.5 131.6,7.4 134.3,6.3 Z" id="Shape"></path>
                <path d="M119.7,80.5 C118.7,80.4 117.8,79.2 117.4,78 C116.7,75.2 117.4,74.5 118.3,77.2 C118.6,78.4 119.8,79.3 120.9,79.3 C123.1,79.3 123.2,78.7 121.3,75.3 C119.4,72 119.5,71.3 121.7,71.3 C123.6,71.3 124.8,73.8 124.8,77.9 C124.8,80.1 122.7,81.2 119.7,80.5 Z" id="Path"></path>
                <path d="M114.1,69.6 C114.1,68.4 117,67.6 121.7,67.5 C125,67.4 123.4,68.5 118.4,69.8 C115.1,70.7 114.1,70.6 114.1,69.6 Z" id="Path"></path>
                <path d="M114.6,66.6 C115.3,66.3 116.2,66.4 116.5,66.7 C116.9,67 116.3,67.3 115.2,67.2 C114.1,67.2 113.8,66.9 114.6,66.6 Z" id="Path"></path>
                <path d="M121.6,65.6 C122.3,65.3 123.2,65.4 123.5,65.7 C123.9,66 123.3,66.3 122.2,66.2 C121.1,66.2 120.8,65.9 121.6,65.6 Z" id="Path"></path>
                <path d="M116.1,64.6 C117,64.4 118.4,64.4 119.1,64.6 C119.7,64.9 119,65.1 117.3,65.1 C115.7,65.1 115.1,64.9 116.1,64.6 Z" id="Path"></path>
                <path d="M121.6,63.6 C122.3,63.3 123.2,63.4 123.5,63.7 C123.9,64 123.3,64.3 122.2,64.2 C121.1,64.2 120.8,63.9 121.6,63.6 Z" id="Path"></path>
                <path d="M114.8,62.3 C114.8,61.8 115.7,61.3 116.7,61.3 C117.8,61.3 119,61.8 119.3,62.3 C119.7,62.9 118.8,63.3 117.4,63.3 C116,63.3 114.8,62.9 114.8,62.3 Z" id="Path"></path>
                <path d="M120.8,61.4 C120.8,60.8 119.5,60.3 117.9,60.3 C116.2,60.3 114.7,60 114.5,59.6 C114.2,59.1 116.2,59 118.9,59.1 C121.9,59.4 123.8,59.9 123.5,60.6 C123,62.1 120.8,62.7 120.8,61.4 Z" id="Path"></path>
                <path d="M115.4,57.4 C115,56.9 116.6,56.7 119,57 C124.7,57.8 125.1,58.3 120,58.3 C117.8,58.3 115.7,57.9 115.4,57.4 Z" id="Path"></path>
                <path d="M115.8,55.3 C114.8,54.6 115.7,54.5 118.8,54.9 C124.4,55.7 125.2,56.3 120.7,56.3 C118.8,56.3 116.6,55.8 115.8,55.3 Z" id="Path"></path>
                <path d="M116.8,53.3 C114.5,52.6 114.5,52.5 117.8,52.3 L121.3,52 L117.3,51.3 L113.3,50.6 L118.3,50.4 C122.8,50.3 123.4,50.5 123.4,52.3 C123.4,54.5 121.4,54.8 116.8,53.3 Z" id="Path"></path>
                <path d="M62.4,124.6 C61.8,123.2 61.9,123.1 62.9,124 C63.6,124.7 63.9,125.5 63.6,125.8 C63.3,126.1 62.7,125.6 62.4,124.6 Z" id="Path"></path>
                <path d="M85.6,110.6 C86.3,110.3 87.2,110.4 87.5,110.7 C87.9,111 87.3,111.3 86.2,111.2 C85.1,111.2 84.8,110.9 85.6,110.6 Z" id="Path"></path>
                <path d="M78.6,107.6 C82,107.4 87.4,107.4 90.6,107.6 C93.7,107.8 90.9,107.9 84.3,107.9 C77.7,107.9 75.1,107.8 78.6,107.6 Z" id="Path"></path>
                <path d="M108.7,82.6 C107.4,81 107.5,80.9 109.1,82.2 C110.7,83.5 111.2,84.3 110.4,84.3 C110.2,84.3 109.4,83.5 108.7,82.6 Z" id="Path"></path>
                <path d="M138.6,62.6 C139.3,62.3 140.2,62.4 140.5,62.7 C140.9,63 140.3,63.3 139.2,63.2 C138.1,63.2 137.8,62.9 138.6,62.6 Z" id="Path"></path>
                <path d="M143.6,61.7 C146,60 147.5,60.3 146.3,62.2 C146,62.8 144.7,63.3 143.5,63.3 L141.4,63.3 L143.6,61.7 Z" id="Path"></path>
                <path d="M149.1,59.3 C149.1,56.8 149.3,55.8 149.5,57.1 C149.7,58.3 149.7,60.3 149.5,61.6 C149.3,62.8 149.1,61.8 149.1,59.3 Z" id="Path"></path>
                <path d="M138.8,60.3 C138.8,59.7 140.3,59.2 142.1,59.2 L145.3,59 L141.8,58.3 C138.3,57.6 138.3,57.6 141.3,57.4 C143,57.4 145,57.7 145.7,58.2 C146.9,59 146.5,59.3 144.2,59.8 C142.6,60.2 140.7,60.6 140.1,60.9 C139.4,61.1 138.8,60.8 138.8,60.3 Z" id="Path"></path>
                <path d="M152.6,60.6 C153.8,60.4 155.6,60.4 156.6,60.6 C157.5,60.9 156.5,61.1 154.3,61 C152.1,61 151.3,60.8 152.6,60.6 Z" id="Path"></path>
                <path d="M140.1,55.6 C141,55.4 142.6,55.4 143.6,55.6 C144.5,55.9 143.7,56.1 141.8,56.1 C139.9,56.1 139.1,55.9 140.1,55.6 Z" id="Path"></path>
                <path d="M138.8,53.9 C138.8,53.7 140.3,53.3 142.2,53.1 C144.1,52.9 145.4,53.1 145.2,53.5 C144.7,54.3 138.8,54.7 138.8,53.9 Z" id="Path"></path>
                <path d="M154.1,52.6 C155,52.4 156.4,52.4 157.1,52.6 C157.7,52.9 157,53.1 155.3,53.1 C153.7,53.1 153.1,52.9 154.1,52.6 Z" id="Path"></path>
                <path d="M139.1,51.6 C140,51.4 141.6,51.4 142.6,51.6 C143.5,51.9 142.7,52.1 140.8,52.1 C138.9,52.1 138.1,51.9 139.1,51.6 Z" id="Path"></path>
                <path d="M141.8,50.3 L138.3,49.6 L141.8,49.4 C144.5,49.3 144.9,49 143.8,48.3 C143,47.8 142.8,47.3 143.3,47.3 C143.9,47.3 145,47.8 145.8,48.3 C146.9,49 146.9,49.3 146,49.3 C145.3,49.3 145,49.8 145.3,50.3 C145.6,50.9 145.8,51.2 145.6,51.2 C145.4,51.1 143.7,50.7 141.8,50.3 Z" id="Path"></path>
                <path d="M154.1,50.6 C155,50.4 156.6,50.4 157.6,50.6 C158.5,50.9 157.7,51.1 155.8,51.1 C153.9,51.1 153.1,50.9 154.1,50.6 Z" id="Path"></path>
                <path d="M156.6,48.6 C157.3,48.3 158.2,48.4 158.5,48.7 C158.9,49 158.3,49.3 157.2,49.2 C156.1,49.2 155.8,48.9 156.6,48.6 Z" id="Path"></path>
                <path d="M138.4,45.4 C139.7,44.2 146.8,43.2 146.8,44.3 C146.8,45.4 144.1,46.3 140.5,46.3 C138.7,46.3 137.8,45.9 138.4,45.4 Z" id="Path"></path>
                <path d="M148.4,44 C148.7,43 149.3,42.5 149.6,42.8 C149.9,43.1 149.6,43.9 148.9,44.6 C147.9,45.5 147.8,45.4 148.4,44 Z" id="Path"></path>
                <path d="M154.6,43.6 C155.8,43.4 157.6,43.4 158.6,43.6 C159.5,43.9 158.5,44.1 156.3,44 C154.1,44 153.3,43.8 154.6,43.6 Z" id="Path"></path>
                <path d="M155.1,35.6 C156,35.4 157.4,35.4 158.1,35.6 C158.7,35.9 158,36.1 156.3,36.1 C154.7,36.1 154.1,35.9 155.1,35.6 Z" id="Path"></path>
                <path d="M128.8,36.6 C123.9,36.1 121.9,35 123.9,33.8 C124.6,33.3 124.9,33.4 124.5,34 C124,34.8 125.7,35 129.6,34.7 C133,34.5 134.8,34.7 133.9,35.2 C132.8,35.9 132.8,36.1 133.9,36.6 C134.7,36.9 134.9,37.1 134.3,37 C133.8,37 131.3,36.8 128.8,36.6 Z" id="Path"></path>
                <path d="M105.3,33.3 C104.2,32.8 103.9,32.4 104.6,32.4 C105.3,32.3 105.7,31.9 105.3,31.4 C105,30.9 105.7,29.8 106.8,29 C107.9,28.3 108.5,27.3 108.1,26.9 C107.7,26.5 108.2,26.5 109.2,26.9 C110.8,27.5 110.7,27.8 108.2,29.2 L105.3,30.7 L108.1,31.7 C109.6,32.2 110.8,33 110.8,33.5 C110.8,34.5 107.9,34.4 105.3,33.3 Z" id="Path"></path>
                <path d="M135.5,33.7 C135.3,33.4 133.2,33.2 130.9,33.1 C128.6,33.1 126.8,32.9 126.8,32.8 C126.8,32.4 136.6,29.3 137.9,29.3 C138.6,29.3 138.3,30 137.2,30.8 C135,32.5 136,32.8 139,31.2 C142.1,29.5 142.1,30.7 138.9,32.6 C137.4,33.5 135.8,34 135.5,33.7 Z" id="Path"></path>
                <path d="M100.3,28.3 C101.7,25.5 102.7,22.9 102.4,22.4 C102.1,22 102.5,21.6 103.3,21.6 C104.3,21.6 103.8,23.2 101.7,27.5 C100.1,30.7 98.5,33.3 98.3,33.3 C98,33.3 98.9,31 100.3,28.3 Z" id="Path"></path>
                <path d="M108.4,30.4 C108.9,29.9 110.4,29.2 111.8,28.8 C114.2,28.1 114.2,28.1 112.3,29.7 C110.2,31.3 106.7,32 108.4,30.4 Z" id="Path"></path>
                <path d="M129.8,29.3 C130.6,28.8 131.8,28.3 132.3,28.3 C132.9,28.3 132.6,28.8 131.8,29.3 C131,29.8 129.9,30.3 129.3,30.3 C128.8,30.3 129,29.8 129.8,29.3 Z" id="Path"></path>
                <path d="M112.6,26.6 C113.3,26.3 114.2,26.4 114.5,26.7 C114.9,27 114.3,27.3 113.2,27.2 C112.1,27.2 111.8,26.9 112.6,26.6 Z" id="Path"></path>
                <path d="M131.6,26.6 C132.3,26.3 133.2,26.4 133.5,26.7 C133.9,27 133.3,27.3 132.2,27.2 C131.1,27.2 130.8,26.9 131.6,26.6 Z" id="Path"></path>
                <path d="M138.8,26.3 C135.8,25.7 135.7,25.5 138,25.4 C139.4,25.4 141.2,25.1 142,25 C142.7,24.8 143,24.8 142.5,25 C142.1,25.3 142,25.9 142.4,26.4 C142.7,26.9 142.8,27.2 142.6,27.2 C142.4,27.1 140.7,26.7 138.8,26.3 Z" id="Path"></path>
                <path d="M110.1,24.9 C110.1,24.3 111.7,23.7 113.6,23.6 C117.5,23.4 117.5,23.6 113.2,25 C111,25.8 110.1,25.8 110.1,24.9 Z" id="Path"></path>
                <path d="M138.3,23.3 C139.4,22.8 141.4,22.5 142.8,22.5 L145.3,22.5 L142.8,23.3 C141.4,23.7 139.4,24.1 138.3,24.1 L136.3,24.2 L138.3,23.3 Z" id="Path"></path>
                <path d="M114.5,21.6 C115.5,21.3 115.4,20.8 114.2,19.6 C112,17.4 113.8,16 117.1,17.2 C120.5,18.5 120.5,20.1 117.2,21.3 C114.7,22.3 112.2,22.6 114.5,21.6 Z M116.8,18.3 C116,17.8 114.9,17.3 114.3,17.3 C113.8,17.3 114,17.8 114.8,18.3 C115.6,18.8 116.8,19.3 117.3,19.3 C117.9,19.3 117.6,18.8 116.8,18.3 Z" id="Shape"></path>
                <path d="M141.3,20.3 C144.1,19.1 148,19.1 147.3,20.3 C147,20.9 145,21.3 143,21.2 C140,21.2 139.7,21 141.3,20.3 Z" id="Path"></path>
                <path d="M107.8,15.4 C108.3,14.3 109.3,13.1 109.9,12.7 C110.5,12.4 110.2,13.2 109.3,14.7 C107.3,17.7 106.3,18.2 107.8,15.4 Z" id="Path"></path>
                <path d="M107.4,12 C107.7,11 108.3,10.5 108.6,10.8 C108.9,11.1 108.6,11.9 107.9,12.6 C106.9,13.5 106.8,13.4 107.4,12 Z" id="Path"></path>
                <path d="M107.1,96.6 C108,96.4 109.4,96.4 110.1,96.6 C110.7,96.9 110,97.1 108.3,97.1 C106.7,97.1 106.1,96.9 107.1,96.6 Z" id="Path"></path>
                <path d="M41.1,86.6 C42.6,86.4 44.8,86.4 46.1,86.6 C47.3,86.8 46.1,87 43.3,87 C40.6,87 39.5,86.8 41.1,86.6 Z" id="Path"></path>
                <path d="M41.6,83.6 C43.9,83.4 47.5,83.4 49.6,83.6 C51.6,83.8 49.7,84 45.3,84 C40.9,84 39.2,83.8 41.6,83.6 Z" id="Path"></path>
                <path d="M56.6,82.6 C58.3,82.4 61.3,82.4 63.1,82.6 C64.8,82.8 63.4,83 59.8,83 C56.2,83 54.8,82.8 56.6,82.6 Z" id="Path"></path>
                <path d="M35.6,78.6 C37.9,78.4 41.5,78.4 43.6,78.6 C45.6,78.8 43.7,79 39.3,79 C34.9,79 33.2,78.8 35.6,78.6 Z" id="Path"></path>
                <path d="M65.3,73.3 C66.5,69.4 71.7,57.7 71.8,58.8 C71.8,59.9 65.9,74.5 65.1,75.3 C64.8,75.6 64.9,74.7 65.3,73.3 Z" id="Path"></path>
                <path d="M23.4,61.4 C23,60.9 23.7,60.7 24.8,61 C27.1,61.6 27.4,62.3 25.4,62.3 C24.6,62.3 23.7,61.9 23.4,61.4 Z" id="Path"></path>
                <path d="M14.6,53.1 C15.1,52.6 16.2,52.3 16.9,52.5 C17.7,52.8 17.2,53.2 15.9,53.6 C14.2,54 13.8,53.9 14.6,53.1 Z" id="Path"></path>
                <path d="M15.6,50.6 C16.3,50.3 17.2,50.4 17.5,50.7 C17.9,51 17.3,51.3 16.2,51.2 C15.1,51.2 14.8,50.9 15.6,50.6 Z" id="Path"></path>
                <path d="M20.6,49.6 C21.2,49.4 22.4,49.4 23.1,49.6 C23.7,49.9 23.2,50.1 21.8,50.1 C20.4,50.1 19.9,49.9 20.6,49.6 Z" id="Path"></path>
                <path d="M15.6,48.6 C16.2,48.4 17.4,48.4 18.1,48.6 C18.7,48.9 18.2,49.1 16.8,49.1 C15.4,49.1 14.9,48.9 15.6,48.6 Z" id="Path"></path>
                <path d="M17.1,46.6 C18,46.4 19.4,46.4 20.1,46.6 C20.7,46.9 20,47.1 18.3,47.1 C16.7,47.1 16.1,46.9 17.1,46.6 Z" id="Path"></path>
                <path d="M20.3,45.4 L18.3,44.6 L20.3,44.1 C22.1,43.6 22.1,43.5 20.1,43.4 C17.3,43.3 17.1,41.8 19.8,41.6 C20.9,41.5 21.8,41.9 21.8,42.4 C21.8,43 22.8,43.2 24.1,42.8 C26.1,42.3 26.1,42.3 23.8,43.7 C21,45.4 22.8,45.9 25.8,44.3 C27.1,43.6 27.9,43.6 28.3,44.3 C28.6,44.8 28.3,45.3 27.6,45.3 C26.9,45.3 25.4,45.5 24.3,45.8 C23.2,46 21.4,45.8 20.3,45.4 Z" id="Path"></path>
                <path d="M81.3,42.3 L74.3,41.7 L81.3,41.5 C85.2,41.4 89,41.8 89.8,42.3 C91.1,43.2 91.1,43.3 89.8,43.1 C89,43 85.2,42.7 81.3,42.3 Z" id="Path"></path>
                <path d="M92.4,40.5 C92,39.2 91.9,37.9 92.2,37.6 C93.2,36.5 94,38 93.6,40.5 L93.2,42.8 L92.4,40.5 Z" id="Path"></path>
                <path d="M89.8,40.2 C89.8,39.7 90.3,39.5 90.8,39.8 C91.4,40.1 91.8,40.6 91.8,40.9 C91.8,41.1 91.4,41.3 90.8,41.3 C90.3,41.3 89.8,40.8 89.8,40.2 Z" id="Path"></path>
                <path d="M17.8,37.3 C17.8,36.8 19,36.3 20.6,36.4 C23,36.4 23.1,36.5 21.3,37.3 C18.6,38.5 17.8,38.5 17.8,37.3 Z" id="Path"></path>
                <path d="M166,29.8 C165.9,27.1 166.2,25.3 166.6,25.9 C167,26.6 168.2,27.2 169.2,27.4 C170.3,27.6 171.3,28.4 171.6,29.2 C171.9,30.2 171.4,30.4 169.5,29.9 C167.3,29.4 166.9,29.7 166.5,32 C166.3,33.6 166,32.7 166,29.8 Z" id="Path"></path>
                <path d="M169.6,23.6 C170.2,23.4 171.4,23.4 172.1,23.6 C172.7,23.9 172.2,24.1 170.8,24.1 C169.4,24.1 168.9,23.9 169.6,23.6 Z" id="Path"></path>
                <path d="M92.3,21.3 C91.4,19.8 92.2,19 94.4,19.5 C95.9,19.8 96,19.9 94.5,21.1 C93.4,22 92.8,22.1 92.3,21.3 Z" id="Path"></path>
                <path d="M168.6,17.6 C169.3,17.3 170.2,17.4 170.5,17.7 C170.9,18 170.3,18.3 169.2,18.2 C168.1,18.2 167.8,17.9 168.6,17.6 Z" id="Path"></path>
                <path d="M75.8,14.2 C75.8,13.7 76.3,13.5 76.8,13.8 C77.4,14.1 77.8,14.6 77.8,14.9 C77.8,15.1 77.4,15.3 76.8,15.3 C76.3,15.3 75.8,14.8 75.8,14.2 Z" id="Path"></path>
                <path d="M150.6,7.6 C151.2,7.4 152.4,7.4 153.1,7.6 C153.7,7.9 153.2,8.1 151.8,8.1 C150.4,8.1 149.9,7.9 150.6,7.6 Z" id="Path"></path>
            </g>
        </g>
    </g>
</svg>