<?xml version="1.0" encoding="UTF-8" standalone="no"?>
<!-- Created with Inkscape (http://www.inkscape.org/) -->

<svg
   version="1.1"
   id="svg46160"
   width="704.06134"
   height="497.62134"
   viewBox="0 0 704.06134 497.62134"
   xmlns="http://www.w3.org/2000/svg"
   xmlns:svg="http://www.w3.org/2000/svg">
  <defs
     id="defs46164">
    <clipPath
       clipPathUnits="userSpaceOnUse"
       id="clipPath46174">
      <path
         d="M 0,373.216 H 528.046 V 0 H 0 Z"
         id="path46172" />
    </clipPath>
    <clipPath
       clipPathUnits="userSpaceOnUse"
       id="clipPath46416">
      <path
         d="M 0,373.216 H 528.046 V 0 H 0 Z"
         id="path46414" />
    </clipPath>
    <clipPath
       clipPathUnits="userSpaceOnUse"
       id="clipPath46442">
      <path
         d="M 0,373.216 H 528.046 V 0 H 0 Z"
         id="path46440" />
    </clipPath>
    <clipPath
       clipPathUnits="userSpaceOnUse"
       id="clipPath46458">
      <path
         d="M 0,373.216 H 528.046 V 0 H 0 Z"
         id="path46456" />
    </clipPath>
  </defs>
  <g
     id="g46166"
     transform="matrix(1.3333333,0,0,-1.3333333,0,497.62133)">
    <g
       id="g46168">
      <g
         id="g46170"
         clip-path="url(#clipPath46174)">
        <g
           id="g46176"
           transform="translate(254.5645,243.5278)">
          <path
             d="M 0,0 C 0.375,-0.102 0.752,1.799 1.126,1.694 4.047,0.879 0.623,2.113 2.104,4.835 2.638,5.818 3.084,6.845 3.809,7.718 4.29,8.297 4.816,8.811 5.616,8.681 6.545,8.53 6.876,7.739 7.079,6.959 7.411,5.688 7.331,4.438 6.755,3.218 3.758,-3.142 0.641,-9.438 -2.712,-15.621 c -2.094,-3.861 -3.911,-7.874 -5.983,-11.748 -3.919,-7.324 -7.286,-14.936 -11.59,-22.061 -1.196,-1.98 -2.14,-4.112 -3.223,-6.162 -3.243,-6.144 -6.574,-12.242 -9.73,-18.431 -5.481,-10.746 -10.818,-21.566 -16.289,-32.317 -3.081,-6.054 -6.33,-12.021 -9.466,-18.045 -3.874,-7.441 -7.699,-14.906 -11.564,-22.351 -1.95,-3.759 -4.077,-7.431 -5.883,-11.257 -3.514,-7.442 -7.722,-14.523 -11.222,-21.974 -1.9,-4.045 -4.15,-7.928 -5.94,-12.036 -0.42,-0.964 -1.152,-1.695 -2.073,-2.227 -1.077,1.211 -1.273,2.425 -0.46,3.779 2.226,3.711 3.619,7.832 5.703,11.616 1.541,2.799 3.089,5.598 4.529,8.45 6.374,12.625 12.707,25.27 19.061,37.905 2.655,5.278 5.325,10.549 7.99,15.822 4.435,8.774 8.888,17.536 13.301,26.32 5.633,11.21 11.217,22.444 16.852,33.653 4.738,9.426 9.518,18.83 14.279,28.244 3.101,6.132 6.211,12.26 9.295,18.4 1.289,2.567 2.273,4.27 3.699,6.786 1.225,2.163 1.995,1.447 -0.126,2.646 -0.605,0.341 1.868,-0.18 1.305,0.236 C -0.165,-0.248 -0.082,-0.124 0,0"
             style="fill:#231f20;fill-opacity:1;fill-rule:nonzero;stroke:none"
             id="path46178" />
        </g>
        <g
           id="g46180"
           transform="translate(463.895,90.168)">
          <path
             d="m 0,0 c -1.011,0.126 -1.663,0.465 -2.084,1.065 -2.054,2.936 -4.853,5.255 -6.81,8.27 -0.258,0.399 -0.524,0.818 -0.875,1.13 -2.346,2.091 -3.84,4.863 -5.812,7.252 -0.546,0.663 -1.121,1.365 -1.262,2.283 -0.383,2.497 -2.127,4.059 -3.982,5.434 -1.234,0.913 -2.025,1.933 -2.689,3.349 -0.973,2.076 -2.681,3.747 -4.154,5.532 -2.639,3.201 -5.177,6.493 -7.933,9.589 -3.399,3.819 -6.264,8.071 -9.771,11.795 -0.708,0.752 -1.29,1.621 -1.935,2.433 -3.322,4.183 -6.519,8.475 -10.007,12.515 -3.126,3.62 -5.968,7.464 -9.096,11.069 -3.401,3.918 -6.524,8.055 -9.85,12.03 -1.326,1.585 -2.445,3.352 -3.565,5.097 -0.665,1.036 -0.229,1.689 0.985,1.637 1.47,-0.063 2.559,-0.884 3.46,-1.935 2.81,-3.272 5.632,-6.535 8.357,-9.878 C -56.326,75.54 -45.611,62.426 -35.003,49.228 -23.793,35.281 -12.206,21.643 -1.165,7.561 -0.624,6.87 0.048,6.279 0.559,5.57 1.292,4.552 1.297,3.551 0.314,3.117 -1.13,2.479 -0.628,1.771 -0.161,0.89 -0.058,0.695 -0.074,0.437 0,0"
             style="fill:#231f20;fill-opacity:1;fill-rule:nonzero;stroke:none"
             id="path46182" />
        </g>
        <g
           id="g46184"
           transform="translate(180.0215,308.2793)">
          <path
             d="m 0,0 c -0.437,-0.183 -0.919,-0.281 -1.424,-0.953 1.164,-0.697 2.153,-1.355 3.2,-1.906 6.713,-3.534 13.446,-7.031 20.159,-10.566 4.8,-2.528 9.567,-5.117 14.37,-7.639 5.02,-2.637 10.082,-5.193 15.094,-7.843 6.911,-3.653 13.787,-7.368 20.69,-11.033 0.923,-0.49 1.849,-0.94 2.574,-1.718 0.94,-1.01 1.142,-1.964 0.512,-2.765 -0.716,-0.913 -1.646,-0.894 -2.595,-0.459 -2.251,1.033 -4.306,2.426 -6.526,3.534 -6.433,3.21 -12.806,6.54 -19.173,9.88 -6.288,3.299 -12.532,6.68 -18.807,10.003 -5.502,2.914 -11.042,5.757 -16.526,8.705 -4.353,2.34 -8.681,4.731 -12.946,7.225 -1.618,0.946 -3.441,2.007 -2.61,4.489 0.109,0.327 -0.04,0.62 -0.215,0.897"
             style="fill:#231f20;fill-opacity:1;fill-rule:nonzero;stroke:none"
             id="path46186" />
        </g>
        <g
           id="g46188"
           transform="translate(300.7817,151.6406)">
          <path
             d="m 0,0 c -1.312,-0.006 -3.41,2.021 -3.391,3.271 0.011,0.737 0.562,1.116 1.026,1.542 3.881,3.567 7.772,7.114 11.891,10.416 10.361,8.303 21.497,15.452 32.722,22.499 3.504,2.199 7.215,4.108 10.413,6.8 1.434,1.206 2.269,1.11 3.573,-0.049 1.496,-1.33 1.768,-2.5 0.944,-4.008 C 56.74,39.672 56.084,39.116 55.31,38.662 48.774,34.835 42.613,30.423 36.173,26.446 29.998,22.635 23.989,18.56 18.215,14.18 13.327,10.473 8.373,6.813 3.994,2.476 3.253,1.741 2.464,1.072 1.571,0.528 1.086,0.233 0.576,0.021 0,0"
             style="fill:#231f20;fill-opacity:1;fill-rule:nonzero;stroke:none"
             id="path46190" />
        </g>
        <g
           id="g46192"
           transform="translate(265.6909,121.9736)">
          <path
             d="m 0,0 c 0.001,-1.156 -0.445,-2.183 -0.928,-3.197 -2.676,-5.628 -5.37,-11.249 -8.027,-16.887 -2.042,-4.335 -3.895,-8.764 -6.09,-13.018 -2.379,-4.61 -4.494,-9.35 -7.063,-13.87 -2.645,-4.652 -5.002,-9.466 -7.259,-14.323 -0.168,-0.363 -0.331,-0.728 -0.512,-1.085 -0.51,-1.005 -0.988,-2.164 -2.303,-2.185 -1.488,-0.025 -2.449,1.062 -3.314,2.106 -0.58,0.7 -0.345,1.565 0.054,2.271 2.833,5.005 4.619,10.531 7.773,15.386 1.43,2.203 2.54,4.62 3.722,6.977 4.695,9.356 8.982,18.906 13.487,28.351 1.719,3.608 3.556,7.159 5.363,10.723 0.914,1.802 1.521,2.149 2.88,1.793 C -0.834,2.68 -0.025,1.568 0,0"
             style="fill:#231f20;fill-opacity:1;fill-rule:nonzero;stroke:none"
             id="path46194" />
        </g>
        <g
           id="g46196"
           transform="translate(274.5933,256.1118)">
          <path
             d="m 0,0 c 0.321,-0.124 0.787,-0.253 1.204,-0.474 6.773,-3.581 13.535,-7.182 20.309,-10.76 4.227,-2.232 8.491,-4.394 12.7,-6.66 3.654,-1.966 7.235,-4.069 10.883,-6.048 5.467,-2.965 10.969,-5.864 16.446,-8.813 3.726,-2.005 7.306,-4.275 11.123,-6.114 0.935,-0.45 1.818,-1.004 2.83,-1.288 0.304,-0.085 0.608,-0.211 0.873,-0.378 1.471,-0.924 2.043,-2.33 1.401,-3.388 -0.622,-1.022 -1.849,-1.222 -3.415,-0.366 -8.125,4.441 -16.449,8.504 -24.579,12.943 -7.487,4.088 -14.942,8.237 -22.628,11.974 -6.596,3.209 -12.904,7.009 -19.347,10.532 -2.38,1.301 -4.825,2.485 -7.057,4.042 -0.984,0.687 -2.009,1.349 -2.376,2.596 C -1.966,-1.072 -1.24,-0.017 0,0"
             style="fill:#231f20;fill-opacity:1;fill-rule:nonzero;stroke:none"
             id="path46198" />
        </g>
        <g
           id="g46200"
           transform="translate(88.4487,355.2314)">
          <path
             d="m 0,0 c 1.311,-0.289 2.843,-1.17 4.343,-2.043 1.929,-1.124 3.755,-2.374 5.968,-2.976 0.946,-0.257 1.68,-1.212 2.612,-1.619 5.04,-2.198 9.417,-5.571 14.343,-7.984 4.872,-2.386 9.635,-4.997 14.41,-7.576 5.549,-2.997 11.064,-6.057 16.578,-9.117 0.691,-0.383 1.353,-0.867 1.919,-1.416 0.869,-0.846 0.92,-1.849 0.308,-2.822 -0.575,-0.917 -1.336,-0.935 -2.288,-0.638 -0.918,0.287 -1.78,0.54 -2.539,1.229 -1.552,1.41 -3.562,2.109 -5.375,3.093 -9.548,5.178 -19.173,10.211 -28.74,15.353 -6.608,3.552 -13.165,7.2 -19.748,10.799 -1.492,0.815 -2.843,1.782 -3.754,3.259 -0.352,0.572 -0.537,1.182 -0.159,1.802 C -1.743,-0.037 -1.119,0.079 0,0"
             style="fill:#231f20;fill-opacity:1;fill-rule:nonzero;stroke:none"
             id="path46202" />
        </g>
        <g
           id="g46204"
           transform="translate(337.2202,62.7666)">
          <path
             d="M 0,0 C 0.843,1.025 1.43,1.752 0.471,2.728 0.053,3.152 -0.434,4.049 0.314,4.63 0.97,5.14 1.712,4.69 2.298,4.278 c 1.37,-0.963 2.8,-1.872 4.031,-2.995 4.48,-4.088 8.831,-8.312 12.944,-12.775 0.487,-0.528 0.998,-1.038 1.542,-1.504 1.216,-1.04 2.199,-2.126 1.424,-3.901 -0.31,-0.713 0.186,-1.207 0.634,-1.672 0.609,-0.633 1.257,-1.231 1.834,-1.89 0.631,-0.721 0.272,-1.191 -0.519,-1.342 -1.46,-0.278 -2.68,0.393 -3.715,1.28 -1.806,1.545 -3.791,2.998 -5.192,4.871 -1.594,2.133 -3.668,3.717 -5.456,5.61 -2.49,2.638 -5.323,4.949 -7.749,7.669 C 1.86,-2.129 1.511,-1.915 1.7,-1.611 2.815,0.172 1.509,0.125 0,0"
             style="fill:#231f20;fill-opacity:1;fill-rule:nonzero;stroke:none"
             id="path46206" />
        </g>
        <g
           id="g46208"
           transform="translate(446.3286,48.873)">
          <path
             d="m 0,0 c 0.007,0.848 0.405,1.538 0.937,2.145 0.944,1.078 1.835,2.226 2.906,3.166 3.956,3.472 7.543,7.322 11.33,10.964 0.23,0.222 0.464,0.439 0.698,0.655 0.809,0.745 1.532,1.758 2.858,1.124 1.191,-0.572 1.916,-2.237 1.656,-3.691 -0.13,-0.722 -0.44,-1.377 -0.948,-1.902 C 17.773,10.745 16.242,8.911 14.499,7.264 11.261,4.205 8.123,1.039 4.946,-2.085 4.104,-2.913 3.389,-3.989 1.917,-3.345 0.831,-2.871 -0.01,-1.457 0,0"
             style="fill:#231f20;fill-opacity:1;fill-rule:nonzero;stroke:none"
             id="path46210" />
        </g>
        <g
           id="g46212"
           transform="translate(483.6899,70.0674)">
          <path
             d="m 0,0 c 0.829,-0.112 1.524,-0.512 2.109,-1.061 1.336,-1.254 2.768,-2.44 3.924,-3.846 3.591,-4.368 7.066,-8.831 10.601,-13.245 0.583,-0.729 0.978,-1.379 0.386,-2.346 -0.92,-1.5 -1.902,-1.705 -2.958,-0.277 -4.457,6.021 -9.634,11.448 -14.217,17.362 -0.493,0.638 -0.935,1.309 -0.957,2.145 C -1.132,-0.529 -0.777,-0.062 0,0"
             style="fill:#231f20;fill-opacity:1;fill-rule:nonzero;stroke:none"
             id="path46214" />
        </g>
        <g
           id="g46216"
           transform="translate(183.5068,314.7236)">
          <path
             d="m 0,0 c 0.111,-1.312 -0.398,-2.652 -1.267,-3.832 -1.071,-1.454 -3.207,-1.636 -4.433,-0.45 -0.413,0.4 -0.74,0.865 -0.564,1.481 0.166,0.577 0.679,0.609 1.16,0.613 0.828,0.006 1.567,0.154 2.134,0.853 1.361,1.676 0.976,3.497 -1.063,4.326 -1.311,0.533 -1.809,1.446 -1.884,2.754 -0.098,1.696 0.567,3.291 0.618,4.975 0.02,0.659 0.67,1.085 1.276,1.321 2.69,1.044 5.448,1.825 8.346,1.994 0.392,0.023 0.802,-0.038 1.185,-0.132 C 6.195,13.736 7.109,13.641 7.122,12.764 7.136,11.811 6.174,11.896 5.507,11.729 3.495,11.224 1.476,10.745 -0.522,10.191 -2.023,9.775 -3.399,7.692 -3.282,6.182 -3.224,5.438 -2.641,5.134 -2.159,4.723 -0.391,3.216 0.004,2.371 0,0"
             style="fill:#231f20;fill-opacity:1;fill-rule:nonzero;stroke:none"
             id="path46218" />
        </g>
        <g
           id="g46220"
           transform="translate(273.5688,134.5244)">
          <path
             d="M 0,0 C 1.906,2.369 2.07,3.451 0.929,5.181 -0.486,3.527 -0.644,2.742 0,0 M 4.178,2.497 C 4.062,-0.056 2.994,-2.295 1.696,-4.404 0.978,-5.572 -0.199,-5.723 -1.491,-5.161 c -1.959,0.851 -3.454,3.271 -3.364,5.42 0.017,0.428 0.099,0.843 0.543,0.958 1.113,0.29 1.126,1.196 1.261,2.066 0.208,1.354 0.566,2.667 1.322,3.825 1.304,1.997 3.324,1.989 4.598,-0.05 C 3.731,5.68 4.181,4.148 4.178,2.497"
             style="fill:#231f20;fill-opacity:1;fill-rule:nonzero;stroke:none"
             id="path46222" />
        </g>
        <g
           id="g46224"
           transform="translate(62.9141,356.4624)">
          <path
             d="M 0,0 C 0.744,1.269 2.026,1.68 3.133,2.141 5.129,2.973 5.866,4.382 5.787,6.43 5.738,7.703 5.853,8.983 5.788,10.255 5.748,11.018 5.213,11.211 4.626,10.735 3.947,10.184 3.359,9.52 2.704,8.937 2.183,8.473 1.557,8.253 0.993,8.802 c -0.521,0.509 -0.191,1.094 0.186,1.49 1.46,1.532 2.406,3.366 3.271,5.263 0.36,0.791 0.984,1.306 1.884,1.18 C 7.243,16.608 7.25,15.753 7.453,15.082 8.246,12.461 8.47,9.763 8.615,7.046 8.69,5.645 8.859,5.558 10.2,5.783 c 0.942,0.158 1.879,0.376 2.827,0.453 0.559,0.046 1.161,-0.16 1.266,-0.843 C 14.398,4.717 13.931,4.264 13.355,4.22 9.37,3.912 6.367,1.182 2.75,-0.023 1.866,-0.318 1.004,-0.835 0,0"
             style="fill:#231f20;fill-opacity:1;fill-rule:nonzero;stroke:none"
             id="path46226" />
        </g>
        <g
           id="g46228"
           transform="translate(99.4858,45.792)">
          <path
             d="m 0,0 c 0.628,-0.094 1.266,-0.149 1.882,-0.296 0.482,-0.115 0.913,-0.421 0.911,-0.97 -0.001,-0.581 -0.492,-0.751 -0.972,-0.871 -2.395,-0.599 -4.792,-1.196 -7.185,-1.801 -0.794,-0.202 -2.008,0.084 -2.052,-1.146 -0.038,-1.068 1.124,-0.923 1.813,-1.187 0.811,-0.309 1.325,-0.879 1.64,-1.639 0.559,-1.351 0.773,-2.769 0.588,-4.22 -0.225,-1.772 -1.057,-2.536 -2.812,-2.678 -1.688,-0.136 -3.831,0.942 -4.249,2.137 -0.275,0.789 0.209,1.441 1.063,1.418 0.67,-0.018 1.171,-0.477 1.765,-0.689 0.96,-0.341 1.521,0.122 1.787,1.029 0.286,0.974 -0.046,2.429 -0.608,2.632 -0.411,0.148 -0.756,-0.125 -1.133,-0.221 -1.601,-0.403 -2.492,0.145 -2.641,1.725 -0.145,1.53 0.347,2.998 0.673,4.474 0.092,0.416 0.409,0.758 0.817,0.779 C -5.752,-1.375 -3.009,0.049 0,0"
             style="fill:#231f20;fill-opacity:1;fill-rule:nonzero;stroke:none"
             id="path46230" />
        </g>
        <g
           id="g46232"
           transform="translate(284.6411,133.4863)">
          <path
             d="m 0,0 c 0.053,0.961 -0.312,1.562 -1.192,2.112 -1.876,1.177 -1.942,1.956 -0.692,3.875 0.294,0.45 0.855,0.886 0.451,1.468 -0.289,0.416 -0.868,0.306 -1.343,0.288 -0.319,-0.012 -0.636,-0.06 -0.953,-0.064 -0.864,-0.01 -1.682,0.192 -1.764,1.195 -0.081,1 0.753,1.367 1.548,1.515 1.932,0.359 3.634,-0.217 5.05,-1.553 C 2.405,7.61 2.274,6.125 1.675,4.637 1.39,3.927 1.354,3.47 1.878,2.729 3.005,1.138 2.6,-2.729 1.395,-4.269 0.29,-5.679 -1.252,-6.041 -2.843,-5.167 c -1.046,0.575 -2.041,1.261 -2.814,2.188 -0.383,0.46 -0.489,1.03 0.004,1.507 0.443,0.431 0.878,0.161 1.283,-0.118 0.262,-0.181 0.502,-0.402 0.782,-0.548 C -1.661,-3.145 -0.05,-2.18 0,0"
             style="fill:#231f20;fill-opacity:1;fill-rule:nonzero;stroke:none"
             id="path46234" />
        </g>
        <g
           id="g46236"
           transform="translate(438.6655,33.4785)">
          <path
             d="M 0,0 C 0.015,-0.101 0.011,-0.593 0.166,-1.028 0.495,-1.957 1.17,-2.176 2.041,-1.715 3.942,-0.709 5.68,2.748 5.261,4.766 5.086,5.612 4.945,6.562 3.907,6.812 2.91,7.054 2.246,6.404 1.689,5.722 0.427,4.171 0.079,2.31 0,0 m -2.56,1.135 c 0.026,1.445 0.268,2.844 0.841,4.184 0.448,1.049 1.084,1.948 2.007,2.618 C 3.021,9.928 6.382,8.749 7.255,5.49 7.571,4.312 7.512,3.145 7.18,1.961 6.604,-0.085 5.49,-1.816 4.1,-3.364 2.329,-5.336 -0.624,-4.931 -1.846,-2.56 -2.433,-1.42 -2.748,-0.179 -2.56,1.135"
             style="fill:#231f20;fill-opacity:1;fill-rule:nonzero;stroke:none"
             id="path46238" />
        </g>
        <g
           id="g46240"
           transform="translate(175.5566,323.1602)">
          <path
             d="m 0,0 c -0.109,-1.66 -0.671,-3.459 -1.66,-5.146 -0.725,-1.236 -1.394,-2.508 -2.029,-3.792 -0.305,-0.617 -0.103,-1.092 0.661,-1.174 0.63,-0.068 1.281,-0.012 1.862,-0.347 0.36,-0.208 0.691,-0.476 0.706,-0.899 0.016,-0.453 -0.337,-0.712 -0.745,-0.807 -1.397,-0.322 -2.788,-0.719 -4.205,-0.896 -1.33,-0.166 -1.889,0.458 -1.941,1.802 -0.028,0.743 0.2,1.414 0.559,2.049 0.549,0.972 1.093,1.946 1.66,2.908 0.852,1.447 1.612,2.936 2.157,4.527 0.258,0.753 0.66,1.643 0.027,2.263 C -3.732,1.256 -4.564,0.461 -5.345,0.173 -5.563,0.093 -5.746,-0.083 -5.943,-0.219 -6.391,-0.526 -6.855,-1.048 -7.373,-0.413 -7.771,0.078 -7.567,0.651 -7.3,1.162 -6.49,2.714 -3.638,4.06 -1.953,3.693 -0.636,3.407 0.007,2.285 0,0"
             style="fill:#231f20;fill-opacity:1;fill-rule:nonzero;stroke:none"
             id="path46242" />
        </g>
        <g
           id="g46244"
           transform="translate(166.1089,30.7744)">
          <path
             d="m 0,0 c -1.378,-0.043 -2.648,0.748 -3.037,1.892 -0.29,0.851 0.148,1.423 1.053,1.313 0.388,-0.047 0.754,-0.297 1.14,-0.33 1.005,-0.086 1.916,0.709 1.908,1.69 -0.009,1.136 -0.726,1.137 -1.651,1.076 -1.483,-0.099 -1.997,0.438 -2.057,1.911 -0.054,1.349 0.491,2.658 0.263,4.036 -0.085,0.518 0.315,0.938 0.844,0.981 2.62,0.216 5.171,0.968 7.812,1.005 C 6.434,13.576 6.595,13.563 6.75,13.53 7.306,13.416 7.886,13.281 8.005,12.617 8.129,11.929 7.595,11.609 7.096,11.373 5.858,10.787 4.485,10.679 3.175,10.348 2.79,10.25 2.393,10.198 2.003,10.121 1.246,9.97 0.311,10.065 0.128,9.009 -0.055,7.954 0.854,7.756 1.51,7.332 3.085,6.315 3.834,4.317 3.367,2.547 2.968,1.038 1.664,0.051 0,0"
             style="fill:#231f20;fill-opacity:1;fill-rule:nonzero;stroke:none"
             id="path46246" />
        </g>
        <g
           id="g46248"
           transform="translate(483.5288,78.6641)">
          <path
             d="M 0,0 C 0.021,0.993 -0.048,1.95 -0.419,2.844 -0.73,3.593 -1.17,4.326 -2.096,4.322 -2.89,4.319 -3.337,3.697 -3.703,3.06 -4.689,1.343 -4.292,-1.832 -2.935,-3.222 -2.452,-3.717 -1.961,-3.696 -1.457,-3.306 -0.368,-2.462 0.125,-1.347 0,0 M 2.314,-0.471 C 2.223,-2.397 1.209,-4.097 -0.194,-5.566 -1.16,-6.578 -2.363,-6.425 -3.526,-5.883 -7.235,-4.158 -8.229,2.572 -5.19,5.343 -3.23,7.13 0.435,6.134 1.611,3.471 2.137,2.283 2.24,1.002 2.314,-0.471"
             style="fill:#231f20;fill-opacity:1;fill-rule:nonzero;stroke:none"
             id="path46250" />
        </g>
        <g
           id="g46252"
           transform="translate(296.686,36.1621)">
          <path
             d="M 0,0 C 0.043,-0.291 0.063,-0.854 0.217,-1.38 0.686,-2.984 1.584,-3.238 2.783,-2.041 4.05,-0.775 4.853,0.77 4.938,2.595 4.98,3.492 4.803,4.381 3.831,4.766 2.812,5.17 1.951,4.774 1.276,4.012 0.338,2.951 0.046,1.645 0,0 M 7.224,2.178 C 7.042,-0.491 5.802,-2.74 4.019,-4.576 2.468,-6.174 -1.607,-4.916 -2.196,-2.722 -2.777,-0.555 -2.898,1.675 -1.87,3.81 -0.476,6.705 3.593,7.668 5.813,5.61 6.809,4.688 7.255,3.535 7.224,2.178"
             style="fill:#231f20;fill-opacity:1;fill-rule:nonzero;stroke:none"
             id="path46254" />
        </g>
        <g
           id="g46256"
           transform="translate(366.686,35.5859)">
          <path
             d="m 0,0 c -0.129,-1.253 0.593,-1.957 1.575,-2.447 0.967,-0.484 1.663,0.118 2.33,0.701 C 5.014,-0.779 5.706,0.471 6.187,1.83 6.68,3.222 6.278,4.533 5.236,5.224 4.265,5.867 2.829,5.61 1.788,4.534 0.567,3.273 0.176,1.66 0,0 m -2.235,0.935 c 0.052,1.605 0.817,3.409 2.28,4.888 1.597,1.614 3.849,1.899 5.7,0.779 C 7.965,5.259 8.762,3.472 8.111,1.155 7.743,-0.156 7.194,-1.394 6.392,-2.511 4.521,-5.111 3.428,-5.548 0.769,-4.718 c -1.966,0.614 -3.045,2.465 -3.004,5.653"
             style="fill:#231f20;fill-opacity:1;fill-rule:nonzero;stroke:none"
             id="path46258" />
        </g>
        <g
           id="g46260"
           transform="translate(494.4595,74.4854)">
          <path
             d="M 0,0 C 0.774,-0.504 1.57,-0.116 2.341,-0.122 3.072,-0.128 3.776,-0.201 4.394,-0.626 4.747,-0.868 4.94,-1.227 4.827,-1.649 4.711,-2.086 4.323,-2.345 3.918,-2.25 1.981,-1.8 0.135,-2.258 -1.741,-2.648 c -0.998,-0.207 -1.934,0.16 -2.464,1.085 -0.513,0.893 -0.053,1.704 0.482,2.422 0.379,0.509 0.853,0.947 1.27,1.427 1.256,1.447 1.857,3.157 1.869,5.049 0.007,1.097 -0.561,1.424 -1.562,0.996 C -2.508,8.177 -2.825,7.918 -3.167,7.714 -3.74,7.371 -4.368,7.066 -4.853,7.764 c -0.444,0.638 -0.078,1.253 0.375,1.718 1.065,1.094 2.386,1.654 3.896,1.273 C 0.913,10.377 1.639,9.15 1.769,7.741 1.953,5.749 1.727,3.772 0.803,1.927 0.496,1.312 -0.097,0.797 0,0"
             style="fill:#231f20;fill-opacity:1;fill-rule:nonzero;stroke:none"
             id="path46262" />
        </g>
        <g
           id="g46264"
           transform="translate(10.6079,40.7764)">
          <path
             d="m 0,0 c -0.875,-0.061 -1.75,-0.135 -2.626,-0.175 -0.328,-0.014 -0.631,0.114 -0.786,0.436 -0.167,0.345 0.014,0.603 0.257,0.829 1.448,1.345 7.402,1.81 8.981,0.616 1.488,-1.127 1.587,-2.943 1.707,-4.56 0.099,-1.329 -0.04,-2.7 0.031,-4.055 0.044,-0.853 -0.174,-1.675 -1.158,-1.81 -0.846,-0.116 -1.233,0.6 -1.567,1.25 -0.298,0.581 -0.306,1.228 -0.394,1.861 -0.224,1.614 -0.392,1.71 -2.014,1.23 -0.841,-0.249 -1.657,-0.6 -2.51,-0.782 -0.702,-0.151 -1.559,-0.197 -1.854,0.647 -0.328,0.943 0.499,1.227 1.174,1.465 1.203,0.424 2.423,0.803 3.639,1.19 0.577,0.183 1.039,0.455 0.96,1.159 C 3.759,0.021 3.206,0.185 2.626,0.173 1.75,0.155 0.875,0.057 0,-0.007 0,-0.005 0,-0.002 0,0"
             style="fill:#231f20;fill-opacity:1;fill-rule:nonzero;stroke:none"
             id="path46266" />
        </g>
        <g
           id="g46268"
           transform="translate(154.207,36.6221)">
          <path
             d="m 0,0 c 0.018,-0.884 0.14,-1.753 0.454,-2.582 0.222,-0.587 0.377,-1.304 1.149,-1.384 0.641,-0.065 0.965,0.493 1.287,0.938 0.8,1.107 1.388,2.331 1.782,3.636 C 4.958,1.558 4.897,2.511 4.464,3.411 3.979,4.419 3.294,4.686 2.323,4.134 0.741,3.236 -0.119,1.88 0,0 m -2.465,-0.151 c -0.022,1.397 0.344,2.686 1.093,3.858 1.353,2.117 3.728,2.925 5.787,1.988 C 6.312,4.832 7.526,2.172 6.817,0.002 6.228,-1.807 5.541,-3.605 4.287,-5.109 2.758,-6.941 0.952,-7.011 -0.537,-5.195 c -1.192,1.453 -1.864,3.142 -1.928,5.044"
             style="fill:#231f20;fill-opacity:1;fill-rule:nonzero;stroke:none"
             id="path46270" />
        </g>
        <g
           id="g46272"
           transform="translate(231.1279,37.5313)">
          <path
             d="M 0,0 C -0.007,0.962 -0.078,1.699 -0.875,2.006 -1.528,2.257 -2.109,1.947 -2.619,1.539 -3.786,0.605 -4.273,-1.699 -3.593,-3.026 -3.089,-4.008 -2.232,-4.211 -1.52,-3.41 -0.61,-2.391 -0.058,-1.174 0,0 M -6.638,-0.861 C -6.685,2.956 -3.034,5.252 0.331,3.525 1.743,2.801 2.465,1.652 2.432,0.065 2.389,-1.983 1.77,-3.847 0.511,-5.476 c -1.213,-1.57 -3.032,-1.793 -4.604,-0.585 -1.489,1.145 -2.521,3.253 -2.545,5.2"
             style="fill:#231f20;fill-opacity:1;fill-rule:nonzero;stroke:none"
             id="path46274" />
        </g>
        <g
           id="g46276"
           transform="translate(508.6411,35.5469)">
          <path
             d="m 0,0 c 0.243,-1.099 -0.085,-2.88 1.184,-3.293 1.457,-0.476 2.242,1.17 3.026,2.238 0.32,0.437 0.503,0.997 0.659,1.529 C 5.299,1.924 4.858,3.152 3.784,4.165 2.56,5.32 1.47,5.127 0.765,3.623 0.248,2.521 0.126,1.323 0,0 m -2.041,-1.132 c -0.096,2.161 0.187,3.897 0.974,5.493 0.661,1.341 1.643,2.372 3.339,2.267 C 4.28,6.503 5.778,5.396 6.434,3.814 7.611,0.973 7.047,-1.476 5.004,-3.673 4.678,-4.023 4.365,-4.387 4.036,-4.734 c -1.932,-2.041 -3.827,-1.85 -5.386,0.53 -0.693,1.059 -0.848,2.221 -0.691,3.072"
             style="fill:#231f20;fill-opacity:1;fill-rule:nonzero;stroke:none"
             id="path46278" />
        </g>
        <g
           id="g46280"
           transform="translate(27.5205,44.7422)">
          <path
             d="m 0,0 c 0.295,0.024 0.851,0.106 1.406,0.105 0.6,0 1.151,-0.225 1.214,-0.897 0.063,-0.664 -0.448,-1.012 -1.012,-1.14 -0.773,-0.175 -1.57,-0.247 -2.357,-0.363 -0.787,-0.117 -1.583,-0.196 -2.359,-0.361 -0.817,-0.173 -1.168,-0.746 -1.163,-1.572 0.006,-0.878 0.482,-1.29 1.305,-1.409 0.63,-0.092 1.275,-0.146 1.88,-0.33 1.623,-0.492 2.78,-2.354 2.614,-4.109 -0.164,-1.749 -1.433,-2.883 -3.414,-2.99 -1.032,-0.057 -2.085,-0.115 -3.03,0.435 -0.497,0.29 -0.946,0.661 -0.685,1.337 0.214,0.554 0.705,0.576 1.198,0.506 0.786,-0.11 1.576,-0.349 2.354,-0.013 0.777,0.335 1.381,0.871 1.375,1.779 -0.007,1.012 -0.767,1.309 -1.608,1.425 -0.787,0.11 -1.575,0.201 -2.378,0.067 -0.994,-0.166 -1.555,0.345 -1.575,1.302 -0.027,1.272 0.027,2.549 0.12,3.82 0.081,1.096 0.76,1.71 1.827,1.9 0.705,0.127 1.41,0.268 2.12,0.356 C -1.537,-0.074 -0.897,-0.061 0,0"
             style="fill:#231f20;fill-opacity:1;fill-rule:nonzero;stroke:none"
             id="path46282" />
        </g>
        <g
           id="g46284"
           transform="translate(400.896,217.0713)">
          <path
             d="m 0,0 c 0.301,0 0.38,0.002 0.46,0 1.531,-0.045 2.481,-0.533 2.446,-1.374 -0.057,-1.364 -1.24,-1.251 -2.13,-1.412 -1.41,-0.255 -2.836,-0.421 -4.254,-0.632 -0.818,-0.122 -1.619,-0.331 -1.768,-1.307 -0.155,-1.017 -0.383,-2.096 0.674,-2.829 0.725,-0.504 1.402,-1.05 1.887,-1.801 0.968,-1.496 0.931,-3.329 -0.091,-4.439 -1.126,-1.223 -3.046,-1.485 -4.624,-0.627 -0.277,0.15 -0.611,0.28 -0.622,0.654 -0.015,0.489 0.368,0.692 0.75,0.774 0.62,0.134 1.263,0.156 1.886,0.28 0.853,0.171 1.5,0.653 1.584,1.556 0.087,0.921 -0.507,1.408 -1.32,1.755 -2.391,1.021 -2.487,1.073 -2.222,3.688 0.469,4.62 -0.09,4.191 4.503,5.243 C -1.837,-0.241 -0.834,0.073 0,0"
             style="fill:#231f20;fill-opacity:1;fill-rule:nonzero;stroke:none"
             id="path46286" />
        </g>
        <g
           id="g46288"
           transform="translate(382.9722,209.2783)">
          <path
             d="M 0,0 C -0.001,-2.322 0.498,-4.267 1.346,-5.239 2.216,-6.238 2.856,-6.29 3.693,-5.266 5.307,-3.297 6.305,-1.068 6.265,1.54 6.253,2.347 6.13,3.13 5.794,3.873 5.241,5.095 4.243,5.698 2.954,5.741 1.631,5.785 0.975,4.861 0.518,3.775 0.009,2.566 0.008,1.281 0,0 M 7.057,1.421 C 6.853,-1.771 5.92,-4.533 3.929,-6.867 2.537,-8.499 0.862,-8.564 -0.614,-7.029 c -1.209,1.258 -1.9,2.794 -1.724,4.565 0.172,1.742 0.475,3.472 0.754,5.202 0.154,0.956 0.526,1.841 1.063,2.651 C 1.113,7.853 4.596,7.762 6.013,5.167 6.665,3.973 7.009,2.644 7.057,1.421"
             style="fill:#231f20;fill-opacity:1;fill-rule:nonzero;stroke:none"
             id="path46290" />
        </g>
        <g
           id="g46292"
           transform="translate(273.2085,270.2842)">
          <path
             d="m 0,0 c 0,-1.354 0.014,-2.708 -0.005,-4.062 -0.013,-0.909 -0.098,-4.804 -1.285,-4.945 -1.009,-0.119 -2.03,3.62 -2.271,4.699 -0.101,0.46 -0.103,0.952 -0.087,1.427 0.077,2.39 0.174,4.78 0.269,7.17 0.013,0.318 0.025,0.641 0.085,0.952 0.176,0.902 0.753,1.466 1.657,1.385 0.888,-0.079 1.045,-0.883 1.106,-1.618 0.137,-1.669 0.244,-3.34 0.363,-5.009 C -0.112,0 -0.057,0 0,0"
             style="fill:#231f20;fill-opacity:1;fill-rule:nonzero;stroke:none"
             id="path46294" />
        </g>
        <g
           id="g46296"
           transform="translate(85.207,41.8516)">
          <path
             d="m 0,0 c -0.604,-3.217 -0.763,-6.713 -1.182,-10.18 -0.038,-0.31 -0.133,-0.622 -0.25,-0.913 -0.122,-0.306 -0.366,-0.567 -0.715,-0.509 -0.444,0.075 -0.632,0.449 -0.676,0.862 -0.176,1.657 -0.432,3.313 -0.479,4.975 -0.066,2.381 0.031,4.766 0.048,7.15 0.006,0.904 -0.006,1.826 1.188,1.982 0.954,0.124 1.805,-0.726 1.984,-1.944 C -0.024,1.031 -0.034,0.63 0,0"
             style="fill:#231f20;fill-opacity:1;fill-rule:nonzero;stroke:none"
             id="path46298" />
        </g>
        <g
           id="g46300"
           transform="translate(473.0913,68.4141)">
          <path
             d="M 0,0 C -1.539,-0.607 -2.526,-0.043 -3.238,1.483 -3.966,3.046 -3.915,4.369 -3.1,5.055 -2.249,5.77 -0.853,5.771 0.452,4.813"
             style="fill:#231f20;fill-opacity:1;fill-rule:nonzero;stroke:none"
             id="path46302" />
        </g>
        <g
           id="g46304"
           transform="translate(523.4634,32.957)">
          <path
             d="m 0,0 c 0,-0.787 0.04,-1.267 -0.008,-1.736 -0.105,-1.022 -0.783,-1.61 -1.721,-1.67 -1.084,-0.07 -1.197,0.843 -1.245,1.657 -0.144,2.455 -0.267,4.91 -0.391,7.366 -0.032,0.634 -0.049,1.269 -0.053,1.904 -0.002,0.468 -0.061,1.007 0.528,1.181 0.506,0.149 0.917,-0.127 1.266,-0.475 0.657,-0.659 0.84,-1.523 0.949,-2.388 C -0.414,3.793 -0.198,1.741 0,0"
             style="fill:#231f20;fill-opacity:1;fill-rule:nonzero;stroke:none"
             id="path46306" />
        </g>
        <g
           id="g46308"
           transform="translate(454.3521,33.8447)">
          <path
             d="m 0,0 c 0,-0.874 0.03,-1.75 -0.007,-2.622 -0.063,-1.513 -0.367,-1.692 -1.921,-1.662 -0.952,0.019 -1.424,0.466 -1.249,1.289 0.576,2.709 -0.188,5.385 -0.086,8.077 0.03,0.751 -0.466,1.733 0.745,1.889 1.026,0.131 1.663,-0.614 1.843,-1.524 C -0.414,4.127 -0.33,2.771 -0.186,1.43 -0.134,0.955 -0.126,0.477 -0.098,0 Z"
             style="fill:#231f20;fill-opacity:1;fill-rule:nonzero;stroke:none"
             id="path46310" />
        </g>
        <g
           id="g46312"
           transform="translate(311.6411,35.9063)">
          <path
             d="m 0,0 c 0,-1.108 0.037,-2.218 -0.013,-3.324 -0.033,-0.745 -0.309,-1.489 -1.13,-1.623 -0.877,-0.144 -1.322,0.57 -1.448,1.279 -0.474,2.654 -0.747,5.332 -0.419,8.032 0.07,0.573 0.274,1.148 0.905,1.262 0.602,0.109 1.023,-0.327 1.383,-0.772 0.474,-0.583 0.626,-1.271 0.632,-2 C -0.081,1.903 -0.088,0.951 -0.088,0 Z"
             style="fill:#231f20;fill-opacity:1;fill-rule:nonzero;stroke:none"
             id="path46314" />
        </g>
        <g
           id="g46316"
           transform="translate(382.6802,34.7695)">
          <path
             d="m 0,0 c 0,-0.879 0.035,-1.76 -0.013,-2.636 -0.032,-0.588 -0.298,-1.106 -0.954,-1.216 -0.715,-0.119 -1.224,0.244 -1.583,0.836 -0.302,0.501 -0.328,1.067 -0.324,1.626 0.014,2.161 0.025,4.319 -0.426,6.45 -0.099,0.468 -0.136,0.988 0.397,1.252 0.497,0.247 0.924,-0.028 1.328,-0.297 C -0.79,5.492 -0.382,4.716 -0.258,3.817 -0.084,2.553 0.015,1.278 0.146,0.008 0.097,0.005 0.048,0.002 0,0"
             style="fill:#231f20;fill-opacity:1;fill-rule:nonzero;stroke:none"
             id="path46318" />
        </g>
        <g
           id="g46320"
           transform="translate(240.7715,36.2822)">
          <path
             d="m 0,0 c 0.013,-1.088 0.088,-2.368 -0.281,-3.612 -0.143,-0.482 -0.415,-0.901 -0.987,-0.861 -0.428,0.031 -0.684,0.365 -0.861,0.743 -0.309,0.662 -0.39,1.369 -0.464,2.088 -0.194,1.903 -0.442,3.799 -0.632,5.703 -0.055,0.561 0.008,1.159 0.69,1.356 C -1.954,5.586 -1.437,5.398 -0.997,4.99 -0.433,4.467 -0.241,3.782 -0.186,3.053 -0.112,2.099 -0.068,1.143 0,0"
             style="fill:#231f20;fill-opacity:1;fill-rule:nonzero;stroke:none"
             id="path46322" />
        </g>
        <g
           id="g46324"
           transform="translate(372.8462,205.9307)">
          <path
             d="M 0,0 C 0.966,-0.158 1.971,-0.181 2.501,-1.136 2.878,-1.813 2.794,-2.48 2.244,-3.095 1.435,-4 0.465,-3.999 -0.575,-3.68 c -0.299,0.091 -0.584,0.237 -0.863,0.381 -0.67,0.345 -1.196,0.82 -1.096,1.653 0.096,0.811 0.674,1.214 1.407,1.414 C -0.75,-0.129 -0.359,-0.072 0,0"
             style="fill:#231f20;fill-opacity:1;fill-rule:nonzero;stroke:none"
             id="path46326" />
        </g>
        <g
           id="g46328"
           transform="translate(157.4189,313.5444)">
          <path
             d="M 0,0 C 0.038,0.812 0.137,1.65 0.989,1.991 1.903,2.356 2.672,1.919 3.313,1.257 3.421,1.146 3.492,0.998 3.576,0.865 4.185,-0.103 4.675,-1.09 3.925,-2.207 3.427,-2.948 2.708,-2.826 2.008,-2.63 0.831,-2.303 0.028,-1.227 0,0"
             style="fill:#231f20;fill-opacity:1;fill-rule:nonzero;stroke:none"
             id="path46330" />
        </g>
        <g
           id="g46332"
           transform="translate(267.0396,129.2207)">
          <path
             d="m 0,0 c 0.01,-0.906 -0.634,-1.53 -1.547,-1.376 -1.137,0.193 -2.065,0.853 -2.889,1.619 -0.432,0.402 -0.538,0.974 -0.295,1.548 0.22,0.519 0.705,0.604 1.186,0.661 C -1.789,2.659 -0.016,1.429 0,0"
             style="fill:#231f20;fill-opacity:1;fill-rule:nonzero;stroke:none"
             id="path46334" />
        </g>
        <g
           id="g46336"
           transform="translate(499.4067,32.4678)">
          <path
             d="M 0,0 C 1.407,0.059 2.652,-0.981 2.643,-2.084 2.635,-2.995 2.203,-3.586 1.228,-3.652 0.067,-3.732 -1.409,-2.47 -1.392,-1.37 -1.376,-0.354 -0.681,-0.051 0,0"
             style="fill:#231f20;fill-opacity:1;fill-rule:nonzero;stroke:none"
             id="path46338" />
        </g>
        <g
           id="g46340"
           transform="translate(73.9937,33.0234)">
          <path
             d="M 0,0 C -0.024,0.762 0.064,1.455 1.044,1.511 1.866,1.558 3.44,-0.274 3.465,-1.329 3.488,-2.272 2.828,-2.501 2.061,-2.539 0.705,-2.606 -0.021,-1.701 0,0"
             style="fill:#231f20;fill-opacity:1;fill-rule:nonzero;stroke:none"
             id="path46342" />
        </g>
        <g
           id="g46344"
           transform="translate(430.3491,32.1006)">
          <path
             d="M 0,0 C 1.007,-0.017 1.984,-0.952 1.98,-1.958 1.977,-2.902 1.449,-3.401 0.509,-3.418 -0.672,-3.439 -1.758,-2.502 -1.774,-1.476 -1.788,-0.626 -1.016,0.016 0,0"
             style="fill:#231f20;fill-opacity:1;fill-rule:nonzero;stroke:none"
             id="path46346" />
        </g>
        <g
           id="g46348"
           transform="translate(357.6694,30.8809)">
          <path
             d="M 0,0 C 1.131,-0.064 2.196,-1.129 2.155,-2.155 2.123,-2.979 1.405,-3.521 0.484,-3.417 -0.583,-3.296 -1.512,-2.361 -1.521,-1.399 -1.528,-0.481 -0.947,0.054 0,0"
             style="fill:#231f20;fill-opacity:1;fill-rule:nonzero;stroke:none"
             id="path46350" />
        </g>
        <g
           id="g46352"
           transform="translate(6.4609,30.7236)">
          <path
             d="m 0,0 c -0.053,-0.404 -0.185,-0.745 -0.637,-0.874 -0.892,-0.254 -2.736,0.514 -3.1,1.313 -0.178,0.389 -0.154,0.794 0.182,1.074 0.674,0.56 1.445,0.555 2.221,0.237 C -0.56,1.432 0.01,0.936 0,0"
             style="fill:#231f20;fill-opacity:1;fill-rule:nonzero;stroke:none"
             id="path46354" />
        </g>
        <g
           id="g46356"
           transform="translate(144.6577,32.3496)">
          <path
             d="M 0,0 C 1.223,-0.037 2.14,-0.727 2.159,-1.551 2.176,-2.332 1.454,-2.899 0.526,-2.833 -0.619,-2.751 -1.805,-1.879 -1.701,-1.098 -1.563,-0.065 -0.685,-0.07 0,0"
             style="fill:#231f20;fill-opacity:1;fill-rule:nonzero;stroke:none"
             id="path46358" />
        </g>
        <g
           id="g46360"
           transform="translate(217.9756,32.7158)">
          <path
             d="M 0,0 C 1.263,-0.014 2.189,-0.705 2.081,-1.552 1.986,-2.291 1.511,-2.653 0.761,-2.633 -0.294,-2.604 -1.281,-1.818 -1.27,-0.98 -1.258,-0.093 -0.592,-0.036 0,0"
             style="fill:#231f20;fill-opacity:1;fill-rule:nonzero;stroke:none"
             id="path46362" />
        </g>
        <g
           id="g46364"
           transform="translate(287.8257,31.4688)">
          <path
             d="m 0,0 c 0.663,-0.006 1.139,-0.422 1.139,-1.281 0,-0.823 -0.41,-1.322 -1.267,-1.384 -0.878,-0.064 -1.571,0.205 -1.785,1.136 C -2.081,-0.796 -1.209,-0.057 0,0"
             style="fill:#231f20;fill-opacity:1;fill-rule:nonzero;stroke:none"
             id="path46366" />
        </g>
        <g
           id="g46368"
           transform="translate(261.4194,261.5449)">
          <path
             d="M 0,0 C 0.037,0.812 0.137,1.65 0.989,1.991 1.903,2.356 2.671,1.919 3.313,1.257 3.421,1.146 3.492,0.998 3.575,0.865 4.185,-0.104 4.675,-1.09 3.925,-2.207 3.427,-2.948 2.708,-2.826 2.008,-2.631 0.831,-2.303 0.028,-1.228 0,0"
             style="fill:#231f20;fill-opacity:1;fill-rule:nonzero;stroke:none"
             id="path46370" />
        </g>
        <g
           id="g46372"
           transform="translate(151.1025,289.2461)">
          <path
             d="M 0,0 C 0.432,-0.039 0.474,2.123 0.906,2.081 4.27,1.754 0.271,2.443 1.366,5.723 1.761,6.907 2.05,8.122 2.675,9.223 3.09,9.953 3.567,10.62 4.471,10.633 5.52,10.648 6.037,9.844 6.413,9.026 7.024,7.694 7.18,6.305 6.786,4.852 4.738,-2.721 2.544,-10.247 0.07,-17.695 c -1.545,-4.652 -2.756,-9.415 -4.275,-14.076 -2.872,-8.812 -5.084,-17.833 -8.417,-26.501 -0.927,-2.41 -1.547,-4.936 -2.336,-7.399 -2.361,-7.384 -4.827,-14.735 -7.084,-22.151 -3.919,-12.877 -7.666,-25.807 -11.575,-38.688 -2.2,-7.253 -4.602,-14.442 -6.869,-21.675 -2.8,-8.93 -5.543,-17.879 -8.331,-26.813 -1.408,-4.511 -3.026,-8.962 -4.262,-13.518 -2.405,-8.863 -5.643,-17.463 -8.031,-26.334 -1.296,-4.815 -3.008,-9.52 -4.171,-14.383 -0.273,-1.142 -0.935,-2.087 -1.842,-2.852 -1.418,1.121 -1.87,2.417 -1.242,4.064 1.72,4.512 2.446,9.312 3.994,13.875 1.146,3.377 2.299,6.754 3.323,10.169 4.533,15.116 9.017,30.246 13.527,45.369 1.884,6.317 3.787,12.629 5.683,18.944 3.155,10.505 6.335,21.002 9.465,31.515 3.995,13.416 7.933,26.849 11.931,40.265 3.361,11.281 6.775,22.547 10.163,33.82 2.208,7.343 4.425,14.683 6.612,22.031 0.915,3.072 1.663,5.136 2.736,8.178 0.923,2.615 1.909,1.979 -0.653,2.883 -0.731,0.258 2.084,0.167 1.386,0.514 C -0.132,-0.305 -0.066,-0.153 0,0"
             style="fill:#231f20;fill-opacity:1;fill-rule:nonzero;stroke:none"
             id="path46374" />
        </g>
        <g
           id="g46376"
           transform="translate(12.5161,67.3525)">
          <path
             d="m 0,0 c -0.421,0.068 -0.358,-2.59 -0.779,-2.518 -3.278,0.564 0.633,-0.476 -0.272,-4.46 -0.326,-1.438 -0.549,-2.92 -1.102,-4.245 -0.368,-0.879 -0.799,-1.676 -1.674,-1.649 -1.017,0.031 -1.557,1.046 -1.96,2.07 -0.657,1.669 -0.874,3.386 -0.562,5.156 1.624,9.221 3.392,18.379 5.435,27.427 1.276,5.652 2.223,11.455 3.473,17.119 2.364,10.708 4.077,21.704 6.895,32.213 0.783,2.92 1.265,5.999 1.911,8.994 1.937,8.975 3.977,17.904 5.811,26.922 3.185,15.661 6.201,31.395 9.375,47.061 1.787,8.82 3.773,17.555 5.626,26.347 2.288,10.857 4.52,21.739 6.797,32.602 1.15,5.483 2.505,10.883 3.487,16.431 1.909,10.793 4.637,21.223 6.528,32.026 1.028,5.864 2.463,11.573 3.358,17.503 0.211,1.391 0.807,2.523 1.65,3.42 1.428,-1.447 1.928,-3.063 1.398,-5.06 -1.452,-5.47 -1.925,-11.343 -3.209,-16.886 -0.95,-4.101 -1.907,-8.202 -2.737,-12.356 C 45.776,229.731 42.151,211.325 38.5,192.929 36.976,185.244 35.433,177.566 33.895,169.886 31.337,157.108 28.756,144.341 26.224,131.553 22.991,115.232 19.814,98.888 16.579,82.568 13.857,68.846 11.087,55.144 8.339,41.432 6.55,32.5 4.75,23.573 2.98,14.634 2.241,10.897 1.614,8.394 0.718,4.7 -0.052,1.525 -1.038,2.355 1.49,1.121 2.211,0.769 -0.524,1.016 0.17,0.554 0.114,0.369 0.057,0.185 0,0"
             style="fill:#231f20;fill-opacity:1;fill-rule:nonzero;stroke:none"
             id="path46378" />
        </g>
        <g
           id="g46380"
           transform="translate(293.3286,48.8721)">
          <path
             d="m 0,0 c 0.006,0.848 0.404,1.538 0.936,2.146 0.945,1.078 1.836,2.225 2.907,3.166 3.956,3.472 7.542,7.321 11.33,10.964 0.229,0.221 0.464,0.438 0.698,0.655 0.808,0.745 1.532,1.758 2.858,1.123 1.191,-0.572 1.916,-2.236 1.655,-3.691 C 20.255,13.641 19.945,12.986 19.436,12.461 17.773,10.746 16.242,8.912 14.498,7.265 11.261,4.205 8.123,1.039 4.946,-2.085 4.104,-2.912 3.389,-3.988 1.916,-3.345 0.831,-2.87 -0.01,-1.457 0,0"
             style="fill:#231f20;fill-opacity:1;fill-rule:nonzero;stroke:none"
             id="path46382" />
        </g>
        <g
           id="g46384"
           transform="translate(332.6401,79.5469)">
          <path
             d="m 0,0 c 0.244,-1.1 -0.084,-2.88 1.184,-3.294 1.458,-0.475 2.243,1.17 3.026,2.238 0.321,0.438 0.503,0.998 0.66,1.529 C 5.299,1.923 4.859,3.151 3.784,4.165 2.56,5.319 1.47,5.127 0.766,3.622 0.249,2.521 0.127,1.322 0,0 m -2.04,-1.132 c -0.097,2.16 0.186,3.897 0.974,5.492 0.661,1.342 1.642,2.373 3.339,2.268 C 4.28,6.503 5.778,5.395 6.434,3.814 7.612,0.972 7.047,-1.477 5.004,-3.674 4.679,-4.024 4.366,-4.388 4.037,-4.734 2.104,-6.775 0.21,-6.584 -1.349,-4.205 c -0.693,1.06 -0.848,2.221 -0.691,3.073"
             style="fill:#231f20;fill-opacity:1;fill-rule:nonzero;stroke:none"
             id="path46386" />
        </g>
        <g
           id="g46388"
           transform="translate(323.4067,76.4678)">
          <path
             d="M 0,0 C 1.407,0.058 2.651,-0.982 2.643,-2.084 2.634,-2.995 2.203,-3.586 1.227,-3.653 0.067,-3.732 -1.409,-2.471 -1.393,-1.37 -1.377,-0.354 -0.681,-0.051 0,0"
             style="fill:#231f20;fill-opacity:1;fill-rule:nonzero;stroke:none"
             id="path46390" />
        </g>
        <g
           id="g46392"
           transform="translate(347.1519,84.1631)">
          <path
             d="m 0,0 c -0.109,-1.311 -0.629,-2.729 -1.535,-4.055 -0.665,-0.971 -1.279,-1.971 -1.863,-2.982 -0.28,-0.485 -0.1,-0.861 0.593,-0.932 0.572,-0.057 1.162,-0.017 1.689,-0.286 0.324,-0.167 0.624,-0.38 0.635,-0.715 0.011,-0.357 -0.31,-0.559 -0.681,-0.632 -1.27,-0.246 -2.533,-0.55 -3.82,-0.681 -1.208,-0.122 -1.712,0.374 -1.751,1.436 -0.023,0.587 0.188,1.117 0.517,1.616 0.504,0.763 1.004,1.53 1.524,2.286 0.781,1.137 1.478,2.309 1.982,3.562 0.238,0.593 0.608,1.293 0.037,1.787 -0.707,0.613 -1.466,-0.01 -2.177,-0.233 -0.198,-0.062 -0.365,-0.2 -0.545,-0.306 -0.408,-0.239 -0.833,-0.648 -1.297,-0.143 -0.36,0.389 -0.171,0.841 0.074,1.243 0.743,1.222 3.339,2.265 4.867,1.965 C -0.559,2.695 0.019,1.806 0,0"
             style="fill:#231f20;fill-opacity:1;fill-rule:nonzero;stroke:none"
             id="path46394" />
        </g>
      </g>
    </g>
    <text
       xml:space="preserve"
       transform="matrix(1,0,0,-1,21.0024,241.0752)"
       style="font-variant:normal;font-weight:normal;font-stretch:normal;font-size:18px;font-family:'Humor Sans';-inkscape-font-specification:HumorSans;writing-mode:lr-tb;fill:#231f20;fill-opacity:1;fill-rule:nonzero;stroke:none"
       id="text46408"><tspan
         x="0"
         y="0"
         id="tspan46396">0</tspan><tspan
         x="88.938004"
         y="20.448"
         id="tspan46398">0</tspan><tspan
         x="173.93401"
         y="58.518002"
         id="tspan46400">0</tspan><tspan
         x="208.188"
         y="143.51401"
         id="tspan46402">0</tspan><tspan
         x="288.522"
         y="60.066002"
         id="tspan46404">0</tspan><tspan
         x="264.42001"
         y="176.79601"
         id="tspan46406">0</tspan></text>
    <g
       id="g46410">
      <g
         id="g46412"
         clip-path="url(#clipPath46416)">
        <g
           id="g46418"
           transform="translate(292.5571,117.3428)">
          <path
             d="m 0,0 c 1.196,-0.156 2.2,-0.705 3.045,-1.463 1.927,-1.729 3.992,-3.362 5.661,-5.301 5.182,-6.02 10.196,-12.171 15.297,-18.254 0.842,-1.003 1.413,-1.899 0.558,-3.232 -1.328,-2.068 -2.745,-2.35 -4.269,-0.383 -6.431,8.298 -13.902,15.778 -20.516,23.929 -0.712,0.878 -1.348,1.805 -1.38,2.956 C -1.633,-0.729 -1.122,-0.085 0,0"
             style="fill:#231f20;fill-opacity:1;fill-rule:nonzero;stroke:none"
             id="path46420" />
        </g>
      </g>
    </g>
    <text
       xml:space="preserve"
       transform="matrix(1,0,0,-1,439.3442,61.9834)"
       style="font-variant:normal;font-weight:normal;font-stretch:normal;font-size:18px;font-family:'Humor Sans';-inkscape-font-specification:HumorSans;writing-mode:lr-tb;fill:#231f20;fill-opacity:1;fill-rule:nonzero;stroke:none"
       id="text46434"><tspan
         x="0"
         y="0"
         id="tspan46422">0</tspan><tspan
         x="-314.172"
         y="-281.71799"
         id="tspan46424">1</tspan><tspan
         x="-119.97"
         y="-183.636"
         id="tspan46426">1</tspan><tspan
         x="-223.686"
         y="-240.82201"
         id="tspan46428">1</tspan><tspan
         x="13.572"
         y="-82.223999"
         id="tspan46430">1</tspan><tspan
         x="71.351997 -79.632004"
         y="0.396"
         id="tspan46432">11</tspan></text>
    <g
       id="g46436">
      <g
         id="g46438"
         clip-path="url(#clipPath46442)">
        <text
           xml:space="preserve"
           transform="matrix(1,0,0,-1,0,6.3164)"
           style="font-variant:normal;font-weight:normal;font-stretch:normal;font-size:21px;font-family:'Humor Sans';-inkscape-font-specification:HumorSans;writing-mode:lr-tb;fill:#231f20;fill-opacity:1;fill-rule:nonzero;stroke:none"
           id="text46446"><tspan
             x="0 76.608002 82.887001 137.61301 143.892 150.17101 195.657 201.936 208.215 214.494 226.19099 267.918 274.19699 280.47601 286.755 298.452 304.73099"
             y="0"
             id="tspan46444">01011011100111010</tspan></text>
      </g>
    </g>
    <text
       xml:space="preserve"
       transform="matrix(1,0,0,-1,313.707,110.5962)"
       style="font-variant:normal;font-weight:normal;font-stretch:normal;font-size:18px;font-family:'Humor Sans';-inkscape-font-specification:HumorSans;writing-mode:lr-tb;fill:#231f20;fill-opacity:1;fill-rule:nonzero;stroke:none"
       id="text46450"><tspan
         x="0"
         y="0"
         id="tspan46448">1</tspan></text>
    <g
       id="g46452">
      <g
         id="g46454"
         clip-path="url(#clipPath46458)">
        <text
           xml:space="preserve"
           transform="matrix(1,0,0,-1,340.9331,6.3169)"
           style="font-variant:normal;font-weight:normal;font-stretch:normal;font-size:21px;font-family:'Humor Sans';-inkscape-font-specification:HumorSans;writing-mode:lr-tb;fill:#231f20;fill-opacity:1;fill-rule:nonzero;stroke:none"
           id="text46462"><tspan
             x="0 6.2789998 12.558 18.837 30.534 36.813 73.731003 80.010002 86.289001 92.568001 98.847 155.73599 162.015 168.29401 174.573 180.85201"
             y="0"
             id="tspan46460">1110111111011111</tspan></text>
      </g>
    </g>
  </g>
</svg>
