<?xml version="1.0" encoding="UTF-8" standalone="no"?>
<!-- Created with Inkscape (http://www.inkscape.org/) -->

<svg
   version="1.1"
   id="svg46616"
   width="882.00665"
   height="679.57202"
   viewBox="0 0 882.00665 679.57202"
   xmlns="http://www.w3.org/2000/svg"
   xmlns:svg="http://www.w3.org/2000/svg">
  <defs
     id="defs46620">
    <clipPath
       clipPathUnits="userSpaceOnUse"
       id="clipPath46630">
      <path
         d="M 13.303,0 H 661.505 V 506.47 H 13.303 Z"
         id="path46628" />
    </clipPath>
    <clipPath
       clipPathUnits="userSpaceOnUse"
       id="clipPath46706">
      <path
         d="M 1,0 H 661.505 V 505.679 H 1 Z"
         id="path46704" />
    </clipPath>
    <clipPath
       clipPathUnits="userSpaceOnUse"
       id="clipPath46722">
      <path
         d="M 1,0 H 661.505 V 505.679 H 1 Z"
         id="path46720" />
    </clipPath>
    <clipPath
       clipPathUnits="userSpaceOnUse"
       id="clipPath46746">
      <path
         d="M 1,0 H 661.505 V 496.679 H 1 Z"
         id="path46744" />
    </clipPath>
    <clipPath
       clipPathUnits="userSpaceOnUse"
       id="clipPath46772">
      <path
         d="M 0,509.679 H 661.505 V 0 H 0 Z"
         id="path46770" />
    </clipPath>
    <clipPath
       clipPathUnits="userSpaceOnUse"
       id="clipPath46788">
      <path
         d="M 0,509.679 H 661.505 V 0 H 0 Z"
         id="path46786" />
    </clipPath>
  </defs>
  <g
     id="g46622"
     transform="matrix(1.3333333,0,0,-1.3333333,0,679.572)">
    <g
       id="g46624">
      <g
         id="g46626"
         clip-path="url(#clipPath46630)">
        <g
           id="g46632"
           transform="translate(56.083,475.8423)">
          <path
             d="M 0,0 C -2.406,0.018 -4.294,0.13 -5.664,0.336 -7.033,0.542 -7.759,0.767 -7.841,1.008 -7.924,1.25 -7.344,1.466 -6.099,1.654 -4.854,1.842 -2.821,1.936 0,1.936 6.472,1.882 11.783,1.842 15.932,1.815 20.081,1.788 23.358,1.766 25.765,1.748 28.171,1.73 29.955,1.712 31.117,1.694 32.278,1.676 33.108,1.667 33.606,1.667 34.104,1.631 34.602,1.524 35.1,1.345 35.598,1.166 35.93,0.968 36.096,0.753 36.261,0.538 36.179,0.336 35.847,0.148 35.515,-0.04 34.768,-0.161 33.606,-0.215 Z"
             style="fill:#999999;fill-opacity:1;fill-rule:nonzero;stroke:none"
             id="path46634" />
        </g>
        <g
           id="g46636"
           transform="translate(52.4766,471.5366)">
          <path
             d="m 0,0 c -0.829,0.651 -1.608,1.313 -2.337,1.987 -0.729,0.674 -1.365,1.331 -1.906,1.971 -0.542,0.64 -0.923,1.184 -1.144,1.633 0.044,0.225 0.254,0.534 0.63,0.927 0.376,0.393 0.851,0.808 1.425,1.246 0.575,0.438 1.21,0.882 1.907,1.33 0.696,0.449 1.375,0.848 2.038,1.196 0.663,0.348 1.266,0.629 1.807,0.842 0.542,0.214 0.956,0.309 1.244,0.286 C 3.929,11.374 4.117,11.312 4.227,11.233 4.337,11.155 4.409,11.054 4.442,10.93 4.476,10.807 4.481,10.666 4.459,10.509 4.437,10.352 4.415,10.195 4.393,10.038 4.017,9.678 3.47,9.274 2.752,8.825 2.034,8.376 1.288,7.938 0.514,7.511 -0.26,7.084 -0.978,6.692 -1.641,6.333 -2.304,5.973 -2.768,5.692 -3.033,5.49 L 3.199,0 C 3.442,-0.292 3.603,-0.572 3.68,-0.842 3.757,-1.111 3.757,-1.336 3.68,-1.516 3.603,-1.695 3.459,-1.813 3.249,-1.869 3.039,-1.925 2.769,-1.875 2.437,-1.718 1.641,-1.224 0.829,-0.651 0,0"
             style="fill:#999999;fill-opacity:1;fill-rule:nonzero;stroke:none"
             id="path46638" />
        </g>
        <g
           id="g46640"
           transform="translate(646.0918,423.1191)">
          <path
             d="m 0,0 c -0.054,-1.162 -0.175,-1.909 -0.362,-2.24 -0.19,-0.332 -0.391,-0.415 -0.606,-0.249 -0.216,0.166 -0.413,0.498 -0.592,0.995 -0.178,0.498 -0.287,0.996 -0.323,1.494 0,0.498 -0.009,1.328 -0.026,2.489 -0.019,1.162 -0.035,2.946 -0.054,5.352 -0.017,2.407 -0.041,5.684 -0.066,9.833 -0.029,4.149 -0.069,9.46 -0.121,15.932 0,2.822 0.092,4.854 0.281,6.099 0.188,1.245 0.403,1.826 0.645,1.743 0.244,-0.083 0.466,-0.809 0.672,-2.178 0.206,-1.37 0.32,-3.257 0.337,-5.664 z"
             style="fill:#999999;fill-opacity:1;fill-rule:nonzero;stroke:none"
             id="path46642" />
        </g>
        <g
           id="g46644"
           transform="translate(651.9004,457.8945)">
          <path
             d="m 0,0 c 0.157,-0.332 0.207,-0.603 0.151,-0.812 -0.056,-0.21 -0.172,-0.354 -0.353,-0.431 -0.18,-0.078 -0.403,-0.078 -0.674,0 -0.27,0.077 -0.551,0.237 -0.842,0.48 L -7.208,5.47 C -7.41,5.205 -7.69,4.741 -8.051,4.078 -8.41,3.415 -8.803,2.696 -9.229,1.923 c -0.427,-0.774 -0.865,-1.52 -1.314,-2.238 -0.449,-0.718 -0.853,-1.265 -1.213,-1.641 -0.157,-0.022 -0.313,-0.044 -0.472,-0.066 -0.157,-0.022 -0.295,-0.017 -0.419,0.016 -0.124,0.033 -0.226,0.105 -0.304,0.216 -0.079,0.11 -0.141,0.298 -0.186,0.563 -0.022,0.288 0.074,0.702 0.286,1.244 0.214,0.541 0.496,1.143 0.843,1.806 0.348,0.663 0.746,1.343 1.195,2.039 0.45,0.697 0.893,1.332 1.332,1.907 0.437,0.574 0.852,1.049 1.247,1.425 0.391,0.376 0.7,0.586 0.924,0.63 0.451,-0.221 0.996,-0.602 1.634,-1.144 0.64,-0.541 1.297,-1.177 1.971,-1.906 0.673,-0.73 1.336,-1.508 1.987,-2.337 C -1.066,1.608 -0.494,0.795 0,0"
             style="fill:#999999;fill-opacity:1;fill-rule:nonzero;stroke:none"
             id="path46646" />
        </g>
        <g
           id="g46648"
           transform="translate(591.3066,474.1504)">
          <path
             d="m 0,0 c -1.162,0.054 -1.908,0.175 -2.24,0.363 -0.331,0.188 -0.414,0.39 -0.248,0.605 0.165,0.215 0.497,0.412 0.994,0.592 0.498,0.179 0.996,0.287 1.494,0.322 0.498,0 1.328,0.01 2.489,0.027 1.162,0.018 2.947,0.036 5.353,0.054 2.406,0.018 5.683,0.04 9.833,0.067 4.148,0.027 9.459,0.068 15.931,0.121 2.823,0 4.855,-0.094 6.099,-0.282 C 40.95,1.681 41.531,1.466 41.448,1.224 41.365,0.981 40.64,0.757 39.271,0.551 37.9,0.345 36.014,0.233 33.606,0.215 Z"
             style="fill:#999999;fill-opacity:1;fill-rule:nonzero;stroke:none"
             id="path46650" />
        </g>
        <g
           id="g46652"
           transform="translate(626.082,468.3423)">
          <path
             d="m 0,0 c -0.331,-0.157 -0.603,-0.208 -0.812,-0.152 -0.209,0.056 -0.354,0.174 -0.431,0.354 -0.076,0.18 -0.076,0.404 0,0.673 0.077,0.27 0.237,0.551 0.48,0.843 l 6.234,5.49 C 5.205,7.41 4.741,7.691 4.078,8.05 3.415,8.409 2.696,8.802 1.923,9.229 c -0.774,0.427 -1.52,0.864 -2.236,1.313 -0.72,0.45 -1.267,0.854 -1.643,1.213 -0.023,0.157 -0.044,0.314 -0.065,0.472 -0.023,0.157 -0.018,0.297 0.015,0.42 0.033,0.124 0.107,0.225 0.216,0.304 0.11,0.078 0.298,0.14 0.563,0.185 0.289,0.023 0.704,-0.073 1.245,-0.286 C 0.559,12.636 1.16,12.356 1.823,12.008 2.486,11.66 3.166,11.261 3.862,10.812 4.56,10.363 5.194,9.919 5.77,9.481 6.343,9.043 6.818,8.628 7.194,8.235 7.569,7.842 7.779,7.534 7.824,7.309 7.604,6.86 7.223,6.315 6.682,5.675 6.14,5.036 5.503,4.378 4.774,3.705 4.045,3.031 3.267,2.369 2.438,1.718 1.608,1.066 0.796,0.494 0,0"
             style="fill:#999999;fill-opacity:1;fill-rule:nonzero;stroke:none"
             id="path46654" />
        </g>
        <g
           id="g46656"
           transform="translate(622.5703,465.5859)">
          <path
             d="M 0,0 -0.39,-0.02 -0.779,-0.04 -1.17,-0.06 -1.561,-0.07 -1.949,-0.09 -2.34,-0.11 -2.729,-0.13 -3.12,-0.15 -3.521,-0.17 -3.91,-0.19 -4.3,-0.21 -4.689,-0.22 -5.08,-0.24 -5.47,-0.26 -5.87,-0.28 -6.26,-0.3 -6.649,-0.32 -7.04,-0.34 -7.43,-0.36 -7.819,-0.38 -8.21,-0.4 -8.601,-0.42 -9,-0.44 -9.39,-0.46 -9.779,-0.48 -10.17,-0.5 l -0.391,-0.02 -0.388,-0.02 -0.391,-0.02 -0.399,-0.02 -0.391,-0.02 -0.391,-0.02 -0.389,-0.02 -0.39,-0.02 -0.389,-0.02 -0.391,-0.02 -0.39,-0.02 -0.4,-0.02 -0.39,-0.02 -0.389,-0.02 -0.391,-0.02 -0.39,-0.02 -0.389,-0.02 -0.391,-0.03 -0.399,-0.02 -0.391,-0.02 -0.39,-0.02 -0.389,-0.02 -0.391,-0.02 -0.39,-0.02 -0.389,-0.02 -0.391,-0.03 -0.399,-0.02 -0.391,-0.02 -0.39,-0.02 -0.39,-0.02 -0.39,-0.02 -0.389,-0.02 -0.391,-0.03 -0.399,-0.02 -0.391,-0.02 -0.39,-0.02 -0.389,-0.02 -0.391,-0.03 -0.39,-0.02 -0.389,-0.02 -0.391,-0.02 -0.399,-0.03 -0.391,-0.02 -0.39,-0.02 -0.389,-0.02 -0.391,-0.02 -0.39,-0.03 -0.389,-0.02 -0.401,-0.02 -0.389,-0.03 -0.391,-0.02 -0.39,-0.02 -0.39,-0.03 -0.39,-0.02 -0.389,-0.02 -0.391,-0.03 -0.399,-0.02 -0.391,-0.02 -0.39,-0.02 -0.389,-0.03 -0.391,-0.02 -0.39,-0.03 -0.389,-0.02 -0.401,-0.02 -0.389,-0.03 -0.391,-0.02 -0.39,-0.02 -0.389,-0.03 -0.391,-0.02 -0.39,-0.03 -0.389,-0.02 -0.401,-0.03 -0.389,-0.02 -0.391,-0.03 -0.39,-0.02 -0.39,-0.02 -0.39,-0.03 -0.389,-0.02 -0.401,-0.03 -0.389,-0.02 -0.391,-0.03 -0.39,-0.02 -0.389,-0.03 -0.391,-0.02 -0.39,-0.03 -0.389,-0.02 -0.401,-0.03 -0.389,-0.03 -0.391,-0.02 -0.39,-0.03 -0.389,-0.02 -0.391,-0.03 -0.39,-0.02 -0.4,-0.03 -0.39,-0.03 -0.389,-0.02 -0.391,-0.03 -0.39,-0.02 -0.39,-0.03 -0.39,-0.03 -0.389,-0.02 -0.401,-0.03 -0.389,-0.03 -0.391,-0.02 -0.39,-0.03 -0.389,-0.03 -0.391,-0.02 -0.39,-0.03 -0.4,-0.03 -0.39,-0.02 -0.389,-0.03 -0.391,-0.03 -0.39,-0.03 -0.389,-0.02 -0.391,-0.03 -0.39,-0.03 -0.4,-0.03 -0.39,-0.02 -0.389,-0.03 -0.391,-0.03 -0.39,-0.03 -0.39,-0.02 -0.39,-0.03 -0.399,-0.03 -0.391,-0.03 -0.389,-0.03 -0.391,-0.03 -0.39,-0.02 -0.389,-0.03 -0.391,-0.03 -0.39,-0.03 -0.4,-0.03 -0.39,-0.03 -0.389,-0.03 -0.391,-0.03 -0.39,-0.03 -0.389,-0.03 -0.391,-0.03 -0.399,-0.02 -0.391,-0.03 -0.39,-0.03 -0.389,-0.03 -0.391,-0.03 -0.39,-0.03 -0.39,-0.03 -0.39,-0.03 -0.399,-0.03 -0.391,-0.03 -0.389,-0.03 -0.391,-0.03 -0.39,-0.03 -0.389,-0.03 -0.391,-0.03 -0.39,-0.04 -0.4,-0.03 -0.39,-0.03 -0.389,-0.03 -0.391,-0.03 -0.39,-0.03 -0.389,-0.03 -0.391,-0.03 -0.399,-0.03 -0.391,-0.03 -0.39,-0.04 -0.389,-0.03 -0.391,-0.03 -0.39,-0.03 -0.39,-0.03 -0.4,-0.04 -0.389,-0.03 -0.391,-0.03 -0.389,-0.03 -0.391,-0.04 -0.39,-0.03 -0.389,-0.03 -0.391,-0.03 -0.39,-0.03 -0.4,-0.04 -0.39,-0.03 -0.389,-0.03 -0.391,-0.04 -0.39,-0.03 -0.389,-0.03 -0.391,-0.04 -0.399,-0.03 -0.391,-0.03 -0.39,-0.04 -0.389,-0.03 -0.391,-0.03 -0.39,-0.04 -0.39,-0.03 -0.4,-0.04 -0.389,-0.03 -0.391,-0.04 -0.389,-0.03 -0.391,-0.03 -0.39,-0.04 -0.389,-0.03 -0.401,-0.04 -0.389,-0.03 -0.391,-0.04 -0.39,-0.03 -0.389,-0.04 -0.391,-0.03 -0.39,-0.04 -0.389,-0.04 -0.391,-0.03 -0.399,-0.04 -0.391,-0.03 -0.39,-0.04 -0.389,-0.03 -0.391,-0.04 -0.39,-0.04 -0.4,-0.03 -0.39,-0.04 -0.389,-0.04 -0.391,-0.03 -0.389,-0.04 -0.391,-0.04 -0.39,-0.03 -0.389,-0.04 -0.401,-0.04 -0.389,-0.03 -0.391,-0.04 -0.39,-0.04 -0.389,-0.04 -0.391,-0.03 -0.39,-0.04 -0.4,-0.04 -0.39,-0.04 -0.389,-0.04 -0.391,-0.03 -0.39,-0.04 -0.389,-0.04 -0.391,-0.04 -0.39,-0.04 -0.4,-0.04 -0.39,-0.03 -0.389,-0.04 -0.391,-0.04 -0.389,-0.04 -0.391,-0.04 -0.39,-0.04 -0.4,-0.04 -0.39,-0.04 -0.389,-0.04 -0.391,-0.04 -0.39,-0.04 -0.389,-0.04 -0.391,-0.04 -0.39,-0.04 -0.4,-0.04 -0.39,-0.04 -0.389,-0.04 -0.391,-0.04 -0.39,-0.04 -0.389,-0.04 -0.391,-0.04 -0.399,-0.05 -0.391,-0.04 -0.39,-0.04 -0.389,-0.04 -0.391,-0.04 -0.389,-0.04 -0.391,-0.05 -0.39,-0.04 -0.4,-0.04 -0.39,-0.04 -0.389,-0.05 -0.391,-0.04 -0.39,-0.04 -0.389,-0.04 -0.391,-0.05 -0.399,-0.04 -0.391,-0.04 -0.39,-0.05 -0.389,-0.04 -0.391,-0.04 -0.39,-0.05 -0.389,-0.04 -0.391,-0.04 -0.399,-0.05 -0.391,-0.04 -0.39,-0.05 -0.389,-0.04 -0.391,-0.04 -0.389,-0.05 -0.391,-0.04 -0.4,-0.05 -0.39,-0.04 -0.39,-0.05 -0.389,-0.04 -0.391,-0.05 -0.39,-0.04 -0.389,-0.05 -0.391,-0.04 -0.399,-0.05 -0.391,-0.05 -0.39,-0.04 -0.389,-0.05 -0.391,-0.04 -0.39,-0.05 -0.389,-0.05 -0.401,-0.04 -0.389,-0.05 -0.391,-0.05 -0.39,-0.05 -0.389,-0.04 -0.391,-0.05 -0.389,-0.05 -0.391,-0.04 -0.4,-0.05 -0.39,-0.05 -0.39,-0.05 -0.389,-0.05 -0.391,-0.05 -0.39,-0.04 -0.389,-0.05 -0.401,-0.05 -0.389,-0.05 -0.391,-0.05 -0.39,-0.05 -0.389,-0.05 -0.391,-0.05 -0.39,-0.05 -0.389,-0.05 -0.401,-0.05 -0.389,-0.05 -0.391,-0.05 -0.39,-0.05 -0.389,-0.05 -0.391,-0.05 -0.389,-0.05 -0.391,-0.05 -0.4,-0.05 -0.39,-0.05 -0.39,-0.05 -0.389,-0.05 -0.391,-0.06 -0.39,-0.05 -0.389,-0.05 -0.401,-0.05 -0.389,-0.05 -0.391,-0.05 -0.39,-0.06 -0.389,-0.05 -0.391,-0.05 -0.39,-0.06 -0.4,-0.05 -0.39,-0.05 -0.389,-0.05 -0.391,-0.06 -0.39,-0.05 -0.389,-0.05 -0.391,-0.06 -0.389,-0.05 -0.391,-0.06 -0.4,-0.05 -0.39,-0.06 -0.39,-0.05 -0.389,-0.06 -0.391,-0.05 -0.39,-0.05 -0.4,-0.06 -0.39,-0.06 -0.389,-0.05 -0.391,-0.06 -0.39,-0.05 -0.389,-0.06 -0.391,-0.06 -0.39,-0.05 -0.4,-0.06 -0.39,-0.05 -0.389,-0.06 -0.391,-0.06 -0.39,-0.05 -0.389,-0.06 -0.391,-0.06 -0.399,-0.06 -0.391,-0.05 -0.39,-0.06 -0.39,-0.06 -0.39,-0.06 -0.389,-0.06 -0.391,-0.06 -0.39,-0.06 -0.4,-0.05 -0.39,-0.06 -0.389,-0.06 -0.391,-0.06 -0.39,-0.06 -0.389,-0.06 -0.391,-0.06 -0.399,-0.06 -0.391,-0.06 -0.39,-0.06 -0.389,-0.06 -0.391,-0.06 -0.39,-0.06 -0.389,-0.06 -0.391,-0.06 -0.399,-0.07 -0.391,-0.06 -0.39,-0.06 -0.39,-0.06 -0.39,-0.06 -0.389,-0.07 -0.391,-0.06 -0.39,-0.06 -0.4,-0.06 -0.39,-0.07 -0.389,-0.06 -0.391,-0.06 -0.39,-0.07 -0.389,-0.06 -0.391,-0.06 -0.399,-0.07 -0.391,-0.06 -0.39,-0.07 -0.389,-0.06 -0.391,-0.07 -0.39,-0.06 -0.389,-0.07 -0.391,-0.06 -0.399,-0.07 -0.391,-0.06 -0.39,-0.07 -0.39,-0.06 -0.39,-0.07 -0.389,-0.07 -0.391,-0.06 -0.39,-0.07 -0.4,-0.07 -0.39,-0.06 -0.389,-0.07 -0.391,-0.07 -0.39,-0.06 -0.389,-0.07 -0.401,-0.07 -0.389,-0.07 -0.391,-0.07 -0.39,-0.07 -0.389,-0.07 -0.391,-0.06 -0.39,-0.07 -0.389,-0.07 -0.391,-0.07 -0.399,-0.07 -0.391,-0.07 -0.39,-0.07 -0.39,-0.07 -0.39,-0.07 -0.389,-0.07 -0.391,-0.07 -0.399,-0.07 -0.391,-0.08 -0.39,-0.07 -0.389,-0.07 -0.391,-0.07 -0.39,-0.07 -0.389,-0.08 -0.401,-0.07 -0.389,-0.07 -0.391,-0.07 -0.39,-0.08 -0.389,-0.07 -0.391,-0.07 -0.39,-0.08 -0.4,-0.07 -0.39,-0.08 -0.389,-0.07 -0.391,-0.07 -0.39,-0.08 -0.39,-0.07 -0.39,-0.08 -0.389,-0.07 -0.391,-0.08 -0.399,-0.08 -0.391,-0.07 -0.39,-0.08 -0.389,-0.07 -0.391,-0.08 -0.39,-0.08 -0.389,-0.07 -0.401,-0.08 -0.389,-0.08 -0.391,-0.08 -0.39,-0.07 -0.389,-0.08 -0.391,-0.08 -0.39,-0.08 -0.4,-0.08 -0.39,-0.08 -0.389,-0.07 -0.391,-0.09 -0.39,-0.07 -0.39,-0.08 -0.39,-0.08 -0.389,-0.08 -0.401,-0.09 -0.389,-0.08 -0.391,-0.08 -0.39,-0.08 -0.389,-0.08 -0.391,-0.08 -0.39,-0.08 -0.389,-0.08 -0.401,-0.09 -0.389,-0.08 -0.391,-0.08 -0.39,-0.08 -0.389,-0.09 -0.391,-0.08 -0.399,-0.08 -0.391,-0.09 -0.39,-0.08 -0.389,-0.09 -0.391,-0.08 -0.39,-0.09 -0.39,-0.08 -0.39,-0.09 -0.389,-0.08 -0.401,-0.09 -0.389,-0.08 -0.391,-0.09 -0.39,-0.08 -0.389,-0.09 -0.391,-0.09 -0.39,-0.09 -0.4,-0.08 -0.39,-0.09 -0.389,-0.09 -0.391,-0.09 -0.39,-0.08 -0.389,-0.09 -0.391,-0.09 -0.399,-0.09 -0.391,-0.09 -0.39,-0.09 -0.389,-0.09 -0.391,-0.09 -0.39,-0.09 -0.39,-0.09 -0.4,-0.09 -0.389,-0.09 -0.391,-0.09 -0.389,-0.09 -0.391,-0.1 -0.39,-0.09 -0.389,-0.09 -0.391,-0.09 -0.39,-0.1 -0.4,-0.09 -0.39,-0.09 -0.389,-0.1 -0.391,-0.09 -0.39,-0.09 -0.389,-0.1 -0.391,-0.09 -0.399,-0.1 -0.391,-0.09 -0.39,-0.1 -0.389,-0.09 -0.391,-0.1 -0.39,-0.1 -0.39,-0.09 -0.4,-0.1 -0.389,-0.1 -0.391,-0.09 -0.389,-0.1 -0.391,-0.1 -0.39,-0.1 -0.389,-0.09 -0.401,-0.1 -0.389,-0.1 -0.391,-0.1 -0.39,-0.1 -0.389,-0.1 -0.391,-0.1 -0.39,-0.1 -0.389,-0.1 -0.391,-0.1 -0.399,-0.1 -0.391,-0.1 -0.39,-0.1 -0.389,-0.11 -0.391,-0.1 -0.39,-0.1 -0.4,-0.1 -0.39,-0.1 -0.389,-0.11 -0.391,-0.1 -0.389,-0.11 -0.391,-0.1 -0.39,-0.1 -0.389,-0.11 -0.401,-0.1 -0.389,-0.11 -0.391,-0.1 -0.39,-0.11 -0.389,-0.11 -0.391,-0.1 -0.39,-0.11 -0.389,-0.1 -0.401,-0.11 -0.389,-0.11 -0.391,-0.11 -0.39,-0.11 -0.389,-0.1 -0.391,-0.11 -0.39,-0.11 -0.4,-0.11 -0.39,-0.11 -0.389,-0.11 -0.391,-0.11 -0.389,-0.11 -0.391,-0.11 -0.39,-0.11 -0.4,-0.11 -0.39,-0.11 -0.389,-0.12 -0.391,-0.11 -0.39,-0.11 -0.389,-0.11 -0.391,-0.12 -0.39,-0.11 -0.389,-0.12 -0.401,-0.11 -0.389,-0.11 -0.391,-0.12 -0.39,-0.11 -0.389,-0.12 -0.391,-0.11 -0.39,-0.12 -0.4,-0.12 -0.39,-0.11 -0.389,-0.12 -0.391,-0.12 -0.389,-0.11 -0.391,-0.12 -0.39,-0.12 -0.4,-0.12 -0.39,-0.12 -0.389,-0.12 -0.391,-0.12 -0.39,-0.12 -0.389,-0.11 -0.391,-0.12 -0.399,-0.13 -0.391,-0.12 -0.39,-0.12 -0.389,-0.12 -0.391,-0.12 -0.39,-0.12 -0.389,-0.13 -0.391,-0.12 -0.399,-0.12 -0.391,-0.13 -0.39,-0.12 -0.389,-0.12 -0.391,-0.13 -0.389,-0.12 -0.391,-0.13 -0.4,-0.13 -0.39,-0.12 -0.39,-0.13 -0.389,-0.12 -0.391,-0.13 -0.39,-0.13 -0.389,-0.13 -0.391,-0.13 -0.399,-0.12 -0.391,-0.13 -0.39,-0.13 -0.389,-0.13 -0.391,-0.13 -0.39,-0.13 -0.389,-0.13 -0.401,-0.13 -0.389,-0.13 -0.391,-0.13 -0.39,-0.14 -0.389,-0.13 -0.391,-0.13 -0.389,-0.13 -0.391,-0.14 -0.4,-0.13 -0.39,-0.13 -0.39,-0.14 -0.389,-0.13 -0.391,-0.14 -0.39,-0.13 -0.389,-0.14 -0.401,-0.14 -0.389,-0.13 -0.391,-0.14 -0.39,-0.14 -0.389,-0.13 -0.391,-0.14 -0.39,-0.14 -0.389,-0.14 -0.401,-0.14 -0.389,-0.14 -0.391,-0.14 -0.39,-0.14 -0.389,-0.14 -0.391,-0.14 -0.389,-0.14 -0.401,-0.14 -0.39,-0.14 -0.39,-0.15 -0.39,-0.14 -0.389,-0.14 -0.391,-0.15 -0.39,-0.14 -0.389,-0.14 -0.401,-0.15 -0.389,-0.14 -0.391,-0.15 -0.39,-0.15 -0.39,-0.14 -0.389,-0.15 -0.391,-0.15 -0.4,-0.14 -0.39,-0.15 -0.39,-0.15 -0.39,-0.15 -0.39,-0.15 -0.39,-0.15 -0.39,-0.15 -0.389,-0.15 -0.401,-0.15 -0.39,-0.15 -0.39,-0.15 -0.39,-0.15 -0.389,-0.16 -0.391,-0.15 -0.39,-0.15 -0.4,-0.15 -0.39,-0.16 -0.39,-0.15 -0.39,-0.16 -0.39,-0.15 -0.39,-0.16 -0.389,-0.15 -0.391,-0.16 -0.4,-0.16 -0.39,-0.15 -0.39,-0.16 -0.39,-0.16 -0.39,-0.16 -0.39,-0.16 -0.39,-0.16 -0.4,-0.16 -0.39,-0.16 -0.39,-0.16 -0.39,-0.16 -0.39,-0.16 -0.389,-0.16 -0.391,-0.16 -0.39,-0.16 -0.4,-0.17 -0.39,-0.16 -0.39,-0.17 -0.39,-0.16 -0.39,-0.17 -0.39,-0.16 -0.389,-0.17 -0.401,-0.16 -0.39,-0.17 -0.39,-0.17 -0.39,-0.16 -0.39,-0.17 -0.39,-0.17 -0.39,-0.17 -0.39,-0.17 -0.4,-0.17 -0.39,-0.17 -0.39,-0.17 -0.39,-0.17 -0.39,-0.17 -0.389,-0.17 -0.391,-0.17 -0.399,-0.18 -0.391,-0.17 -0.39,-0.17 -0.39,-0.18 -0.39,-0.17 -0.39,-0.18 -0.39,-0.17 -0.389,-0.18 -0.401,-0.18 -0.39,-0.17 -0.39,-0.18 -0.39,-0.18 -0.39,-0.18 -0.39,-0.17 -0.39,-0.18 -0.4,-0.18 -0.39,-0.18 -0.39,-0.19 -0.39,-0.18 -0.39,-0.18 -0.39,-0.18 -0.389,-0.18 -0.391,-0.18 -0.399,-0.19 -0.391,-0.18 -0.39,-0.19 -0.39,-0.18 -0.39,-0.19 -0.39,-0.18 -0.39,-0.19 -0.4,-0.19 -0.39,-0.18 -0.39,-0.19 -0.39,-0.19 -0.39,-0.19 -0.39,-0.19 -0.39,-0.19 -0.39,-0.19 -0.4,-0.19 -0.39,-0.19 -0.39,-0.19 -0.39,-0.19 -0.39,-0.2 -0.39,-0.19 -0.389,-0.2 -0.401,-0.19 -0.389,-0.19 -0.391,-0.2 -0.39,-0.2 -0.39,-0.19 -0.39,-0.2 -0.39,-0.19 -0.39,-0.2 -0.4,-0.2 -0.39,-0.2 -0.39,-0.2 -0.39,-0.2 -0.39,-0.2 -0.39,-0.2 -0.39,-0.2 -0.399,-0.2 -0.391,-0.21 -0.39,-0.2 -0.39,-0.2 -0.39,-0.21 -0.39,-0.2 -0.39,-0.21 -0.389,-0.2 -0.401,-0.21 -0.389,-0.21 -0.391,-0.2 -0.39,-0.21 -0.39,-0.21 -0.39,-0.21 -0.39,-0.21 -0.4,-0.21 -0.39,-0.21 -0.39,-0.21 -0.39,-0.21 -0.39,-0.21 -0.39,-0.22 -0.39,-0.21 -0.39,-0.22 -0.399,-0.21 -0.391,-0.22 -0.39,-0.21 -0.39,-0.22 -0.39,-0.22 -0.39,-0.22 -0.39,-0.21 -0.4,-0.22 -0.39,-0.22 -0.389,-0.23 -0.391,-0.22 -0.39,-0.22 -0.39,-0.22 -0.39,-0.23 -0.39,-0.22 -0.4,-0.22 -0.39,-0.23 -0.39,-0.23 -0.39,-0.22 -0.39,-0.23 -0.39,-0.23 -0.39,-0.23 -0.39,-0.23 -0.399,-0.23 -0.391,-0.23 -0.39,-0.23 -0.39,-0.23 -0.39,-0.24 -0.39,-0.23 -0.39,-0.23 -0.4,-0.24 -0.39,-0.24 -0.389,-0.23 -0.391,-0.24 -0.39,-0.24 -0.39,-0.24 -0.39,-0.24 -0.39,-0.24 -0.4,-0.24 -0.39,-0.24 -0.39,-0.24 -0.39,-0.24 -0.39,-0.25 -0.39,-0.24 -0.39,-0.25 -0.39,-0.24 -0.399,-0.25 -0.391,-0.25 -0.39,-0.24 -0.39,-0.25 -0.39,-0.25 -0.39,-0.25 -0.4,-0.25 -0.39,-0.25 -0.39,-0.26 -0.389,-0.25 -0.391,-0.25 -0.39,-0.26 -0.39,-0.26 -0.39,-0.25 -0.39,-0.26 -0.4,-0.25 -0.39,-0.26 -0.39,-0.26 -0.39,-0.26 -0.39,-0.26 -0.39,-0.26 -0.4,-0.27 -0.39,-0.26 -0.389,-0.26 -0.391,-0.27 -0.39,-0.26 -0.39,-0.27 -0.39,-0.27 -0.39,-0.26 -0.4,-0.27 -0.39,-0.27 -0.39,-0.27 -0.389,-0.27 -0.391,-0.27 -0.39,-0.28 -0.39,-0.27 -0.4,-0.27 -0.389,-0.28 -0.391,-0.27 -0.39,-0.28 -0.39,-0.28 -0.39,-0.27 -0.39,-0.28 -0.39,-0.28 -0.4,-0.28 -0.39,-0.28 -0.389,-0.28 -0.391,-0.29 -0.39,-0.28 -0.39,-0.29 -0.39,-0.28 -0.4,-0.29 -0.39,-0.28 -0.39,-0.29 -0.39,-0.29 -0.389,-0.29 -0.391,-0.29 -0.39,-0.29 -0.39,-0.29 -0.4,-0.3 -0.389,-0.29 -0.391,-0.29 -0.39,-0.3 -0.39,-0.29 -0.39,-0.3 -0.39,-0.3 -0.39,-0.3 -0.4,-0.3 -0.39,-0.3 -0.389,-0.3 -0.391,-0.3 -0.39,-0.3 -0.39,-0.31 -0.39,-0.3 -0.4,-0.31 -0.39,-0.3 -0.39,-0.31 -0.39,-0.31 -0.389,-0.31 -0.391,-0.31 -0.39,-0.31 -0.4,-0.31 -0.39,-0.31 -0.389,-0.31 -0.391,-0.32 -0.39,-0.31 -0.39,-0.32 -0.39,-0.32 -0.39,-0.31 -0.39,-0.32 -0.4,-0.32 -0.39,-0.32 -0.389,-0.32 -0.391,-0.33 -0.39,-0.32 -0.39,-0.32 -0.4,-0.33 -0.39,-0.33 -0.39,-0.32 -0.39,-0.33 -0.39,-0.33 -0.389,-0.33 -0.391,-0.33 -0.39,-0.33 -0.4,-0.33 -0.39,-0.34 -0.389,-0.33 -0.391,-0.34 -0.39,-0.33 -0.39,-0.34 -0.39,-0.34 -0.4,-0.34 -0.39,-0.34 -0.39,-0.34 -0.39,-0.34 -0.389,-0.34 -0.391,-0.35 -0.39,-0.34 -0.39,-0.35 -0.4,-0.34 -0.39,-0.35 -0.39,-0.35 -0.39,-0.35 -0.39,-0.35 -0.389,-0.35 -0.391,-0.36 -0.4,-0.35 -0.39,-0.35 -0.39,-0.36 -0.389,-0.36 -0.391,-0.35 -0.39,-0.36 -0.39,-0.36 -0.39,-0.36 -0.39,-0.36 -0.4,-0.36 -0.39,-0.37 -0.39,-0.36 -0.389,-0.37 -0.391,-0.37 -0.39,-0.36 -0.39,-0.37 -0.4,-0.37 -0.39,-0.37 -0.39,-0.37 -0.39,-0.37 -0.39,-0.38 -0.389,-0.37 -0.391,-0.38 -0.39,-0.37 -0.4,-0.38 -0.39,-0.38 -0.389,-0.38 -0.391,-0.38 -0.39,-0.38 -0.39,-0.39 -0.4,-0.38 -0.39,-0.39 -0.39,-0.38 -0.39,-0.39 -0.39,-0.39 -0.389,-0.39 -0.391,-0.39 -0.39,-0.39 -0.39,-0.39 -0.4,-0.39 -0.39,-0.4 -0.39,-0.39 -0.39,-0.4 -0.39,-0.4 -0.389,-0.4 -0.401,-0.4 -0.39,-0.4 -0.39,-0.4 -0.39,-0.4 -0.389,-0.41 -0.391,-0.4 -0.39,-0.41 -0.39,-0.4 -0.4,-0.41 -0.39,-0.41 -0.39,-0.41 -0.39,-0.42 -0.39,-0.41 -0.389,-0.41 -0.391,-0.42 -0.4,-0.41 -0.39,-0.42 -0.39,-0.42 -0.39,-0.42 -0.39,-0.42 -0.39,-0.42 -0.39,-0.43 -0.389,-0.42 -0.401,-0.43 -0.39,-0.43 -0.39,-0.42 -0.39,-0.44 -0.389,-0.43 -0.391,-0.43 -0.39,-0.44 -0.39,-0.43 -0.4,-0.44 -0.39,-0.44 -0.39,-0.44 -0.39,-0.44 -0.39,-0.44 -0.389,-0.45 -0.391,-0.44 -0.4,-0.45 -0.39,-0.45 -0.39,-0.45 -0.39,-0.45 -0.39,-0.45 -0.39,-0.46 -0.39,-0.45 -0.389,-0.46 -0.401,-0.46 -0.39,-0.46 -0.39,-0.46 -0.39,-0.46 -0.389,-0.47 -0.391,-0.46 -0.39,-0.47 -0.39,-0.47 -0.4,-0.47 -0.39,-0.47 -0.39,-0.47 -0.39,-0.48 -0.39,-0.47 -0.389,-0.48 -0.401,-0.48 -0.39,-0.48 -0.39,-0.48 -0.39,-0.48 -0.39,-0.49 -0.39,-0.48 -0.39,-0.49 -0.39,-0.49 -0.389,-0.49 -0.401,-0.49 -0.39,-0.5 -0.39,-0.49 -0.39,-0.5 -0.389,-0.5 -0.391,-0.5 -0.399,-0.5 -0.391,-0.5 -0.39,-0.51 -0.39,-0.5 -0.39,-0.51 -0.39,-0.51 -0.39,-0.51 -0.389,-0.51 -0.401,-0.52 -0.39,-0.51 -0.39,-0.52 -0.39,-0.52 -0.39,-0.52 -0.39,-0.52 -0.39,-0.52 -0.4,-0.53 -0.39,-0.52 -0.39,-0.53 -0.39,-0.53 -0.39,-0.53 -0.39,-0.53 -0.389,-0.54 -0.391,-0.53 -0.399,-0.54 -0.391,-0.54 -0.39,-0.54 -0.39,-0.54 -0.39,-0.55 -0.39,-0.54 -0.39,-0.55 -0.4,-0.55 -0.39,-0.55 -0.39,-0.55 -0.39,-0.55 -0.39,-0.56 -0.39,-0.55 -0.39,-0.56 -0.39,-0.56 -0.4,-0.57 -0.39,-0.56 -0.39,-0.56 -0.39,-0.57 -0.39,-0.57 -0.39,-0.57 -0.389,-0.57 -0.401,-0.57 -0.389,-0.58 -0.391,-0.58 -0.39,-0.57 -0.39,-0.58 -0.39,-0.58 -0.39,-0.59 -0.39,-0.58 -0.4,-0.59 -0.39,-0.59 -0.39,-0.59 -0.39,-0.59 -0.39,-0.59 -0.39,-0.6 -0.39,-0.59 -0.399,-0.6 -0.391,-0.6 -0.39,-0.61 -0.39,-0.6 -0.39,-0.6 -0.39,-0.61 -0.39,-0.61 -0.389,-0.61 -0.401,-0.61 -0.389,-0.62 -0.391,-0.62 -0.39,-0.61 -0.39,-0.62 -0.39,-0.62 -0.39,-0.62 -0.4,-0.63 -0.39,-0.63 -0.39,-0.62 -0.39,-0.63 -0.39,-0.64 -0.39,-0.63 -0.39,-0.64 -0.39,-0.64 -0.399,-0.64 -0.391,-0.64 -0.39,-0.65 -0.39,-0.64 -0.39,-0.65 -0.39,-0.66 -0.39,-0.65 -0.389,-0.66 -0.401,-0.66 -0.389,-0.66 -0.391,-0.66 -0.39,-0.67 -0.39,-0.67 -0.39,-0.67 -0.39,-0.67 -0.4,-0.67 -0.39,-0.68 -0.39,-0.68 -0.39,-0.68 -0.39,-0.69 -0.39,-0.68 -0.39,-0.689 -0.39,-0.691 -0.399,-0.7 -0.391,-0.69 -0.39,-0.7 -0.39,-0.7 -0.39,-0.7 -0.39,-0.71 -0.39,-0.71 -0.389,-0.7 -0.401,-0.72 -0.389,-0.71 -0.391,-0.72 -0.39,-0.719 -0.39,-0.721 -0.39,-0.72 -0.399,-0.73 -0.391,-0.73 -0.39,-0.73 -0.39,-0.73 -0.39,-0.74 -0.39,-0.74 -0.39,-0.739 -0.389,-0.741 -0.391,-0.74 -0.399,-0.75 -0.391,-0.75 -0.39,-0.76 -0.39,-0.75 -0.39,-0.759 -0.39,-0.761 -0.4,-0.76 -0.39,-0.76 -0.39,-0.77 -0.389,-0.77 -0.391,-0.77 -0.39,-0.78 -0.39,-0.77 -0.39,-0.779 -0.399,-0.79 -0.391,-0.781 -0.39,-0.79 -0.39,-0.79 -0.39,-0.79 -0.39,-0.79 -0.39,-0.8 -0.4,-0.799 -0.39,-0.801 -0.389,-0.8 -0.391,-0.81 -0.39,-0.81 -0.39,-0.81 -0.39,-0.81 -0.39,-0.82 -0.4,-0.82 -0.39,-0.82 -0.39,-0.82 -0.389,-0.83 -0.391,-0.83 -0.39,-0.83 -0.39,-0.84 -0.4,-0.83 -0.389,-0.84 -0.391,-0.839 -0.39,-0.851 -0.39,-0.85 -0.39,-0.85 -0.39,-0.85 -0.39,-0.86 -0.4,-0.87 -0.39,-0.86 -0.389,-0.87 -0.391,-0.88 -0.39,-0.87 -0.39,-0.88 -0.39,-0.88 -0.399,-0.89 -0.391,-0.89 -0.39,-0.889 -0.39,-0.901 -0.389,-0.9 -0.391,-0.9 -0.39,-0.91 -0.39,-0.91 -0.4,-0.91 -0.389,-0.92 -0.391,-0.92 -0.39,-0.93 -0.39,-0.92 -0.39,-0.93 -0.39,-0.94 -0.4,-0.94 -0.39,-0.94 -0.39,-0.94 -0.389,-0.95 -0.391,-0.949 -0.39,-0.96 -0.39,-0.961 -0.39,-0.96 -0.399,-0.96 -0.391,-0.97 -0.39,-0.97 -0.39,-0.98 -0.389,-0.98 -0.391,-0.98 -0.39,-0.989 -0.4,-0.991 -0.39,-0.99 -0.389,-1 -0.391,-1 -0.39,-1 -0.39,-1.01 -0.39,-1.009 -0.39,-1.021 -0.4,-1.01 -0.39,-1.03 -0.39,-1.019 -0.389,-1.031 -0.391,-1.03 -0.39,-1.04 -0.39,-1.03 -0.4,-1.05 -0.389,-1.04 -0.391,-1.05 -0.39,-1.06 -0.39,-1.06 -0.389,-1.06 -0.391,-1.07 -0.39,-1.08 -0.39,-1.08 -0.4,-1.089 -0.389,-1.09 -0.391,-1.091 -0.39,-1.11 -0.39,-1.1 -0.39,-1.12 -0.4,-1.11 -0.39,-1.129 -0.39,-1.121 -0.39,-1.14 -0.389,-1.139 -0.391,-1.141 -0.39,-1.149 -0.39,-1.15 -0.4,-1.16 -0.389,-1.17 -0.391,-1.17 -0.39,-1.171 -0.39,-1.179 -0.389,-1.19 -0.391,-1.191 -0.39,-1.19 -0.4,-1.199 -0.39,-1.21 -0.389,-1.21 -0.391,-1.21 -0.39,-1.231 -0.39,-1.22 -0.39,-1.229 -0.4,-1.241 -0.39,-1.239 -0.39,-1.25 -0.39,-1.25 -0.389,-1.261 -0.391,-1.259 -0.39,-1.271 -0.4,-1.29 -0.39,-1.29 -0.389,-1.31 -0.391,-1.31 -0.39,-1.33 -0.39,-1.329 -0.389,-1.341 -0.391,-1.36 -0.39,-1.359 -0.4,-1.371 -0.39,-1.379 -0.389,-1.391 -0.391,-1.399 -0.39,-1.411 -0.39,-1.42 -0.39,-1.43 -0.4,-1.44 -0.39,-1.44 -0.39,-1.46 -0.39,-1.46 -0.5,413.52 z"
             style="fill:#cfcce6;fill-opacity:1;fill-rule:nonzero;stroke:none"
             id="path46658" />
        </g>
        <g
           id="g46660"
           transform="translate(45.3008,465.7183)">
          <path
             d="M 0,0 H 587"
             style="fill:none;stroke:#4d4d4f;stroke-width:1;stroke-linecap:square;stroke-linejoin:miter;stroke-miterlimit:10;stroke-dasharray:none;stroke-opacity:1"
             id="path46662" />
        </g>
        <g
           id="g46664"
           transform="translate(45.3008,465.7183)">
          <path
             d="M 0,0 V -435"
             style="fill:none;stroke:#4d4d4f;stroke-width:1;stroke-linecap:square;stroke-linejoin:miter;stroke-miterlimit:10;stroke-dasharray:none;stroke-opacity:1"
             id="path46666" />
        </g>
        <g
           id="g46668"
           transform="translate(632.3008,465.7183)">
          <path
             d="M 0,0 V -435"
             style="fill:none;stroke:#4d4d4f;stroke-width:1;stroke-linecap:square;stroke-linejoin:miter;stroke-miterlimit:10;stroke-dasharray:none;stroke-opacity:1"
             id="path46670" />
        </g>
        <g
           id="g46672"
           transform="translate(45.3008,51.6963)">
          <path
             d="m 0,0 0.391,1.463 0.392,1.456 0.391,1.444 0.391,1.439 0.392,1.427 0.391,1.418 0.391,1.411 0.392,1.401 0.391,1.391 0.391,1.379 0.392,1.374 0.391,1.363 0.391,1.351 0.392,1.345 0.391,1.333 0.391,1.323 0.392,1.316 0.391,1.303 0.391,1.294 0.392,1.287 0.391,1.274 0.391,1.265 0.392,1.255 0.391,1.251 0.391,1.248 0.392,1.242 0.391,1.236 0.391,1.231 0.392,1.227 0.391,1.221 0.391,1.215 0.392,1.211 0.391,1.206 0.391,1.201 0.392,1.194 0.391,1.191 0.391,1.184 0.392,1.181 0.391,1.175 0.391,1.17 0.392,1.164 0.391,1.159 0.391,1.155 0.392,1.147 0.391,1.145 0.391,1.139 0.392,1.133 0.391,1.126 0.391,1.124 0.392,1.118 0.391,1.113 0.391,1.105 0.392,1.104 0.391,1.097 0.391,1.089 0.392,1.086 0.391,1.081 0.391,1.078 0.392,1.07 0.391,1.065 0.391,1.06 0.392,1.056 0.391,1.047 0.391,1.047 0.392,1.043 0.391,1.038 0.391,1.036 0.392,1.033 0.391,1.028 0.391,1.023 0.392,1.022 0.391,1.019 0.391,1.014 0.392,1.01 0.391,1.009 0.391,1.003 0.392,1.001 0.391,0.997 0.391,0.993 0.392,0.99 0.391,0.985 0.391,0.985 0.392,0.978 0.391,0.976 0.391,0.974 0.392,0.968 0.391,0.966 0.391,0.962 0.392,0.959 0.391,0.955 0.391,0.951 0.392,0.949 0.391,0.945 0.391,0.94 0.392,0.939 0.391,0.933 0.391,0.931 0.392,0.929 0.391,0.924 0.391,0.918 0.392,0.918 0.391,0.915 0.391,0.911 0.392,0.905 0.391,0.905 0.391,0.9 0.392,0.896 0.391,0.894 0.391,0.888 0.392,0.888 0.391,0.882 0.391,0.88 0.392,0.876 0.391,0.873 0.391,0.868 0.392,0.867 0.391,0.86 0.391,0.862 0.392,0.854 0.391,0.854 0.391,0.847 0.392,0.847 0.391,0.842 0.391,0.84 0.392,0.836 0.391,0.834 0.391,0.832 0.392,0.828 0.391,0.826 0.391,0.824 0.392,0.822 0.391,0.819 0.391,0.815 0.392,0.815 0.391,0.811 0.391,0.81 0.392,0.805 0.391,0.805 0.391,0.801 0.392,0.8 0.391,0.796 0.391,0.794 0.392,0.792 0.391,0.789 0.391,0.787 0.392,0.783 0.391,0.783 0.391,0.778 0.392,0.778 0.391,0.773 0.391,0.773 0.392,0.769 0.391,0.768 0.391,0.764 0.392,0.763 0.391,0.759 0.391,0.758 0.392,0.755 0.391,0.753 0.391,0.75 0.392,0.748 0.391,0.745 0.391,0.742 0.392,0.742 0.391,0.736 0.391,0.738 0.392,0.733 0.391,0.731 0.391,0.729 0.392,0.726 0.391,0.723 0.391,0.722 0.392,0.72 0.391,0.716 0.391,0.713 0.392,0.713 0.391,0.71 0.391,0.707 0.392,0.704 0.391,0.705 0.391,0.7 0.392,0.697 0.391,0.696 0.391,0.694 0.392,0.691 0.391,0.689 0.391,0.687 0.392,0.684 0.391,0.681 0.391,0.679 0.392,0.678 0.391,0.675 0.391,0.672 0.392,0.67 0.391,0.668 0.391,0.666 0.392,0.664 0.391,0.66 0.391,0.661 0.392,0.656 0.391,0.655 0.391,0.653 0.392,0.649 0.391,0.646 0.391,0.647 0.392,0.642 0.391,0.643 0.391,0.639 0.392,0.635 0.391,0.635 0.391,0.634 0.392,0.629 0.391,0.629 0.391,0.626 0.392,0.625 0.391,0.621 0.391,0.621 0.392,0.621 0.391,0.617 0.391,0.616 0.392,0.614 0.391,0.613 0.391,0.61 0.392,0.609 0.391,0.608 0.391,0.605 0.392,0.604 0.391,0.602 0.391,0.6 0.392,0.598 0.391,0.598 0.391,0.595 0.392,0.593 0.391,0.591 0.391,0.591 0.392,0.589 0.391,0.586 0.391,0.585 0.392,0.584 0.391,0.581 0.391,0.58 0.392,0.578 0.391,0.576 0.391,0.576 0.392,0.572 0.391,0.573 0.391,0.568 0.392,0.57 0.391,0.567 0.391,0.565 0.392,0.563 0.391,0.562 0.391,0.56 0.392,0.558 0.391,0.555 0.391,0.557 0.392,0.552 0.391,0.553 0.391,0.55 0.392,0.549 0.391,0.547 0.391,0.545 0.392,0.543 0.391,0.542 0.391,0.541 0.392,0.54 0.391,0.537 0.391,0.536 0.392,0.533 0.391,0.534 0.391,0.529 0.392,0.531 0.391,0.528 0.391,0.524 0.392,0.527 0.391,0.523 0.391,0.521 0.392,0.52 0.391,0.518 0.391,0.516 0.392,0.517 0.391,0.514 0.391,0.511 0.392,0.511 0.391,0.509 0.391,0.508 0.392,0.506 0.391,0.504 0.391,0.503 0.392,0.5 0.391,0.5 0.391,0.5 0.392,0.497 0.391,0.495 0.391,0.494 0.392,0.492 0.391,0.491 0.391,0.489 0.392,0.488 0.391,0.486 0.391,0.485 0.392,0.483 0.391,0.482 0.391,0.481 0.392,0.479 0.391,0.477 0.391,0.474 0.392,0.476 0.391,0.473 0.391,0.471 0.392,0.471 0.391,0.467 0.391,0.469 0.392,0.464 0.391,0.466 0.391,0.462 0.392,0.462 0.391,0.46 0.391,0.458 0.392,0.457 0.391,0.456 0.391,0.454 0.392,0.452 0.391,0.452 0.391,0.45 0.392,0.449 0.391,0.447 0.391,0.446 0.392,0.442 0.391,0.445 0.391,0.441 0.392,0.44 0.391,0.439 0.391,0.438 0.392,0.436 0.391,0.434 0.391,0.433 0.392,0.431 0.391,0.432 0.391,0.429 0.392,0.428 0.391,0.426 0.391,0.425 0.392,0.422 0.391,0.424 0.391,0.421 0.392,0.42 0.391,0.418 0.391,0.417 0.392,0.417 0.391,0.415 0.391,0.414 0.392,0.413 0.391,0.411 0.391,0.411 0.392,0.41 0.391,0.408 0.391,0.408 0.392,0.405 0.391,0.407 0.391,0.402 0.392,0.405 0.391,0.402 0.391,0.401 0.392,0.399 0.391,0.398 0.391,0.399 0.392,0.397 0.391,0.395 0.391,0.395 0.392,0.392 0.391,0.392 0.391,0.393 0.392,0.39 0.391,0.388 0.391,0.389 0.392,0.387 0.391,0.386 0.391,0.385 0.392,0.384 0.391,0.382 0.391,0.383 0.392,0.381 0.391,0.377 0.391,0.38 0.392,0.379 0.391,0.376 0.391,0.376 0.392,0.374 0.391,0.374 0.391,0.373 0.392,0.369 0.391,0.373 0.391,0.369 0.392,0.369 0.391,0.367 0.391,0.366 0.392,0.364 0.391,0.366 0.391,0.363 0.392,0.363 0.391,0.362 0.391,0.358 0.392,0.362 0.391,0.358 0.391,0.357 0.392,0.357 0.391,0.355 0.391,0.355 0.392,0.353 0.391,0.353 0.391,0.352 0.392,0.35 0.391,0.35 0.391,0.348 0.392,0.348 0.391,0.347 0.391,0.346 0.392,0.344 0.391,0.344 0.391,0.343 0.392,0.342 0.391,0.34 0.391,0.341 0.392,0.339 0.391,0.337 0.391,0.337 0.392,0.338 0.391,0.335 0.391,0.334 0.392,0.334 0.391,0.332 0.391,0.332 0.392,0.329 0.391,0.329 0.391,0.331 0.392,0.328 0.391,0.327 0.391,0.326 0.392,0.325 0.391,0.322 0.391,0.325 0.392,0.322 0.391,0.322 0.391,0.321 0.392,0.318 0.391,0.32 0.391,0.318 0.392,0.316 0.391,0.316 0.391,0.316 0.392,0.314 0.391,0.314 0.391,0.312 0.392,0.312 0.391,0.31 0.391,0.309 0.392,0.309 0.391,0.309 0.391,0.307 0.392,0.307 0.391,0.305 0.391,0.305 0.392,0.303 0.391,0.303 0.391,0.301 0.392,0.303 0.391,0.299 0.391,0.3 0.392,0.299 0.391,0.297 0.391,0.296 0.392,0.297 0.391,0.296 0.391,0.294 0.392,0.293 0.391,0.293 0.391,0.292 0.392,0.291 0.391,0.29 0.391,0.289 0.392,0.289 0.391,0.287 0.391,0.285 0.392,0.288 0.391,0.285 0.391,0.284 0.392,0.284 0.391,0.283 0.391,0.282 0.392,0.281 0.391,0.28 0.391,0.279 0.392,0.279 0.391,0.278 0.391,0.276 0.392,0.277 0.391,0.276 0.391,0.274 0.392,0.272 0.391,0.274 0.391,0.273 0.392,0.271 0.391,0.272 0.391,0.269 0.392,0.269 0.391,0.268 0.391,0.269 0.392,0.267 0.391,0.266 0.391,0.264 0.392,0.265 0.391,0.264 0.391,0.262 0.392,0.263 0.391,0.262 0.391,0.26 0.392,0.259 0.391,0.26 0.391,0.258 0.392,0.258 0.391,0.257 0.391,0.254 0.392,0.258 0.391,0.254 0.391,0.254 0.392,0.253 0.391,0.252 0.391,0.25 0.392,0.252 0.391,0.25 0.391,0.25 0.392,0.248 0.391,0.25 0.391,0.247 0.392,0.246 0.391,0.246 0.391,0.244 0.392,0.246 0.391,0.243 0.391,0.243 0.392,0.242 0.391,0.242 0.391,0.239 0.392,0.242 0.391,0.237 0.391,0.241 0.392,0.237 0.391,0.238 0.391,0.237 0.392,0.234 0.391,0.237 0.391,0.234 0.392,0.234 0.391,0.232 0.391,0.232 0.392,0.233 0.391,0.231 0.391,0.23 0.392,0.23 0.391,0.229 0.391,0.228 0.392,0.228 0.391,0.226 0.391,0.225 0.392,0.228 0.391,0.225 0.391,0.224 0.392,0.223 0.391,0.224 0.391,0.222 0.392,0.22 0.391,0.222 0.391,0.221 0.392,0.219 0.391,0.219 0.391,0.219 0.392,0.217 0.391,0.217 0.391,0.216 0.392,0.216 0.391,0.215 0.391,0.214 0.392,0.215 0.391,0.213 0.391,0.212 0.392,0.211 0.391,0.211 0.391,0.211 0.392,0.211 0.391,0.209 0.391,0.209 0.392,0.209 0.391,0.208 0.391,0.207 0.392,0.207 0.391,0.205 0.391,0.205 0.392,0.207 0.391,0.204 0.391,0.204 0.392,0.204 0.391,0.202 0.391,0.203 0.392,0.202 0.391,0.2 0.391,0.203 0.392,0.2 0.391,0.2 0.391,0.2 0.392,0.196 0.391,0.201 0.391,0.197 0.392,0.198 0.391,0.196 0.391,0.197 0.392,0.196 0.391,0.194 0.391,0.196 0.392,0.194 0.391,0.193 0.391,0.195 0.392,0.192 0.391,0.193 0.391,0.19 0.392,0.193 0.391,0.191 0.391,0.19 0.392,0.19 0.391,0.189 0.391,0.189 0.392,0.188 0.391,0.188 0.391,0.187 0.392,0.187 0.391,0.187 0.391,0.186 0.392,0.185 0.391,0.185 0.391,0.184 0.392,0.183 0.391,0.183 0.391,0.185 0.392,0.183 0.391,0.182 0.391,0.179 0.392,0.183 0.391,0.181 0.391,0.178 0.392,0.182 0.391,0.179 0.391,0.179 0.392,0.178 0.391,0.177 0.391,0.178 0.392,0.177 0.391,0.177 0.391,0.176 0.392,0.175 0.391,0.175 0.391,0.174 0.392,0.175 0.391,0.174 0.391,0.172 0.392,0.174 0.391,0.172 0.391,0.172 0.392,0.171 0.391,0.172 0.391,0.17 0.392,0.17 0.391,0.17 0.391,0.168 0.392,0.169 0.391,0.168 0.391,0.168 0.392,0.168 0.391,0.167 0.391,0.167 0.392,0.166 0.391,0.165 0.391,0.165 0.392,0.164 0.391,0.166 0.391,0.164 0.392,0.164 0.391,0.163 0.391,0.162 0.392,0.162 0.391,0.163 0.391,0.161 0.392,0.161 0.391,0.159 0.391,0.161 0.392,0.16 0.391,0.158 0.391,0.16 0.392,0.159 0.391,0.158 0.391,0.157 0.392,0.157 0.391,0.157 0.391,0.156 0.392,0.156 0.391,0.156 0.391,0.155 0.392,0.155 0.391,0.153 0.391,0.155 0.392,0.153 0.391,0.154 0.391,0.152 0.392,0.152 0.391,0.151 0.391,0.153 0.392,0.151 0.391,0.15 0.391,0.15 0.392,0.151 0.391,0.149 0.391,0.149 0.392,0.149 0.391,0.148 0.391,0.146 0.392,0.148 0.391,0.147 0.391,0.147 0.392,0.146 0.391,0.147 0.391,0.146 0.392,0.144 0.391,0.145 0.392,0.143 0.391,0.145 0.391,0.145 0.391,0.143 0.392,0.143 0.391,0.142 0.391,0.143 0.392,0.139 0.392,0.144 0.39,0.141 0.392,0.14 0.391,0.139 0.391,0.141 0.393,0.14 0.39,0.138 0.391,0.139 0.392,0.139 0.391,0.137 0.392,0.138 0.391,0.138 0.391,0.137 0.391,0.136 0.392,0.135 0.392,0.137 0.39,0.134 0.392,0.137 0.391,0.134 0.391,0.135 0.393,0.134 0.39,0.132 0.391,0.135 0.392,0.131 0.391,0.134 0.391,0.132 0.392,0.13 0.391,0.134 0.392,0.131 0.391,0.13 0.391,0.13 0.391,0.131 0.392,0.13 0.392,0.129 0.39,0.127 0.392,0.13 0.391,0.128 0.391,0.129 0.393,0.128 0.39,0.127 0.391,0.127 0.392,0.126 0.391,0.125 0.392,0.126 0.391,0.128 0.391,0.125 0.391,0.125 0.392,0.125 0.391,0.122 0.391,0.124 0.392,0.125 0.392,0.124 0.39,0.123 0.392,0.123 0.391,0.122 0.391,0.121 0.393,0.122 0.39,0.12 0.391,0.123 0.392,0.121 0.391,0.12 0.392,0.119 0.391,0.12 0.391,0.12 0.391,0.119 0.392,0.118 0.392,0.119 0.39,0.119 0.392,0.117 0.391,0.118 0.391,0.116 0.393,0.117 0.39,0.117 0.391,0.116 0.392,0.116 0.391,0.115 0.391,0.116 0.392,0.114 0.391,0.116 0.392,0.113 0.391,0.115 0.391,0.113 0.391,0.114 0.392,0.113 0.392,0.113 0.39,0.113 0.392,0.112 0.391,0.112 0.391,0.109 0.393,0.114 0.39,0.111 0.391,0.109 0.392,0.111 0.391,0.111 0.392,0.11 0.391,0.109 0.391,0.109 0.391,0.109 0.392,0.109 0.391,0.107 0.391,0.108 0.392,0.108 0.392,0.108 0.39,0.108 0.392,0.106 0.391,0.107 0.391,0.105 0.393,0.107 0.39,0.105 0.391,0.105 0.392,0.106 0.391,0.104 0.392,0.105 0.391,0.104 0.391,0.105 0.391,0.104 0.392,0.103 0.392,0.104 0.39,0.101 0.392,0.104 0.391,0.101 0.391,0.103 0.393,0.102 0.39,0.102 0.391,0.101 0.393,0.1 0.39,0.1 0.391,0.1 0.392,0.102 0.391,0.1 0.392,0.098 0.391,0.1 0.391,0.1 0.391,0.098 0.392,0.098 0.392,0.097 0.39,0.1 0.392,0.098 0.391,0.096 0.391,0.098 0.393,0.097 0.39,0.096 0.391,0.097 0.392,0.095 0.391,0.097 0.392,0.096 0.391,0.094 0.391,0.096 0.392,0.095 0.391,0.094 0.391,0.094 0.391,0.095 0.392,0.094 0.392,0.093 0.39,0.093 0.392,0.093 0.391,0.092 0.391,0.094 0.393,0.092 0.39,0.092 0.391,0.092 0.392,0.091 0.391,0.091 0.392,0.09 0.391,0.092 0.391,0.091 0.391,0.088 0.392,0.091 0.392,0.091 0.39,0.089 0.392,0.088 0.391,0.091 0.391,0.088 0.392,0.087 0.391,0.089 0.391,0.088 0.393,0.089 0.39,0.088 0.391,0.087 0.392,0.086 0.391,0.088 0.392,0.087 0.391,0.086 0.391,0.086 0.391,0.084 0.392,0.088 0.392,0.084 0.39,0.086 0.392,0.084 0.391,0.086 0.391,0.085 0.393,0.084 0.39,0.084 0.391,0.084 0.392,0.083 0.391,0.084 0.391,0.083 0.392,0.083 0.391,0.082 0.392,0.083 0.391,0.081 0.391,0.082 0.391,0.082 0.392,0.082 0.392,0.082 0.39,0.079 0.392,0.082 0.391,0.081 0.391,0.081 0.393,0.08 0.39,0.079 0.391,0.08 0.392,0.079 0.391,0.081 0.392,0.079 0.391,0.078 0.391,0.08 0.391,0.077 0.392,0.079 0.392,0.078 0.39,0.077 0.392,0.079 0.391,0.077 0.391,0.076 0.392,0.076 0.391,0.079 0.391,0.077 0.393,0.074 0.39,0.078 0.391,0.075 0.392,0.075 0.391,0.077 0.392,0.075 0.391,0.076 0.391,0.074 0.391,0.073 0.392,0.077 0.392,0.073 0.39,0.075 0.392,0.073 0.391,0.075 0.391,0.072 0.393,0.074 0.39,0.072 0.391,0.074 0.392,0.073 0.391,0.072 0.391,0.072 0.392,0.073 0.391,0.071 0.392,0.072 0.391,0.07 0.391,0.073 0.391,0.071 0.392,0.07 0.392,0.071 0.39,0.069 0.392,0.071 0.391,0.071 0.391,0.069 0.393,0.071 0.39,0.069 0.391,0.069 0.392,0.069 0.391,0.07 0.392,0.069 0.391,0.068 0.391,0.069 0.391,0.068 0.392,0.068 0.392,0.068 0.39,0.067 0.392,0.067 0.391,0.067 0.391,0.067 0.392,0.068 0.391,0.066 0.391,0.066 0.393,0.066 0.39,0.066 0.391,0.067 0.392,0.066 0.391,0.066 0.392,0.065 0.391,0.063 0.391,0.066 0.391,0.066 0.392,0.064 0.392,0.066 0.39,0.063 0.392,0.065 0.391,0.064 0.391,0.064 0.393,0.063 0.39,0.064 0.391,0.062 0.392,0.063 0.391,0.062 0.391,0.063 0.392,0.062 0.391,0.063 0.392,0.062 0.391,0.063 0.391,0.062 0.391,0.063 0.392,0.061 0.392,0.062 0.39,0.061 0.392,0.061 0.391,0.06 0.391,0.061 0.393,0.06 0.39,0.061 0.391,0.061 0.392,0.06 0.391,0.059 0.392,0.06 0.391,0.06 0.391,0.059 0.391,0.059 0.392,0.058 0.392,0.058 0.39,0.061 0.392,0.058 0.392,0.058 0.39,0.059 0.392,0.056 0.391,0.06 0.391,0.057 0.393,0.057 0.39,0.058 0.391,0.058 0.392,0.057 0.391,0.057 0.392,0.057 0.391,0.056 0.391,0.057 0.391,0.055 0.392,0.057 0.392,0.056 0.39,0.055 0.392,0.057 0.391,0.054 0.391,0.057 0.393,0.055 0.39,0.054 0.391,0.055 0.392,0.056 0.391,0.053 0.391,0.054 0.392,0.056 0.391,0.053 0.392,0.055 0.391,0.054 0.391,0.052 0.391,0.055 0.392,0.053 0.392,0.054 0.39,0.052 0.392,0.054 0.391,0.053 0.391,0.053 0.393,0.052 0.39,0.052 0.391,0.052 0.392,0.053 0.391,0.052 0.392,0.052 0.391,0.05 0.391,0.053 0.391,0.051 0.392,0.051 0.391,0.05 0.391,0.052 0.392,0.05 0.392,0.052 0.39,0.05 0.392,0.05 0.391,0.051 0.391,0.049 0.393,0.05 0.39,0.05 0.391,0.05 0.392,0.05 0.391,0.048 0.392,0.051 0.391,0.049 0.391,0.048 0.391,0.05 0.392,0.048 0.392,0.048 0.39,0.049 0.392,0.049 0.391,0.047 0.391,0.049 0.393,0.048 0.39,0.048 0.391,0.047 0.392,0.048 0.391,0.047 0.391,0.047 0.392,0.047 0.391,0.047 0.392,0.047 0.391,0.046 0.391,0.047 0.391,0.047 0.392,0.046 0.392,0.046 0.39,0.047 0.392,0.046 0.391,0.045 0.391,0.046 0.393,0.045 0.39,0.045 0.391,0.046 0.392,0.045 0.391,0.046 0.392,0.044 0.391,0.043 0.391,0.047 0.391,0.043 0.392,0.045 0.391,0.045 0.391,0.044 0.392,0.044 0.392,0.044 0.39,0.044 0.392,0.043 0.391,0.043 0.391,0.045 0.393,0.042 0.39,0.044 0.391,0.043 0.392,0.042 0.391,0.044 0.392,0.043 0.391,0.043 0.391,0.042 0.391,0.042 0.392,0.043 0.392,0.042 0.39,0.042 0.392,0.042 0.391,0.041 0.391,0.042 0.393,0.042 0.39,0.041 0.391,0.041 0.392,0.042 0.391,0.041 0.391,0.041 0.392,0.04 0.391,0.041 0.392,0.041 0.391,0.039 0.391,0.041 0.391,0.041 0.392,0.039 0.392,0.04 0.39,0.041 0.392,0.039 0.391,0.041 0.391,0.039 0.393,0.04 0.39,0.039 0.391,0.039 0.392,0.04 0.391,0.039 0.392,0.039 0.391,0.037 0.391,0.039 0.391,0.04 0.392,0.038 0.391,0.039 0.391,0.037 0.392,0.038 0.392,0.037 0.39,0.04 0.392,0.038 0.391,0.037 0.391,0.039 0.393,0.037 0.39,0.038 0.391,0.037 0.392,0.037 0.391,0.037 0.392,0.035 0.391,0.039 0.391,0.037 0.391,0.037 0.392,0.034 0.392,0.039 0.39,0.036 0.392,0.037 0.391,0.036 0.391,0.036 0.393,0.036 0.39,0.035 0.391,0.036 0.393,0.036 0.39,0.035 0.391,0.036 0.392,0.036 0.391,0.034 0.392,0.035 0.391,0.036 0.391,0.035 0.391,0.034 0.392,0.036 0.392,0.035 0.39,0.035 0.392,0.034 0.391,0.034 0.391,0.034 0.393,0.035 0.39,0.033 0.391,0.035 0.392,0.034 0.391,0.034 0.392,0.033 0.391,0.034 0.391,0.033 0.392,0.034 0.391,0.034 0.391,0.032 0.391,0.034 0.392,0.032 0.392,0.034 0.39,0.033 0.392,0.033 0.391,0.033 0.391,0.03 0.393,0.034 0.39,0.032 0.391,0.034 0.392,0.032 0.391,0.032 0.392,0.032 0.391,0.032 0.391,0.031 0.391,0.032 0.392,0.033 0.392,0.03 0.39,0.033 0.392,0.029 0.391,0.034 0.391,0.029 0.392,0.033 0.391,0.029 0.391,0.033 0.393,0.03 0.39,0.032 0.391,0.03 0.392,0.032 0.391,0.03 0.392,0.031 0.391,0.03 0.391,0.029 0.391,0.032 0.392,0.03 0.392,0.029 0.39,0.029 0.392,0.032 0.391,0.03 0.391,0.029 0.393,0.03 0.39,0.028 0.391,0.031 0.392,0.028 0.391,0.031 0.392,0.029 0.391,0.028 0.391,0.03 0.392,0.027 0.391,0.03 0.391,0.03 0.391,0.029 0.392,0.028 0.392,0.029 0.39,0.027 0.392,0.03 0.391,0.027 0.391,0.029 0.393,0.029 0.39,0.028 0.391,0.027 0.392,0.029 0.391,0.028 0.392,0.027 0.391,0.028 0.391,0.027 0.391,0.027 0.392,0.029 0.392,0.025 0.39,0.03 0.392,0.027 0.391,0.026 0.391,0.027 0.393,0.027 0.39,0.028 0.391,0.027 0.393,0.027 0.39,0.026 0.391,0.026 0.392,0.027 0.391,0.027 0.392,0.026 0.391,0.027 0.391,0.025 0.391,0.027 0.392,0.026 0.392,0.024 0.39,0.027 0.392,0.027 0.391,0.026 0.391,0.024 0.393,0.028 0.39,0.025 0.391,0.026 0.392,0.024 0.391,0.026 0.392,0.026 0.391,0.025 0.391,0.025 0.392,0.023 0.391,0.026 0.391,0.026 0.391,0.025 0.392,0.025 0.392,0.023 0.39,0.026 0.392,0.024 0.391,0.025 0.391,0.025 0.393,0.025 0.39,0.022 0.391,0.026 0.392,0.023 0.391,0.026 0.392,0.024 0.391,0.024 0.391,0.022 0.391,0.024 0.392,0.025 0.392,0.023 0.39,0.025 0.392,0.023 0.391,0.024 0.391,0.023 0.392,0.023 0.391,0.023 0.391,0.024 0.393,0.023 0.39,0.023 0.391,0.024 0.392,0.023 0.391,0.023 0.392,0.022 0.391,0.021 0.391,0.024 0.391,0.024 0.392,0.021 0.392,0.023 0.39,0.022 0.392,0.023 0.391,0.023 0.391,0.022 0.393,0.023 0.39,0.022 0.391,0.022 0.392,0.022 0.391,0.021 0.391,0.021 0.392,0.024 0.391,0.021 0.392,0.021 0.391,0.022 0.391,0.022 0.391,0.021 0.392,0.023 0.392,0.02 0.39,0.021 0.392,0.022 0.391,0.021 0.391,0.022 0.393,0.021 0.39,0.02 0.391,0.022 0.392,0.021 0.391,0.021 0.392,0.02 0.391,0.022 0.391,0.021 0.391,0.02 0.392,0.021 0.392,0.019 0.39,0.022 0.392,0.019 0.392,0.022 0.39,0.019 0.392,0.02 0.391,0.02 0.391,0.021 0.394,0.02 0.389,0.021 0.391,0.019 0.392,0.02 0.391,0.02 0.393,0.018 0.39,0.021 0.391,0.021 0.391,0.019 0.392,0.02 0.392,0.019 0.39,0.02 0.392,0.019 0.391,0.02 0.391,0.018 0.393,0.019 0.39,0.02 0.391,0.02 0.392,0.019 0.391,0.017 0.391,0.02 0.392,0.02 0.391,0.018 0.393,0.019 0.39,0.019 0.391,0.018 0.391,0.019 0.392,0.018 0.393,0.019 0.389,0.017"
             style="fill:none;stroke:#231f20;stroke-width:2.5;stroke-linecap:square;stroke-linejoin:miter;stroke-miterlimit:10;stroke-dasharray:none;stroke-opacity:1"
             id="path46674" />
        </g>
        <g
           id="g46676"
           transform="translate(45.3008,51.6963)">
          <path
             d="m 0,0 0.391,1.463 0.392,1.456 0.391,1.444 0.391,1.439 0.392,1.427 0.391,1.418 0.391,1.411 0.392,1.401 0.391,1.391 0.391,1.379 0.392,1.374 0.391,1.363 0.391,1.351 0.392,1.345 0.391,1.333 0.391,1.323 0.392,1.316 0.391,1.303 0.391,1.294 0.392,1.287 0.391,1.274 0.391,1.265 0.392,1.255 0.391,1.251 0.391,1.248 0.392,1.242 0.391,1.236 0.391,1.231 0.392,1.227 0.391,1.221 0.391,1.215 0.392,1.211 0.391,1.206 0.391,1.201 0.392,1.194 0.391,1.191 0.391,1.184 0.392,1.181 0.391,1.175 0.391,1.17 0.392,1.164 0.391,1.159 0.391,1.155 0.392,1.147 0.391,1.145 0.391,1.139 0.392,1.133 0.391,1.126 0.391,1.124 0.392,1.118 0.391,1.113 0.391,1.105 0.392,1.104 0.391,1.097 0.391,1.089 0.392,1.086 0.391,1.081 0.391,1.078 0.392,1.07 0.391,1.065 0.391,1.06 0.392,1.056 0.391,1.047 0.391,1.047 0.392,1.043 0.391,1.038 0.391,1.036 0.392,1.033 0.391,1.028 0.391,1.023 0.392,1.022 0.391,1.019 0.391,1.014 0.392,1.01 0.391,1.009 0.391,1.003 0.392,1.001 0.391,0.997 0.391,0.993 0.392,0.99 0.391,0.985 0.391,0.985 0.392,0.978 0.391,0.976 0.391,0.974 0.392,0.968 0.391,0.966 0.391,0.962 0.392,0.959 0.391,0.955 0.391,0.951 0.392,0.949 0.391,0.945 0.391,0.94 0.392,0.939 0.391,0.933 0.391,0.931 0.392,0.929 0.391,0.924 0.391,0.918 0.392,0.918 0.391,0.915 0.391,0.911 0.392,0.905 0.391,0.905 0.391,0.9 0.392,0.896 0.391,0.894 0.391,0.888 0.392,0.888 0.391,0.882 0.391,0.88 0.392,0.876 0.391,0.873 0.391,0.868 0.392,0.867 0.391,0.86 0.391,0.862 0.392,0.854 0.391,0.854 0.391,0.847 0.392,0.847 0.391,0.842 0.391,0.84 0.392,0.836 0.391,0.834 0.391,0.832 0.392,0.828 0.391,0.826 0.391,0.824 0.392,0.822 0.391,0.819 0.391,0.815 0.392,0.815 0.391,0.811 0.391,0.81 0.392,0.805 0.391,0.805 0.391,0.801 0.392,0.8 0.391,0.796 0.391,0.794 0.392,0.792 0.391,0.789 0.391,0.787 0.392,0.783 0.391,0.783 0.391,0.778 0.392,0.778 0.391,0.773 0.391,0.773 0.392,0.769 0.391,0.768 0.391,0.764 0.392,0.763 0.391,0.759 0.391,0.758 0.392,0.755 0.391,0.753 0.391,0.75 0.392,0.748 0.391,0.745 0.391,0.742 0.392,0.742 0.391,0.736 0.391,0.738 0.392,0.733 0.391,0.731 0.391,0.729 0.392,0.726 0.391,0.723 0.391,0.722 0.392,0.72 0.391,0.716 0.391,0.713 0.392,0.713 0.391,0.71 0.391,0.707 0.392,0.704 0.391,0.705 0.391,0.7 0.392,0.697 0.391,0.696 0.391,0.694 0.392,0.691 0.391,0.689 0.391,0.687 0.392,0.684 0.391,0.681 0.391,0.679 0.392,0.678 0.391,0.675 0.391,0.672 0.392,0.67 0.391,0.668 0.391,0.666 0.392,0.664 0.391,0.66 0.391,0.661 0.392,0.656 0.391,0.655 0.391,0.653 0.392,0.649 0.391,0.646 0.391,0.647 0.392,0.642 0.391,0.643 0.391,0.639 0.392,0.635 0.391,0.635 0.391,0.634 0.392,0.629 0.391,0.629 0.391,0.626 0.392,0.625 0.391,0.621 0.391,0.621 0.392,0.621 0.391,0.617 0.391,0.616 0.392,0.614 0.391,0.613 0.391,0.61 0.392,0.609 0.391,0.608 0.391,0.605 0.392,0.604 0.391,0.602 0.391,0.6 0.392,0.598 0.391,0.598 0.391,0.595 0.392,0.593 0.391,0.591 0.391,0.591 0.392,0.589 0.391,0.586 0.391,0.585 0.392,0.584 0.391,0.581 0.391,0.58 0.392,0.578 0.391,0.576 0.391,0.576 0.392,0.572 0.391,0.573 0.391,0.568 0.392,0.57 0.391,0.567 0.391,0.565 0.392,0.563 0.391,0.562 0.391,0.56 0.392,0.558 0.391,0.555 0.391,0.557 0.392,0.552 0.391,0.553 0.391,0.55 0.392,0.549 0.391,0.547 0.391,0.545 0.392,0.543 0.391,0.542 0.391,0.541 0.392,0.54 0.391,0.537 0.391,0.536 0.392,0.533 0.391,0.534 0.391,0.529 0.392,0.531 0.391,0.528 0.391,0.524 0.392,0.527 0.391,0.523 0.391,0.521 0.392,0.52 0.391,0.518 0.391,0.516 0.392,0.517 0.391,0.514 0.391,0.511 0.392,0.511 0.391,0.509 0.391,0.508 0.392,0.506 0.391,0.504 0.391,0.503 0.392,0.5 0.391,0.5 0.391,0.5 0.392,0.497 0.391,0.495 0.391,0.494 0.392,0.492 0.391,0.491 0.391,0.489 0.392,0.488 0.391,0.486 0.391,0.485 0.392,0.483 0.391,0.482 0.391,0.481 0.392,0.479 0.391,0.477 0.391,0.474 0.392,0.476 0.391,0.473 0.391,0.471 0.392,0.471 0.391,0.467 0.391,0.469 0.392,0.464 0.391,0.466 0.391,0.462 0.392,0.462 0.391,0.46 0.391,0.458 0.392,0.457 0.391,0.456 0.391,0.454 0.392,0.452 0.391,0.452 0.391,0.45 0.392,0.449 0.391,0.447 0.391,0.446 0.392,0.442 0.391,0.445 0.391,0.441 0.392,0.44 0.391,0.439 0.391,0.438 0.392,0.436 0.391,0.434 0.391,0.433 0.392,0.431 0.391,0.432 0.391,0.429 0.392,0.428 0.391,0.426 0.391,0.425 0.392,0.422 0.391,0.424 0.391,0.421 0.392,0.42 0.391,0.418 0.391,0.417 0.392,0.417 0.391,0.415 0.391,0.414 0.392,0.413 0.391,0.411 0.391,0.411 0.392,0.41 0.391,0.408 0.391,0.408 0.392,0.405 0.391,0.407 0.391,0.402 0.392,0.405 0.391,0.402 0.391,0.401 0.392,0.399 0.391,0.398 0.391,0.399 0.392,0.397 0.391,0.395 0.391,0.395 0.392,0.392 0.391,0.392 0.391,0.393 0.392,0.39 0.391,0.388 0.391,0.389 0.392,0.387 0.391,0.386 0.391,0.385 0.392,0.384 0.391,0.382 0.391,0.383 0.392,0.381 0.391,0.377 0.391,0.38 0.392,0.379 0.391,0.376 0.391,0.376 0.392,0.374 0.391,0.374 0.391,0.373 0.392,0.369 0.391,0.373 0.391,0.369 0.392,0.369 0.391,0.367 0.391,0.366 0.392,0.364 0.391,0.366 0.391,0.363 0.392,0.363 0.391,0.362 0.391,0.358 0.392,0.362 0.391,0.358 0.391,0.357 0.392,0.357 0.391,0.355 0.391,0.355 0.392,0.353 0.391,0.353 0.391,0.352 0.392,0.35 0.391,0.35 0.391,0.348 0.392,0.348 0.391,0.347 0.391,0.346 0.392,0.344 0.391,0.344 0.391,0.343 0.392,0.342 0.391,0.34 0.391,0.341 0.392,0.339 0.391,0.337 0.391,0.337 0.392,0.338 0.391,0.335 0.391,0.334 0.392,0.334 0.391,0.332 0.391,0.332 0.392,0.329 0.391,0.329 0.391,0.331 0.392,0.328 0.391,0.327 0.391,0.326 0.392,0.325 0.391,0.322 0.391,0.325 0.392,0.322 0.391,0.322 0.391,0.321 0.392,0.318 0.391,0.32 0.391,0.318 0.392,0.316 0.391,0.316 0.391,0.316 0.392,0.314 0.391,0.314 0.391,0.312 0.392,0.312 0.391,0.31 0.391,0.309 0.392,0.309 0.391,0.309 0.391,0.307 0.392,0.307 0.391,0.305 0.391,0.305 0.392,0.303 0.391,0.303 0.391,0.301 0.392,0.303 0.391,0.299 0.391,0.3 0.392,0.299 0.391,0.297 0.391,0.296 0.392,0.297 0.391,0.296 0.391,0.294 0.392,0.293 0.391,0.293 0.391,0.292 0.392,0.291 0.391,0.29 0.391,0.289 0.392,0.289 0.391,0.287 0.391,0.285 0.392,0.288 0.391,0.285 0.391,0.284 0.392,0.284 0.391,0.283 0.391,0.282 0.392,0.281 0.391,0.28 0.391,0.279 0.392,0.279 0.391,0.278 0.391,0.276 0.392,0.277 0.391,0.276 0.391,0.274 0.392,0.272 0.391,0.274 0.391,0.273 0.392,0.271 0.391,0.272 0.391,0.269 0.392,0.269 0.391,0.268 0.391,0.269 0.392,0.267 0.391,0.266 0.391,0.264 0.392,0.265 0.391,0.264 0.391,0.262 0.392,0.263 0.391,0.262 0.391,0.26 0.392,0.259 0.391,0.26 0.391,0.258 0.392,0.258 0.391,0.257 0.391,0.254 0.392,0.258 0.391,0.254 0.391,0.254 0.392,0.253 0.391,0.252 0.391,0.25 0.392,0.252 0.391,0.25 0.391,0.25 0.392,0.248 0.391,0.25 0.391,0.247 0.392,0.246 0.391,0.246 0.391,0.244 0.392,0.246 0.391,0.243 0.391,0.243 0.392,0.242 0.391,0.242 0.391,0.239 0.392,0.242 0.391,0.237 0.391,0.241 0.392,0.237 0.391,0.238 0.391,0.237 0.392,0.234 0.391,0.237 0.391,0.234 0.392,0.234 0.391,0.232 0.391,0.232 0.392,0.233 0.391,0.231 0.391,0.23 0.392,0.23 0.391,0.229 0.391,0.228 0.392,0.228 0.391,0.226 0.391,0.225 0.392,0.228 0.391,0.225 0.391,0.224 0.392,0.223 0.391,0.224 0.391,0.222 0.392,0.22 0.391,0.222 0.391,0.221 0.392,0.219 0.391,0.219 0.391,0.219 0.392,0.217 0.391,0.217 0.391,0.216 0.392,0.216 0.391,0.215 0.391,0.214 0.392,0.215 0.391,0.213 0.391,0.212 0.392,0.211 0.391,0.211 0.391,0.211 0.392,0.211 0.391,0.209 0.391,0.209 0.392,0.209 0.391,0.208 0.391,0.207 0.392,0.207 0.391,0.205 0.391,0.205 0.392,0.207 0.391,0.204 0.391,0.204 0.392,0.204 0.391,0.202 0.391,0.203 0.392,0.202 0.391,0.2 0.391,0.203 0.392,0.2 0.391,0.2 0.391,0.2 0.392,0.196 0.391,0.201 0.391,0.197 0.392,0.198 0.391,0.196 0.391,0.197 0.392,0.196 0.391,0.194 0.391,0.196 0.392,0.194 0.391,0.193 0.391,0.195 0.392,0.192 0.391,0.193 0.391,0.19 0.392,0.193 0.391,0.191 0.391,0.19 0.392,0.19 0.391,0.189 0.391,0.189 0.392,0.188 0.391,0.188 0.391,0.187 0.392,0.187 0.391,0.187 0.391,0.186 0.392,0.185 0.391,0.185 0.391,0.184 0.392,0.183 0.391,0.183 0.391,0.185 0.392,0.183 0.391,0.182 0.391,0.179 0.392,0.183 0.391,0.181 0.391,0.178 0.392,0.182 0.391,0.179 0.391,0.179 0.392,0.178 0.391,0.177 0.391,0.178 0.392,0.177 0.391,0.177 0.391,0.176 0.392,0.175 0.391,0.175 0.391,0.174 0.392,0.175 0.391,0.174 0.391,0.172 0.392,0.174 0.391,0.172 0.391,0.172 0.392,0.171 0.391,0.172 0.391,0.17 0.392,0.17 0.391,0.17 0.391,0.168 0.392,0.169 0.391,0.168 0.391,0.168 0.392,0.168 0.391,0.167 0.391,0.167 0.392,0.166 0.391,0.165 0.391,0.165 0.392,0.164 0.391,0.166 0.391,0.164 0.392,0.164 0.391,0.163 0.391,0.162 0.392,0.162 0.391,0.163 0.391,0.161 0.392,0.161 0.391,0.159 0.391,0.161 0.392,0.16 0.391,0.158 0.391,0.16 0.392,0.159 0.391,0.158 0.391,0.157 0.392,0.157 0.391,0.157 0.391,0.156 0.392,0.156 0.391,0.156 0.391,0.155 0.392,0.155 0.391,0.153 0.391,0.155 0.392,0.153 0.391,0.154 0.391,0.152 0.392,0.152 0.391,0.151 0.391,0.153 0.392,0.151 0.391,0.15 0.391,0.15 0.392,0.151 0.391,0.149 0.391,0.149 0.392,0.149 0.391,0.148 0.391,0.146 0.392,0.148 0.391,0.147 0.391,0.147 0.392,0.146 0.391,0.147 0.391,0.146 0.392,0.144 0.391,0.145 0.392,0.143 0.391,0.145 0.391,0.145 0.391,0.143 0.392,0.143 0.391,0.142 0.391,0.143 0.392,0.139 0.392,0.144 0.39,0.141 0.392,0.14 0.391,0.139 0.391,0.141 0.393,0.14 0.39,0.138 0.391,0.139 0.392,0.139 0.391,0.137 0.392,0.138 0.391,0.138 0.391,0.137 0.391,0.136 0.392,0.135 0.392,0.137 0.39,0.134 0.392,0.137 0.391,0.134 0.391,0.135 0.393,0.134 0.39,0.132 0.391,0.135 0.392,0.131 0.391,0.134 0.391,0.132 0.392,0.13 0.391,0.134 0.392,0.131 0.391,0.13 0.391,0.13 0.391,0.131 0.392,0.13 0.392,0.129 0.39,0.127 0.392,0.13 0.391,0.128 0.391,0.129 0.393,0.128 0.39,0.127 0.391,0.127 0.392,0.126 0.391,0.125 0.392,0.126 0.391,0.128 0.391,0.125 0.391,0.125 0.392,0.125 0.391,0.122 0.391,0.124 0.392,0.125 0.392,0.124 0.39,0.123 0.392,0.123 0.391,0.122 0.391,0.121 0.393,0.122 0.39,0.12 0.391,0.123 0.392,0.121 0.391,0.12 0.392,0.119 0.391,0.12 0.391,0.12 0.391,0.119 0.392,0.118 0.392,0.119 0.39,0.119 0.392,0.117 0.391,0.118 0.391,0.116 0.393,0.117 0.39,0.117 0.391,0.116 0.392,0.116 0.391,0.115 0.391,0.116 0.392,0.114 0.391,0.116 0.392,0.113 0.391,0.115 0.391,0.113 0.391,0.114 0.392,0.113 0.392,0.113 0.39,0.113 0.392,0.112 0.391,0.112 0.391,0.109 0.393,0.114 0.39,0.111 0.391,0.109 0.392,0.111 0.391,0.111 0.392,0.11 0.391,0.109 0.391,0.109 0.391,0.109 0.392,0.109 0.391,0.107 0.391,0.108 0.392,0.108 0.392,0.108 0.39,0.108 0.392,0.106 0.391,0.107 0.391,0.105 0.393,0.107 0.39,0.105 0.391,0.105 0.392,0.106 0.391,0.104 0.392,0.105 0.391,0.104 0.391,0.105 0.391,0.104 0.392,0.103 0.392,0.104 0.39,0.101 0.392,0.104 0.391,0.101 0.391,0.103 0.393,0.102 0.39,0.102 0.391,0.101 0.393,0.1 0.39,0.1 0.391,0.1 0.392,0.102 0.391,0.1 0.392,0.098 0.391,0.1 0.391,0.1 0.391,0.098 0.392,0.098 0.392,0.097 0.39,0.1 0.392,0.098 0.391,0.096 0.391,0.098 0.393,0.097 0.39,0.096 0.391,0.097 0.392,0.095 0.391,0.097 0.392,0.096 0.391,0.094 0.391,0.096 0.392,0.095 0.391,0.094 0.391,0.094 0.391,0.095 0.392,0.094 0.392,0.093 0.39,0.093 0.392,0.093 0.391,0.092 0.391,0.094 0.393,0.092 0.39,0.092 0.391,0.092 0.392,0.091 0.391,0.091 0.392,0.09 0.391,0.092 0.391,0.091 0.391,0.088 0.392,0.091 0.392,0.091 0.39,0.089 0.392,0.088 0.391,0.091 0.391,0.088 0.392,0.087 0.391,0.089 0.391,0.088 0.393,0.089 0.39,0.088 0.391,0.087 0.392,0.086 0.391,0.088 0.392,0.087 0.391,0.086 0.391,0.086 0.391,0.084 0.392,0.088 0.392,0.084 0.39,0.086 0.392,0.084 0.391,0.086 0.391,0.085 0.393,0.084 0.39,0.084 0.391,0.084 0.392,0.083 0.391,0.084 0.391,0.083 0.392,0.083 0.391,0.082 0.392,0.083 0.391,0.081 0.391,0.082 0.391,0.082 0.392,0.082 0.392,0.082 0.39,0.079 0.392,0.082 0.391,0.081 0.391,0.081 0.393,0.08 0.39,0.079 0.391,0.08 0.392,0.079 0.391,0.081 0.392,0.079 0.391,0.078 0.391,0.08 0.391,0.077 0.392,0.079 0.392,0.078 0.39,0.077 0.392,0.079 0.391,0.077 0.391,0.076 0.392,0.076 0.391,0.079 0.391,0.077 0.393,0.074 0.39,0.078 0.391,0.075 0.392,0.075 0.391,0.077 0.392,0.075 0.391,0.076 0.391,0.074 0.391,0.073 0.392,0.077 0.392,0.073 0.39,0.075 0.392,0.073 0.391,0.075 0.391,0.072 0.393,0.074 0.39,0.072 0.391,0.074 0.392,0.073 0.391,0.072 0.391,0.072 0.392,0.073 0.391,0.071 0.392,0.072 0.391,0.07 0.391,0.073 0.391,0.071 0.392,0.07 0.392,0.071 0.39,0.069 0.392,0.071 0.391,0.071 0.391,0.069 0.393,0.071 0.39,0.069 0.391,0.069 0.392,0.069 0.391,0.07 0.392,0.069 0.391,0.068 0.391,0.069 0.391,0.068 0.392,0.068 0.392,0.068 0.39,0.067 0.392,0.067 0.391,0.067 0.391,0.067 0.392,0.068 0.391,0.066 0.391,0.066 0.393,0.066 0.39,0.066 0.391,0.067 0.392,0.066 0.391,0.066 0.392,0.065 0.391,0.063 0.391,0.066 0.391,0.066 0.392,0.064 0.392,0.066 0.39,0.063 0.392,0.065 0.391,0.064 0.391,0.064 0.393,0.063 0.39,0.064 0.391,0.062 0.392,0.063 0.391,0.062 0.391,0.063 0.392,0.062 0.391,0.063 0.392,0.062 0.391,0.063 0.391,0.062 0.391,0.063 0.392,0.061 0.392,0.062 0.39,0.061 0.392,0.061 0.391,0.06 0.391,0.061 0.393,0.06 0.39,0.061 0.391,0.061 0.392,0.06 0.391,0.059 0.392,0.06 0.391,0.06 0.391,0.059 0.391,0.059 0.392,0.058 0.392,0.058 0.39,0.061 0.392,0.058 0.392,0.058 0.39,0.059 0.392,0.056 0.391,0.06 0.391,0.057 0.393,0.057 0.39,0.058 0.391,0.058 0.392,0.057 0.391,0.057 0.392,0.057 0.391,0.056 0.391,0.057 0.391,0.055 0.392,0.057 0.392,0.056 0.39,0.055 0.392,0.057 0.391,0.054 0.391,0.057 0.393,0.055 0.39,0.054 0.391,0.055 0.392,0.056 0.391,0.053 0.391,0.054 0.392,0.056 0.391,0.053 0.392,0.055 0.391,0.054 0.391,0.052 0.391,0.055 0.392,0.053 0.392,0.054 0.39,0.052 0.392,0.054 0.391,0.053 0.391,0.053 0.393,0.052 0.39,0.052 0.391,0.052 0.392,0.053 0.391,0.052 0.392,0.052 0.391,0.05 0.391,0.053 0.391,0.051 0.392,0.051 0.391,0.05 0.391,0.052 0.392,0.05 0.392,0.052 0.39,0.05 0.392,0.05 0.391,0.051 0.391,0.049 0.393,0.05 0.39,0.05 0.391,0.05 0.392,0.05 0.391,0.048 0.392,0.051 0.391,0.049 0.391,0.048 0.391,0.05 0.392,0.048 0.392,0.048 0.39,0.049 0.392,0.049 0.391,0.047 0.391,0.049 0.393,0.048 0.39,0.048 0.391,0.047 0.392,0.048 0.391,0.047 0.391,0.047 0.392,0.047 0.391,0.047 0.392,0.047 0.391,0.046 0.391,0.047 0.391,0.047 0.392,0.046 0.392,0.046 0.39,0.047 0.392,0.046 0.391,0.045 0.391,0.046 0.393,0.045 0.39,0.045 0.391,0.046 0.392,0.045 0.391,0.046 0.392,0.044 0.391,0.043 0.391,0.047 0.391,0.043 0.392,0.045 0.391,0.045 0.391,0.044 0.392,0.044 0.392,0.044 0.39,0.044 0.392,0.043 0.391,0.043 0.391,0.045 0.393,0.042 0.39,0.044 0.391,0.043 0.392,0.042 0.391,0.044 0.392,0.043 0.391,0.043 0.391,0.042 0.391,0.042 0.392,0.043 0.392,0.042 0.39,0.042 0.392,0.042 0.391,0.041 0.391,0.042 0.393,0.042 0.39,0.041 0.391,0.041 0.392,0.042 0.391,0.041 0.391,0.041 0.392,0.04 0.391,0.041 0.392,0.041 0.391,0.039 0.391,0.041 0.391,0.041 0.392,0.039 0.392,0.04 0.39,0.041 0.392,0.039 0.391,0.041 0.391,0.039 0.393,0.04 0.39,0.039 0.391,0.039 0.392,0.04 0.391,0.039 0.392,0.039 0.391,0.037 0.391,0.039 0.391,0.04 0.392,0.038 0.391,0.039 0.391,0.037 0.392,0.038 0.392,0.037 0.39,0.04 0.392,0.038 0.391,0.037 0.391,0.039 0.393,0.037 0.39,0.038 0.391,0.037 0.392,0.037 0.391,0.037 0.392,0.035 0.391,0.039 0.391,0.037 0.391,0.037 0.392,0.034 0.392,0.039 0.39,0.036 0.392,0.037 0.391,0.036 0.391,0.036 0.393,0.036 0.39,0.035 0.391,0.036 0.393,0.036 0.39,0.035 0.391,0.036 0.392,0.036 0.391,0.034 0.392,0.035 0.391,0.036 0.391,0.035 0.391,0.034 0.392,0.036 0.392,0.035 0.39,0.035 0.392,0.034 0.391,0.034 0.391,0.034 0.393,0.035 0.39,0.033 0.391,0.035 0.392,0.034 0.391,0.034 0.392,0.033 0.391,0.034 0.391,0.033 0.392,0.034 0.391,0.034 0.391,0.032 0.391,0.034 0.392,0.032 0.392,0.034 0.39,0.033 0.392,0.033 0.391,0.033 0.391,0.03 0.393,0.034 0.39,0.032 0.391,0.034 0.392,0.032 0.391,0.032 0.392,0.032 0.391,0.032 0.391,0.031 0.391,0.032 0.392,0.033 0.392,0.03 0.39,0.033 0.392,0.029 0.391,0.034 0.391,0.029 0.392,0.033 0.391,0.029 0.391,0.033 0.393,0.03 0.39,0.032 0.391,0.03 0.392,0.032 0.391,0.03 0.392,0.031 0.391,0.03 0.391,0.029 0.391,0.032 0.392,0.03 0.392,0.029 0.39,0.029 0.392,0.032 0.391,0.03 0.391,0.029 0.393,0.03 0.39,0.028 0.391,0.031 0.392,0.028 0.391,0.031 0.392,0.029 0.391,0.028 0.391,0.03 0.392,0.027 0.391,0.03 0.391,0.03 0.391,0.029 0.392,0.028 0.392,0.029 0.39,0.027 0.392,0.03 0.391,0.027 0.391,0.029 0.393,0.029 0.39,0.028 0.391,0.027 0.392,0.029 0.391,0.028 0.392,0.027 0.391,0.028 0.391,0.027 0.391,0.027 0.392,0.029 0.392,0.025 0.39,0.03 0.392,0.027 0.391,0.026 0.391,0.027 0.393,0.027 0.39,0.028 0.391,0.027 0.393,0.027 0.39,0.026 0.391,0.026 0.392,0.027 0.391,0.027 0.392,0.026 0.391,0.027 0.391,0.025 0.391,0.027 0.392,0.026 0.392,0.024 0.39,0.027 0.392,0.027 0.391,0.026 0.391,0.024 0.393,0.028 0.39,0.025 0.391,0.026 0.392,0.024 0.391,0.026 0.392,0.026 0.391,0.025 0.391,0.025 0.392,0.023 0.391,0.026 0.391,0.026 0.391,0.025 0.392,0.025 0.392,0.023 0.39,0.026 0.392,0.024 0.391,0.025 0.391,0.025 0.393,0.025 0.39,0.022 0.391,0.026 0.392,0.023 0.391,0.026 0.392,0.024 0.391,0.024 0.391,0.022 0.391,0.024 0.392,0.025 0.392,0.023 0.39,0.025 0.392,0.023 0.391,0.024 0.391,0.023 0.392,0.023 0.391,0.023 0.391,0.024 0.393,0.023 0.39,0.023 0.391,0.024 0.392,0.023 0.391,0.023 0.392,0.022 0.391,0.021 0.391,0.024 0.391,0.024 0.392,0.021 0.392,0.023 0.39,0.022 0.392,0.023 0.391,0.023 0.391,0.022 0.393,0.023 0.39,0.022 0.391,0.022 0.392,0.022 0.391,0.021 0.391,0.021 0.392,0.024 0.391,0.021 0.392,0.021 0.391,0.022 0.391,0.022 0.391,0.021 0.392,0.023 0.392,0.02 0.39,0.021 0.392,0.022 0.391,0.021 0.391,0.022 0.393,0.021 0.39,0.02 0.391,0.022 0.392,0.021 0.391,0.021 0.392,0.02 0.391,0.022 0.391,0.021 0.391,0.02 0.392,0.021 0.392,0.019 0.39,0.022 0.392,0.019 0.392,0.022 0.39,0.019 0.392,0.02 0.391,0.02 0.391,0.021 0.394,0.02 0.389,0.021 0.391,0.019 0.392,0.02 0.391,0.02 0.393,0.018 0.39,0.021 0.391,0.021 0.391,0.019 0.392,0.02 0.392,0.019 0.39,0.02 0.392,0.019 0.391,0.02 0.391,0.018 0.393,0.019 0.39,0.02 0.391,0.02 0.392,0.019 0.391,0.017 0.391,0.02 0.392,0.02 0.391,0.018 0.393,0.019 0.39,0.019 0.391,0.018 0.391,0.019 0.392,0.018 0.393,0.019 0.389,0.017"
             style="fill:none;stroke:#231f20;stroke-width:2.5;stroke-linecap:square;stroke-linejoin:miter;stroke-miterlimit:10;stroke-dasharray:none;stroke-opacity:1"
             id="path46678" />
        </g>
        <g
           id="g46680"
           transform="translate(45.3008,465.7183)">
          <path
             d="M 0,0 H 587"
             style="fill:none;stroke:#4d4d4f;stroke-width:1;stroke-linecap:square;stroke-linejoin:miter;stroke-miterlimit:10;stroke-dasharray:none;stroke-opacity:1"
             id="path46682" />
        </g>
        <text
           xml:space="preserve"
           transform="matrix(1,0,0,-1,289.481,6.3809)"
           style="font-variant:normal;font-weight:normal;font-stretch:normal;font-size:30px;font-family:'Minion Pro Subh';-inkscape-font-specification:MinionPro-Subh;writing-mode:lr-tb;fill:#010101;fill-opacity:1;fill-rule:nonzero;stroke:none"
           id="text46686"><tspan
             x="0 18.120001 24.209999 40.650002 46.740002 56.610001 62.700001 72.449997 91.529999 97.889999 115.47"
             y="0"
             id="tspan46684">R = I [X;Z]</tspan></text>
      </g>
    </g>
    <text
       xml:space="preserve"
       transform="matrix(1,0,0,-1,287.1426,178.627)"
       style="font-variant:normal;font-weight:normal;font-stretch:normal;font-size:47px;font-family:Kalam;-inkscape-font-specification:Kalam-Regular;writing-mode:lr-tb;fill:#999999;fill-opacity:1;fill-rule:nonzero;stroke:none"
       id="text46692"><tspan
         x="0 27.448 49.491001 67.68 88.830002 110.403 133.856 145.04201 165.064 183.25301 204.54401 226.58701 244.776 255.96201 277.25299"
         y="0"
         id="tspan46688">Rate-distortion</tspan><tspan
         x="92.872002 108.429 129.57899 151.90401 163.09 184.381"
         y="56.400002"
         id="tspan46690">region</tspan></text>
    <text
       xml:space="preserve"
       transform="matrix(1,0,0,-1,55.6006,419.8359)"
       style="font-variant:normal;font-weight:normal;font-stretch:normal;font-size:31px;font-family:Kalam;-inkscape-font-specification:Kalam-Regular;writing-mode:lr-tb;fill:#666666;fill-opacity:1;fill-rule:nonzero;stroke:none"
       id="text46698"><tspan
         x="0 18.538 35.061001 49.599998 63.395 80.011002 87.389 101.339 114.421 128.96001 145.235 152.83"
         y="0"
         id="tspan46694">Unachievable</tspan><tspan
         x="44.950001 55.210999 69.161003 83.886002 91.264 105.307"
         y="37.200001"
         id="tspan46696">region</tspan></text>
    <g
       id="g46700">
      <g
         id="g46702"
         clip-path="url(#clipPath46706)">
        <text
           xml:space="preserve"
           transform="matrix(0.01256335,0.99992108,0.99992108,-0.01256335,24.175911,200.56031)"
           style="font-variant:normal;font-weight:normal;font-stretch:normal;font-size:30px;font-family:'Minion Pro Subh';-inkscape-font-specification:MinionPro-Subh;writing-mode:lr-tb;fill:#010101;fill-opacity:1;fill-rule:nonzero;stroke:none"
           id="text46710"><tspan
             x="0"
             y="0"
             id="tspan46708">I</tspan></text>
      </g>
    </g>
    <text
       xml:space="preserve"
       transform="matrix(0.01256148,0.9999211,0.9999211,-0.01256148,34.2888,210.3035)"
       style="font-variant:normal;font-weight:normal;font-stretch:normal;font-size:17.49px;font-family:'Minion Pro Subh';-inkscape-font-specification:MinionPro-Subh;writing-mode:lr-tb;fill:#010101;fill-opacity:1;fill-rule:nonzero;stroke:none"
       id="text46714"><tspan
         x="0"
         y="0"
         id="tspan46712">Y</tspan></text>
    <g
       id="g46716">
      <g
         id="g46718"
         clip-path="url(#clipPath46722)">
        <text
           xml:space="preserve"
           transform="matrix(0.01256335,0.99992108,0.99992108,-0.01256335,24.510411,227.18611)"
           style="font-variant:normal;font-weight:normal;font-stretch:normal;font-size:30px;font-family:'Minion Pro Subh';-inkscape-font-specification:MinionPro-Subh;writing-mode:lr-tb;fill:#010101;fill-opacity:1;fill-rule:nonzero;stroke:none"
           id="text46726"><tspan
             x="0 16.439981 22.529976 32.399963 38.48996 48.239948 65.819931 72.179924 90.479904"
             y="0"
             id="tspan46724">= I [Z;Y]</tspan></text>
      </g>
    </g>
    <g
       id="g46728"
       transform="translate(44.9985,29.9268)">
      <path
         d="M 0,0 H 587"
         style="fill:none;stroke:#4d4d4f;stroke-width:1;stroke-linecap:square;stroke-linejoin:miter;stroke-miterlimit:10;stroke-dasharray:none;stroke-opacity:1"
         id="path46730" />
    </g>
    <g
       id="g46732"
       transform="translate(63.4595,84.0664)">
      <path
         d="M 0,0 H 30"
         style="fill:none;stroke:#231f20;stroke-width:2.5;stroke-linecap:square;stroke-linejoin:miter;stroke-miterlimit:10;stroke-dasharray:none;stroke-opacity:1"
         id="path46734" />
    </g>
    <text
       xml:space="preserve"
       transform="matrix(1,0,0,-1,102.5947,71.9082)"
       style="font-variant:normal;font-weight:normal;font-stretch:normal;font-size:30px;font-family:Kalam;-inkscape-font-specification:Kalam-Regular;writing-mode:lr-tb;fill:#010101;fill-opacity:1;fill-rule:nonzero;stroke:none"
       id="text46738"><tspan
         x="0 9.3000002 28.41 40.439999 56.82 63.959999 87.839996 94.980003"
         y="0"
         id="tspan46736">IB Limit</tspan></text>
    <g
       id="g46740">
      <g
         id="g46742"
         clip-path="url(#clipPath46746)">
        <g
           id="g46748"
           transform="translate(300.9526,404.394)">
          <path
             d="m 0,0 c 0,-2.89 -2.343,-5.233 -5.233,-5.233 -2.891,0 -5.234,2.343 -5.234,5.233 0,2.891 2.343,5.234 5.234,5.234 C -2.343,5.234 0,2.891 0,0"
             style="fill:#010101;fill-opacity:1;fill-rule:nonzero;stroke:none"
             id="path46750" />
        </g>
      </g>
    </g>
    <text
       xml:space="preserve"
       transform="matrix(1,0,0,-1,320.5186,369.8892)"
       style="font-variant:normal;font-weight:500;font-stretch:normal;font-size:30px;font-family:'Minion Pro Med Capt';-inkscape-font-specification:MinionPro-MediumCapt;writing-mode:lr-tb;fill:#010101;fill-opacity:1;fill-rule:nonzero;stroke:none"
       id="text46756"><tspan
         x="0 18.51 31.08 49.049999 59.790001 78.959999 86.190002 93.360001 118.5 132.12 146.61 153.78 164.39999 175.14 193.64999 200.88 220.47 231.21001 241.95"
         y="0"
         id="tspan46752">Z*=(R, max I[Z;Y]) </tspan><tspan
         x="0 15.63 27.18 34.349998 45.09 70.230003 78.599998 95.400002 102.57 113.19 123.93 144.09 151.32001 170.31 181.05 188.28 195.45"
         y="36"
         id="tspan46754">or (min I[X;T], I</tspan></text>
    <text
       xml:space="preserve"
       transform="matrix(1,0,0,-1,526.5859,323.8989)"
       style="font-variant:normal;font-weight:500;font-stretch:normal;font-size:17.49px;font-family:'Minion Pro Med Capt';-inkscape-font-specification:MinionPro-MediumCapt;writing-mode:lr-tb;fill:#010101;fill-opacity:1;fill-rule:nonzero;stroke:none"
       id="text46760"><tspan
         x="0"
         y="0"
         id="tspan46758">Y</tspan></text>
    <text
       xml:space="preserve"
       transform="matrix(1,0,0,-1,538.0068,333.8892)"
       style="font-variant:normal;font-weight:500;font-stretch:normal;font-size:30px;font-family:'Minion Pro Med Capt';-inkscape-font-specification:MinionPro-MediumCapt;writing-mode:lr-tb;fill:#010101;fill-opacity:1;fill-rule:nonzero;stroke:none"
       id="text46764"><tspan
         x="0"
         y="0"
         id="tspan46762">)</tspan></text>
    <g
       id="g46766">
      <g
         id="g46768"
         clip-path="url(#clipPath46772)">
        <text
           xml:space="preserve"
           transform="matrix(0.99998432,-0.00560001,-0.00560001,-0.99998432,97.9579,478.4964)"
           style="font-variant:normal;font-weight:normal;font-stretch:normal;font-size:30px;font-family:Kalam;-inkscape-font-specification:Kalam-Regular;writing-mode:lr-tb;fill:#999999;fill-opacity:1;fill-rule:nonzero;stroke:none"
           id="text46776"><tspan
             x="0 17.969982 31.559969 55.439945 69.77993 79.709923 93.209908 105.9899 118.76988 125.90987 139.49986"
             y="0"
             id="tspan46774">Compression</tspan></text>
      </g>
    </g>
    <text
       xml:space="preserve"
       transform="matrix(0.99998432,-0.00560001,-0.00560001,-0.99998432,446.8979,477.8935)"
       style="font-variant:normal;font-weight:normal;font-stretch:normal;font-size:29px;font-family:Kalam;-inkscape-font-specification:Kalam-Regular;writing-mode:lr-tb;fill:#999999;fill-opacity:1;fill-rule:nonzero;stroke:none"
       id="text46780"><tspan
         x="0 17.370974 30.507952 53.591915 67.453896 74.558884 87.608864 99.991844 106.89383 118.11681"
         y="0"
         id="tspan46778">Complexity</tspan></text>
    <g
       id="g46782">
      <g
         id="g46784"
         clip-path="url(#clipPath46788)">
        <text
           xml:space="preserve"
           transform="matrix(-0.00167586,-0.9999986,-0.9999986,0.00167586,636.8842,409.5962)"
           style="font-variant:normal;font-weight:normal;font-stretch:normal;font-size:29px;font-family:Kalam;-inkscape-font-specification:Kalam-Regular;writing-mode:lr-tb;fill:#999999;fill-opacity:1;fill-rule:nonzero;stroke:none"
           id="text46792"><tspan
             x="0 15.747022 25.346035 38.396053 51.301071 58.203083 70.557098 77.459106 90.59613"
             y="0"
             id="tspan46790">Precision</tspan></text>
      </g>
    </g>
  </g>
</svg>
