<?xml version="1.0" encoding="UTF-8" standalone="no"?>
<!-- Created with Inkscape (http://www.inkscape.org/) -->

<svg
   version="1.1"
   id="svg47240"
   width="955.73401"
   height="290.83908"
   viewBox="0 0 955.73401 290.83908"
   xmlns="http://www.w3.org/2000/svg"
   xmlns:svg="http://www.w3.org/2000/svg">
  <defs
     id="defs47244">
    <clipPath
       clipPathUnits="userSpaceOnUse"
       id="clipPath47256">
      <path
         d="m 60.68751,0.2105 h 473.625 V 842 h -473.625 z"
         id="path47254" />
    </clipPath>
    <clipPath
       clipPathUnits="userSpaceOnUse"
       id="clipPath47266">
      <path
         d="m 60.6875,0 h 473.625 V 842 H 60.6875 Z"
         id="path47264" />
    </clipPath>
  </defs>
  <g
     id="g47246"
     transform="matrix(0,-1.3333333,-1.3333333,0,986.2196,639.50707)">
    <g
       id="g47248" />
    <g
       id="g47250">
      <g
         id="g47252"
         clip-path="url(#clipPath47256)">
        <path
           d="m 60.68751,0.2105 h 473.625 V 842 h -473.625 z"
           style="fill:#ffffff;fill-opacity:1;fill-rule:nonzero;stroke:none"
           id="path47258" />
      </g>
    </g>
    <g
       id="g47260">
      <g
         id="g47262"
         clip-path="url(#clipPath47266)">
        <path
           d="m 60.68751,0 h 473.625 v 842 h -473.625 z"
           style="fill:#ffffff;fill-opacity:1;fill-rule:nonzero;stroke:none"
           id="path47268" />
        <path
           d="m 260.0047,21.11245 h 231.8789 v 720.1786 H 260.0047 Z"
           style="fill:#ffffff;fill-opacity:1;fill-rule:nonzero;stroke:none"
           id="path47270" />
        <g
           id="g47272"
           transform="matrix(0,-6.906168e-5,-6.906168e-5,0,491.8836,741.291)">
          <path
             d="M 0,0 H 10428049 V 3357562 H 0 Z"
             style="fill:none;stroke:#bfbfbf;stroke-width:12700;stroke-linecap:butt;stroke-linejoin:miter;stroke-miterlimit:8;stroke-dasharray:none;stroke-opacity:1"
             id="path47274" />
        </g>
        <g
           id="g47276"
           transform="matrix(0,-6.906168e-5,-6.906168e-5,0,467.2156,526.1555)">
          <path
             d="M 0,0 1,2028825"
             style="fill:none;stroke:#000000;stroke-width:12700;stroke-linecap:butt;stroke-linejoin:miter;stroke-miterlimit:8;stroke-dasharray:101600, 38100;stroke-dashoffset:0;stroke-opacity:1"
             id="path47278" />
        </g>
        <path
           d="m 357.3547,694.1092 c 11.0283,0 19.9684,-9.8341 19.9684,-21.9652 0,-12.1311 -8.9401,-21.9652 -19.9684,-21.9652 -11.0282,0 -19.9684,9.8341 -19.9684,21.9652 0,12.1311 8.9402,21.9652 19.9684,21.9652 z"
           style="fill:#ffffff;fill-opacity:1;fill-rule:nonzero;stroke:none"
           id="path47280" />
        <g
           id="g47282"
           transform="matrix(0,-6.906168e-5,-6.906168e-5,0,377.3231,694.1092)">
          <path
             d="M 0,289138 C 0,129451.5 142396.7,0 318052,0 493707.2,0 636104,129451.5 636104,289138 636104,448824.5 493707.2,578276 318052,578276 142396.7,578276 0,448824.5 0,289138 Z"
             style="fill:none;stroke:#9b3034;stroke-width:38100;stroke-linecap:butt;stroke-linejoin:miter;stroke-miterlimit:8;stroke-dasharray:none;stroke-opacity:1"
             id="path47284" />
        </g>
        <g
           id="g47286"
           transform="matrix(0,-0.2105,0.2105,0,-123.7105,677.2969)">
          <text
             xml:space="preserve"
             transform="matrix(1,0,0,-1,0,2250)"
             style="font-variant:normal;font-size:100px;font-family:Neo;-inkscape-font-specification:Neo-Euler;writing-mode:lr-tb;fill:#9b3034;fill-opacity:1;fill-rule:nonzero;stroke:none"
             id="text47290"><tspan
               x="0"
               y="0"
               id="tspan47288">T</tspan></text>
        </g>
        <path
           d="m 357.3547,548.1207 c 11.0283,0 19.9684,-9.8341 19.9684,-21.9652 0,-12.131 -8.9401,-21.9652 -19.9684,-21.9652 -11.0282,0 -19.9684,9.8342 -19.9684,21.9652 0,12.1311 8.9402,21.9652 19.9684,21.9652 z"
           style="fill:#ffffff;fill-opacity:1;fill-rule:nonzero;stroke:none"
           id="path47292" />
        <g
           id="g47294"
           transform="matrix(0,-6.906168e-5,-6.906168e-5,0,377.3231,548.1207)">
          <path
             d="M 0,289138 C 0,129451.5 142396.7,0 318052,0 493707.2,0 636104,129451.5 636104,289138 636104,448824.5 493707.2,578276 318052,578276 142396.7,578276 0,448824.5 0,289138 Z"
             style="fill:none;stroke:#9b3034;stroke-width:38100;stroke-linecap:butt;stroke-linejoin:miter;stroke-miterlimit:8;stroke-dasharray:none;stroke-opacity:1"
             id="path47296" />
        </g>
        <g
           id="g47298"
           transform="matrix(0,-0.2105,0.2105,0,-123.7105,534.8716)">
          <text
             xml:space="preserve"
             transform="matrix(1,0,0,-1,0,2250)"
             style="font-variant:normal;font-size:100px;font-family:Neo;-inkscape-font-specification:Neo-Euler;writing-mode:lr-tb;fill:#9b3034;fill-opacity:1;fill-rule:nonzero;stroke:none"
             id="text47302"><tspan
               x="0"
               y="0"
               id="tspan47300">D</tspan></text>
        </g>
        <path
           d="m 358.6703,650.1788 -10e-5,-95.48 h -2.6312 l 1e-4,95.48 z m 2.6312,-94.1643 -3.9469,-7.8937 -3.9469,7.8937 z"
           style="fill:#000000;fill-opacity:1;fill-rule:nonzero;stroke:none"
           id="path47304" />
        <g
           id="g47306"
           transform="matrix(0,-0.2105,0.2105,0,-32.3535,645.0887)">
          <text
             xml:space="preserve"
             transform="matrix(1,0,0,-1,0,2250)"
             style="font-variant:normal;font-weight:normal;font-size:133.333px;font-family:Kalam;-inkscape-font-specification:Kalam-Regular;writing-mode:lr-tb;fill:#000000;fill-opacity:1;fill-rule:nonzero;stroke:none"
             id="text47310"><tspan
               x="0 90.106644 152.6133 204.18661 268.29327 312.53326"
               y="0"
               id="tspan47308">Nature</tspan></text>
        </g>
        <g
           id="g47312"
           transform="matrix(0,-0.2105,0.2105,0,-32.3535,411.981)">
          <text
             xml:space="preserve"
             transform="matrix(1,0,0,-1,0,2250)"
             style="font-variant:normal;font-weight:normal;font-size:133.333px;font-family:Kalam;-inkscape-font-specification:Kalam-Regular;writing-mode:lr-tb;fill:#000000;fill-opacity:1;fill-rule:nonzero;stroke:none"
             id="text47316"><tspan
               x="0 78.11998 141.70663 173.42662 230.21327 281.79993 341.65326 447.90656 479.62656 538.94653 592.5332 673.71985 737.30646 797.15979 867.94647"
               y="0"
               id="tspan47314">Epistemic Agent</tspan></text>
        </g>
        <g
           id="g47318"
           transform="matrix(0,-0.2105,0.2105,0,-173.178,703.6462)">
          <text
             xml:space="preserve"
             transform="matrix(1,0,0,-1,0,2250)"
             style="font-variant:normal;font-weight:normal;font-size:83.3333px;font-family:Kalam;-inkscape-font-specification:Kalam-Regular;writing-mode:lr-tb;fill:#000000;fill-opacity:1;fill-rule:nonzero;stroke:none"
             id="text47322"><tspan
               x="0 44.791664 89.583328 127.08333 164.58333 192.19167 229.69165"
               y="0"
               id="tspan47320">Theorem</tspan></text>
        </g>
        <g
           id="g47324"
           transform="matrix(0,-0.2105,0.2105,0,-173.178,132.0573)">
          <text
             xml:space="preserve"
             transform="matrix(1,0,0,-1,0,2250)"
             style="font-variant:normal;font-weight:normal;font-size:83.3333px;font-family:Kalam;-inkscape-font-specification:Kalam-Regular;writing-mode:lr-tb;fill:#000000;fill-opacity:1;fill-rule:nonzero;stroke:none"
             id="text47328"><tspan
               x="0 45.316666 72.916664 110.41666 152.08333 171.875 208.84999 241.14166 260.93332 298.43332"
               y="0"
               id="tspan47326">Prediction</tspan></text>
        </g>
        <g
           id="g47330"
           transform="matrix(0,-0.2105,0.2105,0,-173.178,543.6534)">
          <text
             xml:space="preserve"
             transform="matrix(1,0,0,-1,0,2250)"
             style="font-variant:normal;font-weight:normal;font-size:83.3333px;font-family:Kalam;-inkscape-font-specification:Kalam-Regular;writing-mode:lr-tb;fill:#000000;fill-opacity:1;fill-rule:nonzero;stroke:none"
             id="text47334"><tspan
               x="0 53.649998 92.71666 125.03333"
               y="0"
               id="tspan47332">Data</tspan></text>
        </g>
        <g
           id="g47336"
           transform="matrix(0,-0.2105,0.2105,0,-98.661,626.2133)">
          <text
             xml:space="preserve"
             transform="matrix(1,0,0,-1,0,2250)"
             style="font-variant:normal;font-size:66.6667px;font-family:'Minion Pro';-inkscape-font-specification:MinionPro-Capt;writing-mode:lr-tb;fill:#000000;fill-opacity:1;fill-rule:nonzero;stroke:none"
             id="text47340"><tspan
               x="0 38.019997"
               y="0"
               id="tspan47338">P(</tspan></text>
        </g>
        <g
           id="g47342"
           transform="matrix(0,-0.2105,0.2105,0,-98.661,613.1667)">
          <text
             xml:space="preserve"
             transform="matrix(1,0,0,-1,0,2250)"
             style="font-variant:normal;font-size:66.6667px;font-family:'Minion Pro';-inkscape-font-specification:MinionPro-Capt;writing-mode:lr-tb;fill:#000000;fill-opacity:1;fill-rule:nonzero;stroke:none"
             id="text47346"><tspan
               x="0 49.479996 67.159996 108.83999"
               y="0"
               id="tspan47344">D|T)</tspan></text>
        </g>
        <g
           id="g47348"
           transform="matrix(0,-0.2105,0.2105,0,-98.24,445.4739)">
          <text
             xml:space="preserve"
             transform="matrix(1,0,0,-1,0,2250)"
             style="font-variant:normal;font-size:66.6667px;font-family:'Minion Pro';-inkscape-font-specification:MinionPro-Capt;writing-mode:lr-tb;fill:#000000;fill-opacity:1;fill-rule:nonzero;stroke:none"
             id="text47352"><tspan
               x="0 50.519997 74.50666 116.15999 133.87999 183.33331"
               y="0"
               id="tspan47350">Q(T|D)</tspan></text>
        </g>
        <path
           d="m 354.9259,504.1813 1.0679,-155.0393 2.6312,0.0181 -1.0679,155.0392 z m -1.5724,-153.742 4.0012,-7.8662 3.8924,7.9206 z"
           style="fill:#000000;fill-opacity:1;fill-rule:nonzero;stroke:none"
           id="path47354" />
        <path
           d="m 358.6703,298.6426 -10e-5,-174.5259 h -2.6312 l 1e-4,174.526 z m 2.6312,-173.2103 -3.9469,-7.8937 -3.9469,7.8937 z"
           style="fill:#000000;fill-opacity:1;fill-rule:nonzero;stroke:none"
           id="path47356" />
        <g
           id="g47358"
           transform="matrix(0,-0.2105,0.2105,0,-98.24,232.1278)">
          <text
             xml:space="preserve"
             transform="matrix(1,0,0,-1,0,2250)"
             style="font-variant:normal;font-size:66.6667px;font-family:'Minion Pro';-inkscape-font-specification:MinionPro-Capt;writing-mode:lr-tb;fill:#000000;fill-opacity:1;fill-rule:nonzero;stroke:none"
             id="text47362"><tspan
               x="0 50.519997 74.50666 123.95998 141.67999 183.33331"
               y="0"
               id="tspan47360">Q(D|T)</tspan></text>
        </g>
        <g
           id="g47364"
           transform="matrix(0,-0.2105,0.2105,0,-173.178,345.2463)">
          <text
             xml:space="preserve"
             transform="matrix(1,0,0,-1,0,2250)"
             style="font-variant:normal;font-weight:normal;font-size:83.3333px;font-family:Kalam;-inkscape-font-specification:Kalam-Regular;writing-mode:lr-tb;fill:#000000;fill-opacity:1;fill-rule:nonzero;stroke:none"
             id="text47368"><tspan
               x="0 44.791664 89.583328 127.08333 164.58333 192.19167"
               y="0"
               id="tspan47366">Theory</tspan></text>
        </g>
        <path
           d="m 357.3547,342.5731 c 11.0283,0 19.9684,-9.8343 19.9684,-21.9653 0,-12.131 -8.9401,-21.9651 -19.9684,-21.9651 -11.0282,0 -19.9684,9.8341 -19.9684,21.9651 0,12.131 8.9402,21.9653 19.9684,21.9653 z"
           style="fill:#ffffff;fill-opacity:1;fill-rule:nonzero;stroke:none"
           id="path47370" />
        <g
           id="g47372"
           transform="matrix(0,-6.906168e-5,-6.906168e-5,0,377.3231,342.5731)">
          <path
             d="M 0,289138 C 0,129451.5 142396.7,0 318052,0 493707.2,0 636104,129451.5 636104,289138 636104,448824.5 493707.2,578276 318052,578276 142396.7,578276 0,448824.5 0,289138 Z"
             style="fill:none;stroke:#9b3034;stroke-width:38100;stroke-linecap:butt;stroke-linejoin:miter;stroke-miterlimit:8;stroke-dasharray:none;stroke-opacity:1"
             id="path47374" />
        </g>
        <g
           id="g47376"
           transform="matrix(0,-0.2105,0.2105,0,-120.132,330.1303)">
          <text
             xml:space="preserve"
             transform="matrix(1,0,0,-1,0,2250)"
             style="font-variant:normal;font-weight:normal;font-size:100px;font-family:CambriaMath;-inkscape-font-specification:CambriaMath;writing-mode:lr-tb;fill:#9b3034;fill-opacity:1;fill-rule:nonzero;stroke:none"
             id="text47380"><tspan
               x="0"
               y="0"
               id="tspan47378">!</tspan></text>
        </g>
        <g
           id="g47382"
           transform="matrix(0,-0.2105,0.2105,0,-124.763,336.4365)">
          <text
             xml:space="preserve"
             transform="matrix(1,0,0,-1,0,2250)"
             style="font-variant:normal;font-size:100px;font-family:Neo;-inkscape-font-specification:Neo-Euler;writing-mode:lr-tb;fill:#9b3034;fill-opacity:1;fill-rule:nonzero;stroke:none"
             id="text47386"><tspan
               x="0"
               y="0"
               id="tspan47384">T</tspan></text>
        </g>
        <g
           id="g47388"
           transform="matrix(0,-0.2105,0.2105,0,-129.1835,326.1308)">
          <text
             xml:space="preserve"
             transform="matrix(1,0,0,-1,0,2250)"
             style="font-variant:normal;font-weight:normal;font-size:75px;font-family:CambriaMath;-inkscape-font-specification:CambriaMath;writing-mode:lr-tb;fill:#9b3034;fill-opacity:1;fill-rule:nonzero;stroke:none"
             id="text47392"><tspan
               x="0"
               y="0"
               id="tspan47390">!</tspan></text>
        </g>
        <g
           id="g47394"
           transform="matrix(0,-0.2105,0.2105,0,-129.1835,317.8599)">
          <text
             xml:space="preserve"
             transform="matrix(1,0,0,-1,0,2250)"
             style="font-variant:normal;font-weight:normal;font-size:75px;font-family:CambriaMath;-inkscape-font-specification:CambriaMath;writing-mode:lr-tb;fill:#9b3034;fill-opacity:1;fill-rule:nonzero;stroke:none"
             id="text47398"><tspan
               x="0"
               y="0"
               id="tspan47396">,</tspan></text>
        </g>
        <g
           id="g47400"
           transform="matrix(0,-0.2105,0.2105,0,-129.1835,314.6805)">
          <text
             xml:space="preserve"
             transform="matrix(1,0,0,-1,0,2250)"
             style="font-variant:normal;font-weight:normal;font-size:75px;font-family:CambriaMath;-inkscape-font-specification:CambriaMath;writing-mode:lr-tb;fill:#9b3034;fill-opacity:1;fill-rule:nonzero;stroke:none"
             id="text47404"><tspan
               x="0"
               y="0"
               id="tspan47402">#</tspan></text>
        </g>
        <path
           d="m 357.3547,117.5386 c 11.0283,0 19.9684,-9.8343 19.9684,-21.96529 0,-12.13102 -8.9401,-21.96523 -19.9684,-21.96523 -11.0282,0 -19.9684,9.83421 -19.9684,21.96523 0,12.13099 8.9402,21.96529 19.9684,21.96529 z"
           style="fill:#ffffff;fill-opacity:1;fill-rule:nonzero;stroke:none"
           id="path47406" />
        <g
           id="g47408"
           transform="matrix(0,-6.906168e-5,-6.906168e-5,0,377.3231,117.5386)">
          <path
             d="M 0,289138 C 0,129451.5 142396.7,0 318052,0 493707.2,0 636104,129451.5 636104,289138 636104,448824.5 493707.2,578276 318052,578276 142396.7,578276 0,448824.5 0,289138 Z"
             style="fill:none;stroke:#9b3034;stroke-width:38100;stroke-linecap:butt;stroke-linejoin:miter;stroke-miterlimit:8;stroke-dasharray:none;stroke-opacity:1"
             id="path47410" />
        </g>
        <g
           id="g47412"
           transform="matrix(0,-0.2105,0.2105,0,-119.5005,101.4567)">
          <text
             xml:space="preserve"
             transform="matrix(1,0,0,-1,0,2250)"
             style="font-variant:normal;font-weight:normal;font-size:100px;font-family:CambriaMath;-inkscape-font-specification:CambriaMath;writing-mode:lr-tb;fill:#9b3034;fill-opacity:1;fill-rule:nonzero;stroke:none"
             id="text47416"><tspan
               x="0"
               y="0"
               id="tspan47414">&quot;</tspan></text>
        </g>
        <g
           id="g47418"
           transform="matrix(0,-0.2105,0.2105,0,-123.921,104.3292)">
          <text
             xml:space="preserve"
             transform="matrix(1,0,0,-1,0,2250)"
             style="font-variant:normal;font-size:100px;font-family:Neo;-inkscape-font-specification:Neo-Euler;writing-mode:lr-tb;fill:#9b3034;fill-opacity:1;fill-rule:nonzero;stroke:none"
             id="text47422"><tspan
               x="0"
               y="0"
               id="tspan47420">D</tspan></text>
        </g>
      </g>
    </g>
  </g>
</svg>
