<?xml version="1.0" encoding="UTF-8" standalone="no"?>
<!-- Created with Inkscape (http://www.inkscape.org/) -->

<svg
   version="1.1"
   id="svg46883"
   width="676.93597"
   height="218.5"
   viewBox="0 0 676.93597 218.5"
   xmlns="http://www.w3.org/2000/svg"
   xmlns:svg="http://www.w3.org/2000/svg">
  <defs
     id="defs46887">
    <clipPath
       clipPathUnits="userSpaceOnUse"
       id="clipPath46903">
      <path
         d="M 0,163.875 H 507.702 V 0 H 0 Z"
         id="path46901" />
    </clipPath>
    <clipPath
       clipPathUnits="userSpaceOnUse"
       id="clipPath46923">
      <path
         d="M 0,163.875 H 507.702 V 0 H 0 Z"
         id="path46921" />
    </clipPath>
    <clipPath
       clipPathUnits="userSpaceOnUse"
       id="clipPath46943">
      <path
         d="M 0,163.875 H 507.702 V 0 H 0 Z"
         id="path46941" />
    </clipPath>
    <clipPath
       clipPathUnits="userSpaceOnUse"
       id="clipPath46965">
      <path
         d="M 0,163.875 H 507.702 V 0 H 0 Z"
         id="path46963" />
    </clipPath>
  </defs>
  <g
     id="g46889"
     transform="matrix(1.3333333,0,0,-1.3333333,0,218.5)">
    <path
       d="M 0,0 H 507.702 V 163.875 H 0 Z"
       style="fill:#ffffff;fill-opacity:1;fill-rule:nonzero;stroke:none"
       id="path46891" />
    <g
       id="g46893"
       transform="translate(151.8161,145.6318)">
      <path
         d="M 0,0 V -98.789"
         style="fill:none;stroke:#000000;stroke-width:1;stroke-linecap:butt;stroke-linejoin:miter;stroke-miterlimit:8;stroke-dasharray:8, 3;stroke-dashoffset:0;stroke-opacity:1"
         id="path46895" />
    </g>
    <g
       id="g46897">
      <g
         id="g46899"
         clip-path="url(#clipPath46903)">
        <g
           id="g46905"
           transform="translate(33.7023,68.3324)">
          <path
             d="M 0,0 C 0,7.855 6.922,14.224 15.46,14.224 23.999,14.224 30.92,7.855 30.92,0 30.92,-7.855 23.999,-14.223 15.46,-14.223 6.922,-14.223 0,-7.855 0,0"
             style="fill:#ffffff;fill-opacity:1;fill-rule:nonzero;stroke:none"
             id="path46907" />
        </g>
        <g
           id="g46909"
           transform="translate(33.7023,68.3324)">
          <path
             d="M 0,0 C 0,7.855 6.922,14.224 15.46,14.224 23.999,14.224 30.92,7.855 30.92,0 30.92,-7.855 23.999,-14.223 15.46,-14.223 6.922,-14.223 0,-7.855 0,0 Z"
             style="fill:none;stroke:#9b3035;stroke-width:3;stroke-linecap:butt;stroke-linejoin:miter;stroke-miterlimit:8;stroke-dasharray:none;stroke-opacity:1"
             id="path46911" />
        </g>
      </g>
    </g>
    <text
       xml:space="preserve"
       transform="matrix(1,0,0,-1,45.0093,63.6943)"
       style="font-variant:normal;font-weight:500;font-stretch:normal;font-size:14.8415px;font-family:'Neo Euler';-inkscape-font-specification:Neo-Euler;writing-mode:lr-tb;fill:#9b3035;fill-opacity:1;fill-rule:nonzero;stroke:none"
       id="text46915"><tspan
         x="0"
         y="0"
         id="tspan46913">T</tspan></text>
    <g
       id="g46917">
      <g
         id="g46919"
         clip-path="url(#clipPath46923)">
        <g
           id="g46925"
           transform="translate(136.3561,68.3324)">
          <path
             d="M 0,0 C 0,7.855 6.921,14.224 15.46,14.224 23.998,14.224 30.919,7.855 30.919,0 30.919,-7.855 23.998,-14.223 15.46,-14.223 6.921,-14.223 0,-7.855 0,0"
             style="fill:#ffffff;fill-opacity:1;fill-rule:nonzero;stroke:none"
             id="path46927" />
        </g>
        <g
           id="g46929"
           transform="translate(136.3561,68.3324)">
          <path
             d="M 0,0 C 0,7.855 6.921,14.224 15.46,14.224 23.998,14.224 30.919,7.855 30.919,0 30.919,-7.855 23.998,-14.223 15.46,-14.223 6.921,-14.223 0,-7.855 0,0 Z"
             style="fill:none;stroke:#9b3035;stroke-width:3;stroke-linecap:butt;stroke-linejoin:miter;stroke-miterlimit:8;stroke-dasharray:none;stroke-opacity:1"
             id="path46931" />
        </g>
      </g>
    </g>
    <text
       xml:space="preserve"
       transform="matrix(1,0,0,-1,145.4282,63.6943)"
       style="font-variant:normal;font-weight:500;font-stretch:normal;font-size:14.8415px;font-family:'Neo Euler';-inkscape-font-specification:Neo-Euler;writing-mode:lr-tb;fill:#9b3035;fill-opacity:1;fill-rule:nonzero;stroke:none"
       id="text46935"><tspan
         x="0"
         y="0"
         id="tspan46933">D</tspan></text>
    <g
       id="g46937">
      <g
         id="g46939"
         clip-path="url(#clipPath46943)">
        <g
           id="g46945"
           transform="translate(439.9879,68.3324)">
          <path
             d="M 0,0 C 0,7.855 6.921,14.224 15.46,14.224 23.998,14.224 30.92,7.855 30.92,0 30.92,-7.855 23.998,-14.223 15.46,-14.223 6.921,-14.223 0,-7.855 0,0"
             style="fill:#ffffff;fill-opacity:1;fill-rule:nonzero;stroke:none"
             id="path46947" />
        </g>
        <g
           id="g46949"
           transform="translate(439.9879,68.3324)">
          <path
             d="M 0,0 C 0,7.855 6.921,14.224 15.46,14.224 23.998,14.224 30.92,7.855 30.92,0 30.92,-7.855 23.998,-14.223 15.46,-14.223 6.921,-14.223 0,-7.855 0,0 Z"
             style="fill:none;stroke:#9b3035;stroke-width:3;stroke-linecap:butt;stroke-linejoin:miter;stroke-miterlimit:8;stroke-dasharray:none;stroke-opacity:1"
             id="path46951" />
        </g>
      </g>
    </g>
    <text
       xml:space="preserve"
       transform="matrix(1,0,0,-1,451.5249,63.6943)"
       style="font-variant:normal;font-weight:500;font-stretch:normal;font-size:14.8415px;font-family:'Neo Euler';-inkscape-font-specification:Neo-Euler;writing-mode:lr-tb;fill:#9b3035;fill-opacity:1;fill-rule:nonzero;stroke:none"
       id="text46957"><tspan
         x="0"
         y="0"
         id="tspan46953">T</tspan><tspan
         x="-0.0742075"
         y="-4.9422197"
         id="tspan46955">ˆ</tspan></text>
    <g
       id="g46959">
      <g
         id="g46961"
         clip-path="url(#clipPath46965)">
        <path
           d="m 64.622,69.26 h 67.319 V 67.405 H 64.622 Z m 66.391,1.856 5.566,-2.784 -5.566,-2.782 z"
           style="fill:#000000;fill-opacity:1;fill-rule:nonzero;stroke:none"
           id="path46967" />
        <path
           d="M 167.894,69.26 H 435.268 V 67.405 H 167.894 Z m 266.447,1.856 5.566,-2.784 -5.566,-2.782 z"
           style="fill:#000000;fill-opacity:1;fill-rule:nonzero;stroke:none"
           id="path46969" />
      </g>
    </g>
    <text
       xml:space="preserve"
       transform="matrix(1,0,0,-1,67.7183,128.0078)"
       style="font-variant:normal;font-weight:normal;font-stretch:normal;font-size:19.7886px;font-family:Kalam;-inkscape-font-specification:Kalam-Regular;writing-mode:lr-tb;fill:#000000;fill-opacity:1;fill-rule:nonzero;stroke:none"
       id="text46973"><tspan
         x="0 13.377093 22.638159 30.276558 39.775085 46.305325 164.36411 175.94044 185.3994 190.10909 198.53902 206.1972 215.10208 230.85381 235.56349 244.36942 252.30466 264.33612 273.73572 282.64056 293.1879"
         y="0"
         id="tspan46971">NatureEpistemic Agent</tspan></text>
    <text
       xml:space="preserve"
       transform="matrix(1,0,0,-1,4.3423,28.4463)"
       style="font-variant:normal;font-weight:normal;font-stretch:normal;font-size:12.3679px;font-family:Kalam;-inkscape-font-specification:Kalam-Regular;writing-mode:lr-tb;fill:#000000;fill-opacity:1;fill-rule:nonzero;stroke:none"
       id="text46977"><tspan
         x="0 6.0973749 12.874984 18.700264 27.048597 32.03286 37.660255 42.335323 47.319584 55.717388 61.542671 66.353783 72.327477 76.445992 82.036278 414.93066 422.35141 428.96823 435.16455 440.75485 444.87335 450.16681 454.97794 460.80322 467.42004 473.61636 476.58466 483.20148 114.29176 121.87328 128.36644 133.63516 139.20071 143.29449 148.51375 154.31429 159.10066 162.04422 167.64688 174.23897"
         y="0"
         id="tspan46975">“Law of Nature”UnderstandingObservations</tspan></text>
  </g>
</svg>
