<?xml version="1.0" encoding="UTF-8" standalone="no"?>
<!-- Created with Inkscape (http://www.inkscape.org/) -->

<svg
   version="1.1"
   id="svg47027"
   width="717.54401"
   height="231.60667"
   viewBox="0 0 717.54401 231.60667"
   xmlns="http://www.w3.org/2000/svg"
   xmlns:svg="http://www.w3.org/2000/svg">
  <defs
     id="defs47031">
    <clipPath
       clipPathUnits="userSpaceOnUse"
       id="clipPath47047">
      <path
         d="M 0,173.705 H 538.158 V 0 H 0 Z"
         id="path47045" />
    </clipPath>
    <clipPath
       clipPathUnits="userSpaceOnUse"
       id="clipPath47067">
      <path
         d="M 0,173.705 H 538.158 V 0 H 0 Z"
         id="path47065" />
    </clipPath>
    <clipPath
       clipPathUnits="userSpaceOnUse"
       id="clipPath47087">
      <path
         d="M 0,173.705 H 538.158 V 0 H 0 Z"
         id="path47085" />
    </clipPath>
    <clipPath
       clipPathUnits="userSpaceOnUse"
       id="clipPath47109">
      <path
         d="M 0,173.705 H 538.158 V 0 H 0 Z"
         id="path47107" />
    </clipPath>
    <clipPath
       clipPathUnits="userSpaceOnUse"
       id="clipPath47133">
      <path
         d="M 0,173.705 H 538.158 V 0 H 0 Z"
         id="path47131" />
    </clipPath>
    <clipPath
       clipPathUnits="userSpaceOnUse"
       id="clipPath47153">
      <path
         d="M 0,173.705 H 538.158 V 0 H 0 Z"
         id="path47151" />
    </clipPath>
  </defs>
  <g
     id="g47033"
     transform="matrix(1.3333333,0,0,-1.3333333,0,231.60667)">
    <path
       d="M 0,0 H 538.158 V 173.704 H 0 Z"
       style="fill:#ffffff;fill-opacity:1;fill-rule:nonzero;stroke:none"
       id="path47035" />
    <g
       id="g47037"
       transform="translate(160.5951,154.6956)">
      <path
         d="M 0,0 V -104.714"
         style="fill:none;stroke:#000000;stroke-width:1;stroke-linecap:butt;stroke-linejoin:miter;stroke-miterlimit:8;stroke-dasharray:8, 3;stroke-dashoffset:0;stroke-opacity:1"
         id="path47039" />
    </g>
    <g
       id="g47041">
      <g
         id="g47043"
         clip-path="url(#clipPath47047)">
        <g
           id="g47049"
           transform="translate(35.3964,72.7596)">
          <path
             d="m 0,0 c 0,8.326 7.337,15.076 16.387,15.076 9.051,0 16.388,-6.75 16.388,-15.076 0,-8.327 -7.337,-15.076 -16.388,-15.076 C 7.337,-15.076 0,-8.327 0,0"
             style="fill:#ffffff;fill-opacity:1;fill-rule:nonzero;stroke:none"
             id="path47051" />
        </g>
        <g
           id="g47053"
           transform="translate(35.3964,72.7596)">
          <path
             d="m 0,0 c 0,8.326 7.337,15.076 16.387,15.076 9.051,0 16.388,-6.75 16.388,-15.076 0,-8.327 -7.337,-15.076 -16.388,-15.076 C 7.337,-15.076 0,-8.327 0,0 Z"
             style="fill:none;stroke:#9b3035;stroke-width:3;stroke-linecap:butt;stroke-linejoin:miter;stroke-miterlimit:8;stroke-dasharray:none;stroke-opacity:1"
             id="path47055" />
        </g>
      </g>
    </g>
    <text
       xml:space="preserve"
       transform="matrix(1,0,0,-1,47.3818,67.8433)"
       style="font-variant:normal;font-weight:500;font-stretch:normal;font-size:15.7318px;font-family:'Neo Euler';-inkscape-font-specification:Neo-Euler;writing-mode:lr-tb;fill:#9b3035;fill-opacity:1;fill-rule:nonzero;stroke:none"
       id="text47059"><tspan
         x="0"
         y="0"
         id="tspan47057">T</tspan></text>
    <g
       id="g47061">
      <g
         id="g47063"
         clip-path="url(#clipPath47067)">
        <g
           id="g47069"
           transform="translate(144.2079,72.7596)">
          <path
             d="m 0,0 c 0,8.326 7.337,15.076 16.387,15.076 9.051,0 16.387,-6.75 16.387,-15.076 0,-8.327 -7.336,-15.076 -16.387,-15.076 C 7.337,-15.076 0,-8.327 0,0"
             style="fill:#ffffff;fill-opacity:1;fill-rule:nonzero;stroke:none"
             id="path47071" />
        </g>
        <g
           id="g47073"
           transform="translate(144.2079,72.7596)">
          <path
             d="m 0,0 c 0,8.326 7.337,15.076 16.387,15.076 9.051,0 16.387,-6.75 16.387,-15.076 0,-8.327 -7.336,-15.076 -16.387,-15.076 C 7.337,-15.076 0,-8.327 0,0 Z"
             style="fill:none;stroke:#9b3035;stroke-width:3;stroke-linecap:butt;stroke-linejoin:miter;stroke-miterlimit:8;stroke-dasharray:none;stroke-opacity:1"
             id="path47075" />
        </g>
      </g>
    </g>
    <text
       xml:space="preserve"
       transform="matrix(1,0,0,-1,153.8242,67.8433)"
       style="font-variant:normal;font-weight:500;font-stretch:normal;font-size:15.7318px;font-family:'Neo Euler';-inkscape-font-specification:Neo-Euler;writing-mode:lr-tb;fill:#9b3035;fill-opacity:1;fill-rule:nonzero;stroke:none"
       id="text47079"><tspan
         x="0"
         y="0"
         id="tspan47077">D</tspan></text>
    <g
       id="g47081">
      <g
         id="g47083"
         clip-path="url(#clipPath47087)">
        <g
           id="g47089"
           transform="translate(466.0541,72.7596)">
          <path
             d="m 0,0 c 0,8.326 7.337,15.076 16.387,15.076 9.05,0 16.387,-6.75 16.387,-15.076 0,-8.327 -7.337,-15.076 -16.387,-15.076 C 7.337,-15.076 0,-8.327 0,0"
             style="fill:#ffffff;fill-opacity:1;fill-rule:nonzero;stroke:none"
             id="path47091" />
        </g>
        <g
           id="g47093"
           transform="translate(466.0541,72.7596)">
          <path
             d="m 0,0 c 0,8.326 7.337,15.076 16.387,15.076 9.05,0 16.387,-6.75 16.387,-15.076 0,-8.327 -7.337,-15.076 -16.387,-15.076 C 7.337,-15.076 0,-8.327 0,0 Z"
             style="fill:none;stroke:#9b3035;stroke-width:3;stroke-linecap:butt;stroke-linejoin:miter;stroke-miterlimit:8;stroke-dasharray:none;stroke-opacity:1"
             id="path47095" />
        </g>
      </g>
    </g>
    <text
       xml:space="preserve"
       transform="matrix(1,0,0,-1,475.6211,67.8433)"
       style="font-variant:normal;font-weight:500;font-stretch:normal;font-size:15.7318px;font-family:'Neo Euler';-inkscape-font-specification:Neo-Euler;writing-mode:lr-tb;fill:#9b3035;fill-opacity:1;fill-rule:nonzero;stroke:none"
       id="text47101"><tspan
         x="0"
         y="0"
         id="tspan47097">D</tspan><tspan
         x="2.5800152"
         y="-5.2386894"
         id="tspan47099">ˆ</tspan></text>
    <g
       id="g47103">
      <g
         id="g47105"
         clip-path="url(#clipPath47109)">
        <path
           d="m 68.171,73.743 h 71.357 V 71.777 H 68.171 Z m 70.374,1.966 5.899,-2.949 -5.899,-2.95 z"
           style="fill:#000000;fill-opacity:1;fill-rule:nonzero;stroke:none"
           id="path47111" />
      </g>
    </g>
    <text
       xml:space="preserve"
       transform="matrix(1,0,0,-1,71.4531,136.0151)"
       style="font-variant:normal;font-weight:normal;font-stretch:normal;font-size:20.9757px;font-family:Kalam;-inkscape-font-specification:Kalam-Regular;writing-mode:lr-tb;fill:#000000;fill-opacity:1;fill-rule:nonzero;stroke:none"
       id="text47115"><tspan
         x="0 14.179573 23.996201 32.092819 42.161156 49.083138 174.20319 186.47397 196.50035 201.49257 210.42822 218.54582 227.98488 244.68153 249.67375 259.00793 267.41919 280.17242 290.13589 299.57495 310.755"
         y="0"
         id="tspan47113">NatureEpistemic Agent</tspan></text>
    <text
       xml:space="preserve"
       transform="matrix(1,0,0,-1,27.6899,30.481)"
       style="font-variant:normal;font-weight:normal;font-stretch:normal;font-size:13.1098px;font-family:Kalam;-inkscape-font-specification:Kalam-Regular;writing-mode:lr-tb;fill:#000000;fill-opacity:1;fill-rule:nonzero;stroke:none"
       id="text47119"><tspan
         x="0 7.0399628 14.093035 20.018665 25.983624 30.349188 36.274818 427.18283 434.30145 438.64081 444.54022 451.082 454.20212 460.03598 465.1095 468.22961 474.16837 119.57449 128.0172 134.15259 139.21297"
         y="0"
         id="tspan47117">TheoremPredictionData</tspan></text>
    <text
       xml:space="preserve"
       transform="matrix(1,0,0,-1,85.5596,86.1978)"
       style="font-variant:normal;font-weight:normal;font-stretch:normal;font-size:10.4879px;font-family:'Minion Pro Capt';-inkscape-font-specification:MinionPro-Capt;writing-mode:lr-tb;fill:#000000;fill-opacity:1;fill-rule:nonzero;stroke:none"
       id="text47125"><tspan
         x="0 5.9885907 9.753747 17.546257 20.336039 26.901463"
         y="0"
         id="tspan47121">P(D|T)</tspan><tspan
         x="135.08415 143.0235 146.79913 152.52553 155.31531 163.10782"
         y="-0.65024978"
         id="tspan47123">Q(h|D)</tspan></text>
    <g
       id="g47127">
      <g
         id="g47129"
         clip-path="url(#clipPath47133)">
        <g
           id="g47135"
           transform="translate(297.5931,72.7596)">
          <path
             d="M 0,0 C 0,8.326 7.483,15.076 16.715,15.076 25.946,15.076 33.43,8.326 33.43,0 33.43,-8.327 25.946,-15.076 16.715,-15.076 7.483,-15.076 0,-8.327 0,0"
             style="fill:#ffffff;fill-opacity:1;fill-rule:nonzero;stroke:none"
             id="path47137" />
        </g>
        <g
           id="g47139"
           transform="translate(297.5931,72.7596)">
          <path
             d="M 0,0 C 0,8.326 7.483,15.076 16.715,15.076 25.946,15.076 33.43,8.326 33.43,0 33.43,-8.327 25.946,-15.076 16.715,-15.076 7.483,-15.076 0,-8.327 0,0 Z"
             style="fill:none;stroke:#9b3035;stroke-width:3;stroke-linecap:butt;stroke-linejoin:miter;stroke-miterlimit:8;stroke-dasharray:none;stroke-opacity:1"
             id="path47141" />
        </g>
      </g>
    </g>
    <text
       xml:space="preserve"
       transform="matrix(1,0,0,-1,309.0801,67.8433)"
       style="font-variant:normal;font-weight:500;font-stretch:normal;font-size:15.7318px;font-family:'Neo Euler';-inkscape-font-specification:Neo-Euler;writing-mode:lr-tb;fill:#9b3035;fill-opacity:1;fill-rule:nonzero;stroke:none"
       id="text47145"><tspan
         x="0"
         y="0"
         id="tspan47143">h</tspan></text>
    <g
       id="g47147">
      <g
         id="g47149"
         clip-path="url(#clipPath47153)">
        <g
           id="g47155"
           transform="translate(176.9891,70.9442)">
          <path
             d="M 0,0 115.87,0.798 115.856,2.765 -0.013,1.966 Z m 114.9,-1.175 5.879,2.99 -5.92,2.909 z"
             style="fill:#000000;fill-opacity:1;fill-rule:nonzero;stroke:none"
             id="path47157" />
        </g>
        <path
           d="M 331.023,73.743 H 461.456 V 71.777 H 331.023 Z m 129.449,1.966 5.899,-2.949 -5.899,-2.95 z"
           style="fill:#000000;fill-opacity:1;fill-rule:nonzero;stroke:none"
           id="path47159" />
      </g>
    </g>
    <text
       xml:space="preserve"
       transform="matrix(1,0,0,-1,380.0801,86.853)"
       style="font-variant:normal;font-weight:normal;font-stretch:normal;font-size:10.4879px;font-family:'Minion Pro Capt';-inkscape-font-specification:MinionPro-Capt;writing-mode:lr-tb;fill:#000000;fill-opacity:1;fill-rule:nonzero;stroke:none"
       id="text47163"><tspan
         x="0 7.9393401 11.714984 19.507494 22.297276 28.023668"
         y="0"
         id="tspan47161">Q(D|h)</tspan></text>
    <text
       xml:space="preserve"
       transform="matrix(1,0,0,-1,283.9575,30.481)"
       style="font-variant:normal;font-weight:normal;font-stretch:normal;font-size:13.1098px;font-family:Kalam;-inkscape-font-specification:Kalam-Regular;writing-mode:lr-tb;fill:#000000;fill-opacity:1;fill-rule:nonzero;stroke:none"
       id="text47167"><tspan
         x="0 7.0137429 13.14913 19.402504 25.328135 30.388515 37.40226 43.288559 48.860226 51.967247"
         y="0"
         id="tspan47165">hypothesis</tspan></text>
  </g>
</svg>
