<?xml version="1.0" encoding="UTF-8" standalone="no"?>
<!-- Created with Inkscape (http://www.inkscape.org/) -->

<svg
   version="1.1"
   id="svg59942"
   width="223.028"
   height="206.58932"
   viewBox="0 0 223.028 206.58932"
   xmlns="http://www.w3.org/2000/svg"
   xmlns:svg="http://www.w3.org/2000/svg">
  <defs
     id="defs59946">
    <clipPath
       clipPathUnits="userSpaceOnUse"
       id="clipPath59956">
      <path
         d="M 0,0 H 167.271 V 154.942 H 0 Z"
         id="path59954" />
    </clipPath>
  </defs>
  <g
     id="g59948"
     transform="matrix(1.3333333,0,0,-1.3333333,0,206.58933)">
    <g
       id="g59950">
      <g
         id="g59952"
         clip-path="url(#clipPath59956)">
        <g
           id="g59958"
           transform="translate(146.6553,9.9102)">
          <path
             d="m 0,0 c 3.869,-0.136 7.305,-0.264 10.743,-0.372 2.617,-0.084 2.809,0.152 2.972,2.805 0.226,3.681 -0.017,7.356 -0.223,11.023 -0.268,4.784 -0.623,9.572 -1.151,14.336 -1.013,9.135 -2.191,18.248 -1.725,27.478 0.205,4.062 0.09,8.131 0.266,12.205 0.188,4.375 0.197,8.786 0.191,13.181 -0.012,9.192 0.198,18.381 0.016,27.573 -0.059,3.035 0.198,6.075 0.253,9.113 0.033,1.749 -0.247,2.097 -1.893,2.539 -1.001,0.267 -2.032,0.431 -3.053,0.619 -3.601,0.667 -7.119,1.628 -10.861,1.66 -6.236,0.052 -12.458,-0.007 -18.69,-0.272 -5.185,-0.221 -10.388,-0.031 -15.583,-0.023 -0.72,0.001 -1.443,0.035 -2.158,-0.019 -9.647,-0.76 -19.309,-0.952 -28.98,-0.806 -0.639,0.01 -1.281,0.002 -1.917,-0.052 -5.283,-0.453 -10.536,-0.07 -15.79,0.471 -3.979,0.41 -7.968,0.632 -11.972,0.35 -7.396,-0.52 -14.784,-1.509 -22.214,-0.424 -0.785,0.114 -1.602,0.116 -2.396,0.06 -4.386,-0.309 -8.77,-0.579 -13.174,-0.435 -1.808,0.058 -2.31,-0.428 -2.41,-2.238 -0.123,-2.231 -0.071,-4.473 -0.093,-6.712 -0.033,-3.348 0.138,-6.711 -0.151,-10.038 -0.311,-3.573 -0.824,-7.147 -1.383,-10.689 -0.902,-5.709 -1.306,-11.429 -1.374,-17.189 -0.038,-3.197 -0.381,-6.381 -0.147,-9.589 0.319,-4.381 0.695,-8.774 0.694,-13.159 -0.003,-6.886 1.088,-13.704 1.093,-20.575 0.001,-2.741 0.736,-5.373 0.842,-8.089 0.239,-6.146 0.45,-12.295 1.134,-18.419 0.176,-1.584 0.143,-3.191 0.274,-4.783 0.087,-1.051 0.564,-1.857 1.777,-1.861 3.276,-0.013 6.543,-0.567 9.824,-0.199 4.296,0.481 8.609,0.414 12.92,0.527 3.756,0.1 7.508,-0.115 11.267,0.138 6.058,0.407 12.127,0.76 18.196,0.885 5.832,0.12 11.65,0.502 17.485,0.598 7.105,0.117 14.219,0.32 21.322,0.412 8.225,0.109 16.453,-0.046 24.687,0.093 C -14.12,0.245 -6.835,0.581 0,0 m -127.539,126.057 c 9.127,-0.643 16.655,0.463 24.21,1.131 4.875,0.431 9.757,0.176 14.599,-0.367 6.134,-0.688 12.282,-0.738 18.433,-0.823 3.984,-0.057 7.971,-0.09 11.954,-0.008 5.509,0.113 11.018,0.282 16.522,0.554 2.081,0.103 4.155,0.159 6.229,0.072 6.4,-0.267 12.771,0.405 19.155,0.53 6.379,0.125 12.792,0.182 19.115,-1.071 2.9,-0.575 5.812,-1.051 8.78,-1.192 3.505,-0.168 4.831,-1.527 4.389,-5.056 -0.679,-5.422 -0.625,-10.856 -0.439,-16.268 0.301,-8.728 -0.584,-17.423 -0.444,-26.125 0.148,-9.205 -0.49,-18.379 -0.487,-27.568 10e-4,-4.935 0.403,-9.884 1.003,-14.804 0.541,-4.44 0.853,-8.907 1.295,-13.357 0.632,-6.364 1.154,-12.729 0.853,-19.139 -0.083,-1.769 0.05,-3.528 1.805,-4.67 0.607,-0.392 0.888,-1.126 1.072,-1.832 0.316,-1.205 -0.024,-1.76 -1.302,-2.01 -0.628,-0.123 -1.257,-0.183 -1.837,-0.491 -1.125,-0.598 -2.176,-0.447 -3.075,0.444 -0.991,0.978 -2.222,1.181 -3.529,1.222 -7.588,0.238 -15.169,0.493 -22.768,0.517 -8.87,0.027 -17.722,-0.569 -26.602,-0.285 -9.656,0.308 -19.322,-0.046 -28.981,-0.629 -7.65,-0.462 -12.936,-1.451 -20.604,-1.8 -6.458,-0.292 -12.895,-1.069 -19.34,-1.637 -0.319,-0.029 -0.633,-0.137 -0.949,-0.138 -8.71,-0.018 -17.358,-1.627 -26.092,-1.036 -0.795,0.052 -1.591,0.129 -2.379,0.246 -1.647,0.243 -2.457,1.093 -3.085,2.795 -1.036,2.806 -2.948,8.471 -3.167,11.3 -0.405,5.251 -0.668,10.513 -0.669,15.797 0,6.065 -0.592,12.123 -0.935,18.185 -0.428,7.573 -1.388,15.111 -1.414,22.718 -0.015,4.709 -0.688,9.426 -0.325,14.129 0.609,7.891 0.785,15.807 1.382,23.692 0.404,5.328 1.442,10.608 1.332,15.985 -0.054,2.629 -0.446,5.245 0.182,7.878 0.606,2.547 0.938,3.049 3.482,2.922 4.718,-0.234 9.424,0.556 12.631,0.189"
             style="fill:#000000;fill-opacity:1;fill-rule:nonzero;stroke:none"
             id="path59960" />
        </g>
        <g
           id="g59962"
           transform="translate(7.73,140.3228)">
          <path
             d="m 0,0 c -0.982,-0.032 -1.921,0.094 -2.77,0.62 -0.339,0.21 -0.686,0.443 -0.685,0.903 10e-4,0.569 0.4,0.857 0.863,1.018 0.525,0.184 1.078,0.285 1.617,0.428 1.78,0.473 2.092,0.849 1.904,2.679 -0.105,1.027 -0.371,2.039 -0.603,3.049 -0.801,3.486 -0.144,4.58 3.342,5.549 1.998,0.555 3.933,0.581 5.777,-0.544 2.243,-1.368 3.115,-3.373 2.478,-5.919 C 11.75,7.092 11.43,6.437 11.187,5.761 10.531,3.936 10.528,3.926 12.382,2.949 13.134,2.554 13.773,2.059 13.636,1.124 13.503,0.212 12.655,0.182 11.97,0.042 11.189,-0.118 10.397,-0.264 9.604,-0.312 7.946,-0.411 7.158,0.339 7.433,1.984 7.773,4.021 8.132,6.061 9.005,7.987 9.939,10.049 9.095,11.353 6.829,11.623 5.945,11.728 5.076,11.626 4.227,11.361 2.358,10.776 1.977,10.133 2.418,8.163 2.801,6.45 3.211,4.743 3.649,3.044 4.14,1.142 3.864,0.654 1.896,0.245 1.274,0.116 0.633,0.079 0,0"
             style="fill:#000000;fill-opacity:1;fill-rule:nonzero;stroke:none"
             id="path59964" />
        </g>
        <g
           id="g59966"
           transform="translate(56.8042,112.6089)">
          <path
             d="m 0,0 c 0.269,-0.044 0.434,-0.199 0.349,-0.467 -0.034,-0.107 -0.23,-0.23 -0.351,-0.229 -0.266,0.002 -0.435,0.183 -0.349,0.454 C -0.315,-0.135 -0.121,-0.079 0,0"
             style="fill:#000000;fill-opacity:1;fill-rule:nonzero;stroke:none"
             id="path59968" />
        </g>
        <g
           id="g59970"
           transform="translate(78.9932,36.9629)">
          <path
             d="M 0,0 C -0.035,0.263 -0.178,0.451 -0.445,0.411 -0.79,0.359 -0.971,0.103 -0.959,-0.24 -0.951,-0.498 -0.779,-0.688 -0.514,-0.652 -0.164,-0.604 -0.013,-0.343 0,0 m 4.623,56.5 c 1.428,0.682 2.667,1.479 3.629,2.628 0.477,0.569 0.39,1.453 -0.199,1.905 C 7.294,61.614 6.593,61.676 6.036,60.788 5.233,59.508 4.784,58.095 4.623,56.5 M 1.126,7.725 C 1.065,8.265 0.855,8.854 0.111,8.587 -1.411,8.039 -2.667,7.052 -3.753,5.865 c -0.218,-0.236 -0.201,-0.6 -0.022,-0.9 0.232,-0.389 0.633,-0.598 1.012,-0.403 1.199,0.615 2.377,1.275 3.525,1.982 0.341,0.21 0.339,0.697 0.364,1.181 m 13.999,47.756 c -0.216,0.694 -0.748,0.968 -1.455,0.87 C 12.847,56.234 12.241,55.7 11.632,55.18 9.398,53.269 7.156,51.367 4.92,49.458 4.5,49.1 4.022,48.788 3.806,48.242 3.653,47.854 3.62,47.453 3.875,47.108 c 0.312,-0.42 0.707,-0.239 1.062,-0.049 0.28,0.149 0.562,0.312 0.8,0.518 2.771,2.39 5.614,4.687 8.66,6.723 0.398,0.265 0.765,0.584 0.728,1.181 M 5.771,22.489 c -3.448,-1.521 -6.604,-3.484 -9.563,-5.772 -1.041,-0.808 -1.215,-2.009 -1.404,-3.197 -0.101,-0.635 -0.251,-1.309 0.393,-1.745 0.653,-0.438 1.221,-0.034 1.752,0.323 1.571,1.05 3.079,2.208 4.718,3.137 0.916,0.521 1.631,1.336 1.995,2.326 0.604,1.637 1.17,3.305 2.109,4.928 M 24.879,42.526 C 23.663,42.248 22.725,41.505 21.745,40.875 20.134,39.838 18.593,38.688 16.947,37.712 13.924,35.92 10.808,34.283 7.806,32.461 5.487,31.053 3.284,29.451 1.331,27.548 0.986,27.211 0.356,26.867 0.908,26.096 c 0.358,0.131 0.726,0.219 1.054,0.383 2.152,1.08 4.202,2.348 6.345,3.445 4.408,2.255 8.698,4.765 13.183,6.86 3.109,1.453 3.533,1.863 3.389,5.742 M 4.083,38.023 c 0.021,-1.637 0.276,-1.723 1.66,-1.196 0.416,0.158 1.072,0.475 1.461,0.693 2.642,1.486 5.306,2.938 7.892,4.516 2.311,1.41 4.53,2.973 6.781,4.48 0.665,0.445 1.387,0.904 1.164,1.882 -0.422,1.852 -3.134,3.048 -4.706,2.063 C 13.733,47.577 9.568,44.106 5.352,40.707 4.404,39.941 4.035,38.938 4.083,38.023 m 25.413,31.418 c -1.574,0.321 -3.111,0.369 -4.59,0.004 -4.34,-1.068 -8.665,-2.205 -12.878,-3.72 -0.298,-0.108 -0.587,-0.265 -0.847,-0.445 -0.572,-0.397 -0.679,-0.926 -0.154,-1.4 0.65,-0.587 1.332,-1.164 2.081,-1.609 2.86,-1.702 5.382,-3.774 7.613,-6.381 1.33,-1.555 2.91,-2.865 4.568,-4.061 4.065,-2.935 5.779,-6.562 4.852,-11.278 -0.262,-1.331 -0.301,-2.707 -0.592,-4.03 -1.02,-4.644 -3.077,-8.564 -7.778,-10.472 -2.368,-0.96 -4.766,-1.844 -7.154,-2.75 -2.41,-0.914 -4.384,-2.462 -5.545,-4.71 C 7.528,15.6 6.53,12.355 6.448,8.883 6.355,4.94 5.954,1.025 5.29,-2.859 c -0.232,-1.359 0.095,-2.3 1.163,-2.991 3.82,-2.468 7.363,-5.324 11.054,-7.97 0.398,-0.286 0.855,-0.49 1.337,-0.579 5.319,-0.998 10.319,-0.39 13.955,4.017 3.455,4.19 6.758,8.496 10.466,12.48 1.634,1.756 3.248,3.508 5.062,5.087 2.53,2.199 5.04,4.425 7.467,6.738 1.833,1.746 2.654,3.971 2.379,6.519 -0.627,5.802 -3.502,10.728 -6.397,15.575 -1.418,2.373 -3.473,4.368 -5.258,6.518 -2.666,3.211 -3.338,6.812 -2.169,10.788 0.203,0.689 0.513,1.392 0.178,2.1 -1.01,2.138 -0.798,4.389 -0.502,6.594 0.204,1.524 -0.236,2.637 -1.288,3.646 -1.237,1.189 -2.639,2.034 -4.326,2.44 -2.956,0.71 -5.894,1.502 -8.915,1.338 m -40.747,-79.693 c 0.82,0.045 1.785,0.048 2.736,0.16 2.112,0.251 4.1,0.842 5.704,2.354 1.03,0.968 1.067,2.603 0.124,3.659 -1.652,1.849 -3.254,3.75 -4.31,6.016 -0.544,1.168 -1.067,2.31 -2.051,3.197 -0.626,0.563 -0.97,1.324 -0.725,2.167 0.531,1.827 0.28,3.629 0.06,5.466 -0.216,1.814 0.372,3.649 0.009,5.487 -0.053,0.269 0.118,0.644 0.297,0.891 1.483,2.037 2.118,4.471 3.129,6.722 1.473,3.281 3.199,6.45 4.431,9.842 0.419,1.15 0.785,2.27 0.167,3.467 -0.588,1.138 -0.332,2.188 0.48,3.102 0.763,0.859 0.877,1.814 0.7,2.906 -0.334,2.048 -0.525,4.125 -0.901,6.167 -0.419,2.276 -0.13,4.449 0.591,6.61 0.509,1.529 1.292,2.923 2.014,4.35 1.203,2.377 1.112,2.717 -1.19,3.91 -1.989,1.029 -4.019,1.977 -6.016,2.99 -4.855,2.466 -9.764,4.81 -15.072,6.151 -6.447,1.63 -12.906,2.387 -19.311,-0.201 -1.556,-0.628 -3.133,-1.246 -4.597,-2.056 -3.266,-1.799 -6.155,-4.093 -7.954,-7.438 -2.092,-3.889 -2.658,-8.186 -2.805,-12.521 -0.059,-1.73 0.713,-3.275 2.149,-4.457 1.016,-0.834 1.88,-1.835 2.743,-2.826 1.425,-1.636 3.014,-3.175 3.795,-5.27 1.183,-3.175 0.713,-6.327 -0.435,-9.367 -1.327,-3.515 -2.913,-6.932 -3.922,-10.565 -1.193,-4.297 -0.49,-8.553 0.189,-12.836 0.758,-4.784 3.809,-8.886 8.158,-11.02 2.816,-1.384 5.67,-2.66 8.59,-3.811 3.217,-1.265 6.437,-2.402 9.976,-2.23 0.869,0.042 1.748,-0.154 2.624,-0.213 3.498,-0.241 6.933,-1.285 10.623,-0.803 m -21.536,91.739 c 5.378,-0.282 10.662,-0.88 15.475,-3.67 1.714,-0.993 3.66,-1.589 5.509,-2.347 5.026,-2.062 9.904,-4.447 14.745,-6.898 1.436,-0.728 2.431,-0.579 3.816,0.249 3.088,1.846 6.414,3.304 9.961,3.908 6.835,1.163 13.518,0.7 20.157,-0.594 2.968,-0.579 5.653,-1.765 8.18,-3.357 2.808,-1.769 4.166,-5.06 3.867,-8.366 -0.08,-0.892 -0.065,-1.771 0.091,-2.655 0.239,-1.361 0.326,-2.749 0.056,-4.104 -0.877,-4.413 -0.271,-8.281 2.841,-11.769 2.16,-2.422 3.969,-5.207 5.598,-8.066 1.305,-2.291 2.706,-4.525 4.019,-6.811 1.827,-3.184 2.455,-6.582 1.606,-10.229 C 62.982,16.129 62.655,15.531 62.236,15.012 59.816,11.998 57.425,8.964 54.399,6.507 52.92,5.306 51.532,3.987 50.356,2.489 48.617,0.274 46.65,-1.738 44.814,-3.861 c -2.499,-2.89 -4.71,-6.031 -7.02,-9.082 -1.443,-1.91 -2.75,-3.857 -5.117,-4.888 -4.1,-1.788 -8.315,-2.004 -12.626,-1.356 -2.096,0.316 -3.812,1.487 -5.344,2.901 -2.113,1.949 -4.367,3.749 -6.834,5.223 -3.567,2.128 -3.519,2.236 -5.871,0.397 -3.766,-2.945 -8.476,-4.496 -13.248,-4.207 -4.223,0.255 -8.412,0.958 -12.662,0.873 -2.183,-0.044 -4.34,0.379 -6.333,1.187 -4.59,1.861 -9.275,3.496 -13.712,5.732 -6.147,3.099 -9.844,7.976 -10.994,14.773 -0.36,2.126 -0.801,4.237 -1.134,6.371 -0.665,4.267 0.304,8.267 1.622,12.233 0.932,2.806 1.988,5.569 2.96,8.363 0.262,0.752 0.468,1.532 0.61,2.318 0.318,1.763 -0.09,3.325 -1.412,4.606 -1.033,1.002 -2.04,2.032 -3.054,3.054 -2.722,2.741 -4.096,5.974 -4.06,9.908 0.036,3.891 0.666,7.636 1.924,11.288 1.174,3.409 3.253,6.141 6.034,8.473 4.621,3.874 9.978,5.948 15.8,7.048 0.391,0.076 0.793,0.113 1.191,0.127 0.559,0.021 1.119,0.006 1.679,0.006"
             style="fill:#000000;fill-opacity:1;fill-rule:nonzero;stroke:none"
             id="path59972" />
        </g>
      </g>
    </g>
    <text
       xml:space="preserve"
       transform="matrix(1,0,0,-1,63,116)"
       style="font-variant:normal;font-weight:bold;font-stretch:normal;font-size:18px;font-family:'Tekton Pro';-inkscape-font-specification:TektonPro-Bold;writing-mode:lr-tb;fill:#000000;fill-opacity:1;fill-rule:nonzero;stroke:none"
       id="text59976"><tspan
         x="0 10.062 16.038 27.288 31.194 42.462002"
         y="0"
         id="tspan59974">P(A,B)</tspan></text>
  </g>
</svg>
