<?xml version="1.0" encoding="UTF-8" standalone="no"?>
<!-- Created with Inkscape (http://www.inkscape.org/) -->

<svg
   version="1.1"
   id="svg60044"
   width="724.39307"
   height="471.08813"
   viewBox="0 0 724.39307 471.08813"
   xmlns="http://www.w3.org/2000/svg"
   xmlns:svg="http://www.w3.org/2000/svg">
  <defs
     id="defs60048">
    <clipPath
       clipPathUnits="userSpaceOnUse"
       id="clipPath60060">
      <path
         d="M 0,1.206994e-5 H 959.76 V 540.00001 H 0 Z"
         id="path60058" />
    </clipPath>
  </defs>
  <g
     id="g60050"
     transform="matrix(1.3333333,0,0,-1.3333333,-102.08268,669.4748)">
    <g
       id="g60052" />
    <g
       id="g60054">
      <g
         id="g60056"
         clip-path="url(#clipPath60060)">
        <path
           d="M 0,540 H 959.76 V 1.206994e-5 H 0 Z"
           style="fill:#ffffff;fill-opacity:1;fill-rule:nonzero;stroke:none"
           id="path60062" />
      </g>
    </g>
    <g
       id="g60064">
      <path
         d="M 0,540 H 960 V 1.40816e-5 H 0 Z"
         style="fill:#ffffff;fill-opacity:1;fill-rule:nonzero;stroke:none"
         id="path60066" />
      <g
         id="g60068"
         transform="matrix(7.874016e-5,0,0,-7.874016e-5,279.964,469.7922)">
        <path
           d="M 0,0 H 1275644 V 541867 H 0 Z"
           style="fill:none;stroke:#000000;stroke-width:25400;stroke-linecap:butt;stroke-linejoin:round;stroke-miterlimit:10;stroke-dasharray:none;stroke-opacity:1"
           id="path60070" />
      </g>
      <g
         id="g60072"
         transform="matrix(0.24,0,0,0.24,303.5612,-97.67999)">
        <text
           xml:space="preserve"
           transform="matrix(1,0,0,-1,0,2250)"
           style="font-style:italic;font-variant:normal;font-size:75px;font-family:Georgia;-inkscape-font-specification:Georgia-Italic;writing-mode:lr-tb;fill:#000000;fill-opacity:1;fill-rule:nonzero;stroke:none"
           id="text60076"><tspan
             x="0 45.8325 73.957497 127.08 147.39 193.7475"
             y="0"
             id="tspan60074">P(X,Y)</tspan></text>
      </g>
      <path
         d="M 156.4847,396.042 H 256.9291 V 353.3753 H 156.4847 Z"
         style="fill:#ffe699;fill-opacity:1;fill-rule:nonzero;stroke:none"
         id="path60078" />
      <g
         id="g60080"
         transform="matrix(7.874016e-5,0,0,-7.874016e-5,156.4847,396.042)">
        <path
           d="M 0,0 H 1275644 V 541867 H 0 Z"
           style="fill:none;stroke:#000000;stroke-width:25400;stroke-linecap:butt;stroke-linejoin:round;stroke-miterlimit:10;stroke-dasharray:none;stroke-opacity:1"
           id="path60082" />
      </g>
      <g
         id="g60084"
         transform="matrix(0.24,0,0,0.24,188.0819,-171.6)">
        <text
           xml:space="preserve"
           transform="matrix(1,0,0,-1,0,2250)"
           style="font-style:italic;font-variant:normal;font-size:75px;font-family:Georgia;-inkscape-font-specification:Georgia-Italic;writing-mode:lr-tb;fill:#000000;fill-opacity:1;fill-rule:nonzero;stroke:none"
           id="text60088"><tspan
             x="0 45.8325 73.957497 127.08"
             y="0"
             id="tspan60086">P(X)</tspan></text>
      </g>
      <path
         d="M 405.7502,396.167 H 506.1946 V 353.5003 H 405.7502 Z"
         style="fill:#ffe699;fill-opacity:1;fill-rule:nonzero;stroke:none"
         id="path60090" />
      <g
         id="g60092"
         transform="matrix(7.874016e-5,0,0,-7.874016e-5,405.7502,396.167)">
        <path
           d="M 0,0 H 1275644 V 541867 H 0 Z"
           style="fill:none;stroke:#000000;stroke-width:25400;stroke-linecap:butt;stroke-linejoin:round;stroke-miterlimit:10;stroke-dasharray:none;stroke-opacity:1"
           id="path60094" />
      </g>
      <g
         id="g60096"
         transform="matrix(0.24,0,0,0.24,428.4099,-171.36)">
        <text
           xml:space="preserve"
           transform="matrix(1,0,0,-1,0,2250)"
           style="font-style:italic;font-variant:normal;font-size:75px;font-family:Georgia;-inkscape-font-specification:Georgia-Italic;writing-mode:lr-tb;fill:#000000;fill-opacity:1;fill-rule:nonzero;stroke:none"
           id="text60100"><tspan
             x="0 45.8325 73.957497 120.315 148.44 201.5625"
             y="0"
             id="tspan60098">P(Y|X)</tspan></text>
      </g>
      <path
         d="M 280.9641,449.4588 H 206.707 c -0.5523,0 -1,-0.4477 -1,-1 V 401.042 h 2 v 47.4168 l -1,-1 h 74.2571 z m -77.2571,-47.4168 3,-6 3,6 z"
         style="fill:#000000;fill-opacity:1;fill-rule:nonzero;stroke:none"
         id="path60102" />
      <path
         d="m 379.4084,449.4588 h 77.564 V 401.167 h -2 v 47.2918 l 1,-1 h -76.564 z m 79.564,-47.2918 -3,-6 -3,6 z"
         style="fill:#000000;fill-opacity:1;fill-rule:nonzero;stroke:none"
         id="path60104" />
      <path
         d="M 255.7757,295.4431 H 404.5968 V 252.7764 H 255.7757 Z"
         style="fill:#ffe699;fill-opacity:1;fill-rule:nonzero;stroke:none"
         id="path60106" />
      <g
         id="g60108"
         transform="matrix(7.874016e-5,0,0,-7.874016e-5,255.7757,295.4431)">
        <path
           d="M 0,0 H 1890028 V 541867 H 0 Z"
           style="fill:none;stroke:#000000;stroke-width:25400;stroke-linecap:butt;stroke-linejoin:round;stroke-miterlimit:10;stroke-dasharray:none;stroke-opacity:1"
           id="path60110" />
      </g>
      <g
         id="g60112"
         transform="matrix(0.24,0,0,0.24,272.4487,-272.16)">
        <text
           xml:space="preserve"
           transform="matrix(1,0,0,-1,0,2250)"
           style="font-variant:normal;font-weight:normal;font-size:75px;font-family:CambriaMath;-inkscape-font-specification:CambriaMath;writing-mode:lr-tb;fill:#000000;fill-opacity:1;fill-rule:nonzero;stroke:none"
           id="text60116"><tspan
             x="0"
             y="0"
             id="tspan60114">퐴</tspan></text>
      </g>
      <g
         id="g60118"
         transform="matrix(0.24,0,0,0.24,283.9987,-272.16)">
        <text
           xml:space="preserve"
           transform="matrix(1,0,0,-1,0,2250)"
           style="font-variant:normal;font-weight:normal;font-size:75px;font-family:CambriaMath;-inkscape-font-specification:CambriaMath;writing-mode:lr-tb;fill:#000000;fill-opacity:1;fill-rule:nonzero;stroke:none"
           id="text60122"><tspan
             x="0"
             y="0"
             id="tspan60120">:</tspan></text>
      </g>
      <g
         id="g60124"
         transform="matrix(0.24,0,0,0.24,291.7487,-272.16)">
        <text
           xml:space="preserve"
           transform="matrix(1,0,0,-1,0,2250)"
           style="font-variant:normal;font-weight:normal;font-size:75px;font-family:CambriaMath;-inkscape-font-specification:CambriaMath;writing-mode:lr-tb;fill:#000000;fill-opacity:1;fill-rule:nonzero;stroke:none"
           id="text60128"><tspan
             x="0"
             y="0"
             id="tspan60126">푋</tspan></text>
      </g>
      <g
         id="g60130"
         transform="matrix(0.24,0,0,0.24,304.2337,-265.44)">
        <text
           xml:space="preserve"
           transform="matrix(1,0,0,-1,0,2250)"
           style="font-variant:normal;font-weight:normal;font-size:54.1667px;font-family:CambriaMath;-inkscape-font-specification:CambriaMath;writing-mode:lr-tb;fill:#000000;fill-opacity:1;fill-rule:nonzero;stroke:none"
           id="text60134"><tspan
             x="0"
             y="0"
             id="tspan60132">!</tspan></text>
      </g>
      <g
         id="g60136"
         transform="matrix(0.24,0,0,0.24,313.7037,-272.16)">
        <text
           xml:space="preserve"
           transform="matrix(1,0,0,-1,0,2250)"
           style="font-variant:normal;font-weight:normal;font-size:75px;font-family:CambriaMath;-inkscape-font-specification:CambriaMath;writing-mode:lr-tb;fill:#000000;fill-opacity:1;fill-rule:nonzero;stroke:none"
           id="text60140"><tspan
             x="0"
             y="0"
             id="tspan60138">×</tspan></text>
      </g>
      <g
         id="g60142"
         transform="matrix(0.24,0,0,0.24,326.5787,-272.16)">
        <text
           xml:space="preserve"
           transform="matrix(1,0,0,-1,0,2250)"
           style="font-variant:normal;font-weight:normal;font-size:75px;font-family:CambriaMath;-inkscape-font-specification:CambriaMath;writing-mode:lr-tb;fill:#000000;fill-opacity:1;fill-rule:nonzero;stroke:none"
           id="text60146"><tspan
             x="0"
             y="0"
             id="tspan60144">푌</tspan></text>
      </g>
      <g
         id="g60148"
         transform="matrix(0.24,0,0,0.24,338.2037,-265.44)">
        <text
           xml:space="preserve"
           transform="matrix(1,0,0,-1,0,2250)"
           style="font-variant:normal;font-weight:normal;font-size:54.1667px;font-family:CambriaMath;-inkscape-font-specification:CambriaMath;writing-mode:lr-tb;fill:#000000;fill-opacity:1;fill-rule:nonzero;stroke:none"
           id="text60152"><tspan
             x="0"
             y="0"
             id="tspan60150">!</tspan></text>
      </g>
      <g
         id="g60154"
         transform="matrix(0.24,0,0,0.24,347.6737,-272.16)">
        <text
           xml:space="preserve"
           transform="matrix(1,0,0,-1,0,2250)"
           style="font-variant:normal;font-weight:normal;font-size:75px;font-family:CambriaMath;-inkscape-font-specification:CambriaMath;writing-mode:lr-tb;fill:#000000;fill-opacity:1;fill-rule:nonzero;stroke:none"
           id="text60158"><tspan
             x="0"
             y="0"
             id="tspan60156">→</tspan></text>
      </g>
      <g
         id="g60160"
         transform="matrix(0.24,0,0,0.24,367.7987,-272.16)">
        <text
           xml:space="preserve"
           transform="matrix(1,0,0,-1,0,2250)"
           style="font-variant:normal;font-weight:normal;font-size:75px;font-family:CambriaMath;-inkscape-font-specification:CambriaMath;writing-mode:lr-tb;fill:#000000;fill-opacity:1;fill-rule:nonzero;stroke:none"
           id="text60164"><tspan
             x="0"
             y="0"
             id="tspan60162">Θ</tspan></text>
      </g>
      <g
         id="g60166"
         transform="matrix(7.874016e-5,0,0,-7.874016e-5,255.7757,214.8336)">
        <path
           d="M 0,0 H 1890028 V 541867 H 0 Z"
           style="fill:none;stroke:#000000;stroke-width:25400;stroke-linecap:butt;stroke-linejoin:round;stroke-miterlimit:10;stroke-dasharray:none;stroke-opacity:1"
           id="path60168" />
      </g>
      <g
         id="g60170"
         transform="matrix(0.24,0,0,0.24,301.5587,-352.8)">
        <text
           xml:space="preserve"
           transform="matrix(1,0,0,-1,0,2250)"
           style="font-variant:normal;font-weight:normal;font-size:75px;font-family:CambriaMath;-inkscape-font-specification:CambriaMath;writing-mode:lr-tb;fill:#000000;fill-opacity:1;fill-rule:nonzero;stroke:none"
           id="text60174"><tspan
             x="0"
             y="0"
             id="tspan60172">ℎ</tspan></text>
      </g>
      <g
         id="g60176"
         transform="matrix(0.24,0,0,0.24,311.8687,-352.8)">
        <text
           xml:space="preserve"
           transform="matrix(1,0,0,-1,0,2250)"
           style="font-variant:normal;font-weight:normal;font-size:75px;font-family:CambriaMath;-inkscape-font-specification:CambriaMath;writing-mode:lr-tb;fill:#000000;fill-opacity:1;fill-rule:nonzero;stroke:none"
           id="text60180"><tspan
             x="0"
             y="0"
             id="tspan60178">(</tspan></text>
      </g>
      <g
         id="g60182"
         transform="matrix(0.24,0,0,0.24,319.3687,-352.8)">
        <text
           xml:space="preserve"
           transform="matrix(1,0,0,-1,0,2250)"
           style="font-variant:normal;font-weight:normal;font-size:75px;font-family:CambriaMath;-inkscape-font-specification:CambriaMath;writing-mode:lr-tb;fill:#000000;fill-opacity:1;fill-rule:nonzero;stroke:none"
           id="text60186"><tspan
             x="0"
             y="0"
             id="tspan60184">푥</tspan></text>
      </g>
      <g
         id="g60188"
         transform="matrix(0.24,0,0,0.24,329.5387,-352.8)">
        <text
           xml:space="preserve"
           transform="matrix(1,0,0,-1,0,2250)"
           style="font-variant:normal;font-weight:normal;font-size:75px;font-family:CambriaMath;-inkscape-font-specification:CambriaMath;writing-mode:lr-tb;fill:#000000;fill-opacity:1;fill-rule:nonzero;stroke:none"
           id="text60192"><tspan
             x="0"
             y="0"
             id="tspan60190">,</tspan></text>
      </g>
      <g
         id="g60194"
         transform="matrix(0.24,0,0,0.24,336.2887,-352.8)">
        <text
           xml:space="preserve"
           transform="matrix(1,0,0,-1,0,2250)"
           style="font-variant:normal;font-weight:normal;font-size:75px;font-family:CambriaMath;-inkscape-font-specification:CambriaMath;writing-mode:lr-tb;fill:#000000;fill-opacity:1;fill-rule:nonzero;stroke:none"
           id="text60198"><tspan
             x="0"
             y="0"
             id="tspan60196">휃</tspan></text>
      </g>
      <g
         id="g60200"
         transform="matrix(0.24,0,0,0.24,346.9387,-352.8)">
        <text
           xml:space="preserve"
           transform="matrix(1,0,0,-1,0,2250)"
           style="font-variant:normal;font-weight:normal;font-size:75px;font-family:CambriaMath;-inkscape-font-specification:CambriaMath;writing-mode:lr-tb;fill:#000000;fill-opacity:1;fill-rule:nonzero;stroke:none"
           id="text60204"><tspan
             x="0"
             y="0"
             id="tspan60202">)</tspan></text>
      </g>
      <g
         id="g60206"
         transform="matrix(7.874016e-5,0,0,-7.874016e-5,87.75,327.375)">
        <path
           d="M 0,0 6490707,1"
           style="fill:none;stroke:#000000;stroke-width:12700;stroke-linecap:butt;stroke-linejoin:miter;stroke-miterlimit:8;stroke-dasharray:101600, 38100;stroke-dashoffset:0;stroke-opacity:1"
           id="path60208" />
      </g>
      <g
         id="g60210"
         transform="matrix(7.874016e-5,0,0,-7.874016e-5,87.75,242.25)">
        <path
           d="M 0,0 6490707,1"
           style="fill:none;stroke:#000000;stroke-width:12700;stroke-linecap:butt;stroke-linejoin:miter;stroke-miterlimit:8;stroke-dasharray:101600, 38100;stroke-dashoffset:0;stroke-opacity:1"
           id="path60212" />
      </g>
      <g
         id="g60214"
         transform="matrix(0.24,0,0,0.24,310.3624,-60.47999)">
        <text
           xml:space="preserve"
           transform="matrix(1,0,0,-1,0,2250)"
           style="font-variant:normal;font-weight:normal;font-size:58.3333px;font-family:Kalam;-inkscape-font-specification:Kalam-Regular;writing-mode:lr-tb;fill:#000000;fill-opacity:1;fill-rule:nonzero;stroke:none"
           id="text60218"><tspan
             x="0 39.584999 67.211662 89.588326 117.68166 136.96666"
             y="0"
             id="tspan60216">Nature</tspan></text>
      </g>
      <g
         id="g60220"
         transform="matrix(0.24,0,0,0.24,87.04866,-132.48)">
        <text
           xml:space="preserve"
           transform="matrix(1,0,0,-1,0,2250)"
           style="font-variant:normal;font-weight:normal;font-size:58.3333px;font-family:Kalam;-inkscape-font-specification:Kalam-Regular;writing-mode:lr-tb;fill:#000000;fill-opacity:1;fill-rule:nonzero;stroke:none"
           id="text60224"><tspan
             x="0 31.768332 51.053329 77.629997 108.34833 122.38332 148.435 194.78665 218.21332 253.59831 279.64999 310.89331 336.94498 356.22998 383.85666 406.23331 432.80997"
             y="0"
             id="tspan60222">Problem Generator</tspan></text>
      </g>
      <g
         id="g60226"
         transform="matrix(0.24,0,0,0.24,462.7456,-132.48)">
        <text
           xml:space="preserve"
           transform="matrix(1,0,0,-1,0,2250)"
           style="font-variant:normal;font-weight:normal;font-size:58.3333px;font-family:Kalam;-inkscape-font-specification:Kalam-Regular;writing-mode:lr-tb;fill:#000000;fill-opacity:1;fill-rule:nonzero;stroke:none"
           id="text60230"><tspan
             x="0 31.249165 58.881664 83.88916 111.52166 134.95416 165.67833 193.7775 221.87665 247.93416 267.22498 291.70749 305.74832 330.75583 357.33832"
             y="0"
             id="tspan60228">Task Supervisor</tspan></text>
      </g>
      <g
         id="g60232"
         transform="matrix(0.24,0,0,0.24,273.2535,-231.6)">
        <text
           xml:space="preserve"
           transform="matrix(1,0,0,-1,0,2250)"
           style="font-variant:normal;font-weight:normal;font-size:58.3333px;font-family:Kalam;-inkscape-font-specification:Kalam-Regular;writing-mode:lr-tb;fill:#000000;fill-opacity:1;fill-rule:nonzero;stroke:none"
           id="text60236"><tspan
             x="0 31.768332 57.819996 85.446663 104.73166 135.97499 150.06833 181.31166 208.93832 232.36499 267.74997 281.78497 309.41165 335.98831 355.27332 369.36664 391.74332 422.98663"
             y="0"
             id="tspan60234">Learning Algorithm</tspan></text>
      </g>
      <g
         id="g60238"
         transform="matrix(0.24,0,0,0.24,297.9927,-386.64)">
        <text
           xml:space="preserve"
           transform="matrix(1,0,0,-1,0,2250)"
           style="font-variant:normal;font-weight:normal;font-size:58.3333px;font-family:Kalam;-inkscape-font-specification:Kalam-Regular;writing-mode:lr-tb;fill:#000000;fill-opacity:1;fill-rule:nonzero;stroke:none"
           id="text60242"><tspan
             x="0 39.059998 66.686661 94.838326 121.41499 143.79166 175.03499 201.08665 226.08832 240.18166"
             y="0"
             id="tspan60240">Hypothesis</tspan></text>
      </g>
      <path
         d="m 256.93,384.7865 143.8211,0.1209 -0.002,2 -143.8212,-0.1209 0.002,-2 z m 142.8228,-1.88 5.9974,3.0051 -6.0025,2.9949 0.005,-6 z"
         style="fill:#000000;fill-opacity:1;fill-rule:nonzero;stroke:none"
         id="path60244" />
      <path
         d="m 205.7069,354.3754 v -80.2656 c 0,-0.5523 0.4477,-1 1,-1 h 44.0688 v 2 h -44.0688 l 1,-1 v 80.2656 z m 44.0688,-83.2656 6,3 -6,3 z"
         style="fill:#000000;fill-opacity:1;fill-rule:nonzero;stroke:none"
         id="path60246" />
      <path
         d="m 456.9725,354.5003 v -80.3906 c 0,-0.5523 -0.4477,-1 -1,-1 h -46.3757 v 2 h 46.3757 l -1,-1 v 80.3906 z m -46.3757,-83.3906 -6,3 6,3 z"
         style="fill:#000000;fill-opacity:1;fill-rule:nonzero;stroke:none"
         id="path60248" />
      <path
         d="m 506.1946,375.8336 h 33.2736 v -2 h -33.2736 z m 32.2736,2 6,-3.0001 -6,-2.9999 z"
         style="fill:#000000;fill-opacity:1;fill-rule:nonzero;stroke:none"
         id="path60250" />
      <path
         d="m 404.5967,194.5002 134.8715,-1e-4 v -2 l -134.8715,1e-4 z m 133.8715,1.9999 6,-3 -6,-3 z"
         style="fill:#000000;fill-opacity:1;fill-rule:nonzero;stroke:none"
         id="path60252" />
      <path
         d="m 331.1862,252.7764 1e-4,-32.9429 h -2 l -1e-4,32.9429 z m 2.0001,-31.9429 -3,-6 -3,6 z"
         style="fill:#000000;fill-opacity:1;fill-rule:nonzero;stroke:none"
         id="path60254" />
      <path
         d="M 180.019,352.472 V 193.5002 c 0,-0.5523 0.4477,-1 1,-1 h 69.7566 v 2 H 181.019 l 1,-1 V 352.472 Z m 69.7566,-161.9718 6,3 -6,3 z"
         style="fill:#000000;fill-opacity:1;fill-rule:nonzero;stroke:none"
         id="path60256" />
      <g
         id="g60258"
         transform="matrix(0.24,0,0,0.24,319.1673,-145.44)">
        <text
           xml:space="preserve"
           transform="matrix(1,0,0,-1,0,2250)"
           style="font-variant:normal;font-weight:normal;font-size:75px;font-family:CambriaMath;-inkscape-font-specification:CambriaMath;writing-mode:lr-tb;fill:#000000;fill-opacity:1;fill-rule:nonzero;stroke:none"
           id="text60262"><tspan
             x="0"
             y="0"
             id="tspan60260">푥</tspan></text>
      </g>
      <g
         id="g60264"
         transform="matrix(0.24,0,0,0.24,328.6173,-150)">
        <text
           xml:space="preserve"
           transform="matrix(1,0,0,-1,0,2250)"
           style="font-variant:normal;font-weight:normal;font-size:54.1667px;font-family:CambriaMath;-inkscape-font-specification:CambriaMath;writing-mode:lr-tb;fill:#000000;fill-opacity:1;fill-rule:nonzero;stroke:none"
           id="text60268"><tspan
             x="0"
             y="0"
             id="tspan60266">&quot;</tspan></text>
      </g>
      <g
         id="g60270"
         transform="matrix(0.24,0,0,0.24,329.7773,-138.24)">
        <text
           xml:space="preserve"
           transform="matrix(1,0,0,-1,0,2250)"
           style="font-variant:normal;font-weight:normal;font-size:54.1667px;font-family:CambriaMath;-inkscape-font-specification:CambriaMath;writing-mode:lr-tb;fill:#000000;fill-opacity:1;fill-rule:nonzero;stroke:none"
           id="text60274"><tspan
             x="0"
             y="0"
             id="tspan60272">!</tspan></text>
      </g>
      <g
         id="g60276"
         transform="matrix(0.24,0,0,0.24,321.6223,-193.68)">
        <text
           xml:space="preserve"
           transform="matrix(1,0,0,-1,0,2250)"
           style="font-variant:normal;font-weight:normal;font-size:75px;font-family:CambriaMath;-inkscape-font-specification:CambriaMath;writing-mode:lr-tb;fill:#000000;fill-opacity:1;fill-rule:nonzero;stroke:none"
           id="text60280"><tspan
             x="0"
             y="0"
             id="tspan60278">푥</tspan></text>
      </g>
      <g
         id="g60282"
         transform="matrix(0.24,0,0,0.24,329.4723,-197.28)">
        <text
           xml:space="preserve"
           transform="matrix(1,0,0,-1,0,2250)"
           style="font-variant:normal;font-weight:normal;font-size:54.1667px;font-family:CambriaMath;-inkscape-font-specification:CambriaMath;writing-mode:lr-tb;fill:#000000;fill-opacity:1;fill-rule:nonzero;stroke:none"
           id="text60286"><tspan
             x="0"
             y="0"
             id="tspan60284">#</tspan></text>
      </g>
      <path
         d="m 255.7765,366.0211 143.8212,0.1208 -0.002,2 -143.8212,-0.1208 z m 142.8228,-1.88 5.9975,3.005 -6.0026,2.995 0.005,-6 z"
         style="fill:#000000;fill-opacity:1;fill-rule:nonzero;stroke:none"
         id="path60288" />
      <g
         id="g60290"
         transform="matrix(0.24,0,0,0.24,523.834,-372.24)">
        <text
           xml:space="preserve"
           transform="matrix(1,0,0,-1,0,2250)"
           style="font-variant:normal;font-weight:normal;font-size:75px;font-family:CambriaMath;-inkscape-font-specification:CambriaMath;writing-mode:lr-tb;fill:#000000;fill-opacity:1;fill-rule:nonzero;stroke:none"
           id="text60294"><tspan
             x="0"
             y="0"
             id="tspan60292">.</tspan></text>
      </g>
      <g
         id="g60296"
         transform="matrix(0.24,0,0,0.24,521.4741,-372.24)">
        <text
           xml:space="preserve"
           transform="matrix(1,0,0,-1,0,2250)"
           style="font-variant:normal;font-weight:normal;font-size:75px;font-family:CambriaMath;-inkscape-font-specification:CambriaMath;writing-mode:lr-tb;fill:#000000;fill-opacity:1;fill-rule:nonzero;stroke:none"
           id="text60300"><tspan
             x="0"
             y="0"
             id="tspan60298">푦</tspan></text>
      </g>
      <g
         id="g60302"
         transform="matrix(0.24,0,0,0.24,530.0191,-375.84)">
        <text
           xml:space="preserve"
           transform="matrix(1,0,0,-1,0,2250)"
           style="font-variant:normal;font-weight:normal;font-size:54.1667px;font-family:CambriaMath;-inkscape-font-specification:CambriaMath;writing-mode:lr-tb;fill:#000000;fill-opacity:1;fill-rule:nonzero;stroke:none"
           id="text60306"><tspan
             x="0"
             y="0"
             id="tspan60304">#</tspan></text>
      </g>
      <g
         id="g60308"
         transform="matrix(0.24,0,0,0.24,521.4741,-184.32)">
        <text
           xml:space="preserve"
           transform="matrix(1,0,0,-1,0,2250)"
           style="font-variant:normal;font-weight:normal;font-size:75px;font-family:CambriaMath;-inkscape-font-specification:CambriaMath;writing-mode:lr-tb;fill:#000000;fill-opacity:1;fill-rule:nonzero;stroke:none"
           id="text60312"><tspan
             x="0"
             y="0"
             id="tspan60310">푦</tspan></text>
      </g>
      <g
         id="g60314"
         transform="matrix(0.24,0,0,0.24,530.0191,-188.16)">
        <text
           xml:space="preserve"
           transform="matrix(1,0,0,-1,0,2250)"
           style="font-variant:normal;font-weight:normal;font-size:54.1667px;font-family:CambriaMath;-inkscape-font-specification:CambriaMath;writing-mode:lr-tb;fill:#000000;fill-opacity:1;fill-rule:nonzero;stroke:none"
           id="text60318"><tspan
             x="0"
             y="0"
             id="tspan60316">#</tspan></text>
      </g>
      <g
         id="g60320"
         transform="matrix(0.24,0,0,0.24,201.9511,-334.8)">
        <text
           xml:space="preserve"
           transform="matrix(1,0,0,-1,0,2250)"
           style="font-variant:normal;font-weight:normal;font-size:75px;font-family:CambriaMath;-inkscape-font-specification:CambriaMath;writing-mode:lr-tb;fill:#000000;fill-opacity:1;fill-rule:nonzero;stroke:none"
           id="text60324"><tspan
             x="0"
             y="0"
             id="tspan60322">푥</tspan></text>
      </g>
      <g
         id="g60326"
         transform="matrix(0.24,0,0,0.24,209.8011,-338.4)">
        <text
           xml:space="preserve"
           transform="matrix(1,0,0,-1,0,2250)"
           style="font-variant:normal;font-weight:normal;font-size:54.1667px;font-family:CambriaMath;-inkscape-font-specification:CambriaMath;writing-mode:lr-tb;fill:#000000;fill-opacity:1;fill-rule:nonzero;stroke:none"
           id="text60330"><tspan
             x="0"
             y="0"
             id="tspan60328">#</tspan></text>
      </g>
      <g
         id="g60332"
         transform="matrix(0.24,0,0,0.24,212.0741,-237.36)">
        <text
           xml:space="preserve"
           transform="matrix(1,0,0,-1,0,2250)"
           style="font-variant:normal;font-weight:normal;font-size:75px;font-family:CambriaMath;-inkscape-font-specification:CambriaMath;writing-mode:lr-tb;fill:#000000;fill-opacity:1;fill-rule:nonzero;stroke:none"
           id="text60336"><tspan
             x="0"
             y="0"
             id="tspan60334">푥</tspan></text>
      </g>
      <g
         id="g60338"
         transform="matrix(0.24,0,0,0.24,221.5241,-241.92)">
        <text
           xml:space="preserve"
           transform="matrix(1,0,0,-1,0,2250)"
           style="font-variant:normal;font-weight:normal;font-size:54.1667px;font-family:CambriaMath;-inkscape-font-specification:CambriaMath;writing-mode:lr-tb;fill:#000000;fill-opacity:1;fill-rule:nonzero;stroke:none"
           id="text60342"><tspan
             x="0"
             y="0"
             id="tspan60340">&quot;</tspan></text>
      </g>
      <g
         id="g60344"
         transform="matrix(0.24,0,0,0.24,222.684,-229.92)">
        <text
           xml:space="preserve"
           transform="matrix(1,0,0,-1,0,2250)"
           style="font-variant:normal;font-weight:normal;font-size:54.1667px;font-family:CambriaMath;-inkscape-font-specification:CambriaMath;writing-mode:lr-tb;fill:#000000;fill-opacity:1;fill-rule:nonzero;stroke:none"
           id="text60348"><tspan
             x="0"
             y="0"
             id="tspan60346">!</tspan></text>
      </g>
      <g
         id="g60350"
         transform="matrix(0.24,0,0,0.24,427.3299,-237.36)">
        <text
           xml:space="preserve"
           transform="matrix(1,0,0,-1,0,2250)"
           style="font-variant:normal;font-weight:normal;font-size:75px;font-family:CambriaMath;-inkscape-font-specification:CambriaMath;writing-mode:lr-tb;fill:#000000;fill-opacity:1;fill-rule:nonzero;stroke:none"
           id="text60354"><tspan
             x="0"
             y="0"
             id="tspan60352">푦</tspan></text>
      </g>
      <g
         id="g60356"
         transform="matrix(0.24,0,0,0.24,436.9099,-241.92)">
        <text
           xml:space="preserve"
           transform="matrix(1,0,0,-1,0,2250)"
           style="font-variant:normal;font-weight:normal;font-size:54.1667px;font-family:CambriaMath;-inkscape-font-specification:CambriaMath;writing-mode:lr-tb;fill:#000000;fill-opacity:1;fill-rule:nonzero;stroke:none"
           id="text60360"><tspan
             x="0"
             y="0"
             id="tspan60358">&quot;</tspan></text>
      </g>
      <g
         id="g60362"
         transform="matrix(0.24,0,0,0.24,438.3349,-229.92)">
        <text
           xml:space="preserve"
           transform="matrix(1,0,0,-1,0,2250)"
           style="font-variant:normal;font-weight:normal;font-size:54.1667px;font-family:CambriaMath;-inkscape-font-specification:CambriaMath;writing-mode:lr-tb;fill:#000000;fill-opacity:1;fill-rule:nonzero;stroke:none"
           id="text60366"><tspan
             x="0"
             y="0"
             id="tspan60364">!</tspan></text>
      </g>
      <g
         id="g60368"
         transform="matrix(0.24,0,0,0.24,472.2122,-234.24)">
        <text
           xml:space="preserve"
           transform="matrix(1,0,0,-1,0,2250)"
           style="font-variant:normal;font-weight:normal;font-size:58.3333px;font-family:Kalam;-inkscape-font-specification:Kalam-Regular;writing-mode:lr-tb;fill:#000000;fill-opacity:1;fill-rule:nonzero;stroke:none"
           id="text60372"><tspan
             x="0 31.249165 50.539997 78.172493 92.213326 123.46249 137.50333 168.75249 196.32666 219.75916 251.00832 265.04916 311.40665"
             y="0"
             id="tspan60370">Training Time</tspan></text>
      </g>
      <g
         id="g60374"
         transform="matrix(0.24,0,0,0.24,476.3362,-315.6)">
        <text
           xml:space="preserve"
           transform="matrix(1,0,0,-1,0,2250)"
           style="font-variant:normal;font-weight:normal;font-size:58.3333px;font-family:Kalam;-inkscape-font-specification:Kalam-Regular;writing-mode:lr-tb;fill:#000000;fill-opacity:1;fill-rule:nonzero;stroke:none"
           id="text60378"><tspan
             x="0 31.249165 57.306664 82.314163 104.69666 128.12917 159.37833 173.41916 219.77666"
             y="0"
             id="tspan60376">Test Time</tspan></text>
      </g>
    </g>
  </g>
</svg>
