<?xml version="1.0" encoding="UTF-8" standalone="no"?>
<!-- Created with Inkscape (http://www.inkscape.org/) -->

<svg
   version="1.1"
   id="svg60548"
   width="953.91071"
   height="473.30853"
   viewBox="0 0 953.91071 473.30853"
   xmlns="http://www.w3.org/2000/svg"
   xmlns:svg="http://www.w3.org/2000/svg">
  <defs
     id="defs60552">
    <clipPath
       clipPathUnits="userSpaceOnUse"
       id="clipPath60564">
      <path
         d="M 0,1.206994e-5 H 959.76 V 540.00001 H 0 Z"
         id="path60562" />
    </clipPath>
  </defs>
  <g
     id="g60554"
     transform="matrix(1.3333333,0,0,-1.3333333,-94.98956,662.38933)">
    <g
       id="g60556" />
    <g
       id="g60558">
      <g
         id="g60560"
         clip-path="url(#clipPath60564)">
        <path
           d="M 0,540 H 959.76 V 1.206994e-5 H 0 Z"
           style="fill:#ffffff;fill-opacity:1;fill-rule:nonzero;stroke:none"
           id="path60566" />
      </g>
    </g>
    <g
       id="g60568">
      <path
         d="M 0,540 H 960 V 1.40816e-5 H 0 Z"
         style="fill:#ffffff;fill-opacity:1;fill-rule:nonzero;stroke:none"
         id="path60570" />
      <g
         id="g60572"
         transform="matrix(7.874016e-5,0,0,-7.874016e-5,279.964,469.7922)">
        <path
           d="M 0,0 H 1275644 V 541867 H 0 Z"
           style="fill:none;stroke:#000000;stroke-width:25400;stroke-linecap:butt;stroke-linejoin:round;stroke-miterlimit:10;stroke-dasharray:none;stroke-opacity:1"
           id="path60574" />
      </g>
      <g
         id="g60576"
         transform="matrix(0.24,0,0,0.24,303.5612,-97.67999)">
        <text
           xml:space="preserve"
           transform="matrix(1,0,0,-1,0,2250)"
           style="font-style:italic;font-variant:normal;font-size:75px;font-family:Georgia;-inkscape-font-specification:Georgia-Italic;writing-mode:lr-tb;fill:#000000;fill-opacity:1;fill-rule:nonzero;stroke:none"
           id="text60580"><tspan
             x="0 45.8325 73.957497 127.08 147.39 193.7475"
             y="0"
             id="tspan60578">P(X,Y)</tspan></text>
      </g>
      <path
         d="M 156.4847,396.042 H 256.9291 V 353.3753 H 156.4847 Z"
         style="fill:#ffe699;fill-opacity:1;fill-rule:nonzero;stroke:none"
         id="path60582" />
      <g
         id="g60584"
         transform="matrix(7.874016e-5,0,0,-7.874016e-5,156.4847,396.042)">
        <path
           d="M 0,0 H 1275644 V 541867 H 0 Z"
           style="fill:none;stroke:#000000;stroke-width:25400;stroke-linecap:butt;stroke-linejoin:round;stroke-miterlimit:10;stroke-dasharray:none;stroke-opacity:1"
           id="path60586" />
      </g>
      <g
         id="g60588"
         transform="matrix(0.24,0,0,0.24,188.0819,-171.6)">
        <text
           xml:space="preserve"
           transform="matrix(1,0,0,-1,0,2250)"
           style="font-style:italic;font-variant:normal;font-size:75px;font-family:Georgia;-inkscape-font-specification:Georgia-Italic;writing-mode:lr-tb;fill:#000000;fill-opacity:1;fill-rule:nonzero;stroke:none"
           id="text60592"><tspan
             x="0 45.8325 73.957497 127.08"
             y="0"
             id="tspan60590">P(X)</tspan></text>
      </g>
      <path
         d="M 405.7502,396.167 H 506.1946 V 353.5003 H 405.7502 Z"
         style="fill:#ffe699;fill-opacity:1;fill-rule:nonzero;stroke:none"
         id="path60594" />
      <g
         id="g60596"
         transform="matrix(7.874016e-5,0,0,-7.874016e-5,405.7502,396.167)">
        <path
           d="M 0,0 H 1275644 V 541867 H 0 Z"
           style="fill:none;stroke:#000000;stroke-width:25400;stroke-linecap:butt;stroke-linejoin:round;stroke-miterlimit:10;stroke-dasharray:none;stroke-opacity:1"
           id="path60598" />
      </g>
      <g
         id="g60600"
         transform="matrix(0.24,0,0,0.24,428.4099,-171.36)">
        <text
           xml:space="preserve"
           transform="matrix(1,0,0,-1,0,2250)"
           style="font-style:italic;font-variant:normal;font-size:75px;font-family:Georgia;-inkscape-font-specification:Georgia-Italic;writing-mode:lr-tb;fill:#000000;fill-opacity:1;fill-rule:nonzero;stroke:none"
           id="text60604"><tspan
             x="0 45.8325 73.957497 120.315 148.44 201.5625"
             y="0"
             id="tspan60602">P(Y|X)</tspan></text>
      </g>
      <path
         d="M 280.9641,449.4588 H 206.707 c -0.5523,0 -1,-0.4477 -1,-1 V 401.042 h 2 v 47.4168 l -1,-1 h 74.2571 z m -77.2571,-47.4168 3,-6 3,6 z"
         style="fill:#000000;fill-opacity:1;fill-rule:nonzero;stroke:none"
         id="path60606" />
      <path
         d="m 379.4084,449.4588 h 77.564 V 401.167 h -2 v 47.2918 l 1,-1 h -76.564 z m 79.564,-47.2918 -3,-6 -3,6 z"
         style="fill:#000000;fill-opacity:1;fill-rule:nonzero;stroke:none"
         id="path60608" />
      <path
         d="M 255.7757,295.4431 H 404.5968 V 252.7764 H 255.7757 Z"
         style="fill:#ffe699;fill-opacity:1;fill-rule:nonzero;stroke:none"
         id="path60610" />
      <g
         id="g60612"
         transform="matrix(7.874016e-5,0,0,-7.874016e-5,255.7757,295.4431)">
        <path
           d="M 0,0 H 1890028 V 541867 H 0 Z"
           style="fill:none;stroke:#000000;stroke-width:25400;stroke-linecap:butt;stroke-linejoin:round;stroke-miterlimit:10;stroke-dasharray:none;stroke-opacity:1"
           id="path60614" />
      </g>
      <g
         id="g60616"
         transform="matrix(0.24,0,0,0.24,271.4087,-272.16)">
        <text
           xml:space="preserve"
           transform="matrix(1,0,0,-1,0,2250)"
           style="font-variant:normal;font-weight:normal;font-size:75px;font-family:CambriaMath;-inkscape-font-specification:CambriaMath;writing-mode:lr-tb;fill:#000000;fill-opacity:1;fill-rule:nonzero;stroke:none"
           id="text60620"><tspan
             x="0"
             y="0"
             id="tspan60618">퐴</tspan></text>
      </g>
      <g
         id="g60622"
         transform="matrix(0.24,0,0,0.24,282.9587,-272.16)">
        <text
           xml:space="preserve"
           transform="matrix(1,0,0,-1,0,2250)"
           style="font-variant:normal;font-weight:normal;font-size:75px;font-family:CambriaMath;-inkscape-font-specification:CambriaMath;writing-mode:lr-tb;fill:#000000;fill-opacity:1;fill-rule:nonzero;stroke:none"
           id="text60626"><tspan
             x="0"
             y="0"
             id="tspan60624">:</tspan></text>
      </g>
      <g
         id="g60628"
         transform="matrix(0.24,0,0,0.24,290.7087,-272.16)">
        <text
           xml:space="preserve"
           transform="matrix(1,0,0,-1,0,2250)"
           style="font-variant:normal;font-weight:normal;font-size:75px;font-family:CambriaMath;-inkscape-font-specification:CambriaMath;writing-mode:lr-tb;fill:#000000;fill-opacity:1;fill-rule:nonzero;stroke:none"
           id="text60632"><tspan
             x="0"
             y="0"
             id="tspan60630">푋</tspan></text>
      </g>
      <g
         id="g60634"
         transform="matrix(0.24,0,0,0.24,303.1937,-265.44)">
        <text
           xml:space="preserve"
           transform="matrix(1,0,0,-1,0,2250)"
           style="font-variant:normal;font-weight:normal;font-size:54.1667px;font-family:CambriaMath;-inkscape-font-specification:CambriaMath;writing-mode:lr-tb;fill:#000000;fill-opacity:1;fill-rule:nonzero;stroke:none"
           id="text60638"><tspan
             x="0"
             y="0"
             id="tspan60636">!</tspan></text>
      </g>
      <g
         id="g60640"
         transform="matrix(0.24,0,0,0.24,312.6637,-272.16)">
        <text
           xml:space="preserve"
           transform="matrix(1,0,0,-1,0,2250)"
           style="font-variant:normal;font-weight:normal;font-size:75px;font-family:CambriaMath;-inkscape-font-specification:CambriaMath;writing-mode:lr-tb;fill:#000000;fill-opacity:1;fill-rule:nonzero;stroke:none"
           id="text60644"><tspan
             x="0"
             y="0"
             id="tspan60642">×</tspan></text>
      </g>
      <g
         id="g60646"
         transform="matrix(0.24,0,0,0.24,325.5387,-272.16)">
        <text
           xml:space="preserve"
           transform="matrix(1,0,0,-1,0,2250)"
           style="font-variant:normal;font-weight:normal;font-size:75px;font-family:CambriaMath;-inkscape-font-specification:CambriaMath;writing-mode:lr-tb;fill:#000000;fill-opacity:1;fill-rule:nonzero;stroke:none"
           id="text60650"><tspan
             x="0"
             y="0"
             id="tspan60648">푌</tspan></text>
      </g>
      <g
         id="g60652"
         transform="matrix(0.24,0,0,0.24,337.1637,-265.44)">
        <text
           xml:space="preserve"
           transform="matrix(1,0,0,-1,0,2250)"
           style="font-variant:normal;font-weight:normal;font-size:54.1667px;font-family:CambriaMath;-inkscape-font-specification:CambriaMath;writing-mode:lr-tb;fill:#000000;fill-opacity:1;fill-rule:nonzero;stroke:none"
           id="text60656"><tspan
             x="0"
             y="0"
             id="tspan60654">!</tspan></text>
      </g>
      <g
         id="g60658"
         transform="matrix(0.24,0,0,0.24,346.6337,-272.16)">
        <text
           xml:space="preserve"
           transform="matrix(1,0,0,-1,0,2250)"
           style="font-variant:normal;font-weight:normal;font-size:75px;font-family:CambriaMath;-inkscape-font-specification:CambriaMath;writing-mode:lr-tb;fill:#000000;fill-opacity:1;fill-rule:nonzero;stroke:none"
           id="text60662"><tspan
             x="0"
             y="0"
             id="tspan60660">→</tspan></text>
      </g>
      <g
         id="g60664"
         transform="matrix(0.24,0,0,0.24,366.7587,-272.16)">
        <text
           xml:space="preserve"
           transform="matrix(1,0,0,-1,0,2250)"
           style="font-variant:normal;font-weight:normal;font-size:75px;font-family:CambriaMath;-inkscape-font-specification:CambriaMath;writing-mode:lr-tb;fill:#000000;fill-opacity:1;fill-rule:nonzero;stroke:none"
           id="text60668"><tspan
             x="0"
             y="0"
             id="tspan60666">푊</tspan></text>
      </g>
      <g
         id="g60670"
         transform="matrix(7.874016e-5,0,0,-7.874016e-5,255.7757,214.8336)">
        <path
           d="M 0,0 H 1890028 V 541867 H 0 Z"
           style="fill:none;stroke:#000000;stroke-width:25400;stroke-linecap:butt;stroke-linejoin:round;stroke-miterlimit:10;stroke-dasharray:none;stroke-opacity:1"
           id="path60672" />
      </g>
      <g
         id="g60674"
         transform="matrix(0.24,0,0,0.24,299.9962,-352.8)">
        <text
           xml:space="preserve"
           transform="matrix(1,0,0,-1,0,2250)"
           style="font-variant:normal;font-weight:normal;font-size:75px;font-family:CambriaMath;-inkscape-font-specification:CambriaMath;writing-mode:lr-tb;fill:#000000;fill-opacity:1;fill-rule:nonzero;stroke:none"
           id="text60678"><tspan
             x="0"
             y="0"
             id="tspan60676">ℎ</tspan></text>
      </g>
      <g
         id="g60680"
         transform="matrix(0.24,0,0,0.24,310.3062,-352.8)">
        <text
           xml:space="preserve"
           transform="matrix(1,0,0,-1,0,2250)"
           style="font-variant:normal;font-weight:normal;font-size:75px;font-family:CambriaMath;-inkscape-font-specification:CambriaMath;writing-mode:lr-tb;fill:#000000;fill-opacity:1;fill-rule:nonzero;stroke:none"
           id="text60684"><tspan
             x="0"
             y="0"
             id="tspan60682">(</tspan></text>
      </g>
      <g
         id="g60686"
         transform="matrix(0.24,0,0,0.24,317.8062,-352.8)">
        <text
           xml:space="preserve"
           transform="matrix(1,0,0,-1,0,2250)"
           style="font-variant:normal;font-weight:normal;font-size:75px;font-family:CambriaMath;-inkscape-font-specification:CambriaMath;writing-mode:lr-tb;fill:#000000;fill-opacity:1;fill-rule:nonzero;stroke:none"
           id="text60690"><tspan
             x="0"
             y="0"
             id="tspan60688">푥</tspan></text>
      </g>
      <g
         id="g60692"
         transform="matrix(0.24,0,0,0.24,327.9762,-352.8)">
        <text
           xml:space="preserve"
           transform="matrix(1,0,0,-1,0,2250)"
           style="font-variant:normal;font-weight:normal;font-size:75px;font-family:CambriaMath;-inkscape-font-specification:CambriaMath;writing-mode:lr-tb;fill:#000000;fill-opacity:1;fill-rule:nonzero;stroke:none"
           id="text60696"><tspan
             x="0"
             y="0"
             id="tspan60694">,</tspan></text>
      </g>
      <g
         id="g60698"
         transform="matrix(0.24,0,0,0.24,334.7262,-352.8)">
        <text
           xml:space="preserve"
           transform="matrix(1,0,0,-1,0,2250)"
           style="font-variant:normal;font-weight:normal;font-size:75px;font-family:CambriaMath;-inkscape-font-specification:CambriaMath;writing-mode:lr-tb;fill:#000000;fill-opacity:1;fill-rule:nonzero;stroke:none"
           id="text60702"><tspan
             x="0"
             y="0"
             id="tspan60700">푤</tspan></text>
      </g>
      <g
         id="g60704"
         transform="matrix(0.24,0,0,0.24,348.5012,-352.8)">
        <text
           xml:space="preserve"
           transform="matrix(1,0,0,-1,0,2250)"
           style="font-variant:normal;font-weight:normal;font-size:75px;font-family:CambriaMath;-inkscape-font-specification:CambriaMath;writing-mode:lr-tb;fill:#000000;fill-opacity:1;fill-rule:nonzero;stroke:none"
           id="text60708"><tspan
             x="0"
             y="0"
             id="tspan60706">)</tspan></text>
      </g>
      <g
         id="g60710"
         transform="matrix(7.874016e-5,0,0,-7.874016e-5,87.75,327.375)">
        <path
           d="M 0,0 8758238,1"
           style="fill:none;stroke:#000000;stroke-width:12700;stroke-linecap:butt;stroke-linejoin:miter;stroke-miterlimit:8;stroke-dasharray:101600, 38100;stroke-dashoffset:0;stroke-opacity:1"
           id="path60712" />
      </g>
      <g
         id="g60714"
         transform="matrix(7.874016e-5,0,0,-7.874016e-5,87.75,242.25)">
        <path
           d="M 0,0 8772525,1"
           style="fill:none;stroke:#000000;stroke-width:12700;stroke-linecap:butt;stroke-linejoin:miter;stroke-miterlimit:8;stroke-dasharray:101600, 38100;stroke-dashoffset:0;stroke-opacity:1"
           id="path60716" />
      </g>
      <g
         id="g60718"
         transform="matrix(0.24,0,0,0.24,310.3624,-60.47999)">
        <text
           xml:space="preserve"
           transform="matrix(1,0,0,-1,0,2250)"
           style="font-variant:normal;font-weight:normal;font-size:58.3333px;font-family:Kalam;-inkscape-font-specification:Kalam-Regular;writing-mode:lr-tb;fill:#000000;fill-opacity:1;fill-rule:nonzero;stroke:none"
           id="text60722"><tspan
             x="0 39.584999 67.211662 89.588326 117.68166 136.96666"
             y="0"
             id="tspan60720">Nature</tspan></text>
      </g>
      <g
         id="g60724"
         transform="matrix(0.24,0,0,0.24,87.04866,-132.48)">
        <text
           xml:space="preserve"
           transform="matrix(1,0,0,-1,0,2250)"
           style="font-variant:normal;font-weight:normal;font-size:58.3333px;font-family:Kalam;-inkscape-font-specification:Kalam-Regular;writing-mode:lr-tb;fill:#000000;fill-opacity:1;fill-rule:nonzero;stroke:none"
           id="text60728"><tspan
             x="0 31.768332 51.053329 77.629997 108.34833 122.38332 148.435 194.78665 218.21332 253.59831 279.64999 310.89331 336.94498 356.22998 383.85666 406.23331 432.80997"
             y="0"
             id="tspan60726">Problem Generator</tspan></text>
      </g>
      <g
         id="g60730"
         transform="matrix(0.24,0,0,0.24,462.7456,-132.48)">
        <text
           xml:space="preserve"
           transform="matrix(1,0,0,-1,0,2250)"
           style="font-variant:normal;font-weight:normal;font-size:58.3333px;font-family:Kalam;-inkscape-font-specification:Kalam-Regular;writing-mode:lr-tb;fill:#000000;fill-opacity:1;fill-rule:nonzero;stroke:none"
           id="text60734"><tspan
             x="0 31.249165 58.881664 83.88916 111.52166 134.95416 165.67833 193.7775 221.87665 247.93416 267.22498 291.70749 305.74832 330.75583 357.33832"
             y="0"
             id="tspan60732">Task Supervisor</tspan></text>
      </g>
      <g
         id="g60736"
         transform="matrix(0.24,0,0,0.24,273.2535,-231.6)">
        <text
           xml:space="preserve"
           transform="matrix(1,0,0,-1,0,2250)"
           style="font-variant:normal;font-weight:normal;font-size:58.3333px;font-family:Kalam;-inkscape-font-specification:Kalam-Regular;writing-mode:lr-tb;fill:#000000;fill-opacity:1;fill-rule:nonzero;stroke:none"
           id="text60740"><tspan
             x="0 31.768332 57.819996 85.446663 104.73166 135.97499 150.06833 181.31166 208.93832 232.36499 267.74997 281.78497 309.41165 335.98831 355.27332 369.36664 391.74332 422.98663"
             y="0"
             id="tspan60738">Learning Algorithm</tspan></text>
      </g>
      <g
         id="g60742"
         transform="matrix(0.24,0,0,0.24,297.9927,-386.64)">
        <text
           xml:space="preserve"
           transform="matrix(1,0,0,-1,0,2250)"
           style="font-variant:normal;font-weight:normal;font-size:58.3333px;font-family:Kalam;-inkscape-font-specification:Kalam-Regular;writing-mode:lr-tb;fill:#000000;fill-opacity:1;fill-rule:nonzero;stroke:none"
           id="text60746"><tspan
             x="0 39.059998 66.686661 94.838326 121.41499 143.79166 175.03499 201.08665 226.08832 240.18166"
             y="0"
             id="tspan60744">Hypothesis</tspan></text>
      </g>
      <path
         d="m 256.93,384.7865 143.8211,0.1209 -0.002,2 -143.8212,-0.1209 0.002,-2 z m 142.8228,-1.88 5.9974,3.0051 -6.0025,2.9949 0.005,-6 z"
         style="fill:#000000;fill-opacity:1;fill-rule:nonzero;stroke:none"
         id="path60748" />
      <path
         d="m 205.7069,354.3754 v -80.2656 c 0,-0.5523 0.4477,-1 1,-1 h 44.0688 v 2 h -44.0688 l 1,-1 v 80.2656 z m 44.0688,-83.2656 6,3 -6,3 z"
         style="fill:#000000;fill-opacity:1;fill-rule:nonzero;stroke:none"
         id="path60750" />
      <path
         d="m 456.9725,354.5003 v -80.3906 c 0,-0.5523 -0.4477,-1 -1,-1 h -46.3757 v 2 h 46.3757 l -1,-1 v 80.3906 z m -46.3757,-83.3906 -6,3 6,3 z"
         style="fill:#000000;fill-opacity:1;fill-rule:nonzero;stroke:none"
         id="path60752" />
      <path
         d="m 506.1946,375.8336 h 33.2736 v -2 h -33.2736 z m 32.2736,2 6,-3.0001 -6,-2.9999 z"
         style="fill:#000000;fill-opacity:1;fill-rule:nonzero;stroke:none"
         id="path60754" />
      <path
         d="m 404.5967,194.5002 134.8715,-1e-4 v -2 l -134.8715,1e-4 z m 133.8715,1.9999 6,-3 -6,-3 z"
         style="fill:#000000;fill-opacity:1;fill-rule:nonzero;stroke:none"
         id="path60756" />
      <path
         d="m 331.1862,252.7764 1e-4,-32.9429 h -2 l -1e-4,32.9429 z m 2.0001,-31.9429 -3,-6 -3,6 z"
         style="fill:#000000;fill-opacity:1;fill-rule:nonzero;stroke:none"
         id="path60758" />
      <path
         d="M 180.019,352.472 V 193.5002 c 0,-0.5523 0.4477,-1 1,-1 h 69.7566 v 2 H 181.019 l 1,-1 V 352.472 Z m 69.7566,-161.9718 6,3 -6,3 z"
         style="fill:#000000;fill-opacity:1;fill-rule:nonzero;stroke:none"
         id="path60760" />
      <g
         id="g60762"
         transform="matrix(0.24,0,0,0.24,319.1673,-145.44)">
        <text
           xml:space="preserve"
           transform="matrix(1,0,0,-1,0,2250)"
           style="font-variant:normal;font-weight:normal;font-size:75px;font-family:CambriaMath;-inkscape-font-specification:CambriaMath;writing-mode:lr-tb;fill:#000000;fill-opacity:1;fill-rule:nonzero;stroke:none"
           id="text60766"><tspan
             x="0"
             y="0"
             id="tspan60764">푥</tspan></text>
      </g>
      <g
         id="g60768"
         transform="matrix(0.24,0,0,0.24,328.6173,-150)">
        <text
           xml:space="preserve"
           transform="matrix(1,0,0,-1,0,2250)"
           style="font-variant:normal;font-weight:normal;font-size:54.1667px;font-family:CambriaMath;-inkscape-font-specification:CambriaMath;writing-mode:lr-tb;fill:#000000;fill-opacity:1;fill-rule:nonzero;stroke:none"
           id="text60772"><tspan
             x="0"
             y="0"
             id="tspan60770">&quot;</tspan></text>
      </g>
      <g
         id="g60774"
         transform="matrix(0.24,0,0,0.24,329.7773,-138.24)">
        <text
           xml:space="preserve"
           transform="matrix(1,0,0,-1,0,2250)"
           style="font-variant:normal;font-weight:normal;font-size:54.1667px;font-family:CambriaMath;-inkscape-font-specification:CambriaMath;writing-mode:lr-tb;fill:#000000;fill-opacity:1;fill-rule:nonzero;stroke:none"
           id="text60778"><tspan
             x="0"
             y="0"
             id="tspan60776">!</tspan></text>
      </g>
      <g
         id="g60780"
         transform="matrix(0.24,0,0,0.24,321.6223,-193.68)">
        <text
           xml:space="preserve"
           transform="matrix(1,0,0,-1,0,2250)"
           style="font-variant:normal;font-weight:normal;font-size:75px;font-family:CambriaMath;-inkscape-font-specification:CambriaMath;writing-mode:lr-tb;fill:#000000;fill-opacity:1;fill-rule:nonzero;stroke:none"
           id="text60784"><tspan
             x="0"
             y="0"
             id="tspan60782">푥</tspan></text>
      </g>
      <g
         id="g60786"
         transform="matrix(0.24,0,0,0.24,329.4723,-197.28)">
        <text
           xml:space="preserve"
           transform="matrix(1,0,0,-1,0,2250)"
           style="font-variant:normal;font-weight:normal;font-size:54.1667px;font-family:CambriaMath;-inkscape-font-specification:CambriaMath;writing-mode:lr-tb;fill:#000000;fill-opacity:1;fill-rule:nonzero;stroke:none"
           id="text60790"><tspan
             x="0"
             y="0"
             id="tspan60788">#</tspan></text>
      </g>
      <path
         d="m 255.7765,366.0211 143.8212,0.1208 -0.002,2 -143.8212,-0.1208 z m 142.8228,-1.88 5.9975,3.005 -6.0026,2.995 0.005,-6 z"
         style="fill:#000000;fill-opacity:1;fill-rule:nonzero;stroke:none"
         id="path60792" />
      <g
         id="g60794"
         transform="matrix(0.24,0,0,0.24,523.834,-372.24)">
        <text
           xml:space="preserve"
           transform="matrix(1,0,0,-1,0,2250)"
           style="font-variant:normal;font-weight:normal;font-size:75px;font-family:CambriaMath;-inkscape-font-specification:CambriaMath;writing-mode:lr-tb;fill:#000000;fill-opacity:1;fill-rule:nonzero;stroke:none"
           id="text60798"><tspan
             x="0"
             y="0"
             id="tspan60796">.</tspan></text>
      </g>
      <g
         id="g60800"
         transform="matrix(0.24,0,0,0.24,521.4741,-372.24)">
        <text
           xml:space="preserve"
           transform="matrix(1,0,0,-1,0,2250)"
           style="font-variant:normal;font-weight:normal;font-size:75px;font-family:CambriaMath;-inkscape-font-specification:CambriaMath;writing-mode:lr-tb;fill:#000000;fill-opacity:1;fill-rule:nonzero;stroke:none"
           id="text60804"><tspan
             x="0"
             y="0"
             id="tspan60802">푦</tspan></text>
      </g>
      <g
         id="g60806"
         transform="matrix(0.24,0,0,0.24,530.0191,-375.84)">
        <text
           xml:space="preserve"
           transform="matrix(1,0,0,-1,0,2250)"
           style="font-variant:normal;font-weight:normal;font-size:54.1667px;font-family:CambriaMath;-inkscape-font-specification:CambriaMath;writing-mode:lr-tb;fill:#000000;fill-opacity:1;fill-rule:nonzero;stroke:none"
           id="text60810"><tspan
             x="0"
             y="0"
             id="tspan60808">#</tspan></text>
      </g>
      <g
         id="g60812"
         transform="matrix(0.24,0,0,0.24,521.4741,-184.32)">
        <text
           xml:space="preserve"
           transform="matrix(1,0,0,-1,0,2250)"
           style="font-variant:normal;font-weight:normal;font-size:75px;font-family:CambriaMath;-inkscape-font-specification:CambriaMath;writing-mode:lr-tb;fill:#000000;fill-opacity:1;fill-rule:nonzero;stroke:none"
           id="text60816"><tspan
             x="0"
             y="0"
             id="tspan60814">푦</tspan></text>
      </g>
      <g
         id="g60818"
         transform="matrix(0.24,0,0,0.24,530.0191,-188.16)">
        <text
           xml:space="preserve"
           transform="matrix(1,0,0,-1,0,2250)"
           style="font-variant:normal;font-weight:normal;font-size:54.1667px;font-family:CambriaMath;-inkscape-font-specification:CambriaMath;writing-mode:lr-tb;fill:#000000;fill-opacity:1;fill-rule:nonzero;stroke:none"
           id="text60822"><tspan
             x="0"
             y="0"
             id="tspan60820">#</tspan></text>
      </g>
      <g
         id="g60824"
         transform="matrix(0.24,0,0,0.24,201.9511,-334.8)">
        <text
           xml:space="preserve"
           transform="matrix(1,0,0,-1,0,2250)"
           style="font-variant:normal;font-weight:normal;font-size:75px;font-family:CambriaMath;-inkscape-font-specification:CambriaMath;writing-mode:lr-tb;fill:#000000;fill-opacity:1;fill-rule:nonzero;stroke:none"
           id="text60828"><tspan
             x="0"
             y="0"
             id="tspan60826">푥</tspan></text>
      </g>
      <g
         id="g60830"
         transform="matrix(0.24,0,0,0.24,209.8011,-338.4)">
        <text
           xml:space="preserve"
           transform="matrix(1,0,0,-1,0,2250)"
           style="font-variant:normal;font-weight:normal;font-size:54.1667px;font-family:CambriaMath;-inkscape-font-specification:CambriaMath;writing-mode:lr-tb;fill:#000000;fill-opacity:1;fill-rule:nonzero;stroke:none"
           id="text60834"><tspan
             x="0"
             y="0"
             id="tspan60832">#</tspan></text>
      </g>
      <g
         id="g60836"
         transform="matrix(0.24,0,0,0.24,212.0741,-237.36)">
        <text
           xml:space="preserve"
           transform="matrix(1,0,0,-1,0,2250)"
           style="font-variant:normal;font-weight:normal;font-size:75px;font-family:CambriaMath;-inkscape-font-specification:CambriaMath;writing-mode:lr-tb;fill:#000000;fill-opacity:1;fill-rule:nonzero;stroke:none"
           id="text60840"><tspan
             x="0"
             y="0"
             id="tspan60838">푥</tspan></text>
      </g>
      <g
         id="g60842"
         transform="matrix(0.24,0,0,0.24,221.5241,-241.92)">
        <text
           xml:space="preserve"
           transform="matrix(1,0,0,-1,0,2250)"
           style="font-variant:normal;font-weight:normal;font-size:54.1667px;font-family:CambriaMath;-inkscape-font-specification:CambriaMath;writing-mode:lr-tb;fill:#000000;fill-opacity:1;fill-rule:nonzero;stroke:none"
           id="text60846"><tspan
             x="0"
             y="0"
             id="tspan60844">&quot;</tspan></text>
      </g>
      <g
         id="g60848"
         transform="matrix(0.24,0,0,0.24,222.684,-229.92)">
        <text
           xml:space="preserve"
           transform="matrix(1,0,0,-1,0,2250)"
           style="font-variant:normal;font-weight:normal;font-size:54.1667px;font-family:CambriaMath;-inkscape-font-specification:CambriaMath;writing-mode:lr-tb;fill:#000000;fill-opacity:1;fill-rule:nonzero;stroke:none"
           id="text60852"><tspan
             x="0"
             y="0"
             id="tspan60850">!</tspan></text>
      </g>
      <g
         id="g60854"
         transform="matrix(0.24,0,0,0.24,427.3299,-237.36)">
        <text
           xml:space="preserve"
           transform="matrix(1,0,0,-1,0,2250)"
           style="font-variant:normal;font-weight:normal;font-size:75px;font-family:CambriaMath;-inkscape-font-specification:CambriaMath;writing-mode:lr-tb;fill:#000000;fill-opacity:1;fill-rule:nonzero;stroke:none"
           id="text60858"><tspan
             x="0"
             y="0"
             id="tspan60856">푦</tspan></text>
      </g>
      <g
         id="g60860"
         transform="matrix(0.24,0,0,0.24,436.9099,-241.92)">
        <text
           xml:space="preserve"
           transform="matrix(1,0,0,-1,0,2250)"
           style="font-variant:normal;font-weight:normal;font-size:54.1667px;font-family:CambriaMath;-inkscape-font-specification:CambriaMath;writing-mode:lr-tb;fill:#000000;fill-opacity:1;fill-rule:nonzero;stroke:none"
           id="text60864"><tspan
             x="0"
             y="0"
             id="tspan60862">&quot;</tspan></text>
      </g>
      <g
         id="g60866"
         transform="matrix(0.24,0,0,0.24,438.3349,-229.92)">
        <text
           xml:space="preserve"
           transform="matrix(1,0,0,-1,0,2250)"
           style="font-variant:normal;font-weight:normal;font-size:54.1667px;font-family:CambriaMath;-inkscape-font-specification:CambriaMath;writing-mode:lr-tb;fill:#000000;fill-opacity:1;fill-rule:nonzero;stroke:none"
           id="text60870"><tspan
             x="0"
             y="0"
             id="tspan60868">!</tspan></text>
      </g>
      <g
         id="g60872"
         transform="matrix(0.24,0,0,0.24,607.6137,-273.6)">
        <text
           xml:space="preserve"
           transform="matrix(1,0,0,-1,0,2250)"
           style="font-variant:normal;font-weight:normal;font-size:75px;font-family:CambriaMath;-inkscape-font-specification:CambriaMath;writing-mode:lr-tb;fill:#000000;fill-opacity:1;fill-rule:nonzero;stroke:none"
           id="text60876"><tspan
             x="0"
             y="0"
             id="tspan60874">퐷</tspan></text>
      </g>
      <g
         id="g60878"
         transform="matrix(0.24,0,0,0.24,625.6387,-273.6)">
        <text
           xml:space="preserve"
           transform="matrix(1,0,0,-1,0,2250)"
           style="font-variant:normal;font-weight:normal;font-size:75px;font-family:CambriaMath;-inkscape-font-specification:CambriaMath;writing-mode:lr-tb;fill:#000000;fill-opacity:1;fill-rule:nonzero;stroke:none"
           id="text60882"><tspan
             x="0"
             y="0"
             id="tspan60880">→</tspan></text>
      </g>
      <g
         id="g60884"
         transform="matrix(0.24,0,0,0.24,645.7637,-273.6)">
        <text
           xml:space="preserve"
           transform="matrix(1,0,0,-1,0,2250)"
           style="font-variant:normal;font-weight:normal;font-size:75px;font-family:CambriaMath;-inkscape-font-specification:CambriaMath;writing-mode:lr-tb;fill:#000000;fill-opacity:1;fill-rule:nonzero;stroke:none"
           id="text60888"><tspan
             x="0"
             y="0"
             id="tspan60886">푊</tspan></text>
      </g>
      <g
         id="g60890"
         transform="matrix(0.24,0,0,0.24,668.5937,-273.6)">
        <text
           xml:space="preserve"
           transform="matrix(1,0,0,-1,0,2250)"
           style="font-variant:normal;font-weight:normal;font-size:75px;font-family:CambriaMath;-inkscape-font-specification:CambriaMath;writing-mode:lr-tb;fill:#000000;fill-opacity:1;fill-rule:nonzero;stroke:none"
           id="text60894"><tspan
             x="0"
             y="0"
             id="tspan60892">→</tspan></text>
      </g>
      <g
         id="g60896"
         transform="matrix(0.24,0,0,0.24,688.7187,-273.6)">
        <text
           xml:space="preserve"
           transform="matrix(1,0,0,-1,0,2250)"
           style="font-variant:normal;font-weight:normal;font-size:75px;font-family:CambriaMath;-inkscape-font-specification:CambriaMath;writing-mode:lr-tb;fill:#000000;fill-opacity:1;fill-rule:nonzero;stroke:none"
           id="text60900"><tspan
             x="0"
             y="0"
             id="tspan60898">ℎ</tspan></text>
      </g>
      <g
         id="g60902"
         transform="matrix(0.24,0,0,0.24,699.0287,-273.6)">
        <text
           xml:space="preserve"
           transform="matrix(1,0,0,-1,0,2250)"
           style="font-variant:normal;font-weight:normal;font-size:75px;font-family:CambriaMath;-inkscape-font-specification:CambriaMath;writing-mode:lr-tb;fill:#000000;fill-opacity:1;fill-rule:nonzero;stroke:none"
           id="text60906"><tspan
             x="0"
             y="0"
             id="tspan60904">:</tspan></text>
      </g>
      <g
         id="g60908"
         transform="matrix(0.24,0,0,0.24,706.7787,-273.6)">
        <text
           xml:space="preserve"
           transform="matrix(1,0,0,-1,0,2250)"
           style="font-variant:normal;font-weight:normal;font-size:75px;font-family:CambriaMath;-inkscape-font-specification:CambriaMath;writing-mode:lr-tb;fill:#000000;fill-opacity:1;fill-rule:nonzero;stroke:none"
           id="text60912"><tspan
             x="0"
             y="0"
             id="tspan60910">푃</tspan></text>
      </g>
      <g
         id="g60914"
         transform="matrix(0.24,0,0,0.24,718.3437,-273.6)">
        <text
           xml:space="preserve"
           transform="matrix(1,0,0,-1,0,2250)"
           style="font-variant:normal;font-weight:normal;font-size:75px;font-family:CambriaMath;-inkscape-font-specification:CambriaMath;writing-mode:lr-tb;fill:#000000;fill-opacity:1;fill-rule:nonzero;stroke:none"
           id="text60918"><tspan
             x="0"
             y="0"
             id="tspan60916">(</tspan></text>
      </g>
      <g
         id="g60920"
         transform="matrix(0.24,0,0,0.24,725.8437,-273.6)">
        <text
           xml:space="preserve"
           transform="matrix(1,0,0,-1,0,2250)"
           style="font-variant:normal;font-weight:normal;font-size:75px;font-family:CambriaMath;-inkscape-font-specification:CambriaMath;writing-mode:lr-tb;fill:#000000;fill-opacity:1;fill-rule:nonzero;stroke:none"
           id="text60924"><tspan
             x="0"
             y="0"
             id="tspan60922">푌</tspan></text>
      </g>
      <g
         id="g60926"
         transform="matrix(0.24,0,0,0.24,737.1587,-273.6)">
        <text
           xml:space="preserve"
           transform="matrix(1,0,0,-1,0,2250)"
           style="font-variant:normal;font-weight:normal;font-size:75px;font-family:CambriaMath;-inkscape-font-specification:CambriaMath;writing-mode:lr-tb;fill:#000000;fill-opacity:1;fill-rule:nonzero;stroke:none"
           id="text60930"><tspan
             x="0"
             y="0"
             id="tspan60928">|</tspan></text>
      </g>
      <g
         id="g60932"
         transform="matrix(0.24,0,0,0.24,742.9087,-273.6)">
        <text
           xml:space="preserve"
           transform="matrix(1,0,0,-1,0,2250)"
           style="font-variant:normal;font-weight:normal;font-size:75px;font-family:CambriaMath;-inkscape-font-specification:CambriaMath;writing-mode:lr-tb;fill:#000000;fill-opacity:1;fill-rule:nonzero;stroke:none"
           id="text60936"><tspan
             x="0"
             y="0"
             id="tspan60934">푋</tspan></text>
      </g>
      <g
         id="g60938"
         transform="matrix(0.24,0,0,0.24,754.9737,-273.6)">
        <text
           xml:space="preserve"
           transform="matrix(1,0,0,-1,0,2250)"
           style="font-variant:normal;font-weight:normal;font-size:75px;font-family:CambriaMath;-inkscape-font-specification:CambriaMath;writing-mode:lr-tb;fill:#000000;fill-opacity:1;fill-rule:nonzero;stroke:none"
           id="text60942"><tspan
             x="0"
             y="0"
             id="tspan60940">)</tspan></text>
      </g>
      <g
         id="g60944"
         transform="matrix(0.24,0,0,0.24,607.2587,-353.28)">
        <text
           xml:space="preserve"
           transform="matrix(1,0,0,-1,0,2250)"
           style="font-variant:normal;font-weight:normal;font-size:75px;font-family:CambriaMath;-inkscape-font-specification:CambriaMath;writing-mode:lr-tb;fill:#000000;fill-opacity:1;fill-rule:nonzero;stroke:none"
           id="text60948"><tspan
             x="0"
             y="0"
             id="tspan60946">푋</tspan></text>
      </g>
      <g
         id="g60950"
         transform="matrix(0.24,0,0,0.24,624.3237,-353.28)">
        <text
           xml:space="preserve"
           transform="matrix(1,0,0,-1,0,2250)"
           style="font-variant:normal;font-weight:normal;font-size:75px;font-family:CambriaMath;-inkscape-font-specification:CambriaMath;writing-mode:lr-tb;fill:#000000;fill-opacity:1;fill-rule:nonzero;stroke:none"
           id="text60954"><tspan
             x="0"
             y="0"
             id="tspan60952">→</tspan></text>
      </g>
      <g
         id="g60956"
         transform="matrix(0.24,0,0,0.24,644.4487,-353.28)">
        <text
           xml:space="preserve"
           transform="matrix(1,0,0,-1,0,2250)"
           style="font-variant:normal;font-weight:normal;font-size:75px;font-family:CambriaMath;-inkscape-font-specification:CambriaMath;writing-mode:lr-tb;fill:#000000;fill-opacity:1;fill-rule:nonzero;stroke:none"
           id="text60960"><tspan
             x="0"
             y="0"
             id="tspan60958">푍</tspan></text>
      </g>
      <g
         id="g60962"
         transform="matrix(0.24,0,0,0.24,660.5137,-353.28)">
        <text
           xml:space="preserve"
           transform="matrix(1,0,0,-1,0,2250)"
           style="font-variant:normal;font-weight:normal;font-size:75px;font-family:CambriaMath;-inkscape-font-specification:CambriaMath;writing-mode:lr-tb;fill:#000000;fill-opacity:1;fill-rule:nonzero;stroke:none"
           id="text60966"><tspan
             x="0"
             y="0"
             id="tspan60964">→</tspan></text>
      </g>
      <g
         id="g60968"
         transform="matrix(0.24,0,0,0.24,683.1787,-349.92)">
        <text
           xml:space="preserve"
           transform="matrix(1,0,0,-1,0,2250)"
           style="font-variant:normal;font-weight:normal;font-size:75px;font-family:CambriaMath;-inkscape-font-specification:CambriaMath;writing-mode:lr-tb;fill:#000000;fill-opacity:1;fill-rule:nonzero;stroke:none"
           id="text60972"><tspan
             x="0"
             y="0"
             id="tspan60970">4</tspan></text>
      </g>
      <g
         id="g60974"
         transform="matrix(0.24,0,0,0.24,680.6387,-353.28)">
        <text
           xml:space="preserve"
           transform="matrix(1,0,0,-1,0,2250)"
           style="font-variant:normal;font-weight:normal;font-size:75px;font-family:CambriaMath;-inkscape-font-specification:CambriaMath;writing-mode:lr-tb;fill:#000000;fill-opacity:1;fill-rule:nonzero;stroke:none"
           id="text60978"><tspan
             x="0"
             y="0"
             id="tspan60976">푌</tspan></text>
      </g>
      <g
         id="g60980"
         transform="matrix(7.874016e-5,0,0,-7.874016e-5,84.10843,301.3746)">
        <path
           d="M 0,213390.5 C 0,95538.18 95538.18,0 213390.5,0 331242.8,0 426781,95538.18 426781,213390.5 426781,331242.8 331242.8,426781 213390.5,426781 95538.18,426781 0,331242.8 0,213390.5 Z"
           style="fill:none;stroke:#000000;stroke-width:25400;stroke-linecap:butt;stroke-linejoin:miter;stroke-miterlimit:8;stroke-dasharray:none;stroke-opacity:1"
           id="path60982" />
      </g>
      <g
         id="g60984"
         transform="matrix(0.24,0,0,0.24,96.34831,-261.6)">
        <text
           xml:space="preserve"
           transform="matrix(1,0,0,-1,0,2250)"
           style="font-variant:normal;font-weight:normal;font-size:75px;font-family:Calibri;-inkscape-font-specification:Calibri;writing-mode:lr-tb;fill:#000000;fill-opacity:1;fill-rule:nonzero;stroke:none"
           id="text60988"><tspan
             x="0"
             y="0"
             id="tspan60986">1</tspan></text>
      </g>
      <g
         id="g60990"
         transform="matrix(7.874016e-5,0,0,-7.874016e-5,86.23803,222.0867)">
        <path
           d="M 0,213390.5 C 0,95538.18 95538.18,0 213390.5,0 331242.8,0 426781,95538.18 426781,213390.5 426781,331242.8 331242.8,426781 213390.5,426781 95538.18,426781 0,331242.8 0,213390.5 Z"
           style="fill:none;stroke:#000000;stroke-width:25400;stroke-linecap:butt;stroke-linejoin:miter;stroke-miterlimit:8;stroke-dasharray:none;stroke-opacity:1"
           id="path60992" />
      </g>
      <g
         id="g60994"
         transform="matrix(0.24,0,0,0.24,98.47791,-340.8)">
        <text
           xml:space="preserve"
           transform="matrix(1,0,0,-1,0,2250)"
           style="font-variant:normal;font-weight:normal;font-size:75px;font-family:Calibri;-inkscape-font-specification:Calibri;writing-mode:lr-tb;fill:#000000;fill-opacity:1;fill-rule:nonzero;stroke:none"
           id="text60998"><tspan
             x="0"
             y="0"
             id="tspan60996">2</tspan></text>
      </g>
      <g
         id="g61000"
         transform="matrix(0.24,0,0,0.24,677.3055,-230.64)">
        <text
           xml:space="preserve"
           transform="matrix(1,0,0,-1,0,2250)"
           style="font-variant:normal;font-weight:normal;font-size:58.3333px;font-family:Kalam;-inkscape-font-specification:Kalam-Regular;writing-mode:lr-tb;fill:#000000;fill-opacity:1;fill-rule:nonzero;stroke:none"
           id="text61004"><tspan
             x="0 31.249165 50.539997 78.172493 92.213326 123.46249 137.50333 168.75249 196.32666 219.75916 251.00832 265.04916 311.40665"
             y="0"
             id="tspan61002">Training Time</tspan></text>
      </g>
      <g
         id="g61006"
         transform="matrix(0.24,0,0,0.24,695.8676,-319.92)">
        <text
           xml:space="preserve"
           transform="matrix(1,0,0,-1,0,2250)"
           style="font-variant:normal;font-weight:normal;font-size:58.3333px;font-family:Kalam;-inkscape-font-specification:Kalam-Regular;writing-mode:lr-tb;fill:#000000;fill-opacity:1;fill-rule:nonzero;stroke:none"
           id="text61010"><tspan
             x="0 31.249165 57.306664 82.314163 104.69666 128.12917 159.37833 173.41916 219.77666"
             y="0"
             id="tspan61008">Test Time</tspan></text>
      </g>
    </g>
  </g>
</svg>
