<?xml version="1.0" encoding="UTF-8" standalone="no"?>
<!-- Created with Inkscape (http://www.inkscape.org/) -->

<svg
   version="1.1"
   id="svg61739"
   width="3653.4534"
   height="2190.52"
   viewBox="0 0 3653.4534 2190.52"
   xmlns="http://www.w3.org/2000/svg"
   xmlns:svg="http://www.w3.org/2000/svg">
  <defs
     id="defs61743">
    <clipPath
       clipPathUnits="userSpaceOnUse"
       id="clipPath61753">
      <path
         d="M 0,1642.89 H 2740.088 V 0 H 0 Z"
         id="path61751" />
    </clipPath>
    <clipPath
       clipPathUnits="userSpaceOnUse"
       id="clipPath61821">
      <path
         d="m 1044.49,1384.27 h 503.63 V 229.294 h -503.63 z"
         id="path61819" />
    </clipPath>
    <clipPath
       clipPathUnits="userSpaceOnUse"
       id="clipPath61901">
      <path
         d="M 0,1642.89 H 2740.088 V 0 H 0 Z"
         id="path61899" />
    </clipPath>
    <clipPath
       clipPathUnits="userSpaceOnUse"
       id="clipPath61925">
      <path
         d="M 0,1642.89 H 2740.088 V 0 H 0 Z"
         id="path61923" />
    </clipPath>
  </defs>
  <g
     id="g61745"
     transform="matrix(1.3333333,0,0,-1.3333333,0,2190.52)">
    <g
       id="g61747">
      <g
         id="g61749"
         clip-path="url(#clipPath61753)">
        <g
           id="g61755"
           transform="translate(1465.962,454.0708)">
          <path
             d="M 0,0 C -59.05,8.49 -118.06,12.55 -177.21,12.05 -229.92,11.61 -282.73,7.54 -335.76,-0.22 m -20.67,-2.32 c -0.92,-0.57 -2.45,-0.78 -3.62,-0.52 -3.98,-0.4 -7.86,-1.74 -11.92,-2.01 -16.16,-4.23 -34.21,-8.02 -52.32,-11.7 l 0.05,-12.44 0.5,-148.07 0.08,-22.88 0.11,-31.89 502.97,-0.24 -0.13,39.81 -0.09,24.96 -0.48,140.78 -0.04,11.52 c -29.75,4.62 -62.79,10.31 -64.3,20"
             style="fill:#f7ed38;fill-opacity:1;fill-rule:nonzero;stroke:none"
             id="path61757" />
        </g>
        <g
           id="g61759"
           transform="translate(1109.5319,451.5308)">
          <path
             d="M 0,0 C -0.92,-0.57 -2.45,-0.78 -3.62,-0.52 -5.69,-0.728 -7.734,-1.19 -9.79,-1.625"
             style="fill:none;stroke:#231f20;stroke-width:6;stroke-linecap:butt;stroke-linejoin:miter;stroke-miterlimit:10;stroke-dasharray:none;stroke-opacity:1"
             id="path61761" />
        </g>
        <g
           id="g61763"
           transform="translate(1083.6564,446.4102)">
          <path
             d="M 0,0 C -7.779,-1.873 -15.878,-3.667 -24.119,-5.414"
             style="fill:none;stroke:#231f20;stroke-width:6;stroke-linecap:butt;stroke-linejoin:miter;stroke-miterlimit:10;stroke-dasharray:16.48, 16.48;stroke-dashoffset:0;stroke-opacity:1"
             id="path61765" />
        </g>
        <g
           id="g61767"
           transform="translate(1051.4694,439.3076)">
          <path
             d="m 0,0 c -3.257,-0.674 -6.526,-1.342 -9.797,-2.007 l 0.04,-10"
             style="fill:none;stroke:#231f20;stroke-width:6;stroke-linecap:butt;stroke-linejoin:miter;stroke-miterlimit:10;stroke-dasharray:none;stroke-opacity:1"
             id="path61769" />
        </g>
        <g
           id="g61771"
           transform="translate(1041.7872,405.6035)">
          <path
             d="m 0,0 0.435,-128.812 0.08,-22.881 0.038,-11.041"
             style="fill:none;stroke:#231f20;stroke-width:6;stroke-linecap:butt;stroke-linejoin:miter;stroke-miterlimit:10;stroke-dasharray:21.698, 21.698;stroke-dashoffset:0;stroke-opacity:1"
             id="path61773" />
        </g>
        <g
           id="g61775"
           transform="translate(1042.3771,232.021)">
          <path
             d="m 0,0 0.035,-10 10,-0.005"
             style="fill:none;stroke:#231f20;stroke-width:6;stroke-linecap:butt;stroke-linejoin:miter;stroke-miterlimit:10;stroke-dasharray:none;stroke-opacity:1"
             id="path61777" />
        </g>
        <g
           id="g61779"
           transform="translate(1071.7306,222.0068)">
          <path
             d="M 0,0 453.992,-0.217"
             style="fill:none;stroke:#231f20;stroke-width:6;stroke-linecap:butt;stroke-linejoin:miter;stroke-miterlimit:10;stroke-dasharray:19.319, 19.319;stroke-dashoffset:0;stroke-opacity:1"
             id="path61781" />
        </g>
        <g
           id="g61783"
           transform="translate(1535.382,221.7856)">
          <path
             d="m 0,0 10,-0.005 -0.033,10"
             style="fill:none;stroke:#231f20;stroke-width:6;stroke-linecap:butt;stroke-linejoin:miter;stroke-miterlimit:10;stroke-dasharray:none;stroke-opacity:1"
             id="path61785" />
        </g>
        <g
           id="g61787"
           transform="translate(1545.278,253.6777)">
          <path
             d="m 0,0 -0.026,7.913 -0.09,24.96 -0.448,131.352"
             style="fill:none;stroke:#231f20;stroke-width:6;stroke-linecap:butt;stroke-linejoin:miter;stroke-miterlimit:10;stroke-dasharray:21.897, 21.897;stroke-dashoffset:0;stroke-opacity:1"
             id="path61789" />
        </g>
        <g
           id="g61791"
           transform="translate(1544.6769,428.8511)">
          <path
             d="m 0,0 -0.035,10 c -3.269,0.507 -6.577,1.028 -9.879,1.565"
             style="fill:none;stroke:#231f20;stroke-width:6;stroke-linecap:butt;stroke-linejoin:miter;stroke-miterlimit:10;stroke-dasharray:none;stroke-opacity:1"
             id="path61793" />
        </g>
        <g
           id="g61795"
           transform="translate(1518.6461,443.2373)">
          <path
             d="M 0,0 C -8.966,1.715 -17.263,3.618 -23.83,5.799"
             style="fill:none;stroke:#231f20;stroke-width:6;stroke-linecap:butt;stroke-linejoin:miter;stroke-miterlimit:10;stroke-dasharray:16.357, 16.357;stroke-dashoffset:0;stroke-opacity:1"
             id="path61797" />
        </g>
        <g
           id="g61799"
           transform="translate(1487.2389,452.084)">
          <path
             d="M 0,0 C -4.006,2.022 -6.506,4.261 -6.897,6.767"
             style="fill:none;stroke:#231f20;stroke-width:6;stroke-linecap:butt;stroke-linejoin:miter;stroke-miterlimit:10;stroke-dasharray:none;stroke-opacity:1"
             id="path61801" />
        </g>
        <g
           id="g61803"
           transform="translate(1465.962,454.0708)">
          <path
             d="M 0,0 C -3.302,0.475 -6.603,0.936 -9.904,1.382"
             style="fill:none;stroke:#231f20;stroke-width:6;stroke-linecap:butt;stroke-linejoin:miter;stroke-miterlimit:10;stroke-dasharray:none;stroke-opacity:1"
             id="path61805" />
        </g>
        <g
           id="g61807"
           transform="translate(1435.0963,458.1045)">
          <path
             d="m 0,0 c -48.753,5.733 -97.501,8.43 -146.344,8.017 -45.958,-0.384 -91.992,-3.528 -138.182,-9.47"
             style="fill:none;stroke:#231f20;stroke-width:6;stroke-linecap:butt;stroke-linejoin:miter;stroke-miterlimit:10;stroke-dasharray:21.128, 21.128;stroke-dashoffset:0;stroke-opacity:1"
             id="path61809" />
        </g>
        <g
           id="g61811"
           transform="translate(1140.1027,455.2573)">
          <path
             d="M 0,0 C -3.299,-0.455 -6.6,-0.923 -9.901,-1.406"
             style="fill:none;stroke:#231f20;stroke-width:6;stroke-linecap:butt;stroke-linejoin:miter;stroke-miterlimit:10;stroke-dasharray:none;stroke-opacity:1"
             id="path61813" />
        </g>
        <g
           id="g61815">
          <g
             id="g61817" />
          <g
             id="g61829">
            <g
               clip-path="url(#clipPath61821)"
               opacity="0.330002"
               id="g61827">
              <g
                 transform="translate(1459.1715,467.4458)"
                 id="g61825">
                <path
                   d="M 0,0 C 5.069,-0.546 1.708,1.226 1.117,6.29 -64.02,565.073 -128.246,888.911 -157.15,904.5 c -1.112,0.6 -2.096,1.417 -2.751,2.498 -67.793,111.741 -115.193,-763.513 -175.025,-896.396 -0.363,-0.807 -0.587,-1.661 -0.67,-2.541 -1.601,-16.987 -7.923,-33.661 -14.518,-49.152 -0.656,-1.54 -1.326,-3.074 -2.005,-4.606 -0.387,-0.874 -0.604,-1.806 -0.666,-2.761 -2.133,-32.913 -29.058,-92.468 -60.223,-132.957 -1.065,-1.384 -1.656,-3.064 -1.667,-4.811 -0.081,-12.539 0.467,-33.759 0.206,-45.1 -0.933,-14.731 492.513,-0.242 497.823,-5.334 9.794,-1.819 3.576,27.268 4.376,35.782 0.161,1.712 -0.176,3.438 -1.049,4.921 z"
                   style="fill:#478fcd;fill-opacity:1;fill-rule:nonzero;stroke:none"
                   id="path61823" />
              </g>
            </g>
          </g>
        </g>
        <g
           id="g61831"
           transform="translate(1464.9083,456.5703)">
          <path
             d="M 0,0 C -111.675,16.059 -223.236,16.261 -335.759,-0.218 -144.423,1183.629 -189.259,1228.809 0,0 m 922.119,-220.613 c -165.468,3.413 -350.044,-1.635 -519.39,0.354 1.031,-0.29 2.074,-0.453 3.098,-0.79 -201.351,2.912 -345.005,-47.906 -386.755,204.244 48.435,-4.858 95.224,-18.429 142.323,-31.973 -0.419,0.559 -0.841,1.11 -1.259,1.672 249.252,-67.175 499.689,-152.679 759.159,-166.044 -0.104,5.433 3.962,11.159 -6.036,12.252 -275.137,20.713 -517.602,100.247 -791.368,177.936 0.104,-0.146 0.206,-0.29 0.31,-0.436 C 102.83,-16.162 16.84,-10.992 14.375,4.774 -44.909,291.27 -70.585,584.674 -126.882,872.533 -227.985,1243.759 -301.961,46.858 -356.436,-2.541 c -0.918,-0.573 -2.449,-0.782 -3.619,-0.521 -3.976,-0.399 -7.86,-1.738 -11.913,-2.011 -26.468,-6.922 -57.989,-12.665 -86.552,-18.692 l 0.099,0.135 c -196.414,-58.467 -580.384,-166.177 -786.776,-177.348 -49.223,-33.097 257.284,19.126 310.443,34.285 167.348,31.452 325.183,102.178 491.023,133.602 21.591,5.234 45.083,6.778 65.823,12.97 54.306,6.712 -40.496,-216.137 -124.301,-198.681 -255.163,-13.324 -499.174,6.094 -757.171,-2.505 0.945,-5.383 -0.461,-11.64 1.749,-15.041 254.919,3.173 510.277,-6.966 764.894,5.672 102.25,9.052 128.617,132.106 152.336,214.777 110.55,21.24 227.537,18.539 339.065,2.84 37.767,-63.75 37.456,-157.067 107.448,-202.531 13.048,-6.258 25.025,-14.451 38.205,-20.498 258.272,-7.551 521.216,4.911 778.582,1.055 v 13.622 c 0,0.434 -0.345,0.789 -0.78,0.798"
             style="fill:#231f20;fill-opacity:1;fill-rule:nonzero;stroke:none"
             id="path61833" />
        </g>
        <g
           id="g61835"
           transform="translate(1890.3849,330.5674)">
          <path
             d="m 0,0 c 4.488,-0.091 8.975,-0.205 13.456,-0.362 -0.582,0.141 -1.16,0.293 -1.739,0.443 C 7.89,0.792 3.892,-0.09 0,0"
             style="fill:#231f20;fill-opacity:1;fill-rule:nonzero;stroke:none"
             id="path61837" />
        </g>
        <g
           id="g61839"
           transform="translate(36.211,225.0044)">
          <path
             d="M 0,0 2667.667,-1.289"
             style="fill:none;stroke:#231f20;stroke-width:6;stroke-linecap:butt;stroke-linejoin:miter;stroke-miterlimit:10;stroke-dasharray:none;stroke-opacity:1"
             id="path61841" />
        </g>
        <g
           id="g61843"
           transform="translate(1e-4,225.022)">
          <path
             d="M 0,0 C 17.036,-6.331 38.171,-17.128 51.271,-28.56 L 40.963,-0.02 51.298,28.504 C 38.188,17.085 17.042,6.308 0,0"
             style="fill:#231f20;fill-opacity:1;fill-rule:nonzero;stroke:none"
             id="path61845" />
        </g>
        <g
           id="g61847"
           transform="translate(2740.0889,223.6982)">
          <path
             d="M 0,0 C -17.042,-6.314 -38.188,-17.091 -51.299,-28.51 L -40.963,0.02 -51.271,28.554 C -38.172,17.122 -17.036,6.325 0,0"
             style="fill:#231f20;fill-opacity:1;fill-rule:nonzero;stroke:none"
             id="path61849" />
        </g>
        <g
           id="g61851"
           transform="translate(1299.528,1606.6816)">
          <path
             d="M 0,0 -14.346,-1380.417"
             style="fill:none;stroke:#231f20;stroke-width:6;stroke-linecap:butt;stroke-linejoin:miter;stroke-miterlimit:10;stroke-dasharray:none;stroke-opacity:1"
             id="path61853" />
        </g>
        <g
           id="g61855"
           transform="translate(1299.9044,1642.8906)">
          <path
             d="m 0,0 c -6.499,-16.973 -17.505,-38 -29.066,-50.985 l 28.64,10.024 28.421,-10.617 C 16.706,-38.355 6.139,-17.104 0,0"
             style="fill:#231f20;fill-opacity:1;fill-rule:nonzero;stroke:none"
             id="path61857" />
        </g>
        <g
           id="g61859"
           transform="translate(1543.3263,517.79)">
          <path
             d="M 0,0 0.034,-10"
             style="fill:none;stroke:#231f20;stroke-width:6;stroke-linecap:butt;stroke-linejoin:miter;stroke-miterlimit:10;stroke-dasharray:none;stroke-opacity:1"
             id="path61861" />
        </g>
        <g
           id="g61863"
           transform="translate(1543.4308,487.1455)">
          <path
             d="M 0,0 1.232,-361.273"
             style="fill:none;stroke:#231f20;stroke-width:6;stroke-linecap:butt;stroke-linejoin:miter;stroke-miterlimit:10;stroke-dasharray:20.644, 20.644;stroke-dashoffset:0;stroke-opacity:1"
             id="path61865" />
        </g>
        <g
           id="g61867"
           transform="translate(1544.6984,115.5498)">
          <path
             d="M 0,0 0.034,-10"
             style="fill:none;stroke:#231f20;stroke-width:6;stroke-linecap:butt;stroke-linejoin:miter;stroke-miterlimit:10;stroke-dasharray:none;stroke-opacity:1"
             id="path61869" />
        </g>
        <g
           id="g61871"
           transform="translate(1040.3536,517.79)">
          <path
             d="M 0,0 0.034,-10"
             style="fill:none;stroke:#231f20;stroke-width:6;stroke-linecap:butt;stroke-linejoin:miter;stroke-miterlimit:10;stroke-dasharray:none;stroke-opacity:1"
             id="path61873" />
        </g>
        <g
           id="g61875"
           transform="translate(1040.4581,487.1455)">
          <path
             d="M 0,0 1.232,-361.273"
             style="fill:none;stroke:#231f20;stroke-width:6;stroke-linecap:butt;stroke-linejoin:miter;stroke-miterlimit:10;stroke-dasharray:20.644, 20.644;stroke-dashoffset:0;stroke-opacity:1"
             id="path61877" />
        </g>
        <g
           id="g61879"
           transform="translate(1041.7257,115.5498)">
          <path
             d="M 0,0 0.034,-10"
             style="fill:none;stroke:#231f20;stroke-width:6;stroke-linecap:butt;stroke-linejoin:miter;stroke-miterlimit:10;stroke-dasharray:none;stroke-opacity:1"
             id="path61881" />
        </g>
      </g>
    </g>
    <text
       xml:space="preserve"
       transform="matrix(1,0,0,-1,1420.0205,1090.9624)"
       style="font-variant:normal;font-weight:normal;font-stretch:normal;font-size:115px;font-family:Kalam;-inkscape-font-specification:Kalam-Regular;writing-mode:lr-tb;fill:#231f20;fill-opacity:1;fill-rule:nonzero;stroke:none"
       id="text61885"><tspan
         x="0 62.445 118.22 192.395 234.715"
         y="0"
         id="tspan61883">P(D|H</tspan></text>
    <text
       xml:space="preserve"
       transform="matrix(1,0,0,-1,1731.7817,1090.9624)"
       style="font-variant:normal;font-weight:normal;font-stretch:normal;font-size:72px;font-family:Kalam;-inkscape-font-specification:Kalam-Regular;writing-mode:lr-tb;fill:#231f20;fill-opacity:1;fill-rule:nonzero;stroke:none"
       id="text61889"><tspan
         x="0"
         y="0"
         id="tspan61887">1</tspan></text>
    <text
       xml:space="preserve"
       transform="matrix(1,0,0,-1,1754.3892,1090.9624)"
       style="font-variant:normal;font-weight:normal;font-stretch:normal;font-size:115px;font-family:Kalam;-inkscape-font-specification:Kalam-Regular;writing-mode:lr-tb;fill:#231f20;fill-opacity:1;fill-rule:nonzero;stroke:none"
       id="text61893"><tspan
         x="0"
         y="0"
         id="tspan61891">)</tspan></text>
    <g
       id="g61895">
      <g
         id="g61897"
         clip-path="url(#clipPath61901)">
        <text
           xml:space="preserve"
           transform="matrix(1,0,0,-1,2660.1118,54.1641)"
           style="font-variant:normal;font-weight:normal;font-stretch:normal;font-size:115px;font-family:Kalam;-inkscape-font-specification:Kalam-Regular;writing-mode:lr-tb;fill:#231f20;fill-opacity:1;fill-rule:nonzero;stroke:none"
           id="text61905"><tspan
             x="0"
             y="0"
             id="tspan61903">D</tspan></text>
      </g>
    </g>
    <text
       xml:space="preserve"
       transform="matrix(1,0,0,-1,1868.2183,390.0859)"
       style="font-variant:normal;font-weight:normal;font-stretch:normal;font-size:115px;font-family:Kalam;-inkscape-font-specification:Kalam-Regular;writing-mode:lr-tb;fill:#231f20;fill-opacity:1;fill-rule:nonzero;stroke:none"
       id="text61909"><tspan
         x="0 62.445 118.22 192.395 234.715"
         y="0"
         id="tspan61907">P(D|H</tspan></text>
    <text
       xml:space="preserve"
       transform="matrix(1,0,0,-1,2179.9795,390.0859)"
       style="font-variant:normal;font-weight:normal;font-stretch:normal;font-size:72px;font-family:Kalam;-inkscape-font-specification:Kalam-Regular;writing-mode:lr-tb;fill:#231f20;fill-opacity:1;fill-rule:nonzero;stroke:none"
       id="text61913"><tspan
         x="0"
         y="0"
         id="tspan61911">2</tspan></text>
    <text
       xml:space="preserve"
       transform="matrix(1,0,0,-1,2221.8115,390.0859)"
       style="font-variant:normal;font-weight:normal;font-stretch:normal;font-size:115px;font-family:Kalam;-inkscape-font-specification:Kalam-Regular;writing-mode:lr-tb;fill:#231f20;fill-opacity:1;fill-rule:nonzero;stroke:none"
       id="text61917"><tspan
         x="0"
         y="0"
         id="tspan61915">)</tspan></text>
    <g
       id="g61919">
      <g
         id="g61921"
         clip-path="url(#clipPath61925)">
        <g
           id="g61927"
           transform="translate(1092.6725,144.6602)">
          <path
             d="M 0,0 C -1.775,11.122 7.744,22.769 10.15,34.237 -7.287,19.933 -26.918,10.229 -47.566,2.132 -26.893,-5.987 -7.248,-15.694 10.157,-29.988 7.332,-20.267 1.024,-8.324 0,0"
             style="fill:#231f20;fill-opacity:1;fill-rule:nonzero;stroke:none"
             id="path61929" />
        </g>
        <g
           id="g61931"
           transform="translate(1485.3258,178.897)">
          <path
             d="M 0,0 C 4.16,-9.599 6.636,-22.057 11.495,-29.865 8.627,-37.33 5.086,-52.75 0.001,-64.222 17.434,-49.92 37.067,-40.216 57.722,-32.109 37.065,-24.002 17.431,-14.298 0,0"
             style="fill:#231f20;fill-opacity:1;fill-rule:nonzero;stroke:none"
             id="path61933" />
        </g>
      </g>
    </g>
    <text
       xml:space="preserve"
       transform="matrix(1,0,0,-1,1267.0728,99.6738)"
       style="font-variant:normal;font-weight:normal;font-stretch:normal;font-size:115px;font-family:Kalam;-inkscape-font-specification:Kalam-Regular;writing-mode:lr-tb;fill:#231f20;fill-opacity:1;fill-rule:nonzero;stroke:none"
       id="text61937"><tspan
         x="0"
         y="0"
         id="tspan61935">c</tspan></text>
  </g>
</svg>
