<?xml version="1.0" encoding="UTF-8" standalone="no"?>
<!-- Created with Inkscape (http://www.inkscape.org/) -->

<svg
   version="1.1"
   id="svg63707"
   width="655.28534"
   height="197.29868"
   viewBox="0 0 655.28534 197.29868"
   xmlns="http://www.w3.org/2000/svg"
   xmlns:svg="http://www.w3.org/2000/svg">
  <defs
     id="defs63711">
    <clipPath
       clipPathUnits="userSpaceOnUse"
       id="clipPath63721">
      <path
         d="M 0,0 H 491.464 V 147.974 H 0 Z"
         id="path63719" />
    </clipPath>
    <clipPath
       clipPathUnits="userSpaceOnUse"
       id="clipPath63817">
      <path
         d="M 0,0 H 491.464 V 147.974 H 0 Z"
         id="path63815" />
    </clipPath>
  </defs>
  <g
     id="g63713"
     transform="matrix(1.3333333,0,0,-1.3333333,0,197.29867)">
    <g
       id="g63715">
      <g
         id="g63717"
         clip-path="url(#clipPath63721)">
        <g
           id="g63723"
           transform="translate(159.8706,92.7744)">
          <path
             d="m 0,0 c -0.792,-0.466 -0.921,-1.143 -1.266,-1.666 -0.387,-0.587 -0.856,-0.972 -1.593,-0.723 -0.771,0.262 -1.185,0.838 -1.125,1.643 0.041,0.55 0.192,1.102 0.371,1.628 0.875,2.57 1.75,5.14 2.685,7.689 0.257,0.701 0.14,1.082 -0.574,1.223 -0.548,0.108 -1.107,0.203 -1.663,0.217 -4.717,0.113 -9.435,0.281 -14.15,-0.052 -0.877,-0.062 -1.757,-0.111 -2.636,-0.116 -21.273,-0.119 -42.548,-0.054 -63.82,-0.43 -2.094,-0.038 -4.131,0.297 -6.184,0.646 -1.067,0.181 -2.544,0.661 -3.196,-0.23 -0.738,-1.007 0.512,-2.021 1.07,-2.925 1.009,-1.636 2.019,-3.264 2.764,-5.043 0.252,-0.602 0.498,-1.233 0.016,-1.807 -0.593,-0.706 -1.324,-0.336 -1.994,-0.122 -1.571,0.503 -2.297,1.825 -3.125,3.768 -0.449,-3.49 -0.446,-6.396 -0.206,-9.308 0.051,-0.621 0.442,-1.342 -0.221,-1.774 -0.703,-0.458 -1.542,-0.427 -2.284,0.008 -1.149,0.673 -2.053,1.522 -2.019,3.017 0.015,0.711 0.123,1.44 -0.209,2.21 -0.514,-0.001 -1.082,-0.113 -1.586,0.02 -1.304,0.343 -1.855,1.165 -1.597,2.506 0.225,1.172 0.583,2.328 0.991,3.452 0.736,2.025 1.837,3.913 2.251,6.061 0.128,0.662 0.633,1.064 1.115,1.506 0.822,0.753 1.863,1.224 2.565,2.139 0.627,0.816 1.607,0.572 2.465,0.568 7.12,-0.025 14.239,-0.083 21.359,-0.104 14.546,-0.044 29.092,-0.09 43.638,-0.1 16.477,-0.012 32.954,0 49.43,0.037 2.797,0.006 5.594,0.169 8.39,0.292 2.515,0.11 4.594,-1.369 5.047,-3.833 0.36,-1.961 0.626,-3.947 0.494,-5.963 -0.716,-10.931 -1.25,-21.873 -2.111,-32.795 -0.308,-3.905 -0.404,-7.827 -0.495,-11.743 -0.063,-2.686 0.188,-2.96 2.815,-2.957 6.959,0.012 13.919,0.056 20.876,0.189 8.316,0.158 16.629,0.43 24.943,0.629 1.117,0.026 2.237,-0.104 3.356,-0.125 13.594,-0.259 27.162,-1.168 40.749,-1.589 0.957,-0.029 1.92,-0.019 2.875,0.044 1.223,0.079 1.881,0.798 1.981,2.002 0.052,0.636 0.081,1.282 0.031,1.917 -0.566,7.201 -0.071,14.388 0.239,21.579 0.273,6.311 0.596,12.624 0.683,18.939 0.078,5.679 0.423,11.346 0.56,17.02 0.241,9.959 -1.022,19.8 -1.619,29.691 -0.105,1.755 -0.179,3.517 -0.134,5.273 0.048,1.89 0.526,2.331 2.43,2.597 0.474,0.066 0.959,0.114 1.434,0.086 9.826,-0.573 19.669,-0.464 29.502,-0.75 15.75,-0.456 31.505,-0.715 47.261,-0.926 11.995,-0.161 23.989,-0.491 35.984,-0.677 8.311,-0.129 16.622,-0.141 24.934,-0.208 0.399,-0.003 0.801,-0.005 1.198,-0.052 2.071,-0.245 2.42,-0.871 1.19,-2.492 -0.647,-0.855 -0.493,-1.658 -0.307,-2.488 0.367,-1.638 0.847,-3.25 1.253,-4.879 0.302,-1.218 0.47,-2.315 -1.111,-2.944 -1.095,-0.435 -0.903,-1.617 -0.75,-2.542 0.278,-1.67 0.276,-3.344 0.315,-5.023 0.016,-0.745 -0.002,-1.472 -0.791,-1.849 -0.913,-0.435 -1.73,-0.132 -2.445,0.457 -0.962,0.794 -1.08,1.939 -1.062,3.067 0.021,1.452 -0.323,2.612 -1.64,3.481 -1.214,0.802 -1.298,2.096 -1.006,3.449 0.524,2.427 1.201,4.809 1.944,7.177 0.61,1.947 0.394,2.253 -1.648,2.339 -6.071,0.254 -12.135,0.383 -18.218,-0.011 -6.546,-0.424 -13.114,-0.036 -19.671,0.054 -7.358,0.1 -14.714,0.266 -22.07,0.422 -13.035,0.278 -26.07,0.575 -39.106,0.851 -1.439,0.03 -2.883,0.033 -4.318,-0.06 -1.491,-0.097 -1.701,-0.44 -1.221,-1.82 0.637,-1.835 1.858,-3.347 2.864,-4.976 0.208,-0.338 0.54,-0.604 0.72,-0.953 0.574,-1.112 0.024,-1.941 -1.212,-1.831 -0.903,0.08 -1.633,0.614 -2.422,0.997 -1.119,0.544 -1.389,0.41 -1.486,-0.846 -0.106,-1.355 -0.147,-2.726 0.168,-4.062 0.215,-0.92 0.383,-1.744 -0.781,-2.151 -1.426,-0.498 -2.833,-0.135 -3.359,0.953 -0.206,0.425 -0.322,0.908 -0.397,1.377 -0.212,1.349 -0.475,2.671 -1.111,3.904 -0.503,0.975 -0.336,2.033 -0.207,3.065 0.179,1.428 0.44,2.847 0.58,4.278 0.163,1.657 -0.07,1.929 -1.775,2.107 -1.352,0.14 -2.712,0.234 -4.07,0.255 -3.839,0.057 -7.678,0.087 -11.518,0.084 -2.213,-0.001 -2.402,-0.127 -2.336,-2.284 0.126,-4.075 0.24,-8.159 0.607,-12.216 0.882,-9.736 0.947,-19.477 0.49,-29.23 -0.323,-6.868 -0.743,-13.732 -1.025,-20.602 -0.275,-6.712 -0.487,-13.427 -0.618,-20.143 -0.075,-3.914 0.06,-7.832 0.105,-11.748 0.045,-3.897 -2.015,-5.886 -5.892,-5.662 -5.986,0.344 -11.971,0.709 -17.958,1.038 -5.028,0.276 -10.05,0.59 -15.095,0.577 -5.114,-0.013 -10.211,0.727 -15.338,0.596 -1.599,-0.04 -3.203,-0.003 -4.798,-0.108 -1.836,-0.121 -2.238,-0.66 -1.847,-2.473 0.461,-2.137 1.433,-4.064 2.691,-5.844 0.229,-0.325 0.564,-0.584 0.759,-0.925 0.554,-0.965 0.064,-1.668 -1.064,-1.752 -0.921,-0.069 -1.871,1.138 -2.636,0.196 -0.557,-0.686 0.132,-1.691 0.124,-2.561 -0.008,-1.066 -0.695,-1.39 -1.606,-1.271 -1.196,0.154 -2.135,0.843 -2.576,1.925 -0.475,1.166 -1.048,2.058 -2.282,2.58 -1.099,0.464 -1.414,1.468 -0.975,2.62 0.342,0.896 0.741,1.772 1.06,2.675 0.266,0.749 0.556,1.514 0.655,2.294 0.206,1.613 -0.305,2.251 -1.941,2.31 -2.316,0.083 -4.637,0.073 -6.955,0.033 -5.272,-0.093 -10.546,-0.164 -15.814,-0.365 -4.179,-0.16 -8.309,0.198 -12.41,0.891 -3.304,0.557 -3.69,1.126 -3.752,4.398 -0.159,8.408 0.602,16.781 0.95,25.17 0.319,7.67 0.596,15.342 0.891,23.013 0.016,0.4 0.029,0.799 0.031,1.199 C 29.487,9.35 29.344,9.445 26.333,9.8 20.267,10.516 14.19,10.102 8.117,10.071 7.957,10.07 7.796,10.059 7.638,10.042 5.365,9.792 5.205,9.566 5.716,7.343 6.253,5.005 6.828,2.674 7.311,0.324 7.657,-1.357 7.611,-1.433 5.798,-1.679 4.937,-1.796 4.787,-2.275 4.674,-2.946 4.369,-4.759 4.072,-6.573 3.716,-8.376 3.447,-9.734 2.93,-9.99 1.721,-9.483 c -1.498,0.629 -2.165,1.735 -1.974,3.432 0.151,1.35 0.415,2.687 0.572,4.035 C 0.391,-1.399 0.427,-0.75 0,0"
             style="fill:#231f20;fill-opacity:1;fill-rule:nonzero;stroke:none"
             id="path63725" />
        </g>
        <g
           id="g63727"
           transform="translate(435.9346,14.4922)">
          <path
             d="M 0,0 C 1.198,0.423 2.125,1.393 3.129,0.533 4.163,-0.353 3.343,-1.414 3.056,-2.348 2.607,-3.805 1.84,-5.127 1.063,-6.437 0.49,-7.402 -0.005,-8.396 -0.116,-9.549 c -0.098,-1.009 -0.082,-1.908 0.992,-2.453 0.649,-0.329 1.347,-0.792 1.003,-1.659 -0.362,-0.915 -1.266,-0.875 -2.067,-0.79 -4.308,0.46 -8.628,0.28 -12.946,0.305 -9.037,0.05 -18.075,0.117 -27.112,0.215 -7.356,0.08 -14.711,0.284 -22.067,0.314 -15.435,0.063 -30.87,0.037 -46.304,0.072 -7.757,0.018 -15.523,0.025 -23.257,0.597 -4.495,0.332 -8.93,-0.006 -13.4,-0.15 -6.87,-0.22 -13.756,-0.16 -20.628,0.037 -6.158,0.177 -12.31,0.143 -18.466,0.116 -3.278,-0.015 -6.556,0.003 -9.834,0.008 -23.347,0.036 -46.695,0.073 -70.043,0.108 -20.154,0.031 -40.308,-0.017 -60.461,0.116 -14.711,0.098 -29.421,0.387 -44.134,0.204 -1.438,-0.017 -2.873,-0.165 -4.311,-0.206 -0.819,-0.023 -1.812,0.048 -1.837,1.084 -0.049,2.068 -1.496,3.279 -2.575,4.729 -0.667,0.895 -1.398,1.745 -2.062,2.644 -0.279,0.379 -0.548,0.838 -0.25,1.325 0.343,0.559 0.93,0.64 1.485,0.479 0.675,-0.196 1.315,-0.514 2.085,-0.826 0.51,0.842 0.332,1.729 0.274,2.557 -0.193,2.711 -0.451,5.418 -0.68,8.126 -0.04,0.479 -0.095,0.958 -0.089,1.437 0.008,0.727 0.01,1.541 0.956,1.681 0.939,0.141 1.771,-0.177 2.177,-1.102 0.426,-0.969 0.409,-2.03 0.457,-3.067 0.163,-3.495 0.644,-6.961 0.596,-10.831 1.489,0.815 1.752,2.066 2.43,2.961 0.334,0.442 0.476,1.039 0.989,1.332 0.699,0.4 1.41,0.296 2.029,-0.161 0.797,-0.589 0.435,-1.293 0.037,-1.905 -1.271,-1.957 -2.213,-4.076 -3.08,-6.227 -0.499,-1.234 -0.271,-1.609 1.086,-1.626 3.038,-0.04 6.076,-0.132 9.112,-0.168 13.35,-0.163 26.705,-0.066 40.053,-0.339 16.629,-0.34 33.258,-0.234 49.887,-0.38 19.913,-0.176 39.827,-0.235 59.74,-0.339 0.799,-0.005 1.607,-0.022 2.396,0.081 1.167,0.151 1.4,0.612 0.799,1.602 -0.664,1.09 -1.402,2.139 -2.144,3.18 -0.563,0.79 -1.061,1.611 -1.251,2.568 -0.222,1.115 0.325,1.657 1.444,1.577 0.812,-0.058 1.375,-0.845 2.257,-0.719 0.762,0.884 0.49,1.971 0.573,2.98 0.084,1.009 0.223,2.017 1.488,2.082 1.127,0.058 1.71,-0.716 2.004,-1.722 0.067,-0.23 0.076,-0.475 0.134,-0.707 0.379,-1.524 0.381,-1.521 1.819,-1.108 0.382,0.11 0.766,0.249 1.157,0.28 0.659,0.05 1.29,-0.09 1.696,-0.681 0.463,-0.677 0.061,-1.205 -0.352,-1.717 -1.153,-1.434 -2.287,-2.89 -3.129,-4.533 -1.258,-2.451 -0.879,-3.116 1.859,-3.121 8.558,-0.016 17.116,-0.01 25.673,0.036 13.276,0.071 26.549,-0.392 39.821,-0.368 13.59,0.023 27.181,0.43 40.774,0.405 4.237,-0.007 8.473,-0.151 12.71,-0.218 2.16,-0.033 4.321,-0.09 6.478,-0.039 13.187,0.318 26.374,0.138 39.562,0.03 8.955,-0.074 17.912,-0.336 26.868,-0.046 0.319,0.01 0.64,-0.006 0.96,0.01 2.156,0.104 2.375,0.543 1.221,2.468 -0.205,0.343 -0.435,0.67 -0.661,1 -1.505,2.199 -1.502,2.33 0.896,3.358 0.92,0.394 1.076,1.095 1.175,1.899 0.193,1.601 0.013,3.196 -0.109,4.79 -0.172,2.235 -0.328,4.469 -0.001,6.702 0.069,0.474 0.136,0.951 0.263,1.411 0.189,0.688 0.653,1.083 1.389,1.097 0.658,0.013 1.011,-0.408 1.258,-0.94 C -0.89,9.414 -0.847,8.457 -0.797,7.493 -0.688,5.418 -0.555,3.344 -0.396,1.271 -0.366,0.892 -0.168,0.523 0,0"
             style="fill:#231f20;fill-opacity:1;fill-rule:nonzero;stroke:none"
             id="path63729" />
        </g>
        <g
           id="g63731"
           transform="translate(159.4448,53.3799)">
          <path
             d="m 0,0 c 0.94,2.168 0.723,4.171 0.751,6.143 0.017,1.198 -0.009,2.397 0.056,3.592 0.035,0.655 0.256,1.319 1.07,1.36 0.786,0.04 1.391,-0.346 1.703,-1.082 C 3.901,9.252 3.776,8.438 3.801,7.641 3.857,5.826 3.619,3.994 3.997,2.209 4.884,1.86 5.231,2.579 5.731,2.884 6.539,3.375 7.349,3.558 8.227,3.118 9.138,2.662 9.464,1.769 8.73,1.232 7.07,0.02 6.556,-1.881 5.548,-3.482 5.293,-3.889 5.071,-4.315 4.81,-4.717 3.336,-6.978 2.365,-7.158 0.518,-5.25 c -1.385,1.431 -2.574,3.052 -3.826,4.608 -0.245,0.305 -0.405,0.689 -0.561,1.054 -0.189,0.446 -0.339,0.933 0.038,1.348 0.46,0.505 1.027,0.32 1.559,0.132 C -1.415,1.588 -0.921,0.804 0,0"
             style="fill:#231f20;fill-opacity:1;fill-rule:nonzero;stroke:none"
             id="path63733" />
        </g>
        <g
           id="g63735"
           transform="translate(314.4668,54.7061)">
          <path
             d="m 0,0 c -0.05,1.105 0.545,1.528 1.443,1.652 1.349,0.186 2.473,-0.536 2.933,-1.884 0.103,-0.301 0.145,-0.622 0.234,-0.929 0.191,-0.66 0.115,-1.62 0.973,-1.721 0.735,-0.086 0.859,0.823 1.161,1.349 0.488,0.85 0.961,1.671 2.092,1.747 1.225,0.082 1.894,-0.648 1.413,-1.744 C 9.285,-3.729 8.453,-5.923 8.149,-8.35 8.015,-9.42 7.46,-10.716 5.988,-10.921 4.878,-11.076 3.449,-10.316 2.96,-8.982 1.972,-6.29 0.771,-3.666 0.132,-0.852 0.061,-0.541 0.033,-0.221 0,0"
             style="fill:#231f20;fill-opacity:1;fill-rule:nonzero;stroke:none"
             id="path63737" />
        </g>
        <g
           id="g63739"
           transform="translate(321.4932,82.3203)">
          <path
             d="m 0,0 c 0.001,-1.596 0.06,-3.195 -0.014,-4.788 -0.059,-1.308 -0.641,-1.684 -1.884,-1.412 -1.474,0.322 -2.481,1.303 -2.476,2.81 0.013,3.751 -0.125,7.512 0.405,11.245 0.023,0.159 0.041,0.319 0.082,0.472 0.244,0.936 0.426,1.929 1.714,1.952 C -1.075,10.3 0.016,9.495 0.278,8.364 0.402,7.829 0.434,7.245 0.371,6.699 0.119,4.471 0.149,2.234 0,0"
             style="fill:#231f20;fill-opacity:1;fill-rule:nonzero;stroke:none"
             id="path63741" />
        </g>
        <g
           id="g63743"
           transform="translate(64.5918,68.1719)">
          <path
             d="m 0,0 c 0.002,-1.909 0.049,-3.819 -0.01,-5.727 -0.041,-1.372 -0.708,-1.811 -2.034,-1.497 -1.638,0.388 -2.387,1.39 -2.309,3.09 0.165,3.578 0.319,7.157 0.503,10.735 0.047,0.919 -0.135,2.031 1.235,2.214 C -1.322,8.988 -0.013,8.086 0.077,6.683 0.22,4.464 0.119,2.229 0.122,0 Z"
             style="fill:#231f20;fill-opacity:1;fill-rule:nonzero;stroke:none"
             id="path63745" />
        </g>
        <g
           id="g63747"
           transform="translate(321.6855,64.7061)">
          <path
             d="m 0,0 c -0.165,-1.797 -0.331,-3.776 -0.534,-5.751 -0.102,-0.994 -0.369,-1.906 -1.606,-2.018 -1.131,-0.102 -2.4,0.803 -2.677,1.939 -0.076,0.303 -0.087,0.632 -0.069,0.945 0.185,3.013 0.347,6.027 0.589,9.034 0.15,1.861 0.61,2.433 1.68,2.413 1.38,-0.029 2.482,-1.048 2.595,-2.569 C 0.07,2.729 -0.002,1.454 0,0"
             style="fill:#231f20;fill-opacity:1;fill-rule:nonzero;stroke:none"
             id="path63749" />
        </g>
        <g
           id="g63751"
           transform="translate(59.772,44.1211)">
          <path
             d="M 0,0 C -0.001,1.919 -0.014,3.837 -0.001,5.756 0.005,6.658 0.037,7.589 1.26,7.702 2.314,7.8 3.362,7.119 3.607,6.061 3.786,5.291 3.852,4.472 3.82,3.681 3.686,0.326 3.493,-3.026 3.329,-6.38 3.28,-7.378 3.211,-8.371 1.905,-8.487 0.832,-8.583 -0.246,-7.684 -0.368,-6.462 -0.584,-4.304 -0.251,-2.152 0,0"
             style="fill:#231f20;fill-opacity:1;fill-rule:nonzero;stroke:none"
             id="path63753" />
        </g>
        <g
           id="g63755"
           transform="translate(434.1523,111.0015)">
          <path
             d="m 0,0 c 0.001,-1.27 0.037,-2.541 -0.01,-3.809 -0.028,-0.749 -0.311,-1.455 -1.15,-1.613 -0.856,-0.161 -1.768,-0.282 -2.421,0.526 -0.659,0.818 -1.297,1.722 -1.02,2.817 0.599,2.369 0.226,4.745 0.212,7.12 -0.003,0.476 -0.062,0.959 -0.01,1.429 0.141,1.305 0.994,1.766 2.17,1.206 0.948,-0.45 1.348,-1.294 1.635,-2.234 C -0.048,3.662 -0.18,1.82 0,0"
             style="fill:#231f20;fill-opacity:1;fill-rule:nonzero;stroke:none"
             id="path63757" />
        </g>
        <g
           id="g63759"
           transform="translate(317.7314,104.2407)">
          <path
             d="M 0,0 C -0.116,1.287 0.006,2.964 0.221,4.626 0.419,6.167 1.395,6.59 2.766,5.827 3.602,5.361 4.108,4.645 4.117,3.705 4.142,0.911 4.418,-1.867 4.55,-4.652 4.651,-6.783 4.318,-7.205 3.261,-7.207 1.661,-7.209 0.307,-6.032 0.184,-4.462 0.115,-3.588 0.166,-2.706 0.142,-1.827 0.128,-1.349 0.069,-0.872 0,0"
             style="fill:#231f20;fill-opacity:1;fill-rule:nonzero;stroke:none"
             id="path63761" />
        </g>
        <g
           id="g63763"
           transform="translate(322.8447,118.0801)">
          <path
             d="M 0,0 C 0.006,-0.08 0.02,-0.16 0.015,-0.238 -0.04,-1.161 0.884,-2.37 -0.687,-2.855 -1.767,-3.189 -3.716,-2.34 -4.071,-1.161 -4.855,1.442 -5.113,4.144 -4.819,6.861 -4.723,7.75 -4,7.957 -3.207,7.881 -1.858,7.752 -0.798,6.749 -0.566,5.223 -0.304,3.493 -0.155,1.745 0.043,0.005 0.028,0.003 0.015,0.001 0,0"
             style="fill:#231f20;fill-opacity:1;fill-rule:nonzero;stroke:none"
             id="path63765" />
        </g>
        <g
           id="g63767"
           transform="translate(431.9424,39.5049)">
          <path
             d="m 0,0 c -0.176,1.433 -0.581,2.851 -0.326,4.292 0.14,0.794 0.26,1.675 1.25,1.814 C 2.021,6.261 2.58,5.44 2.744,4.572 3.336,1.437 3.775,-1.723 3.751,-4.928 3.746,-5.622 3.548,-6.197 2.852,-6.46 2.199,-6.706 1.594,-6.531 1.049,-6.137 0.264,-5.568 0.026,-4.733 0.01,-3.826 -0.014,-2.551 0.002,-1.275 0,0"
             style="fill:#231f20;fill-opacity:1;fill-rule:nonzero;stroke:none"
             id="path63769" />
        </g>
        <g
           id="g63771"
           transform="translate(229.6841,24.0195)">
          <path
             d="M 0,0 C 0.07,1.112 0.112,2.229 0.222,3.337 0.297,4.096 0.634,4.743 1.468,4.89 2.329,5.041 3.033,4.724 3.522,3.984 4.073,3.152 4.22,2.196 4.235,1.241 4.266,-0.589 4.261,-2.413 4.427,-4.244 4.577,-5.89 3.504,-6.562 1.989,-5.905 0.882,-5.425 0.188,-4.56 0.105,-3.345 0.029,-2.235 0.087,-1.116 0.086,-0.002 0.057,-0.001 0.028,-0.001 0,0"
             style="fill:#231f20;fill-opacity:1;fill-rule:nonzero;stroke:none"
             id="path63773" />
        </g>
        <g
           id="g63775"
           transform="translate(434.7187,92.1787)">
          <path
             d="m 0,0 c -0.107,-1.267 -0.224,-2.769 -0.369,-4.268 -0.054,-0.551 -0.12,-1.148 -0.74,-1.384 -0.703,-0.268 -1.214,0.168 -1.702,0.579 -0.721,0.611 -0.952,1.459 -0.977,2.346 -0.067,2.38 -0.095,4.761 0.238,7.128 0.126,0.898 0.312,1.84 1.43,1.878 C -0.996,6.318 -0.434,5.49 -0.178,4.508 0.187,3.104 -0.12,1.662 0,0"
             style="fill:#231f20;fill-opacity:1;fill-rule:nonzero;stroke:none"
             id="path63777" />
        </g>
        <g
           id="g63779"
           transform="translate(164.0991,74.3857)">
          <path
             d="m 0,0 c 0.001,-1.509 0.121,-3.03 -0.031,-4.521 -0.133,-1.297 -0.894,-1.609 -2.027,-0.995 -1.017,0.553 -1.913,1.297 -1.66,2.615 0.44,2.299 0.162,4.598 0.159,6.9 C -3.56,4.807 -3.903,5.877 -2.707,6.195 -1.682,6.469 -0.075,5.248 0.026,4.053 0.139,2.711 0.054,1.352 0.056,0 Z"
             style="fill:#231f20;fill-opacity:1;fill-rule:nonzero;stroke:none"
             id="path63781" />
        </g>
        <g
           id="g63783"
           transform="translate(434.8594,73.1465)">
          <path
             d="m 0,0 c -0.053,-1.037 -0.079,-2.077 -0.169,-3.111 -0.077,-0.896 -0.516,-1.535 -1.502,-1.527 -0.91,0.007 -1.478,0.536 -1.725,1.391 -0.088,0.303 -0.113,0.631 -0.121,0.948 -0.054,2.156 -0.226,4.317 0.069,6.467 0.1,0.728 0.28,1.496 1.157,1.619 0.813,0.114 1.322,-0.453 1.729,-1.08 C -0.206,4.153 -0.075,3.53 -0.072,2.879 -0.068,1.92 -0.07,0.961 -0.069,0.002 -0.046,0.001 -0.021,0.001 0,0"
             style="fill:#231f20;fill-opacity:1;fill-rule:nonzero;stroke:none"
             id="path63785" />
        </g>
        <g
           id="g63787"
           transform="translate(431.3779,59.0674)">
          <path
             d="M 0,0 C -0.001,1.108 -0.041,2.219 0.012,3.324 0.042,3.971 0.267,4.587 1.019,4.766 1.856,4.965 2.412,4.506 2.765,3.851 3.021,3.374 3.216,2.813 3.247,2.277 3.353,0.46 3.394,-1.362 3.419,-3.184 3.433,-4.109 3.224,-4.963 2.09,-5.096 1.094,-5.212 0.044,-4.415 -0.07,-3.322 -0.185,-2.226 -0.098,-1.108 -0.099,0 Z"
             style="fill:#231f20;fill-opacity:1;fill-rule:nonzero;stroke:none"
             id="path63789" />
        </g>
        <g
           id="g63791"
           transform="translate(421.3008,32.1709)">
          <path
             d="m 0,0 c -0.07,-0.384 -0.315,-0.53 -0.651,-0.373 -0.181,0.084 -0.398,0.3 -0.417,0.477 -0.041,0.37 0.279,0.514 0.59,0.522 C -0.075,0.638 0.003,0.333 0,0"
             style="fill:#231f20;fill-opacity:1;fill-rule:nonzero;stroke:none"
             id="path63793" />
        </g>
        <g
           id="g63795"
           transform="translate(422.3506,28.126)">
          <path
             d="M 0,0 C 0.068,-0.1 0.212,-0.223 0.189,-0.295 0.154,-0.407 0.018,-0.539 -0.096,-0.561 -0.191,-0.579 -0.409,-0.455 -0.41,-0.391 -0.416,-0.146 -0.244,-0.02 0,0"
             style="fill:#231f20;fill-opacity:1;fill-rule:nonzero;stroke:none"
             id="path63797" />
        </g>
        <text
           xml:space="preserve"
           transform="matrix(1,0,0,-1,0,41.5811)"
           style="font-variant:normal;font-weight:bold;font-stretch:normal;font-size:24px;font-family:'Tekton Pro';-inkscape-font-specification:TektonPro-Bold;writing-mode:lr-tb;fill:#231f20;fill-opacity:1;fill-rule:nonzero;stroke:none"
           id="text63801"><tspan
             x="0 15.024 23.063999 35.304001"
             y="0"
             id="tspan63799">H[X]</tspan></text>
      </g>
    </g>
    <text
       xml:space="preserve"
       transform="matrix(1,0,0,-1,102.0972,66.8193)"
       style="font-variant:normal;font-weight:bold;font-stretch:normal;font-size:18px;font-family:'Tekton Pro';-inkscape-font-specification:TektonPro-Bold;writing-mode:lr-tb;fill:#231f20;fill-opacity:1;fill-rule:nonzero;stroke:none"
       id="text63805"><tspan
         x="0 11.268 17.298 20.573999 29.754 34.506001 45.18 48.456001"
         y="0"
         id="tspan63803">H[ X|Y ]</tspan></text>
    <text
       xml:space="preserve"
       transform="matrix(1,0,0,-1,445.001,87.5811)"
       style="font-variant:normal;font-weight:bold;font-stretch:normal;font-size:24px;font-family:'Tekton Pro';-inkscape-font-specification:TektonPro-Bold;writing-mode:lr-tb;fill:#231f20;fill-opacity:1;fill-rule:nonzero;stroke:none"
       id="text63809"><tspan
         x="0 15.024 23.424"
         y="0"
         id="tspan63807">H[Y</tspan></text>
    <g
       id="g63811">
      <g
         id="g63813"
         clip-path="url(#clipPath63817)">
        <text
           xml:space="preserve"
           transform="matrix(1,0,0,-1,483.4238,87.5811)"
           style="font-variant:normal;font-weight:bold;font-stretch:normal;font-size:24px;font-family:'Tekton Pro';-inkscape-font-specification:TektonPro-Bold;writing-mode:lr-tb;fill:#231f20;fill-opacity:1;fill-rule:nonzero;stroke:none"
           id="text63821"><tspan
             x="0"
             y="0"
             id="tspan63819">]</tspan></text>
      </g>
    </g>
    <text
       xml:space="preserve"
       transform="matrix(1,0,0,-1,329.002,87.5811)"
       style="font-variant:normal;font-weight:bold;font-stretch:normal;font-size:18px;font-family:'Tekton Pro';-inkscape-font-specification:TektonPro-Bold;writing-mode:lr-tb;fill:#231f20;fill-opacity:1;fill-rule:nonzero;stroke:none"
       id="text63827"><tspan
         x="0 11.268 17.298 20.573999 31.247999 36 39.276001 48.456001 51.731998"
         y="0"
         id="tspan63823">H[ Y| X ]</tspan><tspan
         x="-80.279999 -76.085999 -72.809998 -66.779999 -63.504002 -54.324001 -50.417999 -39.743999 -36.467999"
         y="68.741997"
         id="tspan63825">I [ X;Y ]</tspan></text>
  </g>
</svg>
