<?xml version="1.0" encoding="UTF-8" standalone="no"?>
<!-- Created with Inkscape (http://www.inkscape.org/) -->

<svg
   version="1.1"
   id="svg66278"
   width="223.028"
   height="206.58932"
   viewBox="0 0 223.028 206.58932"
   xmlns="http://www.w3.org/2000/svg"
   xmlns:svg="http://www.w3.org/2000/svg">
  <defs
     id="defs66282">
    <clipPath
       clipPathUnits="userSpaceOnUse"
       id="clipPath66292">
      <path
         d="M 0,154.942 H 167.271 V 0 H 0 Z"
         id="path66290" />
    </clipPath>
  </defs>
  <g
     id="g66284"
     transform="matrix(1.3333333,0,0,-1.3333333,0,206.58933)">
    <g
       id="g66286">
      <g
         id="g66288"
         clip-path="url(#clipPath66292)">
        <g
           id="g66294"
           transform="translate(146.6553,9.9098)">
          <path
             d="m 0,0 c 3.869,-0.135 7.305,-0.262 10.743,-0.373 2.617,-0.083 2.809,0.154 2.972,2.806 0.226,3.682 -0.017,7.356 -0.223,11.023 -0.268,4.786 -0.623,9.573 -1.151,14.336 -1.013,9.135 -2.191,18.249 -1.725,27.478 0.205,4.063 0.09,8.132 0.266,12.205 0.188,4.374 0.197,8.786 0.191,13.181 -0.012,9.191 0.197,18.382 0.016,27.573 -0.059,3.035 0.198,6.075 0.253,9.113 0.033,1.748 -0.247,2.099 -1.893,2.539 -1.001,0.268 -2.032,0.431 -3.053,0.62 -3.601,0.666 -7.119,1.627 -10.861,1.659 -6.236,0.053 -12.458,-0.007 -18.69,-0.272 -5.185,-0.221 -10.388,-0.03 -15.583,-0.023 -0.72,0.001 -1.443,0.037 -2.158,-0.019 -9.647,-0.759 -19.309,-0.953 -28.98,-0.806 -0.639,0.009 -1.281,0.003 -1.917,-0.051 -5.283,-0.454 -10.536,-0.07 -15.79,0.47 -3.979,0.41 -7.968,0.631 -11.972,0.35 -7.396,-0.52 -14.784,-1.509 -22.214,-0.424 -0.785,0.114 -1.602,0.116 -2.396,0.06 -4.386,-0.309 -8.77,-0.579 -13.174,-0.435 -1.808,0.059 -2.31,-0.428 -2.41,-2.237 -0.123,-2.232 -0.071,-4.475 -0.093,-6.713 -0.033,-3.347 0.138,-6.712 -0.151,-10.037 -0.311,-3.574 -0.824,-7.148 -1.383,-10.69 -0.902,-5.709 -1.306,-11.429 -1.374,-17.189 -0.038,-3.196 -0.381,-6.381 -0.147,-9.589 0.319,-4.382 0.695,-8.773 0.694,-13.16 -0.003,-6.885 1.088,-13.701 1.093,-20.572 0.001,-2.742 0.736,-5.374 0.842,-8.09 0.239,-6.147 0.45,-12.296 1.134,-18.418 0.176,-1.585 0.143,-3.192 0.274,-4.784 0.087,-1.053 0.564,-1.858 1.777,-1.862 3.276,-0.012 6.543,-0.567 9.824,-0.199 4.296,0.483 8.609,0.414 12.92,0.528 3.756,0.098 7.508,-0.117 11.267,0.136 6.058,0.408 12.127,0.761 18.196,0.886 5.832,0.119 11.65,0.503 17.485,0.599 7.105,0.117 14.219,0.319 21.322,0.412 8.225,0.108 16.453,-0.045 24.687,0.093 C -14.12,0.245 -6.835,0.581 0,0 m -127.539,126.057 c 9.127,-0.642 16.655,0.463 24.21,1.131 4.875,0.431 9.757,0.176 14.599,-0.367 6.134,-0.688 12.282,-0.737 18.433,-0.823 3.984,-0.056 7.971,-0.09 11.954,-0.008 5.509,0.113 11.018,0.283 16.522,0.555 2.081,0.103 4.155,0.159 6.229,0.072 6.4,-0.268 12.771,0.404 19.154,0.53 6.38,0.125 12.793,0.181 19.116,-1.072 2.9,-0.575 5.812,-1.049 8.78,-1.192 3.505,-0.168 4.831,-1.525 4.389,-5.055 -0.679,-5.423 -0.625,-10.858 -0.439,-16.269 0.301,-8.728 -0.584,-17.423 -0.444,-26.125 0.148,-9.205 -0.49,-18.379 -0.487,-27.566 10e-4,-4.937 0.403,-9.885 1.003,-14.807 0.541,-4.438 0.853,-8.905 1.295,-13.356 0.632,-6.365 1.154,-12.729 0.853,-19.138 -0.083,-1.77 0.05,-3.529 1.805,-4.669 0.607,-0.395 0.888,-1.128 1.072,-1.833 0.316,-1.205 -0.024,-1.761 -1.302,-2.011 -0.628,-0.123 -1.257,-0.183 -1.837,-0.491 -1.125,-0.598 -2.176,-0.446 -3.075,0.444 -0.991,0.98 -2.222,1.181 -3.529,1.222 -7.588,0.238 -15.169,0.493 -22.768,0.517 -8.87,0.028 -17.722,-0.569 -26.602,-0.286 -9.656,0.309 -19.322,-0.045 -28.981,-0.628 -7.65,-0.462 -12.936,-1.451 -20.604,-1.798 -6.458,-0.293 -12.895,-1.072 -19.34,-1.639 -0.319,-0.028 -0.633,-0.137 -0.949,-0.138 -8.71,-0.016 -17.358,-1.628 -26.092,-1.037 -0.795,0.054 -1.591,0.13 -2.379,0.246 -1.647,0.244 -2.457,1.093 -3.085,2.796 -1.036,2.807 -2.948,8.472 -3.167,11.302 -0.405,5.248 -0.668,10.513 -0.669,15.797 0,6.063 -0.592,12.122 -0.935,18.182 -0.428,7.576 -1.388,15.113 -1.414,22.719 -0.015,4.709 -0.688,9.426 -0.325,14.129 0.609,7.892 0.785,15.807 1.382,23.692 0.404,5.328 1.442,10.609 1.332,15.986 -0.054,2.628 -0.446,5.244 0.182,7.877 0.606,2.547 0.938,3.049 3.482,2.923 4.718,-0.236 9.424,0.554 12.631,0.188"
             style="fill:#000000;fill-opacity:1;fill-rule:nonzero;stroke:none"
             id="path66296" />
        </g>
        <g
           id="g66298"
           transform="translate(7.73,140.3229)">
          <path
             d="m 0,0 c -0.982,-0.033 -1.921,0.094 -2.77,0.62 -0.339,0.21 -0.686,0.443 -0.685,0.903 10e-4,0.569 0.4,0.857 0.863,1.018 0.525,0.183 1.078,0.285 1.617,0.428 1.78,0.473 2.092,0.849 1.904,2.679 -0.105,1.027 -0.371,2.039 -0.603,3.049 -0.801,3.486 -0.144,4.58 3.342,5.549 1.998,0.555 3.933,0.581 5.777,-0.544 2.243,-1.368 3.115,-3.373 2.478,-5.918 C 11.75,7.091 11.43,6.437 11.187,5.761 10.531,3.936 10.528,3.926 12.382,2.95 13.134,2.553 13.773,2.059 13.636,1.124 13.503,0.212 12.655,0.182 11.97,0.042 11.189,-0.118 10.397,-0.264 9.604,-0.312 7.946,-0.412 7.158,0.339 7.433,1.984 7.773,4.021 8.132,6.061 9.005,7.987 9.939,10.049 9.095,11.353 6.829,11.623 5.945,11.728 5.076,11.626 4.227,11.361 2.358,10.776 1.977,10.133 2.418,8.163 2.801,6.451 3.211,4.743 3.649,3.044 4.14,1.142 3.864,0.654 1.896,0.245 1.274,0.116 0.633,0.079 0,0"
             style="fill:#000000;fill-opacity:1;fill-rule:nonzero;stroke:none"
             id="path66300" />
        </g>
        <g
           id="g66302"
           transform="translate(154.1001,3.9532)">
          <path
             d="m 0,0 c -0.32,0 -0.64,-0.02 -0.96,0.01 -0.62,0.05 -1.34,-0.02 -1.6,0.73 -0.21,0.62 0.32,1.01 0.64,1.45 0.63,0.91 1.23,1.84 1.9,2.73 C 0.35,5.42 0.8,5.99 1.54,5.74 2.15,5.53 2.18,4.89 2.24,4.34 2.3,3.79 2.34,3.24 2.4,2.68 2.71,0.14 2.56,-0.03 0,0 m -10.83,0.43 c -1.1,0.13 -2.23,0.01 -3.35,0.1 -0.86,0.07 -1.06,0.61 -0.65,1.35 0.15,0.28 0.34,0.57 0.59,0.75 2.9,2.11 4.57,5.31 6.97,7.87 2.4,2.57 4.62,5.29 6.72,8.11 0.19,0.26 0.41,0.5 1.11,0.55 C 1.17,17.52 1.3,15.87 1.28,14.2 1.28,13.35 0.87,12.69 0.31,12.08 -2.15,9.43 -4.06,6.37 -5.82,3.24 -6.98,1.18 -8.43,0.14 -10.83,0.43 m -11.73,0.44 c -0.55,0.07 -1.12,0.01 -1.67,0.01 v 0.04 c -1.04,0 -2.08,-0.05 -3.12,0 -1.8,0.1 -2.11,0.61 -1.11,1.99 5.47,7.55 10.66,15.31 17.13,22.1 2.85,3 5.44,6.26 8.15,9.4 0.21,0.24 0.4,0.5 0.63,0.72 0.45,0.42 0.85,1.07 1.58,0.86 0.9,-0.25 0.81,-1.11 0.81,-1.8 C -0.14,31.8 0.01,29.41 0.35,27.04 0.55,25.61 0.2,24.47 -1.11,23.53 -2.33,22.66 -3.38,21.5 -4.32,20.33 -8.87,14.67 -13.44,9.04 -17.8,3.24 -19.11,1.5 -20.42,0.59 -22.56,0.87 m -13.25,0.27 c -2.55,0.37 -5.11,0.12 -7.67,0.24 -0.6,0.03 -1.39,-0.2 -1.69,0.55 -0.23,0.6 0.36,1.01 0.67,1.45 3.82,5.28 7.64,10.55 11.46,15.82 0.66,0.92 1.64,2.5 2.2,3.48 2.75,4.76 6.13,9.05 10,12.93 5.8,5.83 11,12.21 16.72,18.12 0.72,0.75 1.36,2.23 2.56,1.75 0.97,-0.39 0.54,-1.87 0.72,-2.86 0.27,-1.49 0.19,-3.02 0,-5.04 -0.02,0 -0.07,-0.37 0.01,-0.7 0.68,-2.6 -0.4,-4.44 -2.38,-6.02 -3.22,-2.57 -5.45,-6.05 -7.95,-9.25 -4.28,-5.45 -9.01,-10.53 -13.15,-16.1 -2.73,-4.75 -6.6,-8.68 -9.52,-13.29 -0.46,-0.73 -1.07,-1.21 -1.98,-1.08 m -16.7,0.25 c -2.72,0.06 -5.43,0.03 -8.14,-0.31 -0.92,-0.12 -2.11,-0.29 -2.64,0.65 -0.48,0.85 0.38,1.64 0.86,2.34 6.85,9.93 13.45,20.07 21.59,29 6.21,6.81 11.74,14.12 17.44,21.31 3.18,4 6.49,7.9 9.66,11.9 1.29,1.62 2.37,3.41 3.57,5.11 2.3,3.24 4.6,6.48 6.92,9.72 0.41,0.57 0.77,1.22 1.73,1.49 0.55,-1.19 0.45,-2.25 0.34,-3.25 -0.34,-3.27 -0.31,-6.53 0,-9.8 0.06,-0.71 -0.03,-1.44 0.03,-2.16 0.26,-3.1 0.02,-5.67 -3.13,-7.72 -3.1,-2.03 -5.23,-5.33 -7.52,-8.32 -2.39,-3.1 -4.99,-6.02 -7.77,-8.79 -4.31,-4.29 -8.44,-8.82 -11.57,-14 -3.19,-5.28 -6.78,-10.26 -10.33,-15.27 -2.5,-3.52 -5.2,-6.88 -7.76,-10.35 -0.85,-1.16 -1.89,-1.58 -3.28,-1.55 M -68.57,1.34 c -4.79,0.01 -9.58,0.06 -14.35,0.53 -1.39,0.13 -1.61,0.63 -0.83,1.91 0.59,0.94 1.3,1.82 1.98,2.71 5.15,6.73 10.44,13.35 15.41,20.21 4.56,6.3 10.05,11.77 15.05,17.68 5.53,6.52 11.02,13.07 16.49,19.65 4.09,4.91 8.27,9.76 12.13,14.85 6.32,8.34 13.13,16.3 19.15,24.88 0.75,1.07 1.14,2.46 2.86,3.32 0.16,-4 0.17,-7.58 -0.15,-11.16 -0.07,-0.8 -0.28,-1.61 -0.18,-2.38 0.28,-2.37 -0.78,-4.12 -2.28,-5.8 -3.42,-3.81 -6.39,-7.98 -9.26,-12.19 -6.14,-9.02 -12.55,-17.83 -19.59,-26.18 -1.4,-1.67 -2.76,-3.38 -3.98,-5.19 -2.76,-4.11 -6.7,-7.14 -9.73,-11 -2.56,-3.27 -5.02,-6.61 -7.57,-9.88 -3.98,-5.12 -7.4,-10.62 -11.25,-15.82 -1.44,-1.96 -3.05,-3.81 -3.9,-6.14 m -19.49,4.1 c -1.01,-2.71 -3.01,-3.45 -5.71,-3.15 -1.42,0.16 -2.87,0.03 -4.31,0.03 V 2.31 c -2.16,0 -4.32,-0.05 -6.48,0.01 -1.83,0.06 -1.98,0.4 -1.11,1.99 2.63,4.78 6.02,9.04 9.13,13.5 4.43,6.36 8.98,12.64 13.93,18.61 3.73,4.48 7.68,8.77 11.28,13.37 5.18,6.63 10.75,12.95 16.19,19.36 3.59,4.23 9.61,11 13.37,15.08 5.34,5.79 10.41,11.83 15.64,17.73 2.75,3.11 5.59,6.15 8.4,9.21 3.18,3.49 6.42,6.92 8.61,11.17 0.65,1.26 1.65,1.88 3.09,1.83 1.44,-0.04 2.88,0.02 4.32,-0.02 1.58,-0.04 1.99,-0.4 1.98,-2.02 -0.01,-1.34 0.18,-2.73 -0.44,-4.01 -0.07,-0.14 -0.19,-0.31 -0.17,-0.45 0.46,-3.13 -1.59,-5.23 -3.11,-7.53 -5.55,-8.39 -12.37,-15.81 -18.14,-24.02 -1.44,-2.03 -2.95,-4.01 -4.56,-5.9 -7.25,-8.44 -13.8,-17.45 -21.48,-25.53 -0.43,-0.45 -0.83,-0.94 -1.2,-1.44 -3.29,-4.6 -6.98,-8.82 -11.11,-12.65 -3.11,-2.89 -5.6,-6.35 -8.34,-9.56 -6.69,-7.85 -12.86,-16.12 -18.98,-24.41 -0.29,-0.39 -0.64,-0.76 -0.8,-1.19 m -22.46,-1.82 c -0.86,-1.19 -1.96,-1.81 -3.47,-1.77 -2.32,0.07 -4.64,-0.04 -6.94,0.39 -2.02,0.38 -2.27,0.91 -1.12,2.69 1.26,1.94 2.6,3.84 3.88,5.77 2.92,4.39 5.74,8.86 8.77,13.18 3.94,5.63 8.31,10.94 12.66,16.26 4.56,5.57 8.58,11.55 13.12,17.14 3.73,4.59 7.52,9.12 11.31,13.67 3.64,4.35 7.25,8.73 10.97,13.01 9.45,10.87 17.99,22.47 27.47,33.31 1.45,1.66 2.89,3.34 4.13,5.17 1.62,2.38 3.88,3.6 11.47,-4.17 4.7,6.78 4.19,6.11 5.54,5.71 -0.05,-1.09 -0.7,-1.61 -1.22,-2.19 -4.43,-4.94 -8.91,-9.83 -13.31,-14.8 -3.7,-4.2 -7.33,-8.45 -10.96,-12.71 -2.03,-2.38 -4.25,-4.56 -6.32,-6.89 -4.58,-5.15 -8.75,-10.64 -13.35,-15.77 -3.32,-3.7 -6.56,-7.47 -9.65,-11.36 -3.17,-3.98 -6.36,-7.95 -9.57,-11.9 -3.48,-4.28 -6.98,-8.53 -10.46,-12.81 -2.55,-3.13 -4.73,-6.57 -7.55,-9.42 -4.74,-4.79 -8.47,-10.41 -11.37,-16.49 -1.06,-2.2 -2.62,-4.06 -4.03,-6.02 m -16.52,1.35 c -0.27,-2.09 -1.66,-2.22 -3.33,-2.11 -1.43,0.09 -2.88,0.02 -4.31,0.02 V 2.83 c -1.92,0 -3.84,-0.06 -5.76,0.02 -1.45,0.06 -1.72,0.58 -0.95,1.83 0.92,1.49 1.83,3.03 3,4.33 6.58,7.34 12.19,15.45 18.33,23.13 2.84,3.54 5.57,7.18 8.27,10.83 3.94,5.32 8.36,10.26 12.57,15.37 7.31,8.86 14.54,17.81 22,26.54 5.85,6.84 10.58,14.47 16.03,21.59 3.83,5.02 7.64,10.06 11.48,15.08 0.47,1.82 1.33,2.69 2.89,2.69 3.51,-0.02 7.03,0.02 10.55,0 0.59,-0.01 1.44,0.18 1.6,-0.65 0.15,-0.71 -0.56,-1.1 -1.07,-1.46 -1.5,-1.06 -3.05,-2.06 -4.24,-3.49 -0.77,-0.92 -1.67,-1.75 -1.53,-3.12 0.06,-0.6 -0.37,-1.03 -0.71,-1.47 -2.94,-3.69 -5.86,-7.39 -8.81,-11.07 -3.68,-4.58 -7.29,-9.23 -11.23,-13.6 -4.24,-4.7 -8.32,-9.53 -12.2,-14.53 -6.62,-8.52 -13.38,-16.92 -19.82,-25.59 -4.76,-6.42 -9.62,-12.79 -14.92,-18.78 -2.47,-2.79 -4.38,-5.93 -6.34,-9.01 -3.4,-5.34 -6.98,-10.52 -10.84,-15.52 -0.25,-0.31 -0.62,-0.63 -0.66,-0.98 m -18.37,2.52 c -0.4,-0.51 -0.65,-1.52 -1.54,-1.2 -0.71,0.25 -0.5,1.11 -0.49,1.71 0.09,3.77 -0.64,7.5 -0.51,11.26 0,1.68 0.01,3.36 0,5.04 -0.01,0.85 0.09,1.54 1.14,1.78 1.33,0.31 2.17,1.31 2.88,2.4 6.28,9.74 13.71,18.62 20.98,27.6 4.93,6.09 13.2,15.88 18.31,21.82 6.95,8.09 13.32,16.66 20.24,24.77 4.25,4.98 8.61,9.89 12.42,15.24 1.72,2.41 3.2,4.98 4.2,7.79 4.34,0.29 8.68,0.29 12.95,-0.58 1.42,-0.29 1.64,-1.01 0.72,-2.25 -1.43,-1.92 -2.97,-3.76 -4.45,-5.65 -4.37,-5.59 -8.37,-11.44 -12.39,-17.28 -3.91,-5.7 -8.14,-11.18 -12.62,-16.45 -7.07,-8.32 -13.51,-17.18 -20.72,-25.39 -4.02,-4.57 -7.87,-9.29 -11.61,-14.09 -4.96,-6.37 -10.02,-12.64 -15.12,-18.89 -3.79,-4.64 -7.71,-9.17 -11.53,-13.78 -1.02,-1.23 -1.86,-2.61 -2.86,-3.85 m -2.92,35.88 c 0,0.63 -0.15,1.29 0.21,1.87 0.44,0.7 1.16,0.33 1.76,0.41 0.9,0.12 1.39,0.74 1.84,1.41 1.32,1.94 2.67,3.86 3.84,5.89 2.16,3.77 4.8,7.22 7.8,10.37 3.42,3.59 5.81,7.93 8.82,11.81 5.25,6.75 10.3,13.65 15.48,20.45 4.88,6.42 9.85,12.78 14.74,19.19 2.43,3.18 4.78,6.41 6.65,9.96 0.68,1.28 1.53,1.91 3.07,1.63 2.77,-0.51 5.58,0.3 8.36,-0.16 0.39,-0.06 0.8,-0.01 1.2,-0.06 1.93,-0.24 2.3,-1.05 1.22,-2.74 -0.26,-0.4 -0.58,-0.77 -0.88,-1.14 -6.04,-7.44 -12.11,-14.87 -18.13,-22.33 -4.67,-5.78 -9.26,-11.63 -13.93,-17.4 -7.6,-9.37 -15.32,-18.64 -22.85,-28.08 -5.82,-7.3 -11.72,-14.57 -16.69,-22.51 -0.46,-0.73 -0.87,-1.51 -1.9,-2.34 -0.3,2.21 -0.65,4 -0.62,5.85 0.04,2.64 0,5.28 0.01,7.92 m 4.27,26.72 c 5.71,10.25 12.91,19.46 19.96,28.77 6.02,7.96 12.19,15.84 17.22,24.47 1.84,3.16 3.86,4.17 7.23,3.8 2.14,-0.24 4.31,-0.21 6.45,-0.51 1.78,-0.25 2.07,-0.85 1.01,-2.37 -1.49,-2.12 -3.05,-4.19 -4.66,-6.22 -3.81,-4.83 -7.46,-9.8 -11.1,-14.76 -6.54,-8.92 -13.5,-17.54 -19.89,-26.55 -4.3,-6.06 -8.83,-11.94 -13.17,-17.97 -1.86,-2.59 -3.4,-5.41 -5.52,-7.82 -0.35,-0.4 -0.54,-1.02 -1.26,-0.98 -0.64,0.43 -0.52,1.13 -0.55,1.74 -0.16,4.15 0.02,8.3 -0.46,12.44 -0.31,2.73 1.25,4.74 4.74,5.96 m -3.74,12.53 c 0.01,3.9 1.28,7.1 3.87,10.13 3.72,4.37 6.6,9.4 9.83,14.15 2.91,4.29 5.75,8.65 9.06,12.66 1.64,1.98 2.97,4.16 4.27,6.36 0.75,1.27 1.68,1.75 3.13,1.68 1.99,-0.11 3.99,0 5.99,-0.05 1.91,-0.04 2.14,-0.49 1.08,-2.13 -3.25,-5.04 -6.77,-9.88 -10.3,-14.72 -7.87,-10.77 -16.23,-21.19 -23.5,-32.39 -0.94,-1.45 -1.7,-3.05 -3.19,-4.27 -0.46,2.9 -0.25,5.74 -0.24,8.58 m 2.43,44.89 c 2.31,0.09 4.62,0.07 6.93,0 1.13,-0.03 1.39,-0.49 0.81,-1.31 -2.7,-3.84 -5.45,-7.65 -8.19,-11.46 -0.13,-0.18 -0.37,-0.28 -0.72,-0.52 -0.69,0.91 -0.69,1.81 -0.72,2.66 -0.1,2.78 -0.16,5.57 -0.14,8.36 0.01,1.8 0.36,2.2 2.03,2.27 m 12.78,-0.55 c 0.22,0.43 0.58,0.81 1.08,0.89 1.82,0.29 3.66,0.3 5.49,0.11 0.74,-0.07 0.91,-0.64 0.57,-1.24 -0.43,-0.77 -0.92,-1.5 -1.43,-2.21 -4.75,-6.74 -9.59,-13.4 -13.95,-20.39 -1.27,-2.03 -2.74,-3.95 -4.4,-5.69 -0.32,-0.34 -0.68,-0.76 -1.22,-0.54 -0.54,0.22 -0.5,0.78 -0.51,1.24 -0.03,1.12 -0.01,2.24 -0.01,3.36 h -0.02 v 3.12 c 0,0.83 0.22,1.59 0.76,2.23 3.3,3.93 5.94,8.33 8.85,12.53 1.54,2.24 3.55,4.13 4.79,6.59 M 6.97,8.81 C 6.03,16.8 5.14,24.78 5.16,32.84 3.76,40.07 4.38,47.41 3.86,54.68 3.77,55.94 4.17,57.24 4.03,58.49 3.74,61.13 3.75,63.76 3.76,66.4 3.8,77.02 3.75,87.63 4.23,98.25 c 0.27,5.81 -0.47,11.67 1.45,17.35 0.38,1.13 0.22,2.29 -0.5,3.42 -0.68,1.06 -1.02,2.34 -1.51,3.52 -0.27,0.65 -0.3,1.29 0.43,1.64 1.14,0.55 1.26,1.8 1.91,2.68 0.59,0.79 0.19,1.35 -0.6,1.69 -1.71,0.74 -3.5,1 -5.37,1.02 -11.74,0.12 -23.46,-0.49 -35.19,-0.56 -5.14,-0.83 -10.32,-0.32 -15.34,0.38 -7.32,1.03 -14.65,1.23 -21.98,1.49 -6.47,0.24 -12.93,0.84 -19.41,0.68 -0.32,-0.01 -0.64,0.03 -0.96,0.05 -6.62,0.3 -13.24,0.66 -19.87,0.89 -6.62,0.22 -13.25,0.67 -19.88,-0.02 -0.39,-0.04 -0.8,-0.01 -1.2,0 -0.08,0 -0.15,0 -0.23,0.01 v -0.27 h -8.19 c 0.17,-0.11 0.3,-0.2 0.39,-0.28 -2.23,0.13 -3.93,-0.26 -5.66,-0.57 -2.11,-0.39 -3.1,-1.79 -3.91,-3.49 -0.43,-0.9 -0.38,-1.88 -0.37,-2.83 0.13,-8.22 -0.43,-16.44 -0.11,-24.66 0.19,-4.99 -0.63,-9.95 -0.39,-14.95 0.03,-0.59 0.02,-1.19 -0.04,-1.78 -0.68,-6.06 -0.95,-12.15 -0.72,-18.22 0.16,-3.95 0.28,-7.91 0.26,-11.86 -0.05,-15.71 -0.05,-31.42 0.45,-47.13 0.08,-2.42 -0.2,-4.82 2.25,-6.35 0.18,-0.11 0.26,-0.4 0.37,-0.61 L 7.64,-0.52 C 7.65,2.61 7.34,5.72 6.97,8.81"
             style="fill:#000000;fill-opacity:1;fill-rule:nonzero;stroke:none"
             id="path66304" />
        </g>
      </g>
    </g>
  </g>
</svg>
