<?xml version="1.0" encoding="UTF-8" standalone="no"?>
<!-- Created with Inkscape (http://www.inkscape.org/) -->

<svg
   version="1.1"
   id="svg66320"
   width="223.028"
   height="206.58932"
   viewBox="0 0 223.028 206.58932"
   xmlns="http://www.w3.org/2000/svg"
   xmlns:svg="http://www.w3.org/2000/svg">
  <defs
     id="defs66324">
    <clipPath
       clipPathUnits="userSpaceOnUse"
       id="clipPath66334">
      <path
         d="M 0,0 H 167.271 V 154.942 H 0 Z"
         id="path66332" />
    </clipPath>
  </defs>
  <g
     id="g66326"
     transform="matrix(1.3333333,0,0,-1.3333333,0,206.58933)">
    <g
       id="g66328">
      <g
         id="g66330"
         clip-path="url(#clipPath66334)">
        <g
           id="g66336"
           transform="translate(146.6553,9.9102)">
          <path
             d="m 0,0 c 3.868,-0.135 7.306,-0.263 10.743,-0.373 2.617,-0.084 2.809,0.154 2.972,2.805 0.226,3.683 -0.018,7.357 -0.223,11.023 -0.268,4.786 -0.623,9.574 -1.151,14.337 -1.013,9.135 -2.191,18.248 -1.725,27.479 0.205,4.061 0.09,8.131 0.266,12.203 0.188,4.375 0.196,8.787 0.191,13.182 -0.01,9.191 0.198,18.381 0.016,27.573 -0.06,3.035 0.198,6.074 0.254,9.113 0.031,1.748 -0.248,2.098 -1.894,2.539 -1.001,0.268 -2.032,0.431 -3.053,0.619 -3.601,0.667 -7.119,1.628 -10.861,1.66 -6.236,0.052 -12.458,-0.007 -18.69,-0.272 -5.186,-0.221 -10.388,-0.03 -15.583,-0.023 -0.719,0.001 -1.443,0.036 -2.158,-0.02 -9.647,-0.758 -19.309,-0.952 -28.981,-0.805 -0.639,0.009 -1.28,0.003 -1.916,-0.052 -5.282,-0.453 -10.536,-0.07 -15.791,0.471 -3.978,0.41 -7.967,0.631 -11.971,0.35 -7.396,-0.52 -14.784,-1.51 -22.214,-0.425 -0.786,0.115 -1.601,0.117 -2.396,0.061 -4.386,-0.309 -8.77,-0.579 -13.175,-0.436 -1.807,0.059 -2.308,-0.427 -2.409,-2.236 -0.123,-2.232 -0.071,-4.475 -0.093,-6.713 -0.033,-3.348 0.139,-6.712 -0.151,-10.037 -0.311,-3.574 -0.824,-7.148 -1.383,-10.69 -0.901,-5.709 -1.306,-11.429 -1.374,-17.19 -0.038,-3.196 -0.381,-6.38 -0.146,-9.589 0.318,-4.381 0.694,-8.772 0.693,-13.158 -0.002,-6.887 1.089,-13.703 1.093,-20.574 0.002,-2.742 0.737,-5.373 0.842,-8.09 0.239,-6.147 0.45,-12.295 1.133,-18.418 0.178,-1.585 0.144,-3.192 0.275,-4.783 0.087,-1.052 0.564,-1.858 1.777,-1.863 3.276,-0.011 6.544,-0.567 9.824,-0.198 4.296,0.482 8.609,0.413 12.919,0.527 3.756,0.099 7.509,-0.116 11.268,0.137 6.058,0.408 12.127,0.761 18.196,0.886 5.831,0.119 11.65,0.503 17.484,0.599 7.107,0.116 14.22,0.319 21.323,0.411 8.225,0.108 16.454,-0.045 24.687,0.093 C -14.12,0.245 -6.835,0.581 0,0 m -127.539,126.057 c 9.127,-0.643 16.655,0.462 24.21,1.131 4.875,0.431 9.758,0.176 14.599,-0.367 6.134,-0.689 12.282,-0.737 18.433,-0.823 3.984,-0.056 7.971,-0.09 11.953,-0.009 5.51,0.114 11.02,0.284 16.523,0.556 2.081,0.103 4.155,0.158 6.229,0.071 6.4,-0.268 12.771,0.405 19.155,0.53 6.379,0.126 12.792,0.182 19.115,-1.072 2.9,-0.574 5.812,-1.049 8.78,-1.191 3.505,-0.168 4.831,-1.526 4.389,-5.056 -0.679,-5.422 -0.625,-10.857 -0.439,-16.269 0.301,-8.727 -0.584,-17.423 -0.444,-26.124 0.148,-9.205 -0.49,-18.379 -0.487,-27.567 10e-4,-4.936 0.403,-9.884 1.002,-14.805 0.542,-4.44 0.854,-8.906 1.295,-13.357 0.633,-6.365 1.156,-12.73 0.854,-19.138 -0.083,-1.771 0.05,-3.529 1.806,-4.67 0.606,-0.394 0.887,-1.127 1.072,-1.832 0.315,-1.205 -0.026,-1.762 -1.303,-2.012 -0.628,-0.123 -1.257,-0.183 -1.837,-0.49 -1.125,-0.598 -2.176,-0.446 -3.075,0.443 -0.991,0.98 -2.222,1.182 -3.528,1.223 -7.588,0.238 -15.17,0.493 -22.769,0.517 -8.87,0.028 -17.722,-0.569 -26.602,-0.286 -9.656,0.31 -19.323,-0.045 -28.981,-0.628 -7.65,-0.462 -12.936,-1.452 -20.604,-1.799 -6.458,-0.293 -12.895,-1.071 -19.34,-1.637 -0.319,-0.029 -0.633,-0.139 -0.948,-0.139 -8.711,-0.017 -17.359,-1.628 -26.093,-1.037 -0.795,0.054 -1.591,0.129 -2.379,0.246 -1.647,0.244 -2.456,1.093 -3.085,2.796 -1.035,2.807 -2.948,8.472 -3.167,11.301 -0.404,5.25 -0.668,10.513 -0.668,15.797 0,6.064 -0.594,12.123 -0.936,18.183 -0.428,7.575 -1.388,15.113 -1.414,22.718 -0.015,4.709 -0.688,9.427 -0.325,14.129 0.61,7.892 0.785,15.808 1.382,23.693 0.404,5.328 1.442,10.609 1.332,15.985 -0.055,2.628 -0.445,5.245 0.182,7.878 0.606,2.547 0.937,3.049 3.482,2.922 4.718,-0.235 9.424,0.555 12.631,0.189"
             style="fill:#000000;fill-opacity:1;fill-rule:nonzero;stroke:none"
             id="path66338" />
        </g>
        <g
           id="g66340"
           transform="translate(7.7305,140.3228)">
          <path
             d="m 0,0 c -0.982,-0.032 -1.921,0.094 -2.771,0.62 -0.339,0.21 -0.685,0.443 -0.685,0.904 10e-4,0.568 0.4,0.856 0.863,1.018 0.526,0.182 1.078,0.284 1.618,0.427 1.78,0.473 2.091,0.849 1.904,2.679 -0.106,1.027 -0.372,2.039 -0.604,3.049 -0.801,3.486 -0.143,4.58 3.343,5.549 1.997,0.555 3.932,0.581 5.777,-0.544 2.243,-1.368 3.115,-3.373 2.478,-5.918 C 11.749,7.091 11.429,6.437 11.187,5.761 10.53,3.936 10.528,3.926 12.381,2.95 13.133,2.554 13.772,2.059 13.636,1.124 13.502,0.212 12.654,0.182 11.97,0.042 11.188,-0.118 10.396,-0.264 9.604,-0.312 7.945,-0.412 7.158,0.339 7.433,1.984 7.772,4.022 8.131,6.061 9.004,7.987 9.938,10.049 9.095,11.353 6.828,11.623 5.944,11.728 5.075,11.626 4.226,11.361 2.357,10.776 1.977,10.133 2.417,8.163 2.801,6.451 3.211,4.744 3.648,3.044 4.14,1.142 3.864,0.654 1.896,0.246 1.273,0.116 0.632,0.079 0,0"
             style="fill:#000000;fill-opacity:1;fill-rule:nonzero;stroke:none"
             id="path66342" />
        </g>
        <g
           id="g66344"
           transform="translate(43.085,96.6606)">
          <path
             d="M 0,0 C -0.772,-3.277 0.826,-6.817 3.366,-7.642 2.198,-5.139 1.765,-2.523 0,0 m 70.446,4.127 c -0.382,-0.778 -0.307,-1.258 -0.15,-1.705 1.571,-4.443 3.12,-8.895 5.083,-13.187 0.133,-0.29 0.278,-0.581 0.464,-0.838 0.727,-1.011 1.494,-0.98 1.886,0.208 0.763,2.329 1.074,4.698 -0.486,6.88 -1.392,1.948 -2.873,3.825 -4.004,5.959 -0.586,1.106 -1.5,2.013 -2.793,2.683 M 14.415,-60.102 c -0.269,0.885 -0.607,2.03 -0.968,3.168 -1.641,5.191 -4.688,9.767 -6.511,14.881 -0.08,0.22 -0.207,0.435 -0.348,0.624 -0.635,0.846 -1.27,0.861 -1.95,0.062 -0.88,-1.033 -1.033,-2.644 -0.124,-3.744 1.032,-1.251 1.67,-2.704 2.493,-4.062 2.071,-3.42 3.387,-7.187 5.088,-10.776 0.207,-0.436 0.375,-0.877 0.77,-1.182 0.332,-0.257 0.698,-0.394 1.108,-0.234 0.453,0.176 0.496,0.571 0.442,1.263 m 58.91,44.418 c -0.079,0.298 -0.162,0.775 -0.332,1.219 -0.717,1.863 -1.466,3.715 -2.193,5.575 -2.067,5.283 -4.15,10.56 -6.176,15.858 -0.486,1.272 -1.215,2.229 -2.469,2.769 -0.509,0.22 -1.039,0.554 -1.561,0.107 -0.531,-0.456 -0.326,-1.068 -0.09,-1.554 1.125,-2.316 1.579,-4.861 2.508,-7.238 2.12,-5.427 4.288,-10.834 6.457,-16.241 0.326,-0.814 0.734,-1.599 1.149,-2.373 0.391,-0.728 0.979,-0.758 1.602,-0.301 0.67,0.492 1.149,1.111 1.105,2.179 m -63.93,-8.258 c -0.188,-0.006 -0.375,-0.011 -0.563,-0.016 -0.64,-2.449 -1.285,-4.896 -1.913,-7.347 -0.192,-0.756 0.1,-1.413 0.52,-2.021 0.909,-1.313 1.564,-2.786 2.438,-4.101 2.287,-3.439 3.399,-7.386 4.733,-11.177 1.778,-5.05 4.035,-9.868 6.119,-14.771 0.213,-0.502 0.565,-0.979 0.954,-1.366 0.619,-0.615 1.374,-1.362 2.28,-0.795 0.837,0.525 0.421,1.446 0.14,2.181 -1.138,2.98 -2.31,5.945 -3.462,8.919 -1.988,5.13 -4.121,10.201 -5.89,15.417 -1.713,5.05 -3.565,10.053 -5.356,15.077 m 58.189,4.18 c -0.061,0.811 -0.376,1.546 -0.691,2.28 -3.625,8.434 -7.205,16.886 -10.383,25.503 -0.385,1.044 -0.964,2.016 -1.406,3.041 -0.688,1.589 -2.083,2.146 -3.603,2.455 -1.137,0.231 -1.62,-0.375 -1.308,-1.55 0.121,-0.458 0.367,-0.883 0.554,-1.322 1.222,-2.863 2.438,-5.728 3.666,-8.588 2.272,-5.288 3.58,-10.925 5.861,-16.207 1.012,-2.343 2.087,-4.658 3.183,-6.963 0.299,-0.628 0.644,-1.336 1.519,-1.359 1.123,-0.03 2.602,1.522 2.608,2.71 M 41.188,16.442 c -0.841,0.011 -1.326,-0.38 -1.146,-1.168 0.192,-0.848 0.535,-1.67 0.882,-2.473 1.833,-4.248 3.689,-8.485 5.533,-12.727 1.72,-3.958 3.347,-7.959 5.175,-11.866 2.068,-4.421 4.014,-8.884 5.661,-13.479 0.241,-0.67 0.599,-1.306 0.958,-1.925 0.265,-0.455 0.702,-0.628 1.233,-0.447 1.692,0.576 2.532,2.572 1.753,4.252 -1.043,2.247 -2.211,4.441 -3.16,6.727 -3.309,7.972 -6.305,16.074 -9.917,23.921 -1.036,2.25 -2.139,4.469 -3.159,6.727 -0.762,1.689 -2.253,2.14 -3.813,2.458 M 3.109,12.02 C 2.673,12.021 2.348,11.81 2.105,11.467 1.577,10.72 1.601,9.958 2.148,9.248 2.852,8.334 3.123,7.256 3.473,6.189 4.444,3.229 5.431,0.271 6.51,-2.651 c 1.631,-4.42 3.639,-8.699 4.97,-13.231 0.765,-2.607 1.455,-5.233 2.412,-7.785 1.852,-4.937 3.62,-9.905 5.447,-14.852 3.153,-8.538 5.683,-17.297 9.173,-25.714 0.248,-0.6 0.516,-1.179 1.029,-1.593 0.747,-0.604 1.619,-0.82 2.447,-0.305 0.768,0.477 0.45,1.27 0.271,1.964 -0.06,0.233 -0.146,0.458 -0.213,0.688 -2.05,6.99 -4.882,13.7 -7.397,20.521 -1.546,4.201 -3.446,8.269 -5.025,12.458 C 15.052,-18.38 10.562,-6.229 6.04,5.911 5.426,7.559 4.818,9.21 4.198,10.857 3.998,11.389 3.75,11.892 3.109,12.02 m 51.987,-66.806 c -0.134,0.438 -0.26,0.983 -0.464,1.495 -0.977,2.45 -1.958,4.896 -3.159,7.25 -2.214,4.34 -4.429,8.68 -6.562,13.06 -2.696,5.537 -4.78,11.333 -7.068,17.042 -3.777,9.421 -7.009,19.039 -10.405,28.598 -0.695,1.957 -1.426,3.902 -2.184,5.835 -0.176,0.447 -0.553,0.834 -1.129,0.589 -0.437,-0.185 -0.487,-0.619 -0.418,-1.019 0.288,-1.653 0.587,-3.303 1.268,-4.858 1.478,-3.378 2.154,-7.02 3.408,-10.468 1.505,-4.136 2.36,-8.458 3.805,-12.612 1.627,-4.678 3.411,-9.29 5.36,-13.842 2.108,-4.921 4.068,-9.9 5.883,-14.938 1.758,-4.881 3.89,-9.623 5.187,-14.676 0.473,-1.843 1.317,-3.601 2.089,-5.354 0.587,-1.329 1.295,-1.435 2.407,-0.468 1.286,1.116 1.745,2.629 1.982,4.366 m 1.134,8.262 c 0.44,0.256 0.429,0.68 0.426,1.064 -0.015,2.002 0.265,3.983 0.376,5.973 0.129,2.294 0.489,4.644 -0.423,6.88 -2.35,5.771 -4.494,11.64 -7.133,17.276 -4.949,10.563 -9.758,21.183 -14.184,31.973 -0.641,1.559 -1.621,2.254 -3.24,2.306 -1.977,0.065 -2.341,-0.368 -1.649,-2.191 0.794,-2.09 1.703,-4.141 2.426,-6.255 2.656,-7.78 4.97,-15.673 7.818,-23.391 2.491,-6.746 5.356,-13.338 8.364,-19.853 1.936,-4.196 4.343,-8.177 6.018,-12.511 0.212,-0.547 0.387,-1.259 1.201,-1.271 M 40.485,-65.988 c 1.966,-0.011 3.6,0.359 5.154,1.036 1.668,0.727 2.058,1.422 1.819,3.187 -0.085,0.627 -0.222,1.282 -0.5,1.842 -1.104,2.235 -1.77,4.628 -2.597,6.962 -1.759,4.974 -3.44,9.977 -5.505,14.836 -3.625,8.535 -7.21,17.091 -10.253,25.851 -3.359,9.662 -6.496,19.402 -9.73,29.107 -0.252,0.758 -0.462,1.547 -1.085,2.106 -0.525,0.471 -1.153,0.598 -1.77,0.233 -0.583,-0.346 -0.54,-0.941 -0.371,-1.498 0.163,-0.533 0.347,-1.068 0.596,-1.565 1.474,-2.94 2.504,-6.077 3.385,-9.199 1.518,-5.382 3.016,-10.77 4.643,-16.118 2.581,-8.482 5.085,-16.989 8.583,-25.167 0.941,-2.201 1.97,-4.378 2.758,-6.639 1.87,-5.363 3.939,-10.647 6.155,-15.875 0.566,-1.336 0.954,-2.722 0.983,-4.178 0.029,-1.491 -0.601,-2.361 -1.739,-2.428 -1.278,-0.075 -1.545,0.871 -1.803,1.84 -0.351,1.312 -0.639,2.653 -1.131,3.912 -1.951,4.988 -3.872,9.992 -5.986,14.91 -4.234,9.851 -8.054,19.854 -11.502,30.003 -2.828,8.327 -5.13,16.828 -8.326,25.032 -0.465,1.192 -0.919,2.388 -1.439,3.556 -0.312,0.701 -0.841,1.232 -1.702,0.907 -0.829,-0.313 -1.316,-0.944 -1.15,-1.866 0.097,-0.541 0.309,-1.077 0.556,-1.572 0.75,-1.507 1.311,-3.088 1.931,-4.647 1.509,-3.792 2.415,-7.786 3.975,-11.562 1.157,-2.801 2.351,-5.61 3.191,-8.513 1.893,-6.538 4.021,-12.999 6.801,-19.198 3.047,-6.8 5.398,-13.839 7.871,-20.843 1.435,-4.065 2.802,-8.153 4.551,-12.106 0.792,-1.79 1.914,-2.697 3.637,-2.346 M 23.022,24.573 c 4.324,0.841 8.124,-0.184 11.877,-1.322 5.194,-1.574 10.477,-2.836 15.608,-4.641 4.546,-1.598 8.842,-3.669 13.008,-6.064 2.355,-1.354 4.656,-2.749 6.873,-4.344 3.518,-2.533 6.274,-5.645 8.49,-9.312 0.536,-0.887 1.064,-1.796 1.727,-2.584 3.147,-3.743 3.369,-8.509 0.649,-12.56 -1.515,-2.256 -3.611,-3.819 -5.784,-5.32 -1.777,-1.227 -3.542,-2.476 -5.384,-3.599 -2.082,-1.268 -3.741,-2.99 -5.386,-4.731 -1.476,-1.565 -2.144,-3.429 -2.346,-5.616 -0.551,-5.962 -0.295,-11.979 -1.242,-17.911 -0.394,-2.47 -1.189,-4.819 -2.237,-7.063 -1.075,-2.303 -3.114,-3.839 -4.938,-5.485 -3.595,-3.245 -7.999,-4.517 -12.741,-4.842 -3.583,-0.247 -7.166,-0.506 -10.747,-0.796 -3.455,-0.279 -6.654,0.818 -9.803,1.937 -4.745,1.686 -9.366,3.72 -13.786,6.125 -5.07,2.758 -7.326,7.368 -7.794,12.972 -0.432,5.161 0.374,10.199 1.499,15.208 0.946,4.214 2.335,8.308 3.291,12.523 0.614,2.706 0.147,5.075 -1.345,7.299 -1.247,1.858 -2.56,3.672 -3.871,5.485 -3.161,4.371 -4.641,9.108 -4.123,14.616 0.418,4.445 1.592,8.389 4.357,11.933 1.548,1.984 3.527,3.337 5.703,4.248 4.034,1.69 8.023,3.693 12.538,3.833 2.074,0.064 4.153,0.011 5.907,0.011"
             style="fill:#000000;fill-opacity:1;fill-rule:nonzero;stroke:none"
             id="path66346" />
        </g>
      </g>
    </g>
    <text
       xml:space="preserve"
       transform="matrix(1,0,0,-1,114,110)"
       style="font-variant:normal;font-weight:normal;font-stretch:normal;font-size:21px;font-family:'Myriad Pro';-inkscape-font-specification:MyriadPro-Regular;writing-mode:lr-tb;fill:#000000;fill-opacity:1;fill-rule:nonzero;stroke:none"
       id="text66350"><tspan
         x="0 11.172 16.905001 29.568001"
         y="0"
         id="tspan66348">P(A)</tspan></text>
  </g>
</svg>
