<?xml version="1.0" encoding="UTF-8" standalone="no"?>
<!-- Created with Inkscape (http://www.inkscape.org/) -->

<svg
   version="1.1"
   id="svg66428"
   width="223.028"
   height="206.58932"
   viewBox="0 0 223.028 206.58932"
   xmlns="http://www.w3.org/2000/svg"
   xmlns:svg="http://www.w3.org/2000/svg">
  <defs
     id="defs66432">
    <clipPath
       clipPathUnits="userSpaceOnUse"
       id="clipPath66442">
      <path
         d="M 0,154.942 H 167.271 V 0 H 0 Z"
         id="path66440" />
    </clipPath>
  </defs>
  <g
     id="g66434"
     transform="matrix(1.3333333,0,0,-1.3333333,0,206.58933)">
    <g
       id="g66436">
      <g
         id="g66438"
         clip-path="url(#clipPath66442)">
        <g
           id="g66444"
           transform="translate(146.6553,9.9098)">
          <path
             d="m 0,0 c 3.868,-0.135 7.306,-0.262 10.743,-0.373 2.617,-0.083 2.809,0.154 2.972,2.806 0.226,3.682 -0.018,7.356 -0.223,11.023 -0.268,4.786 -0.623,9.573 -1.151,14.336 -1.013,9.135 -2.191,18.249 -1.725,27.478 0.205,4.063 0.09,8.132 0.266,12.205 0.188,4.374 0.196,8.786 0.191,13.181 -0.011,9.191 0.197,18.382 0.016,27.573 -0.06,3.035 0.198,6.075 0.254,9.113 0.031,1.748 -0.248,2.099 -1.894,2.539 -1.001,0.268 -2.032,0.431 -3.053,0.62 -3.601,0.666 -7.119,1.627 -10.861,1.659 -6.236,0.053 -12.458,-0.007 -18.69,-0.272 -5.186,-0.221 -10.388,-0.03 -15.583,-0.023 -0.719,0.001 -1.443,0.037 -2.158,-0.019 -9.647,-0.759 -19.309,-0.953 -28.981,-0.806 -0.639,0.009 -1.28,0.003 -1.916,-0.051 -5.282,-0.454 -10.536,-0.07 -15.791,0.47 -3.978,0.41 -7.967,0.631 -11.971,0.35 -7.396,-0.52 -14.784,-1.509 -22.214,-0.424 -0.786,0.114 -1.601,0.116 -2.396,0.06 -4.386,-0.309 -8.77,-0.579 -13.175,-0.435 -1.807,0.059 -2.308,-0.428 -2.409,-2.237 -0.123,-2.232 -0.071,-4.475 -0.093,-6.713 -0.033,-3.347 0.139,-6.712 -0.151,-10.037 -0.311,-3.574 -0.824,-7.148 -1.383,-10.69 -0.901,-5.709 -1.306,-11.429 -1.374,-17.189 -0.038,-3.196 -0.381,-6.381 -0.146,-9.589 0.318,-4.382 0.694,-8.773 0.693,-13.16 -0.002,-6.885 1.089,-13.701 1.093,-20.572 0.002,-2.742 0.737,-5.374 0.842,-8.09 0.239,-6.147 0.45,-12.296 1.133,-18.418 0.178,-1.585 0.144,-3.192 0.275,-4.784 0.087,-1.053 0.564,-1.858 1.777,-1.862 3.276,-0.012 6.544,-0.567 9.824,-0.199 4.296,0.483 8.609,0.414 12.919,0.528 3.756,0.098 7.509,-0.117 11.268,0.136 6.058,0.408 12.127,0.761 18.196,0.886 5.831,0.119 11.65,0.503 17.484,0.599 7.107,0.117 14.22,0.319 21.323,0.412 8.225,0.108 16.454,-0.045 24.687,0.093 C -14.12,0.245 -6.835,0.581 0,0 m -127.539,126.057 c 9.127,-0.642 16.655,0.463 24.21,1.131 4.875,0.431 9.758,0.176 14.599,-0.367 6.134,-0.688 12.282,-0.737 18.433,-0.823 3.984,-0.056 7.971,-0.09 11.953,-0.008 5.51,0.113 11.02,0.283 16.523,0.555 2.081,0.103 4.155,0.159 6.229,0.072 6.4,-0.268 12.771,0.404 19.154,0.53 6.38,0.125 12.793,0.181 19.116,-1.072 2.9,-0.575 5.812,-1.049 8.78,-1.192 3.505,-0.168 4.831,-1.525 4.389,-5.055 -0.679,-5.423 -0.625,-10.858 -0.439,-16.269 0.301,-8.728 -0.584,-17.423 -0.444,-26.125 0.148,-9.205 -0.49,-18.379 -0.487,-27.566 10e-4,-4.937 0.403,-9.885 1.002,-14.807 0.542,-4.438 0.854,-8.905 1.295,-13.356 0.633,-6.365 1.156,-12.729 0.854,-19.138 -0.083,-1.77 0.05,-3.529 1.806,-4.669 0.606,-0.395 0.887,-1.128 1.072,-1.833 0.315,-1.205 -0.026,-1.761 -1.303,-2.011 -0.628,-0.123 -1.257,-0.183 -1.837,-0.491 -1.125,-0.598 -2.176,-0.446 -3.075,0.444 -0.991,0.98 -2.222,1.181 -3.528,1.222 -7.588,0.238 -15.17,0.493 -22.769,0.517 -8.87,0.028 -17.722,-0.569 -26.602,-0.286 -9.656,0.309 -19.323,-0.045 -28.981,-0.628 -7.65,-0.462 -12.936,-1.451 -20.604,-1.798 -6.458,-0.293 -12.895,-1.072 -19.34,-1.639 -0.319,-0.028 -0.633,-0.137 -0.948,-0.138 -8.711,-0.016 -17.359,-1.628 -26.093,-1.037 -0.795,0.054 -1.591,0.13 -2.379,0.246 -1.647,0.244 -2.456,1.093 -3.085,2.796 -1.035,2.807 -2.948,8.472 -3.167,11.302 -0.404,5.248 -0.668,10.513 -0.668,15.797 0,6.063 -0.594,12.122 -0.936,18.182 -0.428,7.576 -1.388,15.113 -1.414,22.719 -0.015,4.709 -0.688,9.426 -0.325,14.129 0.61,7.892 0.785,15.807 1.382,23.692 0.404,5.328 1.442,10.609 1.332,15.986 -0.055,2.628 -0.445,5.244 0.182,7.877 0.606,2.547 0.937,3.049 3.482,2.923 4.718,-0.236 9.424,0.554 12.631,0.188"
             style="fill:#000000;fill-opacity:1;fill-rule:nonzero;stroke:none"
             id="path66446" />
        </g>
        <g
           id="g66448"
           transform="translate(7.7305,140.3229)">
          <path
             d="m 0,0 c -0.982,-0.033 -1.921,0.094 -2.771,0.62 -0.339,0.21 -0.685,0.443 -0.685,0.903 10e-4,0.569 0.4,0.857 0.863,1.018 0.526,0.183 1.078,0.285 1.618,0.428 1.78,0.473 2.091,0.849 1.904,2.679 -0.106,1.027 -0.372,2.039 -0.604,3.049 -0.801,3.486 -0.143,4.58 3.343,5.549 1.997,0.555 3.932,0.581 5.777,-0.544 2.243,-1.368 3.115,-3.373 2.478,-5.918 C 11.749,7.091 11.429,6.437 11.187,5.761 10.53,3.936 10.528,3.926 12.381,2.95 13.133,2.553 13.772,2.059 13.636,1.124 13.502,0.212 12.654,0.182 11.97,0.042 11.188,-0.118 10.396,-0.264 9.604,-0.312 7.945,-0.412 7.158,0.339 7.433,1.984 7.772,4.021 8.131,6.061 9.004,7.987 9.938,10.049 9.095,11.353 6.828,11.623 5.944,11.728 5.075,11.626 4.226,11.361 2.357,10.776 1.977,10.133 2.417,8.163 2.801,6.451 3.211,4.743 3.648,3.044 4.14,1.142 3.864,0.654 1.896,0.245 1.273,0.116 0.632,0.079 0,0"
             style="fill:#000000;fill-opacity:1;fill-rule:nonzero;stroke:none"
             id="path66450" />
        </g>
        <g
           id="g66452"
           transform="translate(98.4209,132.5812)">
          <path
             d="m 0,0 c -28.048,-24.861 -58.089,-47.53 -83.505,-75.297 -3.203,-3.499 -7.283,-6.259 -10.957,-9.362 l -2.345,2.692 c 27.833,27.151 56.089,53.842 86.374,78.327 2.662,2.153 5.39,4.223 8.088,6.332 z"
             style="fill:#000000;fill-opacity:1;fill-rule:nonzero;stroke:none"
             id="path66454" />
        </g>
        <g
           id="g66456"
           transform="translate(159.3535,45.5695)">
          <path
             d="m 0,0 c -35.777,11.17 -70.707,25.179 -107.612,32.594 -4.652,0.935 -9.122,3.002 -13.676,4.545 l 1.093,3.399 C -82.569,30.734 -45.117,20.332 -8.507,7.052 -5.288,5.884 -2.106,4.619 1.093,3.399 Z"
             style="fill:#000000;fill-opacity:1;fill-rule:nonzero;stroke:none"
             id="path66458" />
        </g>
        <g
           id="g66460"
           transform="translate(80.0352,6.3575)">
          <path
             d="m 0,0 c 2.415,19.328 6.883,38.408 6.582,58.067 -0.038,2.478 0.72,4.938 1.109,7.407 L 10.16,65.137 C 8.942,44.941 7.292,24.796 3.563,4.893 3.235,3.143 2.836,1.406 2.47,-0.337 Z"
             style="fill:#000000;fill-opacity:1;fill-rule:nonzero;stroke:none"
             id="path66462" />
        </g>
      </g>
    </g>
    <text
       xml:space="preserve"
       transform="matrix(1,0,0,-1,22.3848,100.6738)"
       style="font-variant:normal;font-weight:bold;font-stretch:normal;font-size:21px;font-family:'Tekton Pro';-inkscape-font-specification:TektonPro-Bold;writing-mode:lr-tb;fill:#000000;fill-opacity:1;fill-rule:nonzero;stroke:none"
       id="text66472"><tspan
         x="0 13.125"
         y="0"
         id="tspan66464">A1</tspan><tspan
         x="0 13.125"
         y="69.992996"
         id="tspan66466">A3</tspan><tspan
         x="80.010002 93.135002"
         y="9.9960003"
         id="tspan66468">A2</tspan><tspan
         x="90.005997 103.131"
         y="69.992996"
         id="tspan66470">A4</tspan></text>
  </g>
</svg>
