<?xml version="1.0" encoding="UTF-8" standalone="no"?>
<!-- Created with Inkscape (http://www.inkscape.org/) -->

<svg
   version="1.1"
   id="svg66530"
   width="158.66667"
   height="80"
   viewBox="0 0 158.66667 80"
   xmlns="http://www.w3.org/2000/svg"
   xmlns:svg="http://www.w3.org/2000/svg">
  <defs
     id="defs66534" />
  <g
     id="g66536"
     transform="matrix(1.3333333,0,0,-1.3333333,0,80)">
    <g
       id="g66538"
       transform="scale(0.1)">
      <path
         d="m 491.438,235.871 v 0 c 28.558,-3.543 57.332,-5.367 86.101,-5.367 V 5.26562 H 3.49219 V 505.77 L 179.242,378.016 c 55.5,-40.477 114.977,-75.262 177.461,-103.817 42.621,-19.648 88.141,-32.531 134.735,-38.328"
         style="fill:#00a650;fill-opacity:1;fill-rule:evenodd;stroke:none"
         id="path66540" />
      <path
         d="m 696.281,235.871 v 0 c -28.562,-3.543 -57.332,-5.367 -86.105,-5.367 V 5.26562 H 1184.22 V 505.77 L 1008.48,378.016 C 952.973,337.539 893.496,302.754 831.012,274.199 788.391,254.551 742.871,241.668 696.281,235.871"
         style="fill:#00a650;fill-opacity:1;fill-rule:evenodd;stroke:none"
         id="path66542" />
      <path
         d="M 577.539,595.52 H 3.49219 V 546.352 L 186.219,413.441 c 57.328,-43.05 118.953,-79.765 184.121,-109.613 39.613,-18.144 81.805,-30.168 125.18,-35.535 27.16,-3.434 54.539,-5.152 82.019,-5.152 V 595.52"
         style="fill:#1a468e;fill-opacity:1;fill-rule:evenodd;stroke:none"
         id="path66544" />
      <path
         d="M 1184.22,546.352 1001.5,413.441 C 944.168,370.391 882.543,333.676 817.379,303.828 777.766,285.684 735.57,273.66 692.199,268.293 665.035,264.859 637.66,263.141 610.176,263.141 V 595.52 h 574.044 v -49.168"
         style="fill:#1a468e;fill-opacity:1;fill-rule:evenodd;stroke:none"
         id="path66546" />
    </g>
  </g>
</svg>
