<?xml version="1.0" encoding="UTF-8" standalone="no"?>
<!-- Created with Inkscape (http://www.inkscape.org/) -->

<svg
   version="1.1"
   id="svg67181"
   width="525.06134"
   height="229.84933"
   viewBox="0 0 525.06134 229.84933"
   xmlns="http://www.w3.org/2000/svg"
   xmlns:svg="http://www.w3.org/2000/svg">
  <defs
     id="defs67185">
    <clipPath
       clipPathUnits="userSpaceOnUse"
       id="clipPath67195">
      <path
         d="M 0,172.387 H 393.796 V 0 H 0 Z"
         id="path67193" />
    </clipPath>
    <clipPath
       clipPathUnits="userSpaceOnUse"
       id="clipPath67243">
      <path
         d="M 0,172.387 H 393.796 V 0 H 0 Z"
         id="path67241" />
    </clipPath>
    <clipPath
       clipPathUnits="userSpaceOnUse"
       id="clipPath67259">
      <path
         d="M 0,172.387 H 393.796 V 0 H 0 Z"
         id="path67257" />
    </clipPath>
  </defs>
  <g
     id="g67187"
     transform="matrix(1.3333333,0,0,-1.3333333,0,229.84933)">
    <g
       id="g67189">
      <g
         id="g67191"
         clip-path="url(#clipPath67195)">
        <g
           id="g67197"
           transform="translate(158.7869,128.3739)">
          <path
             d="m 0,0 c 0.021,0 0.042,0 0.063,0 0,1.279 0.012,2.559 -0.002,3.838 -0.031,2.746 -0.303,2.943 -2.924,2.17 -3.221,-0.95 -6.444,-1.891 -9.662,-2.85 -0.612,-0.182 -1.207,-0.421 -1.805,-0.649 -3.808,-1.449 -7.616,-2.896 -11.419,-4.36 -0.819,-0.316 -1.638,-0.649 -2.418,-1.051 -3.978,-2.054 -7.926,-4.167 -11.92,-6.192 -2.864,-1.452 -5.449,-3.342 -8.176,-5.006 -2.874,-1.755 -5.571,-3.747 -8.276,-5.737 -1.68,-1.236 -3.214,-2.618 -4.556,-4.231 -0.866,-1.041 -1.85,-2 -2.868,-2.895 -3.368,-2.962 -6.517,-6.137 -9.516,-9.468 -0.373,-0.413 -0.755,-0.857 -1.222,-1.139 -1.218,-0.734 -1.991,-1.828 -2.659,-3.026 -0.55,-0.987 -1.274,-1.84 -2.035,-2.662 -0.335,-0.364 -0.753,-0.607 -1.28,-0.367 -0.634,0.289 -1.019,0.94 -0.891,1.534 0.049,0.233 0.143,0.458 0.229,0.681 1.389,3.621 3.246,6.942 6.048,9.692 4.053,3.976 8.018,8.044 12.122,11.966 2.135,2.039 4.434,3.916 6.907,5.558 10.282,6.828 20.978,12.873 32.484,17.43 6.699,2.654 13.466,5.075 20.48,6.772 0.924,0.224 1.825,0.594 2.688,0.998 0.681,0.319 0.883,1.013 0.729,1.859 -0.123,0.678 -0.63,0.886 -1.21,0.962 -1.984,0.257 -3.973,0.445 -5.978,0.427 -4.08,-0.039 -8.141,-0.409 -12.211,-0.645 -4.468,-0.258 -8.928,-0.713 -13.41,-0.655 -2.316,0.03 -4.631,0.192 -6.948,0.243 -3.918,0.087 -7.838,0.073 -11.753,0.214 -3.514,0.126 -7.027,0.36 -10.534,0.627 -3.268,0.249 -6.528,0.569 -9.807,0.683 -2.795,0.096 -5.584,0.398 -8.378,0.451 -4.956,0.096 -9.915,0.065 -14.872,0.103 -2.159,0.017 -4.326,-0.028 -6.474,0.142 -2.401,0.19 -4.787,0.229 -7.186,0.041 -1.114,-0.088 -2.237,-0.07 -3.357,-0.076 -4.475,-0.026 -8.951,0.091 -13.423,-0.173 -1.755,-0.103 -3.513,-0.243 -5.267,-0.218 -1.52,0.022 -3.034,0.081 -4.553,-0.015 -4.24,-0.268 -8.488,-0.278 -12.689,0.353 -3.234,0.485 -3.072,0.089 -3.292,-2.897 -0.018,-0.239 -0.017,-0.48 -0.022,-0.72 -0.09,-4.477 -0.141,-8.956 -0.277,-13.432 -0.187,-6.154 -0.461,-12.305 -0.651,-18.459 -0.093,-3.035 -0.648,-6.027 -0.654,-9.078 -0.012,-5.758 -1.049,-11.451 -1.193,-17.218 -0.096,-3.822 -0.5,-7.652 -0.663,-11.484 -0.143,-3.355 -0.198,-6.713 -0.355,-10.067 -0.245,-5.266 -0.422,-10.533 -0.253,-15.805 0.029,-0.876 0.209,-1.746 0.254,-2.622 0.211,-4.066 -0.008,-8.149 0.516,-12.204 0.061,-0.472 0.009,-0.959 0.029,-1.437 0.156,-3.746 0.344,-7.49 0.467,-11.238 0.097,-2.968 0.738,-5.863 1.111,-8.793 0.162,-1.275 0.39,-1.461 1.673,-1.56 2.471,-0.19 4.951,-0.297 7.413,-0.571 2.94,-0.328 5.872,-0.533 8.832,-0.397 2.234,0.103 4.473,0.07 6.71,0.111 2.078,0.037 4.16,0.024 6.234,0.149 5.426,0.325 10.847,0.805 16.287,0.763 7.844,-0.061 15.666,0.38 23.491,0.837 3.262,0.19 6.537,0.132 9.795,-0.209 4.147,-0.435 8.295,-0.282 12.427,0.115 3.741,0.358 7.485,0.652 11.237,0.649 3.516,-0.003 7.03,-0.28 10.546,-0.331 2.004,-0.028 3.995,-0.142 5.984,-0.347 3.502,-0.359 7.003,-0.658 10.532,-0.558 1.354,0.038 2.74,0.03 4.062,-0.219 1.511,-0.284 3.007,-0.37 4.528,-0.326 1.203,0.034 2.47,0.131 3.561,-0.32 1.319,-0.544 2.579,-0.624 3.95,-0.45 0.78,0.1 1.592,-0.052 2.39,-0.09 2.181,-0.104 2.496,0.18 2.42,2.438 -0.102,3.036 -0.228,6.072 -0.406,9.106 -0.229,3.91 -0.493,7.819 -0.789,11.725 -0.315,4.145 -0.719,8.283 -1.023,12.429 -0.399,5.431 -0.026,10.874 -0.168,16.31 -0.05,1.916 0.044,3.838 0.105,5.756 0.092,2.876 0.233,5.751 0.315,8.628 0.049,1.677 -0.028,3.358 0.042,5.033 0.236,5.672 0.488,11.344 0.785,17.013 0.134,2.555 0.419,5.101 0.58,7.653 0.195,3.112 0.354,6.226 0.484,9.34 0.093,2.229 0.054,4.464 0.178,6.691 C -0.537,-7.169 -0.25,-3.585 0,0 M 5.506,-7.288 C 5.112,-7.347 4.514,-7.412 4.6,-7.847 c 0.16,-0.81 -0.256,-1.586 -0.113,-2.276 0.138,-0.665 -0.399,-1.579 0.668,-2.09 0.467,-0.224 0.093,-1.524 -0.447,-1.534 -1.775,-0.032 -1.931,-1.343 -1.845,-2.499 0.086,-1.141 -0.184,-2.224 -0.157,-3.332 0.079,-3.293 -0.522,-6.532 -0.716,-9.803 -0.344,-5.827 -0.761,-11.65 -1.22,-17.468 -0.353,-4.467 -0.331,-8.944 -0.514,-13.415 -0.046,-1.117 -0.101,-2.241 -0.259,-3.347 -0.159,-1.12 -0.075,-2.219 -0.041,-3.338 0.065,-2.153 -0.078,-4.311 -0.129,-6.468 -0.115,-4.877 -0.254,-9.748 0.321,-14.618 0.309,-2.614 0.27,-5.267 0.489,-7.894 0.198,-2.389 0.577,-4.762 0.791,-7.15 0.143,-1.589 0.178,-3.192 0.186,-4.79 0.019,-3.925 0.426,-7.824 0.755,-11.728 0.168,-1.99 0.283,-3.99 0.298,-5.986 0.02,-2.406 -0.653,-3.076 -3.043,-2.688 -2.256,0.366 -4.637,0.643 -6.261,2.624 -0.442,0.539 -1.065,0.693 -1.731,0.634 -0.556,-0.05 -1.111,-0.133 -1.659,-0.24 -0.949,-0.188 -1.901,-0.264 -2.864,-0.182 -1.586,0.136 -3.172,0.271 -4.757,0.419 -0.489,0.045 -0.967,0.03 -1.399,-0.215 -1.174,-0.666 -2.456,-0.687 -3.738,-0.597 -3.11,0.22 -6.217,0.485 -9.327,0.727 -1.035,0.081 -2.072,0.207 -3.108,0.206 -1.524,-0.002 -3.033,0.046 -4.537,0.331 -0.623,0.118 -1.274,0.118 -1.912,0.121 -5.118,0.026 -10.237,0.034 -15.355,0.057 -2.314,0.01 -4.63,-0.019 -6.941,0.08 -1.67,0.07 -3.331,0.319 -4.996,0.492 -0.238,0.024 -0.477,0.053 -0.711,0.103 -1.444,0.304 -2.843,-0.399 -4.29,-0.167 -1.438,0.229 -2.862,0.117 -4.264,-0.318 -0.375,-0.116 -0.793,-0.158 -1.187,-0.14 -4.727,0.208 -9.396,-0.662 -14.114,-0.74 -3.113,-0.052 -6.224,-0.277 -9.346,-0.211 -1.358,0.03 -2.711,0.048 -4.069,0.159 -1.27,0.103 -2.556,0.017 -3.834,-0.009 -0.8,-0.017 -1.599,-0.12 -2.396,-0.111 -5.197,0.06 -10.386,-0.384 -15.574,-0.355 -3.437,0.019 -6.852,-0.288 -10.282,-0.279 -3.208,0.007 -6.389,0.217 -9.563,0.661 -1.262,0.177 -2.549,0.211 -3.826,0.229 -1.326,0.019 -2.205,0.522 -2.874,1.741 -0.635,1.157 -1.095,2.251 -0.985,3.599 0.124,1.515 -0.086,3.016 -0.272,4.53 -0.291,2.373 -0.287,4.783 -0.406,7.176 -0.139,2.793 -0.198,5.592 -0.439,8.375 -0.193,2.236 -0.244,4.467 -0.301,6.705 -0.099,3.914 -0.43,7.812 -0.793,11.712 -0.297,3.175 -0.342,6.388 -0.269,9.579 0.162,7.116 0.402,14.231 0.747,21.339 0.151,3.114 0.35,6.223 0.412,9.343 0.04,1.994 0.235,3.995 0.503,5.974 0.428,3.175 0.396,6.385 0.759,9.56 0.7,6.136 0.584,12.295 0.685,18.45 0.12,7.277 0.265,14.554 0.428,21.829 0.035,1.598 0.142,3.197 0.312,4.786 0.102,0.957 0.968,1.462 1.749,0.924 1.585,-1.092 3.33,-0.941 5.078,-1.009 4.798,-0.189 9.598,-0.183 14.395,-0.041 6.714,0.199 13.424,0.53 20.138,0.746 6.877,0.221 13.755,0.235 20.632,-0.023 3.196,-0.12 6.396,-0.147 9.592,-0.27 7.272,-0.281 14.535,-0.688 21.788,-1.318 5.496,-0.478 11.011,-0.715 16.534,-0.732 2.878,-0.009 5.755,-0.166 8.633,-0.198 1.837,-0.02 3.676,0.051 5.514,0.108 0.959,0.028 1.915,0.159 2.873,0.163 2.964,0.013 5.918,0.239 8.854,0.584 2.312,0.271 4.621,0.32 6.94,0.378 2.237,0.054 4.472,0.218 6.709,0.318 0.718,0.033 1.445,0.079 2.156,0.007 1.52,-0.153 3.014,-0.142 4.539,0.06 2.328,0.309 3.985,-1.286 4.01,-3.644 0.008,-0.79 -0.476,-1.325 -0.827,-1.946 -0.451,-0.799 -0.102,-1.464 0.811,-1.483 0.875,-0.019 1.765,0.019 2.625,0.166 4.42,0.758 8.868,1.148 13.347,1.384 3.995,0.21 7.987,0.347 11.986,0.394 3.766,0.046 7.513,-0.189 11.26,-0.495 2.789,-0.227 5.574,-0.498 8.365,-0.691 4.236,-0.292 8.416,-0.984 12.598,-1.677 6.002,-0.994 11.923,-2.363 17.805,-3.897 4.268,-1.113 8.348,-2.759 12.372,-4.549 3.507,-1.559 6.998,-3.16 10.543,-4.632 4.688,-1.945 8.943,-4.594 13.06,-7.532 4.464,-3.186 8.162,-7.169 11.947,-11.07 2.565,-2.644 4.927,-5.46 7.132,-8.412 0.572,-0.765 1.245,-1.458 1.903,-2.153 0.271,-0.286 0.604,-0.529 0.947,-0.725 0.756,-0.434 1.483,-0.121 1.635,0.718 0.114,0.626 0.121,1.271 0.201,1.905 0.168,1.348 0.315,2.7 0.544,4.038 0.123,0.721 0.818,1.012 1.478,0.699 0.898,-0.425 1.566,-1.108 2.015,-1.978 0.359,-0.697 0.187,-1.414 -0.139,-2.079 -0.767,-1.564 -0.812,-3.247 -0.81,-4.927 0.002,-1.497 0.314,-1.837 1.808,-1.931 3.032,-0.19 6.07,-0.296 9.103,-0.489 4.228,-0.271 8.454,-0.589 12.68,-0.889 2.473,-0.175 4.943,-0.43 7.418,-0.521 4.802,-0.177 9.565,-0.779 14.339,-1.241 3.112,-0.302 6.226,-0.474 9.343,-0.393 6.406,0.165 12.793,-0.177 19.181,-0.571 0.389,-0.024 0.782,-0.003 1.163,-0.003 0.272,0.623 -0.215,1.095 -0.205,1.64 0.017,0.962 0.651,1.706 1.6,1.764 0.394,0.025 0.802,-0.014 1.191,-0.091 2.823,-0.561 5.64,-1.147 8.462,-1.709 2.373,-0.471 3.229,-2.015 2.795,-4.442 -0.139,-0.784 -0.287,-1.567 -0.45,-2.348 -0.196,-0.936 -0.498,-1.215 -1.429,-1.329 -0.317,-0.039 -0.639,-0.06 -0.958,-0.045 -0.847,0.04 -1.57,-0.196 -2.145,-0.847 -0.156,-0.178 -0.359,-0.319 -0.553,-0.459 -1.149,-0.835 -1.745,-0.705 -2.007,0.642 -0.226,1.164 -0.873,1.637 -1.925,1.77 -1.983,0.249 -3.975,0.431 -5.949,0.737 -4.523,0.701 -9.08,0.688 -13.637,0.782 -4.553,0.095 -9.108,0.215 -13.648,0.674 -4.375,0.441 -8.771,0.675 -13.143,1.137 -5.571,0.589 -11.162,0.856 -16.745,1.221 -4.148,0.272 -8.291,0.634 -12.455,0.687 -5.516,0.07 -11.03,0.321 -16.546,0.426 -6.797,0.13 -13.594,0.128 -20.393,-0.002 -4.797,-0.092 -9.599,-0.09 -14.396,-0.011 -3.355,0.055 -6.708,0.272 -10.031,0.816 -0.47,0.077 -0.955,0.083 -1.433,0.105 -4.073,0.192 -8.143,0.456 -12.218,0.545 -2.713,0.059 -5.44,-0.034 -8.148,-0.231 -5.661,-0.409 -11.324,-0.831 -16.954,-1.587 -0.158,-0.022 -0.319,-0.031 -0.479,-0.032 -5.201,-0.035 -10.367,-0.706 -15.56,-0.862 -2.968,-0.09 -5.882,-0.621 -8.826,-0.896 -1.512,-0.14 -3.02,-0.329 -4.528,-0.517 -0.896,-0.112 -1.752,0.028 -2.594,0.317 -0.546,0.188 -0.984,0.525 -1.342,0.97 -0.794,0.986 -0.551,2.031 0.619,2.515 0.438,0.18 0.915,0.29 1.385,0.361 5.534,0.842 11.079,1.574 16.67,1.965 6.46,0.451 12.913,0.977 19.355,1.68 6.12,0.666 12.266,1.211 18.432,0.942 5.83,-0.254 11.656,-0.607 17.471,-1.148 6.297,-0.586 12.621,-0.757 18.937,-0.505 5.203,0.208 10.396,-0.024 15.592,-0.035 2.48,-0.005 4.959,-0.049 7.439,-0.065 0.559,-0.004 1.12,0.021 1.676,0.068 0.108,0.01 0.279,0.185 0.28,0.285 0.002,0.124 -0.118,0.316 -0.232,0.361 -0.741,0.297 -1.512,0.523 -2.241,0.845 -1.354,0.597 -2.057,1.903 -1.833,3.296 0.074,0.465 0.599,0.901 1.042,0.772 0.765,-0.222 1.496,-0.564 2.265,-0.772 0.799,-0.216 1.802,-1.034 2.393,-0.158 0.448,0.665 -0.505,1.423 -0.983,2.014 -1.458,1.802 -2.959,3.57 -4.512,5.291 -1.499,1.662 -3.059,3.269 -4.633,4.861 -4.248,4.299 -9.038,7.885 -14.468,10.54 -3.585,1.754 -7.276,3.294 -10.93,4.905 -2.779,1.225 -5.549,2.48 -8.371,3.598 C 88.415,2.545 84.948,3.489 81.444,4.338 75.61,5.752 69.686,6.699 63.824,7.962 61.623,8.437 59.388,8.58 57.164,8.797 51.914,9.311 46.658,9.773 41.399,10.183 38.127,10.438 34.85,10.344 31.57,10.171 28.377,10.003 25.175,10.025 21.978,9.917 20.221,9.857 18.463,9.751 16.714,9.578 13.611,9.271 10.515,8.897 7.416,8.551 7.177,8.525 6.936,8.518 6.7,8.474 3.29,7.844 3.652,7.501 3.582,4.997 3.506,2.279 3.494,-0.44 3.457,-3.158 c -0.005,-0.4 -0.026,-0.803 0.018,-1.198 0.15,-1.34 0.628,-2.471 2.028,-2.962 z"
             style="fill:#000000;fill-opacity:1;fill-rule:nonzero;stroke:none"
             id="path67199" />
        </g>
        <g
           id="g67201"
           transform="translate(383.8484,68.9623)">
          <path
             d="M 0,0 C -0.003,0.513 -0.237,0.618 -0.451,0.706 -1.437,1.11 -2.482,1.072 -3.516,1.06 -4.692,1.045 -4.906,0.759 -4.704,-0.402 c 0.026,-0.158 0.06,-0.315 0.11,-0.465 0.262,-0.791 -0.019,-1.978 1,-2.234 0.902,-0.227 1.56,0.664 2.212,1.22 0.478,0.405 0.862,0.928 1.246,1.43 0.13,0.17 0.133,0.437 0.136,0.451 m -6.389,-6.712 c 0.074,2.085 -0.428,4.353 -0.817,6.632 -0.096,0.56 -0.33,1.045 -0.927,1.296 -1.864,0.784 -2.797,0.171 -2.497,-1.865 0.479,-3.246 0.591,-6.517 0.903,-9.773 0.069,-0.713 0.081,-1.432 0.071,-2.148 -0.007,-0.412 -0.193,-0.788 -0.602,-0.956 -0.501,-0.205 -0.938,-0.01 -1.311,0.327 -0.365,0.329 -0.609,0.741 -0.696,1.228 -0.111,0.629 -0.249,1.257 -0.301,1.891 -0.323,3.897 -0.625,7.796 -0.93,11.695 -0.043,0.557 -0.086,1.115 -0.082,1.674 0.012,1.37 0.212,1.537 1.66,1.574 0.476,0.013 0.954,0.064 1.423,0.142 2.62,0.434 5.25,0.376 7.876,0.113 C -1.671,5.023 -0.714,4.854 0.196,4.576 2.86,3.767 4.053,1.447 3.277,-1.229 2.796,-2.89 1.984,-4.312 0.524,-5.307 0.326,-5.441 0.129,-5.579 -0.052,-5.735 c -0.636,-0.547 -0.585,-0.988 0.171,-1.503 0.922,-0.629 1.86,-1.235 2.765,-1.888 0.927,-0.67 1.559,-1.59 2.033,-2.62 0.244,-0.531 0.264,-1.071 0.038,-1.624 -0.194,-0.476 -0.769,-0.72 -1.172,-0.414 -0.506,0.384 -0.971,0.822 -1.442,1.25 -1.38,1.254 -2.944,2.181 -4.734,2.723 -0.547,0.165 -0.93,0.039 -1.108,-0.542 -0.069,-0.228 -0.135,-0.462 -0.24,-0.674 -0.226,-0.452 -0.558,-0.798 -1.11,-0.748 -0.517,0.046 -0.916,0.37 -1.106,0.814 -0.215,0.505 -0.367,1.062 -0.414,1.607 -0.067,0.791 -0.018,1.594 -0.018,2.642"
             style="fill:#000000;fill-opacity:1;fill-rule:nonzero;stroke:none"
             id="path67203" />
        </g>
        <g
           id="g67205"
           transform="translate(10.4016,153.6762)">
          <path
             d="M 0,0 C -1.729,0.169 -3.321,0.311 -4.909,0.486 -5.662,0.57 -6.25,0.955 -6.66,1.608 c -0.271,0.431 -0.057,1.031 0.42,1.156 0.637,0.167 1.269,0.084 1.902,-0.013 3.196,-0.491 3.597,-0.252 2.323,2.708 -0.753,1.751 -1.184,3.645 -1.693,5.494 -0.567,2.058 0.021,3.804 1.677,5.136 1.983,1.595 4.232,2.541 6.813,2.616 1.614,0.046 3.196,-0.179 4.743,-0.59 C 13.293,17.113 15.401,13.6 14.504,9.794 14.175,8.396 13.743,7.017 12.864,5.832 12.626,5.512 12.421,5.166 12.219,4.822 11.573,3.719 11.664,3.489 12.873,3.191 13.57,3.02 14.282,2.9 14.972,2.703 15.427,2.573 15.864,2.378 16.194,1.99 16.577,1.542 16.528,0.868 16.065,0.503 15.667,0.19 15.215,0.023 14.727,0.104 13.074,0.38 11.426,0.68 9.78,0.992 9.472,1.05 9.17,1.184 8.884,1.321 7.523,1.973 6.781,3.512 8.128,4.811 c 1.107,1.067 1.847,2.407 2.597,3.725 0.595,1.047 1.007,2.176 1.073,3.401 0.115,2.146 -0.793,3.558 -2.807,4.204 -2.597,0.834 -5.17,0.93 -7.677,-0.392 C -1.002,14.526 -1.772,12.938 -1.001,10.402 -0.141,7.568 0.928,4.81 2.731,2.406 2.827,2.278 2.938,2.161 3.022,2.026 3.515,1.236 3.19,0.397 2.246,0.214 1.468,0.063 0.662,0.058 0,0"
             style="fill:#000000;fill-opacity:1;fill-rule:nonzero;stroke:none"
             id="path67207" />
        </g>
        <g
           id="g67209"
           transform="translate(164.2898,121.0561)">
          <path
             d="m 0,0 0.048,-0.054 c 0,0 -0.045,0.082 -0.045,0.083 C 0.003,0.03 0,0 0,0"
             style="fill:#000000;fill-opacity:1;fill-rule:nonzero;stroke:none"
             id="path67211" />
        </g>
        <g
           id="g67213"
           transform="translate(72.2258,76.8178)">
          <path
             d="M 0,0 C -1.096,0.021 -2.435,1.347 -2.486,2.587 -2.513,3.229 -2,3.564 -1.366,3.356 -0.222,2.979 0.515,1.971 1.583,1.465 1.742,1.391 1.755,0.886 1.734,0.587 1.709,0.23 1.441,0.066 1.077,0.061 0.761,0.057 0.445,0.026 0,0"
             style="fill:#000000;fill-opacity:1;fill-rule:nonzero;stroke:none"
             id="path67215" />
        </g>
        <g
           id="g67217"
           transform="translate(28.9651,123.6762)">
          <path
             d="M 0,0 -0.149,0.136 0.023,0.183 Z"
             style="fill:#000000;fill-opacity:1;fill-rule:nonzero;stroke:none"
             id="path67219" />
        </g>
        <g
           id="g67221"
           transform="translate(27.9827,127.1693)">
          <path
             d="m 0,0 c -0.022,-0.055 -0.029,-0.136 -0.069,-0.16 -0.042,-0.023 -0.142,-0.012 -0.171,0.022 -0.117,0.139 -0.075,0.24 0.103,0.25 C -0.094,0.115 -0.046,0.04 0,0"
             style="fill:#000000;fill-opacity:1;fill-rule:nonzero;stroke:none"
             id="path67223" />
        </g>
        <g
           id="g67225"
           transform="translate(56.698,90.8383)">
          <path
             d="M 0,0 C 0.028,-0.163 0.059,-0.397 0.11,-0.627 0.198,-1.023 0.708,-1.238 1.055,-1.021 2.029,-0.407 2.747,0.413 3.045,1.547 3.127,1.859 3.095,2.184 2.863,2.438 2.559,2.773 2.161,2.754 1.76,2.686 1.343,2.614 1.044,2.352 0.789,2.043 0.316,1.474 0.11,0.794 0,0 m 2.503,-5.535 c -0.966,0.284 -2.531,-0.07 -4.118,-0.177 -2.488,-0.167 -4.193,1.315 -5.526,3.235 -0.692,0.998 -1.078,2.151 -1.161,3.366 -0.144,2.113 0.204,4.153 1.163,6.051 0.74,1.465 1.805,2.631 3.386,3.236 0.233,0.09 0.518,0.104 0.64,-0.118 C -3.018,9.884 -2.994,9.567 -3.091,9.409 -4.109,7.758 -4.762,5.964 -5.244,4.098 -5.631,2.6 -5.641,1.082 -5.365,-0.423 c 0.213,-1.163 0.802,-2.085 2.084,-2.35 0.52,-0.109 0.981,0.317 0.837,0.819 -0.155,0.536 -0.394,1.051 -0.523,1.592 -0.325,1.36 -0.278,2.704 0.379,3.97 0.916,1.763 2.507,2.46 4.42,1.928 C 2.84,5.255 3.773,4.795 4.604,4.15 6.061,3.021 6.397,1.966 5.875,0.146 5.743,-0.313 5.544,-0.753 5.404,-1.209 5.31,-1.519 5.649,-1.857 5.955,-1.787 9.812,-0.907 11.947,3.326 10.113,6.575 9.537,7.598 8.87,8.593 7.462,8.757 6.657,8.851 6.011,10.095 6.149,11.003 c 0.028,0.187 0.269,0.431 0.458,0.485 0.29,0.083 0.632,0.08 0.932,0.019 3.253,-0.673 7.365,-5.304 6.217,-9.781 C 13.43,0.451 12.879,-0.687 11.999,-1.636 9.61,-4.21 6.772,-5.837 2.503,-5.535"
             style="fill:#000000;fill-opacity:1;fill-rule:nonzero;stroke:none"
             id="path67227" />
        </g>
        <text
           xml:space="preserve"
           transform="matrix(1,0,0,-1,212.2139,151.2656)"
           style="font-variant:normal;font-weight:bold;font-stretch:normal;font-size:24px;font-family:'Tekton Pro';-inkscape-font-specification:TektonPro-Bold;writing-mode:lr-tb;fill:#000000;fill-opacity:1;fill-rule:nonzero;stroke:none"
           id="text67231"><tspan
             x="0"
             y="0"
             id="tspan67229">X</tspan></text>
      </g>
    </g>
    <text
       xml:space="preserve"
       transform="matrix(1,0,0,-1,273.2139,64.2656)"
       style="font-variant:normal;font-weight:bold;font-stretch:normal;font-size:24px;font-family:'Tekton Pro';-inkscape-font-specification:TektonPro-Bold;writing-mode:lr-tb;fill:#000000;fill-opacity:1;fill-rule:nonzero;stroke:none"
       id="text67235"><tspan
         x="0 12.24 20.208 37.68"
         y="0"
         id="tspan67233">X( )</tspan></text>
    <g
       id="g67237">
      <g
         id="g67239"
         clip-path="url(#clipPath67243)">
        <g
           id="g67245"
           transform="translate(298.4822,67.1068)">
          <path
             d="M 0,0 C 0.024,-0.142 0.051,-0.347 0.096,-0.547 0.172,-0.893 0.616,-1.08 0.92,-0.89 1.77,-0.355 2.396,0.36 2.655,1.349 2.728,1.621 2.699,1.904 2.497,2.127 2.231,2.419 1.885,2.402 1.535,2.342 1.172,2.28 0.911,2.052 0.687,1.782 0.275,1.286 0.096,0.692 0,0 M 2.184,-4.828 C 1.34,-4.58 -0.024,-4.89 -1.409,-4.982 c -2.17,-0.146 -3.657,1.146 -4.82,2.822 -0.603,0.869 -0.94,1.876 -1.012,2.935 -0.126,1.843 0.178,3.623 1.013,5.279 0.646,1.277 1.576,2.295 2.954,2.821 0.204,0.078 0.452,0.092 0.558,-0.103 0.083,-0.151 0.105,-0.426 0.02,-0.565 C -3.584,6.767 -4.153,5.202 -4.574,3.574 -4.911,2.268 -4.921,0.943 -4.68,-0.368 c 0.186,-1.016 0.7,-1.819 1.818,-2.051 0.454,-0.095 0.856,0.276 0.73,0.715 -0.135,0.468 -0.344,0.916 -0.456,1.389 -0.283,1.186 -0.243,2.358 0.331,3.462 0.799,1.539 2.187,2.146 3.855,1.681 C 2.477,4.584 3.291,4.183 4.016,3.62 5.286,2.635 5.579,1.715 5.124,0.127 5.009,-0.273 4.836,-0.656 4.714,-1.055 4.631,-1.325 4.927,-1.62 5.194,-1.56 8.558,-0.791 10.42,2.901 8.821,5.735 8.318,6.626 7.736,7.495 6.509,7.638 5.807,7.72 5.243,8.805 5.363,9.597 c 0.025,0.164 0.235,0.376 0.4,0.424 0.253,0.072 0.55,0.07 0.812,0.015 C 9.412,9.45 13,5.41 11.998,1.505 11.713,0.394 11.233,-0.6 10.465,-1.427 8.382,-3.672 5.906,-5.091 2.184,-4.828"
             style="fill:#000000;fill-opacity:1;fill-rule:nonzero;stroke:none"
             id="path67247" />
        </g>
      </g>
    </g>
    <text
       xml:space="preserve"
       transform="matrix(1,0,0,-1,179.2139,26.9961)"
       style="font-variant:normal;font-weight:bold;font-stretch:normal;font-size:24px;font-family:'Tekton Pro';-inkscape-font-specification:TektonPro-Bold;writing-mode:lr-tb;fill:#000000;fill-opacity:1;fill-rule:nonzero;stroke:none"
       id="text67251"><tspan
         x="0 12.24 17.496"
         y="0"
         id="tspan67249">X: </tspan></text>
    <g
       id="g67253">
      <g
         id="g67255"
         clip-path="url(#clipPath67259)">
        <g
           id="g67261"
           transform="translate(207.4021,23.809)">
          <path
             d="m 0,0 c -1.729,0.169 -3.321,0.311 -4.909,0.486 -0.753,0.083 -1.341,0.469 -1.752,1.122 -0.27,0.431 -0.056,1.031 0.421,1.156 0.637,0.168 1.269,0.085 1.902,-0.013 3.196,-0.491 3.598,-0.252 2.323,2.709 -0.753,1.75 -1.185,3.644 -1.693,5.492 -0.567,2.059 0.021,3.805 1.677,5.137 1.983,1.595 4.231,2.541 6.813,2.616 1.614,0.047 3.196,-0.179 4.742,-0.59 3.769,-1.003 5.877,-4.515 4.98,-8.321 C 14.175,8.396 13.743,7.017 12.864,5.832 12.626,5.512 12.421,5.166 12.219,4.821 11.573,3.72 11.664,3.489 12.872,3.191 13.57,3.02 14.282,2.899 14.972,2.703 15.428,2.573 15.864,2.378 16.194,1.99 16.576,1.541 16.528,0.868 16.065,0.504 15.667,0.19 15.215,0.023 14.727,0.104 13.074,0.38 11.426,0.68 9.78,0.991 9.472,1.05 9.17,1.184 8.884,1.321 7.523,1.974 6.78,3.512 8.128,4.811 c 1.107,1.067 1.848,2.407 2.597,3.725 0.595,1.047 1.007,2.176 1.073,3.401 0.114,2.147 -0.793,3.558 -2.808,4.205 C 6.394,16.975 3.821,17.071 1.314,15.748 -1.002,14.526 -1.772,12.938 -1.002,10.402 -0.141,7.568 0.928,4.81 2.73,2.406 2.827,2.278 2.938,2.161 3.022,2.026 3.515,1.236 3.19,0.396 2.246,0.214 1.468,0.062 0.662,0.058 0,0"
             style="fill:#000000;fill-opacity:1;fill-rule:nonzero;stroke:none"
             id="path67263" />
        </g>
        <g
           id="g67265"
           transform="translate(283.8074,35.4623)">
          <path
             d="M 0,0 C -0.003,0.513 -0.237,0.618 -0.451,0.706 -1.437,1.11 -2.482,1.073 -3.517,1.06 -4.692,1.045 -4.906,0.759 -4.704,-0.402 c 0.026,-0.158 0.06,-0.315 0.11,-0.465 0.262,-0.791 -0.019,-1.977 1,-2.234 0.902,-0.227 1.56,0.664 2.212,1.22 0.478,0.405 0.862,0.928 1.246,1.43 0.13,0.17 0.133,0.437 0.136,0.451 m -6.389,-6.712 c 0.074,2.085 -0.428,4.353 -0.817,6.632 -0.096,0.56 -0.33,1.045 -0.927,1.296 -1.864,0.784 -2.797,0.171 -2.497,-1.865 0.479,-3.246 0.591,-6.517 0.903,-9.773 0.069,-0.713 0.081,-1.432 0.07,-2.148 -0.006,-0.412 -0.193,-0.788 -0.601,-0.955 -0.501,-0.206 -0.938,-0.011 -1.311,0.326 -0.365,0.329 -0.609,0.741 -0.696,1.228 -0.111,0.629 -0.249,1.257 -0.301,1.891 -0.323,3.897 -0.625,7.796 -0.93,11.695 -0.044,0.557 -0.086,1.115 -0.082,1.674 0.012,1.37 0.212,1.537 1.66,1.574 0.476,0.013 0.954,0.064 1.423,0.142 2.62,0.434 5.25,0.376 7.876,0.113 C -1.671,5.023 -0.714,4.854 0.196,4.576 2.86,3.767 4.053,1.447 3.277,-1.229 2.796,-2.89 1.983,-4.312 0.524,-5.307 0.326,-5.441 0.129,-5.579 -0.053,-5.735 c -0.635,-0.547 -0.584,-0.988 0.172,-1.503 0.922,-0.629 1.86,-1.234 2.765,-1.888 0.927,-0.67 1.558,-1.59 2.033,-2.62 0.244,-0.531 0.264,-1.07 0.038,-1.624 -0.194,-0.476 -0.769,-0.72 -1.172,-0.414 -0.506,0.384 -0.971,0.822 -1.442,1.25 -1.38,1.254 -2.944,2.181 -4.734,2.723 -0.547,0.165 -0.93,0.039 -1.108,-0.542 -0.069,-0.228 -0.135,-0.462 -0.24,-0.674 -0.226,-0.452 -0.558,-0.797 -1.11,-0.748 -0.517,0.046 -0.916,0.37 -1.106,0.814 -0.216,0.505 -0.367,1.062 -0.414,1.607 -0.067,0.791 -0.018,1.594 -0.018,2.642"
             style="fill:#000000;fill-opacity:1;fill-rule:nonzero;stroke:none"
             id="path67267" />
        </g>
        <g
           id="g67269"
           transform="translate(227.531,32.3949)">
          <path
             d="m 0,0 c 4.269,0.1 -0.349,-0.684 3.91,-0.828 4.032,-0.138 8.051,-0.042 12.05,0.604 2.681,0.434 5.463,0.601 8.072,-0.107 0.604,-0.163 1.231,-0.071 1.828,-0.036 0.211,0.544 -0.245,0.919 -0.263,1.383 -0.033,0.817 0.493,1.48 1.332,1.58 0.348,0.041 0.713,0.029 1.061,-0.016 2.532,-0.329 5.16,-2.379 7.693,-2.709 2.128,-0.277 2.865,0.154 2.601,-1.928 -0.086,-0.673 -0.177,-1.346 -0.283,-2.016 -0.128,-0.806 -0.382,-1.058 -1.202,-1.203 -0.279,-0.05 -0.565,-0.085 -0.848,-0.088 -0.754,-0.01 -1.383,-0.248 -1.86,-0.831 -0.131,-0.159 -0.304,-0.289 -0.469,-0.419 -0.977,-0.769 -3.932,-3.95 -4.231,-2.82 -0.259,0.977 1.564,4.606 0.623,4.663 -1.772,0.11 -3.548,0.161 -5.314,0.318 -4.049,0.36 -3.754,2.07 -7.802,1.913 -4.044,-0.156 -8.14,0.559 -12.191,0.712 -3.903,0.147 4.655,-0.004 0.753,0.161 -4.971,0.211 1.688,-0.876 -3.284,-0.855"
             style="fill:#000000;fill-opacity:1;fill-rule:nonzero;stroke:none"
             id="path67271" />
        </g>
      </g>
    </g>
  </g>
</svg>
