<?xml version="1.0" encoding="UTF-8" standalone="no"?>
<!-- Created with Inkscape (http://www.inkscape.org/) -->

<svg
   version="1.1"
   id="svg68174"
   width="1706.1866"
   height="446.34668"
   viewBox="0 0 1706.1866 446.34668"
   xmlns="http://www.w3.org/2000/svg"
   xmlns:svg="http://www.w3.org/2000/svg">
  <defs
     id="defs68178">
    <clipPath
       clipPathUnits="userSpaceOnUse"
       id="clipPath68188">
      <path
         d="M 0,334.76 H 1279.637 V 0 H 0 Z"
         id="path68186" />
    </clipPath>
    <clipPath
       clipPathUnits="userSpaceOnUse"
       id="clipPath68260">
      <path
         d="M 0,334.76 H 1279.637 V 0 H 0 Z"
         id="path68258" />
    </clipPath>
  </defs>
  <g
     id="g68180"
     transform="matrix(1.3333333,0,0,-1.3333333,0,446.34667)">
    <g
       id="g68182">
      <g
         id="g68184"
         clip-path="url(#clipPath68188)">
        <g
           id="g68190"
           transform="translate(193.2535,21.014)">
          <path
             d="m 0,0 c 43.919,0 87.842,0.289 131.758,-0.118 22.851,-0.212 23.295,-0.742 22.141,22.094 -1.774,35.109 -5.429,70.163 -6.096,105.281 -0.779,40.984 0.627,82.015 1.5,123.018 0.167,7.876 -1.766,12.462 -10.176,13.277 -10.068,0.976 -20.099,3.429 -30.14,3.391 -32.285,-0.123 -64.566,-1.258 -96.853,-1.691 -23.95,-0.321 -47.907,-0.155 -71.861,-0.21 -37.656,-0.084 -75.314,-0.016 -112.962,-0.598 -2.628,-0.04 -7.205,-4.73 -7.457,-7.562 -2.64,-29.58 -6.614,-59.247 -6.258,-88.843 0.605,-50.388 3.981,-100.744 6.345,-151.106 1.073,-22.873 2.406,-23.687 25.59,-22.753 C -102.987,-3.746 -51.494,-1.919 0,0 m -173.335,-21.014 c -4.362,9.58 -11.283,18.832 -12.567,28.809 -2.911,22.606 -3.036,45.57 -4.312,68.389 -1.074,19.204 -3.242,38.42 -3.024,57.609 0.372,32.971 2.21,65.926 3.467,98.886 0.373,9.775 1.271,19.55 1.18,29.318 -0.085,9.093 3.11,12.861 12.786,12.817 58.378,-0.263 116.76,-0.266 175.137,0.155 33.392,0.241 66.779,2.087 100.163,1.954 16.585,-0.066 33.162,-2.921 49.734,-4.603 7.717,-0.782 8.562,-5.932 8.416,-12.505 -0.92,-41.374 -2.437,-82.762 -2.02,-124.128 0.325,-32.233 3.154,-64.441 4.904,-96.659 0.354,-6.518 0.693,-13.045 1.336,-19.538 0.957,-9.663 2.178,-19.3 3.519,-30.964 -2.093,0 -6.606,-0.279 -11.068,0.08 -4.257,0.343 -8.443,1.841 -12.691,1.994 -84.62,3.034 -169.075,1.044 -253.274,-8.56 -10.375,-1.184 -20.788,-2.044 -31.182,-3.054 z"
             style="fill:#000000;fill-opacity:1;fill-rule:nonzero;stroke:none"
             id="path68192" />
        </g>
        <g
           id="g68194"
           transform="translate(685.0573,22.0521)">
          <path
             d="m 0,0 c 0.008,-0.353 0.017,-0.705 0.024,-1.058 32.668,0 65.34,0.328 98.002,-0.112 22.348,-0.301 22.739,-0.76 21.667,21.528 -1.81,37.647 -5.238,75.245 -6.02,112.904 -0.806,38.803 0.594,77.659 1.379,116.485 0.148,7.37 -1.603,11.803 -9.609,12.607 -10.062,1.009 -20.088,3.62 -30.115,3.548 -44.628,-0.318 -89.248,-1.669 -133.875,-2.031 -48.178,-0.391 -96.361,-0.082 -144.541,-0.124 -5.297,-0.005 -11.116,1.272 -11.668,-7.291 -1.909,-29.64 -6.232,-59.28 -5.883,-88.875 0.593,-50.388 3.977,-100.744 6.301,-151.108 1.076,-23.342 2.625,-24.255 26.138,-23.329 C -125.474,-4.388 -62.734,-2.262 0,0 m -207.575,-22.052 c -4.362,9.58 -11.282,18.832 -12.567,28.809 -2.911,22.606 -3.036,45.57 -4.312,68.389 -1.074,19.204 -3.241,38.419 -3.025,57.609 0.374,32.971 2.211,65.926 3.468,98.886 0.373,9.775 1.272,19.55 1.18,29.318 -0.085,9.093 3.11,12.861 12.786,12.817 58.378,-0.263 116.76,-0.266 175.137,0.155 33.391,0.241 66.779,2.087 100.164,1.954 16.584,-0.066 33.162,-2.921 49.733,-4.603 7.718,-0.783 8.562,-5.932 8.416,-12.505 -0.921,-41.374 -2.436,-82.762 -2.019,-124.128 0.324,-32.233 3.153,-64.442 4.903,-96.659 0.355,-6.518 0.693,-13.045 1.336,-19.538 0.955,-9.649 2.176,-19.273 3.519,-30.964 -2.094,0 -6.607,-0.279 -11.068,0.08 -4.257,0.343 -8.443,1.841 -12.69,1.994 -84.62,3.034 -169.076,1.043 -253.275,-8.56 -10.375,-1.184 -20.787,-2.044 -31.182,-3.054 z"
             style="fill:#000000;fill-opacity:1;fill-rule:nonzero;stroke:none"
             id="path68196" />
        </g>
        <g
           id="g68198"
           transform="translate(178.0245,77.6556)">
          <path
             d="m 0,0 c 10.968,1.247 27.549,1.517 43.253,5.365 16.248,3.983 33.866,8.414 46.945,18.016 25.882,19.001 30.305,47.868 26.682,78.349 -2.48,20.857 -13.444,34.154 -33.778,38.9 -22.512,5.255 -44.157,2.478 -63.547,-10.585 -14.718,-9.916 -28.589,-11.577 -44.476,-2.058 -11.705,7.012 -24.719,12.023 -37.514,16.988 -14.821,5.75 -27.098,0.494 -38.82,-9.511 -25.667,-21.909 -28.706,-86.13 11.487,-110.718 C -63.63,8.757 -35.728,0.646 0,0 m 122.884,88.422 c 1.125,-29.354 -8.287,-51.987 -28.666,-69.87 -2.952,-2.59 -6.181,-5.339 -9.779,-6.648 -47.36,-17.22 -95.39,-24.565 -144.533,-7.795 -19.439,6.634 -37.171,16.366 -50.54,32.586 -23.761,28.83 -19.811,80.494 8.27,105.037 11.304,9.88 24.508,14.569 39.276,9.104 12.858,-4.759 26.159,-9.259 37.708,-16.392 15.778,-9.746 29.178,-8.774 44.085,1.489 16.444,11.32 35.651,14.263 55.195,12.054 31.89,-3.605 47.747,-21.289 48.969,-53.183 0.111,-2.897 0.015,-5.802 0.015,-6.382"
             style="fill:#000000;fill-opacity:1;fill-rule:nonzero;stroke:none"
             id="path68200" />
        </g>
        <g
           id="g68202"
           transform="translate(1212.8903,158.4007)">
          <path
             d="m 0,0 c -15.06,15.021 -30.039,30.291 -44.739,45.64 -11.08,11.57 -22,23.19 -32.67,34.79 14.46,5.131 30.04,5.171 45.809,1.46 C -11.289,77.101 -0.33,63.82 2.141,42.95 3.931,27.91 3.75,13.26 0,0"
             style="fill:#cccccc;fill-opacity:1;fill-rule:nonzero;stroke:none"
             id="path68204" />
        </g>
        <g
           id="g68206"
           transform="translate(1212.8903,158.4007)">
          <path
             d="m 0,0 c -15.06,15.021 -30.039,30.291 -44.739,45.64 -11.08,11.57 -22,23.19 -32.67,34.79 14.46,5.131 30.04,5.171 45.809,1.46 C -11.289,77.101 -0.33,63.82 2.141,42.95 3.931,27.91 3.75,13.26 0,0 Z"
             style="fill:none;stroke:#000000;stroke-width:6;stroke-linecap:butt;stroke-linejoin:miter;stroke-miterlimit:10;stroke-dasharray:none;stroke-opacity:1"
             id="path68208" />
        </g>
        <g
           id="g68210"
           transform="translate(1158.151,196.9212)">
          <path
             d="m 0,0 c -31.341,-30.94 -62.69,-66.41 -91.79,-102.95 h -0.01 c -25.721,3.019 -47.41,10.73 -67.99,23.33 -16.2,9.91 -25.37,26.269 -28.86,43.7 29.259,21.31 60.03,41.64 91.65,60.54 17.04,-10.31 32,-9.05 48.489,2.13 5.091,3.45 10.381,6.11 15.841,8.04 C -22,23.19 -11.08,11.57 0,0"
             style="fill:#cccccc;fill-opacity:1;fill-rule:nonzero;stroke:none"
             id="path68212" />
        </g>
        <g
           id="g68214"
           transform="translate(1158.151,196.9212)">
          <path
             d="m 0,0 c -31.341,-30.94 -62.69,-66.41 -91.79,-102.95 h -0.01 c -25.721,3.019 -47.41,10.73 -67.99,23.33 -16.2,9.91 -25.37,26.269 -28.86,43.7 29.259,21.31 60.03,41.64 91.65,60.54 17.04,-10.31 32,-9.05 48.489,2.13 5.091,3.45 10.381,6.11 15.841,8.04 C -22,23.19 -11.08,11.57 0,0 Z"
             style="fill:none;stroke:#000000;stroke-width:8;stroke-linecap:butt;stroke-linejoin:miter;stroke-miterlimit:10;stroke-dasharray:none;stroke-opacity:1"
             id="path68216" />
        </g>
        <g
           id="g68218"
           transform="translate(178.0245,77.6556)">
          <path
             d="m 0,0 c -35.728,0.646 -63.63,8.757 -89.768,24.746 -40.193,24.588 -37.154,88.809 -11.487,110.718 11.722,10.005 23.999,15.261 38.82,9.511 12.795,-4.965 25.809,-9.976 37.514,-16.988 15.887,-9.519 29.758,-7.858 44.476,2.058 19.39,13.063 41.035,15.84 63.547,10.585 20.334,-4.746 31.298,-18.043 33.778,-38.9 C 120.503,71.249 116.08,42.382 90.198,23.381 77.119,13.779 59.501,9.348 43.253,5.365 27.549,1.517 10.968,1.247 0,0"
             style="fill:#cccccc;fill-opacity:1;fill-rule:nonzero;stroke:none"
             id="path68220" />
        </g>
        <g
           id="g68222"
           transform="translate(39.7882,305.8812)">
          <path
             d="m 0,0 c -1.512,0 -5.417,-1.039 -7.85,0.404 -1.377,0.817 -0.659,5.75 -0.298,8.758 0.426,3.541 2.758,7.388 1.859,10.38 -0.684,2.275 -5.517,5.151 -7.793,4.634 -2.856,-0.65 -6.743,-4.297 -7.044,-7 -0.529,-4.759 1.324,-9.783 2.416,-16.057 -4.623,-0.341 -8.296,-0.612 -10.023,-0.74 0.066,6.711 9.066,-3.289 3.703,17.676 -0.891,3.484 1.794,9.075 3.899,9.708 4.717,1.42 10.725,1.627 15.156,-0.209 C -3.24,26.42 0.965,20.346 -0.948,16.88 -9.667,1.09 0.333,7.09 0,0"
             style="fill:#000000;fill-opacity:1;fill-rule:nonzero;stroke:none"
             id="path68224" />
        </g>
        <g
           id="g68226"
           transform="translate(498.2882,305.8812)">
          <path
             d="m 0,0 c -1.512,0 -5.417,-1.039 -7.85,0.404 -1.377,0.817 -0.659,5.75 -0.298,8.758 0.426,3.541 2.758,7.388 1.859,10.38 -0.684,2.275 -5.517,5.151 -7.793,4.634 -2.856,-0.65 -6.743,-4.297 -7.043,-7 -0.53,-4.759 1.323,-9.783 2.415,-16.057 -4.623,-0.341 -8.296,-0.612 -10.023,-0.74 6.066,4.711 7.066,4.711 3.703,17.676 -0.903,3.481 1.794,9.075 3.899,9.708 4.717,1.42 10.725,1.627 15.156,-0.209 C -3.24,26.42 1.125,20.252 -0.948,16.88 -5.925,8.785 -7.147,6.302 0,0"
             style="fill:#000000;fill-opacity:1;fill-rule:nonzero;stroke:none"
             id="path68228" />
        </g>
        <g
           id="g68230"
           transform="translate(467.4586,109.1898)">
          <path
             d="m 0,0 c 70.815,58.643 149.139,108.656 231.646,149.174 22.906,11.248 46.187,21.723 69.845,31.286 5.891,2.381 3.317,12.058 -2.658,9.643 C 212.206,155.089 129.953,108.873 54.141,54.319 33.215,39.262 12.785,23.514 -7.071,7.071 -12.032,2.963 -4.924,-4.077 0,0"
             style="fill:#000000;fill-opacity:1;fill-rule:nonzero;stroke:none"
             id="path68232" />
        </g>
        <g
           id="g68234"
           transform="translate(653.0856,241.9354)">
          <path
             d="m 0,0 c 47.929,-53.319 98.381,-104.371 150.434,-153.661 4.67,-4.423 11.754,2.636 7.07,7.072 C 105.452,-97.3 55,-46.248 7.07,7.071 2.76,11.867 -4.294,4.777 0,0"
             style="fill:#000000;fill-opacity:1;fill-rule:nonzero;stroke:none"
             id="path68236" />
        </g>
        <g
           id="g68238"
           transform="translate(560.9381,5.9476)">
          <path
             d="m 0,0 c 35.123,51.592 73.909,100.82 116.186,146.744 11.701,12.711 23.703,25.141 36.032,37.244 4.6,4.515 -2.473,11.585 -7.071,7.071 C 100.212,146.952 59.436,98.584 21.936,48.045 11.456,33.92 1.263,19.586 -8.635,5.047 -12.266,-0.286 -3.604,-5.295 0,0"
             style="fill:#000000;fill-opacity:1;fill-rule:nonzero;stroke:none"
             id="path68240" />
        </g>
      </g>
    </g>
    <text
       xml:space="preserve"
       transform="matrix(1,0,0,-1,165.4663,141.0537)"
       style="font-variant:normal;font-weight:bold;font-stretch:normal;font-size:36px;font-family:'Tekton Pro';-inkscape-font-specification:TektonPro-Bold;writing-mode:lr-tb;fill:#000000;fill-opacity:1;fill-rule:nonzero;stroke:none"
       id="text68252"><tspan
         x="0"
         y="0"
         id="tspan68242">B</tspan><tspan
         x="318.70801 341.20801"
         y="-116.928"
         id="tspan68244">A1</tspan><tspan
         x="572.76001 595.26001"
         y="-97.884003"
         id="tspan68246">A2</tspan><tspan
         x="593.71198 616.21198"
         y="95.292"
         id="tspan68248">A3</tspan><tspan
         x="351.07199 373.57199"
         y="92.447998"
         id="tspan68250">A4</tspan></text>
    <g
       id="g68254">
      <g
         id="g68256"
         clip-path="url(#clipPath68260)">
        <g
           id="g68262"
           transform="translate(1056.151,231.661)">
          <path
             d="m 0,0 c -22.387,-13.38 -51.651,-31.409 -91.65,-60.54 -5.18,25.79 2.08,53.94 17.42,67.02 11.73,10.01 23.99,15.17 38.839,9.5 C -23.591,11.46 -11.42,7.11 -0.79,0.48 -0.53,0.31 -0.261,0.15 0,0"
             style="fill:#cccccc;fill-opacity:1;fill-rule:nonzero;stroke:none"
             id="path68264" />
        </g>
        <g
           id="g68266"
           transform="translate(1054.2584,234.8992)">
          <path
             d="m 0,0 c -31.458,-18.813 -62.003,-38.981 -91.65,-60.54 1.836,-0.747 3.672,-1.494 5.508,-2.241 -4,20.977 -0.842,47.955 15.992,62.962 9.227,8.225 20.837,13.577 33.207,9.78 C -24.197,6.048 -11.387,0.442 0,-6.476 4.136,-8.989 7.909,-2.506 3.785,0 c -6.739,4.094 -13.77,7.454 -21.06,10.447 -6.942,2.85 -14.251,6.374 -21.662,7.737 -13.366,2.46 -25.357,-3.303 -35.4,-11.745 -19.819,-16.66 -23.611,-47.223 -19.037,-71.214 0.426,-2.233 3.635,-3.604 5.509,-2.241 29.647,21.559 60.192,41.726 91.65,60.54 C 7.923,-4.001 4.156,2.486 0,0"
             style="fill:#000000;fill-opacity:1;fill-rule:nonzero;stroke:none"
             id="path68268" />
        </g>
        <g
           id="g68270"
           transform="translate(1211.8903,143.4007)">
          <path
             d="m 0,0 c -3.84,-13.609 -11.449,-25.77 -24.56,-35.39 -13.089,-9.599 -30.71,-14.02 -46.96,-18 -15.7,-3.839 -32.28,-4.11 -43.299,-5.36 -7.571,0.141 -14.781,0.62 -21.71,1.44 29.099,36.54 60.449,72.01 91.79,102.95 C -30.039,30.291 -15.06,15.021 0,0"
             style="fill:#cccccc;fill-opacity:1;fill-rule:nonzero;stroke:none"
             id="path68272" />
        </g>
        <g
           id="g68274"
           transform="translate(1208.275,144.3978)">
          <path
             d="m 0,0 c -3.368,-11.5 -9.48,-21.635 -18.48,-29.612 -10.006,-8.87 -22.575,-13.631 -35.266,-17.238 -25.665,-7.295 -52.584,-10.733 -79.168,-7.707 l 2.651,-6.401 c 28.68,35.959 59.081,70.594 91.79,102.95 h -5.303 c 14.741,-15.382 29.661,-30.591 44.74,-45.64 3.421,-3.414 8.725,1.887 5.304,5.303 -15.081,15.049 -29.999,30.258 -44.741,45.64 -1.407,1.468 -3.884,1.403 -5.303,0 -32.709,-32.357 -63.111,-66.991 -91.79,-102.95 -2.122,-2.661 -0.704,-6.02 2.652,-6.402 28.744,-3.272 58.394,0.808 85.944,9.396 12.818,3.995 25.06,9.583 34.977,18.819 9.307,8.669 15.665,19.693 19.224,31.848 C 8.591,2.647 1.355,4.63 0,0"
             style="fill:#000000;fill-opacity:1;fill-rule:nonzero;stroke:none"
             id="path68276" />
        </g>
        <g
           id="g68278"
           transform="translate(1114.2535,21.014)">
          <path
             d="m 0,0 c 43.92,0 87.842,0.289 131.758,-0.118 22.851,-0.212 23.296,-0.742 22.141,22.094 -1.774,35.109 -5.429,70.163 -6.096,105.281 -0.779,40.984 0.628,82.015 1.5,123.018 0.167,7.876 -1.766,12.462 -10.176,13.277 -10.068,0.976 -20.1,3.429 -30.14,3.391 -32.286,-0.123 -64.566,-1.258 -96.853,-1.691 -23.95,-0.321 -47.906,-0.155 -71.861,-0.21 -37.656,-0.084 -75.314,-0.016 -112.962,-0.598 -2.628,-0.04 -7.205,-4.73 -7.457,-7.562 -2.64,-29.58 -6.615,-59.247 -6.258,-88.843 0.605,-50.388 3.981,-100.744 6.344,-151.106 1.075,-22.873 2.408,-23.687 25.59,-22.753 C -102.986,-3.746 -51.494,-1.919 0,0 m -173.336,-21.014 c -4.361,9.58 -11.281,18.832 -12.566,28.809 -2.911,22.606 -3.036,45.57 -4.312,68.389 -1.074,19.204 -3.241,38.42 -3.024,57.609 0.373,32.971 2.21,65.926 3.467,98.886 0.373,9.775 1.272,19.55 1.18,29.318 -0.085,9.093 3.11,12.861 12.785,12.817 58.378,-0.263 116.761,-0.266 175.138,0.155 33.392,0.241 66.779,2.087 100.163,1.954 16.585,-0.066 33.162,-2.921 49.734,-4.603 7.717,-0.782 8.562,-5.932 8.416,-12.505 -0.92,-41.374 -2.436,-82.762 -2.019,-124.128 0.324,-32.233 3.153,-64.441 4.903,-96.659 0.354,-6.518 0.693,-13.045 1.336,-19.538 0.956,-9.663 2.178,-19.3 3.519,-30.964 -2.094,0 -6.607,-0.279 -11.068,0.08 -4.256,0.343 -8.443,1.841 -12.69,1.994 -84.621,3.034 -169.076,1.044 -253.275,-8.56 -10.375,-1.184 -20.788,-2.044 -31.182,-3.054 z"
             style="fill:#000000;fill-opacity:1;fill-rule:nonzero;stroke:none"
             id="path68280" />
        </g>
        <g
           id="g68282"
           transform="translate(960.7877,305.8812)">
          <path
             d="m 0,0 c -1.511,0 -5.417,-1.039 -7.85,0.404 -1.377,0.817 -0.659,5.75 -0.297,8.758 0.425,3.541 2.757,7.388 1.859,10.38 -0.684,2.275 -5.517,5.151 -7.793,4.634 -2.856,-0.65 -6.743,-4.297 -7.044,-7 -0.529,-4.759 1.323,-9.783 2.415,-16.057 -4.623,-0.341 -8.295,-0.612 -10.023,-0.74 0.066,6.711 9.066,-3.289 3.704,17.676 -0.892,3.484 1.794,9.075 3.898,9.708 4.718,1.42 10.725,1.627 15.156,-0.209 C -3.239,26.42 0.966,20.346 -0.948,16.88 -9.667,1.09 0.333,7.09 0,0"
             style="fill:#000000;fill-opacity:1;fill-rule:nonzero;stroke:none"
             id="path68284" />
        </g>
      </g>
    </g>
    <text
       xml:space="preserve"
       transform="matrix(1,0,0,-1,987.166,215.9961)"
       style="font-variant:normal;font-weight:bold;font-stretch:normal;font-size:36px;font-family:'Tekton Pro';-inkscape-font-specification:TektonPro-Bold;writing-mode:lr-tb;fill:#000000;fill-opacity:1;fill-rule:nonzero;stroke:none"
       id="text68294"><tspan
         x="0 20.16"
         y="0"
         id="tspan68286">C1</tspan><tspan
         x="39.348 59.507999"
         y="94.356003"
         id="tspan68288">C4</tspan><tspan
         x="173.34 193.5"
         y="90.360001"
         id="tspan68290">C3</tspan><tspan
         x="182.052 202.21201"
         y="9.0360003"
         id="tspan68292">C2</tspan></text>
  </g>
</svg>
