<?xml version="1.0" encoding="UTF-8" standalone="no"?>
<!-- Created with Inkscape (http://www.inkscape.org/) -->

<svg
   version="1.1"
   id="svg68555"
   width="289.33334"
   height="245.33333"
   viewBox="0 0 289.33334 245.33333"
   xmlns="http://www.w3.org/2000/svg"
   xmlns:svg="http://www.w3.org/2000/svg">
  <defs
     id="defs68559">
    <clipPath
       clipPathUnits="userSpaceOnUse"
       id="clipPath68571">
      <path
         d="m 177.8966,78.8947 c 0.235,2.073 0.771,4.767 0.807,7.466 0.149,11.045 -0.511,22.059 -2.156,32.982 -0.699,4.648 -1.604,9.331 -3.055,13.79 -4.241,13.028 -12.481,23.251 -23.106,31.695 -4.287,3.407 -9.089,5.921 -13.925,8.421 -9.506,4.915 -19.724,6.907 -30.273,7.434 -7.192,0.358 -14.354,-0.178 -21.527,-0.977 -12.072,-1.347 -23.465,-4.827 -34.276,-10.204 -4.715,-2.345 -9.221,-5.176 -13.177,-8.706 -7.354,-6.56 -14.152,-13.678 -20.035,-21.587 -3.964,-5.328 -7.278,-11.105 -9.706,-17.318 -3.36,-8.601 -3.863,-17.73 -3.39,-26.704 0.554,-10.507 3.862,-20.386 10.724,-28.737 1.117,-1.36 2.171,-2.775 3.348,-4.078 4.335,-4.804 8.855,-9.445 12.232,-15.039 0.676,-1.12 1.94,-1.867 2.72,-2.94 3.895,-5.36 7.742,-10.755 11.561,-16.169 4.629,-6.563 10.646,-11.692 17.05,-16.379 4.343,-3.178 9.104,-5.634 14.361,-7.013 7.304,-1.915 14.724,-2.063 22.137,-1.079 11.211,1.49 21.656,5.373 31.721,10.465 6.37,3.223 12.567,6.702 18.128,11.169 6.011,4.827 11.086,10.524 15.256,17.059 7.056,11.056 11.648,23.062 14.581,36.449 m -10.3,73.828 c 1.675,0.675 3.148,1.282 4.629,1.864 2.139,0.84 2.547,0.667 3.713,-1.54 -0.771,-1.237 -1.663,-2.233 -3.293,-2.444 -0.909,-0.118 -1.763,-0.667 -2.86,-1.11 0.736,-1.423 1.331,-2.693 2.031,-3.902 2.626,-4.528 4.427,-9.369 5.785,-14.415 2.512,-9.322 3.441,-18.845 3.862,-28.444 0.204,-4.629 0.462,-9.259 0.532,-13.891 0.081,-5.386 -0.845,-10.668 -2.117,-15.884 -1.899,-7.799 -4.599,-15.327 -8.261,-22.46 -4.284,-8.348 -9.415,-16.066 -16.426,-22.517 -8.158,-7.507 -17.425,-13.168 -27.33,-17.962 -5.849,-2.831 -11.919,-5.038 -18.123,-6.899 -8.737,-2.621 -17.655,-3.515 -26.775,-2.954 -10.667,0.655 -19.632,5.097 -27.848,11.602 -5.636,4.463 -10.356,9.761 -14.656,15.437 -5.644,7.451 -11.017,15.108 -16.631,22.583 -2.057,2.739 -4.487,5.197 -6.714,7.81 -3.679,4.317 -7.644,8.45 -10.229,13.558 -2.932,5.796 -5.132,11.879 -6.123,18.344 -0.194,1.262 -0.411,2.523 -0.576,3.79 -0.103,0.79 -0.231,1.598 -0.171,2.385 0.256,3.337 0.611,6.667 0.86,10.004 0.119,1.588 0.038,3.19 0.121,4.781 0.413,7.954 3.159,15.102 7.488,21.713 1.09,1.663 2.138,3.369 3.027,5.144 1.887,3.768 4.628,6.893 7.428,9.947 3.117,3.397 6.613,6.459 9.603,9.958 2.195,2.57 4.442,5.052 7.131,7.049 2.935,2.179 6.114,4.027 9.128,6.105 4.445,3.064 9.535,4.772 14.388,6.978 1.01,0.459 2.1,0.749 3.165,1.075 2.971,0.908 5.941,1.821 8.928,2.676 0.987,0.283 2.017,0.437 3.038,0.583 4.177,0.599 8.358,1.172 12.538,1.752 1.263,0.175 2.523,0.446 3.791,0.492 2.466,0.088 4.938,0.076 7.407,0.052 3.031,-0.028 6.07,0.005 9.091,-0.203 3.58,-0.247 7.142,-0.761 10.718,-1.092 4.793,-0.442 9.283,-1.961 13.777,-3.571 4.357,-1.561 8.343,-3.852 12.503,-5.796 4.56,-2.131 7.987,-5.707 12.062,-8.435 1.674,-1.121 2.912,-2.906 4.313,-4.421 2.317,-2.506 4.607,-5.038 7.076,-7.742"
         clip-rule="evenodd"
         id="path68569" />
    </clipPath>
    <clipPath
       clipPathUnits="userSpaceOnUse"
       id="clipPath68577">
      <path
         d="M 2.283482e-4,0.00437068 H 182.00053 V 183.99997 H 2.283482e-4 Z"
         id="path68575" />
    </clipPath>
    <clipPath
       clipPathUnits="userSpaceOnUse"
       id="clipPath68587">
      <path
         d="m 178.4933,175.52 c -1.4711,-0.54 -3.5726,-2.25 -4.203,-3.45 -0.4204,-0.84 -0.4204,-0.87 0.2401,-0.87 0.4504,0 1.2309,0.6 2.1916,1.65 1.321,1.41 1.6812,1.65 2.6119,1.65 1.6512,0 1.8013,-0.42 1.291,-3.48 -0.6305,-3.69 -0.6605,-3.72 -1.6212,-3.72 -0.7506,0 -1.8314,-0.78 -1.8314,-1.29 0,-0.12 0.4804,-0.21 1.0808,-0.21 1.0508,0 1.0508,-0.03 0.8707,-0.96 -0.1201,-0.54 -0.6905,-2.28 -1.2309,-3.84 -0.5704,-1.56 -1.0208,-2.88 -1.0208,-2.91 0,-0.06 0.2402,-0.09 0.5404,-0.09 1.2009,0 1.8314,0.9 2.9422,4.35 l 1.1408,3.42 3.2724,0.09 c 3.1222,0.09 3.2423,0.06 3.0622,-0.51 -0.0901,-0.33 -0.3903,-1.92 -0.6605,-3.54 -0.3903,-2.16 -0.4503,-3.06 -0.2101,-3.45 0.4503,-0.69 2.3417,-0.81 3.8728,-0.24 1.411,0.54 3.0322,2.07 2.732,2.55 -0.3303,0.51 -0.6905,0.39 -1.8314,-0.6 -0.8406,-0.75 -1.2309,-0.9 -1.8313,-0.75 -0.7806,0.21 -0.8106,0.24 -0.6305,2.22 0.2102,2.16 1.7713,8.16 3.0322,11.64 0.9307,2.55 0.9607,2.82 0.2402,2.82 -0.9907,0 -1.7713,-1.29 -2.9721,-4.95 l -1.2009,-3.6 -3.2424,-0.09 -3.2423,-0.09 0.2101,0.69 c 0.4504,1.56 1.0808,5.16 1.0808,6.21 0,0.6 -0.1501,1.26 -0.3603,1.47 -0.4803,0.48 -2.792,0.42 -4.3231,-0.12 z"
         id="path68585" />
    </clipPath>
    <clipPath
       clipPathUnits="userSpaceOnUse"
       id="clipPath68593">
      <path
         d="M 0,0 H 217 V 184 H 0 Z"
         id="path68591" />
    </clipPath>
    <clipPath
       clipPathUnits="userSpaceOnUse"
       id="clipPath68603">
      <path
         d="m 200.7094,166.88 c -3.9328,-1.83 -6.0343,-6.36 -4.3531,-9.48 0.7505,-1.44 2.6719,-2.4 4.7434,-2.4 1.5912,0 1.5912,0 1.5912,-0.93 0,-1.41 0.4803,-2.07 1.5311,-2.07 1.2609,0 1.8914,0.39 2.6419,1.65 1.0208,1.74 0.6605,2.82 -0.3903,1.2 -0.6304,-0.96 -2.1015,-1.05 -2.5818,-0.12 -0.3903,0.72 -0.4504,0.63 0.8106,1.29 4.7134,2.4 5.8542,9.06 1.8913,11.04 -1.5311,0.78 -4.0229,0.69 -5.8843,-0.18 z m 4.5333,-0.3 c 2.732,-1.14 2.4919,-6.15 -0.4503,-9.03 l -1.1708,-1.14 -0.6305,0.78 c -0.4203,0.51 -0.9307,0.81 -1.441,0.81 -0.9908,0 -1.351,-0.24 -1.8314,-1.11 -0.4503,-0.87 -1.0507,-0.63 -1.6512,0.66 -0.6004,1.26 -0.6004,2.4 0.0301,4.32 0.6004,1.89 2.2216,3.84 3.8127,4.56 1.5011,0.66 2.0115,0.69 3.3324,0.15 z m -2.9121,-9.96 c 0.0601,-0.48 -0.1201,-0.69 -0.6905,-0.84 -0.8706,-0.21 -1.351,-0.03 -1.351,0.54 0,1.14 1.8914,1.41 2.0415,0.3 z"
         id="path68601" />
    </clipPath>
    <clipPath
       clipPathUnits="userSpaceOnUse"
       id="clipPath68609">
      <path
         d="M 0,0 H 217 V 184 H 0 Z"
         id="path68607" />
    </clipPath>
    <clipPath
       clipPathUnits="userSpaceOnUse"
       id="clipPath68619">
      <path
         d="m 40.3072,121.1891 c -0.044,-2.63 -0.361,-5.29 -0.081,-7.884 0.707,-6.55 4.085,-10.19 11.341,-8.899 4.011,0.714 8.058,1.302 12.005,2.285 7.353,1.833 14.679,1.85 22.117,0.62 6.002,-0.993 11.953,-0.418 17.761,1.46 4.532,1.465 8.349,4.022 11.349,7.693 0.988,1.208 1.779,2.679 2.286,4.158 1.398,4.084 1.564,8.287 0.758,12.541 -0.43,2.267 -1.27,4.326 -2.978,5.885 -1.586,1.448 -3.411,2.636 -4.978,4.102 -4.115,3.851 -9.087,6.158 -14.207,8.274 -6.296,2.601 -12.745,3.477 -19.485,2.273 -1.953,-0.349 -3.975,-0.29 -5.951,-0.529 -1.567,-0.189 -3.26,-0.239 -4.638,-0.895 -2.798,-1.332 -5.555,-2.84 -8.089,-4.619 -4.977,-3.494 -8.901,-8.012 -11.764,-13.393 -2.213,-4.161 -4.492,-8.311 -5.446,-13.072 m 50.259,35.981 c 4.799,-1.177 11.036,-3.614 16.692,-7.302 3.8,-2.479 7.466,-5.175 10.724,-8.416 2.523,-2.51 3.803,-5.5 4.389,-8.86 0.845,-4.837 0.293,-9.591 -1.453,-14.149 -0.615,-1.607 -1.573,-3.175 -2.703,-4.477 -5.946,-6.848 -13.721,-9.99 -22.588,-10.656 -4.231,-0.318 -8.478,-0.23 -12.673,0.541 -6.003,1.102 -11.927,0.649 -17.844,-0.672 -3.742,-0.835 -7.514,-1.547 -11.288,-2.236 -1.409,-0.257 -2.854,-0.356 -4.288,-0.419 -7.707,-0.338 -12.283,6.71 -12.649,12.175 -0.491,7.335 1.286,14.042 4.68,20.497 3.408,6.481 7.914,11.983 13.645,16.484 1.69,1.327 3.562,2.428 5.382,3.585 1.478,0.94 2.954,1.906 4.523,2.674 1.128,0.553 2.383,0.958 3.625,1.148 2.76,0.421 5.546,0.691 8.325,0.975 3.928,0.399 7.827,0.106 13.501,-0.892"
         clip-rule="evenodd"
         id="path68617" />
    </clipPath>
    <clipPath
       clipPathUnits="userSpaceOnUse"
       id="clipPath68625">
      <path
         d="M 0,0 H 217 V 184 H 0 Z"
         id="path68623" />
    </clipPath>
    <clipPath
       clipPathUnits="userSpaceOnUse"
       id="clipPath68635">
      <path
         d="m 86.25302,140.5882 c -0.70595,-0.464 -0.7874,-1.6756 -0.19006,-2.681 0.51589,-0.8507 0.51589,-1.2889 0,-1.2889 -0.81456,0 -2.49798,-1.753 -2.85096,-2.9904 -0.29867,-1.0053 -0.29867,-1.2889 0.10861,-2.0623 0.51589,-1.0569 1.98209,-1.7529 3.17678,-1.5209 1.41191,0.3093 2.95957,2.5779 2.95957,4.3824 -0.02715,0.7218 -0.92317,2.3974 -2.0364,3.6864 -1.54766,1.8303 -1.05893,2.7067 0.97747,1.7014 C 89.3755,139.3508 90,139.4797 90,140.1758 c 0,0.8507 -2.6609,1.1342 -3.74698,0.4124 z m 1.14039,-5.0526 c 0.57019,-0.7734 0.54304,-2.7068 -0.05431,-3.8153 -0.38012,-0.7734 -0.59734,-0.9023 -1.4119,-0.9023 -0.7331,0 -1.00462,0.1547 -1.33045,0.6961 -0.38013,0.6187 -0.35297,0.8249 0.05431,2.1138 0.29867,0.8507 0.76025,1.6241 1.19468,1.9592 0.86887,0.6445 1.03178,0.6445 1.54767,-0.0515 z"
         id="path68633" />
    </clipPath>
    <clipPath
       clipPathUnits="userSpaceOnUse"
       id="clipPath68641">
      <path
         d="M 0,0 H 217 V 184 H 0 Z"
         id="path68639" />
    </clipPath>
    <clipPath
       clipPathUnits="userSpaceOnUse"
       id="clipPath68651">
      <path
         d="m 68.66791,135.6053 c -1.20084,-0.444 -2.91633,-1.8501 -3.43098,-2.8368 -0.34309,-0.6907 -0.34309,-0.7154 0.19606,-0.7154 0.3676,0 1.00478,0.4934 1.78901,1.3567 1.0783,1.1594 1.37239,1.3568 2.1321,1.3568 1.34788,0 1.47042,-0.3454 1.0538,-2.8615 -0.51465,-3.0342 -0.53915,-3.0589 -1.32338,-3.0589 -0.61267,0 -1.49492,-0.6414 -1.49492,-1.0607 0,-0.0987 0.39211,-0.1727 0.88225,-0.1727 0.85774,0 0.85774,-0.0247 0.7107,-0.7894 -0.09803,-0.444 -0.56366,-1.8748 -1.00478,-3.1575 -0.46563,-1.2828 -0.83324,-2.3682 -0.83324,-2.3928 0,-0.0494 0.19606,-0.074 0.44113,-0.074 0.98027,0 1.49492,0.74 2.40168,3.5769 l 0.93126,2.8121 2.67126,0.074 c 2.54872,0.074 2.64675,0.0494 2.49971,-0.4193 -0.07352,-0.2714 -0.31859,-1.5788 -0.53916,-2.9109 -0.31859,-1.7761 -0.3676,-2.5161 -0.17155,-2.8368 0.36761,-0.5674 1.91155,-0.6661 3.1614,-0.1974 1.15183,0.4441 2.4752,1.7022 2.23013,2.0968 -0.26957,0.4194 -0.56366,0.3207 -1.49492,-0.4933 -0.6862,-0.6167 -1.00479,-0.7401 -1.49492,-0.6167 -0.63719,0.1727 -0.66169,0.1973 -0.51465,1.8254 0.17155,1.7761 1.44591,6.7098 2.4752,9.5713 0.75972,2.0968 0.78422,2.3188 0.19606,2.3188 -0.80873,0 -1.44591,-1.0607 -2.42619,-4.0703 l -0.98028,-2.9601 -2.64675,-0.074 -2.64675,-0.0741 0.17155,0.5674 c 0.3676,1.2828 0.88225,4.243 0.88225,5.1063 0,0.4934 -0.12253,1.0361 -0.29408,1.2088 -0.39211,0.3947 -2.27915,0.3453 -3.529,-0.0987 z"
         id="path68649" />
    </clipPath>
    <clipPath
       clipPathUnits="userSpaceOnUse"
       id="clipPath68657">
      <path
         d="M 0,0 H 217 V 184 H 0 Z"
         id="path68655" />
    </clipPath>
    <clipPath
       clipPathUnits="userSpaceOnUse"
       id="clipPath68667">
      <path
         d="m 87.10563,126.4057 c -3.27053,-1.5257 -5.01815,-5.3025 -3.62006,-7.9036 0.62415,-1.2006 2.22197,-2.001 3.94462,-2.001 1.3232,0 1.3232,0 1.3232,-0.7753 0,-1.1755 0.39945,-1.7258 1.27326,-1.7258 1.04857,0 1.57285,0.3251 2.197,1.3756 0.84884,1.4507 0.54925,2.3511 -0.32456,1.0005 -0.52428,-0.8004 -1.74761,-0.8754 -2.14707,-0.1001 -0.32455,0.6003 -0.37449,0.5253 0.67408,1.0755 3.91966,2.0009 4.86836,7.5535 1.57286,9.2042 -1.27326,0.6503 -3.34544,0.5753 -4.89333,-0.15 z m 3.76986,-0.2502 c 2.2719,-0.9504 2.07217,-5.1273 -0.37449,-7.5284 l -0.97367,-0.9504 -0.52428,0.6503 c -0.34953,0.4252 -0.77395,0.6753 -1.19837,0.6753 -0.82388,0 -1.12347,-0.2001 -1.52292,-0.9254 -0.37449,-0.7254 -0.87381,-0.5253 -1.37313,0.5502 -0.49932,1.0505 -0.49932,2.0009 0.02497,3.6017 0.49932,1.5757 1.84748,3.2014 3.17067,3.8017 1.2483,0.5502 1.67272,0.5752 2.77122,0.125 z m -2.4217,-8.3037 c 0.04994,-0.4002 -0.09986,-0.5753 -0.57421,-0.7004 -0.72401,-0.175 -1.12347,-0.025 -1.12347,0.4502 0,0.9505 1.57286,1.1756 1.69768,0.2502 z"
         id="path68665" />
    </clipPath>
    <clipPath
       clipPathUnits="userSpaceOnUse"
       id="clipPath68673">
      <path
         d="M 0,0 H 217 V 184 H 0 Z"
         id="path68671" />
    </clipPath>
  </defs>
  <g
     id="g68561"
     transform="matrix(1.3333333,0,0,-1.3333333,0,245.33333)">
    <g
       id="g68563" />
    <g
       id="g68565">
      <g
         id="g68567"
         clip-path="url(#clipPath68571)">
        <g
           id="g68573"
           clip-path="url(#clipPath68577)">
          <path
             d="M -0.9997717,185 H 183.0005 V -0.9956293 H -0.9997717 Z"
             style="fill:#000000;fill-opacity:1;fill-rule:nonzero;stroke:none"
             id="path68579" />
        </g>
      </g>
    </g>
    <g
       id="g68581">
      <g
         id="g68583"
         clip-path="url(#clipPath68587)">
        <g
           id="g68589"
           clip-path="url(#clipPath68593)">
          <path
             d="m 172.8699,156.55 h 21.9946 v 20.57 h -21.9946 z"
             style="fill:#000000;fill-opacity:1;fill-rule:nonzero;stroke:none"
             id="path68595" />
        </g>
      </g>
    </g>
    <g
       id="g68597">
      <g
         id="g68599"
         clip-path="url(#clipPath68603)">
        <g
           id="g68605"
           clip-path="url(#clipPath68609)">
          <path
             d="m 193.6751,151 h 17.8815 v 17.84 h -17.8815 z"
             style="fill:#000000;fill-opacity:1;fill-rule:nonzero;stroke:none"
             id="path68611" />
        </g>
      </g>
    </g>
    <g
       id="g68613">
      <g
         id="g68615"
         clip-path="url(#clipPath68619)">
        <g
           id="g68621"
           clip-path="url(#clipPath68625)">
          <path
             d="m 35.3942,159.4611 h 88.822 v -60.275 h -88.822 z"
             style="fill:#000000;fill-opacity:1;fill-rule:nonzero;stroke:none"
             id="path68627" />
        </g>
      </g>
    </g>
    <g
       id="g68629">
      <g
         id="g68631"
         clip-path="url(#clipPath68635)">
        <g
           id="g68637"
           clip-path="url(#clipPath68641)">
          <path
             d="M 81.91333,128.8127 H 91 V 142.31 h -9.08667 z"
             style="fill:#000000;fill-opacity:1;fill-rule:nonzero;stroke:none"
             id="path68643" />
        </g>
      </g>
    </g>
    <g
       id="g68645">
      <g
         id="g68647"
         clip-path="url(#clipPath68651)">
        <g
           id="g68653"
           clip-path="url(#clipPath68657)">
          <path
             d="m 63.89384,119.829 h 18.32162 v 17.2697 H 63.89384 Z"
             style="fill:#000000;fill-opacity:1;fill-rule:nonzero;stroke:none"
             id="path68659" />
        </g>
      </g>
    </g>
    <g
       id="g68661">
      <g
         id="g68663"
         clip-path="url(#clipPath68667)">
        <g
           id="g68669"
           clip-path="url(#clipPath68673)">
          <path
             d="m 81.08748,113 h 15.20698 v 15.206 H 81.08748 Z"
             style="fill:#000000;fill-opacity:1;fill-rule:nonzero;stroke:none"
             id="path68675" />
        </g>
      </g>
    </g>
  </g>
</svg>
