<?xml version="1.0" encoding="UTF-8" standalone="no"?>
<!-- Created with Inkscape (http://www.inkscape.org/) -->

<svg
   version="1.1"
   id="svg68393"
   width="289.39334"
   height="245.328"
   viewBox="0 0 289.39334 245.328"
   xmlns="http://www.w3.org/2000/svg"
   xmlns:svg="http://www.w3.org/2000/svg">
  <defs
     id="defs68397">
    <clipPath
       clipPathUnits="userSpaceOnUse"
       id="clipPath68407">
      <path
         d="M 0,183.996 H 217.045 V 0 H 0 Z"
         id="path68405" />
    </clipPath>
  </defs>
  <g
     id="g68399"
     transform="matrix(1.3333333,0,0,-1.3333333,0,245.328)">
    <g
       id="g68401">
      <g
         id="g68403"
         clip-path="url(#clipPath68407)">
        <g
           id="g68409"
           transform="translate(177.8966,78.8907)">
          <path
             d="m 0,0 c 0.235,2.073 0.771,4.767 0.807,7.466 0.149,11.045 -0.511,22.059 -2.156,32.982 -0.699,4.648 -1.604,9.331 -3.055,13.79 -4.241,13.028 -12.481,23.251 -23.106,31.695 -4.287,3.407 -9.089,5.921 -13.925,8.421 -9.506,4.915 -19.724,6.907 -30.273,7.434 -7.192,0.358 -14.354,-0.178 -21.527,-0.977 -12.072,-1.347 -23.465,-4.827 -34.276,-10.204 -4.715,-2.345 -9.221,-5.176 -13.177,-8.706 -7.354,-6.56 -14.152,-13.678 -20.035,-21.587 -3.964,-5.328 -7.278,-11.105 -9.706,-17.318 -3.36,-8.601 -3.863,-17.73 -3.39,-26.704 0.554,-10.507 3.862,-20.386 10.724,-28.737 1.117,-1.36 2.171,-2.775 3.348,-4.078 4.335,-4.804 8.855,-9.445 12.232,-15.039 0.676,-1.12 1.94,-1.867 2.72,-2.94 3.895,-5.36 7.742,-10.755 11.561,-16.169 4.629,-6.563 10.646,-11.692 17.05,-16.379 4.343,-3.178 9.104,-5.634 14.361,-7.013 7.304,-1.915 14.724,-2.063 22.137,-1.079 11.211,1.49 21.656,5.373 31.721,10.465 6.37,3.223 12.567,6.702 18.128,11.169 6.011,4.827 11.086,10.524 15.256,17.059 C -7.525,-25.393 -2.933,-13.387 0,0 m -10.3,73.828 c 1.675,0.675 3.148,1.282 4.629,1.864 2.139,0.84 2.547,0.667 3.713,-1.54 -0.771,-1.237 -1.663,-2.233 -3.293,-2.444 -0.909,-0.118 -1.763,-0.667 -2.86,-1.11 0.736,-1.423 1.331,-2.693 2.031,-3.902 2.626,-4.528 4.427,-9.369 5.785,-14.415 C 2.217,42.959 3.146,33.436 3.567,23.837 3.771,19.208 4.029,14.578 4.099,9.946 4.18,4.56 3.254,-0.722 1.982,-5.938 c -1.899,-7.799 -4.599,-15.327 -8.261,-22.46 -4.284,-8.348 -9.415,-16.066 -16.426,-22.517 -8.158,-7.507 -17.425,-13.168 -27.33,-17.962 -5.849,-2.831 -11.919,-5.038 -18.123,-6.899 -8.737,-2.621 -17.655,-3.515 -26.775,-2.954 -10.667,0.655 -19.632,5.097 -27.848,11.602 -5.636,4.463 -10.356,9.761 -14.656,15.437 -5.644,7.451 -11.017,15.108 -16.631,22.583 -2.057,2.739 -4.487,5.197 -6.714,7.81 -3.679,4.317 -7.644,8.45 -10.229,13.558 -2.932,5.796 -5.132,11.879 -6.123,18.344 -0.194,1.262 -0.411,2.523 -0.576,3.79 -0.103,0.79 -0.231,1.598 -0.171,2.385 0.256,3.337 0.611,6.667 0.86,10.004 0.119,1.588 0.038,3.19 0.121,4.781 0.413,7.954 3.159,15.102 7.488,21.713 1.09,1.663 2.138,3.369 3.027,5.144 1.887,3.768 4.628,6.893 7.428,9.947 3.117,3.397 6.613,6.459 9.603,9.958 2.195,2.57 4.442,5.052 7.131,7.049 2.935,2.179 6.114,4.027 9.128,6.105 4.445,3.064 9.535,4.772 14.388,6.978 1.01,0.459 2.1,0.749 3.165,1.075 2.971,0.908 5.941,1.821 8.928,2.676 0.987,0.283 2.017,0.437 3.038,0.583 4.177,0.599 8.358,1.172 12.538,1.752 1.263,0.175 2.523,0.446 3.791,0.492 2.466,0.088 4.938,0.076 7.407,0.052 3.031,-0.028 6.07,0.005 9.091,-0.203 3.58,-0.247 7.142,-0.761 10.718,-1.092 4.793,-0.442 9.283,-1.961 13.777,-3.571 4.357,-1.561 8.343,-3.852 12.503,-5.796 4.56,-2.131 7.987,-5.707 12.062,-8.435 1.674,-1.121 2.912,-2.906 4.313,-4.421 2.317,-2.506 4.607,-5.038 7.076,-7.742"
             style="fill:#000000;fill-opacity:1;fill-rule:nonzero;stroke:none"
             id="path68411" />
        </g>
        <g
           id="g68413"
           transform="translate(195.2716,167.7598)">
          <path
             d="m 0,0 c -0.663,-0.177 -1.261,-0.42 -1.311,-0.337 -0.832,1.398 -2.006,0.692 -2.974,0.417 -3.118,-0.889 -5.38,-3.069 -7.488,-5.377 -0.815,-0.89 -0.607,-1.572 0.493,-2.075 0.862,-0.394 1.808,-0.625 2.735,-0.855 2.744,-0.678 5.349,-1.657 7.549,-3.492 1.999,-1.669 2.6,-3.984 1.669,-6.227 -0.966,-2.327 -2.852,-3.404 -5.523,-3.309 -2.424,0.086 -4.522,1.003 -6.395,2.424 -0.738,0.561 -1.287,1.406 -1.824,2.188 -0.466,0.68 -0.832,1.585 0.175,2.035 0.84,0.373 1.757,-0.187 1.816,-1.031 0.1,-1.447 1.099,-1.906 2.107,-2.296 1.324,-0.511 2.709,-1 4.105,-1.151 1.894,-0.205 3.658,1.238 4.095,3.009 0.451,1.826 -0.251,3.462 -2.234,4.24 -2.141,0.839 -4.395,1.41 -6.634,1.966 -1.767,0.439 -3.375,0.976 -4.179,2.813 -0.417,0.954 -0.456,1.824 0.199,2.701 2.113,2.828 4.83,4.912 8.097,6.149 C -3.59,2.523 -1.757,1.941 0,0"
             style="fill:#000000;fill-opacity:1;fill-rule:nonzero;stroke:none"
             id="path68415" />
        </g>
        <g
           id="g68417"
           transform="translate(201.6534,172.4551)">
          <path
             d="M 0,0 C 0.493,1.921 0.848,3.893 1.517,5.751 2.246,7.779 2.959,7.873 4.656,6.519 4.832,6.378 5.013,6.243 5.181,6.113 6.845,7.411 7.434,7.43 8.946,6.269 10.851,4.807 11.456,0.844 10.084,-1.308 9.169,-1.249 8.93,-0.697 8.946,0.143 8.965,1.099 9.016,2.081 8.828,3.007 8.653,3.868 8.185,4.669 7.804,5.595 6.483,4.513 6.312,4.78 5.353,0.263 4.109,0.066 3.958,0.883 3.878,1.819 3.779,2.979 3.638,4.136 3.483,5.584 1.113,4.058 1.849,1.386 0.503,-0.204 0.336,-0.136 0.168,-0.068 0,0"
             style="fill:#000000;fill-opacity:1;fill-rule:nonzero;stroke:none"
             id="path68419" />
        </g>
        <g
           id="g68421"
           transform="translate(210.1202,182.3897)">
          <path
             d="m 0,0 c 2.612,0.514 5.558,-2.117 6.54,-5.18 0.887,-2.765 0.268,-4.955 -2.121,-6.447 0.146,1.311 0.205,2.383 0.396,3.431 0.544,2.993 -0.789,5.063 -3.131,6.704 C 1.073,-1.065 0.559,-0.501 0,0"
             style="fill:#000000;fill-opacity:1;fill-rule:nonzero;stroke:none"
             id="path68423" />
        </g>
        <g
           id="g68425"
           transform="translate(199.1134,169.1334)">
          <path
             d="m 0,0 c -2.389,0.978 -3.948,4.799 -2.812,7.445 0.608,1.413 1.769,2.612 2.803,3.801 0.216,0.247 0.973,0.024 1.962,0.012 C 1.394,10.226 1.171,9.439 0.663,8.944 -1.952,6.393 -1.847,3.631 -0.166,0.677 -0.062,0.495 -0.06,0.255 0,0"
             style="fill:#000000;fill-opacity:1;fill-rule:nonzero;stroke:none"
             id="path68427" />
        </g>
        <g
           id="g68429"
           transform="translate(79.7887,75.0665)">
          <path
             d="M 0,0 C 0.601,-2.158 -0.195,-4.048 1.431,-5.558 2.316,-2.589 2.073,-1.248 0,0 m 34.934,11.305 c -1.247,0.674 -1.984,0.004 -2.582,-0.714 -1.729,-2.075 -2.283,-4.526 -1.758,-7.126 0.173,-0.854 0.883,-1.646 1.493,-2.336 0.189,-0.214 0.86,-0.002 1.446,0.02 -3.399,4.118 -0.499,7.058 1.401,10.156 m 9.819,-8.274 c 0.517,2.099 -0.322,6.584 -1.164,7.612 -0.943,1.152 -2.423,1.265 -3.575,0.259 -0.502,-0.438 -0.978,-0.904 -1.456,-1.348 0.659,-5.326 0.659,-5.326 1.719,-6.021 1.061,2.019 -0.423,4.758 1.761,6.649 1.426,-2.135 0.944,-4.797 2.715,-7.151 m 0.459,13.046 c -0.182,-0.127 -0.365,-0.255 -0.547,-0.383 0.517,-0.85 1.041,-1.697 1.55,-2.552 C 48.096,9.981 49.99,6.836 49.068,2.876 48.954,2.384 49.264,1.792 49.4,1.14 c 2.086,0.853 2.592,2.204 2.211,3.961 -0.826,3.807 -2.775,7.072 -5.055,10.155 -0.289,0.391 -0.889,0.554 -1.344,0.821 m -8.413,-35.102 c -0.107,0.129 -0.214,0.259 -0.321,0.389 -1.51,-0.645 -2.986,-1.39 -4.539,-1.906 -1.565,-0.52 -3.174,-1.332 -4.948,-0.495 1.088,2.392 3.519,2.696 5.379,3.819 -1.089,1.879 -3.183,0.428 -4.342,1.579 0.705,1.972 2.305,3.33 4.681,4.02 -1.603,1.12 -2.238,1.152 -3.903,-0.209 -0.905,-0.741 -1.949,-1.609 -2.311,-2.637 -0.347,-0.982 0.11,-2.248 0.232,-3.583 0.005,0.007 -0.126,-0.198 -0.302,-0.353 -1.054,-0.928 -2.154,-1.983 -1.361,-3.458 0.711,-1.325 2.192,-1.457 3.603,-1.377 0.317,0.018 0.658,0.03 0.942,0.152 1.899,0.81 3.817,1.588 5.66,2.514 0.614,0.308 1.026,1.018 1.53,1.545 m -26.591,0.179 0.082,-0.583 c 2.088,-1.218 4.21,0.062 6.28,0.316 1.043,0.128 2.42,0.342 2.761,2.047 -1.455,0.138 -1.735,1.087 -1.757,2.295 -0.054,2.871 -0.121,5.743 -0.281,8.61 -0.106,1.902 -0.292,3.811 -0.618,5.687 -0.179,1.035 -0.857,1.664 -1.768,1.088 0.221,-6.21 0.433,-12.151 0.647,-18.137 -1.9,-0.47 -3.623,-0.896 -5.346,-1.323 M -7.161,-5.068 c 0.105,-1.022 0.241,-1.868 0.271,-2.718 0.151,-4.303 0.252,-8.609 0.424,-12.911 0.049,-1.232 0.376,-2.38 2.175,-2.627 0.044,0.565 0.178,1.073 0.104,1.549 -0.69,4.504 -0.83,9.022 -0.584,13.57 0.063,1.165 -0.251,2.362 -0.482,3.527 -0.217,1.094 -1.018,1.595 -2.085,1.611 -0.63,0.008 -1.264,-0.103 -1.892,-0.186 -3.235,-0.43 -6.47,-0.859 -9.702,-1.309 -0.656,-0.091 -1.298,-0.274 -1.938,-0.413 0.165,-1.303 0.845,-1.622 1.725,-1.592 1.668,0.056 3.348,0.06 4.998,0.276 2.203,0.288 4.381,0.757 6.986,1.223 m 17.602,6.655 c 0.191,-1.293 0.368,-2.14 0.432,-2.995 0.29,-3.903 0.521,-7.81 0.834,-11.711 0.088,-1.102 0.294,-2.213 0.607,-3.273 0.219,-0.742 0.849,-0.886 1.797,-0.255 -0.588,6.015 -1.189,12.174 -1.798,18.403 3.854,1.647 7.752,1.846 11.848,1.35 0.165,-0.927 0.253,-1.796 0.5,-2.618 0.089,-0.297 0.53,-0.581 0.865,-0.673 0.195,-0.053 0.651,0.232 0.727,0.455 0.464,1.353 0.291,2.67 -0.426,3.909 C 25.208,5.244 24.168,5.33 23.104,5.288 22.152,5.251 21.204,5.129 20.252,5.089 18.75,5.025 17.206,5.207 15.753,4.914 12.626,4.284 9.515,3.521 6.459,2.606 4.822,2.116 3.13,1.514 1.891,0.103 c 0.681,-1.14 1.522,-0.951 2.503,-0.584 1.856,0.694 3.75,1.29 6.047,2.068 M 14.777,92.1 c -5.673,0.998 -9.572,1.291 -13.5,0.891 -2.78,-0.283 -5.565,-0.553 -8.326,-0.974 -1.242,-0.19 -2.496,-0.595 -3.625,-1.148 -1.568,-0.768 -3.044,-1.735 -4.522,-2.674 -1.82,-1.157 -3.692,-2.258 -5.383,-3.586 -5.731,-4.501 -10.237,-10.003 -13.644,-16.483 -3.394,-6.455 -5.172,-13.162 -4.68,-20.497 0.365,-5.465 4.942,-12.513 12.649,-12.175 1.433,0.063 2.879,0.162 4.288,0.419 3.773,0.689 7.545,1.4 11.288,2.236 5.916,1.32 11.841,1.774 17.844,0.671 4.194,-0.77 8.441,-0.858 12.672,-0.54 8.868,0.666 16.643,3.807 22.588,10.656 1.13,1.301 2.088,2.87 2.703,4.477 1.746,4.558 2.298,9.312 1.454,14.148 -0.586,3.361 -1.867,6.351 -4.389,8.861 -3.258,3.241 -6.924,5.936 -10.725,8.415 -5.655,3.688 -11.893,6.126 -16.692,7.303 M 98.108,3.824 C 95.175,-9.563 90.583,-21.568 83.527,-32.625 79.357,-39.16 74.282,-44.856 68.271,-49.684 62.709,-54.15 56.513,-57.63 50.143,-60.853 c -10.065,-5.091 -20.51,-8.975 -31.721,-10.464 -7.413,-0.985 -14.833,-0.836 -22.137,1.079 -5.257,1.379 -10.018,3.835 -14.361,7.012 -6.404,4.687 -12.421,9.816 -17.05,16.379 -3.819,5.414 -7.666,10.809 -11.562,16.169 -0.779,1.074 -2.043,1.821 -2.719,2.94 -3.377,5.594 -7.897,10.235 -12.232,15.039 -1.177,1.303 -2.231,2.719 -3.348,4.078 -6.862,8.351 -10.17,18.23 -10.724,28.737 -0.473,8.974 0.03,18.103 3.39,26.704 2.427,6.213 5.742,11.991 9.706,17.319 5.883,7.908 12.681,15.027 20.034,21.587 3.956,3.529 8.463,6.36 13.178,8.705 10.811,5.377 22.204,8.858 34.276,10.204 7.173,0.8 14.335,1.336 21.527,0.977 10.549,-0.527 20.767,-2.519 30.273,-7.434 4.836,-2.5 9.638,-5.014 13.925,-8.421 C 81.223,81.313 89.463,71.09 93.704,58.062 95.155,53.603 96.06,48.92 96.759,44.272 98.404,33.35 99.064,22.335 98.915,11.29 98.878,8.591 98.343,5.897 98.108,3.824"
             style="fill:#ffffff;fill-opacity:1;fill-rule:nonzero;stroke:none"
             id="path68431" />
        </g>
        <g
           id="g68433"
           transform="translate(44.3072,131.1851)">
          <path
             d="m 0,0 c -0.044,-2.63 -0.361,-5.29 -0.081,-7.884 0.707,-6.55 4.085,-10.19 11.341,-8.899 4.011,0.714 8.058,1.302 12.005,2.285 7.353,1.833 14.679,1.85 22.117,0.62 6.002,-0.993 11.953,-0.418 17.761,1.46 4.532,1.465 8.349,4.022 11.349,7.693 0.988,1.208 1.779,2.679 2.286,4.158 1.398,4.084 1.564,8.287 0.758,12.541 -0.43,2.267 -1.27,4.326 -2.978,5.885 -1.586,1.448 -3.411,2.636 -4.978,4.102 -4.115,3.851 -9.087,6.158 -14.207,8.274 -6.296,2.601 -12.745,3.477 -19.485,2.273 -1.953,-0.349 -3.975,-0.29 -5.951,-0.529 C 28.37,31.79 26.677,31.74 25.299,31.084 22.501,29.752 19.744,28.244 17.21,26.465 12.233,22.971 8.309,18.453 5.446,13.072 3.233,8.911 0.954,4.761 0,0 m 50.259,35.981 c 4.799,-1.177 11.036,-3.614 16.692,-7.302 3.8,-2.479 7.466,-5.175 10.724,-8.416 2.523,-2.51 3.803,-5.5 4.389,-8.86 0.845,-4.837 0.293,-9.591 -1.453,-14.149 -0.615,-1.607 -1.573,-3.175 -2.703,-4.477 -5.946,-6.848 -13.721,-9.99 -22.588,-10.656 -4.231,-0.318 -8.478,-0.23 -12.673,0.541 -6.003,1.102 -11.927,0.649 -17.844,-0.672 -3.742,-0.835 -7.514,-1.547 -11.288,-2.236 -1.409,-0.257 -2.854,-0.356 -4.288,-0.419 -7.707,-0.338 -12.283,6.71 -12.649,12.175 -0.491,7.335 1.286,14.042 4.68,20.497 3.408,6.481 7.914,11.983 13.645,16.484 1.69,1.327 3.562,2.428 5.382,3.585 1.478,0.94 2.954,1.906 4.523,2.674 1.128,0.553 2.383,0.958 3.625,1.148 2.76,0.421 5.546,0.691 8.325,0.975 3.928,0.399 7.827,0.106 13.501,-0.892"
             style="fill:#000000;fill-opacity:1;fill-rule:nonzero;stroke:none"
             id="path68435" />
        </g>
        <g
           id="g68437"
           transform="translate(90.2301,76.6534)">
          <path
             d="m 0,0 c -2.298,-0.778 -4.191,-1.374 -6.048,-2.068 -0.981,-0.367 -1.822,-0.556 -2.502,0.584 1.238,1.411 2.93,2.013 4.568,2.504 3.056,0.915 6.167,1.677 9.294,2.307 1.452,0.293 2.997,0.111 4.499,0.175 0.952,0.04 1.9,0.162 2.852,0.199 1.064,0.042 2.104,-0.044 2.722,-1.109 0.718,-1.238 0.891,-2.556 0.427,-3.909 -0.076,-0.223 -0.532,-0.508 -0.728,-0.454 -0.334,0.091 -0.776,0.375 -0.865,0.672 -0.247,0.822 -0.335,1.691 -0.5,2.619 C 9.624,2.015 5.726,1.816 1.872,0.169 2.48,-6.06 3.082,-12.219 3.67,-18.234 2.721,-18.865 2.092,-18.721 1.873,-17.979 1.56,-16.919 1.354,-15.808 1.265,-14.706 0.953,-10.805 0.721,-6.897 0.431,-2.995 0.368,-2.14 0.19,-1.293 0,0"
             style="fill:#000000;fill-opacity:1;fill-rule:nonzero;stroke:none"
             id="path68439" />
        </g>
        <g
           id="g68441"
           transform="translate(72.628,69.9981)">
          <path
             d="m 0,0 c -2.605,-0.466 -4.784,-0.935 -6.986,-1.223 -1.65,-0.215 -3.33,-0.219 -4.998,-0.276 -0.88,-0.029 -1.56,0.289 -1.725,1.593 0.639,0.138 1.282,0.321 1.938,0.412 3.231,0.45 6.467,0.88 9.702,1.309 0.628,0.083 1.262,0.195 1.891,0.186 C 0.89,1.985 1.691,1.484 1.908,0.391 2.138,-0.774 2.453,-1.972 2.39,-3.137 2.144,-7.685 2.283,-12.203 2.974,-16.707 3.047,-17.183 2.914,-17.69 2.87,-18.256 1.071,-18.009 0.744,-16.86 0.695,-15.629 0.523,-11.326 0.422,-7.021 0.271,-2.718 0.24,-1.867 0.104,-1.021 0,0"
             style="fill:#000000;fill-opacity:1;fill-rule:nonzero;stroke:none"
             id="path68443" />
        </g>
        <g
           id="g68445"
           transform="translate(89.9962,56.2208)">
          <path
             d="M 0,0 C 1.723,0.427 3.447,0.853 5.347,1.322 5.133,7.309 4.921,13.25 4.699,19.46 5.611,20.036 6.289,19.406 6.468,18.372 6.793,16.496 6.979,14.587 7.085,12.685 7.245,9.817 7.312,6.945 7.366,4.074 7.388,2.867 7.668,1.918 9.123,1.779 8.782,0.074 7.405,-0.14 6.362,-0.268 4.292,-0.521 2.171,-1.802 0.082,-0.583 Z"
             style="fill:#000000;fill-opacity:1;fill-rule:nonzero;stroke:none"
             id="path68447" />
        </g>
        <g
           id="g68449"
           transform="translate(116.588,56.0411)">
          <path
             d="m 0,0 c -0.504,-0.526 -0.916,-1.236 -1.53,-1.545 -1.843,-0.926 -3.761,-1.704 -5.66,-2.514 -0.285,-0.122 -0.625,-0.133 -0.943,-0.152 -1.41,-0.08 -2.891,0.053 -3.602,1.377 -0.793,1.476 0.306,2.53 1.361,3.458 0.176,0.155 0.307,0.36 0.302,0.354 -0.122,1.335 -0.579,2.6 -0.233,3.583 0.363,1.028 1.407,1.895 2.312,2.636 1.665,1.362 2.3,1.329 3.903,0.209 -2.376,-0.689 -3.976,-2.048 -4.681,-4.019 1.159,-1.152 3.252,0.3 4.341,-1.579 -1.859,-1.123 -4.291,-1.427 -5.379,-3.82 1.775,-0.837 3.383,-0.024 4.949,0.495 1.552,0.516 3.029,1.261 4.539,1.907 C -0.214,0.26 -0.107,0.13 0,0"
             style="fill:#000000;fill-opacity:1;fill-rule:nonzero;stroke:none"
             id="path68451" />
        </g>
        <g
           id="g68453"
           transform="translate(125.0011,91.1436)">
          <path
             d="m 0,0 c 0.455,-0.268 1.055,-0.43 1.344,-0.821 2.28,-3.083 4.228,-6.348 5.054,-10.156 0.381,-1.756 -0.125,-3.107 -2.211,-3.961 -0.135,0.653 -0.446,1.245 -0.332,1.737 0.922,3.96 -0.971,7.105 -2.852,10.265 -0.51,0.856 -1.033,1.703 -1.551,2.553 C -0.365,-0.255 -0.183,-0.127 0,0"
             style="fill:#000000;fill-opacity:1;fill-rule:nonzero;stroke:none"
             id="path68455" />
        </g>
        <g
           id="g68457"
           transform="translate(124.5421,78.0977)">
          <path
             d="M 0,0 C -1.771,2.354 -1.289,5.016 -2.716,7.15 -4.899,5.26 -3.415,2.521 -4.477,0.502 c -1.059,0.694 -1.059,0.694 -1.718,6.02 0.477,0.445 0.954,0.911 1.456,1.349 1.151,1.006 2.632,0.893 3.575,-0.26 C -0.322,6.584 0.517,2.099 0,0"
             style="fill:#000000;fill-opacity:1;fill-rule:nonzero;stroke:none"
             id="path68459" />
        </g>
        <g
           id="g68461"
           transform="translate(114.7227,86.3712)">
          <path
             d="m 0,0 c -1.9,-3.098 -4.8,-6.038 -1.401,-10.155 -0.586,-0.023 -1.257,-0.235 -1.446,-0.021 -0.61,0.691 -1.32,1.483 -1.493,2.336 -0.525,2.601 0.028,5.051 1.758,7.126 C -1.984,0.004 -1.247,0.674 0,0"
             style="fill:#000000;fill-opacity:1;fill-rule:nonzero;stroke:none"
             id="path68463" />
        </g>
        <g
           id="g68465"
           transform="translate(79.7887,75.0665)">
          <path
             d="M 0,0 C 2.073,-1.248 2.316,-2.589 1.431,-5.558 -0.195,-4.048 0.601,-2.158 0,0"
             style="fill:#000000;fill-opacity:1;fill-rule:nonzero;stroke:none"
             id="path68467" />
        </g>
        <g
           id="g68469"
           transform="translate(58.358,146.7139)">
          <path
             d="M 0,0 C 0.583,-1.847 0.515,-3.548 2.067,-4.697 2.501,-2.313 1.929,-0.846 0,0 M 30.293,13.126 C 26.887,10.381 25.731,3.494 27.729,0.632 c 0.385,-0.552 0.787,-1.182 1.565,-1.039 -0.248,1.993 -0.615,3.857 -0.675,5.73 -0.065,2.032 0.759,3.875 1.693,5.669 0.225,0.432 0.007,1.095 -0.019,2.134 M 31.006,7.502 C 32.77,6.34 31.474,3.7 33.989,2.271 c 0.041,1.262 0.058,2.086 0.097,2.91 0.045,0.946 0.051,1.917 1.109,2.549 0.962,-0.524 1.203,-1.42 1.395,-2.366 0.142,-0.701 0.246,-1.434 0.536,-2.076 0.291,-0.641 0.836,-0.971 1.642,-0.203 -0.242,0.909 -0.388,1.949 -0.8,2.87 -0.446,0.997 -1.038,1.972 -1.753,2.794 -0.767,0.882 -1.718,1.01 -2.729,0.132 -0.56,-0.485 -1.315,-0.746 -2.48,-1.379 m 10.23,-8.691 c 2.47,0.681 3.014,1.341 2.347,3.756 -1.09,3.951 -2.796,7.643 -5.584,10.733 -0.262,0.29 -0.706,0.417 -1.065,0.619 -0.134,-0.107 -0.267,-0.214 -0.401,-0.322 0.519,-1.126 0.974,-2.287 1.569,-3.372 1.851,-3.373 3.79,-6.706 2.93,-10.811 -0.028,-0.132 0.095,-0.295 0.204,-0.603 M 25.601,-17.645 c -0.093,0.234 -0.186,0.467 -0.279,0.7 1.558,1.118 3.116,2.236 4.827,3.463 -1.669,1.761 -3.618,-0.469 -5.251,0.582 1.104,2.399 3.613,2.929 5.49,4.422 -0.858,0.221 -1.748,0.397 -2.424,0.096 -1.149,-0.513 -2.25,-1.222 -3.214,-2.034 -2.055,-1.73 -2.091,-2.397 -0.563,-4.643 -0.09,-0.18 -0.185,-0.39 -0.298,-0.589 -1.264,-2.231 -0.854,-3.355 1.512,-4.144 2.261,-0.752 6.52,0.42 7.934,2.256 0.281,0.364 0.294,0.935 0.568,1.891 -2.981,-1.146 -5.478,-2.508 -8.302,-2 M 8.553,1.803 c 0.623,-6.853 1.211,-13.314 1.81,-19.907 -1.068,-0.013 -1.896,-0.023 -2.876,-0.035 0.531,-1.622 1.721,-1.936 3.02,-2.022 3.004,-0.199 5.798,0.855 8.651,1.533 0.169,0.04 0.273,0.349 0.421,0.551 -0.57,2.017 -2.453,1.374 -4.062,1.93 -0.49,3.876 -1.027,7.813 -1.468,11.761 -0.213,1.901 -0.266,3.822 -0.347,5.735 -0.03,0.714 -0.029,1.514 0.864,1.772 2.442,0.706 4.915,1.171 7.563,1.029 0.202,-0.991 0.335,-1.766 0.521,-2.527 0.184,-0.75 0.27,-1.635 1.751,-1.436 -0.166,1.385 -0.332,2.757 -0.495,4.129 -0.18,1.517 -0.781,2.053 -2.342,1.928 C 20.135,6.129 18.697,6.001 17.291,5.734 12.121,4.754 6.961,3.717 1.8,2.688 1.295,2.588 0.809,2.397 0.318,2.249 0.603,0.841 1.452,0.642 2.518,0.816 4.39,1.121 6.262,1.428 8.553,1.803 m -22.604,-17.332 c 0.954,4.761 3.233,8.911 5.447,13.072 2.862,5.381 6.787,9.899 11.764,13.394 2.533,1.778 5.29,3.287 8.089,4.618 1.377,0.656 3.07,0.706 4.637,0.896 1.976,0.238 3.998,0.179 5.951,0.528 6.74,1.204 13.189,0.329 19.485,-2.273 5.12,-2.116 10.093,-4.423 14.207,-8.274 1.567,-1.466 3.392,-2.654 4.978,-4.102 1.708,-1.559 2.548,-3.618 2.978,-5.885 0.807,-4.254 0.64,-8.457 -0.758,-12.541 -0.507,-1.479 -1.298,-2.95 -2.286,-4.158 -3,-3.67 -6.816,-6.227 -11.349,-7.693 -5.808,-1.878 -11.759,-2.452 -17.761,-1.46 -7.438,1.23 -14.764,1.214 -22.117,-0.619 -3.946,-0.984 -7.994,-1.572 -12.005,-2.286 -7.255,-1.291 -10.634,2.35 -11.341,8.899 -0.28,2.595 0.037,5.254 0.081,7.884"
             style="fill:#ffffff;fill-opacity:1;fill-rule:nonzero;stroke:none"
             id="path68471" />
        </g>
        <g
           id="g68473"
           transform="translate(69.4928,148.9815)">
          <path
             d="m 0,0 c -0.657,-1.68 0.608,-18.02 1.388,-19.59 1.326,0.539 1.311,0.533 1.197,1.504 C 1.929,-12.478 1.294,-6.867 0.621,-1.26 0.576,-0.882 0.271,-0.534 0,0 m -2.582,-0.464 c -2.291,-0.375 -4.163,-0.682 -6.035,-0.988 -1.066,-0.173 -1.915,0.026 -2.2,1.433 0.491,0.148 0.978,0.339 1.482,0.44 C -4.174,1.45 0.986,2.486 6.156,3.467 7.562,3.733 9,3.862 10.43,3.976 c 1.561,0.125 2.161,-0.41 2.341,-1.928 0.164,-1.371 0.33,-2.743 0.496,-4.129 -1.481,-0.198 -1.568,0.686 -1.751,1.436 C 11.33,0.117 11.196,0.892 10.995,1.882 8.347,2.025 5.874,1.559 3.432,0.854 2.538,0.595 2.537,-0.205 2.567,-0.919 c 0.081,-1.913 0.135,-3.833 0.348,-5.734 0.44,-3.949 0.978,-7.886 1.467,-11.762 1.61,-0.555 3.493,0.087 4.062,-1.93 -0.148,-0.202 -0.252,-0.51 -0.421,-0.551 -2.853,-0.678 -5.647,-1.731 -8.65,-1.532 -1.3,0.086 -2.49,0.4 -3.02,2.021 0.979,0.012 1.807,0.022 2.876,0.035 -0.6,6.593 -1.187,13.055 -1.811,19.908"
             style="fill:#000000;fill-opacity:1;fill-rule:nonzero;stroke:none"
             id="path68475" />
        </g>
        <g
           id="g68477"
           transform="translate(83.9591,129.0694)">
          <path
             d="M 0,0 C 2.824,-0.509 5.321,0.854 8.302,2 8.028,1.043 8.015,0.473 7.734,0.108 6.32,-1.727 2.061,-2.9 -0.2,-2.147 c -2.366,0.788 -2.776,1.913 -1.512,4.143 0.113,0.2 0.208,0.41 0.298,0.59 -1.528,2.245 -1.492,2.913 0.562,4.643 C 0.113,8.041 1.214,8.75 2.363,9.262 3.039,9.564 3.929,9.387 4.787,9.167 2.91,7.673 0.401,7.144 -0.703,4.744 0.93,3.694 2.879,5.924 4.548,4.163 2.837,2.935 1.279,1.817 -0.279,0.7 -0.186,0.466 -0.093,0.233 0,0"
             style="fill:#000000;fill-opacity:1;fill-rule:nonzero;stroke:none"
             id="path68479" />
        </g>
        <g
           id="g68481"
           transform="translate(99.5938,145.525)">
          <path
             d="m 0,0 c -0.108,0.308 -0.231,0.471 -0.204,0.603 0.86,4.105 -1.079,7.438 -2.93,10.811 -0.595,1.085 -1.05,2.246 -1.569,3.372 0.134,0.108 0.267,0.214 0.401,0.322 0.359,-0.202 0.803,-0.329 1.065,-0.619 C -0.449,11.399 1.257,7.707 2.348,3.756 3.014,1.341 2.47,0.681 0,0"
             style="fill:#000000;fill-opacity:1;fill-rule:nonzero;stroke:none"
             id="path68483" />
        </g>
        <g
           id="g68485"
           transform="translate(89.3643,154.2164)">
          <path
             d="M 0,0 C 1.165,0.633 1.92,0.893 2.479,1.378 3.491,2.256 4.442,2.129 5.209,1.247 5.924,0.425 6.516,-0.55 6.962,-1.547 7.374,-2.469 7.52,-3.509 7.762,-4.417 6.956,-5.186 6.41,-4.855 6.12,-4.214 5.83,-3.572 5.726,-2.84 5.583,-2.138 5.392,-1.193 5.15,-0.296 4.188,0.228 3.13,-0.404 3.125,-1.375 3.08,-2.322 3.041,-3.145 3.024,-3.969 2.983,-5.231 0.468,-3.802 1.764,-1.163 0,0"
             style="fill:#000000;fill-opacity:1;fill-rule:nonzero;stroke:none"
             id="path68487" />
        </g>
        <g
           id="g68489"
           transform="translate(88.6515,159.8404)">
          <path
             d="m 0,0 c 0.026,-1.04 0.243,-1.702 0.018,-2.134 -0.934,-1.794 -1.758,-3.637 -1.692,-5.67 0.059,-1.873 0.427,-3.736 0.674,-5.73 -0.777,-0.142 -1.18,0.487 -1.565,1.039 C -4.562,-9.633 -3.406,-2.745 0,0"
             style="fill:#000000;fill-opacity:1;fill-rule:nonzero;stroke:none"
             id="path68491" />
        </g>
        <g
           id="g68493"
           transform="translate(58.358,146.7139)">
          <path
             d="M 0,0 C 1.929,-0.846 2.501,-2.313 2.067,-4.697 0.515,-3.548 0.583,-1.847 0,0"
             style="fill:#000000;fill-opacity:1;fill-rule:nonzero;stroke:none"
             id="path68495" />
        </g>
        <g
           id="g68497"
           transform="translate(69.4928,148.9815)">
          <path
             d="M 0,0 C 0.271,-0.534 0.576,-0.882 0.621,-1.26 1.294,-6.867 1.929,-12.478 2.585,-18.086 2.699,-19.057 2.714,-19.051 1.388,-19.59 0.608,-18.02 -0.657,-1.68 0,0"
             style="fill:#ffffff;fill-opacity:1;fill-rule:nonzero;stroke:none"
             id="path68499" />
        </g>
      </g>
    </g>
  </g>
</svg>
