<?xml version="1.0" encoding="UTF-8" standalone="no"?>
<!-- Created with Inkscape (http://www.inkscape.org/) -->

<svg
   version="1.1"
   id="svg15299"
   width="379.17734"
   height="1047.4174"
   viewBox="0 0 379.17734 1047.4174"
   sodipodi:docname="dissertation-map.svg"
   inkscape:version="1.2.1 (9c6d41e, 2022-07-14)"
   xmlns:inkscape="http://www.inkscape.org/namespaces/inkscape"
   xmlns:sodipodi="http://sodipodi.sourceforge.net/DTD/sodipodi-0.dtd"
   xmlns="http://www.w3.org/2000/svg"
   xmlns:svg="http://www.w3.org/2000/svg">
  <sodipodi:namedview
     id="namedview2817"
     pagecolor="#ffffff"
     bordercolor="#000000"
     borderopacity="0.25"
     inkscape:showpageshadow="2"
     inkscape:pageopacity="0.0"
     inkscape:pagecheckerboard="0"
     inkscape:deskcolor="#d1d1d1"
     showgrid="false"
     inkscape:zoom="0.57665647"
     inkscape:cx="189.88775"
     inkscape:cy="523.70868"
     inkscape:window-width="1512"
     inkscape:window-height="824"
     inkscape:window-x="0"
     inkscape:window-y="38"
     inkscape:window-maximized="1"
     inkscape:current-layer="svg15299" />
  <defs
     id="defs15303">
    <clipPath
       clipPathUnits="userSpaceOnUse"
       id="clipPath15347">
      <path
         d="M 0,785.563 H 284.383 V 0 H 0 Z"
         id="path15345" />
    </clipPath>
    <clipPath
       clipPathUnits="userSpaceOnUse"
       id="clipPath15467">
      <path
         d="M 0,785.563 H 284.383 V 0 H 0 Z"
         id="path15465" />
    </clipPath>
  </defs>
  <g
     id="g15305"
     transform="matrix(1.3333333,0,0,-1.3333333,0,1047.4173)">
    <path
       d="M 284.258,357.041 H 159.851 V 483.78 h 124.407 z"
       style="fill:none;stroke:#231f20;stroke-width:0.25;stroke-linecap:butt;stroke-linejoin:miter;stroke-miterlimit:10;stroke-dasharray:none;stroke-opacity:1"
       id="path15307" />
    <text
       xml:space="preserve"
       transform="matrix(1,0,0,-1,172.1167,364.8818)"
       style="font-variant:normal;font-weight:normal;font-stretch:condensed;font-size:16px;font-family:'Minion Pro Cond Disp';-inkscape-font-specification:MinionPro-CnDisp;writing-mode:lr-tb;fill:#231f20;fill-opacity:1;fill-rule:nonzero;stroke:none"
       id="text15311"><tspan
         x="0 4.0320001 11.056 14.72 20.927999 25.774401 36.543999 42.1264 46.1744 49.582401 55.790401 62.830399 65.390404 78.7024 84.398399 90.6064 95.7584"
         y="0"
         id="tspan15309">Information Teory</tspan></text>
    <text
       xml:space="preserve"
       transform="matrix(1,0,0,-1,199.8901,447.7178)"
       style="font-variant:normal;font-weight:normal;font-stretch:normal;font-size:18px;font-family:Kalam;-inkscape-font-specification:Kalam-Regular;writing-mode:lr-tb;fill:#231f20;fill-opacity:1;fill-rule:nonzero;stroke:none"
       id="text15315"><tspan
         x="0"
         y="0"
         id="tspan15313">2</tspan></text>
    <text
       xml:space="preserve"
       transform="matrix(1,0,0,-1,210.3481,453.7119)"
       style="font-variant:normal;font-weight:normal;font-stretch:normal;font-size:10.494px;font-family:Kalam;-inkscape-font-specification:Kalam-Regular;writing-mode:lr-tb;fill:#231f20;fill-opacity:1;fill-rule:nonzero;stroke:none"
       id="text15319"><tspan
         x="0 5.5933018"
         y="0"
         id="tspan15317">nd</tspan></text>
    <text
       xml:space="preserve"
       transform="matrix(1,0,0,-1,228.3957,447.7178)"
       style="font-variant:normal;font-weight:normal;font-stretch:normal;font-size:18px;font-family:Kalam;-inkscape-font-specification:Kalam-Regular;writing-mode:lr-tb;fill:#231f20;fill-opacity:1;fill-rule:nonzero;stroke:none"
       id="text15323"><tspan
         x="0 9.8280001 18.27"
         y="0"
         id="tspan15321">Law</tspan></text>
    <path
       d="M 266.386,437.588 H 192.32 v 33.427 h 74.066 z"
       style="fill:none;stroke:#231f20;stroke-width:1;stroke-linecap:butt;stroke-linejoin:miter;stroke-miterlimit:10;stroke-dasharray:none;stroke-opacity:1"
       id="path15325" />
    <text
       xml:space="preserve"
       transform="matrix(1,0,0,-1,178.9082,397.9004)"
       style="font-variant:normal;font-weight:normal;font-stretch:normal;font-size:18px;font-family:Kalam;-inkscape-font-specification:Kalam-Regular;writing-mode:lr-tb;fill:#231f20;fill-opacity:1;fill-rule:nonzero;stroke:none"
       id="text15329"><tspan
         x="0"
         y="0"
         id="tspan15327">1</tspan></text>
    <text
       xml:space="preserve"
       transform="matrix(1,0,0,-1,184.5601,403.8945)"
       style="font-variant:normal;font-weight:normal;font-stretch:normal;font-size:10.494px;font-family:Kalam;-inkscape-font-specification:Kalam-Regular;writing-mode:lr-tb;fill:#231f20;fill-opacity:1;fill-rule:nonzero;stroke:none"
       id="text15333"><tspan
         x="0 4.4704442"
         y="0"
         id="tspan15331">st</tspan></text>
    <text
       xml:space="preserve"
       transform="matrix(1,0,0,-1,200.3098,397.9004)"
       style="font-variant:normal;font-weight:normal;font-stretch:normal;font-size:18px;font-family:Kalam;-inkscape-font-specification:Kalam-Regular;writing-mode:lr-tb;fill:#231f20;fill-opacity:1;fill-rule:nonzero;stroke:none"
       id="text15337"><tspan
         x="0 9.8280001 18.27"
         y="0"
         id="tspan15335">Law</tspan></text>
    <path
       d="m 241.851,387.771 h -74.066 v 33.426 h 74.066 z"
       style="fill:none;stroke:#231f20;stroke-width:1;stroke-linecap:butt;stroke-linejoin:miter;stroke-miterlimit:10;stroke-dasharray:none;stroke-opacity:1"
       id="path15339" />
    <g
       id="g15341">
      <g
         id="g15343"
         clip-path="url(#clipPath15347)">
        <path
           d="M 149.56,357.041 H 0.124 v 126.96 H 149.56 Z"
           style="fill:none;stroke:#231f20;stroke-width:0.25;stroke-linecap:butt;stroke-linejoin:miter;stroke-miterlimit:10;stroke-dasharray:none;stroke-opacity:1"
           id="path15349" />
      </g>
    </g>
    <text
       xml:space="preserve"
       transform="matrix(1,0,0,-1,29.1318,400.8145)"
       style="font-variant:normal;font-weight:normal;font-stretch:normal;font-size:18.4094px;font-family:Kalam;-inkscape-font-specification:Kalam-Regular;writing-mode:lr-tb;fill:#231f20;fill-opacity:1;fill-rule:nonzero;stroke:none"
       id="text15353"><tspan
         x="0 9.7753916 19.62442"
         y="0"
         id="tspan15351">STL</tspan></text>
    <path
       d="M 65.925,387.98 H 21.296 v 33.008 h 44.629 z"
       style="fill:none;stroke:#231f20;stroke-width:1;stroke-linecap:butt;stroke-linejoin:miter;stroke-miterlimit:10;stroke-dasharray:none;stroke-opacity:1"
       id="path15355" />
    <path
       d="M 117.072,434.956 H 21.296 v 33.426 h 95.776 z"
       style="fill:#ffffff;fill-opacity:1;fill-rule:nonzero;stroke:#231f20;stroke-width:1;stroke-linecap:butt;stroke-linejoin:miter;stroke-miterlimit:10;stroke-dasharray:none;stroke-opacity:1"
       id="path15357" />
    <text
       xml:space="preserve"
       transform="matrix(1,0,0,-1,27.2441,448.083)"
       style="font-variant:normal;font-weight:normal;font-stretch:normal;font-size:18px;font-family:Kalam;-inkscape-font-specification:Kalam-Regular;writing-mode:lr-tb;fill:#231f20;fill-opacity:1;fill-rule:nonzero;stroke:none"
       id="text15361"><tspan
         x="0 9.7740002 20.718 31.5 39.762001 51.228001 59.669998 68.112 76.211998"
         y="0"
         id="tspan15359">PAC-Bayes</tspan></text>
    <text
       xml:space="preserve"
       transform="matrix(1,0,0,-1,79.0088,400.8145)"
       style="font-variant:normal;font-weight:normal;font-stretch:normal;font-size:18.4094px;font-family:Kalam;-inkscape-font-specification:Kalam-Regular;writing-mode:lr-tb;fill:#231f20;fill-opacity:1;fill-rule:nonzero;stroke:none"
       id="text15365"><tspan
         x="0 9.9963045 21.189219"
         y="0"
         id="tspan15363">PAC</tspan></text>
    <path
       d="M 117.072,387.98 H 72.443 v 33.008 h 44.629 z"
       style="fill:none;stroke:#231f20;stroke-width:1;stroke-linecap:butt;stroke-linejoin:miter;stroke-miterlimit:10;stroke-dasharray:none;stroke-opacity:1"
       id="path15367" />
    <text
       xml:space="preserve"
       transform="matrix(1,0,0,-1,7.0879,364.8818)"
       style="font-variant:normal;font-weight:normal;font-stretch:condensed;font-size:16px;font-family:'Minion Pro Cond Disp';-inkscape-font-specification:MinionPro-CnDisp;writing-mode:lr-tb;fill:#231f20;fill-opacity:1;fill-rule:nonzero;stroke:none"
       id="text15371"><tspan
         x="0 11.312 17.040001 22.271999 29.040001 32.431999 39.486401 45.006401 47.566399 54.608002 60.350399 66.014397 70.862396 77.886398 81.278397 88.176003 94.158401 96.718399 110.0304 115.7264 121.9344 127.0864"
         y="0"
         id="tspan15369">Machine Learning Teory</tspan></text>
    <path
       d="M 96.609,493.743 H 284.258 V 608.986 H 96.609 Z"
       style="fill:#ffffff;fill-opacity:1;fill-rule:nonzero;stroke:none"
       id="path15373" />
    <path
       d="M 284.258,493.743 H 96.609 v 115.243 h 187.649 z"
       style="fill:none;stroke:#231f20;stroke-width:0.25;stroke-linecap:butt;stroke-linejoin:miter;stroke-miterlimit:10;stroke-dasharray:none;stroke-opacity:1"
       id="path15375" />
    <text
       xml:space="preserve"
       transform="matrix(1,0,0,-1,111.6436,504.6191)"
       style="font-variant:normal;font-weight:normal;font-stretch:condensed;font-size:16px;font-family:'Minion Pro Cond Disp';-inkscape-font-specification:MinionPro-CnDisp;writing-mode:lr-tb;fill:#231f20;fill-opacity:1;fill-rule:nonzero;stroke:none"
       id="text15379"><tspan
         x="0 4.0320001 11.056 14.72 20.927999 25.775999 36.543999 42.127998 46.175999 49.584 55.792 62.832001 65.391998 78.704002 84.400002 90.608002 95.120003 100.656 104.7024 108.1104 113.5504 116.1104 123.1504 128.89439 134.5584 139.4064 146.4304 149.8224 156.7184"
         y="0"
         id="tspan15377">Information Teoretic Learning</tspan></text>
    <text
       xml:space="preserve"
       transform="matrix(1,0,0,-1,173.749,537.6045)"
       style="font-variant:normal;font-weight:normal;font-stretch:normal;font-size:18.4094px;font-family:Kalam;-inkscape-font-specification:Kalam-Regular;writing-mode:lr-tb;fill:#231f20;fill-opacity:1;fill-rule:nonzero;stroke:none"
       id="text15383"><tspan
         x="0 14.525017 26.39908"
         y="0"
         id="tspan15381">MDL</tspan></text>
    <path
       d="M 213.929,524.77 H 169.3 v 33.007 h 44.629 z"
       style="fill:none;stroke:#231f20;stroke-width:1;stroke-linecap:butt;stroke-linejoin:miter;stroke-miterlimit:10;stroke-dasharray:none;stroke-opacity:1"
       id="path15385" />
    <path
       d="M 250.888,566.199 H 132.342 v 33.427 h 118.546 z"
       style="fill:#ffffff;fill-opacity:1;fill-rule:nonzero;stroke:#231f20;stroke-width:1;stroke-linecap:butt;stroke-linejoin:miter;stroke-miterlimit:10;stroke-dasharray:none;stroke-opacity:1"
       id="path15387" />
    <text
       xml:space="preserve"
       transform="matrix(1,0,0,-1,138.0566,579.3262)"
       style="font-variant:normal;font-weight:normal;font-stretch:normal;font-size:18px;font-family:Kalam;-inkscape-font-specification:Kalam-Regular;writing-mode:lr-tb;fill:#231f20;fill-opacity:1;fill-rule:nonzero;stroke:none"
       id="text15391"><tspan
         x="0 9.7740002 20.718 31.5 39.762001 49.32 58.967999 67.410004 77.003998 86.598 94.751999"
         y="0"
         id="tspan15389">PAC-Shannon</tspan></text>
    <path
       d="M 96.357,618.886 H 284.258 V 785.438 H 96.357 Z"
       style="fill:#ffffff;fill-opacity:1;fill-rule:nonzero;stroke:none"
       id="path15393" />
    <path
       d="M 284.258,618.886 H 96.357 v 166.552 h 187.901 z"
       style="fill:none;stroke:#231f20;stroke-width:0.25;stroke-linecap:butt;stroke-linejoin:miter;stroke-miterlimit:10;stroke-dasharray:none;stroke-opacity:1"
       id="path15395" />
    <text
       xml:space="preserve"
       transform="matrix(1,0,0,-0.99509914,111.2529,629.4126)"
       style="font-variant:normal;font-weight:normal;font-stretch:condensed;font-size:16.0788px;font-family:'Minion Pro Cond Disp';-inkscape-font-specification:MinionPro-CnDisp;writing-mode:lr-tb;fill:#231f20;fill-opacity:1;fill-rule:nonzero;stroke:none"
       id="text15399"><tspan
         x="0 4.0518575 11.110451 14.792496 21.031071 25.902946 36.72398 42.33548 46.403416 49.828201 56.065166 63.139839 65.712448 73.623215 79.733162 83.592072 87.692169 90.859688 96.519432 103.60857 109.33263 114.59039 121.05407 123.62668 137.00424 142.72829 148.96687 154.14424"
         y="0"
         id="tspan15397">Information Bottleneck Teory</tspan></text>
    <text
       xml:space="preserve"
       transform="matrix(1,0,0,-0.99509639,150.6709,670.4067)"
       style="font-variant:normal;font-weight:normal;font-stretch:normal;font-size:18.0887px;font-family:Kalam;-inkscape-font-specification:Kalam-Regular;writing-mode:lr-tb;fill:#231f20;fill-opacity:1;fill-rule:nonzero;stroke:none"
       id="text15403"><tspan
         x="0 5.6074972 17.129999 25.432713 39.831318 47.971233 54.971558 64.667099 72.861282"
         y="0"
         id="tspan15401">IB-method</tspan></text>
    <path
       d="M 246.488,657.49 H 136.74 v 33.007 h 109.748 z"
       style="fill:none;stroke:#231f20;stroke-width:1;stroke-linecap:butt;stroke-linejoin:miter;stroke-miterlimit:10;stroke-dasharray:none;stroke-opacity:1"
       id="path15405" />
    <text
       xml:space="preserve"
       transform="matrix(1,0,0,-0.99509639,152.0005,713.8447)"
       style="font-variant:normal;font-weight:normal;font-stretch:normal;font-size:18.0887px;font-family:Kalam;-inkscape-font-specification:Kalam-Regular;writing-mode:lr-tb;fill:#231f20;fill-opacity:1;fill-rule:nonzero;stroke:none"
       id="text15409"><tspan
         x="0 5.6074972 17.129999 24.383568 32.867168 42.508446 51.534706 58.788277 69.352074"
         y="0"
         id="tspan15407">IB and RL</tspan></text>
    <path
       d="M 246.488,700.928 H 136.74 v 33.007 h 109.748 z"
       style="fill:none;stroke:#231f20;stroke-width:1;stroke-linecap:butt;stroke-linejoin:miter;stroke-miterlimit:10;stroke-dasharray:none;stroke-opacity:1"
       id="path15411" />
    <text
       xml:space="preserve"
       transform="matrix(1,0,0,-0.99509639,151.4487,757.2656)"
       style="font-variant:normal;font-weight:normal;font-stretch:normal;font-size:18.0887px;font-family:Kalam;-inkscape-font-specification:Kalam-Regular;writing-mode:lr-tb;fill:#231f20;fill-opacity:1;fill-rule:nonzero;stroke:none"
       id="text15415"><tspan
         x="0 5.6074972 17.129999 24.383568 32.867168 42.508446 51.534706 58.788277 70.45549"
         y="0"
         id="tspan15413">IB and DL</tspan></text>
    <path
       d="M 246.488,744.349 H 136.74 v 33.007 h 109.748 z"
       style="fill:none;stroke:#231f20;stroke-width:1;stroke-linecap:butt;stroke-linejoin:miter;stroke-miterlimit:10;stroke-dasharray:none;stroke-opacity:1"
       id="path15417" />
    <path
       d="m 1.138,268.215 h 283.12 v 78.639 H 1.138 Z"
       style="fill:#ffffff;fill-opacity:1;fill-rule:nonzero;stroke:none"
       id="path15419" />
    <path
       d="M 284.258,268.215 H 1.138 v 78.64 h 283.12 z"
       style="fill:none;stroke:#231f20;stroke-width:0.25;stroke-linecap:butt;stroke-linejoin:miter;stroke-miterlimit:10;stroke-dasharray:none;stroke-opacity:1"
       id="path15421" />
    <text
       xml:space="preserve"
       transform="matrix(1,0,0,-1,7.0879,276.6426)"
       style="font-variant:normal;font-weight:normal;font-stretch:condensed;font-size:16px;font-family:'Minion Pro Cond Disp';-inkscape-font-specification:MinionPro-CnDisp;writing-mode:lr-tb;fill:#231f20;fill-opacity:1;fill-rule:nonzero;stroke:none"
       id="text15425"><tspan
         x="0 8.592 13.552 17.5984 20.992001 27.903999 33.344002 36.8144 42.622398 45.774399 48.3344 52.366402 59.262402 63.150398 68.750397 71.982399 75.116798 78.540802 84.446404 90.0784 97.132797 102.4928"
         y="0"
         id="tspan15423">Artifcial Intelligence</tspan></text>
    <text
       xml:space="preserve"
       transform="matrix(1,0,0,-1,139.6558,315.4014)"
       style="font-variant:normal;font-weight:normal;font-stretch:normal;font-size:18px;font-family:Kalam;-inkscape-font-specification:Kalam-Regular;writing-mode:lr-tb;fill:#231f20;fill-opacity:1;fill-rule:nonzero;stroke:none"
       id="text15429"><tspan
         x="0 10.782 18.936001 28.530001 38.124001 46.223999 54.234001 61.200001 65.484001 73.638 83.232002 87.515999 95.183998"
         y="0"
         id="tspan15427">Connectionism</tspan></text>
    <path
       d="M 266.386,302.484 H 125.563 v 33.008 h 140.823 z"
       style="fill:none;stroke:#231f20;stroke-width:1;stroke-linecap:butt;stroke-linejoin:miter;stroke-miterlimit:10;stroke-dasharray:none;stroke-opacity:1"
       id="path15431" />
    <text
       xml:space="preserve"
       transform="matrix(1,0,0,-1,26.7056,315.4014)"
       style="font-variant:normal;font-weight:normal;font-stretch:normal;font-size:18px;font-family:Kalam;-inkscape-font-specification:Kalam-Regular;writing-mode:lr-tb;fill:#231f20;fill-opacity:1;fill-rule:nonzero;stroke:none"
       id="text15435"><tspan
         x="0 9.5579996 18 32.327999 41.778 49.931999 54.341999 58.625999 66.293999"
         y="0"
         id="tspan15433">Symbolism</tspan></text>
    <path
       d="M 117.072,302.484 H 19.654 v 33.008 h 97.418 z"
       style="fill:none;stroke:#231f20;stroke-width:1;stroke-linecap:butt;stroke-linejoin:miter;stroke-miterlimit:10;stroke-dasharray:none;stroke-opacity:1"
       id="path15437" />
    <path
       d="m 1.138,176.849 h 283.12 v 81.727 H 1.138 Z"
       style="fill:#ffffff;fill-opacity:1;fill-rule:nonzero;stroke:none"
       id="path15439" />
    <path
       d="M 284.258,176.849 H 1.138 v 81.728 h 283.12 z"
       style="fill:none;stroke:#231f20;stroke-width:0.25;stroke-linecap:butt;stroke-linejoin:miter;stroke-miterlimit:10;stroke-dasharray:none;stroke-opacity:1"
       id="path15441" />
    <text
       xml:space="preserve"
       transform="matrix(1,0,0,-1,7.0879,188.2754)"
       style="font-variant:normal;font-weight:normal;font-stretch:condensed;font-size:16px;font-family:'Minion Pro Cond Disp';-inkscape-font-specification:MinionPro-CnDisp;writing-mode:lr-tb;fill:#231f20;fill-opacity:1;fill-rule:nonzero;stroke:none"
       id="text15445"><tspan
         x="0 7.2480001 12.912 19.808001 25.968 32.784 38.543999 44.448002"
         y="0"
         id="tspan15443">Language</tspan></text>
    <text
       xml:space="preserve"
       transform="matrix(1,0,0,-1,32.0776,225.3281)"
       style="font-variant:normal;font-weight:normal;font-stretch:normal;font-size:18px;font-family:Kalam;-inkscape-font-specification:Kalam-Regular;writing-mode:lr-tb;fill:#231f20;fill-opacity:1;fill-rule:nonzero;stroke:none"
       id="text15449"><tspan
         x="0 9.8280001 17.982 26.532 30.816"
         y="0"
         id="tspan15447">Logic</tspan></text>
    <path
       d="M 85.213,212.412 H 17.769 v 33.007 h 67.444 z"
       style="fill:none;stroke:#231f20;stroke-width:1;stroke-linecap:butt;stroke-linejoin:miter;stroke-miterlimit:10;stroke-dasharray:none;stroke-opacity:1"
       id="path15451" />
    <text
       xml:space="preserve"
       transform="matrix(1,0,0,-1,112.542,225.3281)"
       style="font-variant:normal;font-weight:normal;font-stretch:normal;font-size:18px;font-family:Kalam;-inkscape-font-specification:Kalam-Regular;writing-mode:lr-tb;fill:#231f20;fill-opacity:1;fill-rule:nonzero;stroke:none"
       id="text15455"><tspan
         x="0 11.466 19.908001 28.35 36.450001 44.118 48.402 56.844002 66.438004 73.655998 79.236 88.830002 95.598 103.698 109.656 117.756 127.35 135.36"
         y="0"
         id="tspan15453">Bayesian Inference</tspan></text>
    <path
       d="M 266.386,212.412 H 102.157 v 33.007 h 164.229 z"
       style="fill:none;stroke:#231f20;stroke-width:1;stroke-linecap:butt;stroke-linejoin:miter;stroke-miterlimit:10;stroke-dasharray:none;stroke-opacity:1"
       id="path15457" />
    <path
       d="m 1.138,0.125 h 283.12 V 167.07 H 1.138 Z"
       style="fill:#ffffff;fill-opacity:1;fill-rule:nonzero;stroke:none"
       id="path15459" />
    <g
       id="g15461">
      <g
         id="g15463"
         clip-path="url(#clipPath15467)">
        <path
           d="M 284.258,0.125 H 1.138 V 167.07 h 283.12 z"
           style="fill:none;stroke:#231f20;stroke-width:0.25;stroke-linecap:butt;stroke-linejoin:miter;stroke-miterlimit:10;stroke-dasharray:none;stroke-opacity:1"
           id="path15469" />
      </g>
    </g>
    <text
       xml:space="preserve"
       transform="matrix(1,0,0,-1,7.1992,11.7471)"
       style="font-variant:normal;font-weight:normal;font-stretch:condensed;font-size:16px;font-family:'Minion Pro Cond Disp';-inkscape-font-specification:MinionPro-CnDisp;writing-mode:lr-tb;fill:#231f20;fill-opacity:1;fill-rule:nonzero;stroke:none"
       id="text15473"><tspan
         x="0 6.9439998 13.504 16.799999 21.52 25.408001 31.040001 41.824001 48.063999 51.216 57.599998 64.047997"
         y="0"
         id="tspan15471">Epistemology</tspan></text>
    <text
       xml:space="preserve"
       transform="matrix(1,0,0,-1,107.959,28.7412)"
       style="font-variant:normal;font-weight:normal;font-stretch:normal;font-size:18px;font-family:Kalam;-inkscape-font-specification:Kalam-Regular;writing-mode:lr-tb;fill:#231f20;fill-opacity:1;fill-rule:nonzero;stroke:none"
       id="text15477"><tspan
         x="0 5.5799999 15.174 22.139999 30.24 34.650002 39.060001 43.344002 51.894001 59.993999 69.587997 77.598"
         y="0"
         id="tspan15475">Intelligence</tspan></text>
    <path
       d="M 205.413,15.825 H 96.202 v 33.007 h 109.211 z"
       style="fill:none;stroke:#231f20;stroke-width:1;stroke-linecap:butt;stroke-linejoin:miter;stroke-miterlimit:10;stroke-dasharray:none;stroke-opacity:1"
       id="path15479" />
    <path
       d="M 265.96,61.307 H 19.627 v 50.344 H 265.96 Z"
       style="fill:none;stroke:#231f20;stroke-width:1;stroke-linecap:butt;stroke-linejoin:miter;stroke-miterlimit:10;stroke-dasharray:none;stroke-opacity:1"
       id="path15481" />
    <text
       xml:space="preserve"
       transform="matrix(1,0,0,-1,26.6924,92.7881)"
       style="font-variant:normal;font-weight:normal;font-stretch:normal;font-size:12px;font-family:Kalam;-inkscape-font-specification:Kalam-Regular;writing-mode:lr-tb;fill:#231f20;fill-opacity:1;fill-rule:nonzero;stroke:none"
       id="text15487"><tspan
         x="0 7.0079999 12.636 17.280001 20.136 25.572001 31.968 37.596001 40.535999 43.391998 48.504002"
         y="0"
         id="tspan15483">Rationalist</tspan><tspan
         x="15.216 21.6 24.455999 29.856001"
         y="17.4"
         id="tspan15485">View</tspan></text>
    <text
       xml:space="preserve"
       transform="matrix(1,0,0,-1,99.6631,82.8931)"
       style="font-variant:normal;font-weight:normal;font-stretch:normal;font-size:18px;font-family:Kalam;-inkscape-font-specification:Kalam-Regular;writing-mode:lr-tb;fill:#231f20;fill-opacity:1;fill-rule:nonzero;stroke:none"
       id="text15491"><tspan
         x="0 10.638 20.232 28.386 40.5 44.91 53.009998 61.992001 70.542"
         y="0"
         id="tspan15489">Knowledge</tspan></text>
    <text
       xml:space="preserve"
       transform="matrix(1,0,0,-1,205.6079,92.7891)"
       style="font-variant:normal;font-weight:normal;font-stretch:normal;font-size:12px;font-family:Kalam;-inkscape-font-specification:Kalam-Regular;writing-mode:lr-tb;fill:#231f20;fill-opacity:1;fill-rule:nonzero;stroke:none"
       id="text15497"><tspan
         x="0 6.3720002 11.712 17.112 22.848 27.492001 30.348 35.688 41.316002"
         y="0"
         id="tspan15493">Sceptical</tspan><tspan
         x="10.764 17.148001 20.004 25.403999"
         y="17.4"
         id="tspan15495">View</tspan></text>
    <text
       xml:space="preserve"
       transform="matrix(1,0,0,-1,33.7207,137.4678)"
       style="font-variant:normal;font-weight:normal;font-stretch:normal;font-size:18px;font-family:Kalam;-inkscape-font-specification:Kalam-Regular;writing-mode:lr-tb;fill:#231f20;fill-opacity:1;fill-rule:nonzero;stroke:none"
       id="text15501"><tspan
         x="0 14.202 22.643999 29.610001"
         y="0"
         id="tspan15499">Math</tspan></text>
    <path
       d="M 87.071,124.551 H 19.627 v 33.007 h 67.444 z"
       style="fill:none;stroke:#231f20;stroke-width:1;stroke-linecap:butt;stroke-linejoin:miter;stroke-miterlimit:10;stroke-dasharray:none;stroke-opacity:1"
       id="path15503" />
    <text
       xml:space="preserve"
       transform="matrix(1,0,0,-1,199.8047,137.4673)"
       style="font-variant:normal;font-weight:normal;font-stretch:normal;font-size:18px;font-family:Kalam;-inkscape-font-specification:Kalam-Regular;writing-mode:lr-tb;fill:#231f20;fill-opacity:1;fill-rule:nonzero;stroke:none"
       id="text15507"><tspan
         x="0 9.5579996 17.568001 21.851999 29.952 39.546001 47.556"
         y="0"
         id="tspan15505">Science</tspan></text>
    <path
       d="m 266.497,124.551 h -77.729 v 33.007 h 77.729 z"
       style="fill:none;stroke:#231f20;stroke-width:1;stroke-linecap:butt;stroke-linejoin:miter;stroke-miterlimit:10;stroke-dasharray:none;stroke-opacity:1"
       id="path15509" />
  </g>
  <path
     style="fill:#ffffff;fill-opacity:1;stroke-width:1.73413"
     d="m 130.0601,312.14425 v -75.43486 h 123.99063 123.99063 v 75.43486 75.43486 H 254.05073 130.0601 Z m 236.70939,60.26329 v -7.36797 l -26.44556,-0.002 c -21.30736,-0.002 -26.44555,0.462 -26.44555,2.38673 0,1.31388 -1.26944,3.44241 -2.82099,4.73008 -2.54343,2.11087 -2.75221,1.6199 -2.12185,-4.99006 0.54572,-5.72238 0.11824,-7.33129 -1.94787,-7.33129 -1.98112,0 -2.64703,1.96311 -2.64703,7.80361 v 7.8036 h 26.26002 c 22.26386,0 26.41902,0.41435 27.30487,2.72283 0.62672,1.63321 2.60937,2.50067 4.9544,2.16767 3.35611,-0.47657 3.90956,-1.5982 3.90956,-7.92312 z m -133.34284,0.28959 c -0.57893,-1.50867 -1.0526,-3.87344 -1.0526,-5.25504 0,-1.95326 -2.35165,-2.44144 -10.57247,-2.19477 -7.3991,0.22202 -11.08227,-0.41282 -12.27096,-2.11503 -1.30576,-1.86986 -1.90188,-1.93105 -2.57806,-0.2646 -1.04806,2.58294 -38.74149,3.14535 -38.74149,0.57804 0,-0.87429 0.97545,-1.938 2.16766,-2.36379 1.19222,-0.42579 1.51523,-1.46627 0.7178,-2.31218 -0.82175,-0.8717 -2.82036,0.15236 -4.61331,2.36379 -3.68239,4.5419 -13.17316,5.61357 -11.51812,1.3006 0.65227,-1.69978 -0.0505,-2.6012 -2.02805,-2.6012 -2.43704,0 -3.01729,1.51824 -2.98031,7.79808 l 0.0459,7.79808 42.2383,0.006 c 37.80474,0.005 42.12781,-0.2824 41.1857,-2.73751 z m 11.43317,0.66207 c -3.12967,-3.12966 -2.71361,-10.67182 0.52024,-9.43087 1.5845,0.60803 2.6012,0.003 2.6012,-1.5486 0,-1.75452 -1.88812,-2.54678 -6.06947,-2.54678 -4.18135,0 -6.06947,0.79226 -6.06947,2.54678 0,1.55134 1.0167,2.15663 2.6012,1.5486 3.23386,-1.24095 3.64991,6.30121 0.52024,9.43087 -1.61852,1.61853 -0.96341,2.08096 2.94803,2.08096 3.91144,0 4.56655,-0.46243 2.94803,-2.08096 z m 56.07439,0.24677 c 0.55546,-0.89874 -0.20667,-1.63408 -1.69363,-1.63408 -1.48695,0 -2.70355,-1.14605 -2.70355,-2.54677 0,-1.55135 1.01671,-2.15663 2.60121,-1.5486 1.43066,0.54899 2.6012,0.15808 2.6012,-0.86869 0,-1.02973 -2.79071,-1.76195 -6.22343,-1.6329 -3.63642,0.1367 -6.93517,-0.78632 -7.93563,-2.22048 -1.3123,-1.88117 -1.91763,-1.94815 -2.59175,-0.28676 -0.60492,1.49082 -5.4005,2.16766 -15.35834,2.16766 -12.93406,0 -14.59568,0.36837 -15.57463,3.45275 -0.60272,1.89902 -0.66841,4.14439 -0.14596,4.98972 1.2817,2.07384 45.74712,2.19501 47.02451,0.12815 z M 215.0327,361.56708 c 0,-0.95377 -0.78036,-1.73413 -1.73413,-1.73413 -0.95378,0 -1.73414,0.78036 -1.73414,1.73413 0,0.95378 0.78036,1.73414 1.73414,1.73414 0.95377,0 1.73413,-0.78036 1.73413,-1.73414 z m 78.03606,0 c 0,-0.95377 -0.78036,-1.73413 -1.73413,-1.73413 -0.95377,0 -1.73414,0.78036 -1.73414,1.73413 0,0.95378 0.78037,1.73414 1.73414,1.73414 0.95377,0 1.73413,-0.78036 1.73413,-1.73414 z m 55.49231,0 c 0,-0.95377 -0.78036,-1.73413 -1.73413,-1.73413 -0.95377,0 -1.73413,0.78036 -1.73413,1.73413 0,0.95378 0.78036,1.73414 1.73413,1.73414 0.95377,0 1.73413,-0.78036 1.73413,-1.73414 z M 286.13223,326.01732 V 302.60651 H 254.9178 223.70338 v 23.41081 23.41082 h 31.21442 31.21443 z m 50.2899,-55.49231 V 247.11419 H 255.78487 175.1476 v 23.41082 23.41082 h 80.63727 80.63726 z"
     id="path3164" />
  <path
     style="fill:#ffffff;fill-opacity:1;stroke-width:1.73413"
     d="M 1.7341347,486.42478 V 403.18632 H 99.712745 197.69136 v 83.23846 83.23847 H 99.712745 1.7341347 Z M 136.43669,563.41876 c 0.58594,-1.52692 0.21246,-3.30333 -0.82995,-3.94757 -1.22399,-0.75647 -1.3229,-2.07647 -0.27925,-3.72679 2.77402,-4.38652 1.92607,-4.96003 -7.22875,-4.88912 -5.62347,0.0436 -9.45244,-0.79068 -10.40481,-2.26696 -1.1662,-1.80776 -1.81728,-1.85683 -2.87968,-0.21704 -0.87446,1.34971 -6.5884,2.21363 -15.741116,2.37997 -13.324588,0.24215 -14.504818,0.56063 -16.246931,4.38416 -2.77648,6.0937 -5.272514,5.00463 -4.461015,-1.94644 0.540478,-4.62959 0.07124,-6.06947 -1.977944,-6.06947 -1.978182,0 -2.686519,1.82891 -2.686519,6.93654 0,8.0658 -1.955376,7.64413 32.515025,7.0118 17.60454,-0.32294 20.37608,3.3e-4 20.37608,2.37668 0,3.69133 8.42694,3.66928 9.84486,-0.0258 z m 49.19223,-3.72679 c 1.37907,-3.57665 2.7871,-7.13537 3.12897,-7.90826 0.34187,-0.77289 -6.67747,-1.16307 -15.59856,-0.86707 l -16.22014,0.53819 -0.54872,4.76887 c -0.56759,4.93292 -0.31912,5.08417 8.35233,5.08417 13.0405,0 13.58798,-0.16386 12.6414,-3.78356 -0.50707,-1.93909 -0.0532,-3.46827 1.02942,-3.46827 1.92052,0 2.72091,3.26534 2.23159,9.1042 -0.44063,5.25806 2.37445,3.29899 4.98371,-3.46827 z m -115.829998,1.32032 c 0.71533,-0.0108 1.300601,-0.88357 1.300601,-1.93938 0,-1.05582 -1.170541,-1.47049 -2.601202,-0.9215 -1.430662,0.549 -2.601202,0.24231 -2.601202,-0.68153 0,-0.92384 1.235571,-1.67971 2.745712,-1.67971 1.510144,0 2.421695,-0.97545 2.025672,-2.16767 -0.414966,-1.24924 -4.333578,-2.36617 -9.248719,-2.63618 -4.690772,-0.25768 -8.788796,-1.23313 -9.10672,-2.16767 -0.317926,-0.93453 -1.33943,-1.69915 -2.270012,-1.69915 -0.930582,0 -1.209678,0.78036 -0.620213,1.73413 0.589465,0.95378 -0.535022,1.73414 -2.498859,1.73414 -2.017789,0 -3.570613,-1.13124 -3.570613,-2.60121 0,-1.43066 -1.25403,-2.6012 -2.786735,-2.6012 -1.764641,0 -2.420633,0.95405 -1.78856,2.6012 1.017328,2.65112 0.459961,2.84563 -9.316953,3.25151 -3.525669,0.14636 -4.951411,-0.48727 -4.389763,-1.9509 1.500133,-3.90928 -3.687829,-2.26597 -5.474671,1.73413 l -1.742934,3.9018 -1.240128,-3.9018 c -0.682072,-2.14599 -2.404138,-3.9018 -3.826816,-3.9018 -1.422677,0 -2.173061,0.66926 -1.667519,1.48724 0.505541,0.81798 0.226933,3.90092 -0.619129,6.85096 l -1.538295,5.36372 8.958611,0.51911 c 4.927237,0.28551 18.32294,0.33289 29.768229,0.10529 11.445289,-0.2276 21.394887,-0.42269 22.110218,-0.43353 z m 76.195278,-6.10843 c -0.58864,-5.04211 -0.23071,-5.90447 2.08235,-5.01687 1.76678,0.67798 2.79317,0.15932 2.79317,-1.41146 0,-1.70638 -1.8973,-2.4426 -6.06437,-2.3532 -3.77215,0.0809 -6.0663,0.98812 -6.06947,2.40011 -0.003,1.24851 0.87307,1.72727 1.94639,1.06393 1.35418,-0.83693 1.72615,0.72409 1.21528,5.10006 -0.57543,4.92897 -0.13088,6.30615 2.03563,6.30615 2.14836,0 2.61195,-1.36956 2.06102,-6.08872 z M 90.175004,508.06235 v -23.44994 l -31.647958,0.47265 -31.647958,0.47266 -0.491445,20.70866 c -0.270293,11.38976 -0.0997,21.72954 0.379109,22.97728 0.672565,1.75268 7.981922,2.26863 32.139402,2.26863 h 31.26885 z m 67.631256,0.0391 v -23.4108 H 126.59183 95.377408 v 23.41082 23.41082 h 31.214422 31.21443 z m -0.3846,-62.86239 -0.48247,-23.84435 H 91.909139 26.879088 l -0.489616,21.58049 c -0.269288,11.86928 -0.09869,22.59923 0.379108,23.84436 0.69333,1.80678 14.019132,2.26386 66.002138,2.26386 h 65.133412 z"
     id="path3235" />
  <path
     style="fill:#ffffff;fill-opacity:1;stroke-width:1.73413"
     d="m 213.29857,486.42478 v -83.23846 h 82.3714 82.37139 v 83.23846 83.23847 h -82.37139 -82.3714 z m 151.13502,71.87481 2.83916,-7.89539 -15.85884,0.52532 -15.85885,0.52531 -0.54871,4.76887 c -0.3018,2.62288 0.0884,4.83746 0.86706,4.92129 2.50934,0.27014 11.70636,0.31601 15.7224,0.0784 2.66877,-0.15789 3.9018,-1.32687 3.9018,-3.6991 0,-1.90755 0.68935,-3.46827 1.53188,-3.46827 2.34822,0 3.41297,6.09377 1.62346,9.29143 -1.11995,2.00126 -0.91966,2.84751 0.67397,2.84751 1.24712,0 3.54513,-3.55293 5.10667,-7.89539 z m -56.49149,2.83999 c 6.84406,-0.14231 7.04536,-0.31307 6.30619,-5.34941 -0.71379,-4.86334 -1.2537,-5.2024 -8.28417,-5.2024 -5.33304,0 -8.03476,0.88273 -9.28818,3.03473 -1.51114,2.59446 -1.77523,2.34288 -1.82031,-1.73413 -0.029,-2.62288 -0.87915,-4.76887 -1.88921,-4.76887 -1.01006,0 -1.35419,0.78036 -0.76472,1.73413 0.58946,0.95378 0.24534,1.73414 -0.76473,1.73414 -1.01006,0 -1.83648,-0.93644 -1.83648,-2.08096 0,-1.61853 -0.46243,-1.61853 -2.08096,0 -1.39406,1.39405 -8.40619,2.01456 -21.24315,1.8798 -10.5392,-0.11064 -17.79655,-0.55804 -16.12745,-0.99423 3.73669,-0.9765 4.02341,-4.00702 0.37911,-4.00702 -1.4606,0 -3.10481,1.17054 -3.6538,2.6012 -0.62053,1.61706 -3.26304,2.60121 -6.98446,2.60121 -3.54927,0 -5.54997,-0.70597 -4.91453,-1.73414 0.58947,-0.95377 -0.33993,-1.73464 -2.06532,-1.73527 -2.46928,-8.9e-4 -3.13708,1.38342 -3.13708,6.50301 v 6.50414 l 12.13894,0.86707 c 10.24527,0.7318 35.23153,0.78743 66.03031,0.147 z m 16.64259,-6.45315 c -0.51087,-4.37597 -0.13891,-5.93699 1.21528,-5.10006 1.07332,0.66334 1.95149,0.18458 1.95149,-1.06393 0,-3.05407 -10.09678,-2.9728 -11.27237,0.0907 -0.61819,1.61098 -0.0125,2.01794 1.90693,1.28136 2.33687,-0.89674 2.69256,-0.0491 2.10202,5.00933 -0.55094,4.71916 -0.0874,6.08872 2.06101,6.08872 2.16651,0 2.61106,-1.37718 2.03564,-6.30615 z m -0.3015,-46.58496 v -23.41082 h -51.15697 -51.15698 v 23.41082 23.41082 h 51.15698 51.15697 z m 32.56396,-66.33066 -0.48247,-23.84435 -50.72344,-0.45972 -50.72344,-0.45973 v 24.30408 24.30408 h 51.20591 51.20591 z"
     id="path3237" />
  <path
     style="fill:#ffffff;fill-opacity:1;stroke-width:1.73413"
     d="m 29.48029,508.10147 v -19.94255 h 28.613222 28.613223 v 19.94255 19.94255 H 58.093512 29.48029 Z m 47.601997,2.40629 c 0.988072,-0.92317 -0.209353,-1.53923 -2.991814,-1.53923 -4.263377,0 -4.502223,-0.36039 -2.948029,-4.44822 2.150003,-5.65494 2.15957,-9.42485 0.02392,-9.42485 -2.162055,0 -5.795943,13.4675 -4.526502,16.77561 0.999973,2.60589 7.037907,1.81761 10.442425,-1.36331 z m -26.792381,-2.30395 c 0,-2.32815 -0.78036,-4.71528 -1.734134,-5.30475 -2.731086,-1.6879 -2.033847,-3.85245 1.542169,-4.7876 5.538682,-1.4484 7.493732,1.0773 6.194534,8.00261 -0.761995,4.06178 -0.525127,6.32273 0.662398,6.32273 1.016702,0 2.379829,-2.83197 3.029174,-6.29326 0.759249,-4.04716 2.33461,-6.59505 4.413916,-7.1388 1.77831,-0.46504 3.23329,-1.53487 3.23329,-2.3774 0,-1.71974 -19.015721,-2.11141 -23.268988,-0.47928 -3.459306,1.32746 -3.524161,4.81098 -0.14183,7.61807 4.016466,3.33337 3.101,5.70383 -1.734135,4.49029 -2.384435,-0.59845 -4.335337,-0.42293 -4.335337,0.39005 0,2.63178 2.208566,3.79033 7.225562,3.79033 4.053172,0 4.913381,-0.74109 4.913381,-4.23299 z"
     id="path3348" />
  <path
     style="fill:#ffffff;fill-opacity:1;stroke-width:1.73413"
     d="m 29.48029,444.80555 v -20.80962 h 62.428849 62.428851 v 20.80962 20.80962 H 91.909139 29.48029 Z m 93.81629,8.1164 c 1.68852,-3.70589 2.70942,-3.97372 12.96883,-3.40226 11.40948,0.63551 14.02779,-1.12874 9.05508,-6.10145 -1.61853,-1.61852 -1.39373,-2.08096 1.01158,-2.08096 1.70089,0 2.78364,-0.92668 2.40611,-2.05928 -1.06931,-3.20793 -4.26324,-3.58122 -6.81759,-0.79682 -2.03407,2.21726 -2.69587,2.19905 -5.32495,-0.14652 -2.35062,-2.09712 -3.54032,-2.23186 -5.48156,-0.62077 -1.90864,1.58403 -2.77135,1.58519 -3.74793,0.005 -0.85968,-1.391 -2.00757,-0.71944 -3.56121,2.08346 l -2.29261,4.13608 -0.1166,-4.33533 c -0.10552,-3.92326 -0.33039,-4.05398 -2.36571,-1.37526 -2.04016,2.6851 -2.50108,2.70811 -4.96145,0.24773 -2.46038,-2.46037 -3.05181,-2.37288 -6.36642,0.94173 -2.00974,2.00973 -3.73702,3.0688 -3.8384,2.35346 -0.10139,-0.71533 -0.29648,-2.86132 -0.43354,-4.76887 -0.18254,-2.54055 -1.68546,-3.6083 -5.618673,-3.9918 -4.941439,-0.4818 -5.381747,-0.092 -5.523372,4.88909 -0.08464,2.97694 -1.072796,6.51983 -2.1959,7.87308 -2.928981,3.52921 2.634193,5.34208 9.009135,2.93581 2.77698,-1.0482 4.94668,-1.17262 4.94668,-0.28367 0,0.87093 2.34108,1.5835 5.20241,1.5835 4.16902,0 5.24931,-0.77503 5.43856,-3.9018 l 0.23616,-3.9018 0.75152,3.9018 c 0.41333,2.14599 1.4776,3.9018 2.36504,3.9018 0.88744,0 1.61352,0.75587 1.61352,1.67971 0,0.92384 -1.17054,1.23053 -2.6012,0.68154 -2.62277,-1.00645 -3.5877,1.27662 -1.44511,3.4192 2.35945,2.35945 5.90966,1.03569 7.6876,-2.86645 z m -82.778616,-5.5302 c 0.552163,-1.43891 2.976734,-3.51507 5.387937,-4.61369 8.013013,-3.65098 4.278145,-13.82393 -3.851203,-10.48982 -1.670167,0.68499 -3.119649,2.41598 -3.221072,3.84664 -0.101422,1.43066 -0.748697,5.13737 -1.438387,8.23714 -1.269398,5.70522 1.182395,8.07615 3.122725,3.01973 z m 13.240212,0.015 c 0,-1.43066 1.170541,-2.6012 2.601202,-2.6012 1.430661,0 2.601202,1.17054 2.601202,2.6012 0,4.22158 3.457249,2.96755 3.585635,-1.3006 l 0.117367,-3.9018 1.881768,3.9018 c 2.172838,4.50533 8.514633,5.20691 11.756577,1.3006 1.187343,-1.43066 3.968102,-2.6012 6.179464,-2.6012 2.211362,0 4.502946,-0.78036 5.092411,-1.73413 0.622787,-1.0077 -1.089912,-1.73414 -4.088482,-1.73414 -2.83813,0 -5.420356,0.67721 -5.738282,1.50491 -0.941867,2.4521 -8.38165,4.19737 -8.38165,1.96621 0,-3.62782 3.566324,-8.67352 6.130485,-8.67352 1.397104,0 2.540188,-0.78036 2.540188,-1.73414 0,-3.34459 -6.71785,-1.69213 -9.979868,2.45485 -3.488672,4.43513 -6.543739,3.93395 -7.594404,-1.24585 -0.943456,-4.65125 -3.680677,-4.02426 -6.984391,1.59987 -3.284839,5.59199 -4.103179,12.79834 -1.453357,12.79834 0.953774,0 1.734135,-1.17054 1.734135,-2.6012 z"
     id="path3350" />
  <path
     style="fill:#ffffff;fill-opacity:1;stroke-width:1.73413"
     d="m 29.48029,508.10147 v -19.94255 h 28.613222 28.613223 v 19.94255 19.94255 H 58.093512 29.48029 Z m 47.601997,2.40629 c 0.988072,-0.92317 -0.209353,-1.53923 -2.991814,-1.53923 -4.263377,0 -4.502223,-0.36039 -2.948029,-4.44822 2.150003,-5.65494 2.15957,-9.42485 0.02392,-9.42485 -2.162055,0 -5.795943,13.4675 -4.526502,16.77561 0.999973,2.60589 7.037907,1.81761 10.442425,-1.36331 z m -26.792381,-2.30395 c 0,-2.32815 -0.78036,-4.71528 -1.734134,-5.30475 -2.731086,-1.6879 -2.033847,-3.85245 1.542169,-4.7876 5.538682,-1.4484 7.493732,1.0773 6.194534,8.00261 -0.761995,4.06178 -0.525127,6.32273 0.662398,6.32273 1.016702,0 2.379829,-2.83197 3.029174,-6.29326 0.759249,-4.04716 2.33461,-6.59505 4.413916,-7.1388 1.77831,-0.46504 3.23329,-1.53487 3.23329,-2.3774 0,-1.71974 -19.015721,-2.11141 -23.268988,-0.47928 -3.459306,1.32746 -3.524161,4.81098 -0.14183,7.61807 4.016466,3.33337 3.101,5.70383 -1.734135,4.49029 -2.384435,-0.59845 -4.335337,-0.42293 -4.335337,0.39005 0,2.63178 2.208566,3.79033 7.225562,3.79033 4.053172,0 4.913381,-0.74109 4.913381,-4.23299 z"
     id="path3352" />
  <path
     style="fill:#ffffff;fill-opacity:1;stroke-width:1.73413"
     d="m 98.845678,508.10147 v -19.94255 h 27.746152 27.74616 v 19.94255 19.94255 H 126.59183 98.845678 Z m 15.846392,-1.85782 c 7.14365,-3.69413 6.38299,-10.05833 -1.29155,-10.80602 -5.1993,-0.50653 -5.4264,-0.24253 -6.49443,7.54955 -1.06371,7.7606 0.68746,15.62695 2.00187,8.99252 0.33325,-1.68207 2.9361,-4.26329 5.78411,-5.73605 z m 12.11128,0.99075 c 0.83744,0 1.52262,1.71679 1.52262,3.8151 0,4.8554 2.63549,2.15369 4.14448,-4.24863 0.66417,-2.81792 0.40105,-4.76887 -0.64317,-4.76887 -0.97195,0 -1.76718,-1.56073 -1.76718,-3.46827 0,-1.90755 -1.02601,-3.46827 -2.28002,-3.46827 -2.77471,0 -8.15948,10.79093 -8.03383,16.09958 l 0.091,3.84297 2.72176,-3.90181 c 1.49697,-2.14599 3.40694,-3.9018 4.24438,-3.9018 z m 20.20074,2.09203 c 0.53406,-1.62602 -0.50285,-1.93217 -3.76825,-1.11261 -6.00175,1.50635 -6.10098,-2.94061 -0.16973,-7.60614 5.37371,-4.22696 5.51497,-5.92098 0.43354,-5.1993 -4.35593,0.61864 -10.31915,10.63583 -8.75617,14.70888 1.19023,3.1017 11.19406,2.45644 12.26061,-0.79083 z"
     id="path3354" />
  <path
     style="fill:#ffffff;fill-opacity:1;stroke-width:1.73413"
     d="m 258.38607,441.33728 v -20.80962 h 47.6887 47.68871 v 20.80962 20.80962 h -47.68871 -47.6887 z m 69.36539,2.39895 c 0,-4.73187 -0.67833,-5.86722 -3.50545,-5.86722 -2.0563,0 -4.32204,1.79222 -5.48076,4.33534 -1.11245,2.44155 -3.43533,4.33534 -5.31765,4.33534 -2.93863,0 -3.20079,-0.83785 -2.17042,-6.93654 1.51517,-8.96824 -1.78046,-9.30488 -4.24416,-0.43354 -2.87785,10.36265 -2.56188,11.0223 5.064,10.57234 3.78912,-0.22357 7.34593,0.0501 7.90402,0.60821 0.55809,0.55809 2.53024,0.61839 4.38256,0.134 2.49724,-0.65304 3.36786,-2.39744 3.36786,-6.74793 z m 9.68707,6.39566 c 2.49355,2.06946 7.65428,-4.12026 7.65428,-9.18046 0,-3.99323 -3.40497,-4.03747 -3.66944,-0.0477 -0.19158,2.89022 -0.23892,2.89022 -0.99422,0 -0.43618,-1.66911 -1.90638,-3.03474 -3.2671,-3.03474 -1.36073,0 -2.56458,1.36563 -2.67521,3.03474 -0.19159,2.89022 -0.23893,2.89022 -0.99423,0 -1.34959,-5.1644 -4.00702,-3.34347 -4.00702,2.74571 0,6.53515 1.55001,8.97041 4.09176,6.42866 1.13961,-1.13961 2.44515,-1.12143 3.86118,0.0538 z m -58.24284,-1.85807 c 0,-0.95377 -1.32662,-1.73413 -2.94803,-1.73413 -2.34311,0 -2.50753,-0.44051 -0.80127,-2.14676 1.18072,-1.18072 5.75774,-2.15617 10.17118,-2.16767 7.24715,-0.0189 8.18212,-0.49333 9.65258,-4.89817 1.95774,-5.86451 0.65672,-7.76632 -2.88798,-4.22162 -1.53058,1.53058 -4.39509,2.24003 -7.01912,1.73842 -3.4509,-0.65969 -4.45758,-0.13023 -4.54315,2.38943 -0.0902,2.6576 -0.39868,2.51676 -1.72339,-0.78693 -1.78649,-4.45531 -8.55035,-4.78241 -9.96843,-0.48208 -0.57693,1.74951 0.23542,2.15947 2.8989,1.46295 4.89386,-1.27977 4.67627,0.65457 -0.6349,5.64416 -5.8304,5.47737 -5.46561,6.93653 1.73414,6.93653 3.3382,0 6.06947,-0.78036 6.06947,-1.73413 z"
     id="path3356" />
  <path
     style="fill:#ffffff;fill-opacity:1;stroke-width:1.73413"
     d="m 225.43751,508.10147 v -19.94255 h 47.68871 47.6887 v 19.94255 19.94255 h -47.6887 -47.68871 z m 18.02288,6.79471 c 0.57893,-1.50867 1.11421,-4.43503 1.18951,-6.50301 0.0753,-2.06798 0.53051,-2.78452 1.01158,-1.5923 0.48107,1.19221 3.23421,2.16766 6.1181,2.16766 3.84347,0 4.9884,-0.66458 4.28824,-2.48916 -0.52535,-1.36904 -0.0236,-2.83222 1.11507,-3.2515 1.56546,-0.57646 1.5241,-1.3402 -0.16964,-3.13228 -1.40953,-1.49138 -2.69525,-1.73245 -3.46826,-0.6503 -1.83393,2.56734 -5.6352,2.95206 -8.19308,0.82921 -2.85974,-2.37338 -3.58062,-1.07289 -5.05956,9.12757 -1.15342,7.95534 0.87422,11.47172 3.16804,5.49411 z m 46.1401,-0.25504 c 0,-1.21238 0.78037,-2.20434 1.73414,-2.20434 0.95377,0 1.73413,1.17054 1.73413,2.60121 0,3.53321 2.89759,3.28512 5.06351,-0.43354 1.6834,-2.89022 1.77008,-2.89022 1.8203,0 0.029,1.66911 0.84572,3.03474 1.81492,3.03474 2.46335,0 7.84249,-11.8035 6.11481,-13.41777 -0.77841,-0.72731 -1.77451,-0.31436 -2.21357,0.91767 -0.62184,1.74489 -1.348,1.78384 -3.28506,0.17621 -1.97698,-1.64074 -2.99761,-1.38895 -4.97862,1.22823 -2.0751,2.74147 -2.50107,2.82864 -2.547,0.52122 -0.0916,-4.60347 -10.00338,-3.87344 -13.17728,0.97054 -1.45563,2.22157 -4.14511,4.43109 -5.97662,4.91004 -3.01866,0.7894 -3.23229,0.15774 -2.28474,-6.7554 0.61368,-4.47729 0.35256,-7.62622 -0.63239,-7.62622 -1.75089,0 -5.95481,15.5751 -4.73614,17.54694 1.37342,2.22224 21.54961,0.84637 21.54961,-1.46953 z"
     id="path3358" />
</svg>
